<svg xmlns="http://www.w3.org/2000/svg" width="69" height="66" fill="none" viewBox="0 0 69 66"><path fill="#000" d="M46.108 19.488c.01 0-.054-.268-.069-.318-.119-.383.033.317.069.318m.758 41.044q.177-.314.347-.627c-.352.037-.825.334-1.168.297-.055-.007.074-.526-.055-.503s-.09.659-.281.792a.3.3 0 0 1-.086.037c-.533.1-1.841-.046-2.293.02-1.924.312-3.639.79-4.578.685 1.217-.666.129-1.015-.123-.744-.024.068-.447 1.302-.897 1.243-.107-.014.008-.52.06-.873.067-.35.03-.559-.042.085-.205 1.034-.333 1.193-.082 1.497q.03.04.307.154c.18.075.448.172.629.28.118.075.268.87.473.96.14.06.27-.297.49-.212q.257.096.533.18c.964.28 1.735.426 2.22.455-.537-1.99.173-.731.156-.813.054-.476-.485-.799-.308-1.05.306.154.488.31.532.486.003.137.3 1.737.118 1.167.146.836.018.624-.501.325-.489-.3-1.412-.702-1.62-.343-.041.076.13.28.118.473-.025.191-.162.375-1.133.399-.217.004-.195-.544-.301-.47-.058.042-.32 1.822-.921.976-.258-.322 1.036-1.586-1.82-.773 1.242 1.424-3.267 1.45-5.765.683a4.4 4.4 0 0 1-.615-.229q.272.344.552.68l.09.093-.096-.054c-1.04-.66-1.39-.15-1.668-.218-1.17-.29-2.865-1.262-4.273-1.64-1.654-.463-2.088.586-4.048-.725.397.446.82.888 1.222 1.305a33 33 0 0 1-4.467-2.348c4.235.645-.711-.433-1.014-.661-.47-.238.49-.334-.272-.74-.077-.041-.31.51-1.44-.212-2.296-1.55-1.416-1.84-2.222-2.506-.054-.05-.236.508-1.5-.511-3.224-2.688.141-.374.483-.18.123.051.255-.594.67-.825.445-.223.964-.1 2.641 1.733-1.144-1.223-.545-2.005-.665-2.132-.047-.054-.565-.478-1.005-.855-.449-.382-.81-.695-.855-.717-.816-.377-.791.58-.989.544-.081-.016-.324-.543-.582-.75-.275-.227-.53-.076-1.25.596 1.538-.948.855-1.527 2.073-.624.21-.047.102-.425.039-.69-.074-.276-.077-.4-.08-.402-.096-.078-.074.26-.262.498-1.276-.671-.517 1.459-2.1.546-1.336-.652-3.808-6.335-1.847-1.033-3.873-5.458-3.889-7.638-3.683-7.287.264.204 1.263 1.922 1.126 1.466-.546-1.3-2.363-6.096-2.322-6.67-.085-.854.913 1.965.471-1.347-.04-.277-.405-1.628-.678-2.081-.242-.415-.692-.272-.284 3.27-.747-4.745-.593-6.03-.607-6.968.048-.865.247-1.213.993-1.875-1.148-1.52-.731-1.584.003-1.64.734-.018 1.795.096 1.884-.023.115-.137.05-.095-.095-.073a2.8 2.8 0 0 1-.612.034c-.476-.02-.995-.15-1.048-.134-.258.101-.473.613-.574 3.111-.137 2.37.426 7.168 1.732 10.624.57 1.608 1.04 2.615 1.278 3.234.217-.56-.133-1.621-.73-3.428-1.641-4.594-2.214-10.136-1.917-10.889.314-1.21.5-1.205.612-.93.116.302.159 1.113.298 2.284.23 2.335 1.25 5.876 1.768 2.901-.217 1.823-.183 4.04.187 6.3q.131.828.281 1.578c1.408 1.74 1.59 1.018 1.965 1.297.182.11.414.44.796 1.096.374.645.934 1.625 1.454 2.508-.224.551-.57.051-1.097-.868-.512-.879-1.183-2.317-1.17-1.461.007.51.563 1.704.936 2.428.386.756.607 1.17.52 1.265-.106.107-.353-.229-.699-.701-.335-.453-.76-1.06-.806-.709-.053.378.372 1.222.745 1.775.385.575.695.873.859.929.17.06.244-.065.363-.157.056-.05.121-.093.15-.177.025-.09.02-.206-.184-.564.46.583 1.559-.449 1.366-.645-.033-.035-.1-.057-.211-.064-.213-.019-.421.473-.743.884-.276.351-.593.694-.917.788-.163.034-.33.012-.646-.282-.327-.322-.778-.81-1.84-2.48.309-.372 1.119.682 1.594 1.342.499.702.668 1.12.708 1.113.122-.016 1.53-1.624 1.564-1.747.028-.192-.418-.488-1.863-2.44-1.24-1.772-4.685-6.76-4.891-14.908.05.103.168-.382.445-.662-.59.179-.74-.488-.478-3.055.18-2.46 1.586-6.785 1.797-7.645.068-.484-1.24.925-1.143.426.276-3.433 6.877-10.555 9.188-11.945 2.565-2.056 1.806-2.14 1.958-2.282 1.06-.68.48.238 1.1-.174a29 29 0 0 1 2.992-1.664c2.119-1.024 3.501-1.42 3.604-1.518.056-.049-.9-.502 0-.945.085-.039.583.647 2.426-.184 1-.45.577-.631-.03-.833-.604-.203-1.606-.331-1.17-.914 1.937.854 1.415-.306 1.819-.29.132.01 1.188.922 1.786.784-.423.228-.918.479-1.528.775.713.051 1.608-.307 1.957-.126.178.086.213.971.526.918.048-.012.012-2.183-.744-1.129-.216-.752.335-.309.474-.537.02-.036-.078-1.318.268-.542.043.2.277 3.903.967 1.189.02-.087-.163-.55-.146-.646.017-.066.286.124.295.06.015-.07-.168-.579-.152-.678.08-.507.55 1.507.236 1.342q.211.376.386.758c-.308-1.517.07-.415.137-.445.338-.174-.068-1.231-.082-1.714-.091-.76.31 1.76.175 1.073-.007-.032-.044-.345-.077-.549-.05-.2.002-.309-.18.14a.7.7 0 0 1 .177.01c.247 1.456-.193.038-.248.037-.15-.032-.178.064-.223.097-.06.038-.097 0-.597-.201-.08-.031-.165.282-.354.3a.3.3 0 0 1-.102-.009c-.492-.144-.367-.33-.038-.543.407-.28.817-.494.758-.832-.026-.147-.334-.075-.93.152-.647.233-1.19.533-1.204.61-.162.717 1.142-.194 1.078.641-.006.143-.955.439-1.619.738-.705.311-.867.471-.763.628.197.391 1.22 2.08.347.118.948 1.919.497.575.572.574 1.01-.035 1.09-.06 2.374-.58.307-.12.793.411.88.283.051-.077-.298-.686-.003-.963.365-.414 3.928-.273 4.229.112.313.33-1.37.31-.942.87 1.174-.092 2.285-.317 3.418-.264.465.027.268.443.466.452.099-.006 1.584-.307 1.508-.454-.052-.475-5.165-.062-3.935-.83.252-.164 1.329.752 1.021-.405 1.186.024 2.31.124 3.336.279 3.433.425 6.984 1.646 8.811 2.783-1.615.093-4.12-1.515-6.862-1.808-.364-.05-1.615-.29-1.453.313 2.238.325 5.11.697 6.62 1.683.048.03-.247.458-.074.607.34.276 1.528-.074 1.597.2.016.059-.669.457-.618.94.113 1.227.829-1.035 1.118-.845.109.072.432.586.63.973.21.392.296.653.431.374.14-.297.152-.485.082-.692-.064-.205-.239-.435-.115-.71.758-.129.444.765-.01.846-.008 0 .19-.48.096-.509-.18-.05-.413.61-.553.74-.141.139-.653.146-.779.397a6 6 0 0 0-.013.666c.17.22.414-.626.438-.641.08-.046.08.258.144.226.106-.054.232-.362.357-.419.084-.04-.134.548-.056.5.03-.016.637-1.405.274-.092-.041.144-.245.398-.711.626-.457.229-1.184.457-1.78.648-.538.17-.738.305-.798.242.168-.262.395-.52.712-.763-.648.55-.902-.18-.936 1.346-.643.997.553 1.928 2.881 2.942.458.282.178 1 .997 1.053q-.323-.503-.626-1.005c.302.309 2.539 1.42 3.19 1.502.074.008.22-.675 1.129-.377.842.288.898.867 1.357 1.184.283.191.635.314.872.411.1.041.18.076.218.107.097.077.028.383.26.574.791.646.432-.559.964.908a14 14 0 0 0-.734-.315c.972.687 2.901 2.685.69 1.365-.343-.179.071-.256-.172-.41a18 18 0 0 0-1.683-.945c-1.386-.647-1.659-.628-1.579-.53.104.119.654.405 1.471.832.727.399 1.893.973 3.265 1.898.25.565 2.767 2.18 4.223 6.426 1.248 4.282.151 6.494.198 6.536-.104.162-.147-.093-.258-.187-.111-.108-.28.04-.645.695-.035.062-.231.62-.453 1.052-.223.447-.446.766-.583.884-.143.127-.212.077-.276.022-.061-.063-.144-.068-.216-.082-.029-.01.064.01.326-.332.25-.3.678-1.132.82-1.596-.78.95-1.199 1.696-1.2 1.856-.023.208.328-.185.332-.32.027-.551-.237-.03-.41.086q-.129.102-.226.027c-.06-.074-.132-.096-.052-.714.068-.512.14-1.006.195-1.2.058-.214.12-.165.186-.033.133.253.268.796.442.1.119-.342.07-2.898-1.034-4.933-.392-.666-.59-.954-.318-1.103-.474-.62-.465-.06-.555-.119-.038-.023-.252-.284-.427-.42-.182-.145-.32-.182-.43-.132-.027.012-.239.257-.275.276-.033.015-.118.014-.154.048-.04.03-.037.088-.028.084.01-.008.241-.288.284-.314.023-.016.002.057.015.16.01.1.051.227.084.211.05-.025.013-.18.03-.311a.5.5 0 0 1 .187-.341c-.112.214.207.555.536.688-.092-.03-.244-.384-.247-.496.172-.147.31-.049.395.13.083.177.093.405-.113.37.235.069.247-.143.438-.147.045-.005.22.339.321.372.013-.006-.04-.5.066-.485.092.009.266.297.47.704.2.395.424.939.442 1.037.053.272-.138-.015-.348-.294-.213-.287-.431-.544-.526-.53-.042-.03.185 1.29.176 1.37-.128.13-.298-.204-.443-.462-.146-.262-.266-.468-.361-.313.07.288.152.607.243.971-.894-1.178-1.225-2.164-1.503-2.05.205.404 1.007 1.904.342 2.404-.287.17-.708-.228-.761-.14-.104.134-.008.304.128.486.136.178.31.379.311.401q-.005.058-.028.07c-.075.046-.29-.247-.472-.466-.186-.226-.337-.397-.38-.39-.149.033-.437.779-.545.86-.037-.017-.414-.408-.505-.087-.104.296.145.777.139.827-.032.092-.195-.088-.341-.23-.148-.147-.278-.264-.315-.245-.04.016-.046.532-.097.595-.056.05-.335-.11-.563-.022-.172.06-.168.328-.208.315-.036-.027-.293-.436-.318-.417-.051.009-.156.247-.203.274-.069.038-.081-.123-.13-.05-.044.052-.291 1.004-.443 1.126-.262.204.025-.694-.697.557-.005.007.13.025.125.034-.154.194-.617.224-.353.44-.725-.175-.428.278-.922.574-.179.13-.393.1-.422.121-.187.212.02.086-.065.19-.044.057-.401.196-.51.352-.047.086.106.101.089.108-.101.119-.29.25-.378.335-.056.061-.03.026-.045.03-.02.018-.324.305-.435.393-.08.073-.152.142-.19.174-.206.226.078-.219-.417.384-.03.036.018-.018.008-.014-.17.136-.232.242-.405.39-.279.275-.032.019-.3.29-.1.087-.078.024-.119-.338.065.503-.266.687-.46.9-.102.098-.175.18-.214.205-.041.02-.041-.001-.092-.246.063.27-.35.553-.355.629.014.067.22-.17-.54.603-.085.104.102-.18-.13.075-.144.255-.117.167-.167.167-.25.238-.306.561-.734.432-.38-.07-1.244-.798-1.64-1.138-.618-.449-1.625-1.172-2.216-1.885-.324-.495-.523-.892-.604-1.113-.82-2.764.157-.54.099-1.178-.053-.29-.538-2.42-.503-3.834-.007-1.454.058-2.219.08-2.291.247-.479.509.185.54.138.183-.309.395-1.178.265-1.317-.059-.086-.198-.022-.37.201-.168.214-.36.604-.451.909-.126-.068.042-.643.082-.869.035-.224.005-.393-.437-.09-.547.439-.619 1.218-.466 1.607.143.42.451.54.469.578-.261 1.142-.382 3.129.268 5.185.627 2.062 1.846 3.685 2.772 4.623 1.889 1.841 2.792 2.162 3.349 2.57 2.243 1.249 2.48 1.472 2.498 2.014.01.392.015.311-.039.143-.048-.168-.16-.423-.168-.38-.05.26.16.621.206.885.06.265-.04.437-.074.347q.07.141.094.275c.032 1.069-.157.18-.323.803-.047.205.082.443.08.47-.032.45-.161.29-.112-.305-.137.67-.149.112-.308.214-.01.006.089.336-.033.617-.048.131-.439.425-.487.818-.014.169.303 1.568.24.21.457.315.095-.71.249-.806.015-.012.046.768.322.1.048 1.372-.416.776-.505.998-.134.476.565.582.546-.54.025 1.068.047.096.135.015.092-.09.07.268.113.195.099-.198.026-.812.114-.349-.144-1.79.085-.524.032-.17.042.313.008.628-.086.948l.034.272a1 1 0 0 1-.087.132l-.002-.327c-.132.953-.27.294-.286.307a8.7 8.7 0 0 1-1.275.903c-.091.044.044.716-.68.5-.242-.072-.033-.72-.304-.523-.319 1.647-.354.444-.464.482-.33.117-.569.562-.603.577-.464.199-1.248.319-1.982.473-.015.008.329.434-.131.358-.066-.012-.323-.31-.713-.634-.602-.486-1.397-1.04-2.251-.634q.471.21.98.403c-.442-.154-3.235.311-2.71.883.313.353 1.617-.977 1.497.307-.456-.18-2.065-.18-3.12-.149-1.1.026-1.512.221-1.502.095-.002-.038.226-.499.223-.546-.032-.045-.28.201-.206.07.021-.086.147-.428.195-.576.015-.053-.01-.076-.008-.003-.004.072.022.243-.05.527-.01-.302-.05-.28-.193.269-.019.069.104-.217.092-.127-.05.416-.156.459-.177.407-.029-.055.1-.179.145-.194-.623.823.088.586 1.133 1.542.504-.292-.456-1.007.071-1.192 1.111-.407.147.78.154.85.19.613 1.501-1.7 1.293.31.494-.177.35-.47 1.002-.048q-.142.183-.289.363c.383.757 1.144.27 1.605-.397.323-.533.522-1.166.472-1.274-.142-.296-.332-.278-.513-.178-.253.12-.494.355-.531.336-.122-.061-.28-2.149-1.392-.57-.27-1.469 1.605-.562.78-1.711.198.101.624.108 1.09.071.712-.05 1.792-.3 2.098.089.058.077.09 1.495.627.75.242-.355-.51-.334-.425-.662.064-.463 1.854-.754 2.652-.833.39-.02.404.138.11.417-.28.272-.803.615-1.07.767-.071.038-.214-.406-.284-.366-.186.115-.891 1.205-1.523 1.218 1.323.352-.592 1.248-1.403 1.401q-.045.01-.083.015c-.865.125-.952-.717-1.287-.798-1.253-.335-1.93 1.898-2.536.168.266 1.829-.688-.715-.771-.684-.108.033.069 1.301.221 1.994-.086-.017.09.37.58.428.083.008-.147-.52.001-.488.017.006.146.536.306.567.705.12 1.106-.18 1.055-.447-.02-.277-.297-.59-.14-.81.175-.247.352-.401.497-.482-1.67.41-2.093.153-2.218.162-.067-.593.116-.54.634-.473.484.08 1.486.082 2.007-.29.032-.024-.336-.598-.3-.616h.002c.16-.085.822-.28 1.755-.597.771-.203 1.75-.486 1.598.104-.036.154-.524.5-1.134.81-.723.37-1.489.66-2.09.831.42.01.409.804.485.81.416.022 1.082-.271 2.004-.852.8-.542 1.825-1.46 2.426-1.96.236-.193.511.197.554.167 1.03-.92-.338-1.557 1.785-1.545.49-1.655-.6-.62-1.693.258-1.117.906-2.107 1.568-2.24 1.007-.216-.501 2.633-1.627 6.089-6.48 1.623-2.336 2.653-5.069 3.174-6.627.54-1.603.826-2.278 1.173-2.256-.14-.053-.302-.252-.486-.567-.17-.296-.237-.914-.255-1.206-.017-.317.037-.28.128-.114.01-.89-.023-1.543-.024-1.909.002-.381 1.322-.398 1.264-.888.01-.638-1.29-4.959-2.67-6.977-1.358-2.195-2.134-2.916-2.07-3.49.427.244 1.035.711 1.86 1.68-1-1.567-1.295-1.886-1.458-2.178-.15-.253-.134-.33-.098-.401.09-.12.273-.215.718.024.032.035.1.041.137.078.363.225.916.718 1.475 1.354.553.62 1.07 1.35 1.124 1.343.146.003-.592-1.502-1.217-2.436-.647-.985-1.057-1.438-1.156-1.426-.139.008.018.586-.515.697-.08.018-.176-.191-.117-.154.03.013.104.107.087.194-.01.093-.152.13-.418.194-.04.011-.077-.013-.089-.027-.021-.025.035-.007.14.082.1.084.236.226.224.267-.11.433-1.026.023-1.289.445-.235.264-.249.838-.631.98.118-.337.142-.523.172-.586.052-.115.128.176.623.553.355.277.994.032 1.045.077.429.416.447.671.345.781-.097.12-.284.147-.13.348.079.102.886.585 1.562 1.505.67.89 1.105 2.15-.053 2.072a21 21 0 0 1 1.256 2.482c2.596 7.203 1.857 8.257 2.262 7.917.12-.366.568-3.275-1.114-8.322-1.273-3.568-2.778-5.546-3.594-6.622.902.55 2.455 2.236 4.02 6.471 1.021 2.873 1.279 5.442 1.422 6.842.107 1.224.794.59.889 2.423.046.89-.12 2.44-.27 3.071-.164.653-.133.39-.066-1.596.076-1.885-.203-5.916-1.577-9.362-1.337-3.493-3.1-5.683-3.984-6.726.999 1.455 1.15 2.245.887 2.195-.27-.037-.956-.796-1.736-1.787-.304-.386-.471-.642-.544-.825.176-.043.363-.27.509-.45.218 0 .4.01.318-.136a1 1 0 0 0-.066-.089c.114.084.384.556.316.63-.039.104-.367-.128-.416-.26.268.519-.02.596-.182.769-.19.144-.342.284-.729-.049a2.7 2.7 0 0 1-.217.667c.078-.36-2.199-.984-2.542-1.613-.048-.104.623-.354.598-.41-.267-.578-2.385-1.203-2.36-1.396.016-.194 1.06-.163.91-.545-.037-.086-1.222.16-1.845-.357-.234-.194.186-.627.133-.689-.46-.508-.555.484-1.48-.049-.654-.367-.888-1.43-1.844-1.345 3.448-.24.577-.64-.429-1.171-.145-.081.179-1.092-.904-.736 1.699 2.14-.833.843-1.136.9l-.002.002c-.032.029-.139.67-.382.668-.02-.002.065-.455-.164-.499-2.047-.338-.75.184-1.155.633-.168.19-.958-.38-1.132-.362-.042.005-.015.471-.168.478-.267.011-.496-.439-.636-.442-.013.002.026.737-.201.566-.062-.047-.148-.285-.09-.523.187-.79 1.03.244 1.708-.506.319-.343-.03-.498-.421-.545a3 3 0 0 0-.798.019c-.026.003.258.314-.004.442-.213.107-.672-1.06-.831-.703-.02.027-.013 1.155.005 1.213.002.043.225.183.232.505-.003.037-.124.087-.104.324.014.289.332 3.047.335 3.123 0 .193-.069-.445-.076-.386-.043.13.15 1.024.022.088a1.2 1.2 0 0 1-.071-.214c.06-.008-.024-.445-.042-.607-.009-.177.115.641.194.742-.015.026.394-.067.354-.412-.198.506-.253-.488-.273-.507-.056-.073-.012.481-.062.458-.301-.18-.172-.981-.276-1.233-.036-.086.007.382-.004.353-.037-.092-.141-.729-.145-.686-.007.099.17 1.024.177 1.069.051.55-.095-.232-.227-1.167-.065-.386.12.808.052.304-.114-1.005-.123-.679-.134-.816-.057-.495.015-.013.253-.098.092-.03.157-.578.224-.6.028-.01.843 2.009.372-1.087.273.317.983 2.369 1.257 2.285.25-.076.02-1.167.038-1.209.029-.064.39.035.502-.114.127-.175-.001-.593.23-.751.596-.39.71.718.78.793.886.873.407-.714.588-.828.113-.077 1.559.309 2.728.492.44.067.788.094.964.016q-.389.26-.775.53c.432.741.932-.276.88.934.192-1.937.998-.453 1.222-.444.097.002.12-.328.241-.312.489.057 1.37.605 1.575.512.47-.197.245-.782-.217-1.345-.453-.563-1.212-1.087-1.332-1.151.563.12 2.767.46 1.914-.8-.136-.197-.543.556-.64.56-.676.02-.072-.589-.112-.677-.073-.146-.61.466-.724.345-.042-.039.316-.666-.396-.863.478-.6 2.192.518 2.342.438.05-.03-.039-1.607.825.255l.034-.407c.582.22.987.427 1.212.602-.08.267-.331.729-.143.763.096.017.165-.699.177-.71.06-.046.377.338-.057.644-.38.308-1.413.639-1.749.728-.217.05-.912-.196-.977-.18l-.005.002c-.11.075-.385.823-.427.846-.033.013-.036-.538-.063-.463-.024.07.035.5.029.534-.07.274-.455.582-.382 1.237-.017-.271.262-.003.294.35.002.05 0 .553-.024.41.036.45-.148-.587-.134-.247.004.037.094.67.1.96.006.099-.085-.259.023.47-.017-.026.051.47.203.88.142.41.357.737.305.457-.008-.03-.163-.415-.158-.567.009-.2.207.843.353 1.105.01.041.378.365.386.31-.036-.49-.483-1.15-.489-1.223-.028-.128.107-.031.203.05.041.027.07.053.078.068.01.022.002.125.006.242.01.116.03.246.086.322a.18.18 0 0 0 .136.059l-.21-.405c.129-.042.294.543.344.612.155.217.046-.49.497.735.12.322.136.542.153.59.157.421-.063-.475.215.338.018.059-.002.288.258.644l-.113-.28c.003-.107.176.2.192.298.081.267.2.587.223.697-.221-.755-.222-.263-.04.234-.244-.58-.208.485-.525.913-.085.128-.28.275-.517.455-.233.176-.51.396-.568.486-.146.226.176.504-.1.968-.056.117-.631.463-1.55 1.923a10.3 10.3 0 0 0-1.46 3.67c-.204.932.3 2.88.68 1.326.377-1.451 1.16-3.327 1.742-4.233.373-.655.617-.972.748-.83.115.14-.075.479-.437 1.076-.813 1.055-1.877 3.963-1.799 5.091-.035 2.075.424 2.932.624 3.374.23.43.356.482.42.427.122-.11.042-.817.133-.776.211.148.545.854.834 1.267.289.435.495.664.523.68.122.046.11-.112.08-.338-.03-.22-.076-.537.014-.584.117-.054.485.218.772.326.29.117.506.136.483.052-.034-.126-.282-.314-.561-.65-.278-.317-.554-.804-.562-.868-.126-.878.156-.747.49-.353.341.391.785.782 1.007.86.136.062.07-.383.139-.312.26.289.336.38.328.475-.008.088-.103.151-.211.214-.22.117-.488.26-.26.453.368.253.318-.315.345-.333.019.005.13.113.235.168.107.06.206.07.279.038.035-.02.072-.174.067-.542-.005-.344.002-1.002.197-1.006.248.723.444.92.51 1.014.182-.127.167-.15.087-.181-.078-.027-.23-.086-.23-.12.015-.115.396-.037.5-.133.07-.047.178-.374.442-.299.078.009-.065.263.225.008.067-.03.097-.27.253-.293.142-.044.278-.09.34-.141.126-.096.365-.26.386-.285.68-.513.22-.15.33-.212.067-.04.171-.113.226-.15.047-.055.1.023-.095-.014.196-.076.315-.094.358-.147.046-.049.026-.104.037-.118.02-.026.193-.099.241-.153.492-.679.294-.32.63-.686.034-.032-.023-.39.177-.247.398.29-.1.642 1.095.233.133-.354-.101-.534-.313-.58-.218-.053-.447-.02-.485-.054-.114-.1.17-.134.21-.19.01-.019-.092-.099-.079-.111.595-.621.435.383.737.59q.11-.214.2-.43c.076.084.158.18.24.3-.122-.648.044-.16.88-.237.19-.019-.436-.501.409.008-.105-.327-.101-.415-.129-.504-.025-.08-.09-.145-.304-.23.128-.076.403-.033.754.25.347.257.762.946.887 1.527-.037-.984-.284-1.303-.426-1.498-.157-.184-.29-.215-.408-.245-.234-.042-.426-.123-.533-.616-.412.108-.047.36-.118.381-.27.022-.225-.388-.971-.049-.119.056-.3.386-.444.238-.016-.019.134-.29.154-.301.198-.147.222-.02.308-.081.077-.062-.075-.1-.053-.115.232-.197.178-.016.24-.086.064-.08.13-.278.232-.387.112-.097.17-.228.398.019-.713-.027-.37.128-.014.242.089.027.253-.082.409-.034.202.061.316.316.437.41.065.049.06-.156.12-.242.03-.042.077-.06.163.001.086.07.214.19.426.618-.142-1.161-1.166-1.25-1.091-1.52.051-.263.25-.354.47-.391.216-.04.573.145.674.195.05.018.134-.235.17-.226.03.009.203.157.47.442.263.265.629.777.793.852.166.065.046-.151-.09-.35-.135-.202-.276-.373-.195-.455.05-.056.498.288.903.86.198.271.365.57.436.635.069.073.05-.152-.157-.649-.679-1.486-1.944-1.543-1.5-2.002.44.395 1.77.627 2.436 4.292.057-2.038-.481-3.206-.74-3.943.524.599 1.24 1.666 1.492 3.677.295 2.025-.547 4.532-1.36 5.93q-.023.045-.045.092l.066-.075c.842-.957 1.355-2.023 1.602-2.584.248-.571.325-.689.33-.437.042.482-.56 2.387-1.351 3.481-.704 1.086-1.273 1.63-1.258 1.686.003.064 1.043-.389 1.887-1.187.322-.313.572-.605.685-.738a10 10 0 0 1-.485.897c-1.896 3.057-3.678 4.44-1.764 3.94-.465.156-.849 1.198-.819 1.224.139.152.529-.148.962-.512.423-.352.901-.797.834-.471-.155.756-.977.73-1.377 1.156-1.008 1.074-.95 1.83-1.036 2.633-.056.776-.188 1.527-.862 1.972l.157.167c-1.188 1.069-1.976 1.862-2.59 2.575a10 10 0 0 1-.335.329c-.094 1.194-1.06 2.818-1.754 3.241-.128.09-.886.119-.957.068-.122-.093.383-.527.094-.658-.046-.019-1.273.56-1.117 1.026.153-.027.538-.566.624-.49.741.581-3.484 2.236-3.824 2.623q.176.206.354.41-.461.063-.934.109m-.561-40.45c-.088-.338.085.16.078.167.004-.006-.528-1.17 0 .188a.42.42 0 0 0-.078-.355m-2.101-3.636c.078.412.267 1.39.159.827-.013-.062-.255-1.389-.16-.827m.756 1.94a1 1 0 0 1-.098-.152c-.177-.506.097-.073.098.153m1.91-5.57c.277.1.33-1.237.046-.837-.017.026-.064.83-.047.837m.18.144c-.01 1.211.69-.763.42-.727-.022.004-.413.668-.42.727m-2.63 4.414c.066.314-.018.015-.05-.127-.064-.303.035.105.05.127m1.592-3.358c.001.235-.637.499-1.002.462-.03-.013-.053-.056-.06-.142.011.02.031.007.057-.024.371-.132 1.012-.517 1.005-.296m1.707-.394c-.008.065-.092.097-.047-.188.13-.425.117-.103.047.188m-5.093-2.518c-.051.071.383 2.129-.843.589-.189-.227.536-.609.472-.69-.139-.167-.252-.253-.346-.282.648-.046 1.269.026 1.315.158.228.622-.572.194-.598.225m-5.573.81c-.075.32-.698.116-.838-.024-.026-.027-.033-.886-.284-.834-.195.044.212.943-.185.784-.392-.159.022-.768-.012-.814-.064-.062-.572.31-.622-.206-.051-.382.6-.093.767-.166.205-.094-.143-.742.25-.587.252.098.245 1.206.302 1.265.033.046.857-.547.62.578zm4.68-1.176a.21.21 0 0 1 .176-.017q-.088.006-.175.017m4.402 9.243c-.115-.288-.036-.351.094.011.07.224-.073.032-.094-.012m-5.027-8.452a1.7 1.7 0 0 1-.339-.188c-.182-.14-.153-.26.005-.358.19-.12.562-.205.96-.245-.28.158-.31.932-.626.79m3.314 4.744a11 11 0 0 0-.035-.356c.015.21.026.311.035.356m.12-.774c.103.377-.02.67-.051.291-.014-.144.045-.306.05-.291m1.941-2.953c.017.075-.815 1.643.165.646-.34-.412.1-.4.12-.562.092-.463-.694-.368-.876-.647-.274.768.53.313.59.563zm-13.299-1.692c-.101-.516-.124-.28-.112-.21.08.515.068.286.112.21m9.976 39.954a5 5 0 0 1-.306.065c-2.556.39-2.474-1.264-.216-.69.02.005.14.08.268.179.179.141.36.33.254.446m-.62 2.076c.086-.899-.575-1.065-.932-.735-.077.076-.365.953.04 1.175-.08-1.095.446-1.461.893-.44M40.555 12.03c-.285.563-1.106.041-1.52-.086.225-.479 1.117-.158 1.52.086M36.34 49.974c-.078-.044-.35.668-.354.722-.026.246.344-.346.354-.722M43.145 12.6c.007.357-1.002.482-1.04-.41.232.105 1.042.18 1.04.41m-9.97-1.384c.02.209.11.466.127.245-.067-.402-.153-.38-.128-.245m2.99 39.689c.085-.005.331.129.298.445-.056.394-.398.032-.298-.445m2.596-21.129c-.044.067-.143-.965-.122-1.866.02-.925.084-1.652.216-1.95.236-.495.31-.118.214.784a82 82 0 0 0-.308 3.032m-.938 19.804c.367.669-.07.018-.236.707.336.032 1.405.104.855-.596-.103-.135-.468-.063-.619-.111m-.394-.24c-.118.222-.652.93-.356.877.142-.026.596-.803.356-.877m1.165-13.275c.61 1.062.419.616-.066-.727-.505-1.345-.96-3.886-.746-5.75.513-3.846 1.294-4.106 1.21-4.226a.2.2 0 0 0-.034-.112c.093-.018.225-.105.268-.131.047-.034.01-.019-.129-.074-.003-.023-.042-.05-.102-.019-.057.026-.131.108-.13.133q0 .03.008.053c-.158.06-.68.276-1.283 2.871-.82 2.552.676 7.808 1.004 7.983m9.377 8.375c-.384-.949-.794.087-.738.156.605.834.313-.243.35-.267.068-.037.409.58.387.11zm-5.693-3.479c-.057-.064-.538-.49-1.173-1.205-.59-.652-1.22-1.576-1.268-1.644-1.073-1.463.029.721 1.173 1.932 1.132 1.242 2.082 1.823 1.268.917m-7.727-27.933c-.24-.196-.147-.838.047-.59.017.024.171.76-.047.59m2.612 36.464c-.016-.053-.384-.178-.622-.145-.251.03-.383.223-.506.646.03-.067.173-.073.499-.088.311-.02.728-.072.63-.413m9.58 1.734c-.243.043.373.89.357.547-.007-.128-.298-.557-.357-.547M44.27 13.743c.466-.36.166 1.244-.103.578a4 4 0 0 1 .103-.578m-.235 38.365c1.6.414.502-2.38-1.013-1.338q.114.193.233.385c-1.972.42-.132.235.439.353.213.051.14.545.34.604zm3.217-.86c-.55-.854-.538-1.107-.474-1.154.071-.051-.083.21-.335.108.673.782.845.694.786 1.526.405.06.234-.02.177-.208-.08-.18-.177-.415-.19-.444-.024-.065.082.246.036.173m-1.578.072c-.078-.05-.504.442-.74.397.508.666 1.33-.066.74-.398m3.84-5.105c-.013-.412-.014-.735-.055-.716.017.237.043.49.056.716m-2.59-24.222c.06.11.172.418.036.015-.009-.037-.094-.215-.036-.015M37.44 50.34c.013-.035 1.434.403.872.829-.22.137-1.386-.426-.872-.829m1.938-1.119c-.16-.01-.775.06-.813.174-.15.392.65.2.813-.174m7.836-26.429c.024.042.024.295-.041.112-.096-.362-.003-.275.041-.112M34.126 14.29c-.026.017-.17-.609-.18-.618-.06-.008-.36.114-.368-.64-.003-.063.12.029.35.133.222.107.554.227.637.272.188.85-.404.007-.465.079-.013.014.096.723.026.77zM49.09 45.105c-.003-.191-.139-.475-.349-.671-.202-.194-.503-.314-.528-.101.408.289.68.534.877.772m.238.202c.076-.154-.088-.486-.184-.45-.003.243.18.473.184.45m-12.065 2.156c-.123.12-.062.772-.163.907-.07.083-.182-.152-.296.068-.04.07-.061.678.014.647.098-.043.168-.534.266-.544.334-.027.615.334 1.098.342.043 0-.191-.36.173-.342.057.002.264.534.811.475 1.494-1.536 2.151-.017 3.938-.625q.051-.017.101-.038c-.007-.02-.04-.045-.09-.07-.31-.149-1.207-.405-1.262-.42-1.402-.206-3.57-.396-4.246-.38-.19.001-.203.342-.285.357-.061.012.199-.627-.059-.377m9.712-25.272c.163.48.157.341.2.461-.14-.422-.113-.278-.2-.46m1.242 24.857c-.066.069-.311.037-.325.222-.01.243.339.175.325-.222M36.095 13.176c.01.02.395-.042.415-.066.383-.645-.799-.455-.415.067m13.73 5.094c.308.414.393.852.952.487-.207-.07-.67-.848-.953-.488m3.431 2.882c-.482.04.105 1.155.905 3.347.835 2.11 1.47 5.71 1.489 6.927.215-.43.165-3.94-.546-6.368-.671-2.498-1.518-3.914-1.848-3.906m-3.78 23.352c-.011-.116-.021-.912-.038-.629-.005.049-.007 1.71.038 1.238 0-.087-.013-.61 0-.61m-6.73 6.291c-.217-.506-.606-.366-.865-.346.09.384.647.313.864.346m4.58-27.094c.068.245.04.408-.051.487-.088.077-.232.07-.243-.13.02-.07.304-.292.293-.357m-8.497-9.543c-.525.523.618.786 1.015.283-.183.014-.983-.32-1.015-.283m12.034 3.948c-.03-.018-.24-.298-.39-.503-.152-.21-.244-.355-.241-.375.103-.39.336-.312.636.1.294.402.633 1.147-.005.778m-6.843-2.485c.094.562 2.493 1.44 3.27 1.41.016-1.013-3.463-2.266-3.27-1.41m5.273 29.732c.065-.125.118-.119.155-.07.017.307-.126.278-.155.07m.986-27.87c.032.035.1.041.137.078q-.072-.044-.137-.078m-5.358 29.9c-.306-.069-.271.525-.25.54.24.15.59-.465.25-.54m2.318-24.444c.144.42.127.264.187.448-.108-.327-.156-.423-.187-.448m-1.037 27.429c-.277-.26-.21-.76-.138-1.11.081-.355.114-.535.21-.34.09.206.203.536.17.858-.022.317-.203.627-.242.592M40.69 15.323q.005.066.027.11c.154.313.86-.102.706-.344-.093-.146-.574-.106-.703.109a.2.2 0 0 0-.03.125m5.624 33.805c-.091-.156-.029.33.136.623.22.371-.106-.58-.136-.623m-9.508-1.793c-.003-.065-.005.614-.195 1-.136.264.057-.41.051-.424-.043-.022-.207.526.144-.576m.796 5.766c.081-.253.282-.064.452-.133-.03.362-.35.568-.452.133m.025-37.914c.042.193 2.614.52 1.116-.232-.107-.049-1.444-.411-1.116.232m11.849 29.317q0 .022-.003.006c.002-.01.002-.006.003-.006m-1.414 1.613c.04-.325-.248-.238-.336-.032-.006.376.336.077.336.032m-10.078 6.292c.062-.258.295-.075.445-.147.024.378-.355.511-.445.147M53.869 31.61c.246.279.06 1.915-.427 1.92.071.033.144.105.21.225.082.076-.343 1.771-.441 2.806-.28 3.25 1.444-3.506 1.03-4.608-.07-.715-.212-.458-.417-.423-.104.026-.227-.035-.366-.057-.141 0-.281.012-.463.802.297-.298.585-.524.874-.665M40.928 15.628c-.511.431-1.142-.423-.872-.589.166-.132 1.384.141.872.589m13.077 15.925c.027-.44-1.376-6.07-1.356-6.3.902 1.433 1.653 3.848 1.79 5.337.149 1.492-.033 2.153-.434.963m-15.4-15.73c-.154.066-.175-.836-.154-.873.204-.311.5.413.155.874m10.749 27.36c-.03-.12-.118.489-.125.935a1 1 0 0 0-.064-.242c-.014-.058-.35.22-.71.494-.365.272-.506.56.198.476.04-.004-.033-.34.12-.396.01-.004.034.298.064.287.081-.026.378-.155.395-.456q.006.082.019.142c.082.344.128-1.153.102-1.24m4.654-5.454c-.069-.114-.034-.389.072-.79.106-.389.272-.895.472-.986.078.504 0 1.33-.113 1.636-.112.32-.267.377-.43.14M37.826 16.647c.268.303.917-.197.693-.5-.157-.19-1.022.15-.693.5m11.433 4.326c.172 0 .146-.127.126-.17-.025-.05-.059-.032-.098.03a1.6 1.6 0 0 1-.479.522.9.9 0 0 0 .45-.382M46.827 41.79c.237.07.217-.381.01-.537-.06-.047-.142-.067-.248-.037-.105.03-.017.301.098.459a.33.33 0 0 0 .14.114m-1.576-2.602c.086-.172.246-.166.306-.121s.035.138-.16.242c-.01.012-.143-.102-.146-.121m-5.206-9.528c-.348.903-.841 1.686.45 5.177-.851-2.594-.495-2.705-.483-2.805.108-.056-.04-.364.033-2.372m13.325 3.85c.027.011.047.02.072.02a.2.2 0 0 0-.072-.02M37.292 15.555c-.257.553-.73.516-.545-.052.012-.055.506-.37.545.052m11.937 28.563a.7.7 0 0 1 .004.163 2 2 0 0 1-.004-.163m-9.094-27.72c.077-.43 1.246-.275 1.298-.194.42.918-.914.294-1.298.194m3.396 1.617c.046-.028-.095-1.071-.3-.732-.154.265.144.841.3.732m-2.084 8.115c.111-.066.113.178-.142.143a1 1 0 0 0 .046-.207c.005-.027.004.024.096.064m3.756 12.742c-.396.117-1.062-.23-1.663-.871.144-.115.571.234.914.464.351.242.617.395.75.407m4.22 4.342c.002-.016-.062-.02-.04.319.039.495.056-.172.04-.32m-7.079-26.022c-.322.272.285 1.437.643.724.2-.365-.577-.77-.643-.724m-6.552-.86c-.288-.283.455-.898.561-.338-.157.05-.467.436-.56.337m13.673 7.546c-.978-1.006-1.664-1.575-2.136-2.015.116.584 1.063-.594 1.14-1.01.207.144.376.309.47.474.113.14.695 2.685.526 2.551m-2.498 3.017c-.207.07.077-.867.252-.674.128.103-.102.61-.252.674M39.36 51.056q.121-.03.254-.069a.5.5 0 0 0-.254.07m-4.925-32.244c-.101-2.315.114-.593.117-.608.037-.04.105-.688.24-.621a7 7 0 0 1-.424-.64c.027-.096.205-.422.532-.675.314-.254.764-.42.78-.237.038.517-.45.416-.453.466-.02.069-.038 1.531-.068 1.593-.027.049-.285.129-.457.25q-.27.184-.267.472M47.92 21.56c.25-.004.714-.38.652-.24-.023.045-.44.429-.511.564a2 2 0 0 0-.142-.324m-13.86-4.586c.096.675.067.324.081.245-.046-.465-.18-.794-.08-.245m5.456-.21c-.078.018-.964.086-.87-.275.229-.276 1.535-.096.87.276m8.557 5.186c.068.019.218-.062.242-.112.025-.047-.065-.05-.382.24.116.037.159-.012.14-.128m-6.876-3.354c.517 1.302.331-.27-.19-.742-.174.522.103.53.19.742m1.645 1.234c.143.24 1.394.376 1.291-.297-.022-.244-.824.097-.86.047-.05-.079.286-.704-.156-.68 0 .241-.315.847-.275.93m-1.213-.383c.476 1.012.707-.645.302-.73-.163-.035-.373.584-.302.73m-2.283-.427c.2.178.716.46 1.102-.061a41 41 0 0 0-1.473-.284c-.036.32.196.187.373.345zm8.126 17.976c.114.057.154-.061.15-.21-.004-.145-.076-.377-.105-.387-.181-.026-.14.563-.045.597m4.442-1.956c.107-.011.398-.139.262-.07a.98.98 0 0 1-.755.095c.487-.228.376 0 .493-.025m1.64-1.037c.017.005.64-.502.301-.052-.262.258-.85.009-.66-.277.198-.014.216.296.359.33m1.864-2.603c.036-.041.204-.102.198-.06-.084.168-.452.211-.198.06m.438.357c-.009-.19.346-.04.388.127-.115.084-.392-.108-.388-.127m-.8-2.667c.538-.319-.339.492-.284.269.004-.01.26-.252.284-.269m1.04 1.847c-.044.099-.264.13-.21.117.1-.084.21-.14.21-.117m.087-2.66c.558-.084-.643.678-.71.691-.287.031-.057-.324.025-.381.012.014.175.02.303-.066.136-.076.26-.212.382-.243m.51 3.526c-.092.378-.172.105-.245-.42-.057-.53-.294-1.387-.247-1.71.298.541.58 1.955.492 2.13m.672 1.25c.08-.073.251-.257.406-.577.154-.308.27-.78.18-.947-.056.318-.274.767-.428 1.024-.158.271-.251.413-.158.5m1.005-.309c.29-.225.226-.537.071-.605-.152-.078-.38.074-.384.443 0 .028.286.176.313.162m-.51-7.634c-.34-1.181-1.726-1.136-.798-.04.266.35.828.17.797.04m-.1 2.62c.206.109.3.426.23.579-.064.166-.305.065-.627-.253.091.202.199.453.306.774q.136.351.228.71a10 10 0 0 0-.35-.656c-.4-.507-.4-.655-.359-.841.045-.17.144-.304.046-.366-.284-.16-.763.319-.901.462.09-.177-.009-.326-.044-.317-.043 0-.026.137.042.26.016-.388.35-.835.868-.61.136.053.114.272.256.39.24.207.283-.142.304-.133zm-4.591-6.306c-.65-.808-.432.426.048.436.025-.005-.033-.416-.048-.436m4.575 8.374c-.13-.111-.238.02-.263.02-.001.031.014-.123.716-.106-.717.114-.276.19-.488.273-.172.058-.245-.068-.37.145.054-.125-.058-.195-.088-.122-.04.058.004.291.028.303.032.016.56-.418.465-.514m1.897 4.224c.603.116.513-.056.416-.28-.092-.24-.198-.476.483-.91-.39-1.044-.826.365-1.168.905-.358.627-.41.507-.926.212.036.112.098.059.124.018.028-.045.023-.088-.014-.1-.072-.025-.254.044-.342.019-.093-.014-.086-.142.035-.172.128-.047.312.164.73.495-.173-.174-.187-.426-.175-.554.015-.136.07-.157.139-.109.138.096.345.407.467.305.127-.106.201-.513.272-1.11.076-.58.078-1.319.279-1.238v.005c.023 1.88-.318 2.604-.318 2.9-.402-.34-.563-.276-.51-.157.052.125.371.207.791.28a2 2 0 0 1-.283-.51m-.998-2.605c.026.082.01.972-.11 1.437-.113.496-.224.683-.301.625-.054-.08.063-.536.15-1.384.078-.827.024-1.717.261-.678M56.695 27.9c-.071-.188.03-.482-.148-.314-.042.08-.087.412.148.314m-8.534-9.072c-.209.294.495.62.274.128-.013-.023-.265-.142-.274-.128m12.235 12.876c.377-.89.17-1.329-.045-1.115-.222.19-.512.797-.521 1.374-.001.072.53-.168.566-.259m-2.522-2.195c.085-.067.15-.14.272-.111.115.02.291.15.361.194-.12.038-.402-.033-.548-.036-.153-.013-.182.03-.085-.047m-.451-1.808c.158-.529.063-.75-.036-.796-.102-.05-.224.058-.21.038.03-.039.26-.258.27-.27s.052-.084.156-.078a.54.54 0 0 1 .28.118c.006.024-.513.303-.507.48-.032-.19-.297-.273-.33-.093-.055.157.048.491.078.503.055.028.245-.738.298.097m-.118-.885c-.219.186-.057.1.128.114.179-.015.119-.095.038-.129a.17.17 0 0 0-.166.015m1.385.7c.058.042.262.26.485.649.623 1.17.776 2.66.628 2.805-.208-.68-.497-1.796-.917-2.677-.286-.589-.386-.89-.197-.776m-5.627-8.481c-.297-.08-.94-.579-1.016-.306.237.037.902.555 1.016.306m9.853 15.739c.012-.985.184-.379.187.773.02 1.164-.427 2.791-.729 3.367-.085.006.247-.902.408-1.955.179-1.049.131-2.109.134-2.185m-.05-3.062c.026-.163.319-1.06.16-3.085-.095-2.002-1.39-5.108-2.896-6.716-3.054-3.208-4.377-3.23-4.711-3.476.267.386 1.509.576 4.364 3.633 1.408 1.53 2.672 4.442 2.809 6.378.196 1.952-.053 2.856-.033 3.011-.002.176.279.335.306.255m-3.675-5.781c.03-.358-.364-.15-.386-.157-.258-.085-.411-.065-.574.131.117-.078.269-.006.49.134.216.135.447.264.47-.108m-5.98-8.825c-1.248-.332 1.017 1.037.846.524-.022-.042-.722-.496-.845-.524M62.65 33c.017.203-.204.943-.48 1.477-.275.546-.559.88-.691.884-.14.011-.127-.301-.048-.872.08-.555.17-1.395.185-1.801-.589 1.28-.408 1.965-.443 2.395-.005.092-.204-.027-.204-.017.017.102.226.132.254.181.004.019.053.104.447-.57.382-.565.951-2.256.98-1.677m-3.406-7.29c.004-.109-.307-.347-.444-.332-.152-.004-.172.163-.19.191-.123.228-.192.058-.05-.004.12-.092.592.107.684.145m4.167 6.351c.179.843-.324 2.298-.644 2.68-.164.228-.3.32-.37.294-.067-.037-.08-.14.087-.63.05-.158.788-1.007.927-2.344m-9.918-15.568c-.09-.066-1.315-.683-1.338-.444.071.073.527.281.934.445.415.164.752.268.404 0m.952-.415c-.036-.008.205.563-.497.2-.05-.025-.082-.577-.914-.711-.166-.025-.45.215-.436.242.307.524 1.132.657 1.829.714.69.059 1.056-.101.018-.445m5.011 9.42c.206-.048.366-.489.047-.39-.132.049-.251.258-.047.39m-9.28-10.415c.469-.238-.961-.812-.98-.72.024.265.914.738.98.72m13.818 25.473q0-.004.003-.008c-.652 1.258-.854 1.315-.88 1.243-.027-.091.097-.43.064-.383a15 15 0 0 1-.62.853c-.909 1.129-1.08 1.355-1.123 1.585-.037.205.09.272-.024.45-.5.773-.889.16-1.504 1.177 1.093-1.7-.054-.294-.212-.501-.65-.653 1.231-.868 2.741-2.808a5.3 5.3 0 0 0 .635-1.021c.092-.197-.52.584-.861.841-.15.108-.236.127-.142-.067l.016-.033c1.754-1.489 4.657-13.322 1.907-1.328M59.43 25.042c.026-.127-.23-.169-.35-.023-.132.134-.204.367-.272.353-.011-.003-.01-.138.144-.171.142-.047.434.017.478-.16M6.314 29.068c-.16-.944-.544-.34-.797.51-.254.86-.33 1.727-.121 1.944.104.11.356-.21.574-.744.215-.523.417-1.304.344-1.71m3.22 19.955c-.449-.721-.65-2.195-.5-3.064.134-.913.679-.822 1.298.573.142.336-.418 2.495-.798 2.491M28.339 6.806c-.636-.618-.046.663.175.594.085-.027-.154-.575-.175-.594m-5.026-.366c-.072-.003-.474.148-.87.366-.406.22-.807.512-.703.655.836-.152 2.485-.953 1.573-1.02m5.066.154c-.118.285.626 1.134.603.126-.15.123-.593-.154-.603-.126m36.004 17.634c-.545-.985-1.693-2.889-2.848-4.113-1.178-1.291-2.197-2.07-2.867-2.52.045-.22.88.213 2.235 1.505 1.34 1.191 3.006 3.86 3.48 5.128M11.28 49.831c.4.034.507-.237.41-.497-.094-.255-.486-.63-.712-.314-.006.025.09.268.162.46.074.198.123.35.14.35M49.175 8.05c-.241.275-.023 1.112.084.358.008-.03-.066-.372-.084-.358m-.323 1.131c.163-.15.498-.248.266.167-.023.066-.327.171-.266-.167m12.693 35.382c.258.005 0 .416-.32.776-.315.357-.672.647-.769.694-.085.047.407-1.456 1.089-1.47M27.772 6.508c.112.028.41-.36.632-.015-.252.033-.376.798-.632.015M6.234 41.075c.672 4.583 2.818 7.133 3.27 5.785-.522-.759-.878-1.235-1.088-1.418-.213-.19-.296-.12-.383-.103-.087.012-.172-.01-.42-.484-.24-.506-.667-1.31-1.379-3.78m23.565-35.76c-.296.009-.117 1.027-.071 1.065.42.368.476-.754.071-1.066m-.04-.619c-.07-.467-.444-.237-.344.061.041.098.413.314.344-.06m18.988 7.85c-.217-.364.418-.379.644.027.092.5-.63.015-.644-.026m-9.779-7.938c.034-.64-1.563-.337-.887.209.167.133.885 0 .887-.209m10.917 2.703c-.148.243-.144.679-.213.882-.06.206-.183.195.026-.276.014-.034.114-.181.16-.33.049-.146.039-.296.027-.276m-1.708 1.125c.088-.086.382-1.926-.092-1.148-.059.1.074.547.018.666-.03.064-.802.477-.832.447-.032-.04.076-.637.044-.694-.01-.017-.054.014-.119.071-.186.158-.474.522-.6.582-.322.153-.3-.306-.329-.296-.062.035-.164.44-.246.52-.477.393-.235.692.205 1.956-.322-.667-.456-.545-.448-.699-.06-.889.119.333.007-.5.01.075.21-.345 1.312-.58.557-.127.982-.228 1.08-.325M4.218 35.827c-.311 1.29-.728-1.535-.507-3.394.207-1.97.63-2.375 1.085-2.303.063.052-.095.44-.307 1.879-.226 1.348-.25 3.674-.271 3.818m-3.056-2.89c-.07-.053-.506-.09-.824-.31-.314-.242-.535-.612-.076-2.018v-.008c.28-.86.619.152.766-.006.033.031 1.07-2.963 1.005-.464.014 1.657-.249 1.492-.579 1.45-.321-.098-.67-.31-.687.327-.002.079.215.663.458.891.244.257.503.197.599.2.023.024-.159-.056-.081-.125.295-.169.794-.107.818-.13.035-.04-.19-.457-.262-1.779-.09-1.245.15-3.447.63-3.968.121-.167-.105 2.38.012 3.97.094 1.696.257 2.116.256 1.979.035 1.141.108 1.834.106 2.004.01.828-1.41.643-1.427 1.533-.03.228.697 3.78 1.78 6.198 1.062 2.51 2.098 4.021 2.232 4.4.086.223.142.394.177.516-.05-.503.633.467 1.135 1.225.514.787.832 1.408.612 1.521-.091.037-.423-.365-.814-.943-.387-.568-.834-1.35-.853-1.415-.017-.054-.025-.106-.038-.151-.02.314-1.038-.83-2.466-3.822C2.15 41.18.94 35.366.81 33.01a1.1 1.1 0 0 1-.365.01l-.01.106-.007-.106c-.2.054.084-.036.37-.01.285-.005.57.04.364-.072m1.18-12.236q-.038.722-.035 1.42C4.139 14.308 12.072 7.39 16.035 5.37c1.056-.619-.6-.694.888-1.25a3.7 3.7 0 0 1 1.346-.196c.756-.04 1.21.138.873.416-.036.03-.24.096-.56.202-.701.19-2.189.675-3.081 1.3-1.74 1.21-2.396 2.087-2.533 2.461-.142.39.178.382.068.485-.192.147-3.207 2.082-4.656 4.01-3.424 4.554-4.82 8.485-6.469 14.65.215-3.775-1.506-1.854.43-6.747M45.963 3.992c.134-.391.917.266 1.197.318-.126.384-.852-.273-1.197-.318M43.64 60.36c.249-.643-1.447-.576-1.04-.117.084.105.807.148 1.04.117m-5.544.378c-.114.207.104.56.214.064.025-.16-.207-.092-.215-.064M30.175 1.21c.01-.022.132.18.135.221.203.825-.242.26-.135-.22m10.03 62.075a.5.5 0 0 1-.096-.141q-.029-.077.001-.126c.155-.226 1.008-.067.663.322-.016.026-.535-.025-.567-.055m1.859.548c-.07-.044-.457.093-.484-.125-.018-.349.4-.483.484.125m-13-61.148c-.41-.741 1.265-.505 1.829-.711.353.749-1.408.493-1.83.71m-2.476-.566c-.768.246-.85.388-.818.504.042.116.17.236.2.36.11.24-.222.468.932-.573-.177-.512-.119-.352-.314-.291m1.142.383c.012.536-.541.52-.813.541-.113-.344.561-.378.813-.541m18.058 58.397a.5.5 0 0 1-.157.237c-.554.273-1.524-.07-1.298-.3.042-.04.849-.14 1.293-.1.112.02.183.067.162.163M30.134.498c-.116-.843.053-.404.05-.206.054.39.074.39.049.322-.022-.069-.103-.205-.099-.116m8.736.544c.108-.194.294-.279.517-.302.487-.047 1.116.156 1.58.22-.242.345-.962.243-1.57.158-.199-.032-.384-.064-.527-.076m-5.097-.38C33.813.63 34.855.596 34.9.626c.923.52-1.962.613-1.126.034m34.318 36.06c.094.175-.664 3.594-.796 3.65-.654 1.29-.019-.268.338-2.008.362-1.732.409-3.439.458-1.641"/></svg>