<svg xmlns="http://www.w3.org/2000/svg" width="844" height="462" fill="none" viewBox="0 0 844 462"><path fill="#fff" d="M345.335 6.481c9.804-1.058 19.515-1.44 28.941-1.271 29.088.258 58.341 7.368 81.35 16.245-18.308-4.364-41.667-12.41-65.025-13.733-3.147-.277-13.895-.855-12.56.702 19.572.414 44.078 3.849 60.371 9.76.523.183-1.737.886.196 1.658 3.676 1.386 15.725 3.204 17.347 4.413.286.22-6.558-.353-4.934 1.351 4.129 4.346 7.163-1.053 11.239.553 3.489 1.276 21.809 11.919 26.415 11.896 5.404.157-12.829-6.573-11.151-7.589 13.468 3.843 23.987 10.28 33.577 13.59.166.056-.938-1.643 1.221-1.022 3.707 1.05 4.181 2.998 5.857 3.851 1.826.952 8.331 2.665 9.068 3.466.099.11-1.531 1.385-1.748 1.372-2.996-.132-3.547-2.589-3.796-2.696-.957-.383-2.11.123-3.004-.22-1.478-.571-2.092-1.593-4.067-2.356-1.366-.534-.43 1.382-1.753.842-.491-.19-4.859-5.477-6.44-2.335-.121.755 17.933 8.598 31.091 11.111 7.185 1.526 14.282 2.145 15.928 2.017-3.691-.711-7.262-1.509-10.605-2.396 7.294 1.783 16.769.265 17.476 3.983 32.59 2.548 69.979-.297 111.64 2.12 7.6.797 3.276 2.447 16.018 3.065a415 415 0 0 0-9.8-2.89c6.128.46 36.305 5.937 42.157 7.95.733.212 1.951-1.555 10.565 1.432 3.567 1.293 5.697 2.524 7.278 3.588 1.869 1.255 3.056 2.313 5.117 3.547 3.446 2.008 7.579 4.238 8.782 5.151.834.64.772 1.513 2.696 3.109 6.55 5.803 2.349-.764 7.537 7.536a63 63 0 0 0-5.061-4.272c7.091 5.76 14.91 19.15 9.094 12.554a56 56 0 0 1 3.223 4.728c2.054 3.602 7.55 19.552 5.672 30.608-1.293 11.026-4.203 16.95-4.357 17.444-.718 1.022.109-3.333-2.684 1.786-.279.654-3.568 8.154-5.737 12.388-2.185 4.38-3.371 6.693-2.612 3.408.109-1.033 5.807-11.811 7.361-15.942-2.723 3.82-5.323 9.655-6.777 13.829-1.507 4.283-1.673 6.713-1.859 7.083-.734 1.479-.692.098-.558-1.401.057-.719.1-1.373-.184-1.155-.258.169-.962 1.451-1.611 3.181-.458 1.243-.455 1.412-.405 1.541.063.1.241.068.458.027l.323-.078c.33 1.704 1.463 3.845 2.184 3.222 1.574 2.774-.034 1.636.073 2.022-.039.296 4.39 6.438 5.976 9.061.169.307-1.155.026-1.006.358.208.586 5.821 7.51 6.194 7.82.182.148-.614-2.098.084-1.517.748.618 6.419 8.019 6.955 8.377.646.281-6.655-8.578-4.813-7.635 2.985 4.119 9.05 10.891 11.873 13.747-.715-.698-4.114-5.17-5.203-6.663 1.411-.275 8.696 9.724 5.48 6.904 1.976 1.895 1.096.207 2.36 1.181.331.243 2.615 3.568 3.21 4.149.089.039-1.901-3.731-1.248-3.177 1.213.717 7.954 12.236 8.281 13.688 1.221 3.021-4.364-6.984-5.275-7.229-.073-.139 3.649 8.516 3.588 8.846-.448.772-4.907-8.604-5.022-7.041a102 102 0 0 1 3.252 6.917c-5.198-8.988-14.425-21.318-17.398-23.486 7.546 8.621 15.284 21.338 13.367 22.526-.733.369-4.139-4.295-4.232-3.95-.171 1.052 4.588 7.664 4.646 8.106.072.253.081.38.042.402-.308-.033-6.394-9.719-6.937-9.844-.807-.528.584 4.443.274 4.644-.133-.204-4.711-6.197-3.755-3.73 1.014 2.391 4.529 8.13 4.573 8.456.427 1.158-6.111-8.463-6.565-8.439-.16-.082 2.743 5.299 2.659 5.604-.063.217-2.996-3.389-4.554-4.393-1.146-.775.844 2.535.383 2.034-.277-.47-6.58-8.474-6.99-8.73-.562-.48.512 1.698.185 1.527-.464-.248-2.386-2.831-2.28-2.377.135.292 6.553 11.307 6.008 11.618-.722.321-7.362-11.146-2.456.55.044.076 1.983 2.282 2.024 2.388.327 1.123-1.875-1.097-2.077-.848 2.234 2.957 4.244 5.946 5.905 8.983 4.044 7.393 9.807 14.843 15.184 22.293-.782-1.208-1.38-2.196-1.656-2.768 2.544 2.748 6.892 9.676 8.854 12.452.221.327.88-2.62 2.339 2.51.532 1.579-1.726-1.159-4.368-4.753 1.87 2.848 3.58 5.695 5.014 8.535.841.98 1.686 1.592 2.738 1.836-3.413-10.771-13.384-19.8-15.175-22.426-2.974-3.963.552-.185.328-.777-.097-.219-2.653-3.602-2.648-3.681-.107-3.707 11.65 15.045 15.294 21.282a91 91 0 0 0-2.091-5.451c1.435 2.162 2.817 4.39 4.089 6.725-5.733-11.142.119-.772 3.282 1.457.75.475-3.896-7.008 1.692 1.428-3.024-6.808-1.643-4.92-5.519-10.144.72-.441 8.798 10.817 10.696 18.314-2.511-11.041-4.942-12.043-5.998-13.638-1.345-1.431-2.257-2.795-6.609-10.216-2.607-2.045 2.251 4.506 1.723 4.085-1.793-1.717-4.364-6.775-9.833-10.789-.881-.652 1.013 3.458-2.901-1.821-.434-.59-2.255-4.352-2.184-4.366.823.072 3.107 3.481 3.432 3.47.291-.026-2.591-3.587-2.537-3.638.545-.567 2.538 2.86 2.395 2.262-.332-1.342-8.841-15.263 3.74 1.988-11.56-13.594-2.21-1.421 2.468 4.108 1.175 1.412 1.854 1.489 3.573 3.542 2.216 2.63 4.332 6.219 5.386 7.766 1.116 1.792-3.738-9.099 4.457 5.958-2.949-8.908-12.888-19.276-16.737-25.5-7.841-12.541 7.957 6.877 10.018 9.458.493.581-.491-1.829-.156-1.452.596.332 9.583 14.029 10.739 15.948 1.382 1.289-3.169-5.79-2.976-6.39.082-.247 3.055 3.913 5.067 7.642 1.987 3.744 3.27 6.338.844.256-3.545-8.482-12.992-17.926-12.906-20.499 6.22 8.068 13.816 16.572 17.453 31.744-1.052-8.465-3.935-15.211-6.806-21.002 6.973 10.319 13.937 28.203 6.422 47.165 3.996-8.074 4.341-13.631 4.754-15.663.308-2.125.514-1.375.508 1.091.332 4.981-3.18 16.848-7.347 22.575-1.969 3.084-3.555 5.025-3.584 5.179 0 .104 2.087-1.768 4.444-4.576 3.374-3.854 6.649-10.32 7.27-12.042-.932 3.643-2.946 8.647-5.72 13.129-9.664 15.543-24.151 25.885-10.218 16.781-3.253 2.478-9.469 9.113-9.326 9.085.743.118 4.867-2.908 8.618-6.239 3.766-3.284 7.08-6.902 6.14-5.172-2.256 4.049-7.422 6.832-11.834 10.492-22.43 17.032-13.648 17.785-36.431 29.172q.783-.031 1.579-.074c-22.501 11.19-44.262 19.55-65.468 27.535a965 965 0 0 1-5.106 1.892c-8.369 5.613-32.941 16.085-45.79 19.761-2.546.803-15.477 3.386-16.504 3.409-1.856.106 7.867-2.873 3.292-2.356-.903.217-22.738 5.456-21 6.322 2.511-.445 10.036-3.113 11.337-3.153 9.663.587-59.457 14.238-63.446 14.402 1.615.253 3.227.496 4.85.727-4.522.433-9.052.798-13.613 1.091a446 446 0 0 0 5.417-1.895c-5.194.401-12.192 1.451-17.076 1.473-.796.002 1.227-1.379-.653-1.271-1.874.103-1.468 1.724-4.213 2.116-.367.051-.891.094-1.538.131-5.448.368-18.27-.297-22.984-.448-20.156-.286-39.558-1.898-56.366-5.328 18.117 1.493.246-2.582-4.542-2.843-.967-.027-2.073 3.133-17.89-.336-9.666-2.078.027-5.512-16.062-5.458 11.269 5.092-.739 2.949-9.32 2.138-1.587-.21-13.053-1.738-17.663-1.612-1.634.006-4.178 1.807-6.209 1.888-1.39.053-2.419-.934-4.455-.799q-1.003.067-2.001.145c-8.646.689-17.872 2.006-28.326 3.652 5.916-6.044-5.446-1.103-6.106-1.161-2.934-.794 9.399-3.551 4.402-3.441-6.794 1.428-13.945 3.129-21.495 5.004 6.322-.825-7.452 5.991-10.694 5.099 2.821 3.953-39.279 5.111-47.107 7.515-1.548.497 8.935 1.359-14.382 3.691-2.584.211-1.747-1.271-3.087-.981-.779.171-5.393 5.094-11.071 3.142-2.186-.886 11.029-4.034-17.862-1.738 8.32 2.871-15.277 3.952-34.985.212-7.818-1.382-14.712-3.233-17.746-4.26a309 309 0 0 0 5.708 3.033c-9.699-3.593-11.987-2.783-14.283-3.43-9.285-2.699-22.055-8.844-31.028-12.964-10.458-4.917-12.094-2.416-23.38-10.839a170 170 0 0 0 7.543 6.855 176 176 0 0 1-23.745-17.042c19.917 10.792-3.797-2.985-4.903-4.323-2.165-1.758 1.817-.233-1.716-3.186-.34-.295-.964 1.234-6.065-3.507-10.236-9.941-6.968-9.508-10.657-13.589-.262-.32-.435 1.64-6.208-4.861-16.018-18.611.401-.968 1.673.165 1.368 1.053-1.604-9.798 12.669 8.558-4.344-5.856-2.998-7.729-3.56-8.425-.726-.804-9.111-10.607-9.357-10.867-4.077-3.878-2.403.967-3.303.299-.647-.509-4.483-7.59-7.818-8.839-2.872-2.818-5.34-5.082-7.426-6.238-3.666-11.669.487-5.152 8.906 5.08 1.447 1.339 3.431 3.713 6.01 6.603.838.308-.313-1.944-1.475-4.005-1.184-2.092-2.318-3.877-2.442-4.028l-.104-.128c-11.896-15.753-13.843-21.614-15.398-21.267-1.391-.062-1.265 4.125-4.412-.103-3.638-4.569-6.333-23.969-4.455-5.823-6.641-20.946-4.764-24.201-4.599-23.649.527.625 1.858 5.797 1.823 4.523-.403-4.088-2.063-16.308-1.8-17.478.192-1.996 1.371 4.917 1.811-2.885.07-1.233-1.573-13.177-2.97 2.306.264-10.977.533-13.939.75-16.25.275-2.125.825-2.956 2.82-4.725q-.135-.214-.257-.418c-.338.679-.95.924-2.096.214-1.89-1.471-4.684-3.541-12.942-17.539.73-1.1 3.729 3.555 6.222 7.338 2.526 3.878 4.48 7.1 4.67 7.215.536.281 3.289-5.105 3.217-5.671-.13-.864-3.762-4.958-9.658-14.555-5.63-9.075-14.638-27.885-14.667-49.136.092-2.624.356-5.522.965-7.134-1.5 1.325-1.937-4.328-1.366-14.076.393-9.487 3.406-23.411 3.797-26.321.094-1.543-3.067 3.548-2.895 1.929-.071-10.083 16.228-38.505 25.803-47.97 9.852-11.224 7.666-10.423 8.18-11.131 4.6-4.212 1.733-.01 4.514-2.55 2.652-2.65 15.399-12.395 24.018-16.964 5.688-3.211 9.738-5.027 10.238-5.366.396-.261-5.158.232 1.034-2.996.838-.285 2.01.898 17.771-5.501 9.136-3.463 5.738-3.114.839-2.475-4.869.637-11.835 2.195-7.996-.445 13.807-1.24 11.901-3.764 15.277-4.52 1.141-.233 9.851.29 17.566-1.523-5.53 1.654-11.281 3.49-17.39 5.681 6.361-1.35 17.192-4.442 21.666-4.758 2.225-.177.944 2.389 5.523 1.433.926-.18 3.85-6.478-7.946-1.542-1.424-1.728 4.782-1.706 7.3-2.742.387-.164 1.329-3.707 5.067-2.296.764.43-5.51 11.11 14.615.756.638-.328-1.927-1.14-1.309-1.49.444-.244 5.854-.59 6.394-.84.564-.271-2.204-1.175-1.538-1.537 3.437-1.862 8.987 2.557 1.498 3.284 2.617.251 5.177.52 7.716.793-3.244-3.472 3.655-1.648 6.881-2.235 20.414-3.734 6.231-4.233 9.533-6.034 5.117-2.87 2.159 4.295 9.736 1.128.578-.3-8.909-1.596 9.166-2.898a525 525 0 0 1-7.807 1.593c2.288 3.445 9.452-1.787 9.932-1.938 6.336-1.664 2.631.443 10.955-3.193.714-.325 2.55.212 3.898-.572.409-.237.702-.435.902-.598.551-.467.384-.655-.197-.688-1.82-.079-9.93 1.64-10.593.647-.215-.394 5.945-1.673 10.028-2.61 2.74-.597 5.255-1.21 5.509-1.134 2.495.924-5.988 2.314-3.871 3.715.411.244 5.26-1.083 11.258-3.388 5.897-2.217 13.631-5.75 16.651-6.69 6.839-2.1 12.545.645 10.103-4.28 4.457 3.903 4.729-.262 5.74-.677 12.546-5.036 12.764-5.163 24.944-10.45 2.758-1.162 5.797-.533 6.711-1.141.542-.363-1.215-1.586 1.572-3.104 3.619-2.441 30.734-7.623 33.027-6.683 2.189.468-11.211 2.738-8.444 3.761 9.524-2.035 18.776-3.92 28.456-4.694 3.972-.292 2.06.957 3.775.834.778-.155 14.311-1.707 13.685-2-1.181-1.88-44.133 4.077-33.166.862 2.159-.769 10.332.63 8.624-2.167m196.513 444.945c1.758.018 2.901.117 2.572.386-.547.31-1.455.537-2.555.691-5.439.728-14.704-.352-12.561-.882.417-.078 8.119-.191 12.544-.195m-19.823-1.286c2.511-1.443-15.923-2.479-11.183-.988 1.026.37 8.789.985 11.183.988m-75.679-9.519c-2.069.125 5.582 2.638 5.888 1.373.049-.412-5.641-1.393-5.888-1.373m-79.638-1.507c.059-.927-6.459-.506-6.958 1.164 1.316-.312 6.954-.618 6.958-1.164m14.153-1.946c4.806-1.595-9.781-.792-5.254.299.254.032 5.042-.242 5.254-.299m8.356-88.747c.352 1.146-.899.276-1.199.455-1.45.817 4.548.198 4.633.7.089.144-1.675.476-1.791.489-.232-.004-.001-.427-.547-.438-1.334-.016-2.637.266-3.996.432-.484-.539 1.461-.618 1.102-.93-.366-.38-4.436-.287-4.843.169-.337.304.048.893-.009.977-.098.136-.643-.362-.988-.217-1.448.636-1.531.668-2.682.803-.08.011.34 1.199-.482-.248l-.037-.02c.705 1.511-.318.017-.568-.325-.052-.078-.086-.134.006-.226q.063-.063.205-.148c-.036-.074-.074-.13-.123-.145q-.037-.011-.08-.018c-.305.315-.136.156-.183-.013-.555.009-1.509.329-2.279.355.793-.371 1.438-.672 1.998-.943-.788.194-2.11-.618-2.283-.614-.225.003-.247.311-.461.515-.227.211-.591.289-1.859.008-.568.658.693.648 1.46.78.765.133 1.299.265.013.847-2.36 1.094-2.962.502-3.072.548-1.137.614.045.919-.024.979-.102.09-1.14.488-2.781 1.361-1.617.814-4.023 2.495-4.603 2.999-.665.546-.065-.525-1.195.384-.152.181.626.128-1.97 2.748-2.471 2.052-7.82 9.563-7.702 12.314-.036.433 1.079-.83 1.072-.412-.085.785-1.008 4.437-1.118 6.409-.056.704-.079 1.232-.063 1.616q-.168-.021-.325-.041-.017-.164-.032-.35c-.119-1.276-.063-3.154-.172-3.026-.436.437-.559 2.221-.454 3.223q.006.062.013.121c-.137.014-.152.075.029.253.046.348.105.593.152.758a1 1 0 0 0-.355.319 1.2 1.2 0 0 0-.383.089c-.057.04.024.081.063.092-.106.002-.352.041-.581-.151-.241-.18-.459-.645-.458-.709.011-.509.361-.345.684-.268.327.031.606.16.551-1.174-.024-2.009-.945.395-.994.385-.143.127-.507-.678-.765.013v.007c-.43 1.131-.219 1.424.095 1.615.316.172.75.2.823.241.387.115-.97.029-.782.077q.028.556.109 1.262c.286-3.177.451 2.988 2.051 7.127.266.745.536 1.419.796 2.022l.017.106c.031.408-.555-1.2-.769-1.387-.099-.201-.662 1.048 2.011 7.361-.836-5.663.363.379 1.671 1.546.594.569.872.49 1.074.273.057.066.106.129.156.183.325.337.514.393.691.382a1 1 0 0 0 .097-.023 2.4 2.4 0 0 1-.278-.354q-.019.011-.029.012c-.029-.001-.126-.218-.335-.589l.025-.027c-.181-.383-.318-.805-.252-1.038.083-.3.414.178.671.544.216.311.376.541.488.561l-.081.083q.168.154.388.391.057-.063.112-.13c.067.169.062.245.034.295.53.591 1.285 1.509 2.388 2.832-.03.018-.069.063-.08.165-.029.166-.012.465-.203.527-.427-.276-.425-.196-.491.115-1.521-1.557-2.265-1.908-1.436.629q.226.055.469.158c.542-.62.658-.844.794-.731.123.099.234.483.298.491.168.013.327-.791.978-.533.036.017.304.265.66.61.346.335.776.75.818.806.099.131-.588.821.37 2.084-1.399-1.889-1.822-1.934-2.275-1.742-.418.213-.638.802-.744.755-.327-.241-2.888-1.992-.474.169 1.012.93 1.283.455 1.325.49.683.672-.232.857 1.844 2.573 1.045.825 1.343.317 1.415.361.734.497-.243.481.211.775.252.244 5.403 2.063.988.799a34.3 34.3 0 0 0 4.716 3.086 36 36 0 0 1-1.312-1.536c2.114 1.656 2.674.664 4.587 1.396 1.635.607 3.694 1.831 5.141 2.252.352.1.806-.39 2.166.45q-.39-.413-.769-.835c.349.168 1.101.418 1.951.615 3.176.737 6.94.5 5.712-.714 3.651-.784 1.98.457 2.291.785.74.841 1.147-.942 1.225-.993.142-.075.094.472.375.464 1.274-.055 1.481-.254 1.522-.446.025-.194-.195-.391-.138-.47.296-.37 1.533-.024 2.267.224.735.237 1.055.405.93-.309-.392-.057-1.095-.208-2.008-.492a7 7 0 0 1-.319-.11c-.216-.082-.342.275-.479.215-.202-.09-.346-.882-.458-.956-.173-.108-.424-.204-.582-.277-.163-.074-.241-.123-.255-.148-.188-.295.07-.429.17-1.482.152-.627.214-.413.151-.063-.045.355-.167.859-.003.887.644.108 1.106-1.11 1.143-1.18.32-.252 1.68.17.183.761 1.185.172 3.245-.215 5.56-.49.537-.055 2.071.098 2.728-.001a.5.5 0 0 0 .126-.041c.239-.136.193-.768.354-.794.161-.024 0 .491.067.501.43.034 1.027-.271 1.469-.316q-.215.318-.44.635.594-.055 1.173-.132a33 33 0 0 1-.441-.401c.423-.37 5.792-2.262 4.88-2.816-.109-.066-.611.498-.806.535-.183-.454 1.372-1.117 1.45-1.111.363.11-.291.585-.14.67.089.047 1.052-.041 1.221-.143.896-.483 2.217-2.236 2.418-3.473q.17-.132.331-.265c.952-.853 2.105-1.795 3.748-3.129l-.192-.152c.883-.559 1.084-1.364 1.195-2.185.144-.859.131-1.63 1.383-2.971.497-.534 1.458-.682 1.648-1.544.08-.369-.47.225-.98.695-.52.486-1.001.881-1.163.748-.024-.039.477-1.215 1.015-1.485-2.086.874-.406-.568 1.388-3.702.433-.765.778-1.595.978-2.285-.173.322-.794 1.294-1.447 1.943-.65.632-1.232.967-1.244.931-.005-.048.347-.478.807-1.248.826-1.187 1.509-3.654 1.406-4.543-.02-.444-.085-.509-.223.016-.146.492-.415 1.761-1.323 3.206.723-1.764.988-4.212.596-5.831a10 10 0 0 0-.18-.706 2 2 0 0 0 .226-.309c.198-.319.371-.77.348-.899-.049-.331-.428.409-.696.821a9 9 0 0 0-.169-.444c.122-.216.227-.424.253-.453.322-.36.499-.42.606-.335.108.08.155.246.253.162.023-.108.706-1.031.843-4.157.246-3.289-2.035-7.362-2.47-8.07-2.547-2.904-4.85-3.884-5.651-4.455-.819-.481-1.078-.726.086-.221.594.325 1.352.504 3.655 2.398.317.283-.232.174.222.541 2.913 2.813.475-.73-.992-1.865.307.183.686.431 1.055.7-.868-1.952-.226-.388-1.416-1.451-.363-.309-.251-.595-.392-.714-.188-.155-.925-.455-1.39-.799a2 2 0 0 1-.211-.184c-.389-.389-.589-.911-1.529-1.276-1.197-.443-1.406.237-1.503.219-.352-.052-1.461-.482-2.357-.838-.913-.365-1.669-.711-1.935-.88.268.339.554.68.839 1.021-1.118-.076-.727-.784-1.349-1.072-3.211-1.016-4.999-1.832-4.862-2.842.002-.421.014-.671.039-.823.006.051.013.139.016.281.162.147.469.013.994.662a7 7 0 0 0-.557-.86q.14-.07.36-.151c.548-.196 1.179-.42 1.554-.648.384-.226.531-.475.574-.612q.052-.175.081-.289.002-.107.009-.227c-.092.143-.294.603-.312.619-.044.031.035-.217.072-.375q-.046.013-.095-.02c-.082.114-.165.28-.233.32-.056.03-.048-.236-.112-.224.033.096.064.204.062.224-.048.414-.167.342-.22.149-.085.201-.19.385-.269.271a7 7 0 0 1 .025-.664c.089-.179.355-.237.547-.306-.057-.083-.12-.184-.192-.293-.264-.419-.665-.969-.796-1.052-.348-.213-1.137 2.02-1.301.769-.071-.491.724-.844.707-.905-.092-.284-1.481-.018-1.884-.316-.202-.162.131-.571.076-.607-1.785-1.094-5.17-1.576-7.821-1.881-.189-.602 1.287-.367 1.718-.311 3.239.316 6.192 2.086 8.09 2.12-2.161-1.294-6.315-2.706-10.361-3.09a29 29 0 0 0-3.966-.197m6.905 66.58.025.004-.005-.024q-.01.015-.02.02m-.079-.013.061.01c-.022-.01-.05-.044-.081-.111zm-.1-1.842c-.093.245.251.584.251 1.055-.038-.078-.482-1.043-.052.78.111-.154.062-1.206-.037-1.299.097-.199.038-.373-.162-.536m0 1.431c-.085-.606-.408-.474-.388-.126.031.216.335.083.388.126m-1.363-.905c-.236-.022-.499.078-.244.369.033.03.499.074.514.049.185-.247-.034-.396-.27-.418m7.298-1.818c-.537-.031-1.472.062-1.524.102-.265.225.863.569 1.53.311a.5.5 0 0 0 .214-.248c.027-.1-.071-.148-.22-.165m-9.167-.266c.016-.027.316-.072.292.084-.12.493-.435.116-.292-.084m5.553-.257c-.493-.468 1.549-.496 1.254.138-.281.029-1.151-.03-1.254-.138m-39.886-11.81c-.184.198-.384.357-.597.417q.14.14.22.141c.117.005.172-.15.299-.23.061-.044.139-.071.196-.123a.2.2 0 0 0 .028-.04q-.076-.087-.146-.165m29.514-2.419c.044-.012.176.186.331.431-.194.029-.247.146-.195.518.064-.01.201.054.563.043.237.329.429.494.389-.034q.06-.007.127-.017c.258.389.536.38.854.225-.123.234.167.502.19.766.06.265-.426.625-1.227.557-.176-.021-.324-.535-.344-.55-.162-.021.093.492.005.49-.533-.031-.664-.429-.496-.428-.225-.679-.364-1.954-.197-2.001m-29.902 2.028c-.329-.297-.532-.365-.695-.252a.5.5 0 0 0-.131.102 5 5 0 0 0 .339.604c.077-.048.266-.228.487-.454m1.398-.799c.119.021.193.058.234.105.231.267-.763 1.231-1.116.934q.066-.077.128-.157c.32-.419.528-.928.754-.882m30.561.648c-.189.08-.479-.09-.568.172.106.361.589.206.568-.172m5.547-.974c.346-.331.998-.172.928.727-.459-1.014-.965-.645-.877.449-.399-.22-.125-1.099-.051-1.176m-38.297-1.998c.071-.711.573.429.95 1.139.389.742.638 1.146.917.655l-.083-.159c.083.12.117.193.108.248-.021.071-.498.608-.929 1.061.003-.15-.129-.465-.346-.961-.258-.591-.661-1.562-.617-1.983m37.704 1.672a4 4 0 0 1-.178.341c-.45.659-1.2 1.125-1.57.374l.164-.204q.09-.003.191-.02c.085-.016.201-.044.338-.084.327-.092.714-.24 1.055-.407m-2.495-.709 1.332.078c-.352.298-.69.557-.98.728q-.102.059-.2.112.046.046.097.088a1 1 0 0 1-.203.099q.007-.07.011-.134c-.409.22-.747.347-1.004.37-.049 0-.069-.24-.156-.451-.041-.007-.074-.037-.092-.104q.003-.01.019-.038a.4.4 0 0 0-.146-.131q.143-.07.295-.118.046-.075.089-.157.296-.13.606-.285c.092.019.166.02.2-.005q.033-.028.057-.056zm-1.323.617c.07.197.104.389-.093.508a4 4 0 0 0-.303-.284c.126-.081.258-.159.396-.224m5.808-.543c.213.202.783.376 1.731.343.056.382-.147.692-.742.546v.004c-.196-.056-.141-.55-.348-.598-.542-.103-2.225.088-.641-.295m-4.428.897.095-.053q-.043-.046-.083-.093-.004.068-.012.146m-.51-.526c-.201-.023-.393 0-.574.054-.063.106-.121.199-.149.249a.8.8 0 0 1 .073.142c.144.022.408-.252.65-.445m.522.38c.035-.727-.226-.617-.522-.38q.048.004.095.013c.165.028.279.195.427.367m7.013-.619c.418.344-.257.972-.75.351.107.018.246-.08.371-.184a6 6 0 0 0 .349-.059.11.11 0 0 0 .03-.108m-8.95.514-.013-.01.054-.016zm9.807-.642c.048-.005.323.423.346.547.055.332-.54-.514-.346-.547m.417.388c.07.183.297.231.019.128l-.034-.161zm-9.679.151a.36.36 0 0 0-.2-.034q.08-.03.163-.064zm-31.166-.954c.235-.309.627.105.731.39.106.291.005.579-.422.49-.018-.006-.075-.176-.149-.387s-.167-.467-.16-.493m30.502-.888c.046-.057.118-.017.106.036-.047.148-.247.463-.26.554-.014.072.048.05.152.028.097-.023.233-.046.246-.028.01.041-.176.336-.244.469-.037-.03-.075-.043-.097-.04-.066.253-.017.472.053.56q-.13.04-.261.071a1 1 0 0 1-.123-.099c-.14-.144.019-.233.408-.612a1.1 1.1 0 0 0-.329.13c-.037.028.007-.009.087-.282-.003.014-.003.018.004.003.111-.263.145-.41.147-.453.048-.183.071-.292.111-.337m.092 1.178c.103.015.275.016.523.015a.19.19 0 0 0-.092.135 2.4 2.4 0 0 1-.418.199.495.495 0 0 0-.013-.349m.217-.523a1 1 0 0 0 .109.178c-.115.167-.237.253-.237.122.001-.026.057-.158.128-.3m6.129.212c.447-.33.867-.29 1.185-.09-.585-.052-.967.029-1.14.16zm-.812-.343c.196-.006.4.051.541.372-.184-.025-.608.026-.783-.202q.123-.076.242-.17m-2.287-.276c.502.572-.235.579-.757.527.288-.178.55-.363.757-.527m-2.726.013a.7.7 0 0 1-.04.256c-.12.055-.209.096-.258.125.1-.198.23-.413.298-.381m.218-.621c.338.008.82.18.85.237a.25.25 0 0 1 .02.163 8 8 0 0 1-.38.145l-.096.042a3 3 0 0 1-.348-.007c-.44-.031-.699-.068-.747-.007.124-.423.346-.584.701-.573m-37.009-1.099c.343.558.612.892.759 1.005.015.245-.015.445-.099.607-.129-.362-.361-.878-.66-1.612m38.192 1.211c.06.019.088.064.094.122l-.271.11c.075-.094.143-.178.177-.232m4.705.13c-.111.11-.192.095-.258.015q.13-.017.258-.015m25.442-2.253c-.747.183-1.336 1.932-1.24 1.861.113-.071.528-.464.887-.934.355-.461.638-.985.353-.927m-30.511.164c.33-.22.034.4.114.399.109-.005.101-.354.352-.332.492.045 1.5.173 2.59.319-.321.326-.564.579-.705.762-.36.019-.677.002-.836-.083.117.17.177.295.196.389-.121-.116-.192-.217-.222-.221-.458-.052-.146.336-.199.333-.605-.053-.989-.455-1.436-.474-.132-.003-.184.495-.314.526-.097.019-.134-.611-.087-.677.141-.209.32.052.408-.023.126-.126-.019-.812.139-.918m-36.858-2.051a25 25 0 0 0 1.818 3.426c-.258.027-.625.048-1.482-.847a54 54 0 0 1-.336-2.579m41.779 2.695a1.3 1.3 0 0 1-.229.569l-.155-.027c-.185-.196-.586-.202-1.017-.161.177-.148.365-.317.556-.499zm-41.352-5.161c.576 2.197.936 2.975 1.145 3.445.212.444.297.469.384.457.157-.081.391-.092 1.363 1.485-.53 1.318-2.48-1.319-2.892-5.387m69.239-.702c.83-11.058-.184-.563-1.744 1.825-.151.403.124.107.407-.294.278-.386.566-.94.515-.755-.203.747-.727 1.71-1.363 2.494-1.417 1.714-2.805 2.168-2.207 2.661.182.192 1.514-1.6.235.497.73-1.244 1.158-.665 1.709-1.635.202-.386-.326-.18.45-1.385.297-.48.752-1.137 1.322-2.377.037-.13-.281 1.651.676-1.031m-72.965-4.692c.081-.025.161.033.227.116a1 1 0 0 1 .083.141q.004.236.029.536.073-.033.144-.067c.104.356.173.735.172.855-.012.465-.044.761-.086.938a36 36 0 0 0 1.47 5.655c.322.938.596 1.697.785 2.308-.345-.661-1.036-1.903-1.723-3.589a18 18 0 0 1-.209-.516 32 32 0 0 1-.709-3.848c-.098-.139-.177-.253-.193-.04-.041.165.126 1.127.334 2.228-.399-1.295-.678-2.497-.76-2.976q.018-.248.039-.452c.086-.156.249-.263.433-.355a18 18 0 0 1-.036-.934m39.301 9.634c-.126.793-.184.753-.198.656.104-.347.187-.702.198-.656m16.049-2.029c.107-.031.253.301.178.454-.001.024-.186-.211-.178-.454m.286-.323c.019.102.005.507.009.586-.013.269-.011-.161-.009-.586m-.425.285a.7.7 0 0 1 .074.283 3 3 0 0 0-.189-.197.25.25 0 0 1 .115-.086m-.745-.645c.132.025.307.123.438.24q.068.06.126.126a1 1 0 0 1-.203.133 9 9 0 0 0-.539-.398zm18.499-2.23v.005l.002-.009zm3.416-4.017c-.264-1.466-.135-.104-.208 1.452-.064 1.558-.409 3.217.011 1.861.108-.126.289-3.215.197-3.313m-22.047 1.992-.006.72c-.13-.037-.244-.062-.305-.034-.09.045-.078.272-.081.429-.001.143-.012.25-.087.261l-.109-.065a4 4 0 0 1-.334-.371c-.069-.08-.143-.177-.219-.276.254.01.386-.16.578-.327.049.001-.099-.043.177-.157.258-.225.009-.008.094-.112q.112-.115.199-.199c.014.026.047.073.093.131m.377.401c.229.204.422.301.432.385.005.056-.183.078-.433.034q-.083-.014-.173-.04.041-.2.087-.463c.029.028.057.059.087.084m16.576-2.823c-.134-.952-.33-1.421-.268-.617.004.069.151.916.146 1.86.008.942-.153 1.884-.073 1.866.203-.638.344-2.156.195-3.109m-6.51-5.965c.045-.003.21.202.399.456.108.142.224.306.317.412v.026q.005-.005.012-.011a1 1 0 0 0 .064.063q-.017.015-.037.031l-.035.002v.027c-.064.053-.14.112-.209.161.055.048.099.128.073.213.045-.097.091-.124.141-.125q0 .372-.015.649l.013.005c.133.064.207.241.042.369l-.069-.07-.005.116-.004.003a1 1 0 0 1-.197-.086c-.028.056-.056.106-.08.095-.059-.035-.206-.128-.368-.21a1.3 1.3 0 0 1-.293.317c-.097-.075-.023-.179.108-.362l.021-.031a.9.9 0 0 0-.231-.065c-.26-.026-.487.028-.486.372-.017.347 1.09.634 1.2 1.741-.409-.778-.526-.697-.591-.633-.06.086-.052.302-.119.249-.123-.105-.249-.391-.47-.49-.171-.076-.343.021-.444-.028-.404-.199-.879-.551-.014-.29-.309-.374-.387-.269-.488-.156-.092.123-.127.371-.189.456-.059.073-.034-.151-.273.037-.02.015.167.112.087.168-.089.055-.144-.119-.353.012-.021.011-.142.317-.124.35.194.229.351-.143.481-.182.813-.236.789.22 1.072.225.075-.011-.329-.347.105-.414.141.569.331.652.567.701.119.032.254.067.409.243.146.184.361.48.461 1.332-.172-.489-.573-1.087-.921-1.356-.351-.287-.645-.372-.775-.299.461.26.24.176.456.783-.856-.523-.22-.023-.41-.004-.834.076-1.067-.544-.887.221a4 4 0 0 0-.28-.377 7 7 0 0 1-.172.484c-.337-.289-.339-1.542-.93-.912-.011.015.122.146.115.169-.037.06-.365.023-.213.185.077.105 1.154.11.988.963-1.202.395-.751-.057-1.265-.526-.264-.242-.133.229-.161.272-.32.395-.182-.056-.591.751-.041.066-.24.097-.257.13-.001.042.09.241-.086.392a2 2 0 0 0-.139.043c.053-.089.003-.137-.038-.097-.056.036-.147.128-.237.133-.145.006.316-.35-.373.148.103.215-.243.214-.365.316-.062.052-.156.16-.286.226-.14.05-.202.227-.382.1a1 1 0 0 0-.115.185c-.191.043-.367.23-.438.274-.109.085-.42.122-.462.194-.008.022.112.025.163.013.053-.01.044-.018-.139.107-.001.006-.098-.086-.263-.525-.186.029-.255.474-.324.701-.066.243-.161.324-.195.347-.117.106-.345.008-.392-.021-.024.021-.099.392-.37.288-.171-.097.092-.242.314-.357.213-.14.408-.168-.023-.461-.056-.036-.042.258-.164.236-.197-.024-.582-.235-.909-.465l.009-.067c.127-.108.373-.305.384-.45-.043.324-.053.063.188-.086.202-.175.559-.292.647-.605l-.016.074c.323-.165-.002-.026.302-.263.189-.128.316-.161.471-.313.007-.004-.073.008-.047-.032.438-.672.222-.147.479-.311.046-.023.085-.133.177-.19.129-.069.506-.26.526-.28.012-.006-.058-.031-.006-.093.086-.09.318-.167.394-.318.01-.013-.212-.122-.17-.213.099-.169.531-.211.575-.271.081-.11-.156-.024.031-.235.034-.018.325.111.52.006.534-.236.088-.922.999-.46-.354-.366.191-.264.338-.472-.004-.011-.156-.068-.151-.076.661-1.353.46-.324.73-.513.16-.115.329-1.19.371-1.246.048-.074.086.121.16.092.052-.022.145-.278.203-.278.036-.007.363.513.404.552.045.022.021-.286.206-.325.248-.057.554.161.611.113.053-.064.035-.637.076-.652s.189.139.349.318c.159.174.325.38.358.285.004-.03-.073-.207-.129-.413.032.011.058-.037.077-.17.011-.065-.014-.227-.065-.43.138-.13.454.23.49.254.112-.078.4-.851.557-.871m-12.993 8.203c.271.23.57.468.819.622q-.007.06-.017.113l-.08-.053a1 1 0 0 0-.025-.121.3.3 0 0 0-.101.033 9 9 0 0 1-.492-.373 3 3 0 0 1-.104-.221m-51.748-1.549c.03.492.079 1.03.147 1.595.128.181.287.402.386-.01a20 20 0 0 1-.23-1.726 7 7 0 0 0-.303.141m55.081.339c.025.006.055.186.03.3-.024.116-.085.213-.172.183-.072-.015-.021-.488.142-.483m-9.57-2.022c-.849-1.964-.975-4.045-.524-2.428.022.071.275 1.157.697 2.16.418 1.027.946 1.887.993 1.978.842 1.531-.323.242-1.166-1.71m14.14 1.68.018-.022.081-.024a1 1 0 0 1-.099.046m.547-.313c.162-.017-.119.13-.213.174-.045.025-.041.02-.069.022q.152-.08.282-.196m-59.263-3.973c.098.204.257.252.491.193-.255.212-.379.564-.436.546.01 1.077.089 2.112.216 3.097-.143-.886-.224-1.543-.333-1.816a.4.4 0 0 0-.078-.129 35 35 0 0 1-.058-1.145c-.015.045-.09-.192-.171-.797.092.013.222.033.369.051m50.902.198c-.054.948-.353 2.555-.573 3.044a9.6 9.6 0 0 1 .573-3.044m9.227 2.22c-.168.317.569.817.805.518.307-.497-.296.009-.326.007-.169-.08-.248-.487-.479-.525m7.641-1.257a7 7 0 0 0-.027.715c-.182.233-.179.095-.18.061-.011-.053-.101-.065-.168-.103.049.33.088.695.107 1.096a12 12 0 0 0-.358-1.102c.028.018.06.024.1.006a.3.3 0 0 0 .089-.06.14.14 0 0 1-.013-.057c.002-.003.025.004.054.014l.004-.004.001.006c.061.02.148.039.155-.042q.006-.078.005-.162.064-.088.13-.195.052-.084.101-.173m-20.439-5.511-.025.066c-.031.066-.306-.715-.552-.08-.019.085-.074 1.063.084 2.635.12 1.551.828 3.518.891 3.777.014.083.005.114-.021.114-.684-1.366-1.172-3.041-1.198-4.409-.048-1.273.122-2.203.313-2.856q.22.33.508.753m2.033 4.235a.9.9 0 0 0 .151.256c.195.206.366.343.508.379-.379-.087-.581.472-.971 1.629a8.5 8.5 0 0 1 .312-2.264m20.001.435c-.15.795-.75 1.258-.785 1.357-.105.303-.071.371-.004.405.069.026.182-.012.311-.142.246-.215.628-1.077.478-1.62m-17.819-4.003c.87 3.288.722 5.241.613 5.54-.202.225-.123-.342-.821-2.749.181-.407.337-.73.418-.952.048-.165.052-.281-.007-.335-.068-.059-.156-.005-.26.141-.098.108-.209.302-.327.557a52 52 0 0 0-.499-1.543q.173-.268.315-.459c.085.026.135-.031.14-.186q.19-.241.285-.349.072.164.143.335m15.787 5.457a.16.16 0 0 0 .062.06l-.016-.101-.005-.002q-.02.023-.041.043m-.392-.138c-.131.101-.168.04-.137.025a.24.24 0 0 1 .137-.025m-.122-.552c.148-.222.292-.49.294-.018q.05-.053.109-.109.034.134.064.277c-.09.131-.181.247-.252.316q-.033-.074-.066-.146c-.102.158-.223.298-.247.252-.027-.02.034-.166.194-.37zm-2.211-5.961q.088-.015.19.083c-.016.109.104.4.349.825.267.553.486 1.126.682 1.547.057-.084.032-.419-.086-.854.147.246.31.507.49.769-.081-.374-.16-.71-.229-1.018.099-.153.222.073.364.352.141.276.3.617.432.494.002-.014-.005-.067-.013-.144.284.97.358 1.787.322 2.031-.102.732-.292.188-.45-.054l-.012-.014a1.1 1.1 0 0 1-.203.405c-.011.157-.022.349-.034.559a.8.8 0 0 1 .181.231 2 2 0 0 0-.181.055l-.013-.022-.003.027a.7.7 0 0 0-.209.119q.101.128.192.275c-.011.415.034.464.086.528.048.04.102.033.164-.012.098.258.1.363.046.319-.07-.053-.231-.296-.419-.531l-.001-.002a.9.9 0 0 1-.28-.03q.009-.105.033-.259a4 4 0 0 0-.283-.283 2.3 2.3 0 0 1 .208-.293q.07.07.137.147.017-.135.031-.295a.3.3 0 0 1 .056-.028l-.05-.057q.012-.161.018-.346a.7.7 0 0 1-.241.004l-.005.101c-.324-.316-.614-.494-.819-.671-.304.312.224.528.779 1.053-.027.174-.065.299-.119.358l-.014.01c-.166-.147-.291-.224-.318-.196q-.01.01-.015.023a1 1 0 0 0-.141-.115c-.073-.043-.126-.015-.133.135q-.002.068.009.166c-.079-.095-.155-.19-.228-.269-.076-.086-.15-.162-.212-.228.035-.116.07-.28.096-.491a4 4 0 0 0 .028-.609c.226-.06-.265-.226.514-.234a5 5 0 0 0-.525-.067 3 3 0 0 0-.057-.501c-.257-.703-.238-.404-.21.14q-.057-.076-.112-.154c-.138-.202-.24-.395-.132-.527.059-.083.49.372.781.212.69-.462-.115-2.107-.441-2.664m-14.044 4.336c.112-.085.197-.201.255-.07-.228.652-.45 1.439-.616 2.202.078-.481.158-.876.113-.902a.5.5 0 0 0-.22-.155c.401-.007.562-.788.468-1.075m16.549 1.607a3 3 0 0 0-.198.22l.053.118c.079-.122.147-.255.146-.323zm-1.443-.159q.088.04.211.134l-.043-.009q.159.23.348.371c-.401-.109-.698-.237-.743-.395q-.01-.032-.007-.06l.025-.028-.011-.014a.1.1 0 0 1 .041-.029q.027-.036.055-.079.013-.02.027-.043.055.08.097.152m2.14-1.881c.028.407.028 1.285-.025 1.921l-.015.205a7 7 0 0 0-.185-.41q-.028.057-.06.116-.002-.074-.002-.152l.031-.022-.029-.057a5.3 5.3 0 0 1 .285-1.601m-1.804 1.776c.081.089.167.185.247.289.172-.032-.336-.331-.068-.577a3 3 0 0 0-.117-.141q-.033.251-.062.429m-.515.075-.03.043a.7.7 0 0 0 .188.152c.113.038.089-.046.021-.165-.081-.037-.141-.043-.179-.03m-2.162-.019c-.048-.183-.449-.416-.424-.196.001.026.31.281.424.196m4.225-.174q.016.029.031.058.04-.072.069-.134-.052.039-.1.076m-1.399-.634q.12.143.242.318l.013-.264c-.088-.073-.173-.084-.255-.054m-3.595.023c-.004-.048-.233-.083-.27-.044-.248.16.217.259.27.044m-62.983-.032a6 6 0 0 0-.235.106.6.6 0 0 1 .133-.186zm63.481-14.602c.264.144.867.465 1.912 1.337 1.005.849 2.674 2.536 3.682 5.119 1.029 2.584.9 5.074.686 6.272-.222 1.264-.452 1.741-.499 1.844-.03.043-.301-.105-.293-.212.003-.107.207-.592.406-1.826.195-1.179.294-3.599-.69-6.071-.962-2.473-2.521-4.107-3.457-4.976-.977-.893-1.528-1.273-1.747-1.487m1.458 14.1c-.149-.066-.355.007-.336.265.001.009.054.04.116.072.034-.067.071-.142.092-.136a1 1 0 0 1 .114.103zm-1.466.144c-.01-.027-.171-.05-.27.03-.033.042.25.105.27-.03m.99-.63c-.053.191-.228.455-.356.632q.083.034.164.076c.015-.023.034-.046.049-.071.126-.207.229-.512.143-.637m-14.431.662c.172-.476.324-.379.466-.313q.04.024.08.045a3 3 0 0 0-.546.268m16.262-.068q.002.003.011.004.002-.069.003-.142a.7.7 0 0 0-.014.138m.561-.78a.8.8 0 0 0-.308.21q.01.309-.001.57c.136-.018.281-.047.301-.073l.02-.029c.01-.145.02-.262.033-.337.033-.208.095-.179.17-.068.048-.222-.06-.331-.215-.273m-64.356-.884c.217-.695.565-1.195.773-.427.093.329-.079.968-.283 1.397-.206.437-.456.702-.561.613-.21-.177-.148-.881.071-1.583m63.964.071c-.208-.052-.131.636-.146 1.234q-.003.112-.007.216a.9.9 0 0 1 .237-.427 10 10 0 0 0-.083-1.018zm-1.832.703c-.082-.001-.093.152-.074.161v-.001c.011.002.089-.049.183-.115-.037-.031-.079-.049-.109-.045m-20.018-5.419c.461-1.141.668-1.084.813-1.031a.7.7 0 0 1 .045.225c-.132.177-.364.595-.707 1.606-.748 1.745-.322 6.081-.707 3.994-.161-.4.013-3.768.556-4.794m20.332 5.191a.3.3 0 0 0-.059.072c.005.018.016.017.063.013zm.689-.232c-.149-.072-.251-.047-.34.015-.101.07-.036.075.148.136.178.052.483.17.609.141-.075-.055-.273-.228-.417-.292m-12.937.019a.7.7 0 0 1-.049.188 7 7 0 0 0-.054-.5q.052.155.103.312m-5.715-3.721c-.121.463-.19.828-.239 1.002-.05.181-.087.207-.131.229-.044.024-.097.043-.167.251-.065.219-.178.596-.181 1.595-.063-2.582.26-2.634.718-3.077m5.477-.237c.197 1.114.282 2.293.284 3.114a27 27 0 0 0-.635-2.343l-.108-.313c.073-.099.266-.286.459-.458m-1.994.908c.158.289.31.536.446.733.047.2.074.348.076.426a.19.19 0 0 1-.04.137q-.156-.45-.337-.948zm13.067.416a1.35 1.35 0 0 0-.094.645 2.2 2.2 0 0 1-.196-.42c.082-.068.185-.152.29-.225m-49.21-23.26c.472-.474-1.075-.573-2.404.08-1.66.847.202.624-.981 1.477-4.67 2.966-11.438 11.467-12.229 17.903q-.081-.59-.132-1.218c-.757 2.196-.59 2.687-.394 3.193.221.473.516.999.61 2.45 1.243-5.051 1.818-8.502 4.665-13.403 1.179-2.058 4.139-4.579 4.369-4.789.106-.124-.226-.064-.105-.492.114-.401.752-1.455 2.639-3.054 1.321-1.143 3.882-2.067 3.962-2.147M416.029 376c.212-.131.175.237.283.476-.264.06-.277-.344-.283-.476m.534-.448c-.039-.26.119-.288.103-.156l.012-.021c-.026.029.702-.158.448 1.019v-.001a2.4 2.4 0 0 0-.069-.339c.025-.123-.028-.278-.162-.32l-.001-.001c-.018.003-.098.219-.25.165a2 2 0 0 1-.081-.346m.239.655q-.014.023-.024.017a.1.1 0 0 1-.022-.03zm6.187-6.817c-1.253-2.262-2.492-3.296-2.531-3.052.85.865 2.117 2.509 2.972 4.538.873 2.006 1.143 3.976 1.339 4.853-.03-.992-.48-4.095-1.78-6.339m-4.362 5.99c.041.012.073.01.099.003l.015.023a.3.3 0 0 1-.114-.026m-1.024-1.222c-.533-1.355.347-1.142.655-.285a.14.14 0 0 1 .04-.065c.027-.031.075-.031.122-.013a.4.4 0 0 0 .015.131 1 1 0 0 0-.162-.007q.016.048.029.098c.105-.042.227-.066.171.112-.029.102-.072.161-.12.191q.009.104.006.214-.004.02-.026.037c.069-.043.17-.036.332.165a.4.4 0 0 0-.075.053c-.089-.079-.198-.102-.311-.019.018.133.21.553.308.6-.326-.174-.693-.575-.709-.856l-.048-.033c-.084.079-.112.206-.102.346.009.163.07.352.016.371-.037.009-.099-.149-.136-.28-.039-.135-.051-.242-.081-.236-.056.014-.263.306-.281.318-.012-.001-.044-.091-.037-.156.004-.068.051-.106.079-.127.032-.026.268-.241.291-.259a.21.21 0 0 1 .161-.057.65.65 0 0 1-.137-.243m-.641.963c-.006.012-.156.119-.236.194.059-.06.15-.134.236-.198zm-.106-.012c.042-.006.068.038-.072.093q-.006 0-.011.003c.012-.024.043-.092.083-.096m1.46-.53a.42.42 0 0 1-.28.005c.065.063.122.122.14.13.037.017.072-.082.14-.135m-.438-.065a.6.6 0 0 0 .158.07 1 1 0 0 0-.157-.13.3.3 0 0 0-.001.06m-.048-.033a.2.2 0 0 1 .043-.032.3.3 0 0 0-.133-.048.6.6 0 0 0 .09.08m.043-.032.003.002.003.003.002-.011zm.364-.405c-.001.042 0 .077-.005.089-.085.224-.187.078-.167-.056-.093.021-.157.086-.253.178.059-.03.13-.015.235.032.101.043.215.089.306.033a1.7 1.7 0 0 0-.051-.303q-.036.013-.065.027m.013-.123c-.079.008-.147.033-.166.098a.2.2 0 0 0-.019.058.3.3 0 0 1 .111-.006c.005 0 .029-.012.061-.027a1 1 0 0 1 .013-.123m-17.872-.218c.116-.082.236-.032.224.3a4 4 0 0 0-.199-.15.5.5 0 0 0-.001-.144q-.013-.005-.024-.006m18.161.178q.026.035.02.067l-.06-.011a.2.2 0 0 0 .04-.056m-.289.04.023-.002q-.007-.024-.015-.046-.005.022-.008.048m-15.875-.659c-.243-.02-.421.077-.241.615a19 19 0 0 0-.669-1.17c.29-.003.481-.077.595-.197q.164.372.315.752m3.631.204c.061.014.176.085.305.404-.096-.168-.135.005-.305-.404m12.899-.026c.284-.132.065.243-.122.311-.148-.073.004-.249.122-.311m-19.177-.018c.322.014.39.084.417.145.01.023.006.071.003.124a3 3 0 0 0-.531-.246.5.5 0 0 1 .111-.023m18.938.116c.071-.198.246-.234.197-.133-.041.072-.121.109-.2.141zm-12.789-.622c.031.044.069.117.12.243-.051-.068-.088-.029-.16-.115a.3.3 0 0 1 .04-.128m-7.568-.34c.31-.297.456-.222.504-.082.049.142-.013.33-.019.386-.097-.021-.254-.119-.484-.303zm7.64.3a.5.5 0 0 1-.057-.105l-.065-.216c.021.063.058.168.122.321m-8.318-2.9c-.022.165-.108.344-.078.386.027.026.331-.048.612-.086.173.104.333.21.454.312-.24.388-1.444.219-1.604.012-.041-.075.224-.518.302-.797q.146.082.314.173m-1.783-.508c.508.091.252 1.745-.36.73-.09-.148.159-.764.36-.73m7.28.698c.08-.004.182.068.297.209a3 3 0 0 1-.413-.161.2.2 0 0 1 .116-.048m-10.878-.701c.561.068 1.155.149 1.773.251-.457.527-1.084.256-1.325.083h.002c-.213-.152-.492-.012-.45-.334m2.437-.859c.654.469.91 2.042.249.741-.075-.14-.251-.192-.301-.364a.46.46 0 0 1 .002-.227 1 1 0 0 1 .05-.15m6.335-2.766c.085-.026.438.4.977 1.313.399.664.837 1.611.958 2.018q-.022.017-.015.056a.2.2 0 0 0 .043.067q.012.073-.017.075c-.019.001-.085-.078-.183-.204.032.025.06.046.064.045.048-.226-.341-.57-.201-.221-.178-.233-.412-.541-.655-.826a10 10 0 0 0-.526-.575c.119-.102-.073-.536-.259-.815a1.6 1.6 0 0 0-.177-.219 4 4 0 0 1-.096-.491c.027-.116.04-.211.087-.223m-14.78 2.754q.042.103.108.201c.081.574.007.463-.055.262zm10.346.233q.13.046.261.075a.4.4 0 0 1-.261-.075m-10.559-2.123c.029.097.117.583.16.666.015.027-.014-.438.031-.359.128.234-.077.988.26 1.197q.121.202.266.409l-.012.007c-.133.071-.237.091-.25.081-.11-.098-.237-.907-.24-.734.009.163.125.588-.002.617l-.086-.752c.044.149.067.152.052-.08-.006-.034-.088-.424-.143-.724zm26.743 1.862c-.377-.321-.477-1.069.152-.394l.066.076c.021.024.08.451.051.457a.6.6 0 0 1-.269-.139m-15.336-.511c.164-.219.308.16.372.452a8 8 0 0 1-.417-.224.32.32 0 0 1 .045-.228m1.259-.064c.221.16.414.331.546.499a.6.6 0 0 1-.135-.08c-.2-.161-.326-.31-.411-.419m-7.832-.516c-.392-.338.637-.71.825-.525.269.295-.504.816-.825.525m-3.184-2.156c.312.159.714.378.835.258a.3.3 0 0 0 .085-.144c.052.328.144.949-.082 1.017-.183.054-.519-.539-.838-1.131m2.944.701c-.388-.63 1.195-.318 1.326-.27 1.783.709-1.274.456-1.326.27m3.929-.223c.208.138.186.233-.291.271-.006-.13.124-.221.291-.271m-8.736-1.237a.27.27 0 0 0 .098.104c.103.059.256.019.275.024.008.009.052.167.099.319a.46.46 0 0 0-.121.232c-.06.237.025.475.086.524.041.031.073.033.099.016-.037.093-.075.169-.117.183a.3.3 0 0 1-.279-.051c.007-.171.097-.215.1-.247-.007-.321-.221-.462-.223-.506a7 7 0 0 1-.017-.598m.652.64c.146.006.378.456.66.451a.08.08 0 0 0 .049-.019c-.026.867-.599-.285-.633-.293-.032.011-.065.095-.101.198.021-.159.019-.333.025-.337m25.057.109c.104-.265.964.331 1.349.47-.148.231-1.031-.405-1.349-.47m-5.367-.097c.016-.013.365.098.39.124.304.489-.693.173-.39-.124m-14.097-.261c.135.003.974.27 1.184.258l.003.002c-.352.382-1.209.345-1.344.073.151-.022.225-.115.157-.333m-1.782-.109c.158.033.45.147.753.252-.03.261-.17.388-.657-.001-.024-.021-.053-.124-.096-.251m-1.693.387c-.085-.276-.335-.487.66-.325a.4.4 0 0 1-.072.191c-.125.146-.515.086-.588.134m-1.891-1.017c.038-.006.434-.062.854-.002.418.058.787.227.436.558a.9.9 0 0 1-.469.252c-.197-.367-.375-.69-.49-.798q.08.48.115.807c-.279-.035-.533-.132-.717-.092-.015-.198-.044-.407-.036-.417.016-.015.057.007.111.042.051.056.1.092.142.098.215.151.463.298.324-.247-.035-.014-.108-.034-.199-.06-.036-.077-.082-.139-.071-.141m26.396-.044c-.497-.297-.83-.593-.003-.326.164.048 1.066.639 1.099.694.149.315-.601-.075-1.096-.368m-21.613-.152c.695-.147.862.109.907.374a39 39 0 0 0-.704-.103 8 8 0 0 0-.203-.271m-3.227.267c-.395-.536.88-.677.448-.049-.023.023-.434.068-.448.049m-2.423-.339c.079-.173.232.019.392.247l-.038-.013c-.16-.05-.284-.096-.36-.118.002-.067.002-.111.006-.116m27.034-1.692c1.097.263 1.136.842 1.2.878.898.506.602-.115.645-.106l.179.075c1.032.484.618.556-.151.389-.888-.199-2.046-.476-2.452-1.053-.01-.032.363-.233.579-.183m-1.175.369c.036-.243 1.658.552 1.774.646.452.336.015.166-.53-.066-.54-.233-1.148-.498-1.244-.58m-26.463-.348c-.03-.133.041-.153.11.246-.014.22-.083-.038-.11-.246m-.094-.574c-.024-.068-.013-.298.087.213-.038.075-.008.302-.087-.213m22.566-.956c.039-.094 1.969.529 1.329.75-.095.009-1.296-.488-1.329-.75m.297-1.785c-.302-.411-1.174-.399-.884-.035.027.042 1.003.533.884.035m-4.923-3.462a2.4 2.4 0 0 0-.338.396l-.096-.125c.098-.034.237-.069.434-.271m1.94.278c.209-.418-.053-.305-.205-.155-.066.336.186.222.205.155m-33.41-1.56c1.148-.094-.957 1.033-1.978 1.378-.122-.129.371-.52.882-.831.5-.308 1.004-.536 1.096-.547m32.549-.473c.459-.777.153 1.054.069 1.144-.085.089-.417.183-.869.298-.429.105-.722.257-.858.385-.137-.199-.182-.342-.071-.507.04-.081.108-.485.15-.522.021-.008-.005.447.239.29.12-.087.556-.722.608-.664.028.057-.072.648-.044.693q.002.003.012.001c.107-.025.74-.39.772-.453.054-.12-.064-.564-.008-.665m.585.614c-.132.117-.134.366-.09.528.074-.173.134-.359.147-.372q.006-.001.011-.001c-.028-.083-.057-.158-.068-.155m.924-.572a.3.3 0 0 1-.114.061 1.3 1.3 0 0 0-.062.346c.054-.083.068-.059-.009.227a2 2 0 0 1-.008.174q.028-.093.091-.255c.014-.036.089-.19.106-.346a.7.7 0 0 0-.004-.207m-.267-.16c-.099.18-.198.393-.265.464a.5.5 0 0 1-.179.097c.075.11.141.191.2.23a.4.4 0 0 1 .098-.103c.024-.013.015.044-.003.123q.054-.014.107-.099c.174-.284.155-.485.044-.708zm-24.954.336c-.262.095-.896-1.162-.183-.595.024.018.281.556.183.595m24.763-1.078c-.139.266.086.521.191.742.09-.163.18-.3.251-.28.076.026-.107.483-.109.505l.011-.004a.5.5 0 0 1 .082-.154c.008-.007.022.033.032.093.288-.234.363-.946-.458-.902m-24.894.261c.02-.026.512.21.684.071.004 1.03-.828.235-.684-.071m1.629-1.436c.454.282.372 1.429-.096 1.091-.051-.048-.235-1.055.096-1.091m-2.425.025c-.123-.292.401-.555.481-.092.077.374-.428.187-.481.092m12.02-1.022c-.796-.53 1.094-.87 1.056-.228-.004.207-.859.355-1.056.228m-13.088-1.036c-.169.08-.312.156-.421.221.101.209.176.576.357.699l-.125-.261q.087.154.162.281.064.032.148.017c.032-.012.054-.573-.064-.981zm1.192-.514c-.088.377-.547.433-.837.472.155.871.466 1.603 1.13-.113.02-.059-.071-.271-.131-.438q-.072.037-.162.079m22.604 1.236c-.327-.072-1.25-.775-1.403-.39.405.063 1.263.769 1.403.39m-21.535-1.782c-.074-.032-.132.304-.32.291.079.373.082.732-.122.672q.289.361.536.73c-.376-1.501.137-.431.262-.468.362-.123.357-.454.276-.814a1 1 0 0 0-.195.067c-.07-.112-.083-.204-.054-.281-.065-.034-.178-.096-.383-.197m-2.437.225c-.049-.089-.065-.008-.187.033-.729.251-.767.379-.704.48.074.1.219.21.249.336l.011.031a1 1 0 0 1 .183.013c.097-.1.243-.247.457-.456-.147-.097-.359-.048-.658.28-.258-.74.449-.343.643-.586.005-.008.005-.059.006-.131m.375-.439c-.354-.612-.369.122-.375.439.026.048.063.145.127.319l-.118.118c.103.068.175.209.224.374q.107-.049.221-.099a.2.2 0 0 0 .009.091l.068-.01-.017-.107c.3-.13.617-.258.854-.365a.6.6 0 0 0 .016-.144c-.22.145-.721.237-.882.429-.075-.492-.107-.975-.127-1.045m2.677.213c-.09-.452-.182-.907-.18-.517-.013.15.04.35.099.56-.073.044-.127.093-.151.155.071.037.088.04.111.022.018-.02.035-.06.065-.08q.04.136.073.272l.066-.017q-.025-.113-.053-.249c.017.032.051.132.083.245l.024-.004c.016.072.029.127.03.141l-.001.051c.063.227.099.353-.009-.196.722-.139 2.058-.152 1.734-.766-.415.159-1.336.175-1.823.355.008-.27-.058-.166-.016.006zm.083.395c.048.224.08.35.083.184l-.053-.188zm-1.394-.103c-.11-.028-.239-.064-.256-.026-.011.034.013.112.045.202.129-.066.211-.12.211-.161zm.858-1.357c-.03-.159-.313-.074-.933.19-.558.226-.981.482-1 .555-.143.712 1.105-.196 1.075.612.084.021.158.036.166.008.005-.016-.002-.05-.014-.093a1 1 0 0 0 .082.035q.039.018.085.037.03.012.057.013a3 3 0 0 0-.158-.512q-.047.036-.092.074a1 1 0 0 0-.069.077c-.047-.131-.091-.257-.078-.302.049-.173.147-.064.239.151.333-.279.725-.498.64-.845m.529 1.163q-.006-.003-.016-.004l.004-.055zm-.558-.64c-.247.505.518 1.013.243.202-.01-.042-.224-.223-.243-.202m.259-.961c-.013-.196-.389-.597-.249.239.005-.088.156.035.234.094.08.058.101.049.015-.333m6.727-.484c-.074-.026-1.244.056-1.307.092-.973.627 2.374.382 1.307-.092m5.3-.02c-.277.021-.512.107-.645.31.176.011.409.043.656.074.707.077 1.533.172 1.812-.165-.535-.066-1.255-.26-1.823-.219m431.741-12.631c2.311-1.118-6.533 9.411-7.915 10.151-.489.505 5.07-8.193 7.915-10.151m4.648-14.251c6.316-11.313 6.45-51.226 5.382-8.532-3.157 10.976-1.933 3.885-2.048 4.447-3.036 8.049-5.509 11.295-6.642 13.42-1.86 3.201-.605 2.454-1.592 4.054-3.347 5.009-4.123 3.347-9.819 10.293 9.532-11.757.488-1.289-.25-1.612-1.94-.674 4.956-5.32 10.947-13.236 3.434-4.47 6.163-10.121 7.025-13.802.18-.742-.705 1.538-1.691 3.397-.996 1.906-1.937 3.285-1.312 1.571m5.382-8.524v-.008l.007-.023zm8.3-10.743c.012-5.545-.633-10.44.33-5.208.299.35.156 11.336-.173 11.794-1.079 4.925-.139-1.045-.157-6.586m-13.676-9c-.471-3.531.275-1.382.869 2.65.648 4.009.345 10.207-.284 12.912-.21.115.324-3.811.192-7.694-.075-3.91-.746-7.577-.777-7.868m-791.633-.568c.495 1.268.789 1.935.842 2.376a2.4 2.4 0 0 0 .445-.488 25 25 0 0 1-1.287-1.888m6.366.662c.215.091.155-.397-.258-.211.082.116.188.197.258.211m.422-1.228c-.347.102-.556.235-.672.372.305-.122.545-.246.766-.247l.044-.004zm3.362-1.201c-1.102.5-2.289 1.056-2.606 1.32.437.417 1.538-.481 2.606-1.32m-9.985-15.199c-1.196-2.012-3.318-4.718-3.71-3.612.06.271 2.165 4.061 2.832 5.136-.885-.099-1.662-.141-1.755-.173-.55-.191-.76-.62-.765 1.36-.004.502.038 1.226.132 2.102l.014-.001q-.005.022-.01.043c.22 2.047.724 4.923 1.592 7.806.5.327 1.31 1.05 2.276 2.014q-.217-.59-.48-1.296c-1.31-3.594-2.252-6.766-2.585-8.647l.327-.022q-.135-.116-.28-.232a1 1 0 0 0-.097-.072c-.103-.687-.11-1.162.002-1.366.293-.697.563-.927.792-1.04a.56.56 0 0 1 .602.063c.358.253.637 1.022 1.105 2.363q.022.066.046.132c.393-.043.74-.105 1.008-.196-.078-.577-.102-1.159-.051-1.629a3 3 0 0 1 .156-.805 3 3 0 0 0-.264-.09c-.152-.483-.474-1.14-.887-1.838m-3.252 4.812c.103-.488.309-.706.743-.406q.021.156.05.326c-.272.021-.54.047-.793.08m2.374-3.288c.307.034.627.076.935.126.29.065.577.117.83.188.29.925-.044 1.217-1.571-.033-.021-.012-.09-.114-.194-.281m4.056.145c-.037-.12-.152.043-.267.598q.082.036.166.064c.102-.177.14-.546.101-.662M7.233 182.354c.294-.522-.06 6.788.201 13.602.22 6.969.744 12.91.875 15.474.187 5.824.74 9.397.747 10.054.092 2.17-3.556 1.777-3.54 4.103-.036.591 1.925 9.796 4.86 17.071 2.873 7.453 6.095 13.103 6.597 14.465.303.8.514 1.418.653 1.858-.289-1.735 1.885 1.931 3.836 5.258 1.97 3.4 3.666 6.519 3.023 6.677-.454.374-6.27-9.687-6.497-10.541-.068-.2-.111-.385-.161-.55.165 1.458-5.564-6.991-10.23-20.747-4.904-13.462-5.493-31.398-6.072-22.009a66 66 0 0 1-.447-5.474c-.279-2.971 3.036 1.529 1.999-2.066-.361-1.687-4.63-1.813-2.47-13.296l.001-.032c.68-3.528 1.59.525 1.96-.124.1-.102 2.607-11.689 2.558-2.05.328 13.183-3.109 1.482-3.166 8.119-.016.917 1.714 8.287 2.521 9.372.174 1.293.322 1.895.383 1.558.01-.058-.028-.65-.074-1.565-.103-.627-.385-2.253-.236-2.623.725-1.747 2.018-.948 2.075-1.192.079-.411-.556-4.377-.788-10.175-.27-5.657.212-13.264 1.392-15.167m792.542 80.595c-1.757-2.949 3.039 2.933 4.195 5.023-.177.359-3.917-4.599-4.195-5.023m-782.79-24.508c1.79 13.271 9.675 25.239 10.366 20.617-4.002-6.884-4.423-6.69-4.88-6.548-.419-.289-1.252.327-5.485-14.069m778.958 6.127c.477-.158 8.798 10.473 10.546 12.69-1.497-1.062-11.461-12.748-10.546-12.69m-7.341-7.094c-.106-.321 1.759-.415 3.013 1.777 4.451 7.23-.852 2.34 13.107 16.944-6.362-6.005-.981.102-2.415-.925-1.156-.849-3.993-4.825-2.793-2.181-2.004-3.545-11.112-15.194-10.921-15.628zm-1.904 7.561c-.011-.206 4.068 5.05 4.507 5.748 2.048 3.653-4.66-4.441-4.507-5.748m1.602-.269c.151-.331 3.506 4.062 3.793 4.49 1.634 2.74-2.854-2.736-3.793-4.49m-28.415-54.047c-.241-.26-.268 2.115-1.788.607 2.236 2.662 16.136 20.276 17.238 21.498.692.724-2.915-6.016 3.709 3.675l.009.011c-3.847-8.306-12.257-14.802-12.859-15.683-.647-.907 1.117-.159.979-.373-.495-.589-7.186-9.462-7.288-9.735m4.937 12.034c2.375 2.958 6.084 7.997 8.043 9.284-2.624-3.23-6.208-8.178-8.043-9.284m-14.126-20.303c.524 2.925 1.754 4.382 2.554 5.032.847.687 1.464.746 1.98 1.699 1.506 2.702.089 3.584-.74 3.345 2.097 1.565 9.759 11.352 15.199 17.481-4.251-5.743-10.47-14.536-13.082-19.331-.781-1.372-1.92-2.362-2.453-3.462-.82-1.748.563-.611.524-.742l-.005-.009c-.764-2.342-3.355-4.324-1.313.365-1.076-1.551-1.974-3.03-2.664-4.378m12.006 4.836c.495.457 10.068 13.083 10.735 13.953 1.332 2.387-1.761-1.223-4.828-5.214-3.131-4.031-5.748-8.274-5.907-8.739m11.473 13.692c-.847-.764-10.338-13.114-7.703-11.328 1.183.829 10.764 14.422 7.703 11.328m-20.261-8.355c-1.263-3.92-3.408-.755-3.273-.241.552 2.077 6.184 7.367 7.489 8.413-7.414-8.858-3.429-6.264-4.216-8.172m-737.853-3.718c-.985-7.086-3.526 9.085-2.263 10.991.518 1.322 2.608-7.667 2.263-10.991m744.206 4.284c-1.975-3.584 4.072 4.842 4.433 5.272 1.35 2.64-3.658-3.706-4.433-5.272m-7.858 3.334c-.677-3.471-4.754-3.977-1.49-.3.158.176 1.513.456 1.49.3m14.715-.348c-3.194-4.491-8.724-11.831-5.449-9.499 1.624 1.153 1.631 2.895 1.768 3.129 1.27 2.204 5.034 6.925 3.681 6.37m-3.668-9.159c-.033-.848 1.781-.145 2.214 1.621.2.768-1.147.082-2.214-1.621m-16.994-6.106c-.247-1.581-.987 1.427-.231 2.671.294.645.651 1.182.968 1.389-.167-.384-.37-.954-.544-1.555-.205-.878-.125-2.089-.193-2.505m17.916-24.305c-.236-4.287-2.293 1.104-4.65 6.26-2.418 5.295-4.461 10.092-6.167 10.574 1.938-4.494 2.907-6.695 2.638-6.612-.218.022-1.379 1.947-2.339 3.896-1.92 3.945-2.908 7.626 1.366 2.52-2.75 4.705-2.358 4.769-2.013 4.781.428-.089 1.378-.889 1.463-.279.081.659-.243 1.745-.329 2.218-.08.434-.077.508.248.472a.6.6 0 0 1-.183.055c-.255.053-.429.079-.536.103.336 1.947 2.326 4.592 2.032 3.433-.111-.398-.869-2.396-1.251-3.599q.057-.006.126-.016h.001c.172-.061.41-2.002 1.654-5.187-3.407 2.458-.241-3.87 3.149-6.382.123-1.367.283-2.809.463-4.322 3.784-1.16-.172-3.594 4.328-7.915M53.247 91.067c5.618-3.552 12.317-5.125 9.816-3.017-.535.375-11.841 6.367-17.207 11.452-15.585 15.153-9.884 13.537-10.812 14.247-.932.906-11.33 11.89-15.19 19.579-9.485 18.593-11.376 29.795-15.197 50.857.166-12.591-3.981-5.681.169-21.545q.04 2.217.167 4.349c2.788-23.28 23.16-54.876 43.418-70.058 5.018-4.015-2.215-1.268 4.836-5.864m698.366 85.861c-.302.421-.855 2.695-.792 3.517.03.877.247 1.007.623.484.036-.053.015-.505.101-1.574.072-1.025.351-2.582.068-2.427m3.044 3.499-.06.007q.036-.021.046-.047zm2.365-.487c.2-.016.362.013.417.14.03.049-.062.097-.226-.002a2 2 0 0 1-.191-.138m8.611-14.721c2.198-4.62 4.531-10.334 4.287-8.289-.103 1.565-4.224 10.376-7.053 15.895a165 165 0 0 0-2.906 6.142c-.495 1.116-.647 1.14-.741 1.111-1.003-.045.127-.881 1.39-3.855.356-.854-.268-.818-.229-.909.705-1.619.765-.19 1.25-1.216.128-.307 1.763-4.104 4.002-8.879m-8.611 14.721c-.128.01-.274.038-.417.07a6 6 0 0 1-.072-.455c.173.125.346.273.489.385m15.394-25.984c-.081 5.593-7.824 18.621-3.996 8.854.365-.955 2.996-4.982 3.996-8.854m-13.844-2.7c-.969 3.175-4.622 9.832-4.41 10.909 1.099-1.99 4.554-9.194 4.41-10.909m-.328 6.395c2.462-3.598.456-5.446-.704-.658-.045.182.598.78.704.658m6.625-5.597c3.137-6.585-.741-3.864-1.684.969-.058.286 1.535-.673 1.684-.969m-14.092-62.25c1.824 1.923 16.955 11.138 21.851 31.607 3.737 19.739-2.43 29.485-2.053 30.443-.104.531.522 1.109.637.877-.156-.966 6.201-10.74 2.448-31.021-5.009-21.148-20.828-30.33-22.883-31.907m18.998 9.84c-.017-.866 4.895 4.831 8.093 13.736 3.367 8.926 3.329 18.756 3.156 22.087-.255-2.977-.248-9.288-2.16-16.673-1.822-7.428-5.786-14.845-9.089-19.15m-4.808 28.25c.401-5.155-3.77-9.782-1.938-2.188.386 2.225 1.865 2.705 1.938 2.188m-28.532-48.598c-1.993-.772-1.769-.54-.125.31 3.341 1.954 16.611 7.544 27.182 19.475q-.266-.337-.548-.699c-1.981-2.057.21-.761-1.257-2.329-15.897-14.85-22.289-14.99-25.252-16.757M75.147 92.676c5.19-2.848 12.324-6.64 7.507-5.237-.555.155-5.045 2.451-7.941 4.48-1.35.951-2.242 1.753-1.974 1.947.623-.263 1.465-.689 2.408-1.19m657.013-2.743c-.604-.174-.605.068-.203.505.828.86 3.033 2.43 5.399 3.413.198.059-1.034-1.597-1.228-1.724-2.021-1.372-3.333-2.004-3.968-2.194m-.765-6.096c-3.022-1.232-10.834-4.44-11.44-3.801 2.87.638 10.718 4.198 11.44 3.802m-.996-5.56c-8.727-2.872-.028.726 5.188 3.127 2.336 1.047 3.915 1.716 3.101.936-.085-.072-1.31-.769-2.852-1.555-2.061-1.07-4.669-2.24-5.437-2.507m-3.396-5.038c-1.638-.475-4.278-.42-4.118-.31 2.982 1.75 8.833 3.655 13.878 5.55 7.531 2.866 13.459 4.954 3.283-.014-.314-.12 2.17 2.155-3.126-.376q-.357-.165-.763-.356c-.485-.18-1.149-2.112-9.154-4.494m5.332 3.926c-.711-.553-13.635-5.226-13.98-4.535 1.686.27 20.896 7.858 13.98 4.535m-72.222-.758c-.272-.061-6.088-.169-6.355-.116-5.291.94 11.147 1.22 6.355.116M152.279 66.96c-.328-1.177-7.663.626-6.538 1.227.406.186 6.831-.294 6.538-1.227m540.312-.02c6.904-.24-14.493-2.846-15.422-2.443.606.614 14.66 2.35 15.422 2.442m-22.601-7.129c-3.539-.925 7.256-.999 10.589.164 1.521 1.282-10.2-.104-10.589-.164m-141.543-8.134c-.84-.43.482-4.985 3.669-2.278.427.352-1.94 1.053-1.618 1.434.152.196 5.196 1.879 7.354 2.387.497.126.839.198.912.19.401-.05.105-1.64.513-1.736.42-.089 5.265 2.093 8.116 2.454 5.286.694 6.007-.525 6.436-.474 1.309.126 3.53 1.21 6.303 1.415 13.824 1.126 37.697.209 50.989 2.498-11.627-.889-22.186.18-32.806.27 2.921-2.367-15.309 1.407-4.663-1.09-3.527.394-25.135-.292-35.897-2.67-4.807-.94-8.455-1.997-9.298-2.398q-.005 0-.01-.002M175.886 54.14c.379-.115 5.686-.435 5.868-.36 3.88 1.551-13.791 2.872-5.868.36m66.992-4.995c-1.863 1.037-6.751 2.332-7.164 3.567 2.041-.9 8.601-1.883 7.164-3.567m-63.98 2.648c-1.198-2.001 10.487-2.79 11.341-2.446 3.835 1.379-10.329 1.834-11.341 2.446m337.007-1.354c-1.786-.896-10.259-3.895-7.245-1.771.501.364 6.908 2.62 7.245 1.771m-24.968-13.481c-6.543-.72 18.146 10.647 12.232 5.883-.326-.259-11.513-5.723-12.232-5.883m-257.739 3.708c12.814-5.566 21.388-9.085 20.205-7.693-.865 1.093-10.288 6.374-21.359 9.203-.535-1.28-.444-.838 1.154-1.51m38.147-3.831c-5.907.555-3.983 3.636-.343 1.92 1.302-.61.534-1.937.343-1.92m205.413-2.438c-3.555-.355 6.169 5.106 3.969 2.277-.119-.13-3.755-2.251-3.969-2.277m-197.537-.847c-1.95 1.068-6.179 1.886-6.462 2.086-2.763 1.96 3.538 1.938 6.462-2.086m11.401-7.926c-2.599.836-3.386 4.025-3.066 4.032 3.076.026 5.979-4.052 3.066-4.032m-11.988-4.163c-1.166 1.938-6.461 3.773-9.729 5.11.129-1.096 7.174-3.802 9.729-5.11m26.519-9.153c1.669 1.599-11.554 4.278-15.498 6.16-1.861-1.582 10.971-4.584 15.498-6.16m125.434-.082c.738-.936 8.703 2.184 11.546 2.924-.68.869-8.447-2.342-11.546-2.924m-61.443-2.087c.401-1.728-14.014-.04-8.212.989 1.421.224 8.128-.468 8.212-.989m-32.076-7.427c6.745.354-15.636 3.98-8.675 1.387.373-.17 8.256-1.428 8.675-1.387M374.106.04c3.939-.182 8.849.294 12.523.514-1.886.825-7.574.561-12.49.48-1.886-.04-3.628-.07-4.943-.054 1.037-.568 2.803-.846 4.91-.94"/></svg>