<svg xmlns="http://www.w3.org/2000/svg" width="340" height="607" fill="none" viewBox="0 0 340 607"><path fill="#fff" d="M60.355.63c91.012-1.51 180.219.16 270.41.225l7.87-.105.107 8.082q-.012 14.83.043 29.7c.006 1.032.469.583.489 1.022.117 2.731-.606 5.414-.635 6.424-.062 2.157.605.97.606 2.546-.007 16.287-.399 31.658-.285 47.959.007 1.06-.527-.022-.433 1.842.052.962.872 3.975.884 6.147.042 7.587-.22 13.96-.208 21.961.007 4.376-.062 10.942-.05 15.835.005 2.161.38 4.413.393 6.548.017 3.029-.743 2.411-.79 2.877-.206 2.045.628 2.329.608 4.27-.04 3.612-.597 3.807-.55 8.39.035 3.276.475 10.773.604 14.903-.646 9.659-.39 21.83-.176 30.841.127 5.334-.653 5.829-.65 8.004.015 7.664 1.01 13.48 1.043 20.678.042 9.552-.616 18.019-.663 27.274-.008 1.501.706 1.157.724 2.629.067 5.451.198 12.421.096 17.276-.112 5.411-1.149 7.408-.938 12.703.063 1.552.972 2.007 1.088 4.608.184 4.155-.617 8.712-.707 11.612-.119 3.975.807.519.683 5.878-.006.22-.667 1.023-.636 2.174.09 3.353.61 3.021.561 7.928-.007.472-.637 6.976-.64 7.624-.01 3.806-.231 11.469-.097 13.722.477 8.054 1.473 1.714-.688 8.563.529 3.016 1.064 6.007 1.578 9.204-.479-2.132-1.17 6.52-1.126 7.134.36 5.033 1.202 2.036 1.062 8.418-1.942-8.429-.25 8.234-.201 11.95.241 17.892-.244 34.156-.231 52.14.005 6.02.416 14.087.406 20.457 0 1.484-.461.363-.471 1.67-.006 1.303.51-.143.483 1.345-.179 9.257-1.153 16.51.064 24.99-.176.413-.315.4-.508 1.083 1.09 6.94-.376 20.305-.578 25.329-.312 7.857.425 9.864.276 15.572-.199 7.548-1.639 18.881.738 13.82.074 5.178.095 10.163-.126 15.393-.025.582-.629.181-.642.414-.086 1.475.455 1.956.48 2.953.067 2.702-.581-1.708-.4 2.145.096 2.033.569 3.188.579 8.832q.007 5.351.008 10.79l.119 8.923-9.163.121c-30.958.009-63.833-.134-95.057-.206-2.395-.004-.819.58-3.822.542-10.436-.129-29.115-1.112-38.114-.978-8.997.134-6.968.989-12.598 1.347-1.087.069-.196-.418-1.18-.425-6.616-.045-14.504-.805-19.864-.919-3.544-.077-3.261.689-5.72.744-3.664.079-7.435-.694-9.39-.719-9.191-.109-15.51.514-24.093.197.335.168.557.324.841.49l-30.475-.082c.479.154.943.309 1.422.466-11.924-.085-10.564-1.753-9.515 1.771-.867.124-1.787.268-2.615.382.336-1.816-6.876-3.145-16.055-3.607-.674-.034-5.19 1.736-4.7-.355-1.177.511-1.88.864-2.876 1.313-1.941-.633-3.91-1.259-5.85-1.889-1.049.094-2.112.186-3.16.28-.156.41-.037.835-.374 1.237-4.868.062-14.85-.444-18.697-.392-5.74.079-11.544.51-16.873.583l-8.706.116-.118-8.94c-.048-3.542.062-6.875.54-9.842-.122-3.62-.926-.026-.825-5.41.408-.609.798-1.181 1.217-1.815-1.82-4.4-.712-5.319-.332-11.349.259-4.078-.186-6.749-.1-10.632.023-.984.557-.846.54-1.519-.055-2.255-.791-8.688-.81-10.28-.195-14.422-.112-26.813.084-40.549.02-1.475-.507.438-.484-1.09.035-2.457.845-1.011.885-2.435.106-3.972-.749-4.002-.793-9.542-.147-18.243.495-39.216.552-58.274 0-.595-.5-.56-.506-1.208-.024-4.219.652-8.491.645-12.322-.01-6.357-.712-11.135-.71-17.414.002-12.274.362-23.241.382-35.864.017-10.332-.05-19.306-.047-30.634.01-49.485-1.578-99.982-.733-149.804.022-1.268.464-.752.445-1.139-.191-3.676-.788-4.005.46-5.312-.245-4.684-1.183-6.162-1.116-11.818.035-3.015 1.489-.765.739-5.866-.678-4.605-1.475.477-.66-13.219.023-.364.908-2.149.677-4.995-.228-2.861-.863.45-1.054-6.438-.447-16.171.32-36.639.084-55.438-.015-1.178-.49-12.525-.708-14.765-.425-4.334-1.084-3.429-1.245-9.059-.125-4.35.622-7.94.473-13.053-.018-.596-.786-1.595-.684-5.438.101-3.833-.444-12.613.336-17.455.192-1.191 2.68-5.158 3.01-5.14 1.105.116 1.255 4.963 1.975-.228.007 1.746.05 3.441.07 5.175.742-.311 1.483-.62 2.223-.918-.112-2.11-.225-4.224-.339-6.334l.738-.31c.005 7.586.955 3.108 1.84 7.044.446-3.624.891-7.276 1.338-10.888-.055 2.084-.095 4.544-.16 6.382.482.094.735-.49.877-1.29V8.831h18.707c-2.808-.326-6.358-.757-6.554-.822-1.423-.477.737-1.17.104-1.411-1.762-.676-12.46-2.372-12.254-2.628C14.62.831 50.619.791 60.355.629m259.928 595.594-6.583-.167q-.097.624-.192 1.248c9.695-.539 7.46.657 12.259 1.837-.932-1.477-1.848-2.956-2.78-4.436-.906.507-1.811 1.011-2.704 1.518m-139.593-.681c-4.541.092-5.578.461-4.801 1.287-1.036.1-2.084.197-3.119.293-.478-.161-.97-.32-1.449-.481-.543.34-1.09.677-1.621 1.018-1.099-.067-2.213-.134-3.312-.204-.13.171-.35.32-.428.508 4.662-.079 11.945.62 15.138-.411 1.859-.601-5.441-1.066-.408-2.01m12.006 1.067c.142.411.265.823.407 1.236 6.403.084 7.195-.525 8.528-1.6zm32.568-2.201c-.764.139-1.438.281-1.679.487-1.123.958 2.437 1.632-.683 2.573 10.845-.483 21.313-1.257 20.735-3.06zm31.446.291c-3.184.072-6.371.141-9.542.213-.065.415-.135.828-.187 1.243 3.405-.125 6.828-.253 10.233-.377-2.486.278-4.987.556-7.473.835l11.847.596c-3.769-1.37.239-1.66.346-2.801h-5.707zm-167.274-.291c.083.153.101.315.042.491-.233.695-7.067 1.409-3.456 2.152 2.935.146.95-.685 2.146-.728 8.648-.303 8.146.861 11.68.55.557-.499 1.142-1.007 1.711-1.511q1.998.22 4.016.439c.311-.335.635-.671.945-1.006-1.255-.022-2.67-.045-3.822-.067.14-.113.38-.219.697-.32h-7.507c-2.085.161-3.916.382-4.678 1.087-.332-.419.327-.781 1.073-1.087zm243.025 0 .021 1.672-1.717.023-.816.011q.406.331.816.664l2.401-.033-.031-2.337q.4-.496.801-.986l-1.559-5.947q.042 3.458.084 6.933m-68.421 0c6.015 1.165 11.429 2.379 21.09 1.433 2.148-.211.981-1.266 7.078.018-.495-.563.036-1.025.922-1.451h-2.132q-.368.078-.818.136c-4.545.576-11.173-.479-10.902 1.212-1.811-.079-3.497-.126-5.257-.193.664-.384 1.314-.771 1.965-1.155h-.68c-3.079.356-5.417.353-7.312 0zm-154.174 0c-1.15.195-1.68.521-.268 1.337 3.948-.221 8.429-.447 12.584-.668.13.331.251.662.38.993 4.277-.164 2.318-.974 1.158-1.662zm71.734 0c2.168.266 3.679.818 4.224.872 5.863.573 8.491.047 13.268.764-.245-.56-.386-1.092-.576-1.636h-.53c-4.055.786-6.331.742-12.231.558l6.176-.36-.137-.198zm150.338-24.783c-.103-.244-.66.81-1.173.656v18.504l.387.415c-.022 2.229-.168 3.828-.387 4.919v.289h-6.515c5.13.338 3.801 1.24 6.515 1.264l1.281-.016-.017-1.248c.011-1.241-.162-3.326-.656-7.257.407-.35.823-.726 1.227-1.049.025-4.593-.895-4.221-1.069-8.169-.108-2.473 1.507-5.577.407-8.308M171.44 594.409c.521.254.994.583 1.406 1.005 3.532.085 2.412-.714 3.457-.893q.384-.066.757-.112zm-30.742 0c.203.294.389.594.534.909 6.485-.797 9.437.484 17.049-.443.947-.115 1.962-.288 3.006-.466h-8.247c-1.373.22-2.954.286-4.003 0zm-6.754 0c-.035.309.27.55 2.479.466-.067-.151-.18-.309-.286-.466zm-5.38.327a.9.9 0 0 1 .109-.327h-.679q.278.166.57.327M8.507 589.41c.648 4.415.985 5.893 2.033 3.808l.002-.014-1.394-4.933c-.213.375-.428.75-.641 1.139M12 582.881c-.707-2.48-1.477-1.567-2.345.305.134.815.27 1.614.404 2.429.648-.236 1.293-.47 1.94-.711zm39.01-47.938c-3.636-.096-8.423-.166-12.074-.101-1.571.029-1.227.272-2.013.377-.787.103-1.31-.076-1.785.012s-.056.302-.288.371c-.333.099-1.683.196-1.77.216-1.108.293.764.163.823.284.2.405-.092.818-.204 1.215h-.97q-.422.001-.835.038c.522-.18.954-.337.8-.339-2.079-.239-3.297.688-5.017 1.536-.474.256-.194-.036.145-.321s.736-.548.34-.362c-2.152 1.148-2.264 1.853-1.7 1.565.181-.07.443-.201.776-.362a9.5 9.5 0 0 0-2.938 3.394c-.083.004-.161.043-.198.101-.47.921-.57 1.507-.57 1.939q-.179.722-.242 1.483a3 3 0 0 1-.265.283q.08.237.134.521c.05.25.078.528.095.827v11.626c-.047-.091-.096-.179-.14.264-.094.925.113 1.489-.124 2.694-.062.316-.421 2.147-.186 3.258.019.093.104.124.16.191a.2.2 0 0 1 .049.111c.099.667.037 1.338.274 2.016.057.16.125-.237.227.079a9.48 9.48 0 0 0 3.539 5.382q.097.094.202.182c.676.533 1.236.785 1.78.959a9.4 9.4 0 0 0 2.122.614c.227.098.331.16.902.223q.337.027.671.025c2.254-.004 4.428-.12 6.784-.074.616.012 1.092.182 1.956.19.345.003.762-.125 1.095-.231h26.422c.114.042.257.077.438.104 1.548.225 3.846-.06 4.645-.045 4.362.081 7.26.269 11.331.151.098-.004-.24-.188.232-.21h.6c1.19.013 2.632.065 3.687.073.228.001.438-.031.624-.073h5.52q.177.056.32.115c.86.362 1.258-.063 1.989.151.225.067.055.188.212.224 1.175.267 2.64-.075 3.219-.122 2.392-.195 5.641.031 7.364.046 1.72.015.516.206.576.228.979.307 1.19-.114 1.32-.125 3.663-.301 6.79.007 10.628-.148.354-.016 1.068-.422 2.122-.125.067.02-.288.195.257.214 1.586.058 3.358.034 4.998.051.969-.418 3.355-.556 3.303.05 2.528.037 6.477.268 8.697.232 2.832-.046 3.147-.424 5.767-.345.403.012.032.209.148.217 2.674.162 1.636-.244 2.295-.606.202-.11 1.304.051 1.606.001q.165-.027.29-.058h5.029q.438.212.188.532c.969-.21 1.11-.408 1.494-.532h2.686c-.02.064-.04.137.277.148 4.099.132 8.364.141 12.469.291.516.019.08.214.214.221 2.346.13 1.254-.239 1.919-.591q.063-.032.219-.069h4.912c.146.213-.644.854 1.374.725 2.147-.138.881-.438 4.34-.337 1.914.056 2.977.028 6.262.06 3.294.034 10.94.351 15.036.103.939-.057.271-.368.335-.551h.835c.103.084-.252.223.06.329.48.165 1.248-.127 1.953.12.192.068.935.397 1.999.142.061-.018-.322-.185.393-.208 1.468-.047 2.335.029 2.156-.383h.11c1.269.205-.247.737 1.81.65.092-.005-.316-.217.301-.226 7.877-.113 15.339.228 23.43.203.164 0 1.977-.098 2.439-.176.072-.014-.438-.216.504-.221.948-.006 3.438-.012 4.412.045.978.056.014.212.534.249 1.172.082.106-.184 1.037-.224 1.262-.054 3.377-.018 4.551.036.784.036.345.198.499.239 1.097.287 2.793-.104 3.137-.134 2.097-.186 3.207.017 5.051-.035.464-.014.039-.163.561-.146 1.932.064 3.577.714 5.688.385.893-.14-.629-.839 2.087-.574.408.04-.164.16.295.231.462.072 2.338.277 2.862.18.262-.05.303-.296.442-.482h1.387c.716.272.245.377 2.49.596.064.009-.581.197.366.234.952.038 4.343.028 5.11.039 1.922.028 1.551-.557 1.795-.594 1.92-.292 2.368.209 3.626.36.549.065 1.106-.009 1.667.05.18.019-.101.208-.034.21 2.153-.001 1.893-1.031 3.49-.833.191.025-.404.336.171.466.163.036 1.946.515 2.533.416 2.331-.398 1.655-.723 5.179-.606.292.01.03.219.177.224q3.42.132 6.846.192c5.449.229 10.458-4.724 10.316-10.23 0-4.335.002-8.677.068-13.026-.423-1.558-.245-3.603-.242-5.834a8 8 0 0 0-.125-1.432c-.075-.38-.585-1.003-.694-2.176-.009-.075.448.628.045-.448-1.406-3.612-5.255-6.359-9.368-6.33a634 634 0 0 0-10.135.004c-1.041.009-.208.229-.577.237-3.098.062-5.147-.38-8.354-.252-.253.009-1.11.432-2.095.134-.062-.02.13-.192-.213-.209-1.637-.083-2.017.299-3.724.206-.387-.022.357-.225-.452-.249a298 298 0 0 0-11.218-.092c-.716.007.163.245-.581.244-3.212-.006-5.731.085-9.179-.146-.452-.031-2.53-.458-3.778-.2-.148.032-.006.209-.529.231-2.576.102-5.422.037-8.026.109-.618.017-.083.215-.495.237-1.828.096-.384-.13-1.871-.247-2.308-.181-5.442-.217-8.023-.253-2.263.902-8.293.493-12.103.323-.621-.029.18-.236-.442-.252-6.211-.159-12.406-.185-18.644-.157-.586.002-.025.238-.505.24-4.554.018-8.529-.09-13.217-.104-3.936-.011-8.359.069-12.494.07-5.449 0-10.427-.241-16.231-.063-.318.011-2.792.433-3.843.128-.127-.036.179-.194-.542-.241s-2.859-.063-3.668-.029c-.807.034-.139.234-.644.244-2.373.044-5.004-.053-7.215-.058-1.618-.002-1.901 0-3.611-.031-.888-.016-3.061.019-4.206-.028-.504-.02-.04-.216-.166-.23-1.854-.205-.01.161-1.85.191-4.328.072-9.329.055-13.826-.14-1.133-.05-.558-.422-2.292-.19-.111.016.235.2-.346.21-4.982.084-10.846-.107-15.669-.138-14.628-.096-28.833-.175-43.284-.395-2.934-.045-5.674.009-8.57-.084-.529-.017.098-.227-.406-.248-1.52-.061-2.955.004-4.494-.048-.786-.026-.21-.159-1.35-.188m254.691 40.544c-1.025-.408 3.652-.367 2.446.021-.075.02-2.381 0-2.446-.021m-105.125-.358-.009.005c-.017.007-.546.001-.845-.005zm131.651-40.09c1.503-6.935.21-14.661-1.462-13.237v1.066c.311.736.745-.474.347 2.202q-.174.143-.347.291v33.072c.393-.565.812-.907 1.041-2.778.494-4.053-1.441-13.323.752-16.055-.29 2.123-.447 4.827-.685 7.183.427.957.85 1.89 1.274 2.835-.551-5.386.099-10.953-.92-14.579M11.945 553.236l.055.008v-.576zm323.216-11.981c-2.168 3.379-.773 10.188-.018 8.997-.037-2.251-.362-3.754-.246-6.264h-.003c.014-.274 1.183-3.004.267-2.733M10.402 514.77c-.223 1.165-.474 2.368-.678 3.519-.163 1.939.47.95.457 1.153-.332 4.906-.623 5.598-.146 11.618.166.738.341 1.463.513 2.201 1.457-2.467.92-4.335 1.452-8.829v-1.375q-.715 1.344-1.434 2.69l.357-9.811zm320.363 3.74c.118.128.253.345.408.66l.089-2.594q-.25-.043-.497-.082zm0-9.985c.103-.899.219-2.07.355-3.574l-.355-.023zm0-38.273c.07 1.564.083 2.968.007 3.933l-.007-.006v23.051c.38-2.158.677-4.528.655-9.238 1.716 7.12-1.325 11.015 2.117 10.99l-.682 5.375c.5.272 1 .542 1.499.801-.263-9.594-3.547-25.529-1.37-31.953-.265-.776-.496-1.556-.782-2.345 1.314-6.293-1.635-9.011.063-15.394.18-.657 2.95.718 2.851-7.589-.36.207-.967.315-1.421.483.221-1.799.452-3.588.678-5.374-.333-.324-.665-.664-1-.988-.129 3.069-.261 6.129-.39 9.198l-.343-7.665c-.543 3.326-.549 4.826-1.42 2.821l-.161-8.666-.294-.391zM12 468.813c-1.188 3.912-1.867 4.93-3.526 1.959.17 3.974-.072 6.447.85 6.809-.4.829-.801 1.662-1.201 2.478.01 1.293.047 2.458.04 3.829 1.39-1.888.534 1.772 1.164 4.374s1.728-.889 1.743 6.258c.326-2.382.605-4.561.913-6.865l.017.213v-9.546c-.662 1.319-1.344 2.555-2.138 1.654.304-4.192 1.282-3.802 2.138-4.387zm0-27.764c-1.43 5.215-1.779 13.936-1.123 24.872.83-1.54.402-6.193.676-8.873.117-1.15.275-1.272.447-1.301zm322.873-23.185c-.285-.07.191-4.746-.43-3.285-1.065 2.525-.453 11.959-1.752 11.985.425-3.315.07-9.787-.797-7.872-.951 2.097.643 8.197-.146 12.081 2.076-5.566 1.435 5.93-.159 7.238 1.224 6.745 1.724.545 1.667-6.369 1.222 4.22.561-1.991 1.577-3.015.613 4.353.102 19.288 1.739 12.336.581-2.473-2.181-7.095-.142-14.047-.609-1.656-1.19-2.695-1.786-4.119.649-.828 1.305-1.77 1.949-2.559v-.014c-.219-6.305-1.032-2.219-1.72-2.36M12 405.855a32 32 0 0 1-.408 3.559c-.947 5.267-1.856-1.213-.652 11.06.427-3.824.776-6.493 1.06-8.223zm319.099-9.572c-.186-.565-.249.487-.334 1.375v19.253c.379-.106.708-.25 1.076-.351-1.287-8.209-.903-10.906.026-19.464-.867 5.541-.303.598-.768-.813m-319.1-18.539c-.725 1.359-1.596 1.908-1.975 1.533.522 2.964.566 7.298 1.38 7.907l.059 4.532c-1.984-1.577-1.621 4.739.085 5.154l.129-7.81q.165.153.323.231zm319.364 4.139c-.036-.165-.331.858-.598.777v8.105c.706-.288 1.168-6.073.598-8.882M12 366.325c-.498 1.942-.843 4.106-.57 5.852.18-.027.37-.088.57-.158zm318.765 4.686c.219-1.202.487-2.363.78-3.562-.257-.098-.524-.432-.78-.963zm0-27.944c.683.465 1.394 1.163 1.729-2.513-1.992-2.123-2.184-8.181-.92-15.896-.01-.855-.013-1.712-.025-2.567-.233-.114-.564-.138-.784-.262zm4.771-19.058c-1.89-3.598-.952 2.304-1.679 3.781-.181-1.23-.357-2.488-.539-3.705-.534 7.354-.084 8.428 1.297 5.747.093-.192-.174-3.129.029-3.415.204-.284 1.498 2.136.892-2.408M9.881 323.48c.444-3.198.887-6.407 1.332-9.605l.787 3.653v-6.076q-.915-.54-1.83-1.075c-.097 4.363-.192 8.728-.29 13.103m323.367-55.64c-2.679-6.602 1.84-12.22-1.825-9.942-.143 3.164-.342 5.531-.658 7.532v14.994c.108.116.202.336.283.628a18 18 0 0 0-.283-.478v8.498c.463 1.071.734 4.373.965 4.876 1.021 2.213 1.364-4.365.964 3.622h.003c-.263 5.282-.333 6.449-.413 11.343-.731-.982-1.201-4.498-1.519-5.053v7.57c.106.275.178.726.141 1.484-.009.185-.063.481-.141.881v3.351c.601-5.332 2.643-6.549 2.878-7.26 1.289-3.91-.494-6.955-.509-8.107-.062-4.855.729-6.267.389-10.888-.367-4.97-.974-1.572-1.518-3.084-.432-1.213-.51-5.135-.957-6.755.366.643.725 1.36 1.092 2.001.5-5.152.986-9.362 1.108-15.213M12 284.694c-.298 1.78-.644 3.498-.652 5.744.215-.438.435-.874.652-1.31zm323.576-6.609c-2.784-1.009-1.532 8.27-.668 7.935.034-1.281-.437-2.277-.228-3.636.208-1.372.859-1.723.896-4.299M10.713 252.414c.36 1.787.717 3.589 1.075 5.389-1.24.272-1.59 0-1.371 7.037-.293-3.054-.59-6.095-.886-9.162-.25-.104-.512-.53-.755-.428.477 3.757.683 14.333 1.013 16.897s.42-2.386.741-1.649c2.642 6.149.693 5.662 1.147 10.074.109 1.055.22.652.323-.101v-35.3q-.646 3.622-1.287 7.243m323.795-9.392c-3.981-9.385-1.541 11.752-.185 7.727.062-.186-.255-6.847.185-7.727M12 224.483q-.093.71-.238 1.492c-.256 1.372-.903-1.798-1.23.118-.149.869.34 2.978-.037 5.099-.186 1.036-1.388 5.878-.817 9.231.831-1.354 1.595-.033 2.322.518v-6.369q-.257-.187-.514-.372l-.156-6.085v-.015q.336.292.67.583zm318.765 10.157c.187 1.478.307 3.226.248 5.975.849-1.632.674-5.474 1.692-2.989-.248-7.235-1.14-4.999-1.94-7.706zM7.258 189.491c-.176 3.505.698 2.004.865 3.415.626 5.333 0 8.972.393 14.241l-.49-1.008v.014c-.738 24.948 1.246 11.844.923-3.084.325-.35.652-.686.975-1.035-.569-6.681-1.117-12.841-2.666-12.543m323.507 18.388q.678 2.637 1.354 5.275l.587-4.581c-1.499-10.816.944-28.905-1.941-28.879zM12 202.66v-9.202q-.488-.137-.977-.276zm318.765-30.57c.116-.43.242-.894.376-1.43-.131-.145-.253-.288-.376-.43zM12 152.94c-.536.664-.919 1.744-.274 4.943-.789-.142-1.5-.257-2.256-.399.144 1.306.335 2.174.449 3.753 1.538-4.656 1.473-.845 1.475 1.111.004 2.018.329.673.606-.267zm319.331-1.951c.218.825.437 1.672.654 2.498-.465-5.861 1.205-5.959.273-11.688-.308 3.068-.619 6.135-.927 9.19m-321.6-19.324c-.292-.403-.491 5.81-1.342 1.491-.067 1.889-.053 3.52-.09 5.305-.363.13-.726.258-1.088.401l.395-6.611c-1.093 2.712-1.489 9.674-.3 13.076l.417-5.362c.137 3.378.287 6.718.417 10.122 1.522.181.638-3.742 1.058-9.645.068-.915 1.958-6.759.533-8.777m1.578 4.402c-.749 6.852-.012 9.181.69 10.493v-4.156c-.191-2.317-.276-5.221-.69-6.337m319.456-18.432v7.264c1.016-1.391 1.976-3.156 1.654-7.697zm0-5.074c.209-.087.418-.168.627-.258-.074.88-.148 1.749-.225 2.629.407-.764.812-1.513 1.22-2.264q-.812-3.531-1.622-7.077zM9.414 101.755c.28 7.005.805 9.49 2.049 5.541l-.857-7.43c-.397.634-.795 1.268-1.192 1.889m321.375-7.191a.1.1 0 0 0-.024.017v2.012c.038.562.062 1.088 0 1.347v4.596c.169.21.349.45.545.694-.094-1.255-.186-2.525-.28-3.78 1.105.828 1.764-1.296 1.675 6.044.315-.505.616-1.021.943-1.512-.049-1.204.217-1.985.095-3.305-.333-3.599-2.273-6.359-2.954-6.113M8.366 99.465c-.472-3.755-.112-11.355-1.416-9.438v-.014c-.078.138-.547 6.942-.111 7.823.491.725 1.018 1.086 1.527 1.63M11.17 54.28c.943 11.418-.39 24.79.675 35.898.033.346.087.649.156.926V55.52c-.145-.844-.375-1.346-.831-1.241M331.71 21.567c-.206 1.32-.392 2.655-.586 3.988-.135-.75-.256-1.38-.359-1.901V83.53c.611-1.177 1.221-.827 2.041 5.066.094-3.909.189-7.805.289-11.701q.322 1.204.645 2.407c-.114 1.76-.226 3.511-.338 5.272.395-2.071.787-4.146 1.182-6.217-.489-4.894-1.242-6.812-2.171-9.052-.678 5.695.249 3.835.433 8.272-.589-.154-1.13.05-1.748-.337 1.218-2.294.332-9.774.272-11.51-.181-5.278 1.017-1.139 1.042-4.67.025-3.535-.688-7.704.499-10.59-.665.051-1.354.282-1.96.49-.218-5.502.568-4.406.67-4.975 1.674-9.09.26-14.021.089-24.418m-.945-2.363c.224-.277.456-.56.709-.845a15.4 15.4 0 0 1-.709-3.296zm-5.198-10.372h5.198v3.819c.11-1.131.343-1.983.426-2.62q.087-.666.121-1.199l-.006-.555-.541.008c-3.023-.204-3.158.649-5.439-.526.089.387.159.72.241 1.073M55.201 7.466c-3.521.563-5.702 1.04-8.07 1.366h7.954c1.57-.13 3.094-.185 5.517 0h.477c-1.962-.454-3.956-.911-5.878-1.366m41.528 1.366h2.762c.1-.198.276-.383.543-.548zm40.322-.13c-6.042-2.518-5.922-1.338-4.502.13h15.397c-2.686-.463-3.905-.968-1.284-1.425-3.56.402-6.349.867-9.611 1.295m32.212.13c-3.328-.647-6.594-1.101-10.886-.173 1.41.072 2.411.129 3.124.173zm36.273-3.657c-7.147 1.15-10.841 3.026-21.431 2.405l5.18 1.252h5.194q.495-.306.983-.611c4.88.201 9.775.4 14.655.602.803-.574 1.591-1.146 2.394-1.72l3.871.222c-.324.414-.65.827-.987 1.242l7.679-.308c-.5.236-1.037.424-1.6.573h20.707a33 33 0 0 1-.692-.03c-5.114-.288-8.909-2.396-17.621-1.582-.441.043-3.021 1.656-6.141.54-.709-.254 2.278-.63.649-.962-1.632-.333-8.911-.606-9.481-1.398.078.28.532.57.752.856-1.242.134-2.497.269-3.753.4-.116-.494-.241-.99-.358-1.48m58.197 2.766c-6.836.695-11.797-.239-18.698-.018-.939.031.699.789-1.449.91h28.94q-.016-.044-.03-.092c-3.12-.013-6.073-.109-9.128-.154 2.977-.149 5.956-.293 8.921-.442-2.537-.64-5.059-1.28-7.597-1.921-.323.571-.648 1.153-.959 1.717m36.589-1.486c-3.689.817-6.849-.019-9.956.172-3.094.192-1.917 1.069-5.555 1.407-.673.061-2.075-.487-3.732-.082-.516.125-1.461.5-2.542.88h22.896c-.347-.785-.674-1.564-1.111-2.377M41.436 7.623c-3.611-.283-8.816-.097-12.778-.157.311 1.016 10.381.735 13.917 1.35.568-.182.388-1.073-1.139-1.193m265.682.04c1.294-.01 2.576-.02 3.87-.033-.142-.201-.312-.411-.475-.618l-.353-.49c.75.584 6.917 1.555 9.515.931 1.306-.313-1.666-1.425 3.871-1.619-4.013.057-7.73.21-11.626.304.349-.33.685-.665 1.035-.995l-.007-.001-3.898-.228c-.648.917-1.285 1.832-1.932 2.748"/></svg>