<svg xmlns="http://www.w3.org/2000/svg" width="620" height="693" fill="none" viewBox="0 0 620 693"><path fill="#fff" d="M79.91.63c141.826-1.675 280.531.564 421.467.182 1.448-.006.817-.47 1.433-.49 3.836-.116 7.604.606 9.022.636 3.03.062 1.362-.606 3.575-.606 22.874.007 44.46.4 67.353.286 1.49-.007-.031.526 2.587.432 1.351-.052 5.583-.87 8.633-.883 5.632-.022 10.787.04 16.055.102l8.462-.08.081 8.623c-.056 4.7-.11 9.49-.104 14.787.007 6.145-.063 15.366-.05 22.238.005 3.035.38 6.197.392 9.195.018 4.253-.742 3.387-.79 4.04-.206 2.873.628 3.271.609 5.998-.04 5.073-.597 5.347-.55 11.783.035 4.6.474 15.129.603 20.93-.645 13.563-.389 30.657-.175 43.312.126 7.49-.653 8.185-.651 11.24.015 10.763 1.011 18.931 1.043 29.04.042 13.415-.616 25.305-.663 38.303-.007 2.107.706 1.624.725 3.691.067 7.655.197 17.444.095 24.263-.112 7.599-1.148 10.403-.937 17.839.063 2.179.971 2.819 1.088 6.472.183 5.836-.618 12.235-.707 16.308-.119 5.582.807.728.682 8.255-.005.309-.667 1.436-.635 3.052.089 4.71.61 4.243.56 11.133-.007.661-.637 9.795-.639 10.707-.01 5.346-.231 16.109-.097 19.274.477 11.309 1.472 2.406-.689 12.024.529 4.235 1.065 8.436 1.579 12.926-.479-2.995-1.171 9.162-1.126 10.019.36 7.069 1.201 2.859 1.062 11.822-1.942-11.837-.251 11.563-.201 16.782.241 25.128-.244 47.969-.232 73.224.006 8.454.417 19.785.407 28.729-.001 2.085-.461.511-.471 2.346-.007 1.829.51-.2.482 1.888-.179 13.001-1.152 23.187.065 35.096-.176.58-.316.562-.509 1.522 1.09 9.746-.376 28.515-.577 35.57-.313 11.034.424 13.854.275 21.87-.198 10.6-1.638 26.515.739 19.408.074 7.272.095 14.273-.126 21.618-.026.816-.629.254-.642.581-.087 2.072.455 2.747.479 4.147.067 3.795-.581-2.398-.4 3.014.097 2.854.569 4.475.579 12.402.006 5.008.008 10.062.009 15.152l.085 8.959-9.13.086c-43.476.009-89.644-.134-133.495-.205-3.363-.005-1.15.579-5.368.542-14.656-.129-40.889-1.112-53.526-.978-12.635.134-9.785.988-17.693 1.345-1.526.07-.275-.417-1.656-.424-9.291-.045-20.369-.804-27.897-.918-4.977-.077-4.58.689-8.033.744-5.145.079-10.442-.695-13.187-.72-12.908-.109-21.782.514-33.836.196.471.169.783.326 1.182.492l-42.799-.082c.673.153 1.324.309 1.997.465-16.745-.084-14.836-1.753-13.363 1.771-1.217.124-2.509.267-3.673.382.472-1.816-9.657-3.144-22.546-3.606-.947-.034-7.29 1.735-6.599-.356-1.655.511-2.641.865-4.041 1.314-2.727-.633-5.49-1.259-8.217-1.889-1.472.094-2.965.185-4.437.279-.219.41-.051.836-.524 1.238-6.836.062-20.857-.444-26.259-.392-13.418.131-27.08 1.239-37.517.042-5.083.122-.036.926-7.597.825-.854-.407-1.658-.798-2.549-1.218-6.179 1.819-7.471.713-15.939.333-5.727-.258-9.478.186-14.932.1-1.381-.023-1.186-.557-2.132-.539-3.167.055-12.202.789-14.437.809-20.254.194-37.655.111-56.945-.085-2.073-.02.614.508-1.532.485-3.45-.035-1.42-.844-3.42-.884-5.577-.107-5.62.747-13.401.792q-1.82.01-3.664.015l-8.833.084-.085-9.002c-.071-24.738.514-52.677.568-78.173 0-.837-.5-.787-.506-1.696-.024-5.926.652-11.925.645-17.305-.01-8.928-.712-15.639-.71-24.457.002-17.238.362-32.639.382-50.367.017-14.509-.05-27.111-.047-43.021.01-69.496-1.578-140.412-.733-210.381.022-1.78.464-1.056.445-1.599-.191-5.163-.788-5.624.46-7.461-.245-6.577-1.183-8.654-1.116-16.597.035-4.234 1.489-1.074.739-8.237-.678-6.467-1.475.669-.66-18.565.022-.51.908-3.017.677-7.016-.228-4.017-.863.633-1.054-9.04-.447-22.709.32-51.455.084-77.855-.015-1.656-.49-17.591-.708-20.736C1.123 82.239.464 83.51.303 75.603c-.124-6.11.622-11.15.473-18.332-.018-.837-.786-2.239-.684-7.636.102-5.382-.444-17.714.336-24.514.192-1.673 2.68-7.242 3.01-7.22 1.105.164 1.255 6.971 1.975-.319.007 2.453.05 4.833.07 7.267.742-.436 1.483-.87 2.223-1.288l-.339-8.896.738-.435c.005 10.654.955 4.366 1.84 9.892.446-5.09.891-10.218 1.338-15.29-.054 2.927-.095 6.381-.16 8.963.482.133.735-.69.877-1.813v-7.15h26.27c-3.946-.326-8.933-.757-9.203-.822-1.998-.477 1.036-1.17.146-1.411-2.474-.676-17.497-2.372-17.21-2.628C15.678.831 66.236.791 79.91.629m515.404 682.018q-4.607-.084-9.243-.167c-.091.414-.18.833-.271 1.248 13.616-.539 10.477.657 17.217 1.837-1.308-1.478-2.595-2.956-3.904-4.436-1.272.507-2.544 1.011-3.799 1.518m-196.039-.681c-6.378.092-7.834.461-6.744 1.287-1.454.1-2.926.196-4.38.293-.672-.161-1.363-.32-2.035-.481-.763.34-1.531.677-2.276 1.017-1.544-.067-3.108-.133-4.652-.203-.181.171-.491.32-.6.508 6.547-.079 16.776.62 21.259-.411 2.61-.601-7.641-1.066-.572-2.01m-245.524 1.717c.527.213 1.053.428 1.599.642 6.2-.649 8.275-.986 5.348-2.034l-.019-.002zm262.384-.65c.199.411.373.822.572 1.236 8.992.084 10.104-.525 11.976-1.6zm45.737-2.202c-1.071.139-2.018.282-2.356.488-1.58.958 3.421 1.632-.96 2.573 15.23-.483 29.933-1.257 29.121-3.061zM12 654.819c-1.188 5.494-1.867 6.923-3.525 2.751.168 5.581-.073 9.053.848 9.563-.4 1.164-.8 2.334-1.2 3.479.01 1.816.047 3.452.04 5.378 1.23-2.349.701 1.413 1.001 4.842l.026 2.864 2.81-.028c.443-.038.882-.091 1.3-.163 3.654-.631-1.248-1.728 8.789-1.743-3.346-.325-6.405-.605-9.642-.913l.301-.017H12v-12.66c-.663 1.854-1.343 3.59-2.138 2.323.304-5.887 1.282-5.338 2.138-6.16zm494.035 26.304-13.401.214c-.091.415-.188.828-.261 1.242 4.782-.124 9.587-.252 14.369-.377-3.491.279-7.003.557-10.494.835l16.638.597c-5.295-1.371.342-1.66.489-2.802h-8.018q.338.146.678.291m-234.916-.291a.45.45 0 0 1 .06.492c-.328.695-9.927 1.409-4.855 2.152 4.122.146 1.333-.685 3.014-.729 12.146-.303 11.441.862 16.404.551.781-.499 1.604-1.008 2.403-1.512l5.639.44c.436-.335.892-.671 1.328-1.006-1.763-.022-3.75-.045-5.368-.067.197-.113.534-.219.98-.321H280.19c-2.932.161-5.507.382-6.579 1.088-.465-.419.46-.781 1.508-1.088zm340.612 0 .016 1.68-1.712.017-1.145.009q.569.333 1.145.664l2.393-.022-.023-2.348c.267-.462.535-.926.803-1.383l-1.561-8.353q.043 4.858.084 9.736m-465.545 0c-3.49.707-2.207 1.477.423 2.345 1.145-.134 2.267-.269 3.411-.403-.33-.648-.658-1.294-.998-1.942zm-80.243 1.434-13.778-.356-1.638.52c1.636.223 3.325.474 4.943.678 2.72.163 1.335-.469 1.618-.457 6.89.333 7.862.623 16.316.146 1.036-.166 2.056-.341 3.092-.512-3.466-1.458-6.09-.92-12.407-1.453h-1.923zm450.377-1.434c8.451 1.166 16.054 2.38 29.626 1.434 3.017-.211 1.379-1.266 9.942.018-.695-.563.05-1.025 1.295-1.452h-2.996a18 18 0 0 1-1.148.137c-6.382.576-15.689-.479-15.31 1.212-2.544-.079-4.912-.126-7.383-.193.931-.384 1.845-.771 2.759-1.156h-.956c-4.323.357-7.607.354-10.268 0zm-216.509 0c-1.615.196-2.361.521-.377 1.338 5.545-.221 11.837-.447 17.673-.668.182.33.352.662.534.992 6.007-.163 3.254-.973 1.625-1.662zm100.741 0c3.044.267 5.167.819 5.932.872 8.233.574 11.925.048 18.633.765-.343-.56-.54-1.092-.806-1.637h-.746c-5.695.787-8.892.743-17.177.559l8.671-.36-.193-.199zM611.21 646.03c-.103-.345-.66 1.138-1.174.923v25.986l.387.58c-.022 3.129-.168 5.375-.387 6.908v.405h-9.164c7.222.338 5.35 1.241 9.163 1.265l1.277-.012-.011-1.253c.011-1.741-.162-4.669-.657-10.191.408-.491.823-1.018 1.228-1.473.024-6.45-.896-5.928-1.069-11.472-.108-3.473 1.507-7.831.407-11.666m-224.921 34.802c.73.255 1.392.584 1.969 1.006 4.96.085 3.387-.714 4.854-.893q.543-.066 1.071-.113zm-43.18 0c.286.295.548.595.751.91 9.108-.797 13.253.483 23.944-.443 1.33-.115 2.758-.288 4.226-.467h-11.579c-1.93.222-4.155.287-5.631 0zm-9.483 0c-.051.31.375.551 3.48.467-.093-.151-.252-.309-.402-.467zm-7.556.328a.7.7 0 0 1 .154-.328h-.955q.392.167.801.328m-221.523-.273.012-.055h-.808zm-28.808-67.946c-6.596-.096-15.275-.166-21.896-.101-2.85.029-2.223.272-3.65.377-1.429.103-2.376-.076-3.237.012-.86.088-.101.302-.523.371-.607.099-3.069.196-3.21.216-2.006.292 1.379.163 1.493.284.362.405-.17.818-.372 1.215h-1.755c-.577 0-1.142.054-1.69.153 1.008-.325 1.954-.419 1.621-.453-3.755-.13-5.98 1.769-8.053 4.534-.536.814-.27.142.13-.547.397-.686.953-1.349.41-.768-1.446 1.667-1.798 3.04-1.932 3.658-.111.64.002.616.251.121.143-.282.37-.748.71-1.306a9.44 9.44 0 0 0-.924 4.084v3.962a.54.54 0 0 0-.129.32c-.075 1.671.02 2.731.13 3.499v2.822a8 8 0 0 1-.243.584c.143.633.211 1.442.242 2.366v10.888a9.47 9.47 0 0 0 5.037 8.372c-.173-.039-.37-.093.354.336 1.346.686 2.359.805 4.086.965q.342.024.728.067c.57.063 3.893.421 5.91.187.237-.027.25-.187.54-.209 1.193-.092 2.355.043 3.61-.04.3-.02-.346-.17.205-.202H65.5q.258.018.514.029c1.511.061 2.604.02 3.617-.029h4.153c.382.052.615.108 1.58.113 4.52.022 8.813-.124 13.503-.073 1.12.012 1.98.182 3.547.19.626.003 1.381-.124 1.985-.23h47.918c.206.042.463.078.79.104 2.807.226 6.974-.06 8.424-.045 7.91.081 13.166.268 20.549.15.177-.003-.42-.183.387-.209h1.207c2.141.014 4.711.064 6.6.072.414.001.797-.03 1.134-.072h10.009q.32.056.58.116c1.557.361 2.282-.064 3.606.15.41.067.1.187.383.224 2.131.267 4.787-.074 5.837-.121 4.339-.196 10.23.03 13.356.044 3.114.015.944.206 1.045.228 1.774.307 2.157-.112 2.393-.124 6.642-.301 12.314.007 19.274-.148.642-.017 1.935-.423 3.848-.125.125.018-.524.195.465.214 2.875.058 6.089.034 9.063.051 1.757-.418 6.086-.556 5.991.05 4.584.038 11.745.268 15.771.232 5.136-.046 5.706-.425 10.457-.346.734.012.06.21.27.218 4.848.162 2.966-.244 4.16-.606.362-.111 2.363.051 2.912.001q.3-.028.526-.058h9.121c.532.141.642.318.341.531 1.755-.21 2.013-.407 2.705-.531h4.876c-.037.064-.072.136.5.147 7.435.132 15.17.142 22.614.292.936.019.144.214.387.222 4.256.129 2.275-.24 3.48-.592.073-.022.211-.044.398-.069h8.907c.267.212-1.169.853 2.491.724 3.894-.138 1.596-.438 7.869-.337 3.473.056 5.399.028 11.358.061 5.972.033 19.837.351 27.265.102 1.701-.057.495-.366.605-.55h1.518c.191.085-.457.223.107.329.871.166 2.264-.127 3.543.121.347.067 1.693.396 3.624.141.119-.017-.589-.185.712-.208 2.664-.047 4.24.029 3.915-.383h.2c2.299.205-.451.736 3.278.649.169-.004-.575-.217.545-.226 14.286-.113 27.817.229 42.49.204.293 0 3.581-.097 4.421-.175.138-.014-.799-.217.915-.222 1.718-.006 6.234-.013 8.001.044 1.775.056.025.213.969.25 2.126.083.191-.184 1.88-.224 2.288-.054 6.124-.019 8.252.035 1.424.037.626.199.906.241 1.99.286 5.065-.105 5.688-.135 3.804-.186 5.815.016 9.158-.036.845-.014.073-.162 1.02-.145 3.504.064 6.485.713 10.312.384 1.623-.139-1.139-.838 3.787-.573.742.04-.299.16.536.231.836.072 4.237.277 5.187.18.477-.049.552-.296.804-.482h2.52c1.292.271.445.378 4.51.596.122.008-1.058.197.662.234 1.725.038 7.877.028 9.268.039 3.485.028 2.814-.556 3.254-.594 3.483-.292 4.296.209 6.576.36.996.065 2.006-.01 3.024.049.327.019-.183.208-.063.211 3.905 0 3.434-1.031 6.328-.834.35.025-.732.337.312.467.287.035 3.527.516 4.592.416 4.229-.398 3.003-.724 9.394-.607.529.01.055.219.319.225 4.135.09 8.273.15 12.414.191 5.446.187 10.436-4.727 10.311-10.229.015-8.134-.003-16.28.016-24.441.062-4.122-2.621-8.116-6.478-9.646-1.158-.289-2.452-.503-3.849-.473-2.791.063-6.032-.077-9.425.001-.631.017-1.917.441-3.903.123-.113-.021 1.256-.185-.676-.212a2073 2073 0 0 0-38.352-.174c-1.888.008-.374.228-1.045.236-5.617.062-9.335-.38-15.149-.252-.461.01-2.014.432-3.8.134-.112-.02.237-.192-.388-.209-2.969-.083-3.656.3-6.752.206-.7-.022.649-.225-.82-.249a981 981 0 0 0-20.341-.092c-1.3.007.297.245-1.055.244-5.825-.006-10.392.085-16.645-.146-.823-.032-4.589-.458-6.851-.2-.268.032-.011.21-.96.231-4.671.102-9.832.037-14.554.109-1.121.018-.149.215-.897.237-3.315.096-.695-.13-3.394-.247-4.187-.181-9.869-.217-14.549-.252-4.104.901-15.037.492-21.947.322-1.127-.029.328-.236-.801-.252-11.264-.159-22.498-.185-33.81-.157-1.063.002-.043.238-.914.24-8.26.019-15.467-.09-23.97-.104-7.137-.011-15.157.069-22.658.07-9.88 0-18.907-.241-29.433-.063-.579.011-5.063.433-6.967.128-.231-.036.323-.194-.984-.241-1.308-.047-5.186-.063-6.652-.029-1.464.034-.249.234-1.167.244-4.303.044-9.074-.053-13.085-.058-2.933-.002-3.447 0-6.549-.031-1.61-.016-5.549.019-7.626-.027-.915-.021-.069-.217-.303-.231-3.36-.205-.014.161-3.353.191-7.849.072-16.918.055-25.073-.14-2.055-.05-1.01-.422-4.157-.19-.198.016.428.2-.626.21-9.034.084-19.667-.107-28.414-.138-26.527-.096-52.287-.175-78.494-.395-5.32-.044-10.289.009-15.54-.084-.958-.017.179-.227-.735-.248-2.758-.061-5.359.004-8.15-.048-1.425-.026-.38-.159-2.447-.188m495.838 46.125c-1.86-.408 6.625-.367 4.436.021-.145.02-4.336 0-4.436-.021m-190.64-.358-.012.004c-.038.007-.956.002-1.501-.004zM12 615.827c-1.43 7.324-1.779 19.572-1.123 34.931.83-2.164.403-8.697.676-12.461.117-1.614.275-1.786.447-1.827zm599.498-18.372c1.503-9.738.211-20.587-1.462-18.59v1.501c.312 1.027.745-.664.348 3.088q-.175.203-.348.409v46.445c.393-.792.812-1.273 1.04-3.899.494-5.692-1.44-18.711.753-22.548-.29 2.981-.447 6.778-.686 10.087.428 1.345.85 2.655 1.275 3.982-.551-7.564.098-15.384-.92-20.475m2.934 8.731c-2.168 4.745-.773 14.306-.018 12.636-.037-3.163-.363-5.273-.246-8.799h-.003c.013-.385 1.182-4.218.267-3.837M12 566.411a61 61 0 0 1-.408 4.989c-.947 7.398-1.856-1.704-.652 15.532.427-5.37.777-9.118 1.06-11.547zm598.036 7.832c.118.179.253.484.407.926l.09-3.642q-.248-.059-.497-.116zm0-14.027c.103-1.262.218-2.905.355-5.016q-.178-.015-.355-.031zm0-53.762c.071 2.203.083 4.181.008 5.54l-.008-.008v32.371c.38-3.031.678-6.36.655-12.975 1.716 10-1.325 15.472 2.117 15.436l-.681 7.548c.499.381.999.76 1.498 1.124-.263-13.473-3.546-35.852-1.369-44.872-.266-1.091-.497-2.187-.782-3.295 1.313-8.837-1.637-12.653.062-21.618.179-.923 2.95 1.01 2.851-10.658-.361.291-.967.442-1.421.678.221-2.526.452-5.04.677-7.548-.332-.454-.664-.931-1-1.386l-.389 12.916-.343-10.764c-.544 4.671-.55 6.779-1.421 3.963l-.159-12.17-.295-.549zM12 526.923c-.726 1.909-1.597 2.679-1.976 2.153.522 4.163.566 10.248 1.38 11.104l.059 6.366c-1.984-2.215-1.62 6.655.085 7.239l.129-10.969c.11.145.218.25.323.326zm0-16.033c-.498 2.728-.843 5.765-.57 8.216.179-.038.371-.12.57-.218zm602.143-77.992c-.284-.101.191-6.665-.429-4.612-1.065 3.545-.453 16.79-1.751 16.83.424-4.655.069-13.743-.797-11.056-.951 2.945.643 11.512-.147 16.967 2.077-7.817 1.435 8.327-.16 10.164 1.225 9.473 1.724.766 1.667-8.944 1.222 5.928.562-2.797 1.577-4.234.614 6.112.103 27.088 1.74 17.325.58-3.473-2.181-9.965-.143-19.728-.608-2.326-1.189-3.785-1.785-5.784.648-1.164 1.305-2.486 1.948-3.595v-.02c-.218-8.854-1.032-3.114-1.72-3.313M9.881 450.716c.444-4.49.887-8.998 1.332-13.488l.787 5.13v-8.534q-.915-.759-1.83-1.508c-.097 6.126-.192 12.256-.29 18.4m600.489-48.128c-.186-.791-.249.681-.334 1.927v27.049c.379-.148.708-.357 1.075-.498-1.286-11.528-.902-15.315.027-27.334-.867 7.782-.303.838-.768-1.144M12 396.253c-.298 2.498-.644 4.909-.652 8.06.215-.615.435-1.228.652-1.84zm598.634-13.886c-.037-.232-.331 1.203-.598 1.09v11.383c.707-.406 1.168-8.53.598-12.473M10.713 350.913c.36 2.51.717 5.041 1.075 7.568-1.24.381-1.59 0-1.371 9.884-.293-4.289-.59-8.561-.886-12.869-.25-.145-.512-.744-.755-.6.477 5.275.683 20.128 1.013 23.729s.42-3.35.741-2.315c2.642 8.635.693 7.951 1.147 14.146.109 1.478.22.922.323-.129v-49.585q-.646 5.086-1.287 10.171m599.323 16.178c.22-1.686.487-3.314.779-4.996-.256-.137-.523-.604-.779-1.349zM12 311.687q-.093.996-.238 2.096c-.256 1.927-.903-2.526-1.23.165-.149 1.22.34 4.182-.037 7.161-.186 1.455-1.388 8.255-.817 12.964.83-1.901 1.596-.046 2.322.727v-8.943l-.514-.524-.156-8.547.001-.018q.335.41.669.818zm598.036 16.168c.683.653 1.393 1.631 1.729-3.529-1.992-2.983-2.184-11.49-.92-22.326-.01-1.199-.012-2.404-.025-3.604-.233-.16-.563-.192-.784-.366zm4.771-26.765c-1.89-5.052-.952 3.234-1.678 5.31-.181-1.727-.358-3.494-.539-5.203-.534 10.328-.085 11.835 1.296 8.071.092-.27-.174-4.393.029-4.796.204-.399 1.497 2.999.892-3.382M7.257 262.544c-.175 4.923.7 2.816.866 4.797.626 7.491 0 12.6.393 19.999l-.49-1.415v.02c-.738 35.037 1.246 16.634.923-4.331.325-.491.652-.963.975-1.453-.569-9.382-1.117-18.034-2.666-17.617m605.262-40.337c-2.678-9.272 1.84-17.161-1.825-13.963-.143 4.443-.341 7.768-.658 10.578v21.057c.109.163.203.474.283.884a23 23 0 0 0-.283-.671v11.936c.463 1.508.735 6.14.966 6.844 1.021 3.108 1.364-6.13.964 5.087h.003c-.264 7.419-.334 9.057-.413 15.93-.731-1.379-1.201-6.317-1.52-7.097v10.634c.106.386.178 1.02.141 2.083-.009.258-.063.672-.141 1.23v4.713c.602-7.49 2.644-9.199 2.879-10.197 1.289-5.49-.494-9.766-.51-11.385-.062-6.817.73-8.8.39-15.29-.368-6.98-.976-2.208-1.52-4.332-.431-1.704-.508-7.21-.956-9.485.366.904.726 1.909 1.093 2.81.499-7.235.986-13.149 1.107-21.366m-600.52 58.832v-12.922q-.487-.193-.976-.388zm602.848-44.443c-2.784-1.417-1.533 11.614-.668 11.143.034-1.799-.437-3.198-.229-5.106.209-1.927.859-2.42.897-6.037M12 211.213c-.536.932-.919 2.45-.274 6.944-.789-.2-1.5-.363-2.256-.563.144 1.835.335 3.054.449 5.272 1.538-6.538 1.473-1.188 1.475 1.559.004 2.834.329.947.606-.372zM9.73 181.336c-.292-.565-.491 8.159-1.342 2.093-.067 2.653-.053 4.943-.09 7.451-.363.182-.726.363-1.088.563l.395-9.283c-1.093 3.808-1.489 13.584-.3 18.362l.418-7.529c.136 4.743.286 9.434.416 14.214 1.522.254.638-5.254 1.058-13.546.068-1.284 1.958-9.491.533-12.325m1.579 6.182c-.75 9.62-.013 12.893.69 14.735v-5.836c-.192-3.253-.277-7.331-.69-8.899m602.468-.164c-3.981-13.181-1.541 16.502-.184 10.852.062-.259-.255-9.614.184-10.852m-3.742-11.772c.188 2.076.308 4.53.248 8.39.849-2.291.673-7.686 1.691-4.195-.248-10.161-1.138-7.022-1.939-10.823zM9.414 139.331c.28 9.837.805 13.327 2.049 7.782l-.857-10.436c-.397.891-.795 1.782-1.192 2.654m600.622-1.326q.678 3.702 1.354 7.403l.587-6.434c-1.498-15.188.943-40.588-1.941-40.557zm-601.67-1.89c-.472-5.274-.112-15.946-1.416-13.255v-.02c-.078.183-.548 9.752-.111 10.988.491 1.018 1.018 1.524 1.527 2.287m2.803-63.457c.943 16.035-.39 34.815.675 50.415.033.485.087.91.156 1.299V74.394c-.145-1.18-.376-1.884-.831-1.736m598.867 15.08c.117-.605.242-1.256.377-2.01-.132-.201-.253-.401-.377-.6zm.565-29.634c.218 1.159.438 2.349.656 3.508-.465-8.232 1.205-8.369.272-16.414-.308 4.308-.62 8.616-.928 12.906m-.565-46.841v10.2c1.017-1.953 1.976-4.433 1.654-10.808q-.828.305-1.654.608M72.671 7.466c-4.946.563-8.008 1.04-11.334 1.366h11.182c2.201-.13 4.341-.185 7.738 0h.668c-2.756-.454-5.555-.911-8.254-1.366m58.322 1.366h3.878c.141-.197.388-.384.763-.548zm56.625-.13c-8.484-2.518-8.317-1.337-6.322.13h21.625c-3.774-.463-5.486-.968-1.805-1.425-5 .402-8.916.867-13.498 1.295m45.238.13c-4.672-.647-9.26-1.101-15.288-.173 1.981.072 3.387.129 4.388.173zm50.941-3.657c-10.037 1.15-15.224 3.026-30.096 2.405l7.274 1.252h7.295q.694-.306 1.38-.611c6.854.201 13.727.4 20.58.602 1.128-.574 2.236-1.146 3.363-1.72l5.436.222c-.454.414-.913.827-1.386 1.242l10.785-.308c-.702.236-1.457.424-2.248.573h29.08a65 65 0 0 1-.971-.03c-7.181-.288-12.512-2.396-24.747-1.582-.62.043-4.243 1.656-8.623.54-.996-.254 3.199-.63.91-.962-2.292-.333-12.513-.606-13.313-1.398.109.28.747.57 1.056.856-1.745.134-3.508.269-5.271.4-.164-.493-.341-.99-.504-1.48m81.731 2.766c-9.6.695-16.567-.239-26.259-.018-1.319.03.981.789-2.036.91h40.644q-.023-.044-.042-.092c-4.382-.013-8.529-.109-12.819-.154 4.181-.149 8.365-.293 12.528-.442-3.563-.64-7.105-1.28-10.668-1.921-.455.571-.911 1.153-1.348 1.717m51.384-1.486c-5.181.817-9.618-.019-13.981.172-4.345.192-2.692 1.069-7.8 1.407-.946.061-2.915-.487-5.242-.082-.725.125-2.05.5-3.567.88h32.151c-.488-.785-.948-1.565-1.561-2.377m35.454 2.377h12.666c-1.59-.11-2.788-.343-3.683-.426-5.926-.554-5.741.667-9.322-.647.125.387.223.72.339 1.073m20.678-.71a29 29 0 0 1-4.628.71h5.814a35 35 0 0 1-1.186-.71m84.261-3.109c-6.873.49-9.568 1.242-12.713 2.17 7.998.679 5.386-.248 11.618-.432-.218.589.07 1.13-.475 1.748-3.221-1.218-13.725-.332-16.162-.272-7.413.18-1.601-1.017-6.559-1.042-4.964-.025-10.82.688-14.874-.5.072.666.396 1.355.687 1.96-7.726.22-6.186-.567-6.985-.67-12.764-1.673-19.692-.26-34.292-.088 1.854.206 3.728.392 5.6.586-1.052.135-1.935.256-2.665.36h84.082c-1.651-.612-1.156-1.222 7.117-2.042-5.489-.094-10.961-.19-16.433-.289q1.691-.323 3.382-.645c2.472.114 4.93.226 7.402.338-2.908-.395-5.822-.787-8.73-1.182m35.987.936c-1.691.05-2.788-.217-4.642-.095-5.053.333-8.927 2.273-8.585 2.954q.009.014.026.024h2.832c.784-.037 1.517-.062 1.881 0h6.458c.295-.169.632-.35.974-.546-1.763.095-3.547.186-5.31.28 1.163-1.104-1.819-1.763 8.488-1.674-.709-.315-1.432-.616-2.122-.943m2.26 2.883h9.788c-.123-.209-.236-.418-.363-.628l3.693.226a599 599 0 0 1-3.179-1.22q-4.959.812-9.939 1.622M53.34 7.623c-5.072-.283-12.382-.097-17.946-.157.438 1.016 14.578.735 19.544 1.35.798-.181.546-1.073-1.598-1.193m373.117.04c1.818-.01 3.618-.02 5.435-.033-.2-.201-.439-.411-.668-.618l-.495-.49c1.054.584 9.714 1.555 13.363.931 1.834-.313-2.339-1.425 5.435-1.619-5.634.057-10.855.21-16.326.304.491-.33.962-.665 1.453-.995l-.01-.001-5.474-.228c-.909.917-1.804 1.832-2.713 2.748"/></svg>