<svg xmlns="http://www.w3.org/2000/svg" width="342" height="693" fill="none" viewBox="0 0 342 693"><path fill="#fff" d="M65.042.63C154.888-.73 243.13.487 332 .791l7.942-.096.098 8.136a9029 9029 0 0 0-.02 62.243c.006 1.13.469.638.49 1.12.116 2.996-.606 5.939-.636 7.047-.061 2.365.606 1.063.606 2.791-.007 17.867-.399 34.728-.285 52.609.008 1.164-.527-.024-.432 2.02.051 1.056.87 4.361.882 6.744.043 8.322-.219 15.313-.207 24.089.008 4.801-.062 12.003-.049 17.371.005 2.37.379 4.839.391 7.181.018 3.323-.741 2.646-.789 3.156-.206 2.244.628 2.555.609 4.685-.04 3.962-.597 4.176-.55 9.203.035 3.593.474 11.817.603 16.348-.645 10.595-.389 23.946-.176 33.831.127 5.85-.652 6.393-.65 8.779.015 8.406 1.011 14.786 1.043 22.682.042 10.478-.616 19.766-.663 29.918-.008 1.646.706 1.269.725 2.884.067 5.979.196 13.625.094 18.951-.112 5.935-1.147 8.125-.936 13.932.062 1.703.971 2.203 1.088 5.056.183 4.558-.618 9.557-.707 12.738-.12 4.36.805.569.681 6.448-.006.243-.666 1.122-.635 2.384.09 3.679.611 3.314.561 8.697-.007.519-.637 7.648-.64 8.362-.01 4.175-.23 12.581-.096 15.054.477 8.833 1.472 1.88-.689 9.392.529 3.308 1.064 6.589 1.578 10.096-.479-2.338-1.17 7.156-1.126 7.826.361 5.521 1.201 2.233 1.062 9.233-1.942-9.245-.25 9.032-.2 13.109.241 19.626-.244 37.467-.232 57.193.005 6.604.415 15.454.406 22.441-.001 1.628-.46.398-.47 1.832-.007 1.429.508-.156.481 1.475-.179 10.154-1.152 18.11.065 27.412-.176.453-.315.439-.508 1.189 1.09 7.612-.376 22.272-.577 27.783-.313 8.619.424 10.821.275 17.082-.199 8.28-1.638 20.711.738 15.159.075 5.68.095 11.149-.126 16.886-.025.637-.628.199-.641.454-.087 1.618.453 2.146.478 3.239.067 2.964-.58-1.873-.399 2.354.097 2.229.568 3.496.578 9.687.006 3.912.009 7.86.01 11.835l.108 8.935-9.153.11c-33.958.008-70.02-.134-104.271-.205-2.627-.005-.898.579-4.193.542-11.447-.129-31.937-1.112-41.808-.978-9.869.134-7.643.988-13.819 1.345-1.193.07-.216-.417-1.294-.425-7.257-.044-15.91-.803-21.79-.917-3.887-.077-3.577.689-6.273.744-4.019.079-8.156-.695-10.301-.72-10.082-.109-17.014.514-26.429.196.368.169.611.325.923.491l-33.429-.082c.526.154 1.034.31 1.559.466-13.08-.084-11.587-1.753-10.437 1.771-.95.124-1.96.267-2.868.382.367-1.816-7.544-3.144-17.611-3.606-.739-.035-5.694 1.735-5.154-.356-1.293.511-2.063.865-3.157 1.314-2.13-.633-4.288-1.259-6.418-1.89-1.15.095-2.316.185-3.465.28-.17.409-.04.836-.41 1.238-2.371.028-5.85-.057-9.355-.155l-8.375.1-.105-8.58c.123-4.384.268-8.809.239-11.154-.132-10.481-1.24-21.153-.043-29.305-.122-3.97-.926-.028-.824-5.933.407-.667.797-1.295 1.216-1.991-1.82-4.826-.712-5.835-.332-12.45.259-4.473-.186-7.403-.1-11.663.023-1.079.557-.926.54-1.665-.055-2.473-.79-9.529-.81-11.276-.195-15.82-.112-29.412.084-44.48.02-1.618-.507.48-.484-1.196.035-2.695.845-1.11.885-2.671.106-4.356-.749-4.391-.793-10.468-.147-20.01.495-43.017.552-63.922 0-.652-.5-.614-.506-1.324-.024-4.628.652-9.315.645-13.517-.01-6.973-.712-12.215-.71-19.103.002-13.463.362-25.493.382-39.34.017-11.333-.05-21.176-.047-33.603.01-54.282-1.578-109.673-.733-164.324.022-1.391.464-.825.445-1.249-.191-4.033-.788-4.393.46-5.828-.245-5.138-1.183-6.76-1.116-12.964.035-3.307 1.489-.839.739-6.433-.678-5.052-1.475.522-.66-14.501.023-.398.908-2.356.677-5.48-.228-3.138-.863.495-1.054-7.061-.447-17.738.32-40.191.084-60.812-.015-1.294-.49-13.739-.708-16.196C1.123 66.17.464 67.161.303 60.986c-.124-4.772.622-8.71.473-14.32-.018-.653-.786-1.749-.684-5.964.101-4.204-.444-13.835.336-19.147.192-1.308 2.681-5.66 3.01-5.639 1.104.13 1.255 5.444 1.975-.25.007 1.916.05 3.776.07 5.677.742-.34 1.483-.68 2.223-1.007q-.168-3.474-.339-6.948.37-.17.738-.34c.005 8.322.955 3.41 1.84 7.728.446-3.976.891-7.982 1.338-11.944-.054 2.286-.095 4.985-.16 7.001.482.103.735-.538.877-1.416V8.832h20.518c-3.08-.326-6.974-.757-7.187-.822-1.561-.477.808-1.17.113-1.411-1.932-.676-13.668-2.372-13.441-2.628C14.875.831 54.362.791 65.042.629m255.46 682.018q-3.6-.084-7.22-.167l-.212 1.248c10.635-.539 8.184.657 13.448 1.837-1.022-1.478-2.027-2.956-3.049-4.436-.994.507-1.987 1.011-2.967 1.518m-153.123-.681c-4.982.092-6.119.46-5.268 1.287-1.135.099-2.285.196-3.421.293-.525-.161-1.064-.32-1.589-.481-.596.34-1.196.677-1.778 1.017-1.206-.067-2.427-.133-3.633-.203-.141.171-.384.32-.469.508 5.114-.079 13.104.62 16.605-.411 2.037-.601-5.968-1.066-.447-2.01m13.169 1.066c.156.412.291.823.447 1.237 7.024.084 7.892-.525 9.355-1.6q-4.902.182-9.802.363m35.723-2.201c-.836.139-1.575.282-1.839.488-1.234.958 2.671 1.632-.749 2.573 11.897-.483 23.379-1.257 22.742-3.061zm34.496.291-10.467.214c-.071.415-.148.828-.204 1.242 3.735-.124 7.488-.252 11.223-.377-2.726.279-5.469.557-8.196.835l12.995.597c-4.136-1.371.267-1.66.382-2.802h-6.262q.264.146.529.291m-183.488-.291c.09.153.111.316.047.491-.256.696-7.754 1.41-3.792 2.153 3.219.146 1.04-.685 2.354-.729 9.486-.303 8.936.862 12.813.551.61-.499 1.253-1.008 1.877-1.512l4.404.44c.341-.335.697-.671 1.037-1.006-1.377-.022-2.929-.045-4.193-.067.154-.113.417-.219.765-.321h-8.227c-2.29.161-4.301.382-5.139 1.088-.364-.42.358-.781 1.177-1.088zm266.417 0 .02 1.675-1.716.022-.895.009q.445.333.895.664l2.398-.028-.028-2.342c.267-.361.534-.724.802-1.081l-1.56-6.523q.043 3.794.084 7.604m-74.895 0c6.6 1.166 12.539 2.38 23.14 1.434 2.356-.211 1.077-1.266 7.765.017-.543-.562.039-1.024 1.011-1.451h-2.339q-.403.079-.897.137c-4.984.576-12.254-.479-11.958 1.212-1.987-.08-3.837-.126-5.767-.193.727-.384 1.442-.771 2.156-1.156h-.748c-3.377.357-5.942.354-8.021 0zm-169.112 0c-1.262.196-1.843.521-.295 1.338 4.332-.221 9.247-.447 13.805-.668.142.33.275.662.417.992 4.692-.163 2.542-.973 1.269-1.662zm78.686 0c2.378.267 4.037.819 4.635.872 6.43.573 9.315.047 14.554.765-.268-.56-.423-1.092-.631-1.637h-.581c-4.449.787-6.946.743-13.418.559l6.774-.36-.15-.199zm164.799-27.183c-.103-.27-.66.887-1.174.719v20.297l.388.454c-.022 2.446-.169 4.2-.388 5.398v.315h-7.158c5.641.338 4.179 1.241 7.158 1.265l1.28-.016-.015-1.249c.011-1.36-.162-3.647-.657-7.96.407-.383.823-.795 1.228-1.15.024-5.038-.896-4.631-1.069-8.961-.108-2.712 1.507-6.117.407-9.112m-175.938 27.183c.57.255 1.088.584 1.538 1.006 3.874.084 2.645-.714 3.791-.893q.424-.066.835-.113zm-33.727 0c.222.295.428.594.587.909 7.113-.796 10.351.484 18.701-.442 1.039-.115 2.154-.288 3.301-.467h-9.043c-1.508.222-3.246.287-4.399 0zm-7.409 0c-.039.309.295.551 2.72.467-.073-.151-.197-.309-.314-.467zm-5.9.327a.85.85 0 0 1 .119-.327h-.745q.305.167.626.327m-58.768-68.218c-3.713-.096-8.598-.166-12.325-.101-1.604.029-1.251.272-2.054.377-.804.103-1.337-.076-1.822.012-.484.088-.057.302-.294.371-.34.099-1.723.196-1.806.216-1.131.293.778.163.84.284.203.405-.094.818-.208 1.215h-.99q-.477 0-.943.047c.567-.193 1.09-.319.905-.348-2.12-.237-3.365.707-5.11 1.595-.479.267-.196-.033.148-.327.343-.292.747-.564.345-.371-2.183 1.197-2.288 1.919-1.72 1.613.183-.075.447-.213.783-.382a9.5 9.5 0 0 0-2.937 3.514c-.082.008-.159.049-.194.109-.458.958-.545 1.56-.535 2.001a9.5 9.5 0 0 0-.206 1.515c-.068.089-.149.188-.253.292q.039.105.072.218c.098.331.145.729.169 1.171v11.847c-.047-.094-.096-.183-.14.268-.094.944.113 1.52-.124 2.75-.062.321-.421 2.192-.186 3.327.026.133.185.141.208.304.09.671-.043 1.326.04 2.032.02.167.17-.194.202.114v2.628c0 1.41.31 2.747.862 3.95q.045.142.1.281c.357.817.744 1.317 1.156 1.739.47.58 1.01 1.102 1.602 1.556.158.194.224.299.709.628 1.521.961 3.276 1.385 5.047 1.36.769-.01 1.548-.013 2.348.002.63.012 1.114.182 1.996.19.353.003.777-.124 1.117-.23h26.97c.116.042.26.077.445.104 1.58.226 3.925-.06 4.742-.045 4.451.081 7.41.268 11.565.15.098-.004-.236-.183.218-.209h.678c1.206.014 2.652.064 3.715.072.233.001.448-.03.638-.072h5.634q.18.056.327.115c.876.362 1.284-.063 2.03.151.23.067.056.187.215.224 1.2.267 2.694-.075 3.285-.122 2.442-.195 5.758.03 7.517.045 1.758.015.524.207.589.228.998.307 1.214-.113 1.346-.124 3.739-.301 6.931.006 10.848-.149.361-.016 1.09-.422 2.167-.125.068.02-.295.196.261.215 1.618.058 3.427.034 5.101.051.989-.418 3.425-.556 3.372.05 2.581.037 6.611.268 8.876.232 2.891-.046 3.212-.425 5.886-.346.413.012.033.211.152.218 2.728.162 1.669-.244 2.341-.606.205-.11 1.33.051 1.639.001q.168-.028.296-.058h5.134q.446.21.192.531c.987-.21 1.132-.407 1.521-.531h2.745c-.021.064-.039.136.283.147 4.184.132 8.537.142 12.726.292.527.019.081.214.219.221 2.395.13 1.28-.239 1.958-.591q.065-.032.224-.069h5.013c.15.212-.657.853 1.402.724 2.192-.138.899-.438 4.429-.337 1.955.056 3.039.027 6.393.061 3.362.033 11.165.35 15.346.102.957-.057.279-.367.342-.55h.853c.103.085-.257.223.061.329.49.166 1.274-.127 1.994.12.196.068.952.397 2.039.142.065-.018-.331-.185.401-.208 1.499-.047 2.385.03 2.201-.383h.114c1.294.205-.253.736 1.845.649.095-.005-.323-.217.307-.226 8.041-.113 15.657.229 23.915.204.167 0 2.016-.098 2.488-.176.076-.014-.448-.216.516-.221.968-.006 3.509-.013 4.503.044.998.056.013.213.545.25 1.196.083.107-.184 1.057-.224 1.288-.054 3.448-.019 4.646.035.801.037.351.199.51.24 1.12.287 2.85-.104 3.201-.134 2.141-.186 3.273.016 5.155-.036.474-.014.04-.162.573-.145 1.972.064 3.65.713 5.804.384.913-.139-.641-.838 2.132-.573.417.04-.168.16.302.231.471.072 2.386.277 2.92.18.268-.05.309-.296.451-.482h1.419c.726.271.25.378 2.538.596.067.009-.595.197.373.234.971.038 4.433.028 5.216.039 1.962.028 1.584-.556 1.832-.594 1.96-.292 2.417.209 3.701.36.561.065 1.129-.01 1.702.049.184.019-.104.209-.035.211 2.197-.001 1.932-1.032 3.561-.834.196.025-.412.337.175.467.163.035 1.986.516 2.585.416 2.38-.399 1.69-.724 5.287-.607.298.01.031.219.18.225 2.327.089 4.657.15 6.987.191 5.449.228 10.458-4.723 10.317-10.229-.001-4.527 0-9.061.067-13.603-.506-1.905-.15-4.525-.266-7.329-.016-.356-.441-1.079-.124-2.196.021-.065.185.706.212-.381l.024-.932c.295-5.326-4.633-10.56-10.23-10.404-1.94-.001-3.869.006-5.767.022-1.063.009-.212.229-.589.237-3.162.062-5.254-.38-8.527-.252-.258.009-1.132.432-2.138.134-.064-.02.133-.192-.218-.209-1.671-.083-2.058.299-3.801.206-.394-.022.365-.225-.462-.249a311 311 0 0 0-11.448-.092c-.732.007.167.245-.594.244-3.278-.006-5.849.085-9.368-.147-.462-.031-2.583-.457-3.856-.199-.151.032-.006.209-.54.231-2.63.102-5.534.037-8.192.109-.631.017-.085.215-.505.236-1.866.097-.391-.129-1.91-.246-2.356-.181-5.555-.217-8.189-.253-2.31.902-8.463.493-12.352.323-.635-.029.184-.236-.451-.252-6.339-.159-12.663-.185-19.029-.157-.599.002-.025.238-.515.24-4.649.018-8.706-.09-13.491-.104-4.017-.011-8.532.069-12.753.07-5.561 0-10.642-.241-16.565-.063-.327.011-2.851.433-3.922.128-.13-.036.182-.194-.553-.241s-2.919-.064-3.744-.03c-.825.035-.141.234-.657.245-2.422.044-5.107-.053-7.365-.058-1.651-.002-1.941 0-3.686-.031-.906-.016-3.123.019-4.292-.028-.515-.02-.04-.216-.17-.23-1.892-.205-.009.161-1.888.191-4.417.071-9.522.055-14.112-.14-1.157-.05-.568-.422-2.339-.19-.113.015.24.2-.353.21-5.084.084-11.069-.107-15.992-.138-14.93-.096-29.429-.175-44.178-.395-2.995-.045-5.792.009-8.748-.084-.539-.017.1-.227-.414-.248-1.552-.061-3.015.004-4.586-.048-.803-.026-.214-.159-1.377-.188m255.374 46.125c-1.049-.408 3.727-.367 2.496.021-.083.019-2.436 0-2.496-.021m-107.299-.358-.007.004c-.017.007-.535.002-.843-.004zm-191-13.022c.648 4.843.985 6.464 2.033 4.178l.002-.015-1.394-5.411c-.213.411-.428.822-.641 1.248M12 638.528c-.707-2.725-1.477-1.723-2.345.332.134.893.27 1.77.404 2.664q.97-.385 1.94-.781zm321.463-22.82c1.502-7.605.209-16.079-1.463-14.521v1.174c.312.8.745-.519.348 2.411q-.175.157-.348.319v36.279c.393-.619.812-.994 1.041-3.047.494-4.446-1.44-14.615.753-17.612-.291 2.328-.447 5.295-.686 7.879.427 1.051.85 2.074 1.275 3.11-.552-5.908.098-12.015-.92-15.992m2.933 6.82c-2.168 3.706-.772 11.174-.017 9.869-.038-2.47-.363-4.118-.246-6.872h-.003c.013-.3 1.181-3.294.266-2.997m-324.45-16.523.054.009v-.631zM332 597.577c.118.14.254.378.408.724l.089-2.846q-.248-.046-.497-.09zm0-10.956c.103-.986.219-2.269.355-3.919q-.178-.01-.355-.023zM10.402 563.812c-.223 1.277-.474 2.596-.677 3.859-.164 2.126.469 1.044.457 1.265-.333 5.382-.624 6.141-.147 12.745.166.809.341 1.605.513 2.414 1.457-2.707.919-4.758 1.452-9.693v-1.5q-.715 1.475-1.434 2.951l.357-10.762zM332 544.652c.07 1.711.083 3.247.008 4.303l-.008-.006v25.28c.38-2.366.678-4.966.655-10.129 1.716 7.811-1.325 12.085 2.117 12.056l-.681 5.896c.499.298 1 .594 1.499.878-.264-10.523-3.547-28.003-1.37-35.049-.266-.852-.497-1.707-.783-2.573 1.314-6.902-1.635-9.884.064-16.886.18-.72 2.95.786 2.85-8.325-.36.227-.966.346-1.42.53.221-1.973.451-3.936.677-5.895-.332-.355-.665-.728-1-1.083l-.389 10.089-.343-8.409c-.544 3.649-.55 5.295-1.421 3.096-.052-3.167-.108-6.339-.16-9.506l-.295-.428zM12 513.398c-1.188 4.293-1.867 5.41-3.525 2.15.168 4.36-.073 7.072.848 7.47-.4.908-.8 1.823-1.2 2.718.01 1.418.047 2.696.04 4.2 1.39-2.071.534 1.944 1.164 4.798s1.728-.974 1.743 6.865c.326-2.613.605-5.003.913-7.531l.017.234v-10.474c-.663 1.448-1.343 2.806-2.138 1.817.304-4.6 1.282-4.17 2.138-4.813zm324.108-26.223c-.285-.073.191-5.206-.429-3.602-1.066 2.769-.454 13.116-1.752 13.146.424-3.636.069-10.734-.797-8.636-.951 2.301.642 8.991-.147 13.252 2.076-6.104 1.435 6.504-.159 7.94 1.225 7.399 1.724.598 1.667-6.986 1.222 4.63.562-2.185 1.577-3.307.613 4.774.103 21.158 1.74 13.532.58-2.713-2.181-7.784-.143-15.409-.608-1.817-1.189-2.957-1.785-4.519.648-.909 1.305-1.941 1.948-2.807v-.015c-.219-6.915-1.032-2.435-1.72-2.589M12 482.943c-1.431 5.719-1.78 15.287-1.123 27.285.83-1.691.402-6.794.676-9.734.117-1.262.274-1.395.447-1.426zm320.335-19.442c-.186-.616-.25.526-.335 1.498v21.134c.379-.115.709-.278 1.076-.389-1.286-9.003-.902-11.962.026-21.349-.866 6.078-.303.654-.767-.894M12 444.33a38 38 0 0 1-.408 3.913c-.947 5.778-1.856-1.33-.652 12.132.427-4.199.776-7.128 1.06-9.025zm320.599 3.376c-.037-.181-.332.94-.599.853v8.89c.706-.319 1.169-6.663.599-9.743m-.599-11.93c.22-1.317.488-2.589.78-3.903-.256-.106-.524-.471-.78-1.053zM12 413.503c-.726 1.492-1.597 2.093-1.976 1.682.522 3.252.566 8.005 1.38 8.673l.059 4.972c-1.984-1.731-1.621 5.199.085 5.654l.129-8.568c.11.114.218.196.323.255zm0-12.527c-.499 2.131-.843 4.505-.57 6.421.179-.03.371-.094.57-.17zm320 4.152c.683.511 1.394 1.274 1.729-2.757-1.991-2.329-2.183-8.973-.92-17.437-.009-.937-.012-1.879-.025-2.816-.233-.124-.563-.15-.784-.286zm4.771-20.905c-1.889-3.947-.952 2.526-1.678 4.147-.182-1.349-.358-2.729-.539-4.064-.534 8.067-.085 9.245 1.296 6.305.093-.214-.173-3.433.03-3.746.204-.31 1.497 2.34.891-2.642m-2.288-61.614c-2.678-7.242 1.84-13.404-1.825-10.906-.143 3.467-.342 6.062-.658 8.255v16.454c.109.127.202.37.283.691q-.14-.271-.283-.524v9.325c.462 1.179.734 4.793.966 5.343 1.02 2.428 1.363-4.787.964 3.974h.003c-.264 5.795-.334 7.074-.414 12.442-.729-1.075-1.2-4.923-1.519-5.54v8.302c.107.301.178.797.142 1.628-.01.202-.064.525-.142.96v3.673c.603-5.842 2.644-7.176 2.879-7.955 1.288-4.289-.495-7.63-.51-8.894-.062-5.325.73-6.873.39-11.942-.368-5.452-.975-1.725-1.519-3.383-.432-1.331-.509-5.632-.957-7.409.366.706.725 1.49 1.093 2.194.499-5.651.986-10.27 1.107-16.688M9.881 353.979c.444-3.507.887-7.028 1.332-10.535L12 347.45v-6.665q-.915-.592-1.83-1.178c-.097 4.785-.192 9.573-.29 14.372m326.93-20.131c-2.784-1.108-1.532 9.073-.668 8.704.035-1.405-.436-2.499-.228-3.989.209-1.505.859-1.89.896-4.715M12 311.433c-.298 1.953-.644 3.838-.652 6.302q.324-.721.652-1.439zm-1.287-35.407c.36 1.959.717 3.936 1.075 5.91-1.241.298-1.59-.001-1.371 7.72-.293-3.35-.59-6.687-.886-10.051-.25-.114-.512-.581-.755-.469.477 4.121.683 15.723 1.013 18.535s.42-2.617.741-1.809c2.642 6.744.693 6.21 1.147 11.049.109 1.159.22.717.323-.109V268.08q-.646 3.973-1.287 7.946m325.03 19.36c-3.981-10.296-1.541 12.889-.184 8.477.061-.208-.255-7.51.184-8.477M332 286.2c.187 1.619.307 3.535.248 6.544.849-1.789.674-6.003 1.692-3.277-.248-7.936-1.14-5.485-1.94-8.452zM12 245.379q-.093.782-.238 1.645c-.256 1.504-.903-1.973-1.23.128-.149.952.34 3.267-.037 5.593-.186 1.137-1.388 6.448-.817 10.126.831-1.485 1.595-.035 2.322.569v-6.987l-.514-.408-.156-6.676.001-.014.669.638zm320 11.456q.68 2.893 1.354 5.787l.587-5.025c-1.498-11.864.943-31.703-1.941-31.678zM7.258 207.002c-.176 3.845.698 2.199.865 3.746.626 5.851 0 9.842.393 15.621l-.49-1.105v.016c-.738 27.366 1.246 12.992.923-3.383.325-.384.652-.753.975-1.136-.569-7.327-1.117-14.084-2.666-13.759M12 221.449v-10.095q-.488-.15-.977-.303zm320-3.875c.116-.471.243-.979.377-1.565-.132-.158-.253-.315-.377-.471zm.566-23.143c.218.905.437 1.835.655 2.74-.465-6.429 1.205-6.536.272-12.82-.308 3.365-.619 6.729-.927 10.08M12 166.908c-.537.727-.92 1.912-.274 5.423-.789-.156-1.5-.282-2.256-.438.144 1.433.335 2.385.449 4.116 1.538-5.106 1.473-.927 1.475 1.219.004 2.215.329.737.606-.294zm320-9.063v7.967c1.017-1.526 1.976-3.462 1.654-8.443q-.828.239-1.654.476M9.731 143.572c-.292-.443-.491 6.373-1.342 1.634-.067 2.073-.053 3.862-.09 5.821-.363.142-.726.282-1.088.438l.395-7.25c-1.092 2.975-1.489 10.61-.3 14.342l.418-5.881c.136 3.705.286 7.37.416 11.104 1.521.197.638-4.106 1.058-10.581.068-1.004 1.958-7.414.533-9.627m1.579 4.828c-.75 7.519-.013 10.074.69 11.512v-4.555c-.193-2.542-.277-5.732-.69-6.957M332 152.279c.209-.096.419-.185.628-.284-.075.966-.149 1.919-.226 2.884.408-.838.813-1.659 1.22-2.482q-.811-3.875-1.622-7.765zm.024-19.742a.1.1 0 0 0-.024.019v2.213c.038.612.062 1.184 0 1.469v5.044c.169.231.349.494.546.761-.095-1.377-.186-2.77-.28-4.147 1.105.908 1.764-1.421 1.674 6.63.315-.554.616-1.118.944-1.658-.05-1.32.216-2.177.094-3.625-.332-3.947-2.273-6.974-2.954-6.706m.921-80.073c-.206 1.449-.392 2.913-.586 4.375a121 121 0 0 0-.359-2.082v65.674c.611-1.289 1.222-.901 2.041 5.56.094-4.288.19-8.563.289-12.836q.322 1.32.645 2.641c-.114 1.931-.226 3.851-.337 5.782.394-2.271.786-4.547 1.181-6.819-.489-5.368-1.242-7.473-2.171-9.93-.678 6.248.249 4.208.433 9.076-.588-.17-1.13.054-1.748-.372 1.218-2.515.332-10.721.272-12.624-.181-5.79 1.017-1.25 1.042-5.124.025-3.877-.688-8.45.499-11.617-.665.057-1.354.31-1.96.537-.218-6.035.569-4.832.67-5.457 1.674-9.97.261-15.38.089-26.784M9.414 110.763c.28 7.683.805 10.408 2.049 6.077l-.857-8.151c-.397.695-.795 1.393-1.192 2.074m-1.048-2.513c-.472-4.118-.112-12.454-1.416-10.353v-.016c-.078.142-.548 7.618-.111 8.583.491.795 1.018 1.19 1.527 1.786m2.803-49.565c.943 12.525-.39 27.194.675 39.378.033.38.087.714.156 1.02V60.045c-.145-.925-.375-1.476-.831-1.361M332 49.87c.224-.304.457-.613.71-.926a18.3 18.3 0 0 1-.71-3.616zm0-17.078v9.894c.11-1.242.343-2.178.427-2.877.553-4.628-.667-4.483.646-7.28-.386.097-.72.173-1.073.263m1.202-15.991c.201-.156.411-.342.618-.521l.49-.387c-.584.823-1.555 7.588-.931 10.437.313 1.432 1.425-1.826 1.619 4.245-.057-4.4-.209-8.478-.304-12.751.331.383.665.75.995 1.134l.001-.008.228-4.275c-.917-.71-1.832-1.41-2.748-2.12.01 1.42.02 2.827.032 4.246M59.389 7.466c-3.863.563-6.256 1.04-8.854 1.366h8.734c1.72-.13 3.391-.185 6.044 0h.523c-2.153-.454-4.339-.912-6.447-1.366m45.553 1.366h3.029c.109-.198.303-.384.596-.549zm44.23-.13c-6.628-2.518-6.496-1.338-4.938.13h16.887c-2.946-.463-4.281-.969-1.406-1.425-3.906.402-6.964.867-10.543 1.294m35.334.13c-3.65-.647-7.232-1.101-11.941-.174 1.541.073 2.636.13 3.417.174zm39.789-3.657c-7.839 1.15-11.891 3.026-23.507 2.405l5.682 1.252h5.698q.541-.306 1.078-.611c5.353.201 10.721.4 16.074.602.881-.574 1.747-1.147 2.627-1.72l4.245.221q-.53.622-1.082 1.243l8.424-.308c-.548.236-1.138.424-1.756.573h22.714a40 40 0 0 1-.758-.03c-5.609-.288-9.773-2.396-19.33-1.582-.483.043-3.313 1.656-6.735.54-.779-.254 2.498-.63.711-.962-1.79-.333-9.772-.606-10.399-1.398.086.28.584.57.826.856-1.363.134-2.742.269-4.119.4-.127-.494-.265-.99-.393-1.48m63.84 2.766c-7.499.695-12.942-.239-20.511-.018-1.032.03.766.789-1.591.91h31.745l-.032-.092c-3.422-.013-6.661-.11-10.013-.154 3.266-.149 6.534-.293 9.786-.442-2.783-.64-5.549-1.28-8.333-1.921-.354.571-.711 1.153-1.051 1.717m40.134-1.486c-4.046.817-7.513-.019-10.92.172-3.395.191-2.103 1.069-6.093 1.406-.739.063-2.277-.486-4.095-.082-.566.126-1.601.5-2.786.881h25.111c-.38-.785-.738-1.565-1.217-2.377M44.289 7.623c-3.96-.283-9.67-.097-14.016-.157.342 1.016 11.387.735 15.266 1.35.622-.182.424-1.073-1.25-1.193"/></svg>