<svg xmlns="http://www.w3.org/2000/svg" width="471" height="794" fill="none" viewBox="0 0 471 794"><path fill="#fff" d="M77.32.63C206.466-.957 332.922.966 461.056.851l7.902-.078.079 8.058q.009 10.823.039 21.66c.006 1.394.469.786.489 1.38.117 3.69-.606 7.313-.635 8.677-.062 2.915.606 1.31.606 3.44-.007 22.002-.399 42.764-.285 64.784.007 1.434-.527-.03-.433 2.488.052 1.3.872 5.37.884 8.305.042 10.248-.22 18.857-.208 29.666.007 5.911-.062 14.78-.05 21.389.006 2.92.38 5.961.393 8.845.017 4.093-.743 3.257-.79 3.887-.206 2.763.628 3.145.608 5.768-.04 4.88-.597 5.143-.55 11.334.035 4.425.475 14.552.604 20.131-.646 13.048-.39 29.489-.176 41.661.127 7.206-.653 7.874-.65 10.812.015 10.352 1.01 18.209 1.043 27.933.042 12.904-.616 24.34-.663 36.842-.008 2.027.706 1.562.724 3.551.067 7.363.198 16.778.096 23.337-.112 7.309-1.149 10.006-.938 17.159.063 2.097.972 2.712 1.088 6.226.184 5.613-.617 11.768-.707 15.685-.119 5.37.807.701.683 7.942-.006.298-.667 1.381-.636 2.935.09 4.53.61 4.081.561 10.709-.007.639-.637 9.425-.64 10.299-.01 5.142-.231 15.493-.097 18.537.477 10.879 1.473 2.315-.688 11.567.529 4.074 1.065 8.114 1.579 12.433-.479-2.882-1.172 8.815-1.127 9.637.36 6.799 1.202 2.749 1.063 11.37-1.943-11.385-.251 11.123-.202 16.143.241 24.169-.244 46.14-.231 70.432.005 8.132.416 19.03.406 27.634 0 2.005-.461.491-.471 2.256-.006 1.761.51-.193.483 1.817-.179 12.505-1.153 22.303.064 33.758-.176.558-.315.54-.508 1.463 1.09 9.375-.376 27.429-.578 34.215-.312 10.613.425 13.325.276 21.035-.199 10.196-1.639 25.505.738 18.668.075 6.994.095 13.728-.126 20.793-.025.786-.629.245-.642.559-.086 1.994.455 2.643.48 3.99.067 3.65-.581-2.307-.4 2.898.096 2.746.569 4.305.579 11.93.005 4.817.008 9.679.009 14.575l.088 8.955-9.133.09c-41.819.008-86.227-.135-128.406-.206-3.235-.005-1.106.579-5.163.542-14.096-.129-39.329-1.113-51.484-.979-12.155.135-9.413.988-17.019 1.346-1.469.07-.265-.416-1.593-.424-8.938-.045-19.593-.804-26.833-.919-4.789-.076-4.405.69-7.727.744-4.95.08-10.044-.693-12.685-.718-12.415-.109-20.951.514-32.546.196.454.168.754.324 1.137.49l-41.167-.082c.647.154 1.273.31 1.92.466-16.106-.085-14.269-1.753-12.852 1.771-1.172.124-2.414.268-3.533.382.455-1.815-9.288-3.144-21.687-3.606-.91-.035-7.01 1.735-6.347-.356-1.591.512-2.54.864-3.886 1.314-2.623-.633-5.281-1.259-7.904-1.89-1.416.095-2.852.186-4.268.281-.21.409-.05.835-.504 1.237-6.576.062-20.062-.445-25.258-.393-12.908.132-26.048 1.24-36.087.043-4.3.108-1.065.742-5.165.824l-9.019.089-.09-9.197a64 64 0 0 1 0-2.143c.408-.821.798-1.594 1.217-2.451-1.82-5.944-.712-7.186-.332-15.332.259-5.508-.186-9.116-.1-14.362.023-1.329.557-1.141.54-2.05-.055-3.046-.791-11.737-.81-13.888-.195-19.481-.112-36.219.084-54.774.02-1.993-.507.591-.484-1.473.035-3.319.845-1.366.885-3.29.106-5.364-.749-5.406-.793-12.889-.147-24.643.495-52.975.552-78.718 0-.804-.5-.757-.506-1.631-.024-5.7.652-11.47.645-16.645-.01-8.588-.712-15.042-.71-23.525.002-16.58.362-31.394.382-48.446.017-13.957-.05-26.078-.047-41.381.01-66.846-1.578-135.058-.733-202.359.022-1.712.464-1.016.445-1.538-.191-4.966-.788-5.41.46-7.176-.245-6.328-1.183-8.325-1.116-15.966.035-4.072 1.489-1.032.739-7.922-.678-6.221-1.475.644-.66-17.857.022-.49.908-2.902.677-6.748-.228-3.865-.863.608-1.054-8.696-.447-21.844.32-49.493.084-74.887-.015-1.594-.49-16.918-.708-19.945C1.123 79.44.464 80.662.303 73.058.178 67.18.925 62.333.776 55.424.758 54.62-.01 53.271.092 48.08c.102-5.177-.444-17.038.336-23.58.192-1.61 2.681-6.97 3.01-6.943 1.105.157 1.255 6.705 1.975-.308.007 2.36.05 4.649.07 6.99.742-.42 1.483-.837 2.223-1.239-.112-2.85-.225-5.705-.339-8.556l.738-.42c.005 10.25.955 4.2 1.84 9.516.446-4.896.891-9.828 1.338-14.707-.054 2.816-.095 6.138-.16 8.621.482.128.735-.663.877-1.744V8.832h25.267c-3.794-.326-8.587-.757-8.85-.822-1.923-.477.996-1.17.14-1.411-2.38-.676-16.833-2.372-16.553-2.628C15.538.831 64.167.791 77.319.629m369.577 782.572q-4.432-.083-8.891-.167-.13.625-.261 1.249c13.098-.539 10.078.657 16.563 1.836-1.26-1.477-2.498-2.955-3.757-4.435-1.224.506-2.447 1.011-3.654 1.517m-188.564-.681c-6.136.092-7.537.461-6.487 1.288-1.399.099-2.815.196-4.213.293-.647-.161-1.311-.321-1.957-.483-.735.341-1.474.679-2.191 1.019-1.485-.067-2.988-.135-4.473-.204-.175.171-.472.32-.578.509 6.298-.079 16.137.619 20.449-.412 2.51-.601-7.351-1.067-.55-2.01M22.17 784.238c.507.213 1.012.428 1.537.641 5.964-.648 7.961-.985 5.145-2.033l-.018-.001zm252.38-.651c.192.411.358.823.55 1.237 8.65.084 9.718-.525 11.519-1.6zm43.986-2.2c-1.028.139-1.934.281-2.26.486-1.519.959 3.291 1.633-.923 2.575 14.649-.483 28.79-1.258 28.01-3.061zm42.486.29-12.89.214c-.088.414-.181.828-.251 1.242 4.599-.124 9.221-.252 13.821-.376l-10.094.835 16.003.596c-5.091-1.371.325-1.66.47-2.801h-7.709q.324.146.65.29m-225.959-.29a.46.46 0 0 1 .057.491c-.316.696-9.548 1.409-4.669 2.152 3.965.146 1.281-.684 2.899-.728 11.683-.303 11.004.861 15.779.551.751-.499 1.542-1.008 2.311-1.512l5.424.44c.42-.336.858-.672 1.278-1.007-1.697-.023-3.608-.045-5.165-.068.189-.112.512-.218.938-.319h-10.144c-2.814.161-5.282.382-6.311 1.087-.448-.419.439-.781 1.446-1.087zm327.69 0 .016 1.679-1.712.016-1.102.01q.547.333 1.102.665l2.393-.023-.022-2.347q.4-.67.801-1.331l-1.56-8.034q.042 4.672.084 9.365m-447.854 0c-3.364.707-2.13 1.475.402 2.344 1.1-.134 2.18-.269 3.28-.403-.318-.648-.634-1.293-.96-1.941zm356.024 0c8.125 1.165 15.438 2.378 28.489 1.433 2.901-.212 1.326-1.267 9.562.017-.668-.562.047-1.024 1.242-1.45h-2.877q-.497.079-1.105.137c-6.138.576-15.091-.48-14.726 1.211-2.448-.08-4.724-.127-7.102-.194.896-.384 1.774-.77 2.653-1.154h-.918c-4.159.357-7.317.353-9.876 0zm-208.27 0c-1.549.196-2.26.522-.355 1.338 5.334-.221 11.386-.447 17-.668.175.33.338.661.512.991 5.777-.163 3.133-.973 1.565-1.661zm96.918 0c2.923.267 4.96.819 5.696.872 7.919.573 11.47.047 17.922.765-.33-.561-.52-1.092-.775-1.637h-.718c-5.478.787-8.553.742-16.522.559q4.17-.181 8.342-.361l-.187-.198zm202.66-33.477c-.103-.332-.66 1.097-1.174.889v24.993l.387.56c-.022 3.013-.168 5.175-.387 6.649v.386h-8.783c6.909.339 5.12 1.24 8.783 1.265l1.277-.013-.012-1.252c.011-1.675-.162-4.492-.656-9.803.407-.472.823-.98 1.227-1.417.025-6.205-.895-5.702-1.069-11.035-.108-3.34 1.507-7.532.407-11.222m-216.387 33.477a7 7 0 0 1 1.891 1.005c4.772.084 3.258-.714 4.67-.894a35 35 0 0 1 1.009-.111zm-41.535 0c.275.294.526.594.722.908 8.76-.796 12.747.484 23.029-.442 1.277-.115 2.645-.288 4.053-.466h-11.132c-1.852.22-3.984.285-5.402 0zm-9.124 0c-.047.309.367.55 3.35.466-.089-.151-.242-.309-.386-.466zm-7.266.327a.74.74 0 0 1 .146-.327h-.916q.375.167.77.327m-124.84-78.022c-5.123-.096-11.865-.166-17.008-.101-2.213.029-1.727.272-2.835.377-1.109.103-1.845-.076-2.513.012-.67.088-.08.302-.407.371-.47.099-2.38.196-2.493.216-1.561.293 1.077.163 1.16.284.28.405-.134.818-.292 1.215H37.33q-.666.001-1.308.091c.783-.248 1.512-.361 1.256-.392-2.922-.189-4.648 1.14-6.71 2.871-.555.515-.244.045.16-.426.401-.469.905-.912.407-.548-2.623 2.227-2.457 3.293-1.907 2.606.186-.174.464-.463.834-.808a9.43 9.43 0 0 0-2.202 5.831.36.36 0 0 0-.135.251v.002c-.075 1.303.02 2.127.13 2.723v2.184a5 5 0 0 1-.243.457c.144.496.212 1.132.242 1.859v16.397c-.046-.129-.095-.252-.14.372-.094 1.303.114 2.097-.123 3.795-.046.323-.248 1.775-.265 3.145-.007.543.061 1.076.192 1.508.058.186.216.172.28.393.274.906.457 1.832 1.005 2.678.13.198.018-.328.261.053a9.47 9.47 0 0 0 7.474 4.807q.194.035.393.057.205.02.4.026c.976.034 1.722-.003 2.419-.047h3.212c.299.052.479.109 1.23.114 3.512.022 6.847-.124 10.49-.073.869.012 1.538.182 2.755.19.487.003 1.074-.125 1.543-.231h37.217c.16.042.36.079.615.105 2.18.226 5.418-.06 6.544-.045 6.144.081 10.226.268 15.961.15.137-.004-.332-.186.312-.21h.861c1.676.013 3.705.065 5.192.073.32.001.617-.031.878-.073h7.776q.25.056.452.117c1.209.361 1.772-.064 2.801.15.317.067.077.187.298.224 1.655.267 3.717-.074 4.533-.121 3.37-.196 7.947.03 10.374.045 2.421.014.729.205.811.227 1.379.307 1.677-.113 1.86-.124 5.159-.301 9.565.007 14.97-.148.499-.017 1.504-.423 2.99-.125.094.019-.406.194.361.213 2.233.058 4.729.035 7.04.052 1.365-.418 4.728-.556 4.653.05 3.561.038 9.122.268 12.249.232 3.99-.045 4.433-.425 8.123-.346.57.012.045.21.21.218 3.766.161 2.303-.244 3.232-.606.282-.11 1.836.051 2.262.001.156-.018.289-.039.408-.059h7.084q.617.212.265.532c1.363-.21 1.563-.408 2.101-.532h3.788c-.029.065-.057.138.389.148 5.775.132 11.782.142 17.564.292.727.02.112.214.301.222 3.305.129 1.767-.24 2.703-.592.057-.022.164-.045.309-.07h6.919c.206.213-.909.854 1.934.725 3.025-.138 1.241-.438 6.113-.337 2.697.056 4.194.028 8.823.061 4.639.033 15.409.351 21.178.102 1.322-.057.382-.367.471-.551h1.176c.148.085-.355.224.085.331.676.165 1.758-.128 2.752.12.27.067 1.315.396 2.814.141.091-.017-.456-.185.554-.208 2.07-.047 3.292.029 3.038-.384h.152c1.794.205-.347.737 2.551.65.131-.004-.446-.217.424-.226 11.097-.113 21.607.229 33.004.204.23 0 2.784-.097 3.435-.175.104-.015-.619-.217.711-.222 1.335-.005 4.842-.013 6.213.044 1.379.056.019.213.753.25 1.651.083.148-.184 1.46-.224 1.778-.054 4.757-.019 6.41.035 1.106.037.486.198.704.24 1.546.286 3.935-.104 4.419-.134 2.954-.186 4.517.017 7.114-.036.654-.014.055-.162.791-.145 2.721.064 5.037.713 8.01.384 1.26-.139-.886-.837 2.941-.573.575.04-.232.16.416.231.65.072 3.293.277 4.03.18.371-.05.428-.297.624-.483h1.957c1.003.272.346.379 3.503.597.092.009-.82.197.515.235 1.34.037 6.118.027 7.198.039 2.708.027 2.186-.557 2.528-.595 2.705-.291 3.337.209 5.108.36.774.065 1.559-.01 2.349.049.253.019-.142.209-.049.211 3.032 0 2.667-1.031 4.916-.834.269.026-.57.337.241.467.226.036 2.74.516 3.567.416 3.285-.398 2.333-.724 7.297-.607.411.01.042.22.248.225 3.212.09 6.426.15 9.643.191 5.446.203 10.447-4.723 10.315-10.229.007-8.126-.019-16.269.069-24.43-.345-1.788-.29-4.033-.256-6.504a9.2 9.2 0 0 0-.733-3.763c-.226-.492-.974-1.252-1.757-2.683-.054-.089.829.676-.214-.558-1.829-2.026-4.583-3.304-7.424-3.317-7.335-.085-14.857-.105-22.072-.061-1.466.009-.291.229-.812.237-4.363.062-7.25-.38-11.767-.252-.357.009-1.563.432-2.951.134-.089-.019.185-.192-.301-.209-2.306-.083-2.84.3-5.245.206-.544-.022.504-.225-.636-.249a592 592 0 0 0-15.8-.092c-1.01.007.229.245-.82.244-4.524-.006-8.072.085-12.929-.146-.639-.032-3.564-.458-5.322-.2-.209.032-.008.209-.746.231-3.628.102-7.636.037-11.304.109-.871.017-.117.215-.697.236-2.575.097-.54-.129-2.636-.246-3.252-.181-7.666-.217-11.301-.253-3.187.902-11.679.493-17.046.323-.876-.029.252-.236-.624-.252-8.748-.159-17.474-.185-26.261-.157-.826.002-.034.238-.711.24-6.416.018-12.014-.09-18.618-.104-5.543-.011-11.774.069-17.599.07-7.675 0-14.686-.241-22.862-.063-.449.011-3.933.433-5.412.128-.18-.036.252-.194-.764-.241-1.015-.047-4.027-.064-5.167-.029-1.137.034-.194.234-.907.244-3.342.044-7.048-.053-10.163-.058-2.279-.002-2.678 0-5.087-.031-1.25-.016-4.31.019-5.924-.028-.71-.02-.055-.216-.234-.23-2.611-.205-.012.161-2.604.191-6.097.072-13.142.055-19.477-.14-1.596-.05-.784-.422-3.228-.19-.155.015.332.2-.487.21-7.017.084-15.277-.107-22.07-.138-20.605-.096-40.614-.175-60.97-.395-4.132-.045-7.992.009-12.071-.084-.744-.017.138-.227-.57-.248-2.143-.061-4.163.004-6.33-.048-1.109-.026-.297-.159-1.902-.188m366.544 52.618c-1.446-.408 5.145-.367 3.445.021-.107.02-3.354 0-3.445-.021m-148.076-.359-.012.005c-.025.008-.815.002-1.228-.005zM11.945 744.229l.055.011v-.777zm450.574-43.04c1.503-9.369.211-19.806-1.462-17.881v1.439c.312.994.746-.639.348 2.974q-.174.194-.348.394v44.675c.393-.763.812-1.224 1.041-3.753.494-5.474-1.441-17.998.752-21.688-.29 2.867-.447 6.521-.685 9.703.427 1.294.85 2.554 1.274 3.83-.551-7.275.099-14.796-.92-19.693m2.935 8.397c-2.168 4.565-.773 13.763-.018 12.154-.037-3.042-.362-5.071-.246-8.463h-.003c.014-.37 1.182-4.056.267-3.691M10.402 692.269c-.223 1.573-.474 3.197-.677 4.753-.164 2.618.469 1.283.457 1.556-.333 6.629-.624 7.563-.147 15.696.166.996.341 1.976.513 2.972 1.456-3.332.92-5.855 1.452-11.924v-1.858c-.477 1.212-.955 2.42-1.434 3.633l.357-13.253zm450.655-13.407c.118.172.253.465.408.89l.09-3.504-.498-.111zm0-13.49c.103-1.214.219-2.796.355-4.829q-.178-.013-.355-.029zM12 630.185c-1.188 5.287-1.867 6.664-3.525 2.649.168 5.37-.073 8.71.848 9.2-.4 1.118-.8 2.244-1.2 3.345.01 1.748.047 3.321.04 5.173 1.39-2.551.534 2.394 1.164 5.909.631 3.515 1.728-1.201 1.743 8.453.326-3.218.605-6.16.913-9.273l.017.288v-12.896c-.663 1.782-1.343 3.452-2.138 2.235.304-5.665 1.282-5.135 2.138-5.927zm449.057-16.528c.071 2.118.084 4.021.008 5.328l-.008-.009v31.139c.38-2.916.678-6.117.656-12.48 1.716 9.619-1.326 14.882 2.116 14.847l-.681 7.26c.499.368.999.732 1.498 1.082-.263-12.959-3.546-34.486-1.369-43.163-.265-1.049-.496-2.102-.782-3.169 1.314-8.499-1.636-12.17.063-20.792.178-.89 2.949.971 2.85-10.252-.36.279-.966.425-1.421.652.221-2.43.453-4.848.679-7.261-.333-.437-.666-.895-1.001-1.332-.129 4.145-.261 8.278-.39 12.423l-.342-10.354c-.544 4.493-.55 6.52-1.421 3.812l-.16-11.706-.295-.529zM12 592.683c-1.43 7.044-1.779 18.826-1.123 33.6.83-2.082.402-8.366.676-11.987.117-1.553.275-1.718.447-1.757zm453.165-49.778c-.285-.093.192-6.41-.429-4.437-1.065 3.41-.453 16.153-1.752 16.19.425-4.478.07-13.22-.797-10.634-.951 2.833.643 11.072-.146 16.319 2.076-7.519 1.434 8.01-.16 9.776 1.224 9.112 1.724.737 1.667-8.602 1.222 5.701.562-2.69 1.578-4.072.613 5.879.102 26.054 1.738 16.664.581-3.341-2.18-9.585-.141-18.976-.609-2.238-1.191-3.641-1.787-5.564.649-1.12 1.305-2.391 1.949-3.458v-.019c-.219-8.517-1.032-2.995-1.72-3.187M12 545.143a57 57 0 0 1-.408 4.808c-.947 7.115-1.856-1.639-.652 14.94.427-5.166.777-8.772 1.06-11.107zm449.392-31.392c-.187-.762-.25.658-.335 1.858v26.012c.379-.142.708-.342 1.076-.478-1.287-11.088-.903-14.731.026-26.292-.867 7.486-.303.807-.767-1.1M12 507.168c-.726 1.837-1.597 2.578-1.976 2.072.522 4.005.566 9.859 1.38 10.681l.059 6.123c-1.984-2.132-1.621 6.402.085 6.962l.129-10.55c.11.14.218.242.323.315zM461.655 494.3c-.036-.223-.331 1.16-.598 1.049v10.95c.707-.385 1.169-8.204.598-11.999M12 491.742c-.499 2.625-.843 5.548-.57 7.908.18-.037.371-.116.57-.21zm449.057-12.125c.219-1.625.487-3.194.78-4.814-.257-.131-.524-.582-.78-1.3zm0-37.751c.683.628 1.394 1.573 1.729-3.393-1.992-2.868-2.184-11.051-.92-21.474-.01-1.154-.012-2.313-.024-3.467-.234-.155-.565-.186-.785-.354zM9.881 433.868c.444-4.319.887-8.655 1.332-12.974l.787 4.934v-8.208q-.915-.729-1.83-1.451c-.097 5.893-.192 11.789-.29 17.699m455.948-17.745c-1.89-4.861-.952 3.112-1.679 5.108-.181-1.662-.357-3.361-.539-5.005-.534 9.934-.085 11.383 1.296 7.764.093-.259-.174-4.229.029-4.615.205-.382 1.499 2.884.893-3.252m-2.288-75.876c-2.679-8.918 1.84-16.506-1.825-13.429-.144 4.277-.342 7.477-.659 10.181v20.246c.109.157.203.456.284.851q-.142-.334-.284-.646v11.479c.463 1.449.735 5.909.966 6.586 1.021 2.99 1.364-5.896.964 4.894h.003c-.263 7.135-.333 8.711-.413 15.322-.731-1.328-1.201-6.087-1.52-6.829v10.228c.106.371.178.981.141 2.006-.009.25-.063.649-.141 1.19v4.526c.601-7.204 2.645-8.848 2.879-9.808 1.289-5.281-.494-9.394-.509-10.951-.062-6.558.729-8.464.389-14.707-.367-6.714-.975-2.123-1.519-4.166-.432-1.639-.509-6.936-.956-9.124.366.869.725 1.836 1.093 2.703.499-6.959.985-12.648 1.107-20.552M12 381.474c-.298 2.405-.644 4.726-.652 7.76.215-.592.435-1.181.652-1.77zm-1.287-43.604c.36 2.414.717 4.849 1.075 7.28-1.241.366-1.59-.001-1.371 9.507-.293-4.126-.59-8.235-.886-12.378-.25-.14-.512-.716-.755-.578.477 5.075.683 19.361 1.013 22.825.33 3.462.42-3.223.741-2.228 2.642 8.306.693 7.648 1.147 13.608.109 1.426.22.882.323-.135v-47.684q-.646 4.892-1.287 9.783m455.155 16.218c-2.784-1.364-1.532 11.173-.668 10.718.034-1.73-.437-3.076-.228-4.911.208-1.854.859-2.328.896-5.807M12 300.135q-.093.96-.238 2.021c-.256 1.853-.903-2.43-1.23.158-.149 1.173.34 4.022-.037 6.887-.186 1.4-1.388 7.941-.817 12.471.831-1.829 1.595-.043 2.322.7v-8.603l-.514-.504-.156-8.22.001-.018c.223.264.447.523.669.786zm452.801 6.588c-3.982-12.679-1.541 15.875-.185 10.438.062-.254-.255-9.249.185-10.438m-3.744-11.322c.187 1.996.308 4.356.249 8.069.849-2.204.673-7.393 1.691-4.035-.248-9.778-1.14-6.752-1.94-10.415zM7.257 252.87c-.175 4.736.7 2.709.866 4.615.626 7.205 0 12.119.393 19.236l-.49-1.36v.018c-.738 33.701 1.246 16 .923-4.166.325-.472.652-.926.975-1.398-.569-9.024-1.117-17.346-2.666-16.945M12 270.66v-12.429q-.488-.186-.977-.374zm449.057-11.409q.678 3.563 1.354 7.125l.588-6.188c-1.499-14.61.942-39.044-1.942-39.011zM12 203.496c-.536.897-.919 2.356-.274 6.679-.789-.192-1.5-.348-2.256-.54.144 1.765.335 2.937.449 5.069 1.538-6.288 1.473-1.141 1.475 1.501.004 2.727.329.91.606-.359zm449.057 7.41c.116-.582.243-1.208.377-1.932q-.195-.292-.377-.58zM9.731 174.759c-.292-.548-.491 7.849-1.342 2.013-.067 2.552-.053 4.755-.09 7.167-.363.175-.726.349-1.088.541l.395-8.929c-1.092 3.663-1.489 13.066-.3 17.661l.418-7.241c.136 4.563.286 9.075.416 13.673 1.522.244.638-5.056 1.058-13.03.068-1.237 1.957-9.129.533-11.855m1.579 5.946c-.75 9.258-.013 12.404.69 14.176v-5.615c-.192-3.129-.277-7.052-.69-8.561m450.313 1.697c.218 1.115.438 2.259.655 3.374-.465-7.918 1.205-8.05.273-15.788-.308 4.144-.62 8.287-.928 12.414m-.566-45.055v9.812c1.017-1.879 1.977-4.263 1.655-10.398zM9.414 134.356c.28 9.462.805 12.818 2.049 7.484l-.857-10.038c-.397.857-.795 1.715-1.192 2.554m451.643-3.864c.209-.118.418-.227.627-.348-.074 1.189-.148 2.362-.225 3.551.407-1.032.813-2.043 1.221-3.057q-.812-4.774-1.623-9.567zm-452.69.77c-.473-5.072-.113-15.338-1.417-12.75v-.019c-.078.184-.548 9.38-.111 10.569.491.979 1.018 1.466 1.527 2.2m452.714-25.08a.1.1 0 0 0-.024.024v2.719c.038.758.062 1.468 0 1.817v6.208c.169.284.349.608.545.938-.094-1.696-.185-3.412-.279-5.107 1.105 1.118 1.763-1.75 1.674 8.164.315-.682.616-1.377.943-2.041-.049-1.626.218-2.681.096-4.464-.333-4.862-2.274-8.59-2.955-8.258M11.169 70.224c.943 15.424-.39 33.488.675 48.493.033.469.087.879.156 1.255V71.901c-.145-1.14-.375-1.819-.831-1.677M461.057 7.867q-.62.012-1.257.02l1.257.142.795-.008.008.811c-.151 1.371-.295 2.75-.443 4.13a191 191 0 0 0-.36-2.58v80.893c.612-1.59 1.222-1.115 2.042 6.844.094-5.28.188-10.543.288-15.806l.646 3.253c-.114 2.378-.227 4.742-.339 7.12l1.183-8.398c-.489-6.61-1.242-9.202-2.171-12.227-.678 7.693.248 5.18.432 11.175-.589-.21-1.129.067-1.747-.457 1.218-3.099.332-13.203.272-15.546-.181-7.132 1.016-1.54 1.041-6.31.025-4.775-.687-10.406.5-14.306-.665.07-1.354.382-1.96.662-.218-7.433.567-5.951.669-6.72 1.623-11.905.344-18.53.108-31.727l-.009-.973zm-390.7-.4c-4.757.562-7.703 1.04-10.902 1.365H70.2c2.12-.13 4.18-.185 7.453 0h.644c-2.651-.454-5.343-.911-7.94-1.366m56.099 1.365h3.729c.136-.197.374-.384.735-.548zm54.466-.13c-8.16-2.518-8-1.337-6.082.13h20.8c-3.63-.463-5.276-.968-1.735-1.425-4.81.402-8.576.867-12.983 1.294m43.513.13c-4.494-.647-8.906-1.101-14.705-.173 1.905.072 3.257.129 4.22.173zm48.999-3.657c-9.654 1.15-14.644 3.026-28.949 2.405l6.997 1.252h7.017q.667-.306 1.327-.611c6.593.201 13.204.4 19.796.602 1.084-.574 2.15-1.146 3.234-1.72l5.229.222q-.654.62-1.333 1.242l10.374-.308c-.675.236-1.402.424-2.163.573h27.971a60 60 0 0 1-.933-.03c-6.908-.288-12.035-2.396-23.804-1.582-.595.043-4.08 1.657-8.295.54-.958-.254 3.078-.63.876-.962-2.204-.333-12.036-.606-12.805-1.398.105.28.718.57 1.015.856-1.678.134-3.373.269-5.069.4-.158-.494-.328-.99-.485-1.48m78.615 2.766c-9.234.695-15.936-.239-25.257-.018-1.271.03.943.789-1.96.91h39.094l-.04-.092c-4.215-.013-8.203-.11-12.33-.154 4.022-.149 8.046-.293 12.05-.442-3.427-.64-6.834-1.28-10.261-1.921-.438.571-.877 1.153-1.296 1.717m49.425-1.486c-4.984.817-9.252-.019-13.449.172-4.18.192-2.589 1.069-7.503 1.407-.909.062-2.803-.487-5.042-.083-.697.126-1.974.5-3.434.881h30.928c-.47-.785-.911-1.565-1.5-2.377m34.101 2.377h12.184c-1.53-.11-2.682-.343-3.543-.426-5.7-.554-5.521.667-8.966-.647.12.387.213.72.325 1.073m19.891-.71a27 27 0 0 1-4.452.71h5.593a33 33 0 0 1-1.141-.71M51.764 7.623c-4.88-.283-11.91-.097-17.261-.157.42 1.016 14.022.735 18.799 1.35.767-.182.524-1.074-1.538-1.193m358.89.04c1.749-.01 3.48-.02 5.229-.033-.193-.201-.422-.411-.643-.618l-.475-.49c1.014.584 9.343 1.555 12.852.931 1.764-.313-2.25-1.425 5.229-1.619-5.421.057-10.442.21-15.704.304.472-.33.925-.665 1.397-.995l-.009-.001-5.266-.228c-.875.917-1.735 1.832-2.61 2.748"/></svg>