<svg xmlns="http://www.w3.org/2000/svg" width="223" height="244" fill="none" viewBox="0 0 223 244"><path fill="#fff" d="M27.786.183C78.508-.305 128.114.35 178.518.237c.517-.002.292-.137.512-.143 1.372-.034 2.72.176 3.227.185 1.083.018.487-.176 1.279-.177 8.181.003 15.9.117 24.087.083.533-.002-.011.155.926.127.484-.015 1.996-.254 3.087-.257 2.937-.01 5.512.034 8.379.052l2.45-.02.019 2.489c-.005.852-.008 1.73-.007 2.651.002 2.198-.019 5.495-.015 7.953.001 1.085.11 2.216.114 3.289.005 1.521-.217 1.21-.23 1.445-.06 1.027.183 1.17.177 2.144-.011 1.814-.173 1.913-.16 4.214.01 1.646.138 5.411.176 7.486-.188 4.85-.114 10.964-.052 15.49.037 2.678-.19 2.927-.189 4.02.004 3.849.295 6.77.305 10.385.012 4.798-.181 9.05-.195 13.698-.002.754.207.581.212 1.32.02 2.738.057 6.239.027 8.677-.032 2.718-.335 3.721-.273 6.38.018.78.283 1.01.317 2.316.054 2.087-.18 4.376-.206 5.832-.034 1.996.236.26.2 2.952-.002.111-.195.514-.186 1.092.026 1.684.179 1.517.164 3.981-.002.238-.186 3.504-.186 3.829-.003 1.912-.068 5.761-.029 6.893.139 4.044.429.861-.201 4.301.154 1.514.311 3.017.461 4.623-.14-1.072-.342 3.277-.329 3.583.105 2.527.35 1.022.309 4.227-.566-4.233-.073 4.136-.058 6.002.07 8.987-.071 17.156-.068 26.188.002 3.023.123 7.075.12 10.274-.001.746-.135.183-.138.839-.002.654.149-.071.141.676-.053 4.649-.337 8.292.018 12.551-.051.207-.092.201-.148.544.318 3.486-.11 10.198-.168 12.721-.092 3.946.123 4.955.08 7.821-.058 3.791-.477 9.483.216 6.942.021 2.6.027 5.104-.038 7.73-.007.292-.182.092-.186.208-.025.741.132.983.14 1.484.019 1.357-.17-.858-.118 1.078.029 1.02.166 1.601.169 4.435q.003 2.688.003 5.419l.021 2.618-2.659.02c-15.549.002-32.06-.039-47.743-.06-1.203-.001-.411.17-1.919.159-5.242-.038-14.624-.326-19.143-.286-4.519.039-3.5.288-6.327.392-.546.02-.099-.121-.593-.123-3.323-.013-7.284-.235-9.977-.268-1.78-.023-1.638.201-2.873.217-1.84.023-3.733-.202-4.715-.21-4.617-.031-7.791.15-12.102.057.169.049.28.095.423.144l-15.307-.025c.24.045.474.091.714.137-5.987-.025-5.305-.512-4.778.515-.436.037-.898.079-1.314.113.17-.53-3.453-.917-8.063-1.052-.338-.01-2.607.505-2.36-.104-.592.149-.944.252-1.445.383-.975-.184-1.964-.367-2.94-.551l-1.586.082c-.078.119-.018.244-.187.361-2.445.018-7.46-.13-9.391-.115-4.8.038-9.686.362-13.418.012-1.818.036-.013.27-2.717.241-.305-.119-.593-.233-.911-.355-2.21.531-2.672.208-5.7.097-2.049-.076-3.39.054-5.34.029-.494-.006-.425-.162-.763-.157-1.132.016-4.363.23-5.163.236-7.244.057-13.467.032-20.366-.025-.741-.006.22.148-.547.141-1.235-.01-.509-.246-1.224-.257-1.995-.031-2.01.218-4.793.231q-1.937.008-3.947.005l-2.582.02-.02-2.622c.013-8.163.152-17.097.166-25.32 0-.299-.145-.282-.147-.606-.007-2.12.19-4.266.188-6.19-.002-3.193-.208-5.592-.208-8.746.001-6.165.107-11.673.113-18.014.005-5.189-.015-9.696-.014-15.385.003-24.854-.46-50.216-.214-75.24.007-.636.134-.377.13-.57-.057-1.847-.23-2.013.134-2.67C.974 85.176.7 84.433.72 81.593c.01-1.515.433-.385.215-2.946-.198-2.313-.43.24-.193-6.64.007-.181.266-1.078.198-2.508-.066-1.437-.251.226-.307-3.233-.13-8.122.093-18.403.024-27.844-.004-.592-.143-6.29-.207-7.416-.124-2.177-.316-1.723-.363-4.55-.036-2.185.182-3.988.139-6.557-.006-.299-.23-.8-.2-2.73.03-1.925-.13-6.336.098-8.768.056-.598.782-2.592.878-2.582.322.06.366 2.492.576-.114.002.877.014 1.729.02 2.6q.324-.236.648-.461-.049-1.591-.099-3.182l.216-.155c.002 3.81.278 1.56.536 3.538.13-1.82.26-3.655.391-5.469-.016 1.047-.028 2.282-.047 3.205.14.047.214-.247.256-.65V2.577h9.404c-1.412-.095-3.203-.221-3.3-.24-.714-.14.37-.341.052-.411-.884-.197-6.256-.692-6.154-.767C4.819.243 22.896.231 27.786.183M214.75 240.8l-3.306-.049-.096.364c4.869-.157 3.747.192 6.158.536-.468-.431-.93-.862-1.398-1.294q-.684.221-1.358.443M3.5 233.596c-.347 1.97-.544 2.485-1.028.991.049 1.995-.022 3.237.247 3.42-.117.416-.233.834-.35 1.244.002.349.006.68.009 1.018l.009 1.131 1.113-.009c.29-.002.587-.003.905-.002-.948-.406.89-.157 2.198-.34 1.306-.184-.447-.505 3.142-.509-1.196-.095-2.29-.176-3.448-.266l.108-.005H3.5v-1.891c-.193.663-.392 1.284-.624.832.089-2.11.374-1.91.624-2.206zm141.14 7.004c-2.282.027-2.802.134-2.412.375l-1.566.086-.728-.14c-.273.099-.548.197-.814.297l-1.664-.06c-.065.05-.176.094-.215.148 2.342-.022 6.001.181 7.604-.12.932-.175-2.733-.31-.205-.586m-87.808.5c.189.063.377.126.572.188 2.217-.189 2.96-.287 1.912-.593l-.006-.001zm93.838-.189c.071.12.133.24.204.36 3.216.025 3.614-.152 4.283-.465q-2.244.052-4.487.105m16.37-.642c-.389.041-.734.081-.856.142-.565.279 1.224.476-.343.751 5.446-.141 10.703-.367 10.414-.893zm15.781.085-4.793.063c-.032.12-.068.241-.093.361l5.139-.109-3.753.243 5.949.174c-1.89-.4.118-.484.175-.817h-2.866zm-84.016-.085c.042.045.053.092.023.144-.122.203-3.548.41-1.736.627 1.474.043.477-.199 1.078-.212 4.344-.088 4.092.251 5.867.16.279-.145.574-.293.859-.44l2.017.128c.156-.098.319-.196.475-.293l-1.92-.021c.072-.034.196-.062.361-.093h-3.772c-1.052.048-1.975.111-2.359.318-.168-.124.17-.228.548-.318zm121.705 0 .004.491-.499.004-.41.002.41.195.697-.006-.006-.686.234-.495-.455-2.987zm-166.376 0c-1.257.207-.798.43.144.684l1.22-.117a54 54 0 0 0-.358-.567zm-28.704.418-4.928-.103-.586.151c.585.065 1.19.138 1.768.197.972.048.477-.136.578-.132 2.464.097 2.812.182 5.836.043.37-.049.735-.1 1.105-.15-1.239-.425-2.177-.269-4.433-.424h-.692zm161.062-.418c3.025.341 5.745.694 10.603.418 1.079-.061.493-.369 3.555.005-.248-.164.018-.298.463-.423h-1.081a7 7 0 0 1-.401.04c-2.282.168-5.609-.14-5.475.353-.91-.023-1.756-.036-2.64-.056q.496-.168.985-.337h-.381c-1.509.101-2.662.099-3.6 0zm-77.417 0c-.582.057-.854.151-.141.39 1.983-.064 4.233-.13 6.32-.194.065.096.125.193.19.289 2.145-.048 1.168-.284.584-.485zm36.01 0c1.094.078 1.858.239 2.133.254 2.944.167 4.265.015 6.664.224-.123-.164-.194-.319-.289-.478h-.276c-2.031.229-3.175.217-6.133.163l3.101-.105-.068-.058zm75.272-12.447c-.03-.123-.192.409-.342.329v9.293l.113.209c-.006 1.109-.05 1.907-.113 2.455v.161h-3.265c2.568.099 1.903.362 3.265.37l.372-.003-.003-.367c.003-.623-.047-1.67-.192-3.645.119-.176.241-.364.359-.527.007-2.306-.262-2.12-.313-4.102-.031-1.242.44-2.801.119-4.173m-80.362 12.447c.261.075.499.17.705.293 1.773.025 1.211-.208 1.736-.26q.191-.019.376-.033zm-15.445 0c.102.087.198.173.271.265 3.257-.232 4.74.141 8.564-.129.473-.033.979-.084 1.501-.136h-4.151c-.681.063-1.46.081-1.983 0zm-3.387 0c-.018.09.134.161 1.243.136-.033-.044-.09-.09-.143-.136zm-2.704.096a.2.2 0 0 1 .055-.096h-.332q.135.05.277.096m-79.224-.08.004-.016h-.282zM3.5 219.662c-.417 2.62-.518 6.998-.327 12.488.242-.774.117-3.11.196-4.456.034-.577.08-.637.131-.652zm216.941-9.211c.439-3.484.062-7.367-.426-6.648v.531c.09.376.218-.238.101 1.109l-.101.147v16.613c.115-.285.236-.455.303-1.397.144-2.036-.42-6.693.22-8.065-.085 1.066-.131 2.424-.2 3.607.124.482.248.951.372 1.425-.161-2.705.028-5.501-.269-7.322m.857 3.122c-.632 1.697-.226 5.116-.006 4.519-.011-1.131-.105-1.886-.071-3.147h-.001c.003-.137.344-1.507.078-1.372M3.5 201.94c-.022.61-.056 1.219-.12 1.829-.275 2.646-.54-.609-.19 5.555.125-1.926.227-3.268.31-4.137zm216.515.208q.051.095.119.332l.026-1.302-.145-.042zM3.5 187.86c-.212.685-.466.961-.576.773.152 1.489.165 3.666.402 3.971l.018 2.277c-.579-.793-.474 2.38.024 2.589l.037-3.923a.5.5 0 0 0 .095.114zm216.515 9.26c.029-.45.065-1.033.104-1.781q-.053-.005-.104-.012zm0-19.231c.021.794.025 1.508.003 1.998l-.003-.004v11.576c.11-1.084.198-2.274.191-4.638.5 3.576-.386 5.532.617 5.52l-.198 2.7q.219.205.437.401c-.076-4.818-1.035-12.822-.4-16.048-.077-.389-.144-.781-.227-1.177.383-3.161-.477-4.526.018-7.732.052-.33.86.361.831-3.811-.105.103-.282.158-.414.242l.197-2.699c-.097-.163-.194-.334-.292-.496l-.113 4.619-.1-3.85c-.158 1.671-.16 2.424-.415 1.417l-.045-4.352-.087-.199zM3.5 182.127c-.145.976-.246 2.063-.166 2.94a.7.7 0 0 0 .166-.079zm217.713-30.528c-.083-.036.056-2.383-.125-1.649-.311 1.269-.132 6.005-.511 6.019.124-1.665.02-4.915-.232-3.955-.278 1.054.187 4.118-.043 6.069.605-2.795.419 2.976-.046 3.635.357 3.387.502.274.485-3.199.357 2.12.165-1 .461-1.514.179 2.186.03 9.687.507 6.196.169-1.242-.637-3.564-.042-7.056-.177-.831-.347-1.353-.521-2.068.19-.416.381-.889.569-1.286v-.007c-.064-3.166-.301-1.113-.502-1.185m-218.331 9.01.388-4.824.23 1.833v-3.051l-.534-.539zm217.23-19.849c-.053-.278-.073.223-.097.663v9.697c.11-.053.207-.125.314-.176-.375-4.123-.263-5.477.008-9.775-.253 2.782-.089.3-.225-.409M3.5 141.132c-.087.893-.188 1.755-.19 2.882q.094-.328.19-.654zm-.375-16.216c.105.897.21 1.802.313 2.706-.362.136-.464 0-.4 3.535-.085-1.534-.172-3.061-.258-4.601-.073-.052-.15-.267-.22-.215.139 1.887.2 7.199.295 8.486.097 1.287.123-1.199.216-.828.77 3.088.202 2.844.334 5.059.032.532.065.326.095-.055v-17.724zm217.064 8.611c-.01-.083-.096.436-.174.387v4.073c.205-.15.341-3.051.174-4.46m-.174-5.45a50 50 0 0 1 .227-1.799c-.075-.049-.152-.22-.227-.491zM3.431 111.637c-.075.689-.264-.903-.36.059-.043.437.1 1.496-.01 2.561-.055.52-.405 2.952-.239 4.636.243-.679.466-.017.678.259v-3.198l-.15-.187-.045-3.056v-.007l.195.292v-2.124q-.027.363-.07.765m216.584 2.395c.199.234.407.584.505-1.262-.581-1.066-.638-4.109-.269-7.984q-.003-.644-.007-1.289c-.068-.058-.165-.07-.229-.133zM2.117 93.312c-.051 1.76.204 1.007.252 1.715.183 2.679 0 4.507.114 7.153l-.142-.506v.007c-.215 12.53.363 5.948.27-1.549.094-.176.19-.344.284-.52-.166-3.354-.326-6.448-.778-6.3m219.29 11.148c-.551-1.807-.278 1.157-.49 1.899-.053-.618-.104-1.25-.157-1.861-.156 3.693-.025 4.233.378 2.887.027-.098-.05-1.57.008-1.715.06-.143.438 1.072.261-1.21m-.668-28.211c-.781-3.316.537-6.137-.532-4.993-.042 1.582-.101 2.767-.192 3.77v11.888c.135.54.214 2.197.282 2.448.297 1.11.398-2.192.281 1.82h.001c-.077 2.652-.098 3.238-.121 5.696-.213-.494-.35-2.26-.443-2.538v3.807c.03.139.052.364.042.74a7 7 0 0 1-.042.445v1.683c.175-2.679.771-3.29.839-3.648.376-1.964-.143-3.493-.148-4.072-.018-2.438.212-3.147.113-5.468-.107-2.496-.283-.79-.442-1.55-.126-.61-.149-2.579-.279-3.392.106.323.211.683.318 1.005.146-2.587.288-4.702.323-7.641M3.5 99.933v-4.629l-.285-.138zm217.918-18.538c-.812-.506-.446 4.153-.194 3.985.01-.643-.128-1.144-.067-1.826.061-.69.25-.866.261-2.159M3.5 74.957c-.156.334-.268.877-.08 2.48-.23-.071-.438-.13-.658-.2.042.656.098 1.092.132 1.885.448-2.339.429-.425.43.558 0 1.01.095.342.176-.13zm-.661-10.688c-.086-.204-.144 2.918-.393.748-.02.95-.014 1.769-.025 2.666q-.16.095-.317.2l.115-3.32c-.319 1.362-.435 4.86-.088 6.568l.122-2.693c.04 1.697.083 3.374.121 5.083.444.091.186-1.879.309-4.843.02-.46.571-3.395.156-4.409m.46 2.211c-.218 3.428-.003 4.602.201 5.262v-2.15c-.054-1.15-.083-2.562-.201-3.112m217.807-2.696c-1.161-4.714-.449 5.902-.053 3.88.017-.1-.075-3.438.053-3.88m-1.091-4.216c.055.744.09 1.623.073 3.007.248-.82.196-2.749.493-1.5-.072-3.637-.333-2.51-.566-3.875zM2.746 49.247c.082 3.517.235 4.766.598 2.783l-.25-3.732c-.116.318-.232.637-.348.949m217.269-3.114.395 2.65.171-2.3c-.437-5.434.276-14.522-.566-14.505zM2.44 48.096c-.137-1.885-.032-5.702-.413-4.74l-.033.573c-.042 1.01-.094 3.019.001 3.35.143.364.297.545.445.817m.818-22.694c.275 5.735-.115 12.452.196 18.03a5 5 0 0 0 .046.468V26.026c-.042-.424-.11-.676-.242-.624m216.757 2.752c.033-.215.071-.446.11-.714q-.057-.108-.11-.216zm.166-10.594.19 1.254c-.135-2.943.351-2.993.079-5.87zm-2.152-15.466.218.482h1.768v1.88c.189-.445.372-.967.455-1.88l-.003-.458-.452.003a15 15 0 0 0-1.986-.027m-192.83.084c-1.792.166-2.893.303-4.1.398h4.043a27 27 0 0 1 2.716 0h.29c-.985-.133-1.985-.266-2.95-.398m20.855.398h1.388a.65.65 0 0 1 .274-.16zm20.253-.038c-3.036-.735-2.974-.39-2.26.038h7.741c-1.355-.135-1.972-.282-.653-.416-1.789.117-3.19.253-4.828.378m16.17.038c-1.668-.188-3.306-.32-5.459-.05.696.02 1.194.037 1.55.05zm18.227-1.066c-3.59.335-5.445.882-10.764.7l2.602.366h2.608l.494-.179 7.361.176c.403-.167.799-.334 1.202-.5.65.02 1.294.042 1.944.064q-.242.18-.495.362l3.857-.09a7 7 0 0 1-.803.167h10.56q-.224-.001-.508-.009c-2.569-.084-4.475-.698-8.851-.46-.222.012-1.517.482-3.084.157-.356-.074 1.144-.184.326-.28-.819-.098-4.473-.178-4.761-.409.039.082.267.167.378.25q-.94.06-1.886.116-.09-.216-.18-.431m29.23.806c-3.434.203-5.925-.07-9.391-.005-.47.01.343.228-.713.265h14.522q-.01-.013-.017-.026c-1.567-.004-3.05-.032-4.585-.045l4.481-.13-3.815-.56a46 46 0 0 0-.482.501m18.377-.433c-1.853.238-3.44-.006-5 .05-1.555.055-.963.311-2.791.41-.338.018-1.042-.142-1.875-.024-.26.037-.738.146-1.284.257h11.511c-.175-.23-.342-.456-.561-.693m12.679.693h4.581c-.594-.03-1.039-.1-1.369-.125-2.119-.161-2.053.195-3.333-.187.045.112.08.21.121.312m7.395-.207c-.634.12-1.19.18-1.679.207h2.105a13 13 0 0 1-.426-.207m30.135-.907c-2.458.142-3.422.363-4.546.634 2.86.197 1.925-.073 4.154-.126-.077.17.025.328-.17.508-1.152-.355-4.909-.096-5.78-.079-2.651.053-.572-.296-2.346-.303s-3.869.2-5.319-.146c.026.194.142.395.246.571-2.763.064-2.213-.165-2.498-.195-4.565-.488-7.042-.075-12.264-.025.663.06 1.333.114 2.003.17a85 85 0 0 0-.942.105h30.064c-.597-.179-.427-.356 2.54-.596q-2.943-.04-5.877-.084l1.209-.188 2.648.098zm11.21.245c-1.807.097-3.193.664-3.07.862q.004.004.014.007h1.009c.276-.01.534-.017.666 0h2.32l.344-.16-1.9.083c.416-.322-.65-.514 3.035-.488-.253-.092-.512-.18-.758-.276-.605.015-.997-.064-1.66-.028m2.466.869h3.502c-.044-.061-.083-.123-.129-.184l1.321.067c-.384-.119-.76-.238-1.137-.357zM11.867 2.178c.16.295 5.214.214 6.99.393.285-.053.194-.313-.573-.348-1.814-.082-4.427-.028-6.417-.045m139.857.057 1.944-.01c-.072-.058-.157-.12-.239-.18l-.177-.143c.377.17 3.475.454 4.779.272.655-.092-.836-.415 1.944-.472-2.016.017-3.882.06-5.839.088.175-.096.344-.194.519-.29h-.003l-1.958-.067c-.325.268-.645.535-.97.802"/></svg>