<svg xmlns="http://www.w3.org/2000/svg" width="322" height="84" fill="none" viewBox="0 0 322 84"><path fill="#fff" d="M153.62 80.075c.199.076.15 1.462.358 1.594.125.066 3.323-.53 3.74-.417.121.033.215.07.284.101-.496-.413 2.395-.471 2.321.014-.046.191-2.024.145-2.108.113-.032-.013-.061-.032-.086-.045.443.52-6.381.654-4.893 1.396-1.986.46.258-1.144-1.231-.705-.508.148-.963 1.76-3.682.968h-.008c-.795-.232.102-.626-.043-.764-.055-.055-2.528-.842-.482-.977 3.113-.217.309 1.189 1.972 1.192.214 0 3.314-.908 3.129-1.098-.019-.022-.952.177-1.11.1-.59-.287-.317-.789-.398-.813-.263-.049-5.22.837-5.959.084-.214-.219 7.896-.84 8.196-.743m-18.465 1.031c.199-.018 2.12.535 3.165.52 2.283-.035 3.483-.387 6.091-.064q.642.072 1.397.193c-.795.179-1.152.433-1.395.67-.398.427-.458.802-1.93.584l.578-.433c-3.267.335-7.072-.396-10.906-.442-.972-.013.145.888-1.131.627-1.023-.209-2.156-1.048-1.597-1.222.139-.042 2.221.523 3.259.481 3.066-.124 2.289-.896 2.469-.914M238.29 1.148C241.666.24 250.66-.219 255.016.102c.879.046 5.124.757 5.424.87.575.197-2.727.058-1.281.45.32.06 7.482.799 7.047.248-.79-.127-3.359-.056-3.752-.204-1.694-.65 5.813-.093 11.958.548 4.088.41 7.919.903 8.402.815-.474-.243-.94-.482-1.411-.719 1.417.254 2.854.525 4.325.822a161 161 0 0 0-1.887.228c1.655.319 3.987.54 5.642.983.269.073-.554.407.093.54.647.136.667-.515 1.661-.4 1.065.102 6.227 1.63 9.355 2.863 1.273.483 2.729 1.042 4.892 2.26 2.081 1.679 5.53 1.709 10.976 12.01 1.411 3.03 2.119 7.005 1.99 10.794 1.257 2.258 2.408 5.185 3.093 9.4 1.37 9.194-2.553 17.142-5.557 20.825-2.459 3.183-5.342 5.284-6.619 6.1-3.219 2.047-4.97 2.61-6.84 3.346l-.724.271c-6.438 2.249-8.827 2.47-11.986 3.11-2.934.526-5.598.887-8.217 1.17 2.892-2.303-2.458-.493-2.671-.568-1.26-.361 4.238-1.21 2.033-1.253-3.055.453-6.03.845-8.945 1.207 2.415-.013-3.078 1.956-4.121 1.413.488 1.714-13.11-.339-15.038.362-.406.155 2.343.811-3.99.908-.684.008-.449-.544-.803-.467-.209.045-1.434 1.84-2.843 1.01-.406-.242 1.487-1.148-1.206-1.02-.778.037-1.901.143-3.491.333 3.106 1.584-10.632 1.518-12.991 1.08q.733.332 1.473.662c-2.428-.56-2.853.045-3.397.029-2.185-.072-5.147-.619-7.134-.531-2.322.1-2.341 1.206-5.016.814q.948.353 1.903.704-2.785-.046-5.522-.1c4.247-1.522-.914-.06-1.248-.022-.538.06.237-.551-.662-.465-.092.014.036.579-1.342.661-2.873.17-2.411-.55-3.609-.524-.108.005.268.511-1.784.666-6.476.502.02-.397.282-.469.335-.097-1.929-2.212 3.662-1.527-1.881-.217-2.064-1.161-2.276-1.183-.193-.018-3.417.163-3.593.2-1.575.35-.187.975-.494 1.097-.256.096-4.096-.674-4.952 1.308-1.828-1.757 1.006-1.673 4.096-2.005.445-.379-2.93-.671-3.11-.665-4.319.108-1.904 1.537-2.829 2.51-.138.147-.382.172-.619.165-.591-.02-1.148-.245.012.67-3.865.265-1.541-.582-1.789-.69-.382-.156-1.736.274-1.91.23-.252-.066.607-.56-.387-.686-.168-.017-1.741.839.328 1.14-2.755-.008-2.514.665-3.499-.663-1.83 2.666-1.449-1.47-2.215-1.584-2.044-.293-1.381 1.713-1.483 1.818-.701.666-6.431.235-7.876.596.513-1.493 4.572-.23 5.434-.555 2.912-1.081-4.199-.54-2.128-2.48q-1.326.822-2.664 1.644c-1.733-1.107.647-1.731-3.888-1.093-.7 1.056 3.212-.307 2.451.534-.443.494-3.083.715-3.13.966-.036.302 2.341-.16 1.982.319-.752 1.038-9.645.46-2.936-.367-1.625.085-2.635-1.373-3.931-1.306-.194.01-.396.054-.607.142-.392.165.215.62.656 1.114.378.424.636.879.047 1.209-.566.314-1.901.52-4.696.455-.219-.926 3.617-.399 3.71-.476.134-.109-.63-2.191-.753-2.294-.4-.31-9.697 1.087-11.756.023.58.862-3.296.651-5.926.546-.981-.04-1.776-.051-2.009.054-.216.101.593.85.362.929-1.439.461-5.369-.897-7.205-.95-2.05-.06-1.795.582-1.909.58-.905-.046-.182-.472-.735-.478-.83-.003-6.607-.183-6.91-.103-.086.026.858.776-.409.89-.222.017-.069-.838-3.844-.555-4.56.328 3.149 1.156 1.25 2.012-2.912-1.362-2.834-.088-3.63-.21-.276-.046-2.315-1.19-4.564-1.207a472 472 0 0 0 4.826-.368c-1.566-.233-4.637-.103-5.947-.37-.635-.13-.089-.996-1.479-1.03-.296-.003-1.515 2.114 2.145 1.29.274.784-1.442.214-2.256.396-.123.031-.634 1.296-1.649.448-.249-.22 2.587-3.81-4.498-1.468-.231.074.542.588.316.673-.158.057-1.942-.239-2.153-.187-.208.059.646.623.4.71-1.279.438-2.825-1.693-.259-1.374a470 470 0 0 1-2.551-.92c.852 1.587-1.38.337-2.59.287-7.83-.363-2.67 1.063-4.05 1.457-2.264.602-.372-1.806-3.73-1.38-.283.03 2.724 1.234-1.837.5-.7-.112-1.5-.26-2.564-.481a135 135 0 0 0 3.7.329c-.153-.43-.552-.65-1.051-.744-1.371-.244-3.483.277-3.726.255-3.52-.353-.976-.402-6.52-.703-.495-.034-1.505-.611-2.626-.693-4.608-.317 5.774 1.755 5.847 2.238.236.48-11.01-2.135-11.304-2.552-1.468-1.029 5.107 1.15 4.005.056-.122-.153-4.627-1.264-8.112-2.45-3.49-1.171-4.948-1.649-5.6-1.997-1.312-.772-1.723-2.82-2.127-.715a7 7 0 0 0-.023-.415c-.097-1.584-.746-.462-.943-.52-2.964-.83-3.124-.853-6.218-1.189-.706-.075-1.222-.797-1.49-.734-.154.04.04.753-.701.842-.982.118-7.19-1.555-7.672-2-.432-.437 2.723.265 2.218-.425-2.279-.415-4.536-.614-6.96-1.07-1.01-.193-.441-.522-.876-.602-.17-.028-3.81-.274-3.695-.104.49.481 11.113 1.933 8.235 2.217-.545.058-2.33-1.205-2.164.01-3.045-.58-6.15-1.177-9.648-1.942a125 125 0 0 1-5.934-1.437c-1.195-.33-2.46-.677-4.413-1.362a45 45 0 0 1-1.68-.635 36 36 0 0 1-2.273-1.01 31 31 0 0 1-3.584-2.06c-1.32-.916-3.955-2.706-6.675-6.386A25.3 25.3 0 0 1 .056 39.688C-.432 33.58 2.366 27.081 4.04 24.75c4.286-6.09 6.475-6.736 8.354-8.078 3.116-1.81 4.51-2.171 5.823-2.637 2.383-.754 3.685-.976 5.032-1.232 2.514-.441 4.456-.641 6.345-.829-1.749.464-3.622.809-6.09 1.315-1.322.288-2.57.513-4.932 1.257-1.242.434-2.653.813-5.597 2.481-1.884 1.318-3.82 1.764-8.146 7.62-1.687 2.3-4.53 8.348-4.191 14.555a24.7 24.7 0 0 0 4.765 13.765c4.49 5.7 6.982 6.456 8.79 7.622a34 34 0 0 0 3.703 1.733c1.896.745 3.032 1.086 4.116 1.414 2.104.62 3.643.978 5.128 1.28 1.009.215 4.019.902 3.72.248-1.755-.379-3.684-.752-6.132-1.326-1.244-.299-2.587-.62-4.54-1.242-.97-.319-2.126-.697-3.901-1.491-.989-.46-1.854-.851-3.585-1.926-1.443-.97-3.98-2.484-7.017-6.52C3.33 49.543.826 44.488.971 37.757a24.3 24.3 0 0 1 1.953-8.923c1.093-2.486 2.01-3.819 3.053-5.213a24.6 24.6 0 0 1 4.831-4.766 26 26 0 0 1 2.924-1.886c2.922-1.56 4.2-1.864 5.349-2.24 2.256-.664 3.528-.85 4.765-1.03.21-.029-.44.613.358.543 1.59-.173 5.314-1.489 5.917-1.338.12.032-1.899.957-1.173 1.29 1.834.84 1.837-1.513 3.17-1.669 1.664-2.503 3.451-4.02 4.513-4.919a23 23 0 0 1 2.755-1.916 24 24 0 0 1 1.753-.935c1.081-.518 1.666-.729 2.118-.902.446-.167.718-.26.794-.293.636-.267-.332-.565.31-.847.326-.157 2.307-.615 3.698-.74 1.55-.178 2.918-.209 3.75-.293q.565-.057 1.026-.116c2.09-.25 2.303-.616 2.508-.633.683-.039 1.847.249 3.163.22 6.638-.184 15.535.077 20.04 1.404-4.018-.71-7.927-.575-12.175-.587 1.237-.954-6.316.612-1.899-.427-1.034.112-5.839.035-11.56.575-1.601.17-3.059.324-5.273.792a31 31 0 0 0-2.807.74q-.622.198-1.285.446c-1.693.805-4.17 1.115-9.033 6.048-.593.606-1.236 1.409-1.87 2.363.254-.001.572.003.934.01a21 21 0 0 1 4.446-4.536c1.685-1.25 2.696-1.754 3.675-2.244a23 23 0 0 1 2.322-.978c1.393-.497 2.13-.673 3.02-.893 3.092-.691 4.553-.761 5.987-.932 1.178-.117 2.043-.198 2.375-.264a76 76 0 0 0-2.413-.001c-1.282.043-2.477.079-4.112.289 1.62-.224 2.836-.362 4.08-.51 3.089-.348 5.446-.55 5.788.488 14.479-.076 26.71 1.566 39.15 2.869 2.197.333.98 1.032 4.59 1.148q-1.387-.522-2.78-1.058c1.864.383 9.987 1.53 11.28 1.48.165-.006.419-.679 2.413-.547 1.781.115 2.055.648 3.006.825.792.147 1.679.087 1.914.134.18.037.255.348.687.434 1.359.264.248-.667 1.616.406l-.989.043c.663.103 1.414.258 1.923.408.699.199.969.394.01.469q-.189.015-.448.022c-.414.012-.064-.257-.373-.276-11.384-.774-3.72.322.822.3.36-.001.701-.009 1.012-.023 1.126.497 7.419.535 7.64.62.296.127-.775.41.657.742.297.076 8.793.13 5.753.546-.63.09-4.712-.145-5.689-.167 2.335.922 7.719-.128 8.334-.068 2.476.188-4.712.58.859.807 4.291.165.239-.452 1.878-.636.919-.094 5.819.585 5.654-.13 1.673-.027.711.32.92.353.206.026 3.496-.088 4.579.09.13.022-.261.364-.125.397.267.055 3.456.074 3.585.05.079-.017-.696-.341-.387-.405.361-.073 3.444.108 3.615.034.235-.119-3.57-.178-2.95-.488 1.758.15 4.613.053 5.767-.14-.282.058-1.988-.013-2.582-.066.258-.466 3.925-.259 2.687.04.788-.155.241-.288.683-.447.118-.04 1.248.017 1.466-.048.025-.014-1.149-.257-.918-.336.417-.144 3.864.128 4.148.193.796.173-2.005.125-2.234.303-.032.028 2.366.541 2.404.575.147.348-2.511-.053-2.198.28l1.973.304c-2.52.172-7.194-.192-8.378.154 3.73.014 7.653.23 7.669 1.03.008.337-1.596.483-1.53.574.249.32 2.47.054 2.557.077q.101.03.101.057c-.001.175-3.175.21-3.334.295-.261.146 1.175.792 1.178.925-.048.024-2.306.138-1.534.388.782.25 2.754.277 2.83.303.381.142-3.074.243-3.173.332-.046.045 1.812.314 1.87.389.046.075-1.356.24-1.901.486-.407.184.801.313.592.343-.153.018-3.407.051-3.569.088-.236.052.534.262.427.32-.154.081-1.208.02-1.068.1.116.067 4.211.739 4.189.931-.038.334-4.368-.319-.312.904.033.006 1.001-.118 1.028-.11.362.131-.598.358-.62.476q1.779-.066 3.583-.121c2.915-.09 5.837-.2 8.764-.315-.377-.007-.678-.03-.855-.076 1.231-.206 3.95-.138 5.07-.287.129-.019-.614-.783 1.093-.327.646.18-1.01.444-2.792.59l4.011-.162c.409-.138.701-.352.902-.695-3.566-.364-7.826.624-8.905.668-1.648.087.049-.218-.155-.276-.074-.018-1.48.063-1.511.046-1.045-.818 6.322-.314 8.628-.577q-.938-.166-1.875-.324l2.519-.15c-4.013-.07-.144-.093.822-.928.215-.187-2.399.275.579-.396-2.216.03-1.518-.167-3.51.176.039-.3 4.528-.959 6.301-1.252-6.294.104-2.669.973-8.115.763-.99.435 1.593.19 1.385.265-.749.267-2.536.053-4.647.925-.344.14 1.145.434-1.039.534-.242.01-1.63-.225-1.626-.25.175-.253 1.554-.243 1.608-.35.047-.1-1.46.048-1.489.024-.058-.302 1.274-.196 1.079-.28-.427-.194-5.962-.46 1.241-.768-5.966.756-.753.399 1.573.103.592-.076.735-.278 1.58-.406 1.085-.166 2.365-.166 2.927-.243.605-.087-2.861-.29 2.131-.531-2.558-.272-7.015.567-9.513.444-5.036-.21 3.466-1.033 4.353-1.184.234-.038-.567-.227-.411-.257.257-.049 5.096-.357 5.568-.626.467-.269-1.769.17-1.931-.046-.11-.141 5.723-.987 2.555-.791-2.184.147-6.169 1.14-6.87.559 3.193-.37 6.394-.75 9.604-1.125a344 344 0 0 0-5.298-.24c3.59-.476 6.718-.497 10.141-1.246-8.284.001 2.648-1.006 2.777-1.126.037-.077-3.248-.448-3.776-.512 2.858-.623 11.69-1.768 6.494-2.118.94.1 3.194-.688 3.174-.73-.307-.395-5.253.49-4.457.02.922-.552 2.253-.133 3.697-.352 7.435-1.106 5.333-3.208 12.945-3.665l-.456-.21a265 265 0 0 1 25.297-1.059M92.565 81.278c-1.362-.887 4.25.3 4.608.128.309.878-4.254.108-4.608-.128m3.716-.88c-1.271-.92 5.28.09 2.195.373-.134.015-2.13-.326-2.195-.373m84.502-1.674c-.657-.103-4.334.417-4.458.516-.944.862 4.081.445 4.458-.516m-22.127-.696c-2.651.156.367 1.048-3.213.452 1.444.863 3.845.7 3.213-.452m11.227.836c1.639-.185 3.256-2.534 1.241-2.089-.215.05-1.443 1.783-1.241 2.089m-7.099-.618c1.569-.625-1.857-.961-1.521-.227.05.04 1.46.254 1.521.227m-53.23-.404c-.103-.106-2.143-.441-2.125-.06.034.474 2.434.38 2.125.06m39.574.085c.309-.213-1.928-.984-2.572-.746-1.467.548 1.952 1.18 2.572.746m-20.618-.314c-.742-.217-3.247-.026-2.119.353.181.055 2.19-.008 2.119-.353M60.564 73.25c.16-.093.732-.067 1.665.194.982.27 2.21.779 5.447 2.099-.135.525-.08.365-1.018.08-3.588-1.108-4.384-1.405-5.232-1.747-.75-.314-1.021-.53-.862-.626m226.339 2.031c-.005-.345-3.257-.1-3.512.535.621-.106 3.479-.306 3.512-.535m8.913-1.858c1.924-.726-.214-.328-1.948.01-1.75.347-3.301.727-1.826.743.105.024 3.473-.639 3.774-.753m-241.08-1.374c.494-.444 1.75-.047 2.532.163-.175.333-1.87-.14-2.532-.163M69.2 71.46c-1.369-.368-3.609-1.785-3.564-.905.661.134 2.925 1.128 3.564.905m-20.821-.71c-.159-.849 2.823.26 3.83.333.149.851-2.73-.261-3.83-.332m-7.68-.411c-1.453-.837 3.764.156 2.01.385-.084.01-1.923-.342-2.01-.385m-12.745-2.402c.857-.337 3.623.416 4.847.643-.884.453-3.178-.287-4.847-.643m30.82-.181c-.337-.064-.407.53-.368.563 1.133 1.013 1.27-.387.368-.563m-4.618-.159c-.636-.577-1.772.331-1.183.836.627.17 1.249-.772 1.183-.836m3.803.834c.816-.09-.37-1.368-1.564-.58.55.017 1.489.59 1.564.58m222.866-1.4q.28.151.482.252c.541.265.765.335.853.343a1 1 0 0 0 .18-.02 84 84 0 0 0-1.707-.684zm-1.159-1.21c.05.136.279.344.754.647.124.082.286.103.462.092a22 22 0 0 1-1.101-.664zm3.951.466a.3.3 0 0 1-.115.002c.37.087.355.07.115-.002m-1.15-.275c.483.201.606.2.661.164l.007-.019a29 29 0 0 0-.769-.191q.053.022.101.046m-246.822-.825c-.342-.189-2.17-.327-2.234-.126-.187.615 3.667.9 2.234.126m248.694-.715q0 .022.01.025.035.005-.01-.025m.382-2.772c.104.223.242.394.376.27a.3.3 0 0 0 .087-.15h-.004a1.7 1.7 0 0 1-.459-.12m-.481-2.793c-1.079-.245-2.24-.381-1.935.042.281.313 2.957.615 2.919.667.059.057-.118.193-.175.348-.072.15.057.341.473.44.052-.237.624-.71.578-.81.022-.12-.735-.431-1.86-.687M122.802 31.141q-1.106 0-2.21.196-1.105.195-2.08.585a8.7 8.7 0 0 0-1.821.844q-.78.521-1.689 1.236-.91.714-1.625 1.43a16 16 0 0 0-1.365 1.56q-.651.845-1.236 1.82-.52.975-.974 2.145a10.3 10.3 0 0 0-.651 2.34q-.13 1.17-.13 2.144t.13 2.146q.195 1.17.455 2.274.325 1.106.715 2.21.455 1.04.976 1.886t1.365 1.82q.845.91 1.689 1.69a27 27 0 0 0 1.691 1.235q.844.52 1.885.91 1.104.325 2.014.52.91.13 2.08.13a19.2 19.2 0 0 0 4.486-.78 13.4 13.4 0 0 0 2.014-.716 10.8 10.8 0 0 0 1.755-1.104q.845-.65.78-.585l.26-.195q.326-.261.521-.585.156-.26.227-.52.16-.3.162-.65 0-.33-.094-.613a2 2 0 0 0-.101-.363 1.6 1.6 0 0 0-.39-.65l-.069-.065a1.5 1.5 0 0 0-.29-.239l-.1-.07a2.045 2.045 0 0 0-.84-.34 1.6 1.6 0 0 0-.781-.066q-.065.014-.133.033a2.5 2.5 0 0 0-.386.097q-.326.13-1.365.91-1.04.781-2.081 1.106t-2.145.52-2.079.195a6.3 6.3 0 0 1-1.886-.455 7.6 7.6 0 0 1-1.819-1.04 17 17 0 0 1-1.561-1.495 9.8 9.8 0 0 1-1.104-1.625 13 13 0 0 1-.781-1.95 20 20 0 0 1-.389-2.145 12 12 0 0 1-.066-2.146 7.2 7.2 0 0 1 .455-2.08q.39-1.04.975-1.95.585-.975 1.301-1.69.78-.78 1.559-1.43a7.6 7.6 0 0 1 1.691-1.105 7.2 7.2 0 0 1 1.819-.52q.91-.195 2.146-.13a12 12 0 0 1 2.274.325q1.106.195 1.886.39l.779.195.261.066h.585q.325-.066.585-.13.26-.066.455-.196.26-.195.454-.39a10 10 0 0 0 .325-.454q.13-.26.196-.52a3 3 0 0 0 .064-.586 1.06 1.06 0 0 0 0-.52 2.3 2.3 0 0 0-.194-.584 1.726 1.726 0 0 0-1.236-1.105q-.26-.13-1.104-.326-.78-.195-2.016-.455a16 16 0 0 0-2.21-.324 10 10 0 0 0-2.014-.066m70.099-.195q-.91-.065-2.08.52-1.17.521-1.819 1.236a8 8 0 0 0-1.17 1.494q-.455.78-.78 1.625l-.521 1.69q-.195.846-.39 1.755l-.389 1.82a46 46 0 0 1-.325 1.95q-.196.975-.391 2.015t-.39 2.21q-.13 1.17-.259 2.406-.13 1.17-.326 2.665-.13 1.43-.195 2.404a45 45 0 0 1-.194 2.016l-.066 1.17v.26q0 .26.066.52.13.26.259.454l.26.39.391.39q.26.13.519.196l.521.13q.26 0 .519-.066.26-.065.455-.13a4 4 0 0 0 .456-.26q.194-.195.325-.39a2.6 2.6 0 0 0 .324-.39 1.15 1.15 0 0 0 .131-.52q.064-.26.13-1.365.13-1.17.194-2.08.065-.909.195-2.34.195-1.43.326-2.6.13-1.17.259-2.275.195-1.104.39-2.08.195-1.04.325-1.95.195-.975.391-1.885.195-.974.455-2.144.26-1.235.585-2.21.324-1.04.974-1.756.65-.78 1.366.195a7 7 0 0 1 1.104 2.015q.455 1.04.715 1.95.326.845.585 1.755.26.845.391 1.69.195.846.325 1.755.194.91.324 1.82.196.91.325 1.82.13.845.26 1.82a165 165 0 0 0 .585 3.77q.195 1.106.261 2.081l.13.91v.129q.02.104.054.206l.01.055a2.6 2.6 0 0 0 .247.471q.169.276.338.503.26.195.585.39.326.13.65.195.39.001.715-.064l.092-.037q.085-.012.168-.029.326-.13.586-.325.007-.009.015-.017.181-.14.309-.308.2-.249.283-.498.073-.173.108-.347.11-.278.076-.555a3.4 3.4 0 0 0-.012-.81 62 62 0 0 0-.26-1.755 47 47 0 0 0-.325-2.47q-.195-1.235-.325-2.144-.13-.976-.324-1.886l-.261-1.82q-.13-.975-.324-1.885a16 16 0 0 0-.391-1.95 15 15 0 0 0-.519-2.015q-.261-.975-.585-1.95a24 24 0 0 0-.715-1.885q-.326-.974-1.04-2.144-.715-1.236-1.365-1.886a5.3 5.3 0 0 0-1.561-1.17 3.65 3.65 0 0 0-1.755-.455m97.131 28.019c4.825-2.14-.579-.925-1.37-.366-.094.065-.09.414-.381.848-.13.212-.375.463-.384.602.019.057.064.113.623-.082.298-.112.735-.276 1.655-.777.268-.194.55-.337.89-.523q-.537.158-1.033.298m-255.554.753c-.437.172-.656.325-.271.341.203-.143.32-.27.271-.34m45.79-28.902a9.2 9.2 0 0 0-3.25.196q-1.56.39-3.055 1.17-1.43.78-2.795 2.145-1.3 1.365-2.08 2.73a20 20 0 0 0-.947 2.126 7 7 0 0 0-.289.604q-.13.39-.585 1.82-.455 1.364-.585 2.794-.065 1.43.196 3.38a22 22 0 0 0 .844 3.705 14.5 14.5 0 0 0 1.69 3.25q1.105 1.43 2.47 2.405t2.861 1.56q1.56.585 3.185.78a9.8 9.8 0 0 0 3.185-.13 12.2 12.2 0 0 0 2.99-1.04 13.8 13.8 0 0 0 2.535-1.755q1.17-.974 2.08-2.21a42 42 0 0 0 1.754-2.729 16 16 0 0 0 1.366-3.186 12.2 12.2 0 0 0 .65-3.575q.065-1.95-.52-3.575a14.5 14.5 0 0 0-1.366-3.12 17 17 0 0 0-2.014-2.73 15 15 0 0 0-2.406-2.275 10.6 10.6 0 0 0-2.73-1.56 9.8 9.8 0 0 0-3.185-.78m89.184 0a9.2 9.2 0 0 0-3.25.196q-1.56.39-3.055 1.17-1.43.78-2.795 2.145-1.3 1.365-2.08 2.73a20 20 0 0 0-.946 2.126 7 7 0 0 0-.289.604q-.13.39-.585 1.82-.454 1.364-.585 2.794-.065 1.43.195 3.38.26 1.885.845 3.705.65 1.756 1.69 3.25 1.105 1.43 2.47 2.405t2.861 1.56q1.559.585 3.184.78a9.8 9.8 0 0 0 3.185-.13 12.2 12.2 0 0 0 2.99-1.04 13.8 13.8 0 0 0 2.535-1.755 12.6 12.6 0 0 0 2.08-2.21 42 42 0 0 0 1.755-2.729 16 16 0 0 0 1.365-3.186q.584-1.69.65-3.575.065-1.95-.52-3.575a14.5 14.5 0 0 0-1.365-3.12 17 17 0 0 0-2.015-2.73 14.8 14.8 0 0 0-2.405-2.275 10.6 10.6 0 0 0-2.73-1.56 9.8 9.8 0 0 0-3.185-.78m89.756 0a9.2 9.2 0 0 0-3.25.196q-1.56.39-3.055 1.17-1.43.78-2.795 2.145-1.3 1.365-2.08 2.73a20 20 0 0 0-.946 2.126 7 7 0 0 0-.289.604q-.13.39-.585 1.82-.455 1.364-.585 2.794-.065 1.43.195 3.38.26 1.885.845 3.705.65 1.756 1.69 3.25 1.105 1.43 2.47 2.405t2.86 1.56q1.56.585 3.185.78a9.8 9.8 0 0 0 3.185-.13 12.3 12.3 0 0 0 2.99-1.04 13.8 13.8 0 0 0 2.535-1.755 12.6 12.6 0 0 0 2.08-2.21 42 42 0 0 0 1.755-2.729 16 16 0 0 0 1.365-3.186q.584-1.69.65-3.575.065-1.95-.52-3.575a14.5 14.5 0 0 0-1.365-3.12 17 17 0 0 0-2.015-2.73 15 15 0 0 0-2.405-2.275 10.6 10.6 0 0 0-2.73-1.56 9.8 9.8 0 0 0-3.185-.78m-52.318.52a2.1 2.1 0 0 0-.519.065 2.6 2.6 0 0 0-.521.195 1.7 1.7 0 0 0-.455.326q-.194.195-.389.455-.13.195-.196.455a14 14 0 0 0-.13.585v1.104q.066.78.066 2.016v2.404q.064 1.235.064 2.276v6.304q0 .91.066 2.08.065 1.106.195 2.21.195 1.041.585 2.146.454 1.105 1.105 2.08.715.975 1.56 1.755.91.78 1.755 1.17.845.324 2.144.52 1.365.13 2.731-.065 1.43-.26 2.274-.65a9 9 0 0 0 1.625-.975q.78-.586 1.366-1.366.65-.78.974-1.69.39-.975.585-2.21a6.8 6.8 0 0 0 .066-2.47 6.5 6.5 0 0 0-.715-2.405q-.585-1.17-1.3-1.95a9 9 0 0 0-1.625-1.494 6.6 6.6 0 0 0-2.08-.976 10.2 10.2 0 0 0-2.34-.52q-1.17-.13-2.535.13a8.2 8.2 0 0 0-1.886.515v-4.415q0-1.3-.064-2.535 0-1.234-.066-2.08v-.78l-.064-.26q0-.323-.13-.584a.96.96 0 0 0-.261-.455 1.6 1.6 0 0 0-.389-.39 1.7 1.7 0 0 0-.456-.326 1.15 1.15 0 0 0-.519-.13 2.1 2.1 0 0 0-.521-.064m-159.376-.65-.26.066q-.26 0-.519.13-.26.065-.52.26a1.3 1.3 0 0 0-.455.389q-.13.195-.26.455a3 3 0 0 0-.144.344q-.155.165-.311.372-.13.195-.26.52a2.4 2.4 0 0 0-.066.584v1.106q.066.78.13 1.885.066 1.04.13 2.144.066 1.04.066 2.146.065 1.04.065 2.144v4.03q0 1.04.065 2.145.064 1.04.13 2.211.065 1.104.065 2.08a399 399 0 0 1 .196 2.876l-.002.113q.066.39.196.78l.39.651q.26.26.585.454.106.052.207.096.027.017.053.035.325.13.715.194.13-.001.255-.008.132.008.264.008.066-.012.131-.025l.585.35q.39.13.78.13.17 0 .328-.012.28.012.647.012.845.001 1.95-.064a28 28 0 0 0 2.145-.195l1.95-.26a24 24 0 0 0 1.885-.455q.975-.325 1.82-.78a6.5 6.5 0 0 0 1.69-1.236q.78-.78 1.43-1.885t.91-2.144q.324-1.106.26-2.016a9 9 0 0 0-.325-1.885q-.195-.975-.845-2.014-.65-1.04-1.43-1.625a12 12 0 0 0-1.626-1.106 9.8 9.8 0 0 0-1.95-.844l-.136-.05q.334-.36.591-.73a6.4 6.4 0 0 0 .976-1.756q.39-.975.39-2.014a6.5 6.5 0 0 0-.196-2.08 5 5 0 0 0-.845-1.82q-.52-.846-1.495-1.626-.975-.844-1.884-1.17a9 9 0 0 0-2.08-.584q-1.17-.26-2.795-.326a63 63 0 0 0-2.536-.064zm89.439.585a1.06 1.06 0 0 0-.52 0q-.26 0-.585.066a2.5 2.5 0 0 0-.52.194q-.195.13-.455.325-.195.195-.39.455a2.6 2.6 0 0 0-.195.52 13 13 0 0 0-.13.586v1.04q.065.78.065 1.755v2.08q.065 1.04.065 2.144v2.016q0 .975.065 1.95t.065 2.015v2.08q0 .975.065 2.08.066 1.105.13 2.079.065.91.13 2.08.13 1.17.13 1.69v.52l.002.014-.002.117q.065.39.195.78.13.324.39.65.254.253.569.444.102.075.211.14.39.131.715.196.14-.001.278-.01a4 4 0 0 0 .242.01q.39-.065.715-.195.39-.195.65-.456.26-.324.455-.65.119-.2.164-.426a1.4 1.4 0 0 0 .096-.483q0-.136-.018-.273.018-.299.018-.703 0-.78-.065-1.82a34 34 0 0 0-.195-2.08l-.13-2.08v-2.08q0-.18-.003-.358.066-.015.133-.032.16-.08.296-.186.465.576 1.069 1.292.715.78 1.365 1.56l1.3 1.56q.65.78 1.365 1.56t1.56 1.56 1.56 1.495q.715.65 1.366 1.3l.649.65.26.26q.171.102.342.187.056.037.113.073.18.07.38.122.298.087.595.137.345-.001.638-.104a2 2 0 0 0 .532-.22q.326-.195.585-.456.132-.164.229-.327.187-.26.291-.517.13-.39.13-.78 0-.391-.13-.716a1.64 1.64 0 0 0-.39-.65 2.5 2.5 0 0 0-.244-.26 8 8 0 0 0-.406-.39 17 17 0 0 0-1.235-1.235 47 47 0 0 0-1.495-1.43l-1.43-1.43q-.65-.714-1.365-1.494-.65-.78-1.43-1.69-.78-.975-1.56-1.82a72 72 0 0 1-1.235-1.495l-.014-.017q.56-.568 1.119-1.089a58 58 0 0 0 1.56-1.495l1.495-1.495q.78-.78 1.495-1.43.78-.715 1.625-1.495.844-.78 1.17-1.04l.39-.325.325-.194q.213-.172.37-.372l.02-.019q.261-.26.39-.585.056-.171.087-.343a1.6 1.6 0 0 0 .057-.566q.021-.248-.042-.47a2 2 0 0 0-.076-.3 2 2 0 0 0-.221-.53 1.5 1.5 0 0 0-.333-.386 1.5 1.5 0 0 0-.382-.33 2 2 0 0 0-.715-.26 1.6 1.6 0 0 0-.64-.08 1.47 1.47 0 0 0-.916.238 2.6 2.6 0 0 0-.588.362l-.095.1q-.14.104-.296.225-.91.651-1.755 1.431t-1.625 1.494-1.559 1.495l-1.691 1.69a47 47 0 0 1-1.625 1.56 64 64 0 0 1-1.505 1.447q-.014-.606-.054-1.186v-2.08q0-1.105-.066-2.08v-1.82l-.065-.78-.065-.26q0-.26-.13-.52a.97.97 0 0 0-.259-.455 4 4 0 0 0-.391-.455 1.7 1.7 0 0 0-.455-.325 2.3 2.3 0 0 0-.585-.196m89.756 0a1.06 1.06 0 0 0-.52 0q-.26 0-.585.066a2.5 2.5 0 0 0-.52.194q-.195.13-.455.325-.195.195-.39.455a2.5 2.5 0 0 0-.195.52q-.066.261-.13.586v1.04q.065.78.065 1.755v2.08q.066 1.04.065 2.144v2.016q0 .975.065 1.95t.065 2.015v2.08q0 .975.065 2.08t.13 2.079q.064.91.13 2.08.13 1.17.13 1.69v.52l.002.014-.002.117q.065.39.195.78.13.324.39.65.254.253.569.444.102.075.211.14.39.131.715.196.138-.001.278-.01.126.009.242.01.39-.065.715-.195.39-.195.65-.456.26-.324.455-.65.119-.2.164-.426a1.4 1.4 0 0 0 .096-.483q-.001-.136-.018-.273.017-.299.018-.703 0-.78-.065-1.82a34 34 0 0 0-.195-2.08l-.13-2.08v-2.08q0-.18-.003-.358.066-.015.133-.032.16-.08.296-.186.464.576 1.069 1.292.715.78 1.365 1.56l1.3 1.56q.65.78 1.365 1.56t1.56 1.56 1.56 1.495q.716.65 1.365 1.3l.65.65.26.26q.17.102.341.187.057.037.114.073.18.07.38.122.297.087.595.137.344-.001.638-.104a2 2 0 0 0 .532-.22q.326-.195.585-.456.13-.164.229-.327.187-.26.291-.517.13-.39.13-.78 0-.391-.13-.716a1.64 1.64 0 0 0-.39-.65 2.5 2.5 0 0 0-.244-.26 8 8 0 0 0-.406-.39 17 17 0 0 0-1.235-1.235 47 47 0 0 0-1.495-1.43l-1.43-1.43q-.65-.714-1.365-1.494-.65-.78-1.43-1.69-.78-.975-1.56-1.82a69 69 0 0 1-1.235-1.495l-.014-.017q.56-.568 1.119-1.089a60 60 0 0 0 1.56-1.495l1.495-1.495q.78-.78 1.495-1.43.78-.715 1.625-1.495t1.17-1.04l.39-.325.325-.194q.213-.172.37-.372l.02-.019q.26-.26.39-.585.056-.171.087-.343a1.6 1.6 0 0 0 .057-.566q.021-.248-.042-.47a2 2 0 0 0-.077-.3 2 2 0 0 0-.22-.53 1.5 1.5 0 0 0-.333-.386 1.5 1.5 0 0 0-.382-.33 2 2 0 0 0-.715-.26 1.6 1.6 0 0 0-.641-.08 1.5 1.5 0 0 0-.594.08q-.131.046-.322.158a2.7 2.7 0 0 0-.588.362l-.094.1q-.141.104-.296.225-.91.651-1.755 1.431t-1.625 1.494-1.56 1.495l-1.69 1.69a48 48 0 0 1-1.625 1.56 64 64 0 0 1-1.505 1.447q-.014-.606-.055-1.186v-2.08q0-1.105-.065-2.08v-1.82l-.065-.78-.065-.26q0-.26-.13-.52a.96.96 0 0 0-.26-.455 4 4 0 0 0-.39-.455 1.7 1.7 0 0 0-.455-.325 2.3 2.3 0 0 0-.585-.196M36.707 58.401a6 6 0 0 0-.865.185 14.6 14.6 0 0 0-.893.654c.303.117 1.58-.392 1.758-.839m251.023.79c-.06-.004-.13.014-.125.02-.01.01.05-.003.125-.02m-6.373-5.104a1.3 1.3 0 0 0-.585 0 1.15 1.15 0 0 0-.519.13l-.261.064-.306.245q-.018.014-.037.027a2.2 2.2 0 0 0-.567.508 3.6 3.6 0 0 0-.324.715q-.037.182-.053.385l-.013.07.003.13q-.002.065-.003.131 0 .39.13.78.12.297.35.595.162.242.365.444.326.195.65.325.39.13.781.13l.085-.003.174.003q.3-.05.561-.138l.284-.057.13-.064q.065-.066.325-.196.26-.195.39-.39a3.5 3.5 0 0 0 .325-.52q.13-.26.195-.52a2 2 0 0 0 .066-.52q-.001-.325-.131-.585a1.5 1.5 0 0 0-.194-.52 1.8 1.8 0 0 0-.326-.455 1.3 1.3 0 0 0-.455-.39 1 1 0 0 0-.519-.26 2.1 2.1 0 0 0-.521-.064m-241.142.057c-.506.093-3.032 1.125-1.796 1.325a2 2 0 0 0 .204.017c.426-.324.897-.709 1.416-1.177q.087-.08.176-.165m172.265-6.882a5.7 5.7 0 0 1 2.08.26q1.04.324 1.691 1.04.714.714.974 1.754.261 1.041 0 1.95-.195.91-.974 1.625-.715.65-1.885.91a3.62 3.62 0 0 1-2.146-.13q-1.04-.39-1.625-1.105a5.2 5.2 0 0 1-.844-1.69 24 24 0 0 1-.325-2.21q-.03-.564-.045-1.06.305-.256 1.085-.694 1.04-.65 2.014-.65m-171.47 6.95q-.299.309-.569.568c1.224-.1 3.022-.29.569-.568m37.113-18.52a5.24 5.24 0 0 1 3.054.13 6.9 6.9 0 0 1 2.6 1.43q1.17.974 2.146 2.404 1.04 1.366 1.495 2.796a5.9 5.9 0 0 1 .325 2.86q-.131 1.43-.846 2.99-.715 1.495-1.69 2.86t-2.275 2.34a6.9 6.9 0 0 1-2.794 1.17q-1.496.26-3.185-.26a8 8 0 0 1-2.926-1.69 7.3 7.3 0 0 1-1.82-2.666 16.4 16.4 0 0 1-.714-3.054q-.195-1.56.194-3.316l.131-.601q.2-.78.454-1.673.028-.082.058-.163a2 2 0 0 0 .072-.162q.03-.087.05-.173.42-1.083 1.056-2.037.844-1.236 1.95-2.016a7.1 7.1 0 0 1 2.665-1.17m89.184 0a5.24 5.24 0 0 1 3.055.13q1.495.454 2.6 1.43 1.17.974 2.145 2.404 1.04 1.366 1.495 2.796.52 1.43.326 2.86-.131 1.43-.846 2.99a19 19 0 0 1-1.69 2.86q-.975 1.365-2.275 2.34a6.9 6.9 0 0 1-2.795 1.17q-1.494.26-3.185-.26a7.96 7.96 0 0 1-2.925-1.69 7.3 7.3 0 0 1-1.82-2.666 16.4 16.4 0 0 1-.714-3.054q-.195-1.56.194-3.316.07-.325.131-.601.2-.78.454-1.673.028-.082.057-.163a2 2 0 0 0 .073-.162q.029-.087.05-.173.42-1.083 1.055-2.037.846-1.236 1.95-2.016a7.1 7.1 0 0 1 2.665-1.17m89.756 0a5.24 5.24 0 0 1 3.055.13q1.495.454 2.6 1.43 1.17.974 2.145 2.404 1.04 1.366 1.495 2.796.52 1.43.325 2.86-.13 1.43-.845 2.99a19 19 0 0 1-1.69 2.86q-.976 1.365-2.275 2.34a6.9 6.9 0 0 1-2.795 1.17q-1.495.26-3.185-.26a7.96 7.96 0 0 1-2.925-1.69 7.3 7.3 0 0 1-1.82-2.666 16.4 16.4 0 0 1-.715-3.054q-.195-1.56.195-3.316.07-.325.131-.601.198-.78.454-1.673.028-.082.057-.163a2 2 0 0 0 .073-.162 3 3 0 0 0 .05-.173q.42-1.083 1.055-2.037.845-1.236 1.95-2.016a7.1 7.1 0 0 1 2.665-1.17M54.08 46.871q1.04 0 2.08.194 1.04.195 2.08.78t1.43 1.56.13 1.95a3.3 3.3 0 0 1-.975 1.56 4.04 4.04 0 0 1-1.625.91q-.91.26-1.95.455l-2.08.26q-.975.066-2.145.13h-.829q-.04-.675-.081-1.3-.065-1.04-.13-2.145 0-1.104-.065-2.144a37 37 0 0 1-.064-1.886h.064q.324-.065.585-.13.26-.13 1.365-.13 1.17-.064 2.21-.064m227.212-15.795q-.975 0-2.015.39-.975.39-1.885 1.104-.844.716-1.755 1.886a24 24 0 0 0-1.43 1.885l-.52.714-.13.26q-.065.26-.129.585a2.4 2.4 0 0 0 0 1.106l.259.52q.13.258.325.454.195.195.456.39l.519.26.521.13q.324 0 .585-.065l.519-.13q.326-.13.521-.26.26-.195.389-.39.195-.26.651-1.04.519-.78 1.17-1.56a4 4 0 0 1 1.625-1.104q.974-.39 1.884-.066.91.26 1.105 1.3.26 1.04-.13 2.08-.39.975-1.17 1.95-.715.975-1.365 1.755-.585.715-1.105 1.56a10.2 10.2 0 0 0-.78 1.951 12 12 0 0 0-.455 2.015l-.065.91.065.39q.065.39.195.714.195.326.455.65.326.261.651.456.325.129.715.194.129 0 .258-.008.13.008.261.008a3.6 3.6 0 0 0 .683-.183q.015-.006.032-.011a1.63 1.63 0 0 0 .746-.492q.051-.046.1-.093.26-.326.389-.65.047-.12.075-.249a2 2 0 0 0 .055-.207q.065-.39.066-.78.065-.39.389-1.3.325-.974.975-1.82l1.431-1.82q.714-.975 1.299-2.08.586-1.17.91-2.47.39-1.365.39-2.404 0-1.04-.519-2.21-.52-1.236-1.236-1.95-.714-.78-1.559-1.17-.846-.456-2.146-.78-1.3-.326-2.275-.325m-244.35 10.9c1.553 1.385 2.035 1.703 2.32 1.97q.005.001.008.005c.221.2.18.492-.07.665q.256.248.455.417c.948.82 1.281.965 1.35.973.126-.02-.854-.778-1.029-1.057-.013-.02.072-.035.195-.047-.381-.425-.93-1.07-1.795-2.067-.278-.375-.604-.781-.954-1.251l-.822-.104q.171.255.342.495m2.607 1.222c1.135 1.17 1.632 1.457 1.927 1.654.537.308.223-.023-.474-.563-.385-.323-.819-.613-1.49-1.135zm9.972-7.821q.695.015 1.504.053 1.365.066 2.34.326 1.04.195 1.69.91t.455 1.69q-.195.909-.975 1.56a10.3 10.3 0 0 1-1.755 1.17q-.91.52-2.08.91-.484.143-.856.272-.014-.624-.054-1.248 0-.974-.066-2.144-.064-1.235-.13-2.34-.036-.62-.073-1.16m236.488-9.026a.2.2 0 0 0 .003.119c.07.245.324.186.284.098-.008-.07-.211-.127-.287-.217m-1.614-3.311c-.209-.032-.872.03-2.394.69-.858.381-1.933.983-2.756 1.529-.057.036-.119.08-.185.124q.579.118 1.146.238c-.005-.16.012-.291.149-.331.068-.022.299-.035.632-.046a30 30 0 0 1 1.568-.993c.409-.248.756-.454 1.062-.635-.281-.024-.563-.05-.807-.059.298-.326.994-.416 1.564-.4a.4.4 0 0 0 .049-.043q.02-.047-.028-.074m-1.017-.508c-.605.254-1.266.506-2.744 1.368-.349.207-.724.442-1.126.714-.303.206-.563.384-.944.67l.368.073c3.116-2.431 3.765-2.422 4.446-2.825m1.742-.463c-.059-.034-.195-.055-.826.133.402-.052.578.145.724.307.141.164.269.295.275.225-.008-.1-.155-.16-.2-.238-.057-.075-.051-.155-.018-.233.029-.076.092-.153.045-.194m-1.021.176c-.188.06-.419.148-.721.287q.418-.166.727-.271l.189-.06a1.4 1.4 0 0 0-.195.044m-246.153-2.34c.422.297 1.058.718 1.852 1.384q.458.065.919.128c-1.02-.948-1.836-1.538-2.498-1.934q-.14.21-.273.422m-.604 1.031 1.324.193c-.392-.3-.717-.528-.956-.7l-.058-.04q-.16.272-.31.547m-.167-.864q-.22.377-.428.777.19.029.392.058.162-.325.332-.64zm-1.343-.802q-.344.615-.687 1.296l-.027.052c.247.032.534.074.852.12q.27-.55.553-1.07-.403-.24-.691-.398m1.63.32q.138.087.285.183.123-.213.25-.42a9 9 0 0 0-.29-.154q-.123.191-.245.39m-1.203-.698q.12.063.26.14.13.073.27.156l.192-.328q-.247-.102-.456-.187c-.069.05-.157.129-.266.22m31.521-4.688c.436.647.92 1.454 1.367 2.523.451.518.953 1.141 1.515 1.909a20 20 0 0 0-1.086-2.815 24 24 0 0 0-1.796-1.617m105.482 2.087c1.433.119-2.141.562-2.54.282-.073-.05 2.266-.303 2.54-.282m-22.212-.157c-1.229-.556-2.237.685-.406.41.089-.014.456-.383.406-.41m29.22-.268c.074.142-1.887.324-2.059.314-1.106-.068 1.328-.346 2.059-.314m-7.283-.192c1.103.057-1.327.336-2.055.31-.072-.128 1.886-.317 2.055-.31m-27.127.016c-.732.026-2.595-.07-3.012-.022-1.464.17 2.313.426 3.012.022m4.277-.9c-1.613-.412-.983.971-.781 1.025.83.209 3.614-.345 4.185-.472-4.202.217-2.644-.36-3.404-.552m-16.22.418c-.79-.056-3.132-.208-3.515.04.857-.038 3.192.213 3.515-.04m-1.812-.752c-1.239-.354-1.495.635-.093.352.055-.011.139-.332.093-.352m-68.909-3.238c.33.284.777.636 1.668 1.655q.08.105.173.22c.355.252.766.557 1.257.947.265.228.552.458.873.73-.272-.43-.522-.795-.728-1.107q-.418-.539-.763-.96c-1.52-.968-2.38-1.464-2.797-1.735q.12.091.317.25m62.012 2.761c-.816-.432-1.699.554-.401.608.386.012.486-.556.401-.608m22.858-.688c-1.174-.166-2.643.432-.151.518q-1.305.128-2.608.262c3.274.357 2.995-.48 3.933-.435 1.312.063 1.244.734.992.947 1.052-.414 5.623-.384 8.271-.42-2.336-.192-6.124-.53-8.418-.668-.655-.04-1.28.14-1.837.114-.892-.044-.118-.307-.177-.318zm29.191-.18c-2.767.734-.143.34-.679.576-.431.187-2.068.225-1.108.42-1.263-.19-6.665.41-6.91.38h.007c-.145-.015.194-.7 1.204-.709 3.17-.026.885.636 7.486-.668m-61.003.547c-2.341-.61-.861.537.463.402.053-.013-.403-.385-.463-.402m-48.987.358a16 16 0 0 0-.29-.425l-.004-.002q.143.2.294.427m76.117-.311c-.176-.021-3.84.068-3.593.248.494.116 5.711.016 3.593-.248m-9.584-.969c-.838-1.17-1.073.658-2.66-.342-2.007 1.36 5.701.137 6.705 1.282-8.474-.226 5.649 1.179-.344-.578 4.904.677 1.588-.183 2.33-.384.793-.21 3.57.078 3.411-.322h-.005l-5.063-.014c1.692.916-1.767.604-2.963-.17q-.706.262-1.411.528m25.874.991c-1.337-.027-3.407-.214-4.12.067 1.335.02 3.403.198 4.12-.067m18.171-.957c-.456.26-5.635.899-5.517.646.105-.22 4.701-.558 5.517-.646m-47.835.056c-1.708-.405-.864.77.379.495.072-.016-.3-.475-.379-.495M24.59 11.99c-.073.425-3.223.602-5.343 1.317.135-.26 1.436-.64 2.58-.856 1.154-.225 2.206-.334 2.763-.461m126.273.456c-.143.018.637.556-.215.708 1.658-.28 9.32.07 9.72.031.306-.032-2.039-.61 1.621-.21h.004c-2.699-.872-6.266-.054-6.661-.07-.393-.031.204-.377.115-.389-.209-.027-4.382-.094-4.584-.07m.894.438c-1.583-.212 2.447-.142 2.583-.112 1.053.235-1.872.204-2.583.112m-4.457-.458c-.339-.058-3.338-.165-3.579.091 1.434.361 4.339.039 3.579-.091M45.522 11.162c-.048-.026-.8-.03-1.762-.004l-.2.008c-.286.182-.605.38-.952.606.419.017.892.016 1.336-.005.658-.032 1.185-.086 1.512-.164q.041-.03.08-.061.14-.117.249-.219a.8.8 0 0 0-.263-.161m18.439-1.995c-.08.032-.12.099-.083.219.018.06.07.143.182.276.093.11.218.24.451.478.413.22.94.516 1.575.898.232.186.506.368.815.566-.491-.581-.863-.917-1.176-1.243q-.226-.214-.409-.373c-.593-.333-.915-.538-1.032-.753-.187-.094-.261-.084-.323-.068m28.11 1.989c-1.698.248 3.498.717 2.005.184-.072-.026-1.916-.195-2.006-.184m57.791-.17c.851-.29 1.437.112 1.547.12 1.075.082 3.302.092 2.828.37-1.906-.187-6.067.09-4.375-.49m-35.44.387c-.763-.006-2.848-.4-2.974-.124.767.014 2.852.397 2.974.124m184.566-4.635c-.646.13.958.77 3.308 1.866 2.16.888 6.446 3.748 3.88 1.728-.572-.45-2.521-1.617-3.956-2.273a31 31 0 0 0-3.232-1.32m-148.642 4.044c.517-.169 6.439-.004 6.686.057 1.799.405-6.227.018-6.686-.057m-19.683-.451c.672-.258 9.999.338 11.519.376-1.323.464-2.429.047-4.232.01-.486-.008-.348.214-.399.213-.841-.017-.224-.25-.743-.271-.334-.011-7.107.059-6.145-.328m-11.924-.246c.377.087 1.499.203 2.846.305 3.133.235 7.622.401 7.912.347.12-.023.193-.325.136-.34-.324-.066-4.888-.19-8.053-.268-1.343-.034-2.46-.058-2.841-.044m33.357.03c.747-.246 6.553.294 5.027.438-.25.016-6.128-.081-5.027-.438m-106.313.268c-.043-.12-.025-.276-.594-.053a9 9 0 0 0-.364.159l.53-.025q.248-.01.43-.014.002-.035-.002-.067m104.656.096c-.326-.173.417-.614 1.123-.345.302.115-.238.373-1.123.345m-20.643-.678c.969-.594 5.592.038 2.452.215-.302.017-1.586-.316-2.452-.215m-16.023-.346c-3.102-.083 2.85.802 2.072.311-.055-.028-1.746-.301-2.072-.311m76.761-.085c.049.144-2.454.482-2.571.481-1.3-.025 1.69-.467 2.571-.481m-76.428-.571c-.155-.03-3.388-.45-3.448-.225.473.137 5.183.596 3.448.225m-1.423-.824c-.385.004-.988.281-.945.306 1.996.954 7.917-.056 4.035-.112-.076-.001.675.494-.83.317-.125-.016-.36-.525-2.26-.51m84.997-1.359c-3.26.851-.286.292-.184.54.398.999-4.372.046-5.984.49-.225.057 1.456.164.88.33-1.875.514-7.752-.196-1.489-.802h-.005c1.636-.153.634.236.711.233 3.497-.086 2.555-.54 3.098-.682 1.166-.303 1.001.437 2.973-.109m-75.909 1.219c-.154-.454 3.54.026 4.502.004-.818.281-3.165.032-4.502-.004M99.398 6.88c.195.274 4.201.819 4.391.797 1.914-.214-4.073-.87-4.39-.797m98.006-1.026c.149.014-1.988 1.017-2.61.581-.479-.333 2.219-.603 2.61-.58M97.332 5.012c-1.029-.391 2.137-.323 3.057.1.441.509-2.918-.052-3.057-.1M290.98 3.796c1.071-.418 6.114 1.462 5.149 1.49-.393-.107-5.684-1.315-5.149-1.49m-100.951.49c1.255.101-2.929.715-1.505.225a34 34 0 0 1 1.505-.224"/></svg>