<svg xmlns="http://www.w3.org/2000/svg" width="330" height="95" fill="none" viewBox="0 0 330 95"><path fill="#fff" d="M157.444 91.136c.212.074.166 1.46.388 1.59.124.068 3.514-.562 3.954-.455.129.032.228.068.301.098-.526-.407 2.524-.502 2.45-.016-.046.192-2.138.172-2.224.14-.033-.012-.063-.031-.091-.044.478.519-6.75.72-5.171 1.447-2.104.476.268-1.147-1.31-.697-.539.152-1.014 1.77-3.911.99h-.008c-.848-.23.107-.626-.048-.764-.06-.054-2.69-.834-.515-.975 3.31-.23.333 1.188 2.1 1.183.223.003 3.514-.928 3.319-1.118-.02-.022-1.01.184-1.177.108-.63-.284-.339-.788-.427-.81-.279-.044-5.545.862-6.333.107-.229-.21 8.394-.872 8.703-.784m-19.423 1.076c.207-.02 2.22.535 3.312.52 2.461-.037 3.72-.412 6.624-.035q.559.064 1.194.159c-.577.122-.939.28-1.192.442-.702.504-.47 1.07-2.278.814l.603-.433c-3.407.337-7.387-.391-11.405-.44-1.02-.014.152.888-1.187.626-1.073-.21-2.261-1.052-1.676-1.225.144-.043 2.331.526 3.419.485 3.21-.123 2.4-.894 2.586-.913M245.916.68c3.597-.808 13.143-.877 17.733-.306.935.092 5.371 1.045 5.688 1.179.597.23-2.872-.1-1.37.374.338.074 7.834 1.253 7.395.677-.821-.177-3.519-.264-3.929-.437-1.656-.709 5.275.148 11.382 1.132 4.689.729 9.427 1.676 10.002 1.632-.495-.284-.983-.56-1.473-.836 1.5.37 3.026.764 4.601 1.201q-1.035.02-2.045.056c1.759.464 4.271.912 6.07 1.55.292.105-.631.346.071.554.7.211.767-.44 1.858-.202 1.167.237 6.905 2.45 10.802 4.834 1.362.812 2.898 1.759 4.998 3.615 1.994 1.912 5.061 4.574 7.462 11.2 1.508 3.946 1.476 8.842.679 12.932.744 1.376 1.509 3.032 2.277 5.054 1.558 4.174 2.195 11.613.184 17.472-2.143 6.465-5.171 9.748-7.754 12.279-3.711 3.382-5.745 4.284-7.597 5.286-7.171 3.393-9.751 3.612-13.03 4.484-3.071.701-5.76 1.164-8.368 1.538 3.095-2.445-2.705-.373-2.92-.45-1.378-.306 4.576-1.398 2.172-1.34a279 279 0 0 1-9.576 1.528c2.569-.082-3.248 2.045-4.35 1.522.521 1.716-13.828-.066-15.822.656-.423.161 2.463.774-4.163.972-.711.02-.474-.537-.845-.454-.224.05-1.478 1.862-2.955 1.054-.469-.259 1.948-1.363-2.253-.914-.698.07-1.561.172-2.607.306 3.336 1.546-11.347 1.665-13.819 1.206q.777.33 1.562.658c-2.575-.55-3.021.054-3.596.039-2.31-.067-5.431-.615-7.517-.53-2.438.096-2.461 1.201-5.261.802q.992.356 1.992.71-2.919-.054-5.773-.115c4.438-1.511-.959-.061-1.301-.026-.559.06.249-.55-.686-.466-.096.014.033.58-1.4.658-2.984.164-2.501-.555-3.743-.532-.11.007.272.51-1.847.663-6.678.5.007-.396.292-.468.35-.096-2.001-2.216 3.798-1.522-1.953-.22-2.139-1.165-2.359-1.186-.201-.019-3.54.16-3.718.197-1.625.35-.194.974-.51 1.096-.267.095-4.224-.67-5.094 1.316-1.88-1.75 1.024-1.679 4.21-2.012.458-.38-3.027-.67-3.204-.662-4.436.123-1.95 1.545-2.895 2.522-.201.21-.62.174-.93.146-.396-.034-.617-.056.011.454q.126.102.301.237l-.295.02c-3.527.225-1.288-.596-1.534-.699-.393-.153-1.775.288-1.954.245-.259-.064.62-.566-.401-.683-.172-.015-1.776.854.344 1.137-2.822.016-2.571.688-3.593-.63-1.858 2.687-1.504-1.452-2.295-1.557-2.11-.267-1.41 1.726-1.513 1.836-.712.673-6.652.327-8.158.712.519-1.5 4.749-.301 5.636-.637 3.004-1.123-4.355-.478-2.232-2.448q-1.368.84-2.75 1.684c-1.819-1.08.659-1.741-4.068-1.03-.716 1.066 3.349-.359 2.564.494-.456.501-3.21.764-3.256 1.016-.032.302 2.442-.198 2.074.286-.766 1.05-10.095.61-3.072-.32-1.701.11-2.776-1.331-4.137-1.245q-.305.016-.636.15c-.409.172.232.617.701 1.105.401.418.677.869.061 1.207-.592.323-1.992.55-4.942.52-.238-.92 3.801-.448 3.905-.525.14-.111-.685-2.184-.815-2.284-.411-.3-10.224 1.209-12.422.147.597.828-3.218.684-6.004.573-1.144-.048-2.096-.07-2.361.044-.224.102.62.852.379.93-1.503.462-5.607-.895-7.529-.949-2.148-.06-1.879.584-1.999.582-.948-.047-.19-.473-.771-.479-.868-.003-6.931-.193-7.25-.115-.087.028.9.779-.432.889-.234.015-.07-.836-4.043-.57-4.806.305 3.315 1.171 1.31 2.019-3.062-1.376-2.988-.102-3.826-.23-.291-.047-2.438-1.204-4.816-1.24q2.568-.151 5.099-.332c-1.649-.242-4.897-.136-6.278-.418-.674-.136-.091-.996-1.557-1.044-.316-.007-1.619 2.098 2.259 1.31.287.787-1.531.201-2.389.375-.131.031-.69 1.287-1.753.427-.266-.225 2.782-3.767-4.769-1.535-.244.07.568.597.329.678-.165.055-2.074-.273-2.292-.225-.221.055.68.637.415.717-1.358.414-2.993-1.75-.257-1.379-.894-.32-1.804-.644-2.708-.972.889 1.606-1.476.305-2.777.221-8.402-.599-2.892.983-4.384 1.335-2.464.519-.36-1.814-4.013-1.525-.273.02 2.395 1.124-.9.616-.897-.141-2.15-.383-4.02-.845a112 112 0 0 0 4.154.546 1 1 0 0 0-.076-.167c-.816-1.301-4.923-.545-5.27-.61-3.934-.628-1.087-.436-7.297-1.276-.558-.085-1.657-.771-2.894-.982-5.106-.843 6.347 2.408 6.45 2.84.208.574-12.237-3.334-12.347-3.798-1.503-1.204 5.403 1.756 4.308.53-.128-.155-5.036-1.875-8.232-3.32-3.21-1.411-4.3-1.834-4.876-2.21-.68-.49-1.03-1.438-1.341-1.637-.168-.118-.328.065-.52.877.058-2.18-.703-.9-.932-.976-2.958-.953-3.14-.984-6.314-1.443-.715-.102-1.247-.846-1.518-.792-.16.036.023.755-.75.814-1.014.08-7.46-1.84-7.967-2.309-.443-.456 2.856.378 2.344-.334-2.38-.508-4.759-.803-7.328-1.379-1.07-.242-.455-.545-.921-.647-.164-.03-4.107-.487-3.989-.314.565.547 11.825 2.493 8.754 2.642-.57.035-2.437-1.31-2.293-.087-3.081-.693-6.242-1.41-9.924-2.39-1.874-.508-3.82-1.044-6.449-1.949-1.32-.467-2.852-1.008-5.064-2.058-1.195-.58-2.516-1.237-4.484-2.564-1.904-1.443-4.997-3.181-8.65-9.383-2.985-4.826-4.47-14.104-1.81-20.908 2.234-6.126 5.37-9.02 7.126-10.676 3.855-3.307 5.553-3.84 7.188-4.668 2.942-1.297 4.531-1.677 6.11-2.103 2.965-.743 5.176-1.088 7.314-1.418-1.963.617-4.089 1.103-6.996 1.895-1.54.447-3.094.829-5.957 2.072-1.612.797-3.272 1.327-6.984 4.427A25 25 0 0 0 5.964 29a25.1 25.1 0 0 0-3.85 6.83C-.664 42.463.71 51.897 3.714 56.706c5.577 8.766 8.58 9.009 10.778 10.626 2.023 1.132 3.432 1.716 4.667 2.215a50 50 0 0 0 5.516 1.834c1.238.353 4.534 1.269 4.237.592-1.788-.476-3.75-.958-6.417-1.786-1.367-.438-2.826-.902-5.082-1.889-1.181-.537-2.41-1.088-4.468-2.392-1.797-1.328-5.007-2.855-8.905-9.382a24.8 24.8 0 0 1-3.118-11.2C.698 40.876 2.147 36.09 3.478 33.56c3.151-5.898 5.624-7.398 7.45-8.929 3.351-2.436 5.072-3.006 6.423-3.593 2.727-1.066 4.333-1.404 5.767-1.703.227-.044-.456.651.407.517 1.682-.295 5.532-1.844 6.192-1.732.123.026-1.957 1.075-1.183 1.363 1.144.425 1.59-.202 2.039-.843l.07-.195c1.174-3.154 2.48-4.944 3.489-6.257.926-1.165 1.448-1.665 1.612-1.849 1.32-1.367-.699-.248.651-1.603.95-1.04 4.887-3.605 7.416-4.39 2.506-.89 4.463-1.194 5.525-1.426 2.131-.446 2.84-.614 3.493-.83.565-.2.706-.348.845-.366.791-.099 2.107.103 3.592-.005 7.435-.588 16.92-.361 21.685.959-4.265-.703-8.438-.543-13.016-.455 1.336-.997-6.896.81-2.072-.375-1.031.136-5.308.172-10.9.968-1.916.303-3.825.587-6.842 1.557-1.634.58-3.338 1.11-6.364 3.065a23 23 0 0 0-5.383 4.971c-1.151 1.432-2.264 3.32-3.116 5.44.16-.117.345-.201.565-.233.102-.015.247-.026.427-.038 1.652-3.695 4.046-6.477 5.523-7.624 5.543-4.411 7.305-4.224 9.238-5.006 3.413-.986 4.932-1.115 6.096-1.35.314-.055.554-.102.71-.14q-.363.02-.727.046c-2.231.255-4.16.2-8.398 1.695 4.273-1.519 6.276-1.693 8.325-2.087 2.488-.388 4.256-.44 4.574.376 15.981-.78 28.645 1.184 41.662 2.541 2.29.352 1.017 1.041 4.777 1.186a496 496 0 0 1-2.891-1.08c1.944.4 10.385 1.605 11.722 1.557.175-.006.429-.676 2.502-.538 1.835.12 2.125.653 3.103.832.825.147 1.73.087 1.976.133.187.037.265.348.712.433 1.409.261.248-.667 1.665.401q-.51.024-1.017.046c.999.152 2.218.407 2.535.606.105.063.119.12.004.169-.133.057-.445.102-1.005.12-.429.013-.067-.256-.387-.275-12.232-.8-3.166.433 1.396.286q.251-.006.484-.02c1.166.494 7.69.466 7.92.545.307.123-.798.419.687.732.308.078 9.135-.004 5.98.461-.656.102-4.897-.072-5.91-.082 2.435.893 8.014-.246 8.658-.198 2.578.145-4.894.66.903.791 4.468.088.244-.456 1.945-.669.953-.11 6.068.477 5.889-.235 1.743-.058.746.305.963.335.211.023 3.644-.154 4.778.005.137.018-.267.368-.125.399.279.05 3.597.01 3.743-.015.085-.018-.73-.33-.408-.398.377-.08 3.6.048 3.778-.03.24-.122-3.731-.116-3.089-.436 1.838.118 4.82-.025 6.026-.234-.297.061-2.08.016-2.701-.027.265-.47 4.104-.319 2.811-.002.824-.166.25-.29.71-.457.122-.042 1.305-.001 1.534-.068.028-.014-1.203-.241-.964-.323.434-.151 4.044.076 4.344.138.837.164-2.099.15-2.337.331-.006.033 2.474.511 2.522.545.156.346-2.629-.02-2.298.308l2.068.28c-2.636.199-7.528-.093-8.761.273 3.899-.049 8.006.118 8.03.919.011.336-1.66.503-1.596.593.263.316 2.583.023 2.675.044q.107.03.107.057c-.003.173-3.321.25-3.484.337-.269.15 1.234.775 1.24.91-.06.024-2.406.17-1.598.41.82.237 2.88.24 2.959.265.401.136-3.207.281-3.311.373-.044.045 1.897.29 1.956.364.047.075-1.415.257-1.98.512-.42.19.84.301.622.334-.161.019-3.557.1-3.724.14-.245.056.561.255.448.314-.162.084-1.26.04-1.113.118.118.063 4.398.673 4.381.867-.036.334-4.559-.256-.316.909.029.006 1.029-.131 1.07-.125.381.126-.618.366-.641.485q1.853-.09 3.735-.166c3.035-.123 6.079-.273 9.127-.43-.39-.003-.701-.02-.885-.064 1.28-.224 4.117-.196 5.283-.362.134-.02-.649-.774 1.136-.344.676.17-1.051.458-2.907.63q2.09-.108 4.182-.22c.426-.145.727-.363.933-.71-3.723-.308-8.154.742-9.277.802-1.718.11.051-.22-.165-.275-.078-.016-1.551.085-1.575.068-1.095-.802 6.588-.404 8.99-.704q-.98-.151-1.959-.295l2.625-.19c-4.183-.009-.154-.09.845-.938.224-.192-2.498.31.6-.406-2.31.064-1.584-.144-3.657.229.039-.3 4.71-1.027 6.556-1.347-6.562.2-2.773 1.013-8.453.886-1.025.45 1.661.165 1.448.243-.778.278-2.643.092-4.835.994-.355.145 1.198.418-1.077.55-.252.012-1.695-.203-1.696-.229.181-.254 1.613-.264 1.672-.37.05-.101-1.521.067-1.552.043-.064-.3 1.326-.213 1.122-.295-.445-.187-6.218-.38 1.285-.786-6.208.838-.78.411 1.64.08.617-.084.764-.287 1.642-.427 1.129-.182 2.463-.202 3.049-.287.63-.097-2.986-.248 2.216-.565-2.671-.233-7.307.674-9.911.585-5.246-.14 3.599-1.08 4.523-1.247.244-.041-.592-.219-.43-.251.267-.052 5.308-.434 5.798-.71.482-.276-1.847.198-2.016-.017-.116-.14 5.959-1.072 2.656-.829-2.277.18-6.419 1.235-7.155.662 3.323-.416 6.655-.846 10.001-1.27a366 366 0 0 0-5.528-.16c3.737-.53 7.002-.598 10.569-1.394-8.638.118 2.717-1.042 2.891-1.163.038-.078-3.399-.406-3.951-.462 2.976-.668 12.22-1.907 6.773-2.2.985.09 3.343-.722 3.322-.764-.325-.394-5.5.546-4.671.068.96-.563 2.359-.158 3.871-.392 7.797-1.168 5.577-3.264 13.607-3.73l-.483-.21A219 219 0 0 1 245.916.68M92.829 91.83c-1.456-.936 4.593.457 4.984.29.321.892-4.592-.033-4.984-.29m4.04-.746c-1.341-.954 5.668.242 2.36.44-.153.01-2.288-.39-2.36-.44m88.988-1.679c-.678-.095-4.478.476-4.607.578-.967.874 4.23.386 4.607-.578m-23.106-.37c-2.795.187.397 1.045-3.388.489 1.533.848 4.064.656 3.388-.489m11.79.673c1.709-.21 3.367-2.586 1.271-2.11-.224.056-1.485 1.807-1.271 2.11m-7.443-.51c1.644-.647-1.962-.934-1.6-.205.051.04 1.532.232 1.6.205m-14.426-.18c.328-.213-2.045-.975-2.729-.737-1.559.55 2.071 1.175 2.729.738m-21.613-.305c-.777-.217-3.407-.034-2.223.348.186.056 2.298-.002 2.223-.348m-19.979.102c-.105-.107-2.273-.472-2.253-.091.026.475 2.58.415 2.253.09m186.327-4.333c-.036-.337-3.654.115-3.91.758.676-.134 3.864-.52 3.91-.758M59.635 81.289c.151-.088.663-.048 1.456.23.855.301 1.766.771 4.773 2.343-.18.51-.12.351-.992-.001-3.267-1.334-3.784-1.56-4.525-1.932-.63-.325-.862-.548-.712-.64m248.696.07c2.885-1.378-.418-.188-2.638.452-2.289.682-4.061 1.21-2.277 1.044.09-.01 1.096-.26 2.256-.607 1.141-.334 2.515-.82 2.659-.888M53.942 79.876c.522-.424 1.808.028 2.571.267-.189.325-1.877-.214-2.571-.267m13.812.06c-1.335-.5-3.268-2.021-3.313-1.146.582.156 2.644 1.302 3.313 1.147M47.42 78.328c-.134-.854 2.924.37 3.957.483.139.858-2.819-.37-3.957-.483m-8.051-.728c-1.51-.9 3.972.319 2.115.472-.089.007-2.027-.426-2.115-.472m18.838-1.847c-.332-.076-.426.511-.39.549 1.109 1.062 1.319-.33.39-.549m-.85.64c.843-.053-.314-1.38-1.574-.645.563.04 1.483.648 1.573.646m-3.868-.99c-.618-.6-1.843.258-1.24.789.652.195 1.302-.724 1.24-.788m-27.963-.997c1.013-.246 4.083.723 5.408 1.022-.979.399-3.473-.495-5.408-1.022m261.412-.228c.767.497 1.014.605 1.239.71.204.09.27.093.311.079a.6.6 0 0 0 .098-.062l-.026-.01c-.242-.093-.731-.337-1.346-.632q-.23-.11-.478-.229.105.072.202.144m1.11-1.205c1.18.684 1.2.563 1.296.498q.007-.037.013-.069a6 6 0 0 0-.509-.217 20 20 0 0 0-1.037-.362q.128.082.237.15m-1.274-.46c-1.592-.436-2.874-.604-1.208.59.178.13.437.155.708.14a2 2 0 0 1-.12-.092c-.083-.086.264.002.544-.015.292-.007.568-.079.566-.283a.5.5 0 0 0-.091-.226q-.2-.06-.399-.114m-252.636-.313c-.373-.208-2.329-.45-2.42-.256-.204.61 3.947 1.11 2.42.256m122.98-41.892q-.98 0-2.03.56-1.05.49-1.68 1.33t-1.191 2.03a24 24 0 0 0-1.049 2.45q-.42 1.33-.701 2.59t-.559 2.59q-.28 1.26-.63 2.73t-.63 2.59q-.21 1.05-.49 2.24a80 80 0 0 1-.49 2.52q-.28 1.26-.63 2.94-.28 1.68-.49 2.87l-.087.346q-.642-.032-1.173-.066l-1.12-.07-.35.07q-.28 0-.561.14a2.7 2.7 0 0 0-.559.21 1.4 1.4 0 0 0-.191.155q-.203.031-.439.125a2.7 2.7 0 0 0-.561.21q-.21.14-.419.35-.21.21-.35.49l-.28.56a2.6 2.6 0 0 0-.071.63q0 .28.071.63.07.28.28 1.05.28.7.7 1.82.42 1.05.84 1.96l.312.678q.071.195.178.372l.034.035.106.175q.21.21.461.381.33.257.659.389.42.14.77.14.054-.001.109-.004.087.004.171.005.42-.07.769-.21.42-.141.701-.421a1.6 1.6 0 0 0 .463-.578q.155-.233.216-.467.034-.1.059-.205a3 3 0 0 0 .055-.239q.108-.368.046-.681c-.006-.04-.017-.079-.025-.117a2 2 0 0 0-.114-.443 8 8 0 0 0-.42-.98 25 25 0 0 1-.484-1.047q.67.033 1.464.067 1.68.07 2.869.07t2.521.07q1.33 0 2.59-.07l2.66-.14q1.33-.14 2.38-.14a35 35 0 0 1 2.17-.07q1.05-.07 2.24-.07 1.26 0 2.31.14 1.12.07.49 1.33a113 113 0 0 1-.7 1.47l-.14.28-.07.42-.003.017a2.2 2.2 0 0 0-.067.543l.003.084q-.003.097-.003.196.07.35.21.77.106.178.232.338.022.042.048.083.27.338.609.545.11.082.23.154.284.169.614.246.349.103.647.104.238-.04.453-.103.321-.067.597-.177.42-.21.7-.49.28-.35.42-.7a1.5 1.5 0 0 0 .16-.386q.119-.258.26-.594.42-.91.7-1.96a7.3 7.3 0 0 0 .35-2.17 4.55 4.55 0 0 0-.35-2.1q-.42-1.05-1.261-1.68a3.74 3.74 0 0 0-1.819-.91 10 10 0 0 0-2.17-.35 20 20 0 0 0-.634-.064q-.013-.436-.207-1.476-.14-1.19-.279-2.31a51 51 0 0 0-.351-2.45 64 64 0 0 0-.279-2.31 99 99 0 0 0-.35-2.38q-.14-1.33-.35-2.38-.14-1.05-.351-2.1t-.42-2.03a41 41 0 0 0-.349-2.17 16 16 0 0 0-.56-2.17q-.28-1.05-.841-2.17a6 6 0 0 0-1.54-2.03q-.98-.909-2.029-1.26a6 6 0 0 0-2.03-.35M290.449 68.67c.116.282.301.544.508.434q.024-.013.044-.03a2.3 2.3 0 0 1-.38-.224 2 2 0 0 1-.172-.18m-.104-.555c-.036-.002-.026.118.014.278q.037-.035.133-.031c.09-.001.216.019.35.043-.135-.152-.314-.272-.497-.29m1.069-1.736c.103.135.146.231.16.323.027.203-.095.345-.389.318a1 1 0 0 1-.216-.054c-.117.165-.159.38.485.59.049-.241.793-.616.728-.73-.021-.083-.31-.25-.768-.447m-2.218-.73c-.801-.193-1.418-.245-1.193.093.167.205 1.235.486 2.075.695a8 8 0 0 1-.882-.787m-98.691-31.772q-.91-.7-2.31-.35-1.4.28-2.1 1.26a15 15 0 0 0-1.19 1.96q-.42.98-.84 2.1-.42 1.05-.84 2.17l-.84 2.24q-.35 1.05-.77 2.17a28 28 0 0 1-.84 2.31 49 49 0 0 0-.84 2.17 83 83 0 0 0-.7 1.89 34 34 0 0 0-.7 2.03q-.35 1.05-.77 2.03a46 46 0 0 1-.91 2.31q-.49 1.33-.84 2.24l-.42.98-.07.28a2.6 2.6 0 0 0 0 1.19q.07.28.21.56l.28.56.42.42.56.28.56.14h.63q.35-.07.63-.14.28-.14.49-.28.28-.14.491-.35.209-.28.349-.49.14-.28.49-1.19.42-.98.98-2.38t.91-2.38l.771-2.17.092-.282.047.002q.35 0 .98-.07a51 51 0 0 1 1.82-.14q1.12-.14 2.17-.21 1.05-.14 2.03-.21 1.05-.069 2.24-.21l1.26-.14.145-.059q.417.975.835 2.16.42 1.12.7 2.17.35 1.05.7 2.17.42 1.05.84 2.309l.49 1.19.056.093.014.047q.076.124.16.24.206.33.54.6l.078.044q.162.128.343.236.419.14.769.21.42.07.84 0t.77-.28q.351-.21.63-.49.28-.35.42-.7.038-.098.066-.2l.005-.01q.14-.42.139-.84 0-.42-.139-.77a2 2 0 0 0-.193-.408q-.107-.264-.368-.992a101 101 0 0 1-.7-2.03l-.699-2.1a11.5 11.5 0 0 0-.701-2.03 50 50 0 0 0-.839-2.17 36 36 0 0 0-.841-2.17q-.35-1.05-.77-2.17a22 22 0 0 0-.84-2.24l-.839-2.24a27 27 0 0 1-.911-2.03 30 30 0 0 1-.839-2.03 25 25 0 0 0-.771-2.24q-.42-1.05-.979-1.96-.56-.91-1.541-1.61M36.185 64.752c-.317.162-.44.29-.176.31.123-.121.207-.239.176-.31M299.45 63.41c4.793-2.537-.712-.86-1.377-.264-.082.07-.055.419-.274.861-.091.214-.283.474-.194.575.065.037.187.057.776-.223.325-.163.735-.371 1.56-.936.163-.124.343-.25.546-.397q-.544.203-1.037.384m-260.948-.162c-.602.11-1.788.484-1.8.818-.043.208.339.145.764-.037a15 15 0 0 0 .922-.609.6.6 0 0 0 .114-.172m64.29-30.07a9.9 9.9 0 0 0-3.5.21q-1.68.42-3.29 1.26-1.54.84-3.011 2.31-1.4 1.47-2.24 2.94-.543 1.037-1.015 2.284-.158.288-.314.656-.141.42-.63 1.96-.491 1.47-.631 3.01-.07 1.54.21 3.64a23.5 23.5 0 0 0 .91 3.99 15.6 15.6 0 0 0 1.82 3.5 12.7 12.7 0 0 0 2.66 2.59q1.47 1.05 3.08 1.68 1.68.63 3.43.84t3.43-.14a13.2 13.2 0 0 0 3.221-1.12 15 15 0 0 0 2.729-1.89q1.26-1.05 2.24-2.38a46 46 0 0 0 1.89-2.94 17.3 17.3 0 0 0 1.471-3.43 13.1 13.1 0 0 0 .699-3.85q.07-2.1-.56-3.85a15.6 15.6 0 0 0-1.469-3.36 18.4 18.4 0 0 0-2.17-2.94 16 16 0 0 0-2.591-2.45q-1.33-1.05-2.94-1.68a10.6 10.6 0 0 0-3.429-.84m25.812.42q-.56 0-1.26.07-.7 0-1.469.07t-1.75.14q-.91.07-1.96.21l-1.051.14-.279.07a2.6 2.6 0 0 0-.414.142 2.3 2.3 0 0 0-.497.068 2.8 2.8 0 0 0-.56.21q-.28.14-.489.35-.21.21-.42.49-.14.21-.281.49l-.14.56v7.98q.07.56.07 1.19.07.56.07 1.19v1.26q.07.56.07 1.12.07.56.07 1.19v5.88q.07.63.07 1.12v2.1q.07.49.071 1.26l.069.7.002.017-.002.123q.055.326.151.609.055.186.129.371.123.203.271.384.038.053.079.106.037.036.075.07l.066.07.092.07q.115.093.239.178.184.13.368.242.35.14.77.21.42 0 .77-.07.42-.14.77-.35t.56-.49q.28-.35.42-.7.038-.119.066-.232.047-.128.074-.258.07-.42 0-1.12 0-.7-.07-1.33v-7.07q0-.56-.07-1.19v-1.26q0-.7-.07-1.33t-.07-1.26v-1.4q0-.7-.07-1.33t-.069-1.26v-4.373q.946-.115 1.679-.177.84-.07 1.54-.14.77-.07 1.33-.07h1.19q.56-.07 1.47-.07h5.6l.024-.004q.058.004.117.005.42-.071.769-.211.305-.123.556-.353.102-.078.184-.163.274-.243.451-.534.209-.35.279-.7.14-.42.07-.77a2 2 0 0 0-.078-.315 2.2 2.2 0 0 0-.271-.735 1.6 1.6 0 0 0-.303-.366q-.023-.028-.048-.054a3.2 3.2 0 0 0-.63-.49 1.5 1.5 0 0 0-.388-.162 1.5 1.5 0 0 0-.591-.118q-.11 0-.219.009a3 3 0 0 0-.202-.01zm-60.811.07a1.14 1.14 0 0 0-.56 0q-.281 0-.63.07a2.7 2.7 0 0 0-.56.21q-.21.14-.49.35-.21.21-.42.49a2.7 2.7 0 0 0-.21.56q-.07.279-.141.63v1.12q.07.84.07 1.89v2.24q.07 1.12.07 2.31v2.17q0 1.05.07 2.1t.07 2.17v2.24q0 1.05.07 2.24t.14 2.24q.07.98.14 2.24.14 1.26.14 1.82v.56l.002.014-.002.126q.07.42.21.84.141.35.42.7.273.273.613.479.109.08.227.151.42.14.77.21.15 0 .3-.01.135.01.26.01.42-.07.77-.21.42-.21.7-.49a6 6 0 0 0 .49-.7c.085-.142.14-.294.174-.453a1.53 1.53 0 0 0 .087-.82q.019-.322.02-.757 0-.84-.07-1.96a36 36 0 0 0-.21-2.24l-.14-2.24v-2.24q-.001-.195-.004-.385l.143-.035q.173-.088.318-.201.501.62 1.152 1.391a47 47 0 0 1 1.47 1.68l1.4 1.68q.7.84 1.47 1.68a29 29 0 0 0 1.68 1.68q.91.84 1.68 1.61.77.7 1.47 1.4l.7.7.28.28q.185.11.368.201.062.04.122.08.2.078.421.134.315.092.63.145.37-.002.688-.113.306-.077.571-.237l.058-.037.024-.016q.301-.192.548-.437.14-.175.244-.35.204-.28.316-.56.14-.42.14-.84t-.14-.77a1.76 1.76 0 0 0-.42-.7 3 3 0 0 0-.243-.263 8 8 0 0 0-.457-.437 18 18 0 0 0-1.33-1.33 51 51 0 0 0-1.61-1.54l-1.54-1.54q-.7-.77-1.47-1.61-.7-.84-1.54-1.82-.84-1.05-1.68-1.96a77 77 0 0 1-1.33-1.61l-.014-.018a37 37 0 0 1 1.204-1.172 64 64 0 0 0 1.68-1.61l1.61-1.61q.84-.84 1.61-1.54.84-.77 1.75-1.61.683-.63 1.05-.945l.63-.524.35-.211a2.5 2.5 0 0 0 .397-.4l.023-.02q.28-.28.42-.63.06-.184.094-.367.087-.306.06-.612.023-.269-.045-.508a2 2 0 0 0-.081-.322 2.2 2.2 0 0 0-.238-.571 1.6 1.6 0 0 0-.36-.417 1.6 1.6 0 0 0-.41-.353 2.2 2.2 0 0 0-.77-.28 1.7 1.7 0 0 0-.69-.086 1.6 1.6 0 0 0-.64.086q-.15.05-.372.18a3 3 0 0 0-.607.38l-.102.107q-.151.112-.32.243-.978.7-1.889 1.54-.91.84-1.75 1.61t-1.68 1.61l-1.82 1.82a52 52 0 0 1-1.75 1.68q-.656.655-1.62 1.557-.015-.652-.06-1.277v-2.24q0-1.19-.07-2.24v-1.96l-.07-.84-.07-.28q0-.28-.14-.56a1.04 1.04 0 0 0-.28-.49 5 5 0 0 0-.42-.49 1.9 1.9 0 0 0-.49-.35 2.5 2.5 0 0 0-.63-.21m145.394 24.57a1.4 1.4 0 0 0-.63 0 1.24 1.24 0 0 0-.559.14l-.281.07-.328.262-.042.03a2.4 2.4 0 0 0-.61.548q-.21.35-.35.77-.04.196-.056.415l-.014.075q0 .07.003.14-.002.07-.003.14 0 .42.141.84.128.321.377.643.174.26.392.477.35.21.7.35.42.14.84.14.05-.001.1-.004.09.004.181.005.322-.055.603-.15l.307-.06.139-.07q.07-.07.35-.21.28-.21.42-.42.21-.281.35-.561.141-.28.21-.56a2.3 2.3 0 0 0 .071-.56q0-.35-.141-.63a1.6 1.6 0 0 0-.21-.56 1.9 1.9 0 0 0-.349-.49 1.4 1.4 0 0 0-.491-.42 1.06 1.06 0 0 0-.559-.28 2.3 2.3 0 0 0-.561-.07m-171.917.805c-.873.38-2.09 1.061-1.18 1.173.355-.327.747-.713 1.18-1.173m1.049-.243a21 21 0 0 1-.625.688c.299-.039.718-.095 1.12-.156q.114-.134.229-.273.08-.102.163-.21c-.237-.018-.53-.035-.887-.049m58.162-20.372a5.64 5.64 0 0 1 3.29.14 7.45 7.45 0 0 1 2.8 1.54q1.26 1.05 2.31 2.59 1.12 1.47 1.61 3.01.56 1.54.35 3.08-.14 1.54-.91 3.22a20.5 20.5 0 0 1-1.82 3.08q-1.05 1.47-2.45 2.52a7.4 7.4 0 0 1-3.01 1.26q-1.61.28-3.43-.28a8.6 8.6 0 0 1-3.15-1.82q-1.33-1.26-1.96-2.87a17.6 17.6 0 0 1-.77-3.29q-.21-1.68.21-3.57.076-.353.143-.653.214-.84.487-1.797.031-.09.064-.18.042-.084.076-.17.03-.09.053-.183.451-1.169 1.137-2.197.91-1.33 2.1-2.17a7.6 7.6 0 0 1 2.87-1.26m56.147-1.82q.56-1.12 1.33-.14.77.91.98 2.1.28 1.12.42 2.17.21.98.42 2.03.28.98.42 2.24.21 1.26.35 2.31a60 60 0 0 1 .28 2.38q.21 1.33.349 2.59.21 1.19.351 2.45a46 46 0 0 0 .462 3.16q-.729.017-1.512.06-1.26.07-2.381.14t-2.38.14q-1.19.07-2.519.07a46 46 0 0 0-1.644-.062q.227-1.035.453-2.388.351-1.68.561-2.94.28-1.26.49-2.38.28-1.19.49-2.17.28-1.05.49-2.1.28-1.05.559-2.45.351-1.4.631-2.52l.56-2.38q.35-1.19.84-2.31m56.489-3.15q-1.05 0-2.17.42-1.05.42-2.029 1.19-.911.77-1.891 2.03-.98 1.19-1.54 2.03l-.56.77-.14.28q-.07.28-.14.63a2.6 2.6 0 0 0 0 1.19l.28.56q.14.28.35.49t.49.42l.56.28.56.14a2.6 2.6 0 0 0 .63-.07l.56-.14q.35-.14.56-.28.28-.21.42-.42.21-.28.7-1.12.561-.84 1.26-1.68.77-.84 1.75-1.19 1.05-.42 2.031-.07.98.28 1.189 1.4.28 1.12-.14 2.24-.42 1.05-1.259 2.1-.772 1.05-1.471 1.89-.63.77-1.19 1.68a11 11 0 0 0-.839 2.1q-.35 1.12-.491 2.17l-.07.98.07.42q.07.42.21.77.21.35.491.7.35.28.7.49.35.14.769.21.14 0 .28-.01.14.01.28.01.342-.057.638-.162.052-.017.103-.039l.029-.01a1.76 1.76 0 0 0 .808-.534q.053-.046.102-.095.28-.35.42-.7.051-.128.081-.267a2 2 0 0 0 .059-.223q.07-.42.07-.84.07-.42.42-1.4.35-1.05 1.05-1.96l1.54-1.96q.77-1.05 1.401-2.24.629-1.26.979-2.66.42-1.47.42-2.59t-.56-2.38q-.56-1.329-1.33-2.1-.77-.84-1.679-1.26-.911-.49-2.311-.84t-2.45-.35m-24.321 7.18q.078.294.17.59.42 1.05.84 2.03t.91 2.1q.49 1.05.84 2.03.327.913.713 1.947l-.083.013q-.91.07-1.96.14a48 48 0 0 0-2.17.21 43 43 0 0 0-2.31.21q-.243.029-.464.053.302-.749.604-1.523.561-1.26.84-2.24.35-1.05.7-2.03t.77-1.96q.32-.805.6-1.57m-153.409-.309.18-.039q-.181-.23-.373-.48.096.268.193.52m258.375-.832a10 10 0 0 0-.743.077l-.831.282q-.055.05-.105.097l-.06.056c.565.073 1.724.024 1.739-.512M37.521 25.844c-.308.68-.558 1.357-.763 2.012.921.182 2.112.415 3.36.646a26 26 0 0 0-.646-.574c-1.065-.892-1.468-1.161-1.768-1.408-.276-.222-.346-.314-.192-.28.178.055.493.15 1.496.803.34.363.962.527 2.096 1.64l.337.058a20 20 0 0 0-1.804-1.518c-.937-.69-1.462-1.012-1.876-1.269zm-.315-.135c-.07-.001-.196.116-.376.26-.221.568-.426 1.165-.609 1.78l.32.064c.198-.704.435-1.408.716-2.088a.2.2 0 0 0-.051-.016m-1.828 1.71a4 4 0 0 1-.355.108q.089.01.31.05zm-.306-1.085a1 1 0 0 1-.19.087q-.033.112-.065.223a1 1 0 0 0 .142.089c.156.088.384.186.537.28q.08-.268.17-.535a1.1 1.1 0 0 1-.46-.07.7.7 0 0 1-.134-.074m.634-2.088.194-.025a2 2 0 0 0-.18-.008zm34.144-5.952c.226.508.453 1.094.664 1.78.335.425.69.924 1.068 1.526l.215-.005a19 19 0 0 0-.46-1.712 22 22 0 0 0-1.487-1.589m240.895-7.11c-.782-.01 1.069.935 4.009 3.079 2.8 1.742 7.561 7.666 4.702 3.81-.567-.786-3.014-3.216-4.777-4.438a30.5 30.5 0 0 0-3.934-2.451m-286.926 6.39c-.003.411-3.41.852-5.433 1.675.063-.245 1.41-.728 2.556-1.015 1.194-.31 2.333-.505 2.877-.66m41.862-2.944c.211.212.584.628 1.238 1.555.13.199.28.426.445.694q.174.154.361.325c.412.489.916.886 1.518 1.466a17 17 0 0 0-.86-1.731c-1.341-1.184-2.12-1.776-2.607-2.221q-.05-.045-.095-.088m88.816 1.39c-1.289-.533-2.322.727-.417.419.091-.016.472-.394.417-.42m-109.654-.458c-.25-.001-.712.015-1.329.067-.216.017-.444.04-.666.06q-.303.19-.634.424a9 9 0 0 0-.26.18 13 13 0 0 0 2.213-.118c.302-.275.518-.478.676-.613m132.83.276c1.494.1-2.23.592-2.644.315-.07-.05 2.359-.331 2.644-.315m-28.592-.163c-.763.04-2.706-.022-3.139.033-1.521.197 2.414.384 3.139-.033m4.445-.982c-1.688-.381-1.01.992-.799 1.04.868.193 3.764-.413 4.358-.55-4.381.295-2.763-.311-3.559-.49m-86.503-1.938c-.112-.033-.122.053-.163.114a.45.45 0 0 1-.162.157c-.058.047-.13.07.003.28.096.176.217.268.561.71.522.364 1.26.918 2.226 1.737a13.4 13.4 0 0 0-1.04-1.53c-.454-.384-.699-.648-.758-.9-.448-.486-.566-.517-.667-.568m117.947 2.559c.076.14-1.964.352-2.142.344-1.154-.051 1.38-.365 2.142-.344m-7.59-.09c1.15.043-1.379.355-2.137.337-.076-.126 1.961-.34 2.137-.336m-40.74.176c-.82-.045-3.261-.164-3.653.088.887-.047 3.322.17 3.653-.088m-1.89-.726c-1.293-.336-1.55.656-.093.354.056-.012.14-.335.093-.354m-7.171-.396c-.844-.425-1.76.569-.41.612.4.01.5-.564.41-.613m23.768-1.045c-1.226-.145-2.749.482-.151.521q-1.36.153-2.714.312c3.416.294 3.115-.539 4.094-.511 1.369.038 1.307.711 1.047.929 1.09-.435 5.86-.49 8.626-.57-2.443-.153-6.402-.42-8.795-.514-.684-.028-1.332.164-1.913.148-.931-.027-.128-.306-.189-.315zm-33.045.761c-2.418-.612-.893.536.482.403.059-.012-.421-.388-.482-.403m18.189-1.064c-.881-1.158-1.106.674-2.765-.305-2.072 1.389 5.923.056 6.982 1.18-8.816-.087 5.892 1.084-.365-.572 5.11.592 1.651-.21 2.418-.425.823-.224 3.717.014 3.547-.383h-.005q-2.642.041-5.269.076c1.773.888-1.831.635-3.083-.12q-.73.272-1.46.549m45.308-.33c-2.872.775-.144.344-.699.589-.447.192-2.152.254-1.15.435-1.317-.17-6.939.498-7.19.469l.007-.001c-.15-.014.198-.702 1.247-.723 3.298-.066.926.63 7.785-.768m-35.325 1.136c-.179-.018-3.994.137-3.738.312.514.109 5.947-.088 3.738-.312m16.992-.278c-1.397-.005-3.56-.155-4.3.139 1.393-.003 3.554.138 4.3-.139m-30.91-.386c-1.775-.384-.893.78.4.49.074-.017-.318-.473-.4-.49m26.481-.751c-.22-.025-4.577-.015-4.785.013-.148.022.671.545-.214.713 1.724-.313 9.727-.101 10.147-.143.319-.037-2.138-.577 1.691-.236h.004c-2.831-.83-6.549.052-6.958.042-.411-.023.208-.38.115-.39m23.373-.068c-.475.267-5.85.977-5.738.723.106-.22 4.887-.622 5.738-.723m-27.221.502c-1.652-.182 2.549-.187 2.694-.16 1.104.216-1.951.239-2.694.16m-4.653-.373c-.353-.05-3.481-.103-3.728.158 1.498.335 4.523-.042 3.728-.158m-34.128-.677c-.786-.007-2.958-.409-3.083-.133.793.017 2.951.406 3.083.133m-23.27-.369c-1.774.235 3.653.745 2.094.2-.083-.027-2.007-.21-2.094-.2m60.049-.443c.883-.304 1.5.084 1.615.09 1.124.063 3.449.032 2.957.319-1.993-.153-6.327.203-4.572-.41m-19.977-.326c.689-.262 10.385.185 11.972.191-1.371.489-2.527.09-4.402.085-.505 0-.357.22-.411.22-.875-.003-.236-.246-.776-.26-.351-.002-7.377.166-6.383-.236m-12.33-.148c.445.098 1.854.23 3.49.332 3.19.195 7.347.292 7.634.238.124-.025.198-.328.138-.343-.313-.058-4.552-.12-7.78-.181-1.631-.03-3.033-.063-3.482-.046m32.809.26c.534-.178 6.722-.122 6.982-.065 1.885.373-6.508.13-6.982.066m.093-.304c-.343-.167.428-.622 1.168-.366.316.11-.245.377-1.168.366m1.723-.395c.772-.262 6.85.176 5.256.346-.27.02-6.397.03-5.256-.346m-39.764-.194c-3.213-.092 2.957.81 2.144.316-.048-.028-1.811-.304-2.144-.316m16.564.262c.996-.604 5.804-.04 2.545.184-.311.02-1.648-.295-2.545-.184m-16.219-.918c-.157-.03-3.506-.462-3.572-.237.488.14 5.37.614 3.572.237m79.52-.468c.052.143-2.56.518-2.68.519-1.356-.007 1.759-.492 2.68-.519m106.037-1.93c.653-.104 2.252.393 3.692 1.03 1.428.625 2.709 1.405 2.08 1.275-.504-.242-6.397-2.222-5.772-2.304m-187.027 1.57c-.401.002-1.027.278-.982.303 2.07.966 8.196-.043 4.18-.102-.079 0 .698.496-.858.317-.13-.018-.376-.526-2.34-.518m9.674-.315c.908-.119 3.549.163 4.35.14-.784.268-2.934.09-4.345.04l-.298-.009c-.031-.088.084-.141.293-.17m-23.477-.868c.201.277 4.368.853 4.568.832 1.996-.198-4.237-.9-4.568-.832m102.242-1.304c-3.406.89-.298.295-.189.543.424.993-4.576.098-6.255.566-.233.06 1.524.144.924.318-1.956.539-8.101-.084-1.566-.78h-.005c1.705-.178.671.224.746.222 3.654-.134 2.668-.573 3.233-.723 1.219-.318 1.052.422 3.112-.146m-.295-.76c.154.013-2.075 1.042-2.729.614-.504-.328 2.319-.631 2.729-.613m-104.091.18c-1.07-.4 2.232-.306 3.188.124.46.514-3.05-.076-3.188-.124m96.357-1.649c1.314.082-3.053.756-1.57.245a37 37 0 0 1 1.57-.245"/></svg>