<svg xmlns="http://www.w3.org/2000/svg" width="254" height="74" fill="none" viewBox="0 0 254 74"><path fill="#fff" d="M122.235 70.782c.152.077.12 1.46.279 1.596.088.069 2.534-.503 2.853-.387.093.035.164.073.217.104-.377-.417 1.819-.448 1.768.035-.031.192-1.548.126-1.605.094-.024-.014-.046-.032-.066-.045.344.522-4.867.603-3.728 1.356-1.519.449.193-1.142-.946-.712-.388.147-.73 1.753-2.817.953h-.006c-.61-.235.078-.627-.035-.765-.052-.06-1.934-.85-.371-.979 2.384-.206.24 1.189 1.514 1.199.159.002 2.536-.892 2.391-1.081-.024-.019-.729.17-.848.093-.453-.29-.245-.792-.308-.815-.203-.052-3.995.816-4.564.065-.158-.224 6.044-.815 6.272-.71m-14.035.995c.149-.02 1.601.535 2.39.52 1.712-.033 2.616-.38 4.553-.067q.511.074 1.116.2c-.659.192-.926.474-1.114.727-.266.401-.355.734-1.414.525l.436-.433c-2.463.333-5.335-.399-8.236-.444-.735-.013.111.888-.855.628-.775-.209-1.633-1.047-1.21-1.222.104-.043 1.681.522 2.467.48 2.318-.125 1.731-.896 1.867-.914M199.041.02c.678.016 3.922.555 4.155.653.436.173-2.097.17-.997.5.248.053 5.737.474 5.413-.059-.603-.088-2.581.097-2.88-.035-1.301-.579 4.611-.334 9.321-.007 3.06.202 5.923.473 6.295.36-.356-.214-.717-.427-1.07-.636 1.089.176 2.198.365 3.339.574-.503.108-.991.22-1.482.333 1.275.224 3.105.308 4.394.641.21.055-.449.437.056.528.514.095.539-.553 1.335-.502.835.034 4.954 1.198 7.597 2.118 1.122.377 2.369.793 4.36 1.797.97.504 2.218 1.175 3.964 2.498 1.736 1.48 4.34 3.122 7.369 9.115.974 1.911 1.639 4.258 1.972 6.72.27.472.541.967.802 1.49 2.784 4.534 3.852 15.67 1.17 21.567-1.271 3.561-3.341 6.565-4.656 8.125a27.3 27.3 0 0 1-3.522 3.54c-2.375 1.934-3.391 2.42-4.61 3.099-2.552 1.311-3.516 1.544-5.015 2.067q-.658.212-1.345.44c-5.224 1.657-7.147 1.878-9.608 2.368a89 89 0 0 1-6.39.912c2.195-2.223-1.904-.556-2.067-.632-.976-.392 3.253-1.105 1.549-1.201-2.353.376-4.618.706-6.841 1.014 1.84.03-2.33 1.9-3.126 1.342.379 1.715-9.951-.53-11.393.15-.305.15 1.774.841-3.003.858-.514 0-.341-.549-.607-.477-.158.043-1.064 1.821-2.132.973-.299-.241 1.044-1.088-.782-1.039-.602.017-1.507.11-2.833.3 2.389 1.604-8.146 1.437-9.927 1.012q.559.334 1.121.666c-1.849-.565-2.171.04-2.585.023-1.661-.073-3.906-.617-5.409-.526-1.756.105-1.772 1.21-3.79.823q.715.351 1.435.701-2.103-.04-4.161-.088c3.198-1.531-.687-.058-.938-.02-.404.062.179-.55-.496-.462-.069.014.025.578-1.009.663-2.154.175-1.806-.546-2.703-.52-.079.008.196.511-1.333.666-4.83.5.015-.395.211-.468.251-.1-1.445-2.209 2.741-1.53-1.409-.215-1.545-1.159-1.704-1.18-.145-.017-2.557.165-2.685.2-1.176.35-.14.975-.369 1.096-.191.097-3.053-.678-3.682 1.298-1.36-1.764.74-1.666 3.043-1.996.331-.378-2.189-.676-2.317-.67-3.208.092-1.41 1.528-2.092 2.498-.095.136-.257.166-.42.162-.451-.01-.915-.277-.028.67-2.863.242-1.143-.593-1.329-.7-.284-.158-1.286.261-1.416.216-.187-.068.449-.555-.291-.69-.125-.017-1.29.824.249 1.143-2.048-.031-1.865.643-2.607-.695-1.348 2.649-1.091-1.485-1.664-1.606-1.53-.315-1.022 1.696-1.097 1.801-.516.659-4.819.158-5.909.5.377-1.485 3.438-.173 4.081-.487 2.177-1.046-3.156-.59-1.616-2.505a631 631 0 0 1-1.991 1.61c-1.315-1.129.476-1.723-2.943-1.142-.52 1.047 2.423-.266 1.855.565-.33.488-2.321.676-2.357.926-.025.302 1.767-.13 1.5.343-.555 1.027-7.299.343-2.222-.403-1.229.065-2.006-1.404-2.989-1.352-.147.008-.299.05-.459.136-.296.16.167.621.505 1.12.29.428.489.885.044 1.209-.428.308-1.439.498-3.568.406-.171-.929 2.751-.362 2.819-.437.1-.11-.493-2.201-.587-2.302-.304-.319-7.378.995-8.962-.07.451.87-2.563.632-4.581.529-.72-.04-1.301-.05-1.473.054-.163.101.446.851.273.93-1.084.46-4.05-.9-5.438-.954-1.549-.06-1.356.582-1.442.581-.684-.046-.138-.473-.557-.478-.628-.005-5.002-.179-5.231-.097-.065.026.651.775-.311.89-.168.019-.05-.839-2.916-.546-3.464.343 2.39 1.147.947 2.01-2.21-1.356-2.153-.08-2.76-.2-.212-.046-1.757-1.18-3.469-1.184 1.23-.124 2.458-.255 3.673-.391-1.188-.228-3.528-.082-4.524-.342-.484-.126-.064-.995-1.123-1.018-.227-.001-1.162 2.123 1.63 1.275.207.782-1.1.222-1.721.411-.095.031-.489 1.3-1.261.46-.189-.218 1.995-3.835-3.43-1.426-.177.077.41.582.237.67-.12.058-1.49-.218-1.648-.163-.159.061.49.616.301.704-.982.454-2.154-1.656-.188-1.37-.651-.293-1.297-.588-1.95-.886.642 1.576-1.062.355-1.992.326-6.032-.224-2.07 1.11-3.139 1.529-1.757.647-.266-1.8-2.877-1.297-.221.038 2.174 1.197-1.59.517-.52-.092-1.089-.21-1.85-.38a112 112 0 0 0 2.893.226c-.129-.48-.504-.684-.963-.74-1.071-.124-2.61.401-2.779.39-2.8-.227-.755-.385-5.216-.447-.406-.011-1.212-.538-2.118-.56-3.748-.079 4.657 1.456 4.687 1.963.216.437-8.899-1.601-9.17-1.961-1.18-.93 4.18.834 3.299-.18-.089-.148-3.805-1-6.6-1.9-2.81-.888-3.591-1.158-3.994-1.443-.761-.626-.926-2.63-1.305-.52.013-.298.011-.53 0-.708-.033-1.096-.465-.109-.585-.152-2.023-.663-2.178-.693-4.44-.907-.52-.05-.889-.75-1.089-.677-.116.044.015.75-.542.863-.725.154-5.367-1.314-5.728-1.741-.316-.423 2.055.176 1.685-.496-1.713-.34-3.42-.467-5.264-.841-.771-.159-.328-.507-.662-.572-.122-.022-2.925-.14-2.837.027.38.452 8.462 1.554 6.26 1.931-.413.075-1.749-1.125-1.646.08a376 376 0 0 1-7.48-1.605c-1.397-.32-2.839-.655-4.78-1.169-1.01-.273-2.027-.543-3.759-1.115-.386-.131-.924-.316-1.481-.527a35 35 0 0 1-.887-.35 29.98 29.98 0 0 1-4.56-2.302c-1.299-.849-3.879-2.375-6.882-6.139C2.97 45.633.21 40.675.017 33.818c-.288-7.022 3.124-13.251 4.902-15.48 4.68-5.75 6.358-5.91 8.215-7.148 2.795-1.477 4.056-1.783 5.186-2.148 2.081-.6 3.138-.748 4.243-.93 2.044-.303 3.548-.41 5.004-.508-1.341.374-2.785.63-4.783 1-1.078.215-2.094.374-4.142.963-1.081.348-2.277.627-5.016 2.043-.731.39-1.783 1.002-2.928 1.837-1.01.751-2.87 2.135-4.984 4.838C3.93 20.49.524 26.175.611 33.29c.057 6.967 2.83 11.964 5.23 15.04 4.976 5.83 7.257 6.187 8.933 7.239a33 33 0 0 0 3.398 1.472c1.667.611 2.64.891 3.575 1.162 1.775.504 3.02.792 4.218 1.029.821.168 3.138.726 2.923.089-1.381-.313-2.909-.607-4.919-1.062-1.01-.234-2.142-.493-3.818-.994-.853-.263-1.87-.573-3.46-1.23-.936-.404-1.657-.697-3.357-1.664a25 25 0 0 1-2.777-1.86 24.7 24.7 0 0 1-4.446-4.396C3.59 44.886.659 39.53.977 32.025a24.2 24.2 0 0 1 2.464-9.482c1.133-2.258 2.19-3.677 3.269-4.959a24.5 24.5 0 0 1 2.897-2.873 24.915 24.915 0 0 1 4.6-3.043c2.697-1.332 3.785-1.557 4.794-1.864 1.958-.527 2.972-.643 3.985-.76.173-.017-.348.586.31.557 1.332-.093 4.238-1.224 4.708-1.049.1.036-1.465.863-.886 1.227l.053.032a22 22 0 0 1 2.714-2.778 22 22 0 0 1 3.122-2.231c1.617-.941 2.637-1.34 3.463-1.663 1.38-.513 2.175-.705 2.256-.743.439-.173-.267-.59.176-.78.124-.052.58-.154 1.18-.249.6-.094 1.159-.137 1.82-.183 1.19-.064 2.305-.039 2.988-.088q.28-.022.526-.045c1.928-.162 2.074-.558 2.253-.57.547-.018 1.45.306 2.49.308 5.183-.014 11.978.263 15.397 1.58-3.052-.704-6.042-.576-9.302-.632.952-.934-4.877.53-1.462-.449-.828.099-4.638-.034-9.304.31-1.265.109-2.435.209-4.243.545a30.331 30.331 0 0 0-1.473.318c-.56.14-1.089.278-1.897.543a23 23 0 0 0-2.782 1.113 22 22 0 0 0-4.75 3.059 23.3 23.3 0 0 0-2.773 2.8c1.022.213 1.067-1.661 2.002-1.714.135-.009.367.004.668.025a20 20 0 0 1 2.363-1.86c2.979-1.932 4.303-2.235 5.419-2.647 1.238-.403 1.843-.53 2.611-.7 2.617-.523 3.782-.548 4.962-.664 1.086-.083 1.852-.138 2.143-.2a57 57 0 0 0-2.182-.094c-.95-.004-1.877-.003-3.09.099 1.198-.113 2.138-.197 3.066-.29 2.58-.237 4.543-.439 4.83.644 11.237.236 20.439 1.707 29.812 2.946 1.653.32.736 1.025 3.449 1.12q-1.041-.515-2.087-1.041c1.402.369 7.495 1.474 8.462 1.425.124-.006.314-.681 1.806-.552 1.33.113 1.536.648 2.244.826.59.148 1.253.09 1.428.137.134.037.191.348.513.435 1.015.27.184-.664 1.205.414l-.736.037c.462.1.982.246 1.357.39.6.22.859.44.01.504a6 6 0 0 1-.258.014c-.308.01-.049-.257-.28-.278-8.432-.794-2.854.284.54.305.298.002.58-.003.835-.017.843.502 5.566.602 5.735.692.223.13-.579.4.499.748.219.077 6.614.243 4.33.619-.474.08-3.546-.207-4.279-.238 1.76.946 5.803-.029 6.268.04 1.867.224-3.542.512.654.818 3.235.228.176-.448 1.409-.607.69-.081 4.395.674 4.263-.045 1.261 0 .541.33.697.366.153.03 2.638-.033 3.458.16.099.024-.193.359-.091.394.2.059 2.606.123 2.708.101.061-.016-.529-.351-.295-.41.271-.068 2.602.155 2.733.082.176-.115-2.701-.224-2.235-.526 1.33.173 3.488.112 4.36-.067-.213.055-1.504-.037-1.954-.097.194-.462 2.968-.211 2.033.072.595-.145.181-.284.513-.439.089-.038.946.03 1.11-.032-.008-.02-.868-.27-.698-.344.315-.14 2.924.168 3.141.234.604.18-1.518.107-1.689.282-.011.031 1.775.56 1.822.597.114.35-1.899-.075-1.661.26l1.495.323c-1.906.15-5.442-.27-6.335.06 2.819.063 5.787.316 5.806 1.116.009.337-1.201.468-1.154.56.189.32 1.861.078 1.933.1q.076.031.077.058c.003.176-2.4.18-2.519.262-.195.143.892.804.897.938-.036.024-1.741.113-1.156.372.592.258 2.082.305 2.139.332.288.145-2.317.21-2.394.299-.035.044 1.366.332 1.415.408.037.075-1.022.224-1.433.466-.305.179.607.322.449.35-.063.008-.84.012-1.544.019.442.127.611.327.285.629-.071.062-.571.049-1.091.043.464.122 1.041.275 1.507.413.155-.008.261-.008.286.01q.064.049.082.102c.284.094.472.174.47.222-.008.104-.33.107-.677.1a4 4 0 0 1-.582.325c.205.114.534.27 1.028.474.021.008.747-.105.775-.099.276.136-.448.353-.461.47l.326-.012c.324-.236.414-.639.472-.65 1.126-.214.518.497.896.466.185-.018 2.083-1.347 2.086.077l1.74-.054c1.168-.317 1.736-.543 1.868-.7-.239.01-.45.019-.457.01-.11-.114-.096-.2.012-.267-1.021-.132-3.506-.017-5.747.124 1.391-.788 4.244-.536 5.533-.749.135-.022.201-.097.252-.193-.267-.062-.5-.123-.493-.134.067-.128.368-.184.653-.223a.7.7 0 0 1 .101-.135c-.31.016-.664.048-.667.033-.045-.302.96-.181.811-.268-.325-.198-4.494-.526.931-.754-4.491.69-.565.39 1.186.12.446-.068.552-.267 1.188-.385.817-.153 1.782-.137 2.206-.207.454-.08-2.159-.326 1.603-.507-1.932-.303-5.286.483-7.169.332-3.795-.265 2.604-.993 3.272-1.133.177-.035-.428-.234-.311-.261.191-.046 3.841-.297 4.194-.56.348-.263-1.337.15-1.458-.07-.072-.143 4.307-.915 1.922-.758-1.647.12-4.644 1.066-5.176.475 2.404-.332 4.814-.672 7.233-1.01a200 200 0 0 0-3.997-.304c2.703-.431 5.064-.413 7.643-1.124-6.256-.093 1.993-.976 2.09-1.097.015-.077-2.456-.482-2.855-.552 2.152-.587 8.828-1.653 4.894-2.05.713.11 2.42-.663 2.399-.702-.236-.396-3.973.443-3.373-.02.694-.543 1.704-.111 2.796-.318 5.627-1.053 4.025-3.162 9.813-3.605l-.348-.21c3.409-.394 6.871-.717 10.392-.94 2.968-.19 5.938-.318 8.932-.38 2.593-.972 9.51-1.686 12.857-1.537M75.685 72.28c-1.045-.856 3.291.209 3.567.036.234.87-3.295.189-3.567-.035m2.888-.955c-.969-.897 4.071.002 1.69.335-.106.017-1.643-.29-1.69-.335m64.204-1.591c-.492-.11-3.236.363-3.338.462-.702.85 3.065.494 3.338-.462m-16.713-.957c-2.018.132.286 1.05-2.445.424 1.105.874 2.933.734 2.445-.424m8.519.963c1.236-.164 2.437-2.492.921-2.073-.16.046-1.074 1.762-.921 2.073m-5.38-.704c1.187-.607-1.416-.98-1.157-.242.035.04 1.111.268 1.157.242m-40.429-.44c-.082-.106-1.633-.42-1.623-.04.023.473 1.857.356 1.623.04m30.02.016c.236-.213-1.475-.991-1.966-.754-1.124.544 1.494 1.183 1.966.754m-15.62-.326c-.561-.216-2.458-.02-1.605.356.133.055 1.66-.01 1.605-.356m-52.468-2.19c.108-.105.455-.131 1.04.027.622.165 1.398.517 4.005 1.58-.128.525-.078.364-.83.154-2.86-.813-3.185-.973-3.724-1.23-.445-.23-.598-.422-.491-.53m172.399 1.135c-.004-.347-2.542-.2-2.722.427.471-.09 2.708-.203 2.722-.427m7.045-1.47c1.586-.614-.204-.34-1.571-.092-1.391.258-2.593.574-1.448.655.093.022 2.774-.472 3.019-.563m-183.345-.505c.368-.462 1.273-.12 1.802.045-.126.343-1.318-.048-1.802-.045m-4.67-1.058c-.095-.84 2.102.164 2.842.198.093.844-2.016-.163-2.842-.198m-5.784-.162c-1.083-.787 2.851.036 1.518.32-.064.013-1.456-.28-1.518-.32m20.794-.46c-1.12-.267-2.779-1.46-2.783-.601.475.067 2.247.865 2.783.601m-30.589-1.473c.681-.375 2.829.264 3.774.447-.696.483-2.462-.167-3.774-.447m19.945-1.253c-.45-.55-1.319.395-.895.877.462.145.94-.816.895-.877m3.329-.053c-.23-.044-.304.546-.279.58.736.94.898-.457.279-.58m-.6.714c.583-.133-.204-1.336-1.099-.502.395-.007 1.048.514 1.099.502m166.383-1.248c-.024-.001-.034.021-.037.056l.111.069c.683.34.972.437 1.084.456.242.026.362.013.399-.023-.642-.274-1.341-.545-1.557-.558m-2.388-1.331c.263.192.495.35.703.483.451.139.799.26.96.371.121-.103.149-.192.111-.271a22 22 0 0 1-.442-.265c-.357-.118-.868-.214-1.332-.318m-180.635.136c-.262-.177-1.661-.248-1.72-.045-.15.619 2.809.766 1.72.045m123.544-37.425q-.938 0-1.943.536-1.005.469-1.608 1.272a11 11 0 0 0-1.139 1.944 23 23 0 0 0-1.005 2.345 30 30 0 0 0-.67 2.479q-.268 1.206-.536 2.478-.268 1.207-.604 2.614-.334 1.407-.602 2.478a65 65 0 0 1-.469 2.145 74 74 0 0 1-.47 2.412 228 228 0 0 0-.602 2.813 312 312 0 0 1-.469 2.748l-.083.33q-.614-.03-1.123-.063l-1.072-.066-.335.066q-.269 0-.536.135a2.6 2.6 0 0 0-.536.201q-.091.06-.183.148-.195.03-.42.12a2.6 2.6 0 0 0-.536.2 2.7 2.7 0 0 0-.402.336 1.8 1.8 0 0 0-.335.468l-.268.537a2.5 2.5 0 0 0-.067.602q0 .268.067.604.067.267.268 1.005.267.67.67 1.742.402 1.005.804 1.876l.3.65q.067.186.169.355l.032.032.102.169q.206.205.452.372.31.24.62.364.402.135.737.135.052-.002.105-.005.083.004.163.005a3.5 3.5 0 0 0 .737-.201q.403-.135.67-.403.31-.248.445-.555.142-.214.201-.427.038-.109.063-.224a3 3 0 0 0 .052-.223q.101-.351.043-.648-.01-.057-.025-.112a1.8 1.8 0 0 0-.109-.424 7 7 0 0 0-.402-.937 24 24 0 0 1-.463-1.002q.64.03 1.401.063 1.608.067 2.747.067 1.14 0 2.412.068 1.273 0 2.479-.068l2.546-.133q1.273-.135 2.278-.134a33 33 0 0 1 2.077-.068q1.005-.066 2.144-.067 1.206 0 2.211.135 1.072.066.469 1.272-.537 1.14-.67 1.407l-.134.268-.067.403-.002.01q-.065.247-.065.526l.003.08-.003.187q.067.336.201.737.105.175.228.331l.04.072q.255.319.572.515.112.082.231.155.267.159.578.233.339.101.629.102.227-.04.433-.1.308-.064.572-.169a2.5 2.5 0 0 0 .67-.469q.268-.334.402-.67.105-.175.155-.372.113-.246.247-.565.402-.871.67-1.877a7 7 0 0 0 .335-2.076 4.34 4.34 0 0 0-.335-2.01q-.402-1.005-1.206-1.608a3.6 3.6 0 0 0-1.742-.871 9.6 9.6 0 0 0-2.077-.335 19 19 0 0 0-.607-.062q-.012-.419-.197-1.413-.133-1.14-.268-2.21-.134-1.14-.335-2.346a61 61 0 0 0-.268-2.21q-.135-1.005-.335-2.279a25 25 0 0 0-.335-2.277q-.134-1.005-.335-2.01t-.402-1.943a41 41 0 0 0-.335-2.078 16 16 0 0 0-.537-2.077 11 11 0 0 0-.803-2.077 5.8 5.8 0 0 0-1.474-1.942q-.938-.87-1.943-1.206a5.7 5.7 0 0 0-1.943-.335m55.443 35.956q.549.476.994.83c.143-.063.307-.14.439-.217a25 25 0 0 1-.711-.542 29 29 0 0 0-.722-.071m7.71.145c.014.063.032.114.087.132.219.06.139-.008-.087-.132m7.018-2.904c3.564-1.752-.537-.934-1.008-.478-.033.03-.044.155-.072.328.066-.017.118-.031.135-.033.318-.034.029.185-.198.333a2 2 0 0 1-.052.159c-.057.188-.194.404-.06.496.093.034.216.064.867-.154.341-.121.83-.297 1.812-.8.343-.247.683-.392 1.113-.609-.985.316-1.814.564-2.537.758m-5.912.2c-.048.05-.119.087-.283.076.038.248.105.464.182.293.045-.096.092-.234.101-.369m-186.889-.033c-.292.093-.528.19-.622.273-.081.078-.068.164.418.117.368-.213.564-.397.297-.417zm95.338-30.216q-.535 0-1.206.068-.67 0-1.407.067-.737.068-1.675.134-.87.067-1.876.201l-1.005.134-.267.066a2.6 2.6 0 0 0-.398.136 2.2 2.2 0 0 0-.473.065 2.6 2.6 0 0 0-.536.201q-.268.135-.469.335-.202.2-.403.47a4 4 0 0 0-.268.469l-.134.535v7.639q.068.535.068 1.138.066.536.066 1.14v1.205q.067.537.067 1.072.068.536.068 1.14v5.627q.066.603.066 1.072v2.01q.067.47.067 1.206l.068.67.002.014-.002.12q.052.315.145.587.053.175.122.351.119.195.259.369l.076.1.064.06.07.075q.052.04.103.077.104.084.216.161.175.125.351.23.335.135.737.202.402 0 .738-.068a3.7 3.7 0 0 0 .736-.335q.335-.201.536-.468a2.7 2.7 0 0 0 .403-.67q.037-.114.063-.224.045-.122.07-.245.068-.402 0-1.072 0-.67-.067-1.274v-6.766q0-.536-.066-1.139V40.47q0-.67-.068-1.273a11 11 0 0 1-.066-1.207v-1.34q0-.669-.068-1.273a11 11 0 0 1-.067-1.206v-4.184q.906-.11 1.608-.17.804-.068 1.474-.134.737-.068 1.273-.068h1.139q.536-.066 1.407-.067h5.361l.021-.005q.057.004.112.005.403-.066.738-.2.292-.118.533-.34.099-.075.176-.156.261-.231.429-.509.2-.336.268-.67.134-.403.067-.737a2 2 0 0 0-.075-.303 2 2 0 0 0-.26-.702 1.5 1.5 0 0 0-.288-.35q-.022-.027-.046-.052a3.1 3.1 0 0 0-.604-.47 1.4 1.4 0 0 0-.373-.155 1.4 1.4 0 0 0-.565-.113q-.103 0-.207.009a3 3 0 0 0-.195-.009zm91.181 27.754c-.765-.142-1.645-.188-1.435.204.072.14.668.239 1.166.294.506.057.881.064.903.095.034.048-.096.201-.149.357-.063.154.024.33.242.36.072-.23.39-.792.389-.876.016-.056-.01-.112-.203-.19a5 5 0 0 0-.913-.244M176.501 24.39q-.269 0-.604.134a1.4 1.4 0 0 0-.298.117l-.103.016a2.6 2.6 0 0 0-.536.202q-.201.133-.469.335-.201.201-.403.468-.134.2-.268.47-.067.268-.134.603v3.215q.067 1.206.067 2.279.067 1.005.067 2.01v6.096q0 1.005.067 2.077.068 1.006.068 2.145v2.076l.133 2.01a40 40 0 0 0 .204 2.225l-.002.12q.066.403.201.738.134.335.401.67.05.049.103.095.048.055.098.106.269.2.604.401l.2.201.536.269q.335.068.604.134h1.138a28 28 0 0 1 2.077-.068 44 44 0 0 1 2.279-.066q1.005 0 2.01.066 1.005 0 2.077.068h2.546q.401 0 .736-.068.402-.133.67-.335.22-.177.381-.382l.021-.02a1.8 1.8 0 0 0 .403-.602q.2-.402.201-.804a1.4 1.4 0 0 0-.031-.618 1.8 1.8 0 0 0-.104-.387 1.7 1.7 0 0 0-.401-.67 1.54 1.54 0 0 0-.537-.536 2.1 2.1 0 0 0-.737-.269 1.7 1.7 0 0 0-.576-.087 12 12 0 0 0-.496-.046 28 28 0 0 0-2.01-.068h-2.077a34 34 0 0 0-2.144-.066q-1.072 0-2.344.066h-1.182q-.013-.162-.024-.335-.068-1.005-.068-2.01t-.067-2.01q0-1.005-.067-2.01-.029-.442-.045-.884a33 33 0 0 1 1.988-.054q1.274-.066 2.346-.133a38 38 0 0 1 2.211-.068h2.88l.403-.066q.24-.041.456-.131l.012-.004.009-.006a2 2 0 0 0 .443-.247q.118-.074.218-.148a2.106 2.106 0 0 0 .804-1.34q.045-.274.027-.517a1.8 1.8 0 0 0-.027-.488 1.56 1.56 0 0 0-.27-.647 1.6 1.6 0 0 0-.332-.493l-.087-.08a1.677 1.677 0 0 0-.785-.522 1.8 1.8 0 0 0-.417-.11q-.058-.015-.119-.025-.334-.067-1.407-.066-1.072 0-2.143.066-1.005 0-2.01.067-1.005.068-2.279.134h-1.943V34.24q0-1.073-.066-2.144 0-1.072-.068-2.211v-.582q.503.016 1.073.046 1.273.066 2.344.066 1.206.068 2.144.068 1.005.066 2.077.133 1.139 0 1.742.068h.604l.401-.068c.156-.025.304-.07.444-.125q.014-.005.026-.008.402-.135.67-.403.334-.268.535-.602a2.1 2.1 0 0 0 .268-.67q.044-.27.028-.537.016-.268-.028-.535a2.1 2.1 0 0 0-.268-.738 1.5 1.5 0 0 0-.418-.456 1.5 1.5 0 0 0-.52-.415 2.1 2.1 0 0 0-.737-.267 3.4 3.4 0 0 0-.67-.068h-1.473a40 40 0 0 0-2.345-.066 41 41 0 0 0-2.279-.068q-1.072-.066-2.344-.133a100 100 0 0 1-2.077-.134zM37.147 53.294a.2.2 0 0 0-.105.031q-.122.09-.189.158.066-.038.137-.077zm1.498-.94c-.945.167-2.274.516-2.294.91.31-.189.976-.354 1.46-.39.257-.154.529-.317.834-.52m163.173-3.979a1.4 1.4 0 0 0-.603 0q-.267 0-.536.135-.268.067-.268.066l-.314.25-.047.035a2.3 2.3 0 0 0-.577.52q-.2.334-.335.736a3 3 0 0 0-.053.398l-.014.071.003.126-.003.143q0 .402.134.803.125.311.365.621.166.245.372.452.335.2.67.335.402.133.804.133l.088-.003.18.003q.309-.052.577-.142l.294-.059.134-.066q.067-.067.335-.201.269-.201.402-.403a3.5 3.5 0 0 0 .335-.536 2.5 2.5 0 0 0 .2-.536q.068-.267.068-.535 0-.335-.134-.604a1.5 1.5 0 0 0-.201-.536 1.8 1.8 0 0 0-.335-.469 1.3 1.3 0 0 0-.469-.402 1 1 0 0 0-.536-.267 2.2 2.2 0 0 0-.536-.068M36.946 50.011c-.211-.033-2.328.957-1.35 1.232.681.19.68-.517.832-.554.142-.033 4.067-.036.518-.678m180.525-1.49c.563.164.511.077.507.053-.013-.038-.286-.078-.693-.133l-.087-.012zm-61.806-20.849q.536-1.071 1.273-.134.736.87.938 2.01.268 1.072.402 2.077.201.939.402 1.944.268.938.402 2.143.2 1.206.335 2.211.134.938.268 2.278.201 1.274.335 2.48.201 1.139.335 2.345t.335 2.412l.107.613q-.697.015-1.447.057l-4.556.267q-1.14.068-2.412.068a44 44 0 0 0-1.572-.059q.216-.99.433-2.286.335-1.608.536-2.815a69 69 0 0 0 .469-2.278q.268-1.138.469-2.076.268-1.005.469-2.01.269-1.005.536-2.345l.603-2.413.536-2.277q.335-1.14.804-2.212m61.934 19.857c-.541-.242-1.383-.445-1.526-.287.254.005 1.021.343 1.496.609.512.276.546.411.572.273.023-.073.058-.148-.014-.249-.066-.099-.256-.225-.528-.346m-15.848-22.872q-1.005 0-2.077.403a7.9 7.9 0 0 0-1.943 1.139q-.87.736-1.809 1.943-.938 1.139-1.474 1.942l-.536.738-.134.267q-.067.268-.134.604a2.5 2.5 0 0 0 0 1.138l.268.536q.134.268.335.47.202.2.469.401l.536.268.536.135q.335 0 .603-.067l.536-.134q.335-.135.536-.269.268-.2.402-.401.2-.269.67-1.073.535-.804 1.206-1.608.736-.804 1.675-1.139 1.005-.402 1.943-.066.938.268 1.139 1.34a3.54 3.54 0 0 1-.134 2.143q-.402 1.005-1.206 2.01-.738 1.005-1.407 1.81a15 15 0 0 0-1.139 1.607q-.47.872-.804 2.01a12.6 12.6 0 0 0-.469 2.077l-.067.938.067.403q.067.402.201.736.201.336.469.67.336.269.67.47.335.134.737.2.133 0 .267-.009.135.009.269.01a3.7 3.7 0 0 0 .703-.19l.034-.011q.402-.135.67-.402.05-.052.097-.105.053-.047.104-.097.268-.334.401-.67a2 2 0 0 0 .079-.252q.034-.111.056-.216.067-.402.067-.804.067-.402.402-1.34a6.4 6.4 0 0 1 1.005-1.877l1.474-1.876a17 17 0 0 0 1.34-2.143q.603-1.206.938-2.546.402-1.407.402-2.48 0-1.071-.536-2.277-.536-1.274-1.273-2.01-.737-.805-1.608-1.207-.87-.468-2.211-.804-1.34-.335-2.345-.335M33.222 42.814c-.014.16-.133.319-.34.414 1.021.826 1.593.957 1.622 1.029.258.063-.609-.583-.763-.839-.005-.01.014-.02.049-.03a19 19 0 0 1-.568-.574m-.851-1.86c.16.163.299.31.414.45 1.174 1.104 1.709 1.404 2.055 1.622.63.35.455.126-.09-.287-.472-.389-1.025-.689-2.38-1.785m-4.878-4.808c.309.699.641 1.29.989 1.743q.561.884 1.078 1.61c.363.327.66.578.91.847a47 47 0 0 0 1.94 1.614l-.934-.995c-.548-.718-1.336-1.535-2.143-2.74a12 12 0 0 1-1.84-2.08M221.739 22.24c-.64.01-1.612.039-2.629.05-.083.33.441.147.799.266h-.003c.42.138 1.478.287 1.833-.316m-3.573-2.413c-.259-.163-2.336.298-1.6.608.655.27 2.079-.34 1.6-.608m-73.985-.382c-.119.13-.787.265-1.593.364a.4.4 0 0 0 .06.04l1.361-.05c.193-.08.338-.185.373-.313a1 1 0 0 0-.201-.04m-.933.014c-.348.044-.644.126-.698.233.283-.013.532-.03.721-.06.03-.005-.001-.083-.023-.173m68.575-.924c-.343.284-.688.578-1.044.902a1 1 0 0 0 .444.071c.615-.068.622-.631.6-.973m7.563.4c-.258-.099-.624-.096-1.308.147.58-.017 1.119-.066 1.308-.147m1.878-.229c.066.166.17.135.095.067a.4.4 0 0 0-.095-.067m-6.084-.812c-.326.205-.707.475-1.166.837.438-.312.83-.584 1.166-.837m3.765-3.396c-1.075.494-1.956.231-6.737 3.72l-.029.023c.375-.01.934-.013 1.167-.122.399-.189.159-.601.794-.78.88-.254 1.274-.007 1.481.266 1.81-1.147 2.78-1.605 3.552-2.036a3 3 0 0 0-.212-.034c.135-.209.396-.299.667-.32-.002-.071-.154-.104-.408-.1-.463.065-1.241.258-2.168.616-1.123.44-2.318 1.112-1.883.821.689-.45 1.242-.77 1.706-1.025.433-.24.663-.366.929-.502.504-.258.86-.415 1.141-.527m-89.081 3.686c-1.138-.62 2.714-.595 1.484.01-.063.029-1.423.019-1.484-.01m-65.598-1.507c-.078.086-.265.147-.528.188q.376.573.759 1.28l.227.049a21 21 0 0 0-.458-1.517m152.877.163c-.415.317-.808.403-1.507.787.08.11.132.223.173.307.105-.075.207-.145.307-.22.616-.444.935-.702 1.027-.874m-69.293-.74c-4.746.029-2.006.94-6.114.665-.743.423 1.202.207 1.047.28-.437.2-1.349.105-2.478.45 1.336.002 3.128.083 4.845.187q.096-.071.169-.151c.159-.185-1.806.245.433-.39-1.67.004-1.145-.185-2.645.134.03-.3 3.408-.903 4.743-1.175m-10.947.494c1.081.134-1.612.54-1.912.256-.049-.052 1.704-.28 1.912-.256m-16.764-.425c-.931-.573-1.68.65-.302.404.067-.013.342-.376.302-.404m22.043.081c.058.143-1.422.302-1.551.29-.833-.08 1-.331 1.551-.29M61.387 12.57a19 19 0 0 1 1.745 3.421l.148.205c.477.046.8.093.842.13l.03.029a22 22 0 0 0-.526-1.318q-.082-.17-.163-.335a19 19 0 0 0-1.456-1.569 34 34 0 0 0-.62-.563m75.305 3.405c.831.069-.997.322-1.546.288-.052-.128 1.418-.297 1.546-.288m-17.254-1.16c-1.22-.437-.732.954-.579 1.011.628.222 2.725-.29 3.154-.409-3.17.155-1.999-.399-2.575-.602m-5.489.765c-1.102.148 1.747.462 2.271.069-.551.014-1.957-.11-2.271-.069m-79.525-2.926q-.024.003-.06.037.09.035.188.076c.479.214.978.416 2.19 1.122.613.37 1.146.69 2.2 1.496q.044.037.092.074c.361.035.707.064 1.027.081-1.15-.934-2.072-1.466-2.623-1.793a19 19 0 0 0-.87-.466c-.878.077-2.047-.64-2.144-.627m-.422.439c-.12.124-.264.25-.436.344-.126.07-.264.12-.41.14-.094.096-.192.191-.286.29l-.108.115c.452.18.786.352-.076.699.508-.034 2.953.383 5.211.655-.484-.34-.877-.588-1.168-.784a24.44 24.44 0 0 0-2.24-1.23q-.28-.133-.487-.229m73.213 1.903c-.595-.066-2.357-.245-2.644-.002.644-.028 2.403.25 2.644.002m113.117-.758c-.087-.03-.246-.044-.814.097.38-.028.51.184.663.348.141.168.268.3.309.223.05-.112-.036-.188-.063-.27a.4.4 0 0 1-.03-.117v-.21c-.006-.03-.024-.055-.065-.072m-80.442-.778c-2.079.703-.105.339-.507.57-.323.181-1.556.201-.832.407-.946-.204-4.966.331-5.196.307-.107-.02.146-.697.903-.697 2.386.006.669.642 5.632-.587m-34.044.763c-.935-.368-1.12.618-.066.351.041-.01.101-.331.066-.351m12.016-.94c-.888-.183-1.99.393-.11.517q-.983.108-1.963.223c2.472.406 2.254-.437 2.963-.377.99.083.945.753.756.962.79-.398 4.242-.3 6.242-.301-1.766-.224-4.63-.615-6.363-.788-.494-.05-.964.12-1.385.086-.673-.058-.091-.309-.136-.32zm101.656 1.052a1.7 1.7 0 0 0-.519.143l-.054.021.055-.018c.2-.063.372-.109.518-.146m-118.861-.66c-.615-.439-1.273.539-.297.604.291.016.362-.555.297-.605m25.973.211c-1.01-.045-2.575-.258-3.111.012 1.008.04 2.572.244 3.111-.012m-66.252-2.168c.433.59.915 1.317 1.446 2.235a21 21 0 0 0-1.437-2.228zm53.957 1.91c-.131-.025-2.888.01-2.707.193.373.123 4.306.102 2.707-.194m-82.142.074c.071.061.177.115.304.17q.15-.165.295-.317l-.02-.005a.9.9 0 0 1-.293-.156q-.14.146-.286.308m74.915-1.177c-.64-1.18-.802.644-2.002-.374-1.5 1.334 4.286.207 5.054 1.367-6.382-.34 4.265 1.256-.264-.582 3.7.746 1.195-.161 1.752-.352.596-.199 2.691.131 2.567-.27l-.004-.001-3.814-.088c1.283.94-1.325.579-2.231-.21q-.53.253-1.058.51m33.224.602c-.343.254-4.241.836-4.151.584.081-.219 3.536-.506 4.151-.584m-46.39.18c-1.756-.61-.644.536.347.403.042-.012-.303-.386-.347-.402m-38.209-4.47c.146.097.4.277.83.62.392.332.964.779 1.88 1.82.604.46 1.37.982 2.513 2.148l-.092-.152c-.792-1.221-1.432-2.027-1.954-2.607-.386-.243-.706-.426-1.005-.616-1.188-.68-1.869-1.043-2.172-1.213m64.232 3.644c-.107.016.486.565-.156.705 1.248-.254 7.037.201 7.342.167.232-.029-1.546-.635 1.224-.19h.002c-2.046-.904-4.734-.137-5.033-.159-.297-.036.151-.373.083-.386-.161-.03-3.307-.157-3.462-.137m-15.707.089c-1.285-.423-.644.76.289.499.054-.015-.229-.48-.289-.5m16.385.362c-1.195-.235 1.843-.106 1.95-.074.798.25-1.413.177-1.95.074m-3.367-.524c-.256-.063-2.517-.217-2.698.036 1.084.382 3.273.105 2.698-.037m1.921-1.402c.638-.274 1.084.132 1.168.143.812.099 2.494.14 2.139.412-1.442-.215-4.58 0-3.307-.555m-86.458.078c-.233.055-.14.21-.108.267a.1.1 0 0 0 .046.03q.023-.129.062-.297m43.023-.172c-1.28.259 2.637.696 1.512.171-.064-.026-1.449-.182-1.512-.17m43.798-.101c.387-.16 4.858.089 5.051.152 1.363.431-4.704-.07-5.051-.152m-26.992.21c-.57-.006-2.132-.395-2.228-.12.575.012 2.139.393 2.228.12m12.164-.94c.5-.254 7.519.467 8.669.53-.993.445-1.83.011-3.188-.05-.365-.015-.259.21-.297.208-.634-.029-.171-.253-.562-.282-.258-.018-5.343-.032-4.622-.406m16.144.088c.561-.233 4.954.388 3.801.51-.19.014-4.63-.17-3.801-.51m-1.249.34c-.247-.178.31-.608.845-.33.23.12-.176.37-.845.33m-23.831-.77c.274.086 1.077.202 2.046.311 2.353.256 5.798.475 6.017.424.09-.022.143-.325.1-.34-.249-.07-3.748-.244-6.121-.34-.966-.041-1.766-.068-2.042-.055m54.081.14c.041.145-1.855.455-1.938.451-.981-.041 1.273-.446 1.938-.45m-45.8-.338c.723-.583 4.201.106 1.843.244-.226.014-1.193-.335-1.843-.244m-11.994-.437c-2.323-.08 2.132.8 1.55.311-.046-.03-1.308-.302-1.55-.311M57.014 7.178c-.104.016-.139.087-.04.248.084.129.18.232.512.557q.36.179.823.424c.381.315.894.565 1.528.922a10 10 0 0 1-.367-.388c-.856-.832-1.214-1.074-1.56-1.328l-.017-.01c-.37-.179-.624-.305-.784-.416a.5.5 0 0 0-.095-.01m98.246.021c-2.459.82-.217.291-.136.54.307 1.003-3.306.002-4.52.426-.17.055 1.101.18.667.34-1.413.493-5.856-.285-1.131-.818h-.003c1.234-.135.482.242.538.24 2.641-.046 1.928-.51 2.336-.647.881-.291.761.446 2.249-.08M92.332 8.447c-.12-.032-2.533-.445-2.581-.22.356.134 3.878.59 2.58.22m-56.668.04c.354-.053.628-.138.778-.27.164-.125.199-.216.142-.284-.286.173-.592.354-.92.554M23.555 7.386c-.042.42-2.638.438-4.602 1.067.113-.25 1.303-.578 2.29-.74.98-.167 1.86-.228 2.312-.327m67.712.238c-.287.004-.736.282-.707.308 1.497.947 5.914-.055 3.018-.116-.057 0 .505.494-.62.317-.095-.016-.268-.526-1.69-.509m-54.245.037q-.148.096-.306.192c.342.144 1.078.225 1.71.241q.334.006.588-.005c.221-.174.394-.33.513-.448l-.032-.03c-.032-.03-.535-.098-1.227-.132a29 29 0 0 0-.842-.03q-.197.1-.404.212m61.027-.159c-.115-.454 2.651.053 3.372.041-.611.274-2.372.004-3.372-.04m135.127-3.277c-.538.18.746.679 2.768 1.53 1.827.676 5.665 2.906 3.364 1.257-.46-.338-2.228-1.29-3.421-1.783a26 26 0 0 0-2.711-1.004M81.301 6.588c.143.273 3.154.794 3.298.772 1.44-.225-3.055-.846-3.298-.772m136.428.235c-.25.123-.566.286-.985.524.417-.066 1.207-.276 1.1-.484a1 1 0 0 0-.115-.04m-62.682-.387c.11.016-1.499.997-1.971.554-.363-.338 1.675-.58 1.971-.554M149.46 4.79c.949.115-2.208.68-1.135.207a20 20 0 0 1 1.135-.207m-69.708-.055c-.77-.385 1.61-.338 2.301.079.332.508-2.2-.034-2.3-.08M226.73 1.906c.85-.474 4.905 1.024 4.111 1.115-.347-.071-4.545-.9-4.111-1.115"/></svg>