<svg xmlns="http://www.w3.org/2000/svg" width="285" height="312" fill="none" viewBox="0 0 285 312"><path fill="#fff" d="M3.5 2.576h278.105v305.308H3.5z"/><path fill="#fff" d="M6.323 99.467c.316-2.636.109 6.165.58.32L7 103.452c-.175.309-.349.626-.523.935zm-2.186-2.234c.498 1.5.63 6.265 1.09 1.117-.17-.409-.342-.828-.513-1.237l.397-5.373-.195-1.927c.297-.819.595-1.63.893-2.448l-.131 2.19c.24 2.873.307 5.429.352 9.33l.21-1.029-.359 5.929-.357-5.212c-.466 2.538-.207 7.016-.11 9.347.133 3.174-.088 2.457.004 4.812.015.375.188.418.191 1.161.014 3.751-.078 11.035-.483 6.775.052-6.173-.273-11.437-.154-17.493-.468 1.602-.628-1.588-.835-5.942m1.49 113.396c-.227-1.871-.135-5.68.023-8.261v-.009c.035-.568.337-1.855.325 0-.021 3.023-.497 4.484-.174 6.071-.06.71-.114 1.455-.173 2.199m.029 6.57c-.117 1.854-.475 1.013-.378-1.309h-.001c.04-.969.324.933.036-2.542.224-.709.428-1.408.644-2.109.004.85.01 1.626.013 2.519-.368-.601-.198 1.587-.314 3.441m-.327-93.398c.33.292.328-.929.558-3.008-.01 1.962-.022 3.925-.033 5.879zm.051-46.108v-.01l-.156-1.922.354-1.148-.333-6.829c.36.277.302 4.355.554 6.601-.109 3.341-.318 4.951-.624 5.168zm275.784 192.1-.3-2.27c-.046 1.01-.081 2.012-.134 3.031.435 2.664.051 2.914.077 6.405.083 10.699.758 7.861-.231 17.524.047-7.758-.417-4.777-.775-9.454.272-.969.886 3.666 1.014.525-.288-5.412-.557-10.616-.743-16.62l-.141.525.089 2.849-.379-3.076c.286 1.319.127-2.044.455-1.594.147.201.35 1.687.49 2.564.076-2.263.145-4.584.219-6.872l.35 3.547.01 2.898zM61.714 4.539c2.873-.34 8.094-.396 10.842-.018-3.617.006-7.226.013-10.843.018M4.922 79.771l.173-.966.32 4.318q-.25.414-.5.841zm.186 91.897c-.01-1.05-.005-1.143.02-2.452l-.001.004c.009-.518.107-4.859.235-4.375.002 2.155 0 4.454 0 6.659-.084.066-.168.081-.254.164m.075-25.366.001-.009c.02-.785.06-1.528.067-2.337.202 2.914-.161 3.375-.058 6.022s.304 4.284-.194 6.53c-.075-.835-.182-1.735-.269-2.595.2-3.758.012-4.77-.184-7.785zm266.877 160.132c-.718.247-1.519.005-1.602.002l.004-.001c-6.362.228.828-.136-5.176-.175.893-.061 1.772-.126 2.657-.188 1.369.118 2.781.253 4.117.362m-206.721-.023c-.059-.071-.129-.143-.187-.215 3.608.017 4.528-.266 7.526-.009q-3.668.114-7.34.225zM4.587 189.856c-.136-4.001-.197-6.961.02-10.803l.001-.009c.014-.222.164.85.202.561-.023-.793-.057-1.612-.084-2.413l.36-.32-.103 6.774.21-1.01.11 5.755q-.296-1.003-.593-1.994-.06 1.729-.123 3.459m120.825 117.34c-.635-.078.54-.209-.446-.277-.985-.066-2.802.08-2.376-.141l4.072-.095c-4.351-.398-8.693-.038-8.759-.53 4.176.128 7.61.068 11.653-.068-.168.391-4.211.728-1.665 1.095-.818.005-1.678.012-2.471.015zM.027 21.32c.03-2.473-.13-8.138.098-11.262.056-.768.782-3.329.878-3.316.322.075.366 3.203.576-.147.002 1.127.014 2.22.02 3.339.217-.2.433-.4.649-.592l-.1-4.086.216-.2C2.366 9.95 2.642 7.06 2.9 9.6l.39-7.024c-.015 1.345-.027 2.931-.046 4.117.368.16.28-2.67.348-3.155.385-2.732.19 11.173.725 12.311.06-2.221.117-4.552.176-6.823l.198 1.963c-.369 5.153-.5 10.931-.729 16.936l.045 1.62c.166-.158.331-.308.497-.467l.059 2.466c-.546-2.414-.539.929-.872 4.963-.192-2.146-.076-4.794-.433-4.611.275 7.366-.114 15.993.196 23.158.077 1.78.539 1.774.496 5.956-.05-.142-.142-.166-.209-.258.221 7.233.353 11.622.128 19.14.166-.435.332-.862.498-1.296l-.25-4.78c.275-1.086.396.519.393-4.242-.002-3.9-.123-1.579-.205-2.64-.11-1.436.108-2.697-.016-4.241-.095-1.195-.321.097-.264-3.018.293 1.253.595 2.53.891 3.792-.066.76-.132 1.514-.2 2.275-.077-.769-.155-1.524-.233-2.293l.419 8.061c-.423-.91-.265 1.982-.215 3.552.079 2.446-.213.35-.164 1.954.05 1.604.375 3.333.305 6.232-.188-1.554-.357.56-.531.15-.174-.408-.212-3.474-.402-.529.144 5.663.806-.482.913 3.343.13 4.594-.95 5.687-1.182 4.318-.182-1.078-.146-4.785-.327-5.871-.329 6.64.32 6.697.446 7.834.461 4.126-.77 1.354-.325 6.24-.23-.092-.437-.166-.658-.258.042.843.098 1.403.131 2.421.449-3.004.43-.545.43.717.002 1.988.22-1.083.277-.557.151 1.42.083 3.666.28 2.288-.092.618-.184 1.288-.275 1.923.114 2.323 1.076 7.781.882 2.586.357.485.185 2.165.13 3.476-.053 1.312.174 1.287.132 2.44-.168 4.585-.557 1.585-.862.859.21 6.055.349.127.49 8.853.248.844.513-3.188.656.169-.431.619-.741 3.091-.885 7.91l.299 1.402c-.399 2.631-.813 1.286-.319 6.156-.909-2.615-.327-.817-.697 3.543-.075.885-.264-1.161-.36.075-.042.561.1 1.921-.01 3.29-.054.668-.405 3.792-.238 5.955.44-1.587.815 2.524 1.18-1.001-.09 6.515.12 11.075-.48 3.774l-.398 4.963c.105 1.153.209 2.316.313 3.477-.362.175-.463-.001-.4 4.54-.085-1.971-.172-3.933-.258-5.911-.073-.067-.15-.343-.22-.276.139 2.423.199 9.247.295 10.9s.123-1.54.216-1.063c.77 3.966.202 3.652.335 6.498.078 1.671.163-2.318.196-1.424.122 3.314-.287 4.851-.292 7.789q.35-1.568.703-3.098c-.012 3.082-.015 6.518.06 9.383.03 1.125.202.275.214.459.06.911.153 4.619.154 5.011.001 2.956-.238 3.04-.251 5.912l-.058-3.29c-.389-.501-.777-1.012-1.166-1.513l-.084 8.452.388-6.196.943 9.673-.578 5.029c.05 4.56.833 3.642.148 5.805l.173 4.032-.294-.574.18 4.861c.347-1.704.711-3.374 1.048-5.061.075 3.189-.219 3.25-.292 3.725-.194 1.262.067 3.765-.112 4.767-.062.339-.255-2.786-.478-1.709-.044.211-.863 4.395-.674 7.064.148-.05.33-.256.492-.365.09 3.59-.685 5.421-.902 4.945.152 1.913.165 4.709.402 5.101l.017 2.925c-.578-1.019-.473 3.057.025 3.325l.038-5.039c.61 1.27.978-3.832.413 6.783-.317 2.03.043-3.607-.195-1.954-.138 2.873-.022 5.571-.243 8.302-.276 3.398-.541-.783-.19 7.135.88-17.466.594 2.395.868 10.598-.87 2.255-1.145 9.182-.887 18.721.242-.994.118-3.995.197-5.724s.224.142.337-2.012.266-6.73.437-8.911c.137 1.847.46 10.965.072 4.936-.24 4.501-.486 6.614-.531 12.192.377 1.67.612 1.547.623 6.983-.524-3.215-.889 2.963-1.43 1.603.126-3.856.652-1.701.904-3.93.025-.229-.107-3.821-.097-4.656-.473 3.625-.65 4.878-1.212 2.648.05 2.564-.022 4.159.247 4.393-.116.535-.233 1.072-.35 1.598.002.449.006.874.009 1.308l.006 1.129 1.116-.007c.373-.002.754-.004 1.163-.003-1.219-.405 1.143-.156 2.822-.339 1.678-.184-.574-.504 4.037-.509-1.537-.095-2.942-.176-4.43-.266l8.93-.314c-2.088-.247-6.614-.615-6.49-.941 1.37.123 6.06-.093 6.574-.102 1.988-.034.905.172 1.055.177 3.123.1 5.696.03 6.882.341 2.346-.14 4.116-.06 6.605-.068 1.37-.004 1.103-.233 1.905-.19 5.329.29.252.586 10.531.023-1.244-.159-2.472-.322-3.716-.483l3.476-.181 2.323.087q-.026.519-.053 1.038l2.56.055-4.39.103c-.133.06-.258.121-.391.182l6.507.284.125-.361c4.895.167 5.011.269 9.663-.062 3.584.003 6.502-.499 8.573-.711q1.113.102 2.239.203l1.433-.299 2.844.416c.526-.315.799-.414-2.884-.525 1.262-.392 7.745-.219 10.385-.087 2.002.1-.22.427.03.467.837.135 4.137.019 4.83.041 2.932.093 4.986.077 7.634.15.515.014 1.956.222 2.078.228.953.036 3.303.137 3.57.139 13.787.155-.945-.745 11.876-.65-.384-.119-.737-.237-1.113-.356l2.915-.021c1.228.099-.257.28 2.181.134q-.236.22-.485.438c1.061-.079 2.084-.157 3.169-.236 1.704.508 7.925.623 7.483 1.219-.151.203-4.561.411-2.23.628 1.893.043.612-.2 1.384-.212 5.58-.089 5.255.251 7.536.16.359-.145.736-.294 1.104-.441l2.59.129c.2-.098.409-.196.61-.294l-2.466-.02c1.037-.378 10.556-.548 6.926-.226-1.478.132-4.186.076-2.475.523 2.547-.064 5.438-.13 8.119-.194.083.096.161.192.245.289 3.613-.063.327-.448.333-.654l2.489-.017c.35.093.683.191 1.05.282.034-.149.497-.494 2.96-.366 1.584.083-.91.458 2.11.406-.226-.232-1.317-.514 2.047-.589.334.242.796.464 1.055.718 4.184-.232 6.088.141 10.999-.129 3.115-.171 7.383-.778 9.396.157 2.279.025 1.556-.208 2.23-.26 3.183-.248 5.55.195 6.143.222 3.782.167 5.477.013 8.559.223-.167-.174-.258-.338-.392-.506-2.823.259-4.253.247-8.212.191l3.984-.105a55 55 0 0 1-.641-.421c-12.245.554-9.389-.321.877-.512.885.26 1.802.519 2.679.78 5.93-.394 8.721-.052 15.428.03.797.009 3.701-.14 4.949-.148l-.062-.003c.777-.245-.275-.358-.401-.578l2.03-.082c1.511.167.98.304 3.953.265-.401-.167-.797-.334-1.198-.5 3.258-.006 5.39.175 8.422.097l-1.523.189c6.599.161 1.348 1.14 6.334.653.318.085.627.171.944.257l-6.156.062c-.042.121-.087.242-.12.363l6.601-.11-4.821.243 7.643.174c-2.705-.445.802-.499.142-.939 4.511.366 8.054.849 15.045.54 1.386-.061.633-.369 4.567.005-.952-.489 3.976-.719 3.343-1.185-1.37.023-2.79.037-4.118.064 1.512.162 1.763.606-.534.738-2.931.168-7.207-.14-7.032.353-1.169-.023-2.257-.036-3.392-.056.467-.122.925-.245 1.384-.368-3.231.192-5.261.13-6.815-.179l11.542-.211-1.709-.063c2.915-.315-.092-.613 5.346-.681-.034.144-.06.289-.094.434 1.98-.386 7.4-.384 5.671-.827 1.637.136 1.971.222 2.898-.017 4.318.337 7.091.763 5.554 1.272l4.803-.246-2.782-.417 8.382.026c.267.411-5.37.124-3.744.492.326.074 1.827-.084 2.221-.043 4.16.45-2.37.125-1.144.47 4.357.075 3.201.382 5.093.39l.372-.002-.003-.367c.004-.8-.047-2.145-.191-4.682.119-.225.24-.467.358-.676.007-2.963-.261-2.723-.312-5.27-.031-1.595.44-3.597.119-5.359-.059-.314-.635 2.649-.61-3.579.02-4.834.427-2.822.571-5.435.144-2.614-.42-8.595.22-10.357-.085 1.369-.131 3.113-.2 4.633.124.618.248 1.22.371 1.83-.16-3.475.029-7.067-.268-9.406.454-4.635.033-9.82-.48-8.417.074 1.526.298-.134.155 1.986-.12.217-.238.446-.358.663.014-3.609.011-6.115.376-4.469l.026-1.674c-.264-.1-.529-.189-.793-.289l-.088-2.007.175-2.239c.417 1.01.431 2.732.664-2.965-.144-.016-.288-.041-.432-.058.183-4.769.533-4.895.52-10.883.5 4.594-.387 7.108.617 7.091l-.199 3.467q.22.265.437.517c-.076-6.189-1.034-16.47-.399-20.613-.078-.501-.145-1.004-.228-1.514.383-4.059-.477-5.812.018-9.93.052-.425.861.464.832-4.896-.105.133-.282.203-.415.311q.098-1.74.198-3.467c-.097-.209-.194-.428-.292-.636l-.113 5.933-.1-4.945c-.159 2.146-.161 3.114-.415 1.82l-.046-5.59-.197-.575c-.194.902-.383 1.814-.581 2.716.159-4.853.168-9.072.549-12.797.065-.635.318 1.61.09-2.715.134-.067.242-.183.366-.259-.375-5.295-.263-7.035.008-12.556-.253 3.575-.088.385-.224-.525-.093-.624-.079 1.811-.177 1.535-.097-.275-.489-3.439-.536-.734.803 6.632-.157 8.439.229 16.959l-.311-3.944-.209 1.838c.157-4.752.055-2.441-.069-4.393-.123-1.955-.229-5.507-.263-7.887-.01-.75.17.041.186-1.652.012-1.152-.255-4.302.06-5.029.205-.477.769 4.584.768-2.413.201-1.317.139 2.038.163 2.11.239.61.419-3.692.236-5.68-.016-.161-.202 1.409-.275-.298-.175-4.051.039-6.391.328-9.013-.339-.284-.744-3.693-.619-7.937-.097-.217-.195-.424-.292-.641l.153 1.977c-.061.718-.105 1.479-.177 2.181-.083-4.267-.55-4.871-.721-6.917-.584-7.003.651-2.759.864-1.496-.086.911-.182 1.791-.273 2.693.118-.1.237-.202.356-.294-.004-10.482.766-1.596.986-6.917-.581-1.369-.637-5.277-.268-10.255q-.003-.828-.008-1.656c-.084-.092-.214-.09-.27-.24-.098-5.997.796-7.066.881-7.634.376-2.522-.144-4.486-.148-5.23-.019-3.132.212-4.042.113-7.024-.107-3.206-.284-1.014-.443-1.989-.126-.783-.148-3.313-.279-4.358.107.415.212.877.319 1.291.145-3.324.287-6.04.323-9.815-.782-4.26.537-7.883-.532-6.414-.074 3.575-.195 5.574-.468 7.487l-.103-7.042c.117-.684.231-1.17.351-1.98-.249-1.754-.142-5.82-.215-7.416-.343-7.475-.768-5.163-.054-11.987.07 4.919.417 4.91.369 9.788.248-1.052.196-3.53.493-1.927-.073-4.719-.338-3.193-.573-5.03-.203-1.584-.215-4.773-.478-4.593.145-.326.285-.579.43-.904q-.002-4.585-.003-9.169l.454 3.908.171-2.956c-.471-7.517.392-20.48-.791-18.41-.038-3.624.111-4.077.335-6.048-.09-.217-.165-.428-.265-.646.094-2.338-.243-4.133-.155-6.195.087-2.063.405-2.575-.13-2.876.153-1.336.281-2.665.423-3.992q-.181-1.204-.362-2.395l.191-3.761c-.256-.67-.146-5.596-.317-7.768.215-1.61.792-1.928.959-4.304l-.002-.457-.453.002a25 25 0 0 0-2.55-.027l.374.644-3.343-.134c-.067-.07-.124-.14-.191-.21.568.02 1.128.042 1.696.065l-1.46-.356-5.097.528 6.891.4c-2.882.158-4.888 0-7.394.176-2.179-.297-1.375-.468-.489-.79l-2.44.082c.535-.323-.835-.515 3.9-.489-.326-.092-.658-.18-.975-.275-.777.015-1.28-.063-2.132-.028-2.322.097-4.103.664-3.944.862.086.104 2.375-.095 2.284.052-.227.359-5.479.198 2.096.558-2.514.228-3.076.056-5.849-.01q.325.18.637.357l-3.859-.164c1.787-.614-7.693-.844.841-1.381-2.522-.028-5.035-.055-7.549-.084l1.553-.189 3.401.099-4.01-.345c-3.158.143-4.395.362-5.84.633 3.674.198 2.474-.072 5.337-.126-.1.172.032.33-.219.51-1.479-.355-6.305-.097-7.424-.08-3.406.053-.735-.296-3.013-.303-2.281-.008-4.97.2-6.833-.146.034.194.183.395.316.572-3.55.063-2.841-.166-3.209-.196-5.863-.488-9.045-.076-15.752-.026q1.28.089 2.572.171c-5.06.412-1.651.286 2.742.422-4.118-.04-6.476.31-9.383.414s-7.89-.076-9.712-.216c4.168-.226 8.664-.077 13.291-.14-.526-.197-1.037-.365-1.58-.582-2.815.415-4.445.138-5.373.083-2.722-.162-2.636.194-4.281-.189.066.132.115.243.182.366-5.621-.055-11.684-.288-15.343.199-.334-.317-.586-.622-.97-.945-2.38.238-4.419-.006-6.423.05-1.996.056-1.236.312-3.583.41-.435.018-1.339-.142-2.408-.024-1.08.119-5.061 1.002-5.537.23-2.013-.003-3.918-.031-5.889-.044l5.755-.13c-1.637-.186-3.264-.373-4.901-.56-.208.167-.418.337-.618.501-4.41.203-7.611-.07-12.063-.005-.743.01 1.011.34-2.288.256s-5.747-.699-11.368-.461c-.284.012-1.948.483-3.961.157-.458-.074 1.47-.183.418-.28s-5.748-.177-6.116-.408c.051.082.344.167.486.25l-2.422.116c-.075-.144-.156-.288-.231-.431-4.611.335-6.993.882-13.825.701l5.755.629c.526-.147 1.053-.295 1.571-.442l9.454.175 1.545-.501 2.497.064q-.312.182-.637.363l4.954-.09c-3.349.714-9.353-.06-8.92.536l-2.23-.279c-.325.29-1.836.206-4.5.16.61.143 1.284.284 1.843.428-2.589-.201-7.182-.181-9.863-.259-1.178-.034-.002-.244-.352-.269-1.796-.129-5.228.238-5.947.209-4.293-.173-7.083-.867-11.768-.41 4.836.114 2.205.066 3.926.32.538.08 6.786.246-1.038.172-.917-.009-15.113-.489-10.446-.857-2.297.118-4.096.253-6.2.378-5.146-.97-3.365-.059-1.87.443-.844.002-1.646.007-2.515.007 1.846-.527-7.559-.56-10.75-.294-1.068.089 1.921.257-.551.337-1.177-.037-2.513-.085-3.757-.126 1.804.333-1.736.462-1.687.8-2.263-.302-3.995-.942-2.75-1.289l-5.622.422 2.617.24c-6.114-.212-13.976.272-15.254-.44l-2.44.015c-.25.12-.492.24-.743.36-3.666-.103-7.323-.208-10.99-.313 3.265-.074 4.042-.246 7.465-.107-1.319-.138-2.663-.277-3.957-.415-5.153.372-5.856.617-13.616.506-.35-.005-6.213-.317-6.414-.348-.918-.139.476-.34.067-.411-1.136-.197-8.039-.692-7.905-.767C5.189.243 28.414.231 34.695.183c65.151-.488 128.867.165 193.609.054.665-.002.375-.137.659-.143 1.762-.034 3.492.177 4.144.186 1.392.017.625-.177 1.642-.177 10.508.002 20.423.116 30.94.083.684-.002-.015.154 1.188.126.621-.015 2.564-.254 3.966-.258 3.773-.01 7.08.034 10.762.053l2.455-.015.015 2.484a536 536 0 0 0-.008 3.405c.002 2.824-.019 7.059-.015 10.216.002 1.394.111 2.846.115 4.224.005 1.954-.217 1.555-.231 1.856-.06 1.32.183 1.502.178 2.755-.012 2.33-.174 2.456-.161 5.413.01 2.113.139 6.95.176 9.614-.188 6.231-.113 14.083-.051 19.896.037 3.441-.19 3.76-.19 5.163.005 4.945.295 8.697.305 13.34.012 6.163-.18 11.625-.194 17.596-.002.968.206.745.212 1.695.019 3.517.057 8.014.027 11.146-.032 3.491-.335 4.778-.273 8.194.018 1.002.283 1.295.317 2.974.054 2.68-.18 5.62-.206 7.491-.035 2.564.235.334.199 3.792-.002.142-.195.66-.185 1.402.026 2.164.178 1.949.163 5.115-.002.303-.186 4.501-.186 4.918-.003 2.456-.068 7.399-.029 8.853.139 5.196.43 1.105-.2 5.524.154 1.946.31 3.875.46 5.938-.14-1.377-.341 4.21-.328 4.602.105 3.247.35 1.313.309 5.43-.566-5.437-.073 5.313-.058 7.71.07 11.543-.071 22.035-.068 33.637.002 3.883.122 9.088.119 13.197-.001.958-.135.234-.138 1.077-.002.841.149-.092.141.868-.052 5.972-.336 10.651.019 16.122-.051.266-.092.258-.148.699.318 4.477-.11 13.099-.169 16.34-.091 5.069.124 6.363.081 10.046-.058 4.869-.478 12.18.215 8.915.022 3.341.028 6.557-.037 9.931-.007.375-.183.116-.187.267-.025.952.133 1.262.14 1.905.019 1.743-.17-1.102-.117 1.384.028 1.311.166 2.056.169 5.698l.003 6.96.015 2.622-2.654.016c-19.971.003-41.179-.039-61.323-.06-1.545-.001-.528.169-2.466.158-6.732-.037-18.783-.324-24.588-.285s-4.495.288-8.127.393c-.702.02-.127-.122-.762-.124-4.268-.013-9.356-.235-12.814-.268-2.287-.023-2.104.201-3.69.217-2.364.023-4.797-.203-6.058-.21-5.93-.032-10.006.15-15.543.057.216.049.359.095.543.143l-19.661-.024.917.136c-7.692-.024-6.814-.511-6.138.517-.559.036-1.152.078-1.687.111.217-.529-4.436-.917-10.357-1.052-.435-.01-3.349.507-3.032-.103-.76.149-1.213.252-1.856.383-1.252-.185-2.522-.367-3.774-.551l-2.039.081c-.1.12-.023.244-.24.361-3.14.019-9.581-.129-12.063-.114-6.164.038-12.44.361-17.234.012-2.336.036-.016.271-3.49.241-.392-.119-.761-.233-1.17-.355-2.84.531-3.432.208-7.323.097-2.63-.076-4.353.054-6.859.029-.635-.007-.545-.162-.979-.157-1.455.016-5.605.23-6.632.236-9.304.056-17.297.032-26.16-.025-.951-.006.283.148-.702.141-1.586-.01-.653-.246-1.572-.258-2.562-.031-2.581.219-6.155.232-1.658.006-3.351.007-5.071.005l-2.586.016-.016-2.618c.012-10.486.152-21.961.167-32.523 0-.384-.146-.361-.148-.779-.007-2.722.19-5.478.188-7.95-.003-4.101-.208-7.183-.207-11.234 0-7.919.106-14.993.111-23.137.006-6.665-.014-12.454-.013-19.763.003-31.924-.46-64.5-.214-96.642.006-.818.135-.485.13-.734-.056-2.372-.23-2.584.134-3.428-.072-3.021-.345-3.975-.326-7.624.01-1.945.435-.493.216-3.784-.198-2.97-.43.308-.193-8.528.007-.234.265-1.385.198-3.222-.067-1.847-.252.29-.308-4.153-.13-10.432.094-23.637.025-35.765-.005-.76-.143-8.08-.207-9.525-.123-2.797-.316-2.212-.363-5.844-.036-2.807.182-5.123.138-8.422-.005-.384-.229-1.028-.2-3.507M280.73 257.68c-.22-.685-1.029-1.921-.783-6.062.023-.393.58 1.727.668-.561.059 2.238.078 4.418.115 6.623M5.183 3.368l-.121 9.308-.294-6.41zm79.559 303.217h-.009l9.775-.313-1.028.231-7.71.362zm-25.736.813c-2.08-.091-1.571-.245-2.715-.395v.001c-.302-.039-1.709-.073-2.253-.079.2.096.46.191.677.287-4.853.233-14.343-.596-2.056-.93-.184.122-.36.243-.543.365 6.105-.034 12.912.23 6.89.751m221.373-98.812c-.398-5.212-.482-6.884-.209-13.207l.339 2.68-.345 3.125v.009c.121.208.242.418.363.618zM4.274 163.875c.796-1.453.333-1.034.513 3.115.062 1.437.201.037.224.931.127 4.826-.406 5.212-.684 4.135-.019-2.732-.036-5.491-.053-8.173zM4.109 38.652v-.009c.194-.125.246 1.82.43-.374q-.002 2.503-.003 5.017l-.054-1.487-.2 1.304c.223.593.093 1.144.018 2.898l.716-1.451-.214 6.12-.18.076.231 2.297-.214.618.163 2.782c-.173.282-.248-1.76-.204 1.86-.178-1.11-.356-2.218-.534-3.338zm.41 162.972c-.034-5.988.092-4.302.486-2.915zM205.78 307.216c1.738-.269 3.482-.535 5.261-.794 3.542-.15 7.085.34 4.42.532-3.207.23-6.557-.028-9.681.262m75.038-4.169c-.125 4.333-.444.256-.63-.721.299-1.199.273-2.871.307-5.555.02 2.521.344 5.559.324 6.276zm-144.768 3.867c-1.737.008-3.464.083-5.017-.008.469-.257 3.575-.023 1.353-.404l3.325-.02c-.7.158.242.276.334.431zM4.822 259.649c-.305 3.407-.174 4.053.036 7.486-.247.484-.662-3.609-.754-6.173q.36-.651.718-1.313M107.177 3.771c.818-.316 6.855-.357 9.854-.264l-1.072.142zm173.34 291.722q-.014.675-.022 1.278c-.003-.447.002-.879.022-1.278m1.37-181.444c.298 1.428.398-2.816.281 2.337h.001c-.077 3.408-.097 4.16-.12 7.318-.383-1.137-.519-7.542-.598 1.286-.001.116.227-.115.196 1.295-.01.436-.197 1.829-.251 3.948-.017.685-.075 5.832-.079-1.184-.266.209-.536-.168-.795-.151-.075-2.739.447-4.843.434-7.74-.02-4.302-.548-6.491.145-7.318.17 3.617.174 9.828-.242 10.638-.006 3.499.336 4.504.505 1.683-.215-12.087.506-3.318.234-13.901-.097-.125-.2-.561-.291-.494.339-3.231.474 1.774.58 2.283m-.736 25.273-.613-6.249c.331 0 .629 1.147.816 4.438zM242.694 3.118c-.3.18-1.102.346-1.687.517-.634-.152-15.67-.298-8.021-.447 1.111-.022 7.887.297 9.708-.07M4.55 235.987l-.363 5.296-.234-8.141zm230.056 71.546c-.748-.007 1.736-.255-1.211-.216 2.197-.159 4.254-.293 6.4-.442l1.937.351 1.513-.225c-.301.171-.568.338-.886.512-3.616-.367-4.446.049-7.753.02m-107.543.668c-.651-.371 4.587-.592-.565-.652.977-.244 2.548-.372 5.563-.394l1.452.28c.066-.25.842-.343 2.537-.521l.004.001c4.584-.018 4.31.065 5.413.476-4.853-.232-4.998.143-8.306.366-2.272.154-5.238.084-6.098.444M258.714 3.114c-3.432.313-.352.606-6.441.273l1.179-.239zM110.127 306.928c.392.575 3.623 1.023 4.175.087-3.149-.191-1.611.339-4.175-.087m171.592-2.404c-.007 1.57-.056 2.656-.13 3.36l.016-.017c-1.636-.172-1.209-.481 0-.72l-.737.737a16 16 0 0 1-.15-.938q.177-.578.354-1.144l-.161-3.183zM3.824 307.76l.012.124-.336-.336c1.891-.173 1.158-.236 0-.275l.61.611c.05-1.492.056-3.69.2-1.886.048.607.062 1.26.051 1.886l-.861-.861c2.036.033 3.793.322 2.81.52-.861.007-1.816.012-2.81.016l.325.325v-.124m26.33-.318c-.76-.439.335-.311-3.32-.232-1.045.023-9.341-.142-5.858.221 2.964 0 6.096.007 9.178.011m250.922-72.911c.192-.056.611 6.333.506 7.153h.001c-.286 2.214-.327-4.526-.719-1.602.345-6.473-.491-8.41.611-7.959.048 3.813-.179 2.008-.399 2.408M27.912 2.871h-.01c.43.01 3.965.29 3.535.387-4.251-.084-3.494-.268-7.451.035-.217-.097-.403-.192-.637-.29 1.57-.059 2.441-.176 4.563-.132m198.527-.138c1.562-.05 4.412.157 6.191.145-5.663.795-12.43.053-6.191-.145M4.136 97.219v.014-.013m276.836-28.771c.051-.202.096-.315.136-.356h.011a6 6 0 0 0-.147.356m.047 152.806c.266-2.661.69 6.204.589 9.071-.122-.201-.232-.232-.372-.699.315-2.314-.262-7.93-.217-8.372m-114.907 86.141c7.008.007-2.112 1.06-2.488.22.014-.016 2.307-.218 2.488-.22m115.017-30.877c.319 1.786.403-1.802.348 3.935l-.248 1.001zm-69.108 32.259c8.82-.178 17.255-.491 11.51-1.369l-2.012.083c-.1.429-2.563.195-6.169.181-.514.17-2.513.21-2.889.354-.725.28 1.572.476-.44.751M3.305 144.032l.22.422.246 4.189-.42-.677-.046-3.925zm278.75 3.886c-.805-.802-.657 1.998-.25 7.678zM70.289 308.45c-.183-.228-.364-.456-.556-.685-3.015.238-2.456.5-1.01.803zm-43.433.098c1.25.048.612-.137.743-.133 3.166.097 3.611.181 7.496.042.476-.048.944-.099 1.42-.149-1.796-.48-3.1-.218-6.9-.5l2.052.494-6.33-.104-.751.152c.751.065 1.527.138 2.27.198M3.513 127.901l.057-6.174q-.177-.111-.355-.222zm278.175-22.171a11 11 0 0 0-.127-.463c.053.014.093.192.127.463M22.49 2.223c-2.33-.082-5.687-.028-8.243-.045.2.296 6.697.214 8.978.394.366-.054.25-.314-.735-.349m254.098 305.748q-.878.221-1.745.443l-4.246-.049-.125.364c6.255-.157 4.813.192 7.91.536-.601-.431-1.193-.862-1.794-1.294M2.746 62.523c.082 4.52.234 6.122.597 3.575l-.25-4.794c-.115.409-.231.819-.347 1.22m279.216-39.089c-.136-3.781.351-3.844.079-7.54l-.27 5.929zm1.337 185.459c.17-1.595-.636-4.578-.041-9.062-.178-1.069-.347-1.739-.521-2.658.189-.534.381-1.142.568-1.651v-.009c-.064-4.068-.301-1.43-.501-1.522-.084-.043.056-3.062-.125-2.119-.311 1.629-.133 7.715-.511 7.732.123-2.139.02-6.314-.233-5.079-.277 1.353.188 5.288-.043 7.794.606-3.591.419 3.825-.046 4.669.357 4.352.503.352.486-4.108.356 2.722.164-1.286.46-1.946.179 2.808.03 12.444.507 7.959M175.286 308.921c3.008-.023 7.706.181 9.766-.12 1.199-.175-3.511-.311-.263-.586-2.93.027-3.599.134-3.098.376l-2.012.085-.935-.141c-.35.1-.703.198-1.046.297l-2.136-.059c-.083.05-.226.093-.276.148M193.888 2.235l2.497-.01c-.092-.058-.201-.12-.307-.18l-.227-.143c.484.17 4.462.454 6.138.272.843-.091-1.075-.416 2.497-.472-2.588.016-4.986.06-7.5.088.226-.096.442-.193.668-.29h-.005l-2.515-.066c-.417.267-.828.534-1.246.801M72.738 308.903c2.848-.189 3.801-.287 2.456-.593l-.008-.001-3.183.407c.242.062.484.125.734.187M282.696 81.196c-1.161-6.056-.449 7.582-.054 4.985.019-.117-.074-4.417.054-4.985m-.621 222.216.024 4.472.003.492-.498.003-.526.003.526.193.696-.004-.004-.687.234-.635zM2.219 82.197c-.32 1.75-.435 6.24-.088 8.435l.122-3.459c.04 2.18.083 4.334.121 6.53.444.117.186-2.414.309-6.222.02-.59.57-4.36.155-5.662-.085-.262-.143 3.749-.391.961-.02 1.22-.016 2.271-.026 3.423-.106.084-.212.166-.318.258zm190.577 226.69c4.132.024 4.642-.153 5.502-.467l-5.764.106c.092.12.171.24.262.361M2.116 119.123c-.05 2.262.205 1.293.253 2.204.183 3.441 0 5.788.115 9.187l-.143-.65v.009c-.215 16.095.363 7.641.27-1.99.094-.225.19-.442.283-.668-.166-4.309-.325-8.284-.777-8.092m280.621 15.873c.059-.184.437 1.378.26-1.553-.551-2.322-.277 1.486-.489 2.439-.053-.794-.105-1.605-.158-2.39-.155 4.744-.024 5.436.378 3.707.028-.123-.05-2.019.009-2.203m.272-31.18c-.812-.651-.447 5.336-.195 5.119.01-.827-.128-1.469-.067-2.346.061-.885.251-1.111.262-2.773m-.199 171.54c.004-.175.345-1.937.078-1.762-.633 2.18-.226 6.573-.005 5.804-.011-1.453-.106-2.422-.072-4.042zM2.027 54.948c-.023.083-.16 4.48-.032 5.047.143.468.297.7.445 1.05-.137-2.422-.033-7.325-.413-6.089z"/><path fill="#ff3f3e" d="M72.668 291.232v-.665a76 76 0 0 0-.07-1.225q0-.525-.035-1.295 0-.77-.035-1.295v-3.465q.035-.525.07-1.12t.07-1.155q.034-.595.105-1.19a5.6 5.6 0 0 1 .245-1.155q.175-.56.525-1.12.385-.56.91-.735.56-.21 1.12.07.595.245 1.015.805.42.525.665 1.085.28.56.455 1.155.21.56.35 1.05.175.49.35 1.05.21.56.385 1.085.21.525.385 1.015.175.455.385 1.015.21.525.49 1.05t.595.07.56-.91q.245-.49.455-.98l.42-.98q.244-.525.42-1.015.21-.49.455-.98.28-.49.56-1.05.316-.56.595-1.05.28-.525.63-.98a2.4 2.4 0 0 1 .805-.735q.455-.245 1.155-.105.735.105 1.085.665.351.525.42 1.085.07.525.07 1.085.035.56.035 1.085v2.1q0 .56-.035 1.155-.035.56-.07 1.085t-.105 1.155a24 24 0 0 0-.105 1.225v1.12a15 15 0 0 1-.105 1.75q0 .175-.035.385a.9.9 0 0 1-.105.385q-.105.175-.28.315a1.6 1.6 0 0 1-.315.245 1.8 1.8 0 0 1-.385.105q-.21 0-.42-.035a2 2 0 0 1-.385-.175 1.6 1.6 0 0 1-.315-.245 2.4 2.4 0 0 1-.175-.35 3 3 0 0 1-.105-.42q0-.21.035-.385a2 2 0 0 1 .175-.385 1.6 1.6 0 0 1 .28-.28.8.8 0 0 1 .35-.175q.21-.07.42-.07t.385.07q.21.07.385.21.175.105.28.28t.14.385q.07.175.07.385t-.105.42a1.4 1.4 0 0 1-.21.35 1.6 1.6 0 0 1-.315.245q-.175.105-.385.14a2 2 0 0 1-.385.035 3 3 0 0 1-.42-.105 1.6 1.6 0 0 1-.315-.245 3 3 0 0 1-.245-.35 2 2 0 0 1-.105-.385l-.035-.21v-.42q0-.455.035-.98.035-.56.035-1.085t.035-1.05q.07-.56.105-1.12t.07-1.085q.035-.49.07-1.12t.035-1.155v-3.08q.035-.525.595-.455.56.035.28.49-.28.42-.56.875l-.525.98a12 12 0 0 0-.525 1.12q-.244.56-.525 1.155a84 84 0 0 1-.455 1.085q-.21.49-.455.98l-.525 1.05q-.28.525-.595.98a3.8 3.8 0 0 1-.77.875q-.455.386-1.19.42-.734 0-1.19-.28a4.2 4.2 0 0 1-.875-.84 11 11 0 0 1-.665-1.085q-.245-.525-.455-1.05-.21-.56-.455-1.085-.21-.56-.455-1.155-.21-.63-.42-1.225-.175-.63-.35-1.12-.175-.525-.315-.98a1.67 1.67 0 0 1-.035-1.015q.175-.56.07.035t-.14 1.12q-.034.525-.07 1.12l-.07 1.19v3.5q.035.525.035 1.26.035.735.035 1.26.035.525.035 1.225.034.665 0 .84 0 .14-.035.28a.8.8 0 0 1-.14.28 1 1 0 0 1-.175.245 1 1 0 0 1-.245.175l-.28.14a1.3 1.3 0 0 1-.315.035q-.14 0-.315-.035a1.3 1.3 0 0 1-.28-.105l-.28-.14-.21-.21-.14-.28-.07-.28zm19.196-12.775v1.645q.035.664.035 1.365.035.665.035 1.225v1.19q0 .63.035 1.225l.07 1.225q.034.595.07 1.12.069.525.315 1.05.28.525.77.665.525.14.98-.21.49-.35.595-.84t-.175-.98a2.24 2.24 0 0 0-.7-.77q-.385-.315-.91-.21-.49.105-.735.245-.246.14-.42.245-.175.105-.385.14a2 2 0 0 1-.385.035 3 3 0 0 1-.385-.105 1.64 1.64 0 0 1-.56-.56 2 2 0 0 1-.105-.385 1.1 1.1 0 0 1 0-.385q.035-.21.14-.385.104-.175.245-.315a.9.9 0 0 1 .315-.21q.175-.07.385-.105a.7.7 0 0 1 .385.035q.21.035.385.14.174.105.28.28.14.14.21.35.07.175.07.385a.75.75 0 0 1-.035.385 2.5 2.5 0 0 1-.175.35.8.8 0 0 1-.28.28q-.14.105-.35.175-.175.07-.385.07t-.42-.07a2.5 2.5 0 0 1-.35-.175 1.6 1.6 0 0 1-.245-.315 2.4 2.4 0 0 1-.175-.35 2.4 2.4 0 0 1-.035-.385q.035-.21.105-.385a.9.9 0 0 1 .21-.35l.14-.14.315-.245a5.3 5.3 0 0 1 .91-.49 4.5 4.5 0 0 1 1.19-.315 3.3 3.3 0 0 1 1.085.035q.524.07 1.085.42.594.35.945.77.384.385.63.84.28.455.49 1.015.245.525.245 1.19t-.21 1.225q-.21.525-.49.945t-.665.77q-.35.315-.98.595t-1.19.35q-.525.035-1.085-.07a4.2 4.2 0 0 1-1.015-.42 4.6 4.6 0 0 1-.84-.665 4.4 4.4 0 0 1-.63-.875 4.3 4.3 0 0 1-.385-1.05q-.141-.63-.21-1.155-.036-.525-.07-1.155l-.07-1.225q-.035-.63-.035-1.26v-1.155q0-.56-.035-1.225v-1.365q0-.664-.035-1.155v-.63l.07-.28a.8.8 0 0 1 .105-.245q.105-.14.21-.245a1 1 0 0 1 .245-.175q.14-.07.28-.105a.6.6 0 0 1 .28-.07q.174 0 .315.035.14.034.28.105a1 1 0 0 1 .245.175q.105.07.175.21.105.105.14.245.069.14.105.315zm10.15.035v.455q0 .49-.035 1.19 0 .665-.035 1.33v5.565q.034.49.07 1.05.034.56.07 1.085.034.49.07.77.035.245.035.455t-.07.385a1.4 1.4 0 0 1-.21.35 1 1 0 0 1-.28.245q-.175.105-.385.175a2 2 0 0 1-.385.035 1.8 1.8 0 0 1-.385-.105 3 3 0 0 1-.35-.245 1.6 1.6 0 0 1-.245-.315 2 2 0 0 1-.105-.35 2.4 2.4 0 0 1-.035-.385q.035-.21.14-.385.104-.21.245-.35a.9.9 0 0 1 .315-.21.73.73 0 0 1 .385-.105 1.1 1.1 0 0 1 .385 0q.21.035.385.14.174.105.28.28a.9.9 0 0 1 .21.315q.105.175.105.385t-.035.42a.84.84 0 0 1-.175.35q-.105.14-.28.28-.14.105-.35.175-.175.07-.385.07a2.4 2.4 0 0 1-.385-.035 2.4 2.4 0 0 1-.35-.175l-.28-.28a2.4 2.4 0 0 1-.175-.35l-.035-.21-.035-.315a28 28 0 0 0-.105-.805 62 62 0 0 1-.07-1.155 58 58 0 0 0-.07-1.19v-5.635q.035-.665.035-1.295.035-.665.035-1.12v-.63q.034-.175.07-.315.07-.14.14-.245.105-.14.21-.245a1 1 0 0 1 .245-.175 1.3 1.3 0 0 1 .28-.105q.14-.035.28-.035.174 0 .315.035.14.034.28.105a1 1 0 0 1 .245.175q.105.105.175.245.105.105.14.245.07.14.07.315zm19.008-.35.07.49q.035.525.105 1.225t.105 1.225.07 1.155q.035.595.035 1.225t.035 1.19q.035.525.035 1.05.035.49.035 1.12v2.275q0 .56.035 1.12.034.56 0 .77a1.5 1.5 0 0 1-.14.385.9.9 0 0 1-.21.315 1.6 1.6 0 0 1-.315.245 2 2 0 0 1-.385.105q-.21.035-.42 0a1.5 1.5 0 0 1-.385-.14 1.6 1.6 0 0 1-.315-.245.9.9 0 0 1-.21-.315 3 3 0 0 1-.105-.385q0-.21.035-.42t.14-.385a1 1 0 0 1 .245-.28q.175-.14.35-.21.21-.07.42-.07a.7.7 0 0 1 .385.035q.21.07.385.175t.28.28a.8.8 0 0 1 .175.385q.07.175.07.385 0 .175-.07.385a1.4 1.4 0 0 1-.21.35.8.8 0 0 1-.28.28q-.175.105-.385.175a2 2 0 0 1-.385.035 3 3 0 0 1-.42-.105.9.9 0 0 1-.315-.21 1.6 1.6 0 0 1-.245-.315 2 2 0 0 1-.175-.385l-.035-.21v-.28a7 7 0 0 1-.035-.805v-1.085q0-.56-.035-1.155v-1.19q0-.595-.035-1.19 0-.63-.035-1.26 0-.63-.035-1.155 0-.525-.07-1.19a28 28 0 0 0-.105-1.4q-.07-.735-.14-1.225-.035-.525-.035-.665t.035-.28q.07-.175.14-.315a1 1 0 0 1 .175-.245q.105-.105.21-.175a.8.8 0 0 1 .28-.14.6.6 0 0 1 .28-.07q.175 0 .315.035.175 0 .315.07.14.035.245.14a.46.46 0 0 1 .21.21q.105.105.175.245t.105.28zm-7.56-.91.35.35q.385.35.91.875.56.525.945.91.386.35.84.875.49.49.91.875.454.385.84.805.385.385.735.84t.56.945.21 1.155q.034.664-.21 1.26a4.1 4.1 0 0 1-.63 1.015 8 8 0 0 1-.875.875q-.454.385-.84.77l-.77.7-.805.805-.91.84q-.42.42-.875.84l-.42.385q.034-.035-.105.14a1.6 1.6 0 0 1-.315.245q-.175.105-.385.175a2 2 0 0 1-.385.035 2 2 0 0 1-.385-.105 3 3 0 0 1-.35-.245 1.6 1.6 0 0 1-.245-.315 1.1 1.1 0 0 1-.14-.385v-.385q.035-.21.14-.385.105-.21.245-.35a.9.9 0 0 1 .315-.21.9.9 0 0 1 .385-.105q.21-.035.42 0t.385.14.315.28q.14.14.21.35.07.175.07.385.035.21-.035.42a2.5 2.5 0 0 1-.175.35q-.105.175-.28.315a1.2 1.2 0 0 1-.35.175q-.175.07-.385.07t-.42-.07a2.5 2.5 0 0 1-.35-.175 4 4 0 0 1-.28-.315 2.5 2.5 0 0 1-.175-.35 2.6 2.6 0 0 1-.035-.42q0-.21.07-.385l.105-.21.525-.56q.525-.56 1.015-1.015t.875-.84l.77-.77q.386-.35.84-.77l.875-.805q.455-.386.805-.84.35-.49.07-.91a4.8 4.8 0 0 0-.7-.875 8 8 0 0 0-.805-.77l-.805-.805q-.42-.455-.84-.84a18 18 0 0 0-.945-.945 28 28 0 0 0-.945-.91l-.455-.455a2 2 0 0 1-.175-.28l-.07-.28a1.7 1.7 0 0 1-.035-.315l.07-.28a.8.8 0 0 1 .105-.28q.105-.14.21-.245t.21-.175a.8.8 0 0 1 .28-.14q.175-.035.315-.035a.6.6 0 0 1 .28 0q.175.034.315.105.14.035.245.14zm13.895 1.89-.315.42q-.315.386-.84 1.05-.49.63-.91 1.12-.42.455-.805.91-.35.455-.665.91-.315.42-.63.91-.28.49-.035.945t.77.91q.56.42 1.05.875.525.42.945.805t.875.77q.49.385.98.7t.665.455.28.315q.105.14.14.35.07.21.035.42 0 .175-.07.385a1.4 1.4 0 0 1-.21.35 1.6 1.6 0 0 1-.315.245q-.175.105-.385.14a2 2 0 0 1-.385.035 2 2 0 0 1-.385-.105 3 3 0 0 1-.35-.245 1.6 1.6 0 0 1-.245-.315 3 3 0 0 1-.105-.385 1.3 1.3 0 0 1 0-.42q.035-.21.14-.385a1.6 1.6 0 0 1 .245-.315.9.9 0 0 1 .315-.21.9.9 0 0 1 .385-.105.86.86 0 0 1 .42.035q.21.035.385.14t.28.28q.14.14.21.35.07.175.07.385a.75.75 0 0 1-.035.385.8.8 0 0 1-.175.385q-.105.14-.28.28a1.2 1.2 0 0 1-.35.175q-.175.07-.385.07t-.42-.07l-.175-.07-.595-.35a9 9 0 0 1-.945-.665q-.385-.35-.875-.77-.49-.455-.91-.77a25 25 0 0 0-.805-.7 16 16 0 0 0-.875-.735 16 16 0 0 1-.91-.77 3.4 3.4 0 0 1-.63-1.015 3 3 0 0 1-.14-1.295q.105-.7.42-1.295.315-.63.595-1.085.315-.455.63-.875.315-.455.63-.84t.7-.805q.386-.455.84-1.015.49-.595.805-1.015t.42-.525a1 1 0 0 1 .245-.175.8.8 0 0 1 .28-.14.6.6 0 0 1 .28-.07q.175 0 .315.035.14 0 .28.07a1 1 0 0 1 .245.175.7.7 0 0 1 .245.21q.105.105.14.245.07.14.105.28t.035.315a.6.6 0 0 1-.07.28 1.3 1.3 0 0 1-.105.28zm5.147-.77v1.505q.035.595.035 1.155.036.56.035 1.12v3.185q0 .525.035 1.05t.035 1.05q.036.525.035 1.05t.035 1.05.07.875q.036.35 0 .56t-.14.385a1.4 1.4 0 0 1-.21.35q-.14.14-.35.245a1.8 1.8 0 0 1-.385.105 2.4 2.4 0 0 1-.385-.035 1.1 1.1 0 0 1-.385-.14 1.7 1.7 0 0 1-.315-.245 1.4 1.4 0 0 1-.21-.35 2 2 0 0 1-.105-.385q0-.21.035-.385.07-.21.175-.385a1 1 0 0 1 .245-.28 1.4 1.4 0 0 1 .35-.21q.21-.07.42-.07a.7.7 0 0 1 .385.035q.21.07.385.21.175.105.28.28.106.14.175.35a.7.7 0 0 1 .035.385q0 .21-.07.42a1.4 1.4 0 0 1-.21.35 1 1 0 0 1-.28.245q-.175.105-.385.175a2 2 0 0 1-.385.035 3 3 0 0 1-.42-.105 4 4 0 0 1-.315-.21 1.6 1.6 0 0 1-.245-.315 1.6 1.6 0 0 1-.14-.385l-.035-.21-.035-.315q-.034-.315-.07-.84l-.07-1.05v-1.085q0-.595-.035-1.12a18 18 0 0 1-.035-1.085v-3.185q0-.525-.035-1.05 0-.56-.035-1.19v-1.68q.036-.175.07-.315.07-.14.14-.245.105-.14.21-.245.14-.105.245-.175a1.4 1.4 0 0 1 .28-.105q.175-.035.315-.035t.28.035q.175.035.315.105a.93.93 0 0 1 .42.42q.105.105.14.245.07.14.07.315zm-.91-1.365h.49q.455.035 1.085.07.666.035 1.225.07.56 0 1.19.035.63 0 1.225.035h.77q.176 0 .35.035.21.035.385.14a.74.74 0 0 1 .315.28.9.9 0 0 1 .21.315q.105.175.105.385.036.21 0 .42-.035.175-.14.35t-.28.315a.9.9 0 0 1-.35.21q-.174.07-.385.07-.21 0-.42-.035a2.5 2.5 0 0 1-.35-.175 4 4 0 0 1-.315-.28 2.5 2.5 0 0 1-.175-.35 2.6 2.6 0 0 1-.035-.42q0-.21.07-.385a1.2 1.2 0 0 1 .175-.35q.141-.175.315-.28a.8.8 0 0 1 .35-.175.86.86 0 0 1 .42-.035q.21 0 .385.105a.9.9 0 0 1 .315.21q.175.105.28.28t.14.385q.036.21 0 .42a.9.9 0 0 1-.105.385.9.9 0 0 1-.21.315 1.6 1.6 0 0 1-.315.245q-.174.105-.385.14l-.21.035h-.315a9 9 0 0 0-.91-.035q-.56-.035-1.085-.07-.49 0-1.12-.035-.56 0-1.225-.035a23 23 0 0 0-1.155-.035 5 5 0 0 1-.595-.07l-.28-.07a2 2 0 0 1-.28-.175l-.21-.21a3 3 0 0 1-.14-.245 1.5 1.5 0 0 1-.105-.28 1.7 1.7 0 0 1-.035-.315l.07-.28a.8.8 0 0 1 .105-.28q.105-.14.21-.245t.21-.175a.8.8 0 0 1 .28-.14.9.9 0 0 1 .315-.07zm.315 6.405.49-.035h1.19q.666-.035 1.19-.07.525-.035 1.05-.035.56-.035 1.12-.035.561 0 .735.035.21.035.385.14.21.105.35.245.141.14.21.35.105.175.105.385.036.175 0 .385t-.14.385-.28.315q-.14.105-.35.21-.175.07-.385.07t-.42-.035a2.5 2.5 0 0 1-.35-.175 1.2 1.2 0 0 1-.315-.28 2.5 2.5 0 0 1-.175-.35 1.2 1.2 0 0 1-.07-.385q0-.21.07-.385.07-.21.175-.385.141-.175.315-.28.176-.105.35-.175a.86.86 0 0 1 .42-.035q.21 0 .385.07.21.07.35.21t.245.315a.8.8 0 0 1 .175.385q.036.175 0 .385 0 .21-.105.42a.9.9 0 0 1-.21.315 1.6 1.6 0 0 1-.315.245q-.175.105-.385.14l-.21.035h-1.505q-.56 0-1.155.035-.56.035-1.225.07-.665 0-1.155.035h-.665l-.28-.07-.28-.14a2 2 0 0 1-.245-.21 1.4 1.4 0 0 1-.175-.21 1.5 1.5 0 0 1-.105-.28 1.7 1.7 0 0 1-.035-.315q0-.175.035-.315l.07-.28a1 1 0 0 1 .175-.245.9.9 0 0 1 .21-.21.8.8 0 0 1 .28-.14.6.6 0 0 1 .28-.07zm-.105 6.335.455-.035h1.085a24 24 0 0 1 1.225-.035q.56 0 1.12.035h1.085q.561 0 1.05.035.49.034.665.105.21.07.35.21.175.105.28.28a.8.8 0 0 1 .175.385.7.7 0 0 1 .035.385q0 .21-.105.42a.9.9 0 0 1-.21.315 1.6 1.6 0 0 1-.315.245q-.175.105-.385.14a2 2 0 0 1-.385.035 2 2 0 0 1-.385-.105 3 3 0 0 1-.35-.245 1.6 1.6 0 0 1-.245-.315 4 4 0 0 1-.105-.385q0-.21.035-.42a2 2 0 0 1 .105-.385 1.6 1.6 0 0 1 .245-.315 1.4 1.4 0 0 1 .35-.21.9.9 0 0 1 .385-.105.86.86 0 0 1 .42.035q.21.035.385.14t.28.28q.141.14.21.35.07.175.07.385t-.07.42a.8.8 0 0 1-.175.35q-.105.175-.28.315a1.2 1.2 0 0 1-.35.175 2 2 0 0 1-.385.035h-1.33a18 18 0 0 0-1.085-.035q-.525-.035-1.05-.035t-1.19.035q-.63 0-1.085.035h-.595a7 7 0 0 0-.315-.07l-.28-.14-.21-.21a1 1 0 0 1-.175-.245 1.5 1.5 0 0 1-.105-.28l-.07-.28q0-.175.035-.315a1.5 1.5 0 0 1 .105-.28 1 1 0 0 1 .175-.245.9.9 0 0 1 .21-.21.8.8 0 0 1 .28-.14.6.6 0 0 1 .28-.07zm11.091-11.27.035.49v1.33q.035.84.035 1.61.035.77.035 1.61v1.575q.035.77.035 1.575.035.77.035 1.54t.035 1.575.035.945-.035.35-.14.385a.77.77 0 0 1-.245.315 1.6 1.6 0 0 1-.315.245 2 2 0 0 1-.385.105q-.21 0-.42-.035a1.1 1.1 0 0 1-.385-.14 1.6 1.6 0 0 1-.315-.245l-.21-.35q-.07-.21-.07-.42t.035-.385q.07-.21.175-.385a.8.8 0 0 1 .28-.28q.175-.14.35-.21.21-.07.42-.07t.385.07q.21.07.35.21.175.105.28.28a.8.8 0 0 1 .175.385.7.7 0 0 1 .035.385q0 .21-.07.42a1.4 1.4 0 0 1-.21.35 1.6 1.6 0 0 1-.315.245q-.175.105-.385.14a2 2 0 0 1-.385.035 3 3 0 0 1-.42-.105 1.6 1.6 0 0 1-.56-.56 1.1 1.1 0 0 1-.14-.385v-.21l-.035-.7q0-.7-.035-1.575t-.07-1.68q0-.84-.035-1.61v-3.255a42 42 0 0 0-.035-1.715q0-.84-.035-1.295v-.63l.07-.28q.07-.175.14-.28a1 1 0 0 1 .175-.245q.14-.105.245-.175a1.3 1.3 0 0 1 .28-.105q.175-.035.315-.035a.6.6 0 0 1 .28 0q.175.034.315.105a1 1 0 0 1 .245.175q.14.105.21.245.105.105.14.245.07.14.07.28zm9.065-.21.035.42v1.26q0 .84-.035 1.645l-.07 1.61q0 .77.035 1.54t.035 1.575q0 .77-.035 1.645v1.68q.035.805.035 1.155 0 .315-.035.525a1.5 1.5 0 0 1-.14.385.9.9 0 0 1-.21.315q-.14.14-.35.245a2 2 0 0 1-.385.105q-.21 0-.42-.035a1.1 1.1 0 0 1-.35-.14 1.6 1.6 0 0 1-.315-.245 1.4 1.4 0 0 1-.21-.35 3 3 0 0 1-.105-.42q0-.21.035-.385.07-.21.175-.385a.8.8 0 0 1 .28-.28q.175-.14.35-.21.21-.07.42-.07t.385.07q.21.07.35.21.175.105.28.28a.8.8 0 0 1 .175.385.7.7 0 0 1 .035.385q0 .21-.07.42a1.4 1.4 0 0 1-.21.35 1 1 0 0 1-.28.245q-.175.105-.385.14t-.42.035a2 2 0 0 1-.385-.105 3 3 0 0 1-.35-.245 1.6 1.6 0 0 1-.245-.315 2 2 0 0 1-.105-.385l-.035-.21-.035-.42q-.035-.42-.035-1.225.035-.806.035-1.575.035-.805 0-1.575 0-.805-.035-1.575v-1.54q0-.805.035-1.645t.035-1.61v-1.75q.035-.175.07-.315a1.3 1.3 0 0 1 .105-.28q.105-.14.21-.245.14-.105.245-.175a1.3 1.3 0 0 1 .28-.105q.175-.035.315-.035a.6.6 0 0 1 .28 0q.175.035.315.105a1 1 0 0 1 .245.175q.105.105.21.245.105.105.14.245.07.14.07.315zm-10.08 5.04h.595q.56 0 1.33-.035l1.575-.07q.805-.07 1.645-.07a45 45 0 0 1 1.785-.035q.91-.035 1.085.035.21.035.385.14t.315.28q.14.14.21.35.07.175.07.385a.75.75 0 0 1-.035.385q-.07.21-.175.385-.105.14-.28.28-.175.105-.385.175-.175.07-.385.07-.175 0-.385-.07a2 2 0 0 1-.385-.175 1.6 1.6 0 0 1-.245-.315 2.5 2.5 0 0 1-.175-.35 2.6 2.6 0 0 1-.035-.42q0-.21.07-.385.105-.21.21-.35.14-.175.315-.28t.385-.14.42 0q.21 0 .385.105a.9.9 0 0 1 .315.21q.175.14.245.35.105.175.14.385a1.1 1.1 0 0 1 0 .385q-.035.21-.14.385a1.6 1.6 0 0 1-.245.315q-.14.14-.35.245a2 2 0 0 1-.385.105h-.21l-.07.035h-.735l-1.61.07q-.77 0-1.61.07l-1.645.07q-.805 0-1.365.035h-.735l-.28-.07-.28-.14-.21-.21a1 1 0 0 1-.175-.245l-.14-.28a1.314 1.314 0 0 1 0-.595 1.3 1.3 0 0 1 .105-.28q.07-.14.14-.245a.7.7 0 0 1 .245-.21.8.8 0 0 1 .28-.14 1.3 1.3 0 0 1 .28-.105zm13.661-4.48.07.56q.07.56.14 1.365.105.805.14 1.435.069.596.105 1.26.069.63.105 1.225.069.56.105 1.12.07.525.14 1.12.069.595.21 1.12t.665.7a.93.93 0 0 0 .945-.175q.455-.35.875-.875a8 8 0 0 0 .665-1.015q.245-.454.455-.945.245-.525.455-1.05.21-.56.42-1.155t.385-1.155q.174-.56.315-1.12.14-.56.245-1.19a26 26 0 0 0 .245-1.89q.034-.07.07-.21a.8.8 0 0 1 .105-.28q.105-.14.21-.245t.21-.175a.8.8 0 0 1 .28-.14q.14-.035.28-.035a.7.7 0 0 1 .315 0q.174.034.315.105.14.035.245.14l.21.21q.105.105.14.245.069.14.105.315.035.14.035.28t.07.665q.105.525.14 1.05.07.525.07 1.05.035.525.035 1.12.035.595.105 1.19t.14 1.155q.07.525.14 1.12.069.56.105 1.085.07.525.14 1.085.069.525.105 1.05.069.525.105 1.05.034.525.07.735.034.21 0 .42 0 .175-.07.385a1.4 1.4 0 0 1-.21.35 1.7 1.7 0 0 1-.315.245q-.175.105-.385.14a2 2 0 0 1-.385.035 1.8 1.8 0 0 1-.385-.105 1.6 1.6 0 0 1-.56-.56 1.1 1.1 0 0 1-.14-.385 1 1 0 0 1 0-.385q.035-.21.14-.385.105-.21.245-.35a.9.9 0 0 1 .315-.21q.21-.07.42-.105a.7.7 0 0 1 .385.035q.21.035.385.14t.28.28q.14.14.21.35.105.175.105.385t-.07.42a.84.84 0 0 1-.175.35q-.105.14-.28.28-.14.105-.35.175-.175.07-.385.07t-.42-.07a2.4 2.4 0 0 1-.35-.175 1.6 1.6 0 0 1-.245-.315 2.4 2.4 0 0 1-.175-.35l-.035-.21-.07-.245q-.036-.245-.07-.77a14 14 0 0 0-.105-1.05q-.036-.525-.105-1.05-.07-.56-.14-1.155a8 8 0 0 0-.14-1.12l-.14-1.12-.14-1.19-.07-1.155q0-.56-.035-1.155 0-.595-.07-1.225l-.14-1.225q-.036-.63 0-.77a.8.8 0 0 1 .105-.28q.105-.14.21-.245t.21-.175a.8.8 0 0 1 .28-.14q.14-.035.28-.035a.7.7 0 0 1 .315 0q.174.034.315.105.14.035.245.14.105.07.21.21.105.105.14.245.069.14.105.315.035.14.035.28t-.07.42q-.036.245-.105.805-.07.525-.175 1.12a7.3 7.3 0 0 1-.245 1.19q-.14.56-.35 1.225-.175.63-.385 1.26-.21.595-.455 1.19-.21.595-.49 1.19-.246.56-.595 1.155-.315.595-.77 1.19-.42.56-.945 1.085-.525.49-1.05.805-.525.28-1.155.455t-1.19.07a3.2 3.2 0 0 1-1.12-.455 3.3 3.3 0 0 1-.875-.84q-.316-.525-.49-1.05a11.7 11.7 0 0 1-.455-2.065q-.07-.525-.105-1.05a19 19 0 0 0-.105-1.12 38 38 0 0 0-.105-1.26q-.07-.735-.14-1.295a66 66 0 0 0-.105-1.365 40 40 0 0 0-.14-1.365 8 8 0 0 1-.07-.7q0-.14.035-.28a.8.8 0 0 1 .105-.28 1 1 0 0 1 .175-.245.9.9 0 0 1 .21-.21.8.8 0 0 1 .28-.14.6.6 0 0 1 .28-.07.7.7 0 0 1 .315 0q.174 0 .315.07a1 1 0 0 1 .245.175.54.54 0 0 1 .21.175q.105.105.175.245t.105.28zm11.668 12.425v-.665a65 65 0 0 0-.07-1.225q0-.525-.035-1.295 0-.77-.035-1.295v-3.465q.036-.525.07-1.12l.07-1.155q.036-.595.105-1.19.07-.63.245-1.155.175-.56.525-1.12.385-.56.91-.735.56-.21 1.12.07.595.245 1.015.805.42.525.665 1.085.28.56.455 1.155.21.56.35 1.05.176.49.35 1.05.21.56.385 1.085.21.525.385 1.015.175.455.385 1.015.21.525.49 1.05t.595.07.56-.91q.245-.49.455-.98l.42-.98q.246-.525.42-1.015.21-.49.455-.98.28-.49.56-1.05.316-.56.595-1.05.28-.525.63-.98a2.4 2.4 0 0 1 .805-.735q.456-.245 1.155-.105.735.105 1.085.665.351.525.42 1.085.07.525.07 1.085.035.56.035 1.085v2.1q0 .56-.035 1.155-.034.56-.07 1.085-.035.525-.105 1.155t-.105 1.225v1.12q0 .49-.035 1.015-.034.525-.07.735 0 .175-.035.385a.9.9 0 0 1-.105.385q-.105.175-.28.315a1.6 1.6 0 0 1-.315.245 1.8 1.8 0 0 1-.385.105q-.21 0-.42-.035a2 2 0 0 1-.385-.175 1.7 1.7 0 0 1-.315-.245 2.5 2.5 0 0 1-.175-.35 3 3 0 0 1-.105-.42q0-.21.035-.385.07-.21.175-.385.14-.175.28-.28a.8.8 0 0 1 .35-.175q.21-.07.42-.07t.385.07q.21.07.385.21.175.105.28.28t.14.385q.07.175.07.385t-.105.42a1.4 1.4 0 0 1-.21.35 1.6 1.6 0 0 1-.315.245q-.174.105-.385.14a2 2 0 0 1-.385.035 3 3 0 0 1-.42-.105 1.7 1.7 0 0 1-.315-.245 3 3 0 0 1-.245-.35 2 2 0 0 1-.105-.385l-.035-.21v-.42q0-.455.035-.98.036-.56.035-1.085t.035-1.05q.07-.56.105-1.12l.07-1.085q.036-.49.07-1.12.036-.63.035-1.155v-3.08q.036-.525.595-.455.56.035.28.49-.28.42-.56.875l-.525.98q-.279.525-.525 1.12-.244.56-.525 1.155-.245.595-.455 1.085t-.455.98l-.525 1.05q-.28.525-.595.98a3.8 3.8 0 0 1-.77.875q-.455.386-1.19.42-.734 0-1.19-.28a4.2 4.2 0 0 1-.875-.84 12 12 0 0 1-.665-1.085q-.245-.525-.455-1.05-.21-.56-.455-1.085-.21-.56-.455-1.155-.21-.63-.42-1.225a16 16 0 0 0-.35-1.12 54 54 0 0 1-.315-.98 1.68 1.68 0 0 1-.035-1.015q.175-.56.07.035t-.14 1.12a217 217 0 0 0-.14 2.31v3.5q.035.525.035 1.26.036.735.035 1.26.036.525.035 1.225.036.665 0 .84 0 .14-.035.28a.8.8 0 0 1-.14.28.93.93 0 0 1-.42.42l-.28.14a1.3 1.3 0 0 1-.315.035q-.14 0-.315-.035a1.4 1.4 0 0 1-.28-.105l-.28-.14-.21-.21-.14-.28-.07-.28zm27.281-11.06-.42-.105q-.42-.105-1.015-.21a6.5 6.5 0 0 0-1.225-.175 4.5 4.5 0 0 0-1.155.07q-.49.07-.98.28-.456.21-.91.595-.42.35-.84.77a4.7 4.7 0 0 0-.7.91q-.315.49-.525 1.05t-.245 1.12q-.036.56.035 1.155.069.56.21 1.155.174.56.42 1.05.244.455.595.875.384.42.84.805.455.35.98.56t1.015.245q.525 0 1.12-.105.594-.105 1.155-.28a3.8 3.8 0 0 0 1.12-.595q.56-.42.735-.49.21-.07.42-.07t.385.07q.21.035.385.175.175.105.28.28a.84.84 0 0 1 .175.385q.07.175.07.385t-.105.385a1.4 1.4 0 0 1-.21.35.8.8 0 0 1-.28.28q-.175.105-.385.175a2 2 0 0 1-.385.035 3 3 0 0 1-.42-.105 1.6 1.6 0 0 1-.56-.56 1.1 1.1 0 0 1-.14-.385 1 1 0 0 1 0-.385q.034-.21.105-.385.105-.21.245-.35a.9.9 0 0 1 .315-.21q.21-.105.385-.14a.86.86 0 0 1 .42.035q.21.035.385.14.174.105.315.245.14.14.21.35.07.175.07.385.034.21-.035.42-.036.175-.14.35t-.28.315l-.14.105q.035-.035-.42.315a6 6 0 0 1-.945.595q-.456.21-1.085.385-.596.175-1.19.28-.595.105-1.225.14-.63 0-1.12-.07a15 15 0 0 1-1.085-.28 6 6 0 0 1-1.015-.49 14 14 0 0 1-.91-.665q-.456-.42-.91-.91a7.5 7.5 0 0 1-.735-.98 8 8 0 0 1-.525-1.015 23 23 0 0 1-.385-1.19 19 19 0 0 1-.245-1.225q-.07-.63-.07-1.155t.07-1.155a5.6 5.6 0 0 1 .35-1.26q.244-.63.525-1.155.315-.525.665-.98t.735-.84q.384-.385.875-.77.49-.385.91-.665.455-.28.98-.455.525-.21 1.12-.315.594-.105 1.19-.105a5.4 5.4 0 0 1 1.085.035q.524.035 1.19.175t1.085.245q.454.105.595.175a1 1 0 0 1 .245.175 1 1 0 0 1 .245.175q.105.105.175.245t.105.315a.6.6 0 0 1 0 .28q0 .14-.035.315a1.5 1.5 0 0 1-.105.28q-.07.105-.175.245-.105.105-.245.21a.8.8 0 0 1-.245.105 7 7 0 0 1-.315.07h-.315zm13.5-1.715.035.42q.035.385.07.7t.035.595q.035.245.035.665.035.385.035.7v.595q.035.28.035.63.035.315.035.665.035.35.035.595.035.245.035.595.035.35.035.665.035.28.07.63l.07.63q.035.28.07.595.035.28.07.595t.035.595q0 .245.035.525.035.245.07.595t.07.63.035.455q.035.175.07.385a1.1 1.1 0 0 1 0 .385q-.035.21-.14.385a.9.9 0 0 1-.21.315 1.6 1.6 0 0 1-.315.245q-.175.105-.385.14-.21 0-.42-.035a1.5 1.5 0 0 1-.385-.14 1.6 1.6 0 0 1-.315-.245 4 4 0 0 1-.21-.315 3 3 0 0 1-.105-.42q0-.21.035-.385.07-.21.175-.385a1 1 0 0 1 .245-.28q.175-.14.35-.21.21-.07.42-.07a.7.7 0 0 1 .385.035q.21.07.35.21.175.105.28.28.14.14.21.35a.7.7 0 0 1 .035.385q0 .21-.07.42a1.4 1.4 0 0 1-.21.35 1 1 0 0 1-.28.245q-.175.105-.385.175a2 2 0 0 1-.385.035 2 2 0 0 1-.385-.105l-.35-.21a1.6 1.6 0 0 1-.245-.315l-.105-.175-.105-.56a58 58 0 0 1-.105-.875q-.035-.315-.07-.595l-.07-.63a5 5 0 0 1-.035-.56q0-.28-.035-.56a30 30 0 0 0-.07-.525q0-.28-.07-.63l-.07-.7a26 26 0 0 0-.07-.63v-.525a4 4 0 0 0-.035-.525 4 4 0 0 1-.035-.525q0-.315-.035-.595 0-.315-.035-.63 0-.315-.035-.595v-.595q0-.315-.035-.77a16 16 0 0 0-.07-.735q0-.315-.07-.7a9 9 0 0 1-.035-.56q.035-.175.07-.315a1.3 1.3 0 0 1 .105-.28 1 1 0 0 1 .175-.245q.105-.105.21-.175a.8.8 0 0 1 .28-.14.9.9 0 0 1 .315-.07q.14 0 .28.035.176 0 .315.07.14.035.245.14a.46.46 0 0 1 .21.21q.105.105.175.245t.105.28zm-1.68 1.155-.455.035q-.455.07-.805.105t-.595.07a16 16 0 0 0-1.295.245 5 5 0 0 0-.56.175 2.3 2.3 0 0 0-.49.21q-.245.105-.49.245-.21.105-.455.245-.21.14-.42.35-.175.21-.28.525-.07.315 0 .595t.21.525q.175.245.385.385.245.14.595.28.35.105.63.14t.63.105q.385.035.7.07h1.82a.7.7 0 0 1 .315 0q.21 0 .385.07.21.07.35.21t.245.315.14.385a.7.7 0 0 1 .035.385 1.5 1.5 0 0 1-.14.385.9.9 0 0 1-.21.315 1.6 1.6 0 0 1-.315.245q-.175.105-.385.14a1.1 1.1 0 0 1-.385 0 1.1 1.1 0 0 1-.385-.14 1.6 1.6 0 0 1-.56-.56 3 3 0 0 1-.105-.42q0-.21.035-.385.035-.21.14-.385.14-.175.28-.28a.9.9 0 0 1 .315-.21q.21-.105.42-.105t.385.07q.21.035.385.175.175.105.28.28.14.14.175.35.07.175.07.385t-.07.42a1.4 1.4 0 0 1-.21.35 1 1 0 0 1-.28.245 1.2 1.2 0 0 1-.35.175l-.21.035q-.035.035-.14.035h-.21q-.35.035-.77.035h-.84q-.385-.035-.805-.07l-.84-.07a30 30 0 0 1-.875-.175 45 45 0 0 0-.7-.21l-.49-.21q-.21-.14-.56-.385a8 8 0 0 1-.665-.595 9 9 0 0 1-.49-.665 9 9 0 0 1-.315-.7 3.2 3.2 0 0 1-.175-.84 4.3 4.3 0 0 1 0-.77q.035-.35.14-.665.105-.35.28-.7t.42-.665q.28-.315.56-.525a6.581 6.581 0 0 1 1.155-.735q.315-.175.665-.315.35-.175.665-.28.35-.14.735-.245a8 8 0 0 1 .84-.175q.49-.105.77-.14.315-.035.665-.07.386-.035.84-.07.49-.035.63-.035t.28.035q.175.035.28.14a1 1 0 0 1 .245.175q.105.105.175.245.105.105.14.245.07.14.07.315 0 .14-.035.315a.6.6 0 0 1-.07.28.5.5 0 0 1-.14.245l-.21.21a1 1 0 0 1-.245.175 1.2 1.2 0 0 1-.315.105zm-2.52 6.545-.28.385q-.315.385-.56.7t-.42.56a3 3 0 0 1-.315.455 9 9 0 0 1-.385.525q-.21.28-.35.49t-.315.455a6 6 0 0 1-.315.49q-.14.245-.35.56-.21.28-.385.56t-.28.42a2 2 0 0 1-.21.315 1 1 0 0 1-.28.245q-.175.105-.385.175-.21.035-.42 0a3 3 0 0 1-.385-.105 1.6 1.6 0 0 1-.56-.56 1.1 1.1 0 0 1-.14-.35v-.42q.035-.21.14-.385a1.6 1.6 0 0 1 .245-.315.9.9 0 0 1 .315-.21.9.9 0 0 1 .385-.105q.21-.035.42 0t.385.14.28.28q.14.14.21.35.105.175.105.385t-.07.42q-.035.175-.14.35-.105.14-.28.28a1.3 1.3 0 0 1-.385.21 2 2 0 0 1-.385.035q-.175 0-.385-.07a2.5 2.5 0 0 1-.35-.175 1.6 1.6 0 0 1-.28-.28 2.5 2.5 0 0 1-.175-.35 2.6 2.6 0 0 1-.035-.42q0-.21.07-.385l.105-.21.07-.14q.07-.14.21-.385.175-.245.315-.455l.35-.49q.175-.28.315-.525.175-.245.315-.455.175-.245.385-.56.21-.35.455-.665.28-.35.49-.63l.42-.56q.244-.315.525-.7.28-.385.385-.49t.21-.175a.8.8 0 0 1 .28-.14.9.9 0 0 1 .315-.07q.14 0 .28.035.175 0 .315.07.14.035.245.14a.46.46 0 0 1 .21.21q.105.105.175.245t.105.28.035.315a.6.6 0 0 1-.07.28 1.3 1.3 0 0 1-.105.28zm8.798-7.595v.42q0 .455-.035 1.085 0 .63-.035 1.19v1.05q0 .49-.035 1.085v2.135q.035.56.07.98.034.42 0 .63a1.5 1.5 0 0 1-.14.385.9.9 0 0 1-.21.315 1.6 1.6 0 0 1-.315.245 2 2 0 0 1-.385.105 2.4 2.4 0 0 1-.385-.035 2 2 0 0 1-.35-.105 1.6 1.6 0 0 1-.315-.245 4 4 0 0 1-.21-.315 3 3 0 0 1-.105-.385q0-.21.035-.385.07-.21.175-.385a1 1 0 0 1 .245-.28.9.9 0 0 1 .315-.21q.21-.07.385-.07.21 0 .385.07.21.035.35.175.175.105.28.28a.6.6 0 0 1 .175.315q.07.175.07.385t-.07.385a1.4 1.4 0 0 1-.21.35 1 1 0 0 1-.28.245 1.2 1.2 0 0 1-.35.175 2 2 0 0 1-.385.035 3 3 0 0 1-.385-.105 1.4 1.4 0 0 1-.315-.175 1.6 1.6 0 0 1-.245-.315 1.1 1.1 0 0 1-.14-.385l-.035-.175-.035-.595q-.035-.63-.07-1.12v-1.995q.035-.525.035-1.015v-1.085q.035-.595.035-1.19.035-.595.035-1.015v-.595q.035-.175.07-.28.07-.14.14-.245.105-.14.21-.245a1 1 0 0 1 .245-.175 1.3 1.3 0 0 1 .28-.105 1.2 1.2 0 0 1 .56 0q.175.034.28.105a1 1 0 0 1 .245.175q.105.105.175.245.105.105.14.245.07.105.07.28zm-.07 12.11-.035.21q-.035.175-.14.35a.77.77 0 0 1-.245.315 1.6 1.6 0 0 1-.315.245 2 2 0 0 1-.385.105 2.4 2.4 0 0 1-.385-.035 1.1 1.1 0 0 1-.35-.14 1.6 1.6 0 0 1-.315-.245 2.5 2.5 0 0 1-.175-.35 2 2 0 0 1-.105-.35q0-.21.035-.385.07-.21.175-.385.14-.175.28-.28.175-.105.35-.175t.385-.07.385.07.315.175q.175.105.28.28a.8.8 0 0 1 .175.385.7.7 0 0 1 .035.385.9.9 0 0 1-.07.35 1.4 1.4 0 0 1-.21.35 1.6 1.6 0 0 1-.315.245.8.8 0 0 1-.35.14 2 2 0 0 1-.385.035 3 3 0 0 1-.385-.105 1.6 1.6 0 0 1-.56-.56 2 2 0 0 1-.105-.35l-.035-.21v-.14l.07-.28a.8.8 0 0 1 .105-.245q.105-.14.21-.245t.21-.175a1.3 1.3 0 0 1 .28-.105.6.6 0 0 1 .28-.07q.175 0 .315.035.14.034.28.105.14.035.245.14t.175.21q.105.105.14.245a1.3 1.3 0 0 1 .14.49z"/></svg>