<svg xmlns="http://www.w3.org/2000/svg" width="322" height="84" fill="none" viewBox="0 0 322 84"><path fill="#fff" d="M198.925 1.032c2.908 1.37 2.834.096 3.629.22.276.046 2.312 1.197 4.561 1.22-1.615.11-3.228.228-4.826.354 1.565.237 4.636.115 5.945.387.635.132.086.995 1.477 1.033.295.004 1.52-2.11-2.142-1.295-.272-.785 1.443-.21 2.257-.391.124-.033.639-1.293 1.65-.442.248.22-2.597 3.802 4.494 1.48.231-.074-.54-.59-.314-.674.159-.057 1.941.244 2.152.193.208-.058-.644-.625-.397-.71 1.279-.436 2.819 1.699.255 1.373q1.272.459 2.548.927c-.848-1.59 1.381-.333 2.591-.28 7.828.385 2.673-1.055 4.054-1.446 2.265-.595.367 1.808 3.727 1.39.281-.03-2.721-1.24 1.837-.495.7.114 1.5.265 2.563.489a135 135 0 0 0-3.698-.34c.151.432.55.652 1.049.748 1.37.248 3.481-.268 3.725-.245 3.519.362.975.405 6.519.721.495.035 1.503.615 2.624.7 4.607.33-5.769-1.772-5.84-2.254-.236-.48 11.002 2.165 11.296 2.583 1.464 1.033-5.104-1.164-4.004-.067.124.154 4.624 1.277 8.104 2.473 3.487 1.18 4.943 1.661 5.594 2.01 1.31.776 1.716 2.825 2.126.721q.006.234.022.417c.093 1.583.744.464.941.522 2.962.837 3.122.862 6.215 1.206.706.078 1.22.8 1.488.738.154-.04-.038-.753.703-.84.983-.115 7.188 1.575 7.667 2.02.431.439-2.723-.272-2.219.42 2.277.42 4.534.626 6.956 1.09 1.01.195.44.522.875.603.172.028 3.802.284 3.696.115-.485-.483-11.109-1.965-8.23-2.24.545-.057 2.328 1.21 2.164-.005 3.044.589 6.146 1.195 9.642 1.97 1.767.396 3.583.812 5.931 1.452 1.194.333 2.458.685 4.409 1.375.428.155 1.071.39 1.678.639a38 38 0 0 1 2.27 1.018 31 31 0 0 1 3.578 2.068c1.318.92 3.949 2.717 6.658 6.405a25.3 25.3 0 0 1 4.827 13.646c.471 6.11-2.345 12.6-4.024 14.927-4.303 6.078-6.494 6.718-8.377 8.055-3.12 1.8-4.515 2.159-5.829 2.621-2.385.748-3.688.966-5.036 1.219-2.516.434-4.458.628-6.348.81 1.751-.458 3.625-.798 6.095-1.297 1.322-.285 2.57-.507 4.935-1.244 1.243-.43 2.654-.805 5.603-2.465 1.888-1.313 3.824-1.754 8.167-7.597 1.693-2.297 4.552-8.336 4.232-14.544a24.7 24.7 0 0 0-4.728-13.778c-4.475-5.713-6.965-6.475-8.77-7.646a33 33 0 0 0-3.698-1.744c-1.893-.75-3.028-1.094-4.111-1.425a59 59 0 0 0-5.125-1.295c-1.008-.218-4.017-.913-3.718-.258 1.753.385 3.681.763 6.127 1.343 1.244.302 2.585.628 4.536 1.255.97.322 2.125.703 3.898 1.502.987.462 1.852.856 3.58 1.936 1.44.974 3.972 2.494 6.998 6.538 2.345 3.223 4.836 8.287 4.672 15.017a24.3 24.3 0 0 1-1.977 8.917c-1.1 2.483-2.02 3.813-3.067 5.204a24.6 24.6 0 0 1-4.845 4.753 26 26 0 0 1-2.929 1.88c-2.925 1.55-4.205 1.85-5.354 2.225-2.258.657-3.531.84-4.768 1.016-.211.028.441-.612-.356-.544-1.591.168-5.317 1.473-5.921 1.322-.122-.031 1.901-.952 1.176-1.286-1.832-.847-1.842 1.508-3.177 1.659-1.67 2.498-3.46 4.01-4.524 4.906a23 23 0 0 1-2.761 1.91c-.657.383-1.24.683-1.755.93-1.083.514-1.668.724-2.12.895-.447.166-.72.258-.795.29-.637.266.33.567-.313.848-.326.156-2.308.608-3.7.729-1.55.174-2.919.201-3.75.283a46 46 0 0 0-1.026.113c-2.091.244-2.305.61-2.511.626-.683.037-1.845-.254-3.161-.228-6.639.166-15.535-.12-20.037-1.46 4.016.72 7.926.598 12.174.622-1.239.95 6.317-.596 1.897.431 1.035-.11 5.839-.02 11.561-.544 1.602-.165 3.06-.315 5.276-.777a31 31 0 0 0 2.81-.732q.622-.196 1.286-.442c1.695-.8 4.173-1.104 9.049-6.024.594-.604 1.24-1.405 1.875-2.358-.253 0-.571-.004-.933-.012a21 21 0 0 1-4.458 4.523c-1.688 1.245-2.702 1.747-3.682 2.234a23 23 0 0 1-2.324.972c-1.395.493-2.131.668-3.022.885-3.094.682-4.555.748-5.99.915-1.178.114-2.044.192-2.376.258.772.016 1.609.016 2.413.008 1.282-.04 2.477-.072 4.114-.278-1.621.22-2.838.354-4.083.5-3.089.338-5.447.533-5.785-.506-14.479.037-26.706-1.639-39.143-2.975-2.197-.34-.978-1.036-4.587-1.161q1.386.526 2.777 1.065c-1.862-.388-9.983-1.557-11.276-1.51-.165.005-.42.678-2.414.54-1.781-.12-2.054-.654-3.004-.834-.792-.149-1.679-.091-1.914-.138-.18-.038-.254-.349-.685-.436-1.359-.268-.25.665-1.615-.411l.989-.04a17 17 0 0 1-1.922-.413c-.699-.2-.968-.397-.009-.469q.189-.015.448-.021c.414-.011.063.257.373.277 11.381.805 3.721-.312-.821-.303-.36 0-.702.007-1.013.02-1.124-.499-7.417-.555-7.638-.64-.295-.128.775-.408-.655-.744-.3-.078-8.792-.154-5.751-.562.631-.089 4.711.158 5.688.182-2.333-.928-7.719.108-8.334.046-2.476-.195 4.714-.568-.856-.81-4.291-.177-.241.452-1.88.631-.919.092-5.818-.601-5.655.115-1.673.022-.711-.321-.919-.355-.207-.027-3.495.077-4.578-.103-.131-.022.262-.364.126-.397-.265-.056-3.455-.083-3.585-.06-.08.017.695.343.386.406-.36.072-3.443-.117-3.616-.043-.236.117 3.568.187 2.95.495-1.758-.154-4.613-.065-5.768.124.282-.057 1.988.019 2.582.073-.26.466-3.926.249-2.687-.046-.789.153-.242.287-.684.445-.117.04-1.247-.02-1.466.044-.027.013 1.147.26.917.338-.417.143-3.864-.139-4.148-.204-.796-.175 2.005-.12 2.235-.297.032-.028-2.362-.548-2.402-.582-.147-.349 2.511.06 2.199-.274l-1.974-.31c2.521-.164 7.195.212 8.38-.13-3.73-.025-7.652-.25-7.667-1.051-.008-.337 1.597-.48 1.532-.57-.248-.32-2.463-.062-2.556-.084q-.101-.03-.102-.057c-.001-.175 3.177-.203 3.335-.286.26-.145-1.171-.794-1.176-.928.049-.024 2.307-.132 1.536-.385-.781-.251-2.753-.284-2.829-.31-.382-.143 3.074-.234 3.173-.324.047-.044-1.809-.318-1.869-.393-.048-.075 1.356-.236 1.903-.482.407-.182-.8-.315-.591-.344.153-.018 3.409-.042 3.569-.078.235-.052-.533-.264-.426-.32.156-.082 1.208-.019 1.069-.1-.11-.065-4.21-.75-4.188-.942.041-.333 4.367.332.316-.902-.03-.007-.998.115-1.029.107-.364-.133.607-.359.62-.476q-1.777.062-3.583.113c-2.914.082-5.835.182-8.761.29.375.008.676.032.852.08-1.231.202-3.951.127-5.071.273-.13.018.613.785-1.094.324-.646-.182 1.012-.444 2.794-.584l-4.01.15c-.411.137-.704.352-.906.696 3.565.373 7.829-.603 8.907-.645 1.649-.082-.049.218.155.276.073.018 1.475-.058 1.51-.042 1.043.82-6.321.297-8.629.554q.938.168 1.874.33l-2.52.143c4.013.08.145.093-.823.925-.216.187 2.399-.269-.58.394 2.216-.024 1.516.172 3.509-.166-.04.3-4.529.946-6.303 1.234 6.294-.087 2.671-.965 8.117-.74.99-.433-1.593-.194-1.385-.27.75-.263 2.536-.045 4.65-.911.344-.14-1.144-.437 1.041-.532.243-.008 1.636.232 1.625.255-.177.253-1.554.239-1.61.345-.047.1 1.469-.044 1.489-.019.057.302-1.275.193-1.08.278.427.194 5.961.476-1.243.763 5.968-.739.754-.396-1.572-.106-.593.074-.737.275-1.581.4-1.086.163-2.365.16-2.928.236-.605.085 2.86.297-2.133.525 2.558.28 7.017-.548 9.515-.418 5.035.224-3.469 1.024-4.356 1.173-.234.037.565.228.41.258-.26.048-5.094.343-5.57.61-.467.267 1.768-.165 1.931.05.109.143-5.726.972-2.558.785 2.186-.14 6.174-1.123 6.872-.539-3.194.361-6.395.731-9.606 1.099q2.654.147 5.297.254c-3.591.465-6.719.478-10.144 1.217 8.284.022-2.652 1-2.781 1.118-.037.077 3.248.458 3.775.523-2.86.616-11.696 1.736-6.5 2.1-.942-.103-3.206.684-3.176.722.308.395 5.254-.476 4.457-.008-.923.55-2.253.127-3.697.342-7.439 1.086-5.343 3.193-12.956 3.63l.456.21a265 265 0 0 1-25.3.99c-3.38.9-12.374 1.333-16.73 1-.878-.049-5.12-.771-5.42-.884-.576-.2 2.726-.052 1.282-.447-.318-.061-7.483-.82-7.046-.267.79.128 3.358.065 3.75.215 1.693.654-5.813.076-11.955-.583-4.088-.42-7.917-.924-8.4-.837.473.244.938.484 1.408.722a201 201 0 0 1-4.323-.834q.953-.105 1.889-.221c-1.654-.324-3.986-.552-5.64-1-.27-.073.555-.405-.092-.54-.646-.138-.669.513-1.662.396-1.065-.105-6.222-1.648-9.346-2.89-1.272-.486-2.727-1.048-4.886-2.272-2.077-1.685-5.525-1.724-10.943-12.04-1.403-3.035-2.1-7.01-1.96-10.799C2.086 48.377.944 45.448.27 41.232c-1.345-9.199 2.6-17.137 5.614-20.813 2.468-3.176 5.356-5.268 6.635-6.082 3.225-2.037 4.977-2.594 6.85-3.326l.725-.27c6.444-2.23 8.834-2.445 11.995-3.077 2.935-.517 5.6-.871 8.22-1.146-2.899 2.295 2.457.5 2.668.575 1.26.365-4.24 1.199-2.035 1.247 3.056-.445 6.032-.829 8.947-1.182-2.415.006 3.085-1.948 4.125-1.402-.484-1.716 13.11.375 15.04-.32.406-.154-2.34-.819 3.992-.898.684-.006.447.545.801.47.21-.045 1.44-1.836 2.846-1.003.406.243-1.49 1.145 1.203 1.024.778-.035 1.902-.137 3.492-.324-3.103-1.592 10.636-1.489 12.994-1.043q-.732-.336-1.47-.667c2.426.566 2.853-.038 3.396-.02 2.185.078 5.146.633 7.133.55 2.322-.094 2.344-1.199 5.019-.799a507 507 0 0 0-1.902-.71q2.785.054 5.523.115c-4.253 1.511.915.062 1.248.026.537-.059-.24.55.659.466.092-.013-.034-.578 1.345-.657 2.873-.163 2.409.556 3.607.534.107-.006-.264-.512 1.785-.66 6.478-.485-.021.396-.283.467-.336.097 1.923 2.217-3.666 1.518 1.881.222 2.062 1.167 2.273 1.188.198.018 3.419-.154 3.593-.19 1.576-.345.191-.974.497-1.095.257-.095 4.095.685 4.956-1.294 1.823 1.762-1.011 1.67-4.101 1.993-.447.377 2.927.68 3.107.674 4.319-.096 1.909-1.532 2.836-2.503.139-.146.383-.17.62-.162.591.021 1.147.247-.01-.67 3.867-.255 1.538.587 1.788.694.381.157 1.735-.27 1.91-.225.251.067-.609.558.384.687.169.017 1.744-.834-.324-1.141 2.755.016 2.516-.658 3.497.674 1.837-2.662 1.445 1.472 2.21 1.588 2.044.3 1.386-1.708 1.489-1.813.702-.664 6.431-.217 7.877-.573-.517 1.49-4.571.217-5.435.539-2.915 1.073 4.197.55 2.121 2.485q1.329-.817 2.668-1.636c1.73 1.112-.652 1.73 3.886 1.104.702-1.055-3.213.298-2.449-.541.444-.493 3.081-.707 3.131-.957.039-.303-2.34.153-1.981-.324.755-1.036 9.646-.434 2.935.374 1.626-.08 2.631 1.38 3.927 1.317.195-.01.397-.053.609-.14.392-.165-.214-.62-.654-1.117-.376-.424-.633-.88-.044-1.208.567-.313 1.903-.515 4.699-.442.216.926-3.619.389-3.712.466-.133.11.625 2.195.747 2.295.4.312 9.7-1.06 11.756.01-.579-.864 3.296-.642 5.926-.53.981.043 1.777.056 2.01-.049.215-.101-.591-.852-.36-.93 1.44-.457 5.366.912 7.202.971 2.051.066 1.797-.578 1.911-.576.905.049.181.474.734.48.831.006 6.604.201 6.91.123.085-.027-.857-.778.412-.888.221-.017.066.836 3.842.564 4.56-.316-3.146-1.164-1.245-2.015M25.585 77.623c.393.109 5.68 1.33 5.145 1.504-1.072.416-6.11-1.479-5.144-1.504m106.097 1.29c-1.255-.103 2.931-.705 1.506-.22a34 34 0 0 1-1.506.22m89.643-.578c-.443-.512 2.921.06 3.056.108 1.026.394-2.137.317-3.056-.108m-97.014-1.01c-.148-.014 1.992-1.01 2.612-.573.478.335-2.221.597-2.612.574m93.62-1.564c-1.915.208 4.073.88 4.389.809-.192-.275-4.199-.83-4.389-.809m-88.602-.543c1.876-.508 7.752.218 1.487.807l.005-.001c-1.634.15-.636-.236-.71-.234-3.497.076-2.557.531-3.1.672-1.167.3-1.001-.438-2.974.102 3.262-.842.287-.291.186-.54-.396-1 4.372-.034 5.985-.473.225-.057-1.455-.168-.879-.333m-109.902-.93c-2.157-.893-6.436-3.765-3.875-1.738.57.451 2.517 1.624 3.95 2.283a31 31 0 0 0 3.228 1.33c.647-.127-.956-.772-3.303-1.874m176.021 1.249c.819-.28 3.165-.024 4.502.016.153.454-3.54-.035-4.502-.016m14.536-.403c-1.993-.96-7.917.035-4.035.102.073-.001-.672-.496.83-.316.125.017.359.527 2.259.518.385-.002.989-.279.946-.304m1.081-.29c-.471-.138-5.182-.61-3.448-.233.155.03 3.387.458 3.448.233m43.765-2.91c.489.583.859.92 1.172 1.247q.225.215.408.374c.592.334.914.54 1.03.756.187.094.261.084.323.068.079-.032.12-.098.084-.218-.018-.06-.069-.144-.181-.277a10 10 0 0 0-.451-.48c-.411-.22-.939-.518-1.572-.902a10 10 0 0 0-.813-.568m-46.878 2.02c3.102.092-2.85-.809-2.071-.316.057.029 1.745.306 2.071.316m-74.188-.6c1.299.03-1.692.463-2.573.475-.052-.143 2.459-.476 2.573-.474m55.715-.01c.302-.017 1.586.319 2.452.22-.969.592-5.593-.052-2.452-.22m86.894-.21q-.248.01-.43.013-.003.034.001.067c.042.12.025.275.594.054a9 9 0 0 0 .365-.158zm-76.23-.136c-3.131-.242-7.618-.422-7.911-.369-.121.023-.195.326-.137.341.325.066 4.887.203 8.052.29 1.343.038 2.46.065 2.841.052-.377-.089-1.498-.207-2.845-.314m-28.854-.169c.326.175-.419.614-1.124.343-.302-.116.239-.373 1.124-.343m-6.684-.09c.249-.017 6.128.097 5.025.45-.747.245-6.55-.311-5.025-.45m14.941-.114c1.325-.46 2.43-.04 4.233.001.485.01.348-.212.399-.212.841.02.223.251.743.274.339.012 7.105-.04 6.144.345-.672.256-9.997-.366-11.519-.408m-14.849-.172c-1.799-.41 6.229-.001 6.685.075-.517.167-6.438-.014-6.685-.076m90.6-2.577q.416.541.761.961c1.518.974 2.375 1.472 2.792 1.745q-.12-.093-.316-.252c-.329-.285-.775-.639-1.663-1.66q-.08-.106-.173-.22a29 29 0 0 1-1.254-.95c-.265-.23-.551-.46-.871-.733.271.43.519.797.724 1.11m22.49 1.958c-.658.031-1.185.083-1.512.16q-.041.03-.081.061a7 7 0 0 0-.249.219c.045.049.13.104.263.161.05.026.8.032 1.762.009l.2-.007c.286-.181.605-.38.953-.605a16 16 0 0 0-1.336.002m-110.293-.011c1.905.193 6.066-.073 4.374.503-.852.286-1.437-.116-1.547-.124-1.075-.087-3.302-.103-2.827-.38m62.166.49c1.697-.243-3.498-.726-2.006-.189.072.026 1.918.2 2.006.189m-19.378-.146c-.767-.016-2.851-.405-2.973-.131.763.008 2.846.407 2.973.131m92.207-1.805c-.136.26-1.439.636-2.583.85-1.155.221-2.207.327-2.764.453.073-.426 3.224-.594 5.347-1.303m-118.597-.695c8.473.249-5.646-1.194.342.579-4.902-.69-1.588.178-2.331.377-.794.209-3.57-.087-3.411.313h.005l5.062.028c-1.69-.92 1.769-.6 2.963.177q.707-.26 1.412-.523c.835 1.172 1.075-.655 2.658.35 2.011-1.355-5.699-.153-6.7-1.3m-5.88 1.143c-1.432-.365-4.338-.05-3.578.082.34.058 3.337.174 3.578-.082m-16.644-.713c-.307.032 2.038.615-1.622.206h-.004c2.697.88 6.267.07 6.661.089.392.031-.206.375-.116.387.209.028 4.384.106 4.584.083.142-.019-.635-.557.217-.707-1.659.275-9.319-.094-9.72-.058m30.357.442c1.707.409.866-.768-.379-.497-.071.016.3.478.379.496m-24.33-.013c-1.053-.238 1.872-.198 2.583-.104 1.581.216-2.442.134-2.583.104m-23.506-.064c.46-.258 5.639-.883 5.519-.63-.109.22-4.701.544-5.519.63m9.282-1.69c.146.015-.195.698-1.205.705-3.169.018-.883-.639-7.487.647 2.768-.727.144-.34.68-.575.431-.185 2.068-.22 1.109-.417 1.261.193 6.663-.39 6.91-.36zm18.336-.046c-1.052.411-5.623.369-8.271.397 2.335.199 6.123.546 8.416.69.655.043 1.28-.135 1.837-.108.893.047.115.308.176.319h.005c1.173.17 2.644-.424.153-.518q1.305-.124 2.607-.255c-3.272-.365-2.995.473-3.933.425-1.312-.067-1.242-.738-.99-.95m83.252 1.22.004.003zm-49.738-.606c-.054.013.403.388.462.404 2.339.616.862-.535-.462-.404m-38.839.16c-1.334-.024-3.401-.208-4.119.055 1.337.031 3.405.224 4.119-.055m15.765-.116c-.493-.118-5.712-.031-3.594.239.175.021 3.84-.059 3.594-.239m14.985-.593c-.386-.013-.487.556-.402.607.814.434 1.7-.549.402-.607m54.157-3.898c.33 1.102.713 2.04 1.078 2.815a24 24 0 0 0 1.793 1.625 14.3 14.3 0 0 1-1.364-2.529 29 29 0 0 1-1.507-1.911m-61.456 4.01c1.239.357 1.497-.632.094-.353-.054.012-.139.333-.094.353m-17.247-1.407c-.829-.212-3.613.335-4.185.46 4.202-.205 2.643.367 3.402.562 1.611.417.985-.968.783-1.022m18.952.62c-.856.034-3.191-.222-3.514.03.789.058 3.13.216 3.514-.03m-12.444-.454c1.464-.166-2.31-.434-3.012-.032.732-.023 2.596.078 3.012.032m-28.083-.393c.069.127-1.885.31-2.056.304-1.103-.06 1.328-.333 2.056-.304m-7.278-.218c1.106.071-1.33.344-2.061.31-.076-.142 1.888-.32 2.061-.31m27.161.122c1.227.56 2.238-.679.406-.41-.088.014-.458.383-.406.41m-22.212-.219c-1.432-.122 2.141-.556 2.54-.275.073.051-2.264.296-2.54.275m136.287-2.195.456.19c.069-.05.157-.13.267-.22q-.12-.063-.26-.14-.13-.073-.27-.157zm-1.014-.496q.15.084.289.155.124-.19.247-.39l-.285-.184a16 16 0 0 1-.251.42m2.031-1.379q-.27.548-.555 1.07c.269.161.496.293.689.399q.345-.614.69-1.295l.027-.05q-.372-.052-.851-.124m-4.745-.691c1.017.95 1.831 1.543 2.493 1.94q.14-.21.273-.42c-.421-.299-1.056-.722-1.847-1.39q-.459-.067-.919-.13m3.242 1.158q.154.103.297.196.219-.375.429-.776l-.391-.059q-.164.325-.335.639m-1.192-.864c.391.3.716.528.955.702l.057.039q.16-.27.312-.546c-.42-.063-.865-.128-1.324-.195M36.469 60.203c.008.1.154.162.2.24.056.075.05.155.017.232-.03.077-.093.154-.046.195.059.034.195.055.827-.131-.402.051-.578-.147-.724-.309-.14-.164-.267-.295-.274-.227m1.915.208c-.28.112-.52.2-.728.27l-.189.058q.087-.012.195-.042c.188-.06.42-.148.722-.286m4.452-2.815c-3.122 2.423-3.77 2.414-4.452 2.816.606-.253 1.268-.503 2.747-1.36a23 23 0 0 0 2.074-1.382zm-1.273-.266c.005.16-.012.292-.15.331-.067.022-.297.035-.63.045-.574.39-1.089.703-1.572.989-.41.247-.756.451-1.063.632.281.025.562.051.806.06-.298.326-.995.414-1.565.397a.3.3 0 0 0-.049.043q-.02.047.028.074c.209.032.872-.027 2.396-.683.86-.38 1.935-.978 2.76-1.521.058-.037.12-.082.186-.126q-.58-.12-1.147-.241m-5.802-.864c-.07-.245-.324-.187-.284-.098.008.07.21.127.286.216a.2.2 0 0 0-.002-.118m48.194-33.09q-.845-.65-2.145-.325-1.3.261-1.95 1.17a13.6 13.6 0 0 0-1.106 1.82 46 46 0 0 0-.779 1.95q-.39.975-.78 2.015l-.78 2.08q-.325.975-.715 2.015a26 26 0 0 1-.78 2.145 46 46 0 0 0-.78 2.015 78 78 0 0 0-.65 1.755 31 31 0 0 0-.65 1.885q-.325.976-.715 1.885a42 42 0 0 1-.845 2.145q-.455 1.235-.78 2.08l-.39.91-.066.26a2.4 2.4 0 0 0 0 1.105q.066.26.196.52l.26.52.39.39.52.26.52.13h.584q.326-.066.586-.13.26-.13.454-.26.26-.13.455-.325.195-.26.326-.455.13-.26.455-1.105.39-.91.91-2.21t.844-2.21.715-2.015l.087-.262.043.002q.325 0 .91-.064.65-.066 1.69-.131a35 35 0 0 1 2.015-.195 31 31 0 0 1 1.885-.195q.975-.065 2.08-.195l1.17-.13.135-.055q.388.907.775 2.005.39 1.04.65 2.015.326.975.651 2.015.39.975.78 2.145l.455 1.105q0 .003.051.087l.014.043q.068.112.144.217.193.312.505.564l.069.037q.152.12.322.222.39.13.715.196.39.065.78 0 .39-.066.715-.261t.585-.455q.26-.325.39-.65.035-.09.06-.185l.005-.01q.13-.39.13-.78t-.13-.715a1.8 1.8 0 0 0-.179-.38 30 30 0 0 1-.341-.92 94 94 0 0 1-.65-1.885l-.65-1.95a10.7 10.7 0 0 0-.65-1.885 46 46 0 0 0-.78-2.015q-.39-1.105-.78-2.015a58 58 0 0 0-.715-2.014 20 20 0 0 0-.78-2.08l-.78-2.08a25 25 0 0 1-.845-1.885 28 28 0 0 1-.78-1.886 23 23 0 0 0-.716-2.08q-.39-.974-.91-1.82-.52-.844-1.43-1.495m115.781 0q-.844-.65-2.145-.325-1.299.261-1.95 1.17a13.6 13.6 0 0 0-1.105 1.82q-.39.91-.78 1.95-.39.975-.78 2.015l-.78 2.08q-.325.975-.715 2.015a26 26 0 0 1-.78 2.145 45 45 0 0 0-.78 2.015 78 78 0 0 0-.65 1.755 31 31 0 0 0-.65 1.885q-.325.976-.715 1.885a42 42 0 0 1-.845 2.145q-.455 1.235-.78 2.08l-.39.91-.065.26a2.4 2.4 0 0 0 0 1.105q.065.26.195.52l.26.52.39.39.52.26.52.13h.585q.325-.066.585-.13.26-.13.455-.26a1.7 1.7 0 0 0 .455-.325q.195-.26.325-.455.13-.26.455-1.105.39-.91.91-2.21t.845-2.21.715-2.015l.087-.262.043.002q.325 0 .91-.064.65-.066 1.69-.131a35 35 0 0 1 2.015-.195 31 31 0 0 1 1.885-.195 42 42 0 0 0 2.08-.195l1.17-.13.134-.055q.388.907.776 2.005.39 1.04.65 2.015.326.975.65 2.015.39.975.78 2.145l.455 1.105.052.087q.006.022.013.043.068.112.145.217.192.312.505.564l.068.037q.153.12.322.222.39.13.715.196.39.065.78 0 .39-.066.715-.261.326-.195.585-.455.26-.325.39-.65.035-.09.06-.185l.005-.01q.13-.39.13-.78t-.13-.715a1.8 1.8 0 0 0-.178-.38q-.1-.246-.342-.92a94 94 0 0 1-.65-1.885l-.65-1.95a10.6 10.6 0 0 0-.65-1.885 45 45 0 0 0-.78-2.015q-.39-1.105-.78-2.015a59 59 0 0 0-.715-2.014 20 20 0 0 0-.78-2.08l-.78-2.08a25 25 0 0 1-.845-1.885q-.39-.846-.78-1.886a23 23 0 0 0-.715-2.08q-.39-.974-.91-1.82-.52-.844-1.43-1.495m-26.784-.13q-1.236 0-2.471.065-1.17 0-2.859.065a69 69 0 0 1-2.665.065l-1.106.065-.325.066q-.26 0-.52.13a3.4 3.4 0 0 0-.52.324 1.7 1.7 0 0 0-.39.39q-.195.195-.325.456-.064.26-.13.584a2.2 2.2 0 0 0-.064.52q0 .26.064.585l.26.52q.13.195.325.456.195.195.455.325l.521.26.519.13q.326 0 1.43-.066a47 47 0 0 1 2.665-.064 72 72 0 0 1 2.795-.066l.285-.014.04.599q.13.975.195 2.016.066 1.04.066 2.144 0 1.04.064 2.146.066 1.105.066 2.079t.064 2.015q.066.975.13 2.015.065 1.04.066 2.016.065.91.129 1.884l.13 1.95q.066.975.066 1.495v.52l.064.39q.022.121.055.236.03.142.075.285l.391.649q.25.25.56.44.106.076.219.145.065.022.13.04.186.087.39.155.258.042.516.026.245.016.459-.026.166-.057.319-.124.104-.032.202-.071.112-.068.216-.145.313-.19.564-.44.26-.325.39-.65.046-.143.075-.288a2 2 0 0 0 .054-.232 6 6 0 0 0 .066-.975q0-.585-.066-1.56l-.129-1.95q-.066-1.04-.13-2.015 0-.975-.066-1.95l-.13-2.08a38 38 0 0 1-.064-2.21q0-1.104-.066-2.08-.064-1.04-.129-2.015 0-.975-.066-2.08-.064-1.17-.13-2.145l-.019-.258q1.109.005 2.165.063h2.469q.325-.064.651-.064h.585q.001-.001.018-.004c.038 0 .075.004.112.004q.39-.066.715-.196a2.5 2.5 0 0 0 .649-.455q.177-.143.296-.306.185-.217.289-.474.06-.184.093-.367.022-.078.038-.153.065-.39 0-.78 0-.39-.196-.715a3 3 0 0 0-.144-.218 2.2 2.2 0 0 0-.506-.562 1.14 1.14 0 0 0-.524-.296 1.37 1.37 0 0 0-.646-.16 2.3 2.3 0 0 0-.779 0h-3.575a33 33 0 0 0-2.08-.063zm-56.301-.455a1.06 1.06 0 0 0-.521 0 3 3 0 0 0-.584.065 2.5 2.5 0 0 0-.52.195q-.195.13-.455.325-.196.195-.391.455a2.6 2.6 0 0 0-.194.52q-.065.26-.13.585v3.25q0 1.43-.065 2.99a73 73 0 0 0-.064 2.841q-.432-.003-1.041.02-1.69-.001-3.315.064-1.56 0-3.055.13-1.43.065-2.925.13-.812.036-1.498.05a66 66 0 0 0-.062-2.584q0-1.43-.065-2.99v-2.47l-.065-.91-.066-.26q0-.261-.13-.52a.96.96 0 0 0-.259-.456 1.3 1.3 0 0 0-.39-.455 1.7 1.7 0 0 0-.455-.325 2.3 2.3 0 0 0-.585-.194 1.06 1.06 0 0 0-.52 0q-.261-.001-.585.064a2.6 2.6 0 0 0-.52.195q-.195.13-.455.325-.195.195-.325.456-.13.195-.26.52l-.13.52v1.17q.064.844.065 2.404.065 1.56.065 3.185v6.045q.064 1.43.064 2.99.066 1.495.13 3.12a74 74 0 0 1 .066 2.925l.065 1.3v.39q.02.119.053.231.03.144.077.29l.39.649q.25.25.56.44.106.076.22.146.39.129.78.194.13 0 .255-.009.132.009.265.01.39-.066.715-.195.114-.07.219-.147a3 3 0 0 0 .561-.44q.26-.324.39-.649.045-.14.074-.282.034-.116.055-.238.066-.39.066-.65t-.066-1.754a68 68 0 0 1-.064-2.926q0-1.43-.065-2.86 0-.777-.018-1.538a52 52 0 0 1 1.578-.022l3.055-.13q1.56-.13 2.99-.13l2.989-.13h1.222q.013.645.014 1.3.065 1.43 0 2.925 0 1.43-.065 2.926 0 1.494.065 2.274l.065.78.002.014-.002.116q.048.292.133.583.052.206.127.392.118.195.259.366.031.045.066.089.03.03.063.058.033.037.067.073.05.038.1.074.097.08.203.152.173.123.346.228.326.13.716.195.13 0 .259-.009.13.009.261.01a3.6 3.6 0 0 0 .698-.191l.017-.005.005-.004a2 2 0 0 0 .254-.126 1.8 1.8 0 0 0 .521-.455 2.6 2.6 0 0 0 .389-.65q.063-.186.095-.374a2 2 0 0 0 .035-.146 6 6 0 0 0 .066-.975q0-.65-.066-2.145v-3.12q.066-1.625.066-3.055 0-1.495-.066-2.925a64 64 0 0 1-.064-2.86l.13-2.99q.065-1.494.065-3.055v-2.34l-.065-.78-.066-.26q0-.325-.13-.585a.96.96 0 0 0-.259-.455 4 4 0 0 0-.39-.455 1.7 1.7 0 0 0-.455-.324 2.3 2.3 0 0 0-.585-.196m6.715.39a1.06 1.06 0 0 0-.521 0q-.26 0-.585.066a2.5 2.5 0 0 0-.519.194q-.195.13-.455.325a4 4 0 0 0-.391.455 2.5 2.5 0 0 0-.194.52q-.066.26-.13.586v1.04q.064.78.064 1.755v2.08q.066 1.04.066 2.144v2.016q0 .975.064 1.949.066.975.066 2.016v2.08q0 .975.064 2.08.066 1.105.131 2.079.065.91.13 2.08.13 1.17.13 1.69v.52l.002.014-.002.117q.065.39.194.779.13.326.391.65.25.25.559.439.107.077.221.146.39.13.715.196.139-.002.278-.011.125.009.241.01.39-.065.715-.195.39-.194.651-.455.26-.324.455-.65.117-.2.162-.424.096-.259.097-.485a2 2 0 0 0-.018-.277q.017-.297.018-.699 0-.78-.064-1.82a34 34 0 0 0-.195-2.08l-.13-2.08v-2.08q0-.18-.003-.358l.133-.032q.16-.08.295-.187.464.577 1.07 1.292.714.78 1.364 1.56l1.301 1.56q.65.78 1.364 1.56t1.561 1.56q.845.78 1.559 1.495.715.65 1.366 1.3l.65.65.061.062.003.003.196.196q.171.102.342.186.056.037.113.073.179.071.379.123.297.087.595.137.344-.002.638-.104a2 2 0 0 0 .532-.22q.326-.196.585-.456a3 3 0 0 0 .228-.325q.188-.26.293-.52.13-.39.13-.78t-.13-.715a1.64 1.64 0 0 0-.391-.65 2.3 2.3 0 0 0-.242-.26 8 8 0 0 0-.407-.39q-.52-.585-1.236-1.235a47 47 0 0 0-1.495-1.43l-1.429-1.43-1.366-1.495q-.65-.78-1.429-1.69a34 34 0 0 0-1.561-1.82 71 71 0 0 1-1.234-1.494l-.014-.017q.559-.57 1.118-1.089a60 60 0 0 0 1.561-1.495l1.495-1.495q.78-.78 1.495-1.43.78-.714 1.625-1.495.844-.78 1.17-1.04l.39-.325.325-.195q.212-.17.368-.37l.021-.02q.26-.26.39-.585.057-.174.088-.347a1.6 1.6 0 0 0 .056-.562q.021-.25-.042-.47a2 2 0 0 0-.078-.304 2 2 0 0 0-.218-.527 1.5 1.5 0 0 0-.332-.384 1.5 1.5 0 0 0-.383-.33 2 2 0 0 0-.716-.26 1.6 1.6 0 0 0-.64-.08 1.5 1.5 0 0 0-.594.08q-.131.045-.323.157a2.6 2.6 0 0 0-.587.362q-.049.049-.095.1-.14.104-.295.225a18 18 0 0 0-1.755 1.43q-.845.78-1.625 1.495t-1.561 1.495l-1.689 1.69a47 47 0 0 1-1.625 1.56 64 64 0 0 1-1.506 1.446q-.014-.607-.055-1.186v-2.08q0-1.105-.064-2.08v-1.82l-.065-.78-.066-.26q0-.26-.13-.52a.97.97 0 0 0-.259-.454 4 4 0 0 0-.39-.455 1.7 1.7 0 0 0-.455-.326 2.3 2.3 0 0 0-.585-.195m21.643-.455q-.26 0-.585.13a1.3 1.3 0 0 0-.291.115l-.098.016a2.6 2.6 0 0 0-.521.194q-.195.13-.455.325-.195.195-.389.455a4 4 0 0 0-.26.455q-.066.261-.13.585v3.12q.064 1.17.064 2.21.066.975.066 1.95v5.916q0 .975.064 2.014.066.976.066 2.08v2.015l.13 1.95a38 38 0 0 0 .197 2.158l-.002.118q.065.39.194.715.131.324.391.649.044.044.092.086.05.056.102.11.26.195.585.389l.195.195.521.26q.325.065.585.13h1.104A27 27 0 0 1 148.65 51q1.235-.065 2.21-.065t1.949.065q.975 0 2.016.065h2.47q.39 0 .714-.065.39-.13.651-.325.21-.17.365-.367l.024-.023q.26-.26.39-.584.195-.39.195-.78a1.34 1.34 0 0 0-.028-.6 1.7 1.7 0 0 0-.102-.375 1.6 1.6 0 0 0-.389-.65 1.5 1.5 0 0 0-.521-.521 2 2 0 0 0-.715-.26 1.6 1.6 0 0 0-.555-.085 12 12 0 0 0-.485-.045 28 28 0 0 0-1.95-.064h-2.014a33 33 0 0 0-2.08-.066q-1.041 0-2.276.066h-1.146l-.024-.326a30 30 0 0 1-.06-1.462l-.008-.975a29 29 0 0 0-.062-1.463q0-.975-.064-1.95a31 31 0 0 1-.044-.858q.837-.051 1.929-.051 1.234-.066 2.274-.131a37 37 0 0 1 2.146-.065h2.794l.39-.065a2 2 0 0 0 .437-.124l.018-.006.012-.007a2 2 0 0 0 .431-.242 4 4 0 0 0 .208-.14q.324-.26.519-.586.196-.325.261-.714a2.2 2.2 0 0 0 .026-.502 1.8 1.8 0 0 0-.026-.474 1.5 1.5 0 0 0-.263-.625 1.6 1.6 0 0 0-.322-.48l-.079-.072-.116-.123a1.64 1.64 0 0 0-.651-.39 1.8 1.8 0 0 0-.411-.107q-.054-.013-.108-.022-.325-.066-1.366-.066-1.04 0-2.08.066-.975-.001-1.95.064t-2.21.13h-1.885v-2.274q0-1.04-.064-2.08 0-1.041-.065-2.146v-.564q.487.015 1.04.044a43 43 0 0 0 2.275.065 38 38 0 0 0 2.079.065q.975.066 2.016.13 1.104 0 1.689.066h.585l.391-.066q.225-.039.428-.12l.027-.01q.39-.13.649-.39.326-.261.521-.585.195-.325.26-.65.041-.26.026-.52.016-.26-.026-.52a2 2 0 0 0-.26-.715 1.5 1.5 0 0 0-.411-.445 1.4 1.4 0 0 0-.499-.4 2 2 0 0 0-.715-.26 3.3 3.3 0 0 0-.651-.064h-1.429a39 39 0 0 0-2.276-.066 40 40 0 0 0-2.21-.064q-1.04-.066-2.274-.131a98 98 0 0 1-2.016-.13zM280.82 37.603c-.127.018.853.78 1.026 1.06.013.02-.073.034-.195.045.379.426.928 1.072 1.79 2.073.276.375.6.781.949 1.252q.415.053.822.107-.17-.254-.34-.495c-1.549-1.39-2.03-1.71-2.315-1.977l-.008-.005c-.22-.2-.177-.494.073-.665q-.256-.249-.454-.418c-.945-.822-1.278-.968-1.348-.977m-.475 1.152c-.535-.31-.222.022.474.565.384.323.817.615 1.486 1.138l-.036-.044c-1.132-1.172-1.628-1.46-1.924-1.659M82.367 29.654q.072.271.158.548.39.975.78 1.884.39.91.845 1.95.454.976.78 1.885.302.849.662 1.81l-.078.01q-.845.066-1.82.13-.91.065-2.015.195-1.04.065-2.144.195-.225.025-.43.048.278-.695.56-1.413.52-1.17.78-2.08.325-.975.65-1.885a32 32 0 0 1 .715-1.82c.2-.498.383-.985.557-1.457m115.781 0q.072.271.158.548.39.975.78 1.884.39.91.845 1.95.455.976.78 1.885.303.849.663 1.81l-.078.01q-.845.066-1.82.13-.91.065-2.015.195-1.04.065-2.145.195-.225.025-.431.048.281-.695.561-1.413.52-1.17.78-2.08.325-.975.65-1.885t.715-1.82c.2-.498.383-.985.557-1.457M40.18 33.203c-.794-.373-1.026-.587-1.06-.452-.086.13.169.425 1.052.78.832.343 2.009.648 2.202.504-.356-.035-1.448-.472-2.194-.832m-.601-.916c-.468-.142-.309-.011-.234.038.038.053.45.153.933.255-.356-.174-.554-.24-.7-.292m243.649-4.157a22 22 0 0 0-1.419 1.173l-.177.164c.506-.09 3.036-1.116 1.8-1.32a2 2 0 0 0-.204-.017m-1.82.701c-1.225.097-3.023.282-.57.567q.3-.308.57-.567m5.505-4.445c-.302-.118-1.582.388-1.761.834.224-.028.552-.092.866-.181.228-.16.427-.303.57-.406q.195-.144.325-.247M33.967 22.883c-.019-.057-.063-.113-.623.081-.298.111-.735.273-1.656.772-.27.193-.551.335-.892.52q.537-.156 1.034-.295c-4.831 2.126.576.926 1.369.37.093-.065.091-.414.383-.847.13-.212.376-.462.385-.6m2.377-.35c-.053.237-.626.71-.58.81-.022.12.734.433 1.859.692 1.078.248 2.239.387 1.934-.038-.278-.314-2.955-.622-2.917-.674-.059-.057.12-.194.177-.348.072-.15-.057-.341-.473-.441m251.313 1.036c-.204.143-.321.27-.273.34.438-.17.657-.323.273-.34m-253.525.174c.06.003.13-.015.125-.02.01-.01-.05.002-.125.02m3.018-2.503c-.104-.224-.242-.395-.377-.272a.3.3 0 0 0-.087.151h.004c.088.004.242.04.46.12m251.317-2.671c.19-.615-3.664-.91-2.234-.133.341.19 2.167.333 2.234.133m-250.94-.125q-.033-.005.012.024 0-.02-.011-.024m3.475-2.054c.303.174.694.403 1.098.667l.115.076c-.05-.136-.278-.346-.751-.65-.124-.082-.287-.103-.462-.093m-1.586.545c-.484-.203-.607-.203-.661-.167q-.005.01-.007.02c.222.058.486.127.768.193q-.051-.023-.1-.046m-1.035-.28c-.37-.09-.355-.071-.115 0a.3.3 0 0 1 .115 0m230.534-1.512c-.626-.17-1.251.768-1.186.832.634.58 1.773-.325 1.186-.832m-229.189.177q-.112.004-.18.02l.37.154c.41.168.882.359 1.336.536q-.103-.061-.192-.11a14 14 0 0 0-.482-.254c-.54-.267-.764-.338-.852-.346m224.203-.189c-.817.09.367 1.369 1.562.585-.549-.018-1.485-.593-1.562-.585m-.448.11c-1.13-1.015-1.271.385-.369.563.336.064.408-.53.369-.562m25.607-.19c.885-.45 3.176.296 4.844.656-.858.335-3.621-.426-4.844-.656m-9.904-2.172c.085-.01 1.927.35 2.011.392 1.449.84-3.765-.168-2.011-.392m-22.927.107c-.66-.136-2.921-1.136-3.561-.914 1.368.372 3.604 1.794 3.561.914m13.429-.49c-.147-.853 2.729.268 3.829.341.157.85-2.822-.266-3.829-.341m-5.057-1.142c.176-.333 1.869.145 2.532.17-.496.442-1.751.042-2.532-.17m-10.398-3.36c.136-.525.08-.366 1.018-.079 3.585 1.119 4.38 1.418 5.226 1.763.751.316 1.02.533.861.628-.16.093-.732.066-1.665-.198-.981-.273-2.206-.786-5.44-2.114m-224.37.75c-.099-.024-3.471.63-3.775.744-1.927.72.212.329 1.948-.005 1.75-.342 3.302-.718 1.828-.738m8.655-1.616c-.621.104-3.479.297-3.512.526.004.345 3.256.11 3.512-.526m113.517-2.736c-1.64.18-3.263 2.525-1.246 2.086.215-.05 1.446-1.78 1.246-2.086m23.322 1.747c1.469-.543-1.947-1.185-2.569-.754-.31.212 1.925.99 2.569.754m20.167-.73c-.178-.056-2.19.002-2.119.347.741.219 3.246.035 2.119-.346m18.961.237c-.031-.475-2.434-.386-2.125-.066.104.106 2.141.447 2.125.066M159.13 5.03c-1.571.62 1.854.965 1.52.23-.048-.04-1.455-.256-1.52-.23m7.341-.214c-1.442-.867-3.843-.71-3.214.443 2.652-.148-.364-1.048 3.214-.443m-20.88-.818c.947-.859-4.079-.456-4.459.503.657.105 4.329-.403 4.459-.503m77.853-1.317c.134-.015 2.129.332 2.194.379 1.269.923-5.279-.105-2.194-.379M169.921 1.18c.508-.148.967-1.756 3.683-.958h.008c.795.235-.105.626.041.765.057.056 2.524.848.479.977-3.113.209-.305-1.188-1.968-1.196-.212-.002-3.319.9-3.132 1.089.027.02.954-.175 1.11-.098.59.29.314.791.397.815.266.049 5.223-.822 5.959-.068.207.22-7.894.819-8.199.721-.199-.075-.146-1.462-.354-1.595-.121-.067-3.324.52-3.74.407a2 2 0 0 1-.284-.103c.494.415-2.396.465-2.322-.02.046-.191 2.029-.14 2.11-.107.031.013.06.032.086.045-.444-.522 6.381-.636 4.895-1.382 1.988-.455-.26 1.143 1.231.708m54.829.87c-.307-.878 4.255-.095 4.607.14 1.36.891-4.25-.31-4.607-.14M177.512.901c.399-.425.46-.8 1.932-.578l-.579.43c3.268-.325 7.071.416 10.904.473.972.016-.142-.89 1.133-.625 1.023.212 2.153 1.055 1.595 1.228-.139.042-2.221-.53-3.259-.49-3.064.115-2.292.888-2.471.907-.198.018-2.118-.541-3.164-.529-2.282.028-3.484.377-6.091.047q-.642-.074-1.397-.196c.795-.177 1.154-.43 1.397-.667"/></svg>