<svg width="549" height="83" viewBox="0 0 549 83" fill="none" xmlns="http://www.w3.org/2000/svg">
<path d="M147.78 1.64046C147.621 1.35235 161.391 1.48517 161.844 1.61702C163.852 2.22345 155.632 1.863 157.209 2.61507C157.679 2.82945 170.357 2.56281 177.186 2.52327C178.898 2.515 180.221 2.52609 180.994 2.57307C185.412 2.85246 187.497 4.70957 187.426 2.56526C188.766 4.64573 189.816 3.18347 190.375 3.18538C197.274 3.20791 197.279 3.21748 203.263 2.82991C204.588 2.74417 205.75 3.33432 206.217 3.21272C206.488 3.13969 205.936 2.48484 207.272 2.23421C209.094 1.88567 220.599 2.23125 221.502 2.58772C222.374 2.92978 216.636 2.87558 217.698 3.45296C221.831 3.39461 225.831 3.15109 230.055 3.15315C231.796 3.15732 230.92 3.58731 231.676 3.58577C232.017 3.57874 238.024 3.16938 237.785 3.02327C237.15 2.6094 218.507 3.18132 223.383 2.36116C224.329 2.19649 227.711 3.09979 227.132 1.93636C239.632 1.91404 252.201 2.2522 264.629 2.88655C268.833 3.0987 273.028 3.34557 277.217 3.62776C273.185 3.76607 268.942 3.65411 264.627 3.47542C258.707 3.23006 252.676 2.85075 246.849 2.83479C245.466 2.82526 240.803 2.69239 241.392 3.28108C248.588 3.41632 257.199 3.39119 264.625 3.80745C266.05 3.88518 267.398 3.9786 268.7 4.0887C268.962 4.11145 267.991 4.58234 268.977 4.701C270.809 4.91392 276.773 4.37541 277.775 4.64436C277.944 4.70045 274.533 5.19758 275.561 5.66975C278.198 6.87588 278.901 4.52025 281.181 4.67757C282.952 4.78277 294.685 6.68801 297.618 6.22151C300.759 5.69634 288.987 5.13912 289.871 4.58968C297.883 4.51462 305.888 5.86959 313.289 6.47151C313.415 6.47963 312.316 5.90464 313.968 5.99202C316.845 6.14649 317.557 6.8833 318.942 7.11995C320.437 7.37354 325.721 7.78269 326.408 8.08772C326.495 8.12721 325.397 8.67567 325.232 8.6805C322.919 8.73485 322.149 7.81026 321.94 7.77913C321.154 7.67249 320.361 7.92503 319.643 7.8387C318.46 7.69574 317.823 7.33186 316.255 7.15901C315.173 7.03904 316.186 7.71973 315.144 7.59749C314.763 7.55193 310.689 5.82999 310.223 7.16975C310.218 7.57682 343.633 11.2407 346.845 11.1131C344.286 10.7599 341.723 10.3945 339.156 10.0223C344.744 10.7701 351.06 10.419 351.483 11.8914C356.02 12.2726 360.553 12.6245 365.086 12.9432C381.849 14.1123 398.928 14.9104 416.048 15.7498C419.933 16.0308 417.803 16.7567 424.204 16.7908C422.547 16.4629 420.895 16.1321 419.242 15.7977C422.516 16.1263 437.079 17.1202 439.444 17.0809C439.751 17.075 440.177 16.3955 443.826 16.5282C447.067 16.648 447.588 17.1872 449.322 17.3758C450.765 17.533 452.418 17.4917 452.848 17.5438C453.18 17.5846 453.31 17.8969 454.104 17.994C456.621 18.2975 454.591 17.3331 457.088 18.451C456.479 18.4535 455.867 18.4569 455.252 18.4608C458.301 18.7715 462.462 19.4435 457.965 19.411C457.199 19.4068 457.86 19.1518 457.287 19.1209C434.79 18.0474 452.736 19.4809 460.644 19.4754C462.66 19.9952 474.054 20.4696 474.459 20.6024C474.985 20.7554 473.02 20.9386 475.576 21.3992C476.097 21.4323 491.523 22.5977 485.925 22.6053C484.787 22.587 477.419 21.8794 475.654 21.785C478.918 22.6732 485.685 22.6029 489.016 22.7088C489.96 22.7343 490.582 22.7578 490.815 22.7899C493.162 23.1294 490.518 23.0165 488.993 23.0545C488.257 23.0783 487.917 23.1398 488.979 23.3133C489.625 23.4135 490.614 23.5417 492.242 23.741C500.181 24.796 492.761 23.3269 495.846 23.5028C496.799 23.5955 499.164 23.9289 502.696 24.8475C503.115 24.9644 503.797 25.163 504.396 25.3895C505.317 25.8184 505.862 25.6887 508.305 27.7078C508.909 28.111 510.678 30.2885 511.284 33.0096C513.178 33.2487 516.006 33.9226 514.415 33.8563C515.821 33.9526 514.9 33.6521 515.701 33.6356C515.916 33.6323 517.885 34.0545 518.296 34.0692C518.346 34.0628 516.322 33.4378 516.747 33.4373C517.473 33.4012 523.66 34.9161 524.381 35.2244C525.894 35.7564 520.407 34.4224 520.046 34.5741C519.954 34.5658 524.308 36.0378 524.469 36.1532C524.557 36.4919 519.687 35.0115 520.212 35.4803C521.383 35.8223 522.563 36.1763 523.84 36.5975C520.1 35.8101 514.776 34.7029 511.465 34.1756C511.47 34.2291 511.472 34.283 511.475 34.3367C516.976 35.3886 522.255 36.6801 522.159 37.4158C522.061 37.7284 519.14 37.2691 519.237 37.3885C519.573 37.7611 523.707 38.3971 523.931 38.5135C524.057 38.5682 524.111 38.6028 524.107 38.6199C523.957 38.6961 518.191 37.5043 517.94 37.5721C517.44 37.6223 519.836 38.7495 519.802 38.8836C519.684 38.8734 515.718 38.2325 517.013 38.7342C518.099 39.1395 520.702 39.7336 521.626 39.9657C522.385 39.9971 523.15 40.0416 523.896 40.1063C524.768 40.1812 526.565 40.8442 525.022 41.0467C522.35 41.406 517.134 40.864 517.222 41.2869C517.341 41.7509 524.262 41.4063 526.115 41.409C532.359 41.4164 531.381 41.7353 530.526 41.9617C530.774 42.0022 530.953 42.0313 531.013 42.0448C532.031 42.2906 531.259 42.2259 530.142 42.0682C530.025 42.1035 529.957 42.1318 529.993 42.1522C530.225 42.2773 531.023 42.3145 531.929 42.3133C530.923 41.9663 532.132 42.0124 534.09 42.2586C534.736 42.2315 535.209 42.2058 535.254 42.2049C535.511 42.2292 535.35 42.2943 535.017 42.3826C537.844 42.7812 541.583 43.4824 542.893 44.0643C543.257 44.206 542.811 43.9397 542.498 43.7586C542.149 43.5606 541.81 43.3881 541.989 43.4344C542.061 43.4543 542.355 43.5426 542.789 43.7059C543.05 43.8069 543.319 43.9109 543.745 44.1229C544.218 44.4309 544.665 44.3804 546.037 45.9696C546.413 46.4855 546.795 47.0385 547.062 48.1873C547.345 49.2881 547.07 50.8774 546.675 51.6248C546.292 52.4639 545.723 53.0902 545.362 53.4198C545.045 53.7115 544.749 53.9255 544.477 54.1004C543.502 54.6994 542.99 54.8357 542.519 55.0076C541.558 55.3227 540.881 55.4714 540.112 55.6356C537.738 56.1279 535.632 56.4233 535.206 56.5946C534.368 56.9501 538.447 56.1072 538.812 56.2498C538.921 56.4935 528.363 58.1733 534.106 57.5282C535.74 57.3341 537.962 56.9336 540.249 56.3846C541.191 56.1508 541.933 55.9903 543.292 55.4666C543.702 55.2975 544.054 55.1527 544.681 54.7782C545.03 54.5643 545.418 54.2961 545.846 53.8963C546.373 53.403 547.155 52.5132 547.58 51.1492C548.151 49.59 547.692 47.3903 547.216 46.5955C546.732 45.6132 546.085 44.9787 545.81 44.7244C545.463 44.405 545.157 44.1838 544.884 44.0028C544.67 43.8621 544.479 43.7502 544.299 43.6512C542.98 42.9651 542.409 42.8325 541.904 42.618C541.382 42.4166 541.082 42.2752 540.887 42.1287C541.519 42.2821 542.13 42.4328 542.972 42.7264C543.156 42.7904 543.414 42.8882 543.659 42.992C543.784 43.0447 543.911 43.1004 544.044 43.1629C544.206 43.2397 544.375 43.3245 544.553 43.4227C544.738 43.5253 544.899 43.6191 545.142 43.7801C545.405 43.9567 545.694 44.1706 546.014 44.4617C546.51 45.0291 548.197 46.1697 548.186 49.6854C547.886 52.9886 546.01 54.1585 545.597 54.5584C545.255 54.8264 544.946 55.0229 544.662 55.1854C544.436 55.3149 544.26 55.4045 544.075 55.494C543.274 55.8651 542.936 55.9666 542.431 56.1307C542.052 56.2518 541.654 56.3613 541.301 56.451C540.981 56.5337 540.65 56.6121 540.305 56.6873C536.34 57.5359 532.795 57.9725 529.194 58.4334C532.374 58.3356 535.502 58.2166 538.947 57.8446C532.075 59.1387 526.673 59.3115 520.601 60.3289C535.284 59.6824 515.903 61.551 515.712 61.6336C515.638 61.7169 521.403 61.8802 522.359 61.8973C517.256 62.7562 501.886 64.3325 510.936 64.4178C509.279 64.3686 505.373 65.2715 505.409 65.3114C505.92 65.6953 514.561 64.5493 513.171 65.0604C511.542 65.6649 509.243 65.3132 506.725 65.6053C493.863 67.0817 497.478 69.0586 484.594 69.9295C484.853 69.9909 485.113 70.0513 485.371 70.1121C480.12 70.563 474.873 70.9945 469.636 71.4129C460.915 72.1095 452.159 72.7627 443.405 73.3543C437.944 74.6313 423.327 76.2942 416.124 76.6707C414.671 76.756 407.547 76.7317 407.01 76.6737C406.013 76.5718 411.484 76.1745 409.008 76.0223C408.489 76.0042 396.424 76.479 397.291 76.9539C398.641 76.9422 402.872 76.4375 403.566 76.5194C407.82 77.0679 379.926 78.1734 371.575 78.5399C370.355 78.6041 369.555 78.6631 369.32 78.7196C370.066 78.8562 370.817 78.9915 371.571 79.1248C371.655 79.14 371.741 79.1556 371.826 79.1707H368.121C366.974 79.1683 365.83 79.1635 364.687 79.1561C365.648 78.9652 366.61 78.773 367.577 78.5809C364.844 78.5705 361.167 78.794 358.639 78.7C358.227 78.6838 359.306 78.1886 358.33 78.1903C357.35 78.1913 357.523 78.8306 356.098 78.9315C354.496 79.0498 347.196 78.7196 344.678 78.7508C335.237 78.8986 325.771 79.2941 316.488 79.0076C326.118 78.5032 316.446 77.9801 313.76 78.1942C313.17 78.2458 313.188 79.5285 303.65 79.2166C297.603 79.0247 303.244 77.1189 293.136 78.0985C300.837 79.3912 293.221 79.3183 287.176 79.4276C286.138 79.4417 277.74 79.3466 274.054 79.4891C273.289 79.5173 272.273 79.8085 271.213 80.0467C270.533 80.2002 269.836 80.3312 269.18 80.3553C268.029 80.3974 267.158 80.0281 265.444 80.0955C257.454 80.4077 249.554 80.7348 241.458 80.9315C246.166 78.8391 237.734 80.2692 237.347 80.1971C235.409 79.7553 244.145 79.2574 240.685 79.0721C235.858 79.3215 231.013 79.5836 226.149 79.8475C230.147 79.9143 220.89 81.7026 219.158 81.1414C219.977 82.8492 196.758 80.5405 193.158 81.1795C192.415 81.3201 197.299 82.0662 185.991 81.9705C184.764 81.9557 185.226 81.4119 184.582 81.4764C184.198 81.5146 181.865 83.2644 179.368 82.3719C178.454 82.0343 184.303 80.862 171.469 81.4647C175.39 82.7574 162.8 82.7518 154.718 82.2625C152.245 82.1221 150.261 81.9586 149.264 81.8338C150.094 82.0882 150.975 82.3432 151.797 82.5936C147.6 81.8773 146.813 82.4448 145.867 82.3895C142.03 82.1603 136.763 81.3558 133.097 81.2157C128.814 81.0437 128.736 82.1567 123.684 81.3563C124.862 81.6913 126.082 82.024 127.232 82.3436C123.751 82.0556 120.217 81.7134 116.624 81.2938C125.072 80.6141 114.869 81.0744 114.163 80.9969C113.081 80.9298 114.695 80.5064 112.891 80.3768C112.706 80.366 112.903 80.9711 110.118 80.6893C104.277 80.0509 105.311 79.4368 102.904 79.0819C102.695 79.0489 103.321 79.6859 99.263 79.1307C87.2884 77.4465 99.201 78.7307 99.8948 78.7664C100.608 78.7615 96.3653 76.0033 107.447 78.4432C103.675 77.6611 103.499 76.6488 103.072 76.5623C102.65 76.4913 96.4421 75.5609 96.2034 75.5457C93.3582 75.375 95.6851 76.4419 95.1234 76.4617C94.9588 76.4678 93.9716 76.2026 92.7864 75.9666C91.7966 75.7777 90.7236 75.5753 89.2435 75.2469C87.7379 74.8719 86.0568 74.6299 82.2318 73.0526C81.9285 72.8964 81.6143 72.7505 81.2806 72.5994C80.4421 72.6214 80.1232 72.4936 79.2484 71.7684C75.8958 74.4274 76.7763 70.2911 75.4075 70.1766C71.817 69.8825 72.8772 71.8927 72.6966 71.9959C71.429 72.6601 61.2784 72.2565 58.7269 72.6229C59.6974 71.1284 66.8143 72.3724 68.3695 72.0448C73.5726 70.9514 60.9551 71.5221 64.7152 69.5721C63.1217 70.1239 61.5332 70.677 59.928 71.2293C56.9319 70.1278 61.1427 69.4961 53.1341 70.1473C51.847 71.2067 58.8009 69.832 57.4202 70.6756C56.6088 71.1722 51.9722 71.3996 51.8665 71.6502C51.8063 71.9525 55.9857 71.4854 55.3431 71.9637C53.9843 73.0149 38.3065 72.4135 50.1927 71.6024C47.3132 71.6869 45.6329 70.2254 43.3099 70.2811C42.9613 70.2893 42.6016 70.3308 42.2279 70.4168C41.538 70.5768 42.5623 71.0393 43.3294 71.5379C43.9856 71.9648 44.4303 72.4204 43.3509 72.7459C42.3019 73.0476 40.0881 73.2775 34.5989 73.0887C34.3773 72.1749 41.4649 72.8039 41.5999 72.7147C41.849 72.6053 40.5644 70.514 40.3558 70.41C40.1494 70.3144 38.677 70.3569 36.4691 70.411C35.3619 70.4364 34.0734 70.4679 32.4544 70.4598C32.0358 70.457 31.613 70.4519 31.181 70.4422C30.6724 70.4294 30.11 70.4077 29.5257 70.3758C29.0523 70.3517 28.0213 70.2832 26.9486 70.1512C26.5379 70.0996 25.3926 69.9615 23.8636 69.618C23.4681 69.5287 23.0287 69.4217 22.5247 69.283C22.2727 69.2136 22.0041 69.1354 21.7152 69.0467C21.5706 69.0023 21.4202 68.9556 21.265 68.9051C21.1873 68.8799 21.1082 68.854 21.0277 68.827C20.9268 68.7934 20.6909 68.7127 20.5111 68.6483C18.9716 68.0654 16.9459 67.3573 13.6966 65.0985C10.7025 62.8931 5.02463 58.286 2.7425 48.5233C0.0583392 35.9178 6.58715 26.8292 9.51692 23.8094C9.93167 23.3631 10.3286 22.9645 10.7073 22.6033C10.8207 22.4954 10.8494 22.4698 10.9017 22.4207C10.9503 22.3753 10.9992 22.3292 11.0472 22.285C11.1428 22.1968 11.2372 22.1108 11.3304 22.0272C11.7044 21.6915 12.0593 21.3903 12.3958 21.117C13.0686 20.5713 13.6696 20.1323 14.2142 19.7576C16.3541 18.2988 17.8481 17.6326 18.4154 17.3543C19.8893 16.6616 21.0361 16.2511 21.6077 16.0457C23.0363 15.5442 23.8567 15.3136 24.6907 15.0789C26.2255 14.6568 27.3589 14.4048 28.4056 14.1932C30.4087 13.7963 31.8743 13.6309 32.7532 13.6873C31.2028 12.6853 45.3671 11.1314 46.68 10.6073C47.0572 10.4426 45.464 9.94464 45.8724 9.79866C48.4455 8.89496 55.716 9.14106 59.0003 8.72639C62.6739 8.25579 62.1255 7.69026 62.3294 7.66096C63.9556 7.47976 62.7222 8.08373 63.7122 7.951C65.1925 7.72773 75.5637 6.569 76.1097 6.44514C76.2601 6.39996 74.4501 5.86051 76.7396 5.47346C77.1591 5.41695 76.8916 6.26193 83.8646 5.24983C92.4474 4.08988 77.8266 4.69343 81.305 3.49202C86.8795 4.28056 86.6315 3.05673 88.2386 3.03792C88.3984 3.03796 88.8594 3.10439 89.5267 3.19612C91.1398 3.4244 93.9928 3.81852 96.8529 3.67171C94.4903 3.89822 92.1117 4.1441 89.6116 4.43733C89.0399 4.50416 88.4613 4.57477 87.8753 4.64827C88.3955 4.64327 88.9888 4.62343 89.6224 4.59749C92.8 4.46348 96.9562 4.17888 98.9056 4.30061C100.024 4.37242 99.1494 5.28319 101.576 5.19417C102.067 5.17677 104.111 2.94198 97.6995 4.10432C97.1548 3.34789 100.25 3.75374 101.637 3.50374C101.836 3.46382 102.672 2.15352 104.453 2.9178C104.865 3.11862 100.433 6.91619 112.202 4.03108C112.579 3.93941 111.253 3.48624 111.619 3.3846C111.867 3.31521 114.893 3.47293 115.217 3.40511C115.554 3.33092 114.097 2.8325 114.497 2.72835C116.558 2.19323 119.327 4.19758 115.044 4.07796C116.484 4.31558 117.903 4.55561 119.339 4.79671C117.785 3.28117 121.566 4.35442 123.522 4.30159C136.06 3.9771 127.646 3.00756 129.794 2.493C133.247 1.67691 130.64 4.26642 135.754 3.49397C136.222 3.42365 130.036 2.3077 142.106 2.95979C140.33 2.99684 138.548 3.03406 136.767 3.07307C137.817 4.53505 143.19 2.9898 143.606 2.97151C148.322 2.78841 145.15 3.29984 152.125 2.57893C152.749 2.51443 154.114 2.87653 155.439 2.70296C160.948 1.98993 148.151 2.23139 147.78 1.64046ZM249.492 80.2371C249.569 79.8848 244.743 79.8287 244.263 80.45C245.22 80.3863 249.438 80.4548 249.492 80.2371ZM260.81 79.7293C264.752 79.1471 252.88 79.3231 256.511 79.7957C256.699 79.8169 260.622 79.7562 260.81 79.7293ZM349.544 79.1307C349.829 79.0827 357.18 79.0421 356.618 79.3524C355.082 79.949 348.334 79.3865 349.544 79.1307ZM310.593 78.4422C310.587 78.2801 307.283 78.2709 307.131 78.2948C305.976 78.477 310.581 78.9488 310.593 78.4422ZM346.151 78.5877C347.341 77.9634 338.571 77.8825 340.865 78.3817C341.373 78.4944 345.046 78.5984 346.151 78.5877ZM84.5863 72.4842C83.723 72.4824 83.0552 72.506 82.5238 72.534C82.6915 72.6086 82.8506 72.6807 83.0023 72.7498C88.9905 75.0782 90.5578 74.9496 92.889 75.3973C93.1792 75.4328 93.4757 75.4688 93.7777 75.5047C94.0464 75.43 93.628 75.2363 92.9564 75.0155C91.6309 74.6582 89.8585 74.2908 86.8157 73.2977C86.1288 73.0588 85.4114 72.8117 84.5863 72.4842ZM35.7659 9.38753C37.217 9.35893 35.6911 10.0384 35.971 10.1278C36.095 10.1588 40.5158 10.1655 36.9759 10.9373C31.505 12.1667 36.2702 9.85371 33.2611 10.4158C32.9965 10.4419 27.1065 12.587 27.345 12.7586C27.3653 12.765 27.889 12.5988 28.4222 12.4442C28.9177 12.2977 29.4602 12.1526 29.6253 12.1571C30.8795 12.1899 30.3848 12.8078 30.5589 12.7948C31.238 12.6686 39.827 10.1877 41.1585 10.7401C41.6559 10.8404 27.5944 14.0355 25.9202 14.5086C25.4127 14.5592 25.2674 13.1652 24.7113 13.1727C24.6596 13.17 23.9287 13.3811 22.7884 13.7713C22.0992 14.0081 21.3385 14.2618 19.8978 14.8416C19.0039 15.2119 18.2006 15.5295 16.4534 16.4422C15.2847 17.0742 13.8341 17.8609 11.6693 19.5545C11.1271 19.9841 10.539 20.48 9.89777 21.0741C9.14479 21.7618 7.41603 23.4726 5.93195 25.5672C2.93285 29.5007 -1.20941 38.7153 1.12141 48.8768C3.89569 60.3543 10.5968 64.9459 13.7562 67.1366C17.1881 69.3313 19.5524 70.0497 20.6605 70.4373C22.1216 70.9092 23.1333 71.1366 23.972 71.3114C24.8046 71.481 25.4514 71.5816 26.013 71.66C26.4818 71.7233 26.7263 71.7483 27.0384 71.7811C28.1948 71.8984 29.0855 71.9397 29.5491 71.9578C30.634 72.0013 31.3355 72.0167 31.5404 72.0555C31.8276 72.1028 32.0458 72.1498 32.2064 72.1873C31.6232 71.9549 33.1398 71.9044 34.4202 71.9315C35.782 71.9625 37.0512 72.0876 36.9925 72.3299C36.9372 72.4249 35.9502 72.4473 34.9642 72.4305C33.8662 72.4139 32.8504 72.3535 32.7015 72.3328C32.6274 72.317 32.5632 72.296 32.5032 72.2811C32.7112 72.3987 32.1232 72.4764 31.0853 72.5096C30.4319 72.5185 29.7588 72.5249 28.5853 72.4637C27.89 72.4211 27.1516 72.3706 26.0101 72.2225C25.1491 72.1003 24.1309 71.9516 22.4945 71.5448C22.0822 71.4406 21.626 71.3175 21.1087 71.161C20.8451 71.081 20.5915 71.0006 20.2679 70.8924C19.6221 70.6745 18.8872 70.405 18.0179 70.034C16.2808 69.2595 13.9819 68.244 10.678 65.5604C7.54844 62.9507 2.56608 57.8189 0.581369 48.9949C-2.95681 28.4861 10.8155 19.9942 10.7064 19.6297C12.8502 17.86 14.3462 16.9931 15.5521 16.3084C16.9219 15.5603 17.2154 15.4402 17.8353 15.1444C18.3844 14.8892 18.8652 14.6819 19.3021 14.5008C20.2593 14.1092 20.6583 13.9638 21.1771 13.7713C21.6646 13.5921 22.1172 13.4342 22.515 13.2987C23.8443 12.8393 24.8338 12.5286 25.4925 12.2957C26.9056 11.8125 27.2706 11.5746 26.3343 11.5721C30.5623 10.146 26.0805 12.7872 29.0745 11.6824C30.0779 11.3241 30.7651 9.50675 35.7523 9.39046C35.7566 9.38964 35.7616 9.38835 35.7659 9.38753ZM89.4935 71.9442C89.4409 71.932 89.3942 71.9382 89.3958 71.9989C89.5989 72.0036 89.4883 71.9282 89.4935 71.9442ZM73.4505 69.7225C72.2889 69.6182 65.7453 70.1514 65.5238 70.2518C63.8054 71.1179 72.7374 70.6811 73.4505 69.7225ZM54.1732 69.9022C57.0648 69.7133 60.0414 67.3546 56.4613 67.8074C56.086 67.8575 53.8338 69.5961 54.1732 69.9022ZM17.8099 19.1131C16.7696 19.6319 15.4803 20.2861 13.5277 21.7547C13.0384 22.1277 12.5056 22.5607 11.9222 23.0838C11.7458 23.2377 11.0442 23.8869 10.432 24.5408C9.79926 25.2123 9.11908 26.0005 8.40949 26.9588C5.69186 30.4197 1.68141 38.7622 3.82551 48.286C5.86382 57.1954 11.0428 61.7429 13.9271 63.9364C17.0268 66.1917 19.022 66.9418 20.5355 67.5467C20.7235 67.618 20.9049 67.6842 21.0784 67.7459C21.1646 67.7766 21.2539 67.808 21.3314 67.8348C21.3692 67.8482 21.4074 67.8618 21.4446 67.8748C21.5933 67.9268 21.7374 67.9751 21.8763 68.0213C22.1541 68.1137 22.4135 68.1965 22.6575 68.2703C23.1458 68.418 23.5743 68.5344 23.9613 68.6336C25.4431 69.0149 26.6375 69.199 27.0286 69.2811C28.097 69.4802 29.1265 69.6022 29.6058 69.6668C30.1914 69.7389 30.7659 69.7864 31.2405 69.8114C31.6577 69.834 32.0501 69.839 32.4085 69.827C33.8462 69.7762 34.4609 69.4666 33.9398 68.9198C31.2199 68.9072 31.122 69.1211 31.0726 69.2928C31.0349 69.3741 30.9626 69.4361 30.3392 69.411C30.1821 69.4043 29.9893 69.3931 29.7474 69.3719C29.4812 69.3485 29.296 69.3268 28.7445 69.2664C28.2418 69.2081 27.6455 69.1356 26.7396 68.9871C26.2467 68.9046 25.2714 68.7562 23.9036 68.4207C23.5495 68.3333 23.1537 68.2296 22.6966 68.0965C22.4679 68.0298 22.2233 67.9556 21.9593 67.8709C21.8276 67.8287 21.6902 67.7831 21.5482 67.7352C21.5129 67.7233 21.4769 67.7114 21.4407 67.6991C21.4092 67.6882 21.3603 67.6713 21.2679 67.6395C21.1035 67.5827 20.9318 67.5215 20.7532 67.4559C19.3149 66.8959 17.4237 66.2188 14.3724 64.0848C11.5679 61.9892 6.16457 57.6919 3.94563 48.2596C0.744512 29.5468 13.8225 22.0192 13.2503 22.0574C15.2569 20.4715 16.6641 19.7125 17.8099 19.1131ZM41.682 69.2606C44.4957 68.6556 38.4255 68.2736 38.9368 69.0096C39.0771 69.0517 41.5327 69.2878 41.682 69.2606ZM525.132 66.7586C522.874 66.7696 530.422 65.7785 527.846 66.4002C527.719 66.4295 525.215 66.7607 525.132 66.7586ZM43.845 62.8328C43.623 62.8705 43.4061 62.9034 43.1966 62.9383C42.1465 63.629 41.3971 64.0025 40.9329 64.242C39.9174 64.7484 39.349 64.9596 39.0755 65.0731C38.5718 65.2746 38.5818 65.2863 38.6546 65.2967C38.8524 65.2967 39.3198 65.2422 39.514 65.2176C39.4812 65.3519 39.0317 65.6004 38.8314 65.7645C38.7533 65.8372 38.6972 65.912 39.1927 65.7723C39.3726 65.7219 39.9695 65.5337 41.0081 65.0477C41.3648 64.8748 42.7171 64.2554 44.5023 62.9813C44.6535 62.8729 44.8094 62.757 44.972 62.6346C44.5886 62.702 44.2112 62.7699 43.845 62.8328ZM512.118 65.6727C511.857 65.6688 515.617 64.5441 516.694 64.9422C517.533 65.2488 512.811 65.6751 512.118 65.6727ZM520.938 63.243C524.244 62.616 534.808 62.7714 523.58 63.9364L522.707 64.0067C521.106 64.1033 522.446 63.7495 522.33 63.7567C516.123 64.0888 517.825 64.4649 516.851 64.6453C514.812 65.0181 515.097 64.2714 511.644 64.9256C517.344 63.8939 512.159 64.6176 511.967 64.3748C511.285 63.3984 519.623 64.0857 522.503 63.5096C522.901 63.4365 519.92 63.4504 520.938 63.243ZM43.055 61.3592C40.8651 61.7707 38.4457 62.4148 38.2864 62.6541C38.2162 62.7139 38.4439 63.5462 38.4837 63.8836C38.5622 63.8473 38.6661 63.7981 38.807 63.7362C39.0006 63.65 39.2354 63.5496 39.595 63.3787C39.5365 63.3718 39.4916 63.3628 39.4632 63.3475C39.2925 63.2421 39.6931 62.9268 41.6312 62.2948C42.0312 62.0559 42.4975 61.7563 43.055 61.3592ZM139.348 44.2274C138.996 44.2427 138.743 44.304 138.59 44.411C138.437 44.5335 138.299 44.7482 138.176 45.0545C138.054 45.3608 138.054 45.6672 138.176 45.9735C138.299 46.2798 138.62 46.7397 139.141 47.3524C139.953 48.3786 140.29 50.4537 140.152 53.578C140.075 54.8184 139.892 55.8831 139.601 56.7713C139.325 57.6596 138.865 58.5787 138.222 59.5282C137.579 60.4775 137.219 61.1515 137.143 61.5496C137.066 61.9476 137.181 62.2919 137.487 62.5828C137.793 62.8585 138.146 62.943 138.544 62.8358C138.942 62.7284 139.332 62.4067 139.715 61.8709C140.113 61.3349 140.58 60.5462 141.117 59.5047C141.653 58.4633 142.028 57.5829 142.243 56.8631C142.595 55.6991 142.732 53.9528 142.656 51.6248C142.579 49.297 142.327 47.7194 141.898 46.8924C141.653 46.4177 141.216 45.8507 140.588 45.1922C139.961 44.5339 139.547 44.2122 139.348 44.2274ZM45.8079 60.9998C45.2928 61.4337 44.9691 61.6127 44.4925 62.0291C44.2303 62.225 43.9799 62.4034 43.7435 62.5682C44.3569 62.4679 44.9642 62.3513 45.5032 62.2235C45.6825 62.0804 45.8693 61.9285 46.0618 61.7655C46.3017 61.5622 46.5505 61.3399 46.8118 61.0994C46.6587 61.0672 46.4746 61.0381 46.2581 61.0125C46.1351 60.9974 45.9833 60.9958 45.8079 60.9998ZM528.829 60.994C531.176 60.887 525.8 61.6329 524.245 61.7069C524.139 61.5727 528.652 61.0083 528.829 60.994ZM104.039 44.2733C103.703 44.1203 103.373 44.1204 103.052 44.2733C102.608 44.4724 102.018 45.7363 101.283 48.0643C100.547 50.3922 100.088 52.3147 99.9046 53.8309C99.7209 55.3469 99.675 56.4341 99.7669 57.0926C99.8588 57.7511 100.088 58.4709 100.455 59.2518C101.405 61.1662 102.354 61.7788 103.304 61.0897C103.549 60.9059 103.679 60.6076 103.695 60.1942C103.71 59.7807 103.603 59.4438 103.373 59.1834C102.562 58.2492 102.201 56.8936 102.293 55.117C102.385 53.3405 102.952 50.9436 103.993 47.9266C104.545 46.3344 104.775 45.3694 104.683 45.0321C104.591 44.6798 104.376 44.4264 104.039 44.2733ZM83.9212 44.2274C82.206 44.1967 80.9348 44.2426 80.1077 44.3651C79.2808 44.4876 78.6681 44.7482 78.2698 45.1463C77.8716 45.5445 77.6111 46.2264 77.4886 47.1912C77.4274 47.5892 77.4203 47.8877 77.4661 48.0867C77.5121 48.2705 77.6568 48.4854 77.9017 48.7303C78.1772 48.9752 78.4686 49.0974 78.7747 49.0975C79.081 49.0975 79.3722 48.9294 79.6478 48.5926C79.9234 48.2557 80.0618 47.9187 80.0618 47.5819C80.0771 47.2298 80.1383 47.0231 80.2454 46.9617C80.3526 46.8852 80.5979 46.8465 80.9808 46.8465C81.3789 46.8465 81.8535 46.8312 82.4046 46.8006C82.956 46.77 83.3701 46.7547 83.6458 46.7547C83.9214 46.7394 84.2504 46.7628 84.6331 46.8241C84.648 46.9931 84.4415 47.5674 84.013 48.5467C83.5842 49.5268 83.3542 50.0938 83.3236 50.2469C83.2928 50.3999 83.1859 50.5151 83.0023 50.5916C82.8184 50.6529 82.3584 50.7364 81.6234 50.8436C80.8887 50.9508 80.3375 51.1117 79.97 51.326C79.6025 51.5251 79.4183 51.8396 79.4183 52.2684C79.4183 52.697 79.5253 53.0035 79.7396 53.1873C79.954 53.3711 80.3143 53.4933 80.8196 53.5545L81.8079 53.6698L80.8655 56.243C80.3602 57.5752 80.1077 58.4711 80.1077 58.9305C80.1077 59.39 80.3225 59.7268 80.7513 59.9412C81.1953 60.1861 81.5782 60.171 81.8997 59.8953C82.2213 59.6197 82.5502 59.0453 82.887 58.1727C82.933 58.0502 83.2169 57.2991 83.7376 55.9207C84.2583 54.5272 84.5952 53.7078 84.7484 53.4627C84.9168 53.2178 85.1316 53.0803 85.3919 53.0496C85.4229 53.0343 85.5299 53.0109 85.7132 52.9803C85.8971 52.9497 86.4335 52.8957 87.3216 52.8192C88.2096 52.7426 88.7686 52.6591 88.9984 52.5672C89.2434 52.4753 89.4429 52.3298 89.596 52.1307C89.8257 51.7938 89.8633 51.4415 89.7103 51.0741C89.5571 50.7065 89.3424 50.4765 89.0667 50.3846C88.791 50.2775 88.2399 50.2235 87.4134 50.2235H86.1038L86.678 48.9598C87.2598 47.6739 87.5968 46.8318 87.6888 46.4334C87.7807 46.0352 87.7268 45.6363 87.5277 45.2381C87.3286 44.8401 87.1066 44.5793 86.8616 44.4569C86.6161 44.3191 85.6359 44.2427 83.9212 44.2274ZM158.756 44.8709C158.388 44.8712 157.515 45.4838 156.137 46.7088C154.912 47.7501 154.154 48.4779 153.863 48.8914C153.572 49.3048 153.565 49.7264 153.84 50.1551C154.116 50.5837 154.422 50.7977 154.759 50.7977C155.096 50.7977 155.571 50.5684 156.183 50.1092C156.796 49.6497 157.133 49.4198 157.195 49.4198C157.255 49.4205 157.248 49.5813 157.171 49.9022C157.095 50.2243 157.056 52.0929 157.056 55.5076L155.104 55.7147C154.231 55.8065 153.672 55.8982 153.427 55.9901C153.182 56.0819 152.983 56.2501 152.829 56.4949C152.676 56.7706 152.6 56.9701 152.6 57.0926C152.6 57.2151 152.699 57.4146 152.898 57.6903L153.312 58.3104C153.603 58.2951 154.177 58.2717 155.034 58.241C155.892 58.2104 156.597 58.1799 157.149 58.1492C157.7 58.1186 158.305 58.1115 158.963 58.1268C159.622 58.1421 160.204 58.2032 160.709 58.3104C161.214 58.4175 161.574 58.4633 161.788 58.4481C162.003 58.4328 162.21 58.333 162.409 58.1492C162.915 57.6899 163.014 57.2307 162.707 56.7713C162.401 56.3119 161.804 55.9821 160.916 55.783C160.033 55.5851 159.581 55.4781 159.561 55.4617C159.5 55.4158 159.553 53.9378 159.721 51.0282C159.874 48.1182 159.997 46.5245 160.089 46.2489C160.181 45.9733 160.073 45.6748 159.767 45.3533C159.461 45.0318 159.124 44.8709 158.756 44.8709ZM231.378 44.8709C231.011 44.8709 230.138 45.4836 228.759 46.7088C227.534 47.7502 226.776 48.4779 226.485 48.8914C226.194 49.3049 226.187 49.7263 226.462 50.1551C226.738 50.5836 227.044 50.7977 227.381 50.7977C227.718 50.7975 228.193 50.5683 228.805 50.1092C229.417 49.6502 229.754 49.4202 229.816 49.4198C229.877 49.4198 229.87 49.5805 229.793 49.9022C229.717 50.2241 229.678 52.0926 229.678 55.5076L227.725 55.7147C226.852 55.8066 226.293 55.8982 226.048 55.9901C225.803 56.082 225.604 56.25 225.451 56.4949C225.297 56.7706 225.221 56.9701 225.221 57.0926C225.221 57.2151 225.321 57.4146 225.52 57.6903L225.934 58.3104C226.225 58.2951 226.799 58.2717 227.657 58.241C228.514 58.2104 229.219 58.1799 229.77 58.1492C230.321 58.1186 230.927 58.1115 231.585 58.1268C232.243 58.1421 232.825 58.2032 233.33 58.3104C233.836 58.4176 234.196 58.4634 234.41 58.4481C234.625 58.4328 234.832 58.333 235.031 58.1492C235.536 57.6898 235.636 57.2307 235.329 56.7713C235.023 56.3118 234.426 55.9821 233.537 55.783C232.649 55.584 232.197 55.4771 232.182 55.4617C232.121 55.4151 232.175 53.9371 232.343 51.0282C232.496 48.1182 232.618 46.5245 232.71 46.2489C232.802 45.9733 232.695 45.6749 232.389 45.3533C232.083 45.0318 231.746 44.871 231.378 44.8709ZM243.022 44.8709C242.654 44.8709 241.781 45.4836 240.403 46.7088C239.178 47.7502 238.419 48.4779 238.128 48.8914C237.837 49.3049 237.83 49.7264 238.106 50.1551C238.381 50.5837 238.688 50.7977 239.025 50.7977C239.362 50.7976 239.836 50.5684 240.449 50.1092C241.06 49.6506 241.397 49.4206 241.459 49.4198C241.521 49.4198 241.513 49.5805 241.437 49.9022C241.36 50.2242 241.322 52.0927 241.322 55.5076L239.369 55.7147C238.496 55.8066 237.937 55.8982 237.692 55.9901C237.447 56.0819 237.248 56.2502 237.095 56.4949C236.942 56.7706 236.865 56.9701 236.865 57.0926C236.865 57.2151 236.964 57.4146 237.163 57.6903L237.577 58.3104C237.869 58.2951 238.443 58.2717 239.3 58.241C240.158 58.2104 240.862 58.1799 241.413 58.1492C241.965 58.1186 242.57 58.1115 243.229 58.1268C243.887 58.1421 244.47 58.2032 244.975 58.3104C245.48 58.4175 245.84 58.4633 246.054 58.4481C246.268 58.4328 246.475 58.3329 246.674 58.1492C247.18 57.6898 247.279 57.2308 246.973 56.7713C246.667 56.3118 246.069 55.9821 245.181 55.783C244.293 55.584 243.841 55.4771 243.826 55.4617C243.764 55.4137 243.818 53.9357 243.987 51.0282C244.14 48.1182 244.262 46.5245 244.354 46.2489C244.446 45.9732 244.339 45.6749 244.033 45.3533C243.726 45.0317 243.389 44.8709 243.022 44.8709ZM112.455 45.2157C111.613 44.7103 110.778 44.5342 109.951 44.6873C109.124 44.8405 108.412 45.1387 107.815 45.5828C107.218 46.0269 106.75 46.54 106.413 47.1219C106.199 47.5201 106.092 48.0951 106.092 48.8455C106.092 49.5957 106.199 50.2312 106.413 50.7518C106.628 51.2725 106.988 51.763 107.493 52.2225C107.999 52.6819 108.489 52.9496 108.964 53.0262C109.194 53.1026 109.661 53.0803 110.366 52.9578C111.07 52.8354 111.483 52.7814 111.606 52.7967C111.667 52.8586 111.606 53.5019 111.422 54.7264C111.208 55.9516 111.177 56.8095 111.33 57.2996C111.484 57.7894 111.889 58.0349 112.547 58.035C112.93 58.0503 113.214 57.9046 113.398 57.5985C113.582 57.2922 113.734 56.7252 113.857 55.8983C113.949 55.0713 114.179 53.7847 114.546 52.0389C114.914 50.2931 115.083 49.1287 115.052 48.5467C115.021 47.9648 114.791 47.5974 114.363 47.4442C114.041 47.3523 113.88 47.1294 113.88 46.7772C113.88 46.4251 113.796 46.1572 113.627 45.9735C113.459 45.7897 113.068 45.5372 112.455 45.2157ZM122.798 45.2157C121.956 44.7103 121.121 44.5342 120.294 44.6873C119.467 44.8405 118.755 45.1387 118.158 45.5828C117.56 46.0269 117.093 46.54 116.756 47.1219C116.542 47.5201 116.435 48.0951 116.435 48.8455C116.435 49.5958 116.542 50.2312 116.756 50.7518C116.971 51.2725 117.331 51.763 117.836 52.2225C118.341 52.6817 118.831 52.9496 119.306 53.0262C119.536 53.1028 120.003 53.0803 120.707 52.9578C121.412 52.8353 121.826 52.7814 121.949 52.7967C122.009 52.8595 121.948 53.5028 121.764 54.7264C121.55 55.9516 121.519 56.8095 121.672 57.2996C121.825 57.7896 122.231 58.035 122.89 58.035C123.273 58.0503 123.556 57.9044 123.74 57.5985C123.923 57.2922 124.077 56.7252 124.2 55.8983C124.291 55.0713 124.521 53.7847 124.889 52.0389C125.257 50.293 125.424 49.1287 125.394 48.5467C125.363 47.965 125.134 47.5974 124.705 47.4442C124.384 47.3523 124.222 47.1294 124.222 46.7772C124.222 46.4252 124.138 46.1572 123.97 45.9735C123.802 45.7897 123.411 45.5372 122.798 45.2157ZM133.141 45.2157C132.299 44.7102 131.463 44.5342 130.636 44.6873C129.809 44.8405 129.097 45.1389 128.5 45.5828C127.903 46.0269 127.436 46.5401 127.099 47.1219C126.885 47.5201 126.777 48.0951 126.777 48.8455C126.777 49.5958 126.885 50.2311 127.099 50.7518C127.313 51.2725 127.673 51.763 128.178 52.2225C128.683 52.682 129.174 52.9496 129.649 53.0262C129.878 53.1028 130.346 53.0804 131.05 52.9578C131.754 52.8354 132.168 52.7815 132.29 52.7967C132.352 52.858 132.291 53.5012 132.107 54.7264C131.892 55.9516 131.862 56.8095 132.015 57.2996C132.168 57.7896 132.574 58.035 133.233 58.035C133.615 58.0502 133.899 57.9045 134.082 57.5985C134.266 57.2922 134.42 56.7252 134.542 55.8983C134.634 55.0713 134.863 53.7846 135.231 52.0389C135.598 50.2931 135.767 49.1287 135.737 48.5467C135.706 47.9647 135.476 47.5973 135.047 47.4442C134.726 47.3523 134.565 47.1294 134.565 46.7772C134.565 46.4251 134.48 46.1572 134.312 45.9735C134.143 45.7897 133.753 45.537 133.141 45.2157ZM202.052 44.4569C201.348 44.1506 200.367 44.1587 199.111 44.4803C197.855 44.8325 196.844 45.4373 196.078 46.2948C195.313 47.1524 195.006 48.0032 195.159 48.8455C195.175 49.0292 195.236 49.2208 195.343 49.4198C195.558 49.8333 196.102 50.4459 196.975 51.2576L196.515 51.8778C196.163 52.3219 195.995 53.0343 196.01 54.0145C196.025 54.9945 196.217 55.7448 196.584 56.2655C197.35 57.3681 198.276 57.935 199.364 57.9657C200.451 57.9963 201.622 57.5138 202.878 56.5184C204.134 55.4922 204.794 54.5041 204.855 53.5545C204.916 52.6051 204.38 51.7164 203.246 50.8895L202.419 50.2928L203.063 49.6727C203.492 49.2593 203.751 48.8224 203.843 48.3631C203.935 47.9037 203.859 47.2909 203.614 46.5252C203.277 45.4533 202.756 44.7632 202.052 44.4569ZM213.179 44.4569C212.475 44.1507 211.494 44.1587 210.239 44.4803C208.983 44.8325 207.972 45.4373 207.206 46.2948C206.441 47.1524 206.134 48.0032 206.287 48.8455C206.303 49.0292 206.364 49.2208 206.471 49.4198C206.685 49.8333 207.229 50.446 208.102 51.2576L207.643 51.8778C207.291 52.3219 207.122 53.0343 207.137 54.0145C207.152 54.9944 207.344 55.7448 207.711 56.2655C208.477 57.3682 209.404 57.935 210.492 57.9657C211.579 57.9962 212.75 57.5138 214.006 56.5184C215.262 55.4922 215.92 54.5041 215.982 53.5545C216.043 52.6051 215.508 51.7164 214.374 50.8895L213.547 50.2928L214.19 49.6727C214.618 49.2593 214.879 48.8224 214.971 48.3631C215.063 47.9037 214.987 47.2909 214.742 46.5252C214.405 45.4531 213.884 44.7632 213.179 44.4569ZM173.111 44.4569C172.788 44.1356 171.31 44.1669 168.677 44.5496C167.942 44.6721 167.383 44.7638 167 44.825C166.617 44.8863 166.242 44.9932 165.874 45.1463C165.507 45.2995 165.246 45.4379 165.093 45.5604C164.94 45.6829 164.802 45.9123 164.68 46.2489C164.557 46.5858 164.48 46.9155 164.45 47.2371C164.419 47.5587 164.373 48.133 164.312 48.9598C164.251 49.7868 164.235 50.316 164.266 50.5457C164.297 50.7753 164.42 50.9975 164.634 51.2117C164.848 51.426 165.109 51.5483 165.415 51.5789C165.722 51.6095 166.396 51.6177 167.437 51.6024C168.478 51.5718 169.289 51.6481 169.871 51.8319C170.469 52.0156 170.875 52.3372 171.089 52.7967C171.212 53.0264 171.235 53.2178 171.159 53.3709C171.067 53.5241 170.775 53.8152 170.285 54.244C169.795 54.6728 169.359 54.9333 168.976 55.0252C168.593 55.1477 168.041 55.1325 167.322 54.9793C166.602 54.8262 166.074 54.8262 165.737 54.9793C165.4 55.1325 165.208 55.4235 165.162 55.8524C165.101 56.2811 165.201 56.6334 165.461 56.909C165.722 57.1846 166.319 57.4147 167.253 57.5985C168.187 57.7821 168.96 57.782 169.573 57.5985C170.201 57.3994 171.021 56.8936 172.032 56.0819C173.042 55.2702 173.608 54.6035 173.731 54.0828C173.96 53.1794 173.831 52.3141 173.341 51.4871C172.851 50.6601 172.061 50.0016 170.974 49.5116C170.392 49.2053 169.933 49.021 169.596 48.9598C169.259 48.8985 168.807 48.8914 168.241 48.9373L166.909 49.0057C166.909 48.0717 166.97 47.5585 167.092 47.4666C167.261 47.4053 168.188 47.2597 169.871 47.0301C171.556 46.8004 172.483 46.6324 172.652 46.5252C172.943 46.4027 173.134 46.2796 173.226 46.1571C173.318 46.0344 173.364 45.7666 173.364 45.3533C173.364 44.9245 173.279 44.6253 173.111 44.4569ZM176.524 44.0203C176.34 44.0204 176.072 44.1355 175.72 44.3651L175.192 44.7098L175.375 50.3846L175.559 52.6356C175.59 52.85 175.651 53.0953 175.743 53.3709C175.834 53.6466 175.912 53.8379 175.973 53.9451C176.034 54.0523 176.141 54.1674 176.294 54.2899C176.447 54.4123 176.6 54.4887 176.753 54.5194C176.891 54.55 177.091 54.5805 177.351 54.6112C177.611 54.6418 177.848 54.657 178.063 54.6571L181.05 54.4276V55.6688C181.065 56.3271 181.164 56.8098 181.348 57.116C181.532 57.4375 181.838 57.5984 182.267 57.5985C182.696 57.5985 183.017 57.46 183.232 57.1844C183.446 56.9088 183.569 56.5798 183.6 56.1971L183.692 54.4969C183.722 54.3284 183.944 54.244 184.358 54.244C185.123 54.2133 185.614 53.8612 185.828 53.1873C185.936 52.8657 185.813 52.5136 185.46 52.1307C185.108 51.7479 184.733 51.5566 184.335 51.5565C184.151 51.5565 184.013 51.4944 183.921 51.3719C183.829 51.2634 183.745 50.3829 183.668 48.7303C183.592 47.0764 183.461 46.0199 183.278 45.5604C183.094 45.1009 182.772 44.8709 182.313 44.8709C181.854 44.871 181.54 44.9627 181.371 45.1463C181.218 45.3301 181.119 45.6598 181.073 46.1346C181.027 46.6095 181.019 47.6436 181.05 49.2362C181.096 50.8279 181.011 51.6852 180.797 51.8084C180.583 51.9309 179.648 52.0001 177.994 52.0155L177.879 48.3631C177.803 46.7244 177.733 45.6975 177.672 45.284C177.611 44.8707 177.45 44.557 177.19 44.3426C176.929 44.1283 176.708 44.0203 176.524 44.0203ZM70.2279 46.203C70.0748 46.2183 69.9372 46.2417 69.8148 46.2723C69.6922 46.3182 69.5997 46.3874 69.5384 46.4793C69.4772 46.571 69.416 46.6476 69.3548 46.7088C69.3242 46.7701 69.2936 46.8852 69.263 47.0535C69.2324 47.2219 69.2171 47.3523 69.2171 47.4442C69.1865 47.5361 69.1631 47.7044 69.1478 47.9491V49.994H68.0228C67.1346 49.9787 66.5219 50.2159 66.1849 50.7059C65.8479 51.196 65.9477 51.7018 66.4837 52.2225C66.7901 52.5286 67.3337 52.6815 68.1146 52.6815H69.3323L69.4241 54.1522C69.4854 55.1319 69.6536 55.7214 69.929 55.9207C70.4498 56.3036 70.9789 56.3036 71.515 55.9207C71.6985 55.7829 71.8128 55.6067 71.8587 55.3924C71.9046 55.178 71.9128 54.7799 71.8821 54.1981L71.8363 52.7967L73.513 52.8426C74.4166 52.8886 75.0679 52.8194 75.4661 52.6356C75.8642 52.4518 76.0628 52.1148 76.0628 51.6248C76.0628 51.1349 75.8948 50.7979 75.5579 50.6141C75.221 50.4303 74.5624 50.3 73.5823 50.2235L71.721 50.1092L71.6068 48.3631C71.5455 47.4136 71.4376 46.8162 71.2845 46.5711C71.1313 46.3261 70.7792 46.203 70.2279 46.203ZM200.167 52.2684C200.443 52.2837 200.819 52.4365 201.293 52.7274C201.768 53.0337 202.052 53.2484 202.144 53.3709C202.236 53.4934 202.205 53.6472 202.052 53.8309C201.899 54.0147 201.539 54.3129 200.972 54.7264C199.915 55.4769 199.164 55.5074 198.72 54.8182C198.49 54.4813 198.422 54.1137 198.514 53.7157C198.606 53.3175 198.835 52.9724 199.202 52.6815C199.57 52.3906 199.892 52.2532 200.167 52.2684ZM211.295 52.2684C211.571 52.2837 211.946 52.4364 212.421 52.7274C212.896 53.0335 213.179 53.2484 213.271 53.3709C213.363 53.4934 213.332 53.6471 213.179 53.8309C213.026 54.0147 212.666 54.3133 212.1 54.7264C211.043 55.4769 210.292 55.5074 209.848 54.8182C209.618 54.4813 209.549 54.1137 209.641 53.7157C209.733 53.3174 209.963 52.9725 210.33 52.6815C210.698 52.3906 211.02 52.2532 211.295 52.2684ZM538.887 45.4451C538.721 45.4777 538.506 45.5118 538.252 45.5448C537.367 45.6576 536.267 45.7101 536.096 45.7498C535.286 45.9332 537.618 45.8995 537.526 46.0428C537.526 46.0786 537.16 46.1876 536.821 46.3035C537.144 46.3808 537.477 46.46 537.817 46.5438C538.003 46.5094 538.209 46.4672 538.414 46.4217C538.663 46.3678 538.9 46.3125 539.133 46.2557C539.391 46.1939 539.634 46.1268 539.739 46.0994C539.772 46.0997 539.812 46.0584 539.501 46.2567C539.396 46.3452 539.282 46.3924 539.092 46.575C538.905 46.6268 538.708 46.678 538.519 46.7244C538.635 46.7551 538.751 46.7858 538.868 46.8182C538.797 46.9042 538.718 47.0081 538.628 47.1317C538.716 47.1255 538.801 47.1159 538.882 47.1092C538.953 47.0215 539.02 46.9445 539.083 46.8787C539.267 46.9312 539.452 46.9877 539.639 47.0457C539.775 47.0342 539.864 47.028 539.889 47.0379C539.916 47.0492 539.899 47.0749 539.848 47.1121C540.355 47.2752 540.872 47.4596 541.393 47.6795C541.607 47.7759 541.818 47.879 542.048 48.0233C542.263 48.1871 542.573 48.2885 542.842 48.9198C542.99 49.2743 542.855 49.7991 542.691 49.9989C542.501 50.2603 542.373 50.3355 542.234 50.4334C542.084 50.5306 541.97 50.5841 541.863 50.6336C541.754 50.6832 541.63 50.7336 541.519 50.7733C540.666 51.0626 540.018 51.1659 539.313 51.2996C539.131 51.3323 538.951 51.363 538.777 51.3934C538.771 51.3856 538.765 51.378 538.759 51.3699C538.943 51.3386 539.126 51.307 539.308 51.2723C539.634 51.2097 539.926 51.146 540.201 51.078C540.542 50.9942 540.77 50.9298 541.108 50.8182C541.269 50.7635 541.395 50.7166 541.555 50.6492C541.734 50.5729 541.865 50.5093 542.039 50.4032C542.234 50.2698 542.401 50.1923 542.62 49.825C542.707 49.6765 542.783 49.3762 542.728 49.1356C542.673 48.8844 542.583 48.759 542.481 48.6297C542.113 48.2306 541.822 48.1415 541.537 48.0086C541.263 47.8941 540.995 47.8072 540.731 47.7283C540.511 47.6639 540.297 47.6073 540.087 47.5555C540.073 47.5675 540.058 47.5798 540.042 47.5936C539.984 47.6553 539.87 47.7567 539.748 47.9168C539.781 47.9266 539.814 47.9361 539.846 47.9461C539.813 47.9569 539.779 47.9677 539.744 47.9793C539.727 47.9845 539.711 47.9899 539.695 47.9949C539.678 48.0197 539.661 48.046 539.644 48.0731C539.808 48.121 539.966 48.1698 540.116 48.2176C540.153 48.1623 540.19 48.1108 540.227 48.0662C540.382 48.1173 540.538 48.1701 540.693 48.2254C541.078 48.3731 541.512 48.5389 541.869 48.8172C542.014 48.9174 542.283 49.2493 542.113 49.5321C542.048 49.6542 541.945 49.7398 541.866 49.7977C541.779 49.8613 541.668 49.9225 541.594 49.9588C540.887 50.2869 540.181 50.4225 539.733 50.5496C539.549 50.5961 540.398 50.9211 539.278 51.1073C539.126 51.1302 538.901 51.1508 538.621 51.1619C538.558 51.0567 538.494 50.9383 538.434 50.8035C538.651 50.7447 538.905 50.678 539.186 50.6073C539.892 50.4185 540.715 50.2456 541.54 49.8377C541.726 49.7322 541.976 49.5905 542.01 49.3533C542.019 49.2251 541.958 49.1321 541.867 49.0379C541.86 49.031 541.851 49.0256 541.843 49.0184C542.355 49.5161 541.673 49.9996 539.159 50.4627C538.903 50.5097 538.634 50.5534 538.351 50.5994C538.378 50.6714 538.405 50.7394 538.434 50.8035C538.377 50.819 538.322 50.8329 538.27 50.8475C538.239 50.7798 538.209 50.7067 538.18 50.6287C537.445 50.7458 536.621 50.8592 535.716 50.9705C534.993 51.1781 534.481 51.4315 534.141 51.8153C535.586 51.7785 537.103 51.6444 538.586 51.4002C538.592 51.4087 538.599 51.4164 538.605 51.4246C538.218 51.4918 537.861 51.5536 537.566 51.6102C537.939 51.6028 538.329 51.5874 538.71 51.5701C538.788 51.6738 538.858 51.7556 538.921 51.8221C538.103 51.9711 537.251 52.102 536.456 52.2137C537.698 52.0951 538.538 51.9897 539.032 51.9295C539.081 51.9735 539.124 52.0089 539.163 52.0379C538.175 52.3073 535.896 52.7827 535.041 53.284C534.676 53.5096 539.297 52.6047 534.03 53.7694C537.665 53.4094 536.912 53.6672 539.631 53.0272C539.875 52.9673 540.132 52.8999 540.397 52.8231C540.389 52.8783 540.143 52.9934 539.653 53.1453C537.541 53.8677 531.681 54.8156 529.1 55.1912C538.253 54.4845 535.56 54.0575 539.704 53.4256C540.232 53.3254 540.791 53.2282 541.571 53.0242C542.035 52.8825 542.422 52.8269 543.3 52.3348C543.428 52.2573 543.564 52.1674 543.706 52.0574C543.855 51.9388 543.975 51.8506 544.224 51.576C544.444 51.3268 544.676 50.9973 544.85 50.5682C545.035 50.1388 545.155 49.4246 545.062 48.8416C544.864 47.6442 544.318 47.1246 544.02 46.8016C543.739 46.5178 543.415 46.2927 543.241 46.1795C542.811 45.9757 542.598 45.9339 542.53 45.9364C542.452 45.9379 542.484 45.9808 542.592 46.0574C542.723 46.147 542.943 46.271 543.262 46.4989C543.463 46.6443 543.687 46.8138 543.967 47.119C544.299 47.5269 544.851 48.097 544.835 49.4725C544.722 50.8333 544.053 51.4061 543.712 51.7323C543.403 52.0054 543.053 52.2044 542.872 52.2967C542.482 52.4974 542.132 52.6182 541.922 52.6883C541.43 52.8479 541.206 52.8926 541.303 52.8514C541.456 52.779 541.769 52.6668 542.041 52.5516C542.164 52.4994 542.381 52.4111 542.584 52.3104C542.688 52.2594 542.794 52.202 542.907 52.1375C543.051 52.0551 543.225 51.9476 543.402 51.8123C543.624 51.5877 544.563 51.0872 544.684 49.3807C544.609 47.6362 543.73 47.1647 543.468 46.8905C542.718 46.3251 542.337 46.2249 541.855 46.0321C540.963 45.7243 540.076 45.5174 539.151 45.3836C539.079 45.4034 538.99 45.4246 538.887 45.4451ZM533.505 42.7459C533.166 42.8314 532.915 42.9086 532.906 42.9637C532.893 43.2523 537.178 43.3651 536.232 43.5272C535.83 43.6125 535.164 43.6541 534.427 43.6756C534.886 43.7611 535.386 43.8559 535.931 43.9598C536.08 43.9406 536.255 43.9233 536.46 43.91C538.363 43.7452 537.15 44.1096 536.366 44.3231C536.498 44.347 536.632 44.3704 536.764 44.3944C537.155 44.3596 537.614 44.3177 538.02 44.2752C538.711 44.2032 539.048 44.1638 539.07 44.2235C539.076 44.2331 539.081 44.2552 538.954 44.3172C538.818 44.3814 538.544 44.4827 538.081 44.6082C538.061 44.6141 538.038 44.6199 538.017 44.6258C538.408 44.6984 538.783 44.7666 539.125 44.8328C540.265 45.0905 540.448 44.8458 542.409 45.5076C542.551 45.5625 542.682 45.6162 542.84 45.6893C543.016 45.7716 543.197 45.8643 543.389 45.9793C543.562 46.0816 543.878 46.2919 544.165 46.5614C544.428 46.818 545.015 47.3739 545.292 48.4666C545.443 49.0628 545.425 49.791 545.236 50.3944C545.071 50.9299 544.834 51.3174 544.59 51.6307C544.469 51.7853 544.347 51.9184 544.228 52.034C544.138 52.1212 544.06 52.1902 543.979 52.2576C543.818 52.391 543.665 52.5002 543.52 52.5936C543.192 52.7986 543.06 52.8576 542.86 52.9539C542.683 53.0373 542.459 53.1271 542.343 53.1707C541.164 53.5921 540.484 53.6938 539.782 53.8426C539.49 53.9008 539.224 53.9532 539.009 53.9998C538.544 54.0995 539.349 54.0431 539.817 54.034C540.225 54.0158 540.461 54.0323 539.847 54.2C539.298 54.3524 537.894 54.6475 535.143 54.9696C536.461 54.9284 538.081 54.7589 539.886 54.4129C540.207 54.351 540.513 54.2855 540.807 54.2157C541.133 54.1386 541.485 54.0469 541.828 53.9412C542.259 53.8049 542.585 53.7063 543.213 53.4061C543.456 53.2834 543.919 53.0505 544.425 52.6102C544.899 52.2124 546.306 50.7638 545.867 48.4764C545.399 46.6397 544.549 46.1881 544.211 45.8631C543.742 45.5054 543.524 45.4023 543.239 45.2508C542.736 44.9979 542.339 44.8546 542 44.7371C541.282 44.4937 540.703 44.3465 540.099 44.1971C537.789 43.6477 535.805 43.3065 534.253 42.9217C533.981 42.8594 533.732 42.8007 533.505 42.7459ZM191.397 51.2117C190.447 51.1505 189.635 51.1658 188.961 51.2576C188.288 51.3802 187.835 51.5329 187.606 51.7166C187.376 51.9004 187.261 52.2069 187.261 52.6356C187.261 53.0644 187.491 53.3636 187.951 53.5321C188.441 53.7005 189.299 53.784 190.524 53.784C191.749 53.784 192.592 53.7005 193.051 53.5321C193.51 53.3636 193.739 53.0417 193.74 52.5672C193.74 52.0925 193.587 51.7627 193.281 51.5789C192.974 51.3952 192.346 51.273 191.397 51.2117ZM221.504 51.2117C220.555 51.1505 219.743 51.1658 219.069 51.2576C218.395 51.3802 217.943 51.5329 217.713 51.7166C217.484 51.9004 217.369 52.207 217.369 52.6356C217.369 53.0644 217.599 53.3636 218.058 53.5321C218.548 53.7005 219.406 53.784 220.631 53.784C221.856 53.784 222.699 53.7005 223.159 53.5321C223.618 53.3636 223.848 53.0418 223.848 52.5672C223.848 52.0924 223.694 51.7627 223.388 51.5789C223.082 51.3952 222.454 51.273 221.504 51.2117ZM540.092 44.6805C539.097 44.3622 539.692 44.4263 540.807 44.6971C541.401 44.8541 542.039 45.0149 542.938 45.4364C543.455 45.7678 543.918 45.6877 545.052 47.2625C545.182 47.4775 545.306 47.7262 545.405 48.0047C545.51 48.2958 545.603 48.6998 545.623 49.0819C545.683 49.858 545.429 50.6675 545.214 51.0711C544.98 51.5344 544.712 51.8572 544.478 52.0975C544.245 52.3302 544.14 52.4075 543.994 52.5194C543.934 52.5387 544.05 52.4485 544.334 52.159C544.535 51.9505 544.815 51.6514 545.095 51.1151C545.349 50.6741 545.689 49.5348 545.439 48.534C545.211 47.5626 544.78 47.0357 544.403 46.6346C544.11 46.3373 543.824 46.1276 543.563 45.9617C543.147 45.7025 542.751 45.5302 542.449 45.41C541.191 44.9307 540.285 44.7511 540.092 44.6805ZM539.331 51.9891C539.533 52.1485 539.569 52.1593 539.591 52.1766C539.616 52.1922 539.468 52.128 539.303 52.0731C539.446 52.1581 539.572 52.2454 539.551 52.2625C539.533 52.2647 539.501 52.2682 539.341 52.1668C539.292 52.1257 539.234 52.0897 539.163 52.0379C539.225 52.0212 539.281 52.0042 539.331 51.9891ZM539.421 51.8846C539.755 51.8474 539.712 51.878 539.435 51.9598C539.404 51.97 539.369 51.978 539.331 51.9891C539.329 51.9869 539.324 51.9854 539.322 51.9832C539.291 51.957 539.264 51.9318 539.235 51.9061C539.309 51.8974 539.371 51.8892 539.421 51.8846ZM539.235 51.9061C539.175 51.913 539.107 51.9203 539.032 51.9295C538.997 51.8988 538.961 51.8637 538.921 51.8221C538.983 51.8108 539.046 51.7985 539.108 51.7869C539.157 51.8374 539.197 51.8736 539.235 51.9061ZM540.981 51.3631C540.455 51.5145 539.949 51.6256 539.393 51.7342C539.299 51.7526 539.203 51.7691 539.108 51.7869C539.054 51.7326 538.988 51.6629 538.903 51.5623L538.902 51.5604C539.056 51.5528 539.208 51.5464 539.357 51.5379C539.922 51.4958 540.438 51.4509 540.981 51.3631ZM538.902 51.5604C538.838 51.5635 538.774 51.5672 538.71 51.5701C538.677 51.5257 538.641 51.4774 538.605 51.4246C538.661 51.4148 538.719 51.4035 538.777 51.3934C538.82 51.4529 538.861 51.5097 538.902 51.5604ZM538.759 51.3699C538.702 51.3797 538.644 51.3908 538.586 51.4002C538.539 51.3306 538.491 51.2522 538.438 51.1668C538.501 51.1655 538.563 51.1643 538.621 51.1619C538.667 51.2378 538.714 51.3065 538.759 51.3699ZM538.394 51.1014C538.408 51.1242 538.424 51.1451 538.438 51.1668C538.259 51.1705 538.061 51.1712 537.85 51.1639C537.365 51.1467 537.604 51.0339 538.27 50.8475C538.313 50.943 538.353 51.0296 538.394 51.1014ZM110.457 47.2596C110.641 47.2597 110.878 47.3217 111.169 47.4442C111.46 47.5666 111.743 47.6889 112.019 47.8114C112.294 47.9337 112.448 48.0255 112.479 48.0867C112.509 48.148 112.509 48.2253 112.479 48.3172C112.418 48.4091 112.325 48.5313 112.202 48.6844C112.08 48.8375 111.888 49.0443 111.628 49.3045C110.909 50.0242 110.289 50.3998 109.768 50.4305C109.247 50.4611 108.887 50.1395 108.688 49.4657C108.55 49.0369 108.573 48.6388 108.757 48.2713C108.941 47.9038 109.224 47.6432 109.607 47.4901C109.99 47.3369 110.274 47.2596 110.457 47.2596ZM120.799 47.2596C120.983 47.2596 121.221 47.3216 121.512 47.4442C121.803 47.5666 122.086 47.6889 122.362 47.8114C122.637 47.9336 122.789 48.0255 122.821 48.0867C122.851 48.148 122.851 48.2253 122.821 48.3172C122.759 48.4091 122.668 48.5315 122.545 48.6844C122.423 48.8375 122.231 49.0442 121.971 49.3045C121.251 50.0242 120.631 50.3997 120.111 50.4305C119.59 50.4611 119.23 50.1394 119.031 49.4657C118.893 49.037 118.915 48.6387 119.099 48.2713C119.283 47.9037 119.567 47.6432 119.95 47.4901C120.332 47.337 120.615 47.2597 120.799 47.2596ZM131.142 47.2596C131.326 47.2596 131.563 47.3217 131.854 47.4442C132.145 47.5667 132.429 47.6888 132.704 47.8114C132.979 47.9336 133.132 48.0255 133.163 48.0867C133.194 48.148 133.194 48.2253 133.163 48.3172C133.102 48.4091 133.01 48.5315 132.888 48.6844C132.766 48.8375 132.574 49.0442 132.314 49.3045C131.594 50.0244 130.973 50.3999 130.452 50.4305C129.932 50.461 129.572 50.1393 129.373 49.4657C129.236 49.037 129.258 48.6388 129.442 48.2713C129.626 47.9037 129.909 47.6432 130.292 47.4901C130.675 47.337 130.958 47.2596 131.142 47.2596ZM198.813 47.3289C199.869 46.7931 200.604 46.7319 201.018 47.1453C201.247 47.375 201.317 47.597 201.225 47.8114C201.133 48.0257 200.857 48.3016 200.398 48.6385C199.938 48.9753 199.632 49.1595 199.479 49.1903C199.326 49.2209 199.019 49.1363 198.56 48.9373C198.1 48.7382 197.825 48.5998 197.733 48.5233C197.641 48.4467 197.71 48.2787 197.94 48.0184C198.154 47.7581 198.445 47.528 198.813 47.3289ZM209.94 47.3289C210.997 46.7929 211.732 46.7318 212.146 47.1453C212.375 47.375 212.444 47.597 212.352 47.8114C212.26 48.0257 211.985 48.3017 211.526 48.6385C211.067 48.9752 210.76 49.1594 210.607 49.1903C210.454 49.2209 210.147 49.1363 209.688 48.9373C209.228 48.7383 208.953 48.5999 208.861 48.5233C208.769 48.4467 208.837 48.2786 209.067 48.0184C209.281 47.7581 209.572 47.528 209.94 47.3289ZM540.476 47.7606C540.52 47.7554 540.527 47.7597 540.454 47.825C540.42 47.857 540.372 47.9022 540.318 47.9608C540.29 47.9899 540.26 48.0264 540.227 48.0662C540.1 48.0245 539.973 47.9851 539.846 47.9461C540.153 47.8453 540.385 47.7786 540.476 47.7606ZM538.662 47.616C538.76 47.6405 538.859 47.666 538.958 47.6922C539.105 47.6734 539.288 47.6452 539.507 47.6024C539.642 47.5751 539.774 47.5448 539.906 47.5116C539.697 47.4624 539.492 47.4168 539.288 47.3739C539.061 47.4626 538.831 47.5485 538.662 47.616ZM538.512 47.2908C538.463 47.3685 538.416 47.453 538.368 47.5428C538.432 47.5579 538.496 47.5748 538.56 47.5907C538.625 47.4722 538.694 47.366 538.762 47.2703C538.692 47.2571 538.623 47.244 538.555 47.2313C538.541 47.2507 538.526 47.2705 538.512 47.2908ZM537.409 47.033C537.106 47.1671 537.545 47.1818 538.146 47.158L537.942 47.1219C537.758 47.0899 537.58 47.0612 537.409 47.033ZM539.739 46.3739C539.63 46.4378 539.462 46.5038 539.086 46.8758C539.085 46.8768 539.084 46.8778 539.083 46.8787C539.011 46.8582 538.94 46.8379 538.868 46.8182C538.954 46.7163 539.027 46.6376 539.092 46.575C539.108 46.5706 539.126 46.5678 539.142 46.5633C539.373 46.5006 539.579 46.4343 539.739 46.3739ZM539.795 46.3543C539.778 46.3614 539.758 46.3667 539.739 46.3739C539.74 46.3732 539.741 46.3725 539.743 46.3719C539.902 46.2943 539.856 46.3307 539.795 46.3543ZM532.615 45.8641C532.069 46.0032 531.753 46.1115 531.849 46.1776C532.363 46.1271 532.882 46.0732 533.398 46.0184C533.073 45.9559 532.782 45.8982 532.615 45.8641ZM536.461 45.1854C535.847 45.1854 538.171 45.9979 534.855 45.3563C534.375 45.4591 533.911 45.5613 533.496 45.6541C533.851 45.7039 534.277 45.7734 534.754 45.8651C535.97 45.7218 537.149 45.5631 538.221 45.3719C538.335 45.3522 538.448 45.3286 538.557 45.3065C537.887 45.2333 537.193 45.1964 536.461 45.1854ZM532.965 44.8367C532.641 44.9241 532.193 45.0162 532.386 45.0184C532.824 45.0211 533.192 45.0124 533.5 45.0008C533.325 44.9476 533.143 44.8922 532.965 44.8367ZM530.559 43.6756C527.876 44.0124 530.301 44.3338 532.059 44.5467C531.878 44.4866 531.769 44.4482 531.778 44.4451C532.14 44.2615 534.517 44.7831 534.643 44.7049C534.75 44.6224 532.072 44.1984 532.062 44.1717C532.035 43.856 534.317 44.4554 533.999 44.3016C533.805 44.2047 532.912 43.9484 532.008 43.6873C531.24 43.6784 530.658 43.6673 530.559 43.6756ZM532.902 43.6961C533.564 43.8175 534.396 43.9687 535.274 44.1258C535.386 44.066 535.566 44.0132 535.854 43.9715C535.065 43.86 534.397 43.7667 533.839 43.6903C533.526 43.6947 533.209 43.6967 532.902 43.6961ZM523.999 39.2391C523.801 39.1659 524.446 38.6518 526.076 39.0272C531.418 40.2302 527.051 39.7996 539.272 41.2703C533.971 40.7459 538.896 41.5204 537.844 41.5125C536.992 41.4926 534.09 40.8936 535.74 41.4578C533.479 40.7582 524.155 39.4195 523.99 39.2371C523.993 39.2378 523.996 39.2384 523.999 39.2391ZM530.443 39.617C530.649 39.4391 538.699 40.7631 540.527 41.2547C539.312 41.0865 530.128 39.8069 530.443 39.617ZM516.272 39.2401C516.202 39.2522 517.462 39.6171 518.416 39.9071C519.172 39.9067 519.982 39.9124 520.81 39.9364C519.168 39.6763 516.391 39.1834 516.272 39.2401ZM173.02 23.1326C172.56 22.9335 172.116 22.9651 171.687 23.2254C171.442 23.3787 171.312 23.7463 171.296 24.328C171.266 24.9099 171.358 25.8975 171.573 27.2908C171.787 28.6846 171.933 30.2854 172.009 32.0926C172.086 33.8994 172.169 35.071 172.261 35.6073C172.353 36.1585 172.483 36.5341 172.652 36.7332C172.82 36.9476 173.104 37.0545 173.502 37.0545C173.9 37.0544 174.199 36.9089 174.398 36.618C174.612 36.327 174.712 35.8597 174.697 35.2166L174.651 34.0223L176.213 33.9539C176.887 33.9386 177.453 33.8846 177.912 33.7928C178.372 33.7009 178.793 33.54 179.176 33.3104C179.559 33.0653 179.889 32.7743 180.164 32.4373C180.44 32.1004 180.685 31.6791 180.9 31.1737C181.267 30.3468 181.45 29.4203 181.451 28.3944C181.451 27.3682 181.252 26.4869 180.854 25.7518C180.103 24.2816 178.908 23.4552 177.27 23.2713C176.718 23.2101 176.304 23.2101 176.029 23.2713C175.753 23.3327 175.347 23.5161 174.812 23.8221C174.276 24.1284 173.961 24.2821 173.869 24.2821C173.778 24.282 173.732 24.1894 173.732 24.0057C173.732 23.6077 173.494 23.3164 173.02 23.1326ZM511.485 35.1199C511.826 35.2002 512.213 35.2935 512.651 35.4002C512.653 35.4007 512.656 35.4007 512.659 35.4012C512.279 35.2602 511.887 35.1293 511.489 35.0067C511.488 35.0443 511.486 35.0822 511.485 35.1199ZM503.808 35.0018C503.86 35.0118 503.912 35.0222 503.964 35.0321C503.943 34.9776 503.922 34.9241 503.901 34.8729C503.849 34.8601 503.797 34.8468 503.744 34.8338C503.766 34.8879 503.786 34.9444 503.808 35.0018ZM508.902 34.3407C508.916 34.5401 508.919 34.7396 508.915 34.9373C508.981 34.9499 509.044 34.9622 509.104 34.9735C509.107 34.8805 509.107 34.7871 509.107 34.6942C509.104 34.6892 509.105 34.6854 509.107 34.6815C509.107 34.5817 509.105 34.4819 509.101 34.3826C509.035 34.368 508.968 34.3549 508.902 34.3407ZM510.423 34.8787C510.506 34.8968 510.594 34.9156 510.687 34.9364C510.688 34.883 510.689 34.8296 510.689 34.7762C510.6 34.7519 510.511 34.7284 510.422 34.7049C510.424 34.7627 510.423 34.821 510.423 34.8787ZM503.113 34.866C503.176 34.8785 503.24 34.8908 503.303 34.9032C503.273 34.8344 503.24 34.767 503.208 34.7C503.143 34.6835 503.078 34.6669 503.012 34.6502C503.046 34.7209 503.08 34.7928 503.113 34.866ZM502.471 34.7391C502.581 34.7612 502.691 34.7847 502.801 34.8065C502.762 34.7256 502.728 34.644 502.688 34.5662C502.569 34.5358 502.451 34.5053 502.332 34.4744C502.38 34.5605 502.425 34.6492 502.471 34.7391ZM501.381 34.2176C501.785 34.3659 502.022 34.5156 502.124 34.6678C502.141 34.6711 502.157 34.6753 502.173 34.6785C502.121 34.5798 502.067 34.4843 502.013 34.3914C501.801 34.3354 501.591 34.2751 501.381 34.2176ZM503.656 34.6199C503.706 34.631 503.756 34.6421 503.806 34.6532C503.771 34.5764 503.738 34.5033 503.704 34.4344C503.658 34.4256 503.611 34.4185 503.565 34.41C503.595 34.4764 503.625 34.5468 503.656 34.6199ZM502.914 34.453C502.98 34.4679 503.046 34.4828 503.113 34.4979C503.081 34.4352 503.049 34.3733 503.017 34.3123C502.952 34.3016 502.887 34.2908 502.825 34.2811C502.855 34.3373 502.885 34.3949 502.914 34.453ZM502.23 34.2977C502.345 34.3241 502.464 34.3503 502.584 34.3778C502.558 34.3295 502.532 34.2812 502.505 34.2342C502.388 34.2184 502.276 34.2057 502.171 34.1951C502.191 34.2286 502.21 34.2636 502.23 34.2977ZM166.424 23.0867C165.781 23.0255 165.092 23.1334 164.357 23.409C163.622 23.6847 162.916 24.1132 162.243 24.6951C161.569 25.277 161.049 25.9205 160.681 26.6248C160.313 27.3293 160.068 28.0804 159.946 28.8768C159.823 29.673 159.915 30.454 160.221 31.2196C160.527 31.9853 161.163 32.7049 162.128 33.3787C163.078 34.0372 164.004 34.367 164.908 34.367C165.367 34.3517 165.957 34.2062 166.677 33.9305C167.397 33.6549 167.834 33.3943 167.987 33.1492C168.14 32.9043 168.186 32.6283 168.124 32.3221C168.063 32.0159 167.925 31.7705 167.71 31.5867C167.466 31.4033 167.267 31.2962 167.114 31.2655C166.96 31.2348 166.607 31.2959 166.056 31.4491C165.505 31.6021 165.054 31.6713 164.701 31.6561C164.349 31.6408 163.996 31.5186 163.644 31.2889C163.292 31.0592 162.993 30.7752 162.748 30.4383C162.503 30.1014 162.373 29.8103 162.358 29.5653C162.359 29.4124 163.355 29.3592 165.344 29.4051C166.401 29.4817 167.228 29.4888 167.826 29.4276C168.423 29.3663 168.829 29.2594 169.043 29.1063C169.258 28.9531 169.464 28.608 169.663 28.0721C169.862 27.5515 169.947 26.9925 169.916 26.3953C169.886 25.798 169.702 25.2617 169.365 24.7869C169.028 24.3123 168.614 23.9295 168.124 23.6385C167.634 23.3322 167.067 23.148 166.424 23.0867ZM501.914 34.2254C501.903 34.2076 501.892 34.1893 501.881 34.1717C501.799 34.1674 501.724 34.1658 501.656 34.1668C501.74 34.186 501.826 34.2052 501.914 34.2254ZM510.384 34.1317C510.481 34.1495 510.578 34.1683 510.675 34.1864C510.673 34.142 510.668 34.0978 510.664 34.0535C510.564 34.0392 510.466 34.0273 510.371 34.0145C510.376 34.0535 510.38 34.0925 510.384 34.1317ZM127.835 19.0672C125.875 19.0366 124.811 19.059 124.642 19.1356C124.366 19.2275 124.152 19.5033 123.998 19.9627C123.845 20.4221 123.799 20.9046 123.861 21.41C123.922 21.9154 123.822 23.2404 123.562 25.3846C123.286 27.5285 123.202 29.2437 123.309 30.5301C123.416 31.8166 123.746 32.7976 124.297 33.4715C124.68 33.9308 125.178 34.1528 125.79 34.1375C126.403 34.1222 127.613 33.823 129.42 33.241C131.227 32.6591 132.59 32.0311 133.509 31.3573C134.428 30.6834 134.88 29.9099 134.865 29.0369C134.88 28.5316 134.673 27.9646 134.244 27.3367C133.816 26.709 133.364 26.2731 132.889 26.0282C132.414 25.7832 132.177 25.5989 132.177 25.4764C132.177 25.3539 132.468 25.132 133.05 24.8104C134.092 24.2284 134.743 23.5313 135.003 22.7196C135.264 21.9079 135.064 21.226 134.406 20.6746C133.211 19.6639 131.021 19.1285 127.835 19.0672ZM500.076 33.8651C500.136 33.8775 500.194 33.8897 500.25 33.9022C500.186 33.8832 500.122 33.8645 500.059 33.8455C500.065 33.852 500.071 33.8585 500.076 33.8651ZM509.064 33.8924C509.063 33.8885 509.062 33.8846 509.062 33.8807C509.028 33.8791 508.995 33.8757 508.963 33.8748C508.997 33.8807 509.03 33.8865 509.064 33.8924ZM511.38 33.4979C512.526 33.6644 513.537 33.7915 514.226 33.8504C513.892 33.8281 512.528 33.5636 511.348 33.3211C511.359 33.3797 511.37 33.4389 511.38 33.4979ZM498.161 33.2147C498.305 33.2974 498.474 33.405 498.667 33.5487C498.704 33.5766 498.738 33.6042 498.772 33.6307C499.146 33.6893 499.485 33.748 499.79 33.8074C499.772 33.7876 499.754 33.767 499.736 33.7479C499.157 33.57 498.622 33.391 498.161 33.2147ZM503.14 33.451C502.895 33.0968 502.894 33.1299 503.115 33.5203C503.152 33.5933 503.199 33.6799 503.253 33.7811C503.289 33.789 503.326 33.7966 503.362 33.8045C503.272 33.6581 503.196 33.543 503.14 33.451ZM154.515 23.9373C153.336 23.9067 152.501 23.9067 152.011 23.9373C151.521 23.9526 151.169 23.9751 150.954 24.0057C150.74 24.0363 150.541 24.1136 150.357 24.2362C150.173 24.3586 150.051 24.4962 149.99 24.6492C149.928 24.7871 149.897 25.0018 149.897 25.2928C149.897 25.5687 149.935 26.2731 150.012 27.4061C150.089 28.5394 150.05 29.3821 149.897 29.9334C149.744 30.4846 149.407 30.8441 148.886 31.0125C148.519 31.1504 148.243 31.358 148.059 31.6336C147.875 31.909 147.807 32.1844 147.853 32.4598C147.899 32.7355 148.051 32.9736 148.312 33.1727C148.572 33.3717 148.894 33.4715 149.277 33.4715C149.66 33.4715 150.02 33.387 150.357 33.2186C150.694 33.0501 151.015 32.812 151.322 32.5057C151.628 32.1994 151.888 31.8319 152.103 31.4032C152.287 30.9745 152.424 30.561 152.516 30.1629C152.608 29.7648 152.662 29.1905 152.677 28.4403V26.5565H155.916V28.3016C155.916 29.4503 155.832 30.4618 155.663 31.3348C155.373 32.9119 155.74 33.7008 156.766 33.701C157.149 33.701 157.44 33.6084 157.639 33.4246C157.838 33.2408 157.984 32.912 158.076 32.4373C158.167 31.9625 158.275 31.0507 158.398 29.703C158.52 28.3554 158.536 27.2448 158.444 26.3719C158.367 25.4839 158.137 24.8638 157.754 24.5116C157.509 24.2665 157.203 24.1129 156.835 24.0516C156.468 23.9903 155.694 23.9526 154.515 23.9373ZM502.419 33.5965C502.49 33.6125 502.561 33.6304 502.632 33.6463C502.569 33.5466 502.505 33.4499 502.441 33.3563C502.369 33.3481 502.302 33.3395 502.238 33.3319C502.298 33.4173 502.359 33.5053 502.419 33.5965ZM508.795 33.533C508.88 33.5481 508.955 33.562 509.02 33.5721C509.016 33.5493 509.011 33.5264 509.007 33.5037C508.941 33.4863 508.864 33.4673 508.778 33.4461C508.783 33.4748 508.79 33.5042 508.795 33.533ZM501.649 33.4207C501.78 33.4513 501.913 33.4821 502.046 33.5125C501.992 33.4356 501.938 33.3603 501.884 33.2879C501.713 33.2648 501.593 33.2458 501.533 33.2274C501.516 33.2229 501.501 33.2162 501.487 33.2117C501.54 33.2789 501.595 33.3486 501.649 33.4207ZM510.275 33.3299C510.381 33.3466 510.486 33.3636 510.591 33.3797C510.58 33.3042 510.565 33.2296 510.551 33.1551C510.436 33.1304 510.326 33.1051 510.225 33.0828C510.242 33.1647 510.26 33.2472 510.275 33.3299ZM498.316 31.951C498.501 32.0487 498.817 32.1865 499.281 32.5301C499.689 32.6467 500.018 32.7366 500.043 32.7479C500.684 32.9939 500.289 32.9588 499.64 32.8162C499.7 32.8672 499.763 32.9198 499.827 32.9774C500.285 33.0953 500.776 33.2145 501.285 33.3348C501.085 33.0876 500.889 32.8733 500.706 32.6883C500.671 32.654 500.637 32.6207 500.604 32.5887C499.85 32.3987 498.908 32.1513 498.284 31.9373C498.294 31.9421 498.305 31.946 498.316 31.951ZM183.977 22.9949C183.793 22.9949 183.594 23.0723 183.379 23.2254C183.165 23.3785 183.043 23.5008 183.012 23.5926C182.981 23.6845 182.936 23.8912 182.874 24.2127C182.813 24.5343 182.798 24.9709 182.828 25.5223C182.844 26.0737 182.859 27.3142 182.874 29.244C182.905 31.1729 183.012 32.2601 183.196 32.5057C183.379 32.7201 183.755 32.8127 184.322 32.7821C184.888 32.7514 185.34 32.613 185.677 32.368C186.014 32.1229 186.443 31.6789 186.963 31.036C187.484 30.3931 187.805 29.995 187.928 29.8416C188.066 29.6885 188.188 29.5501 188.295 29.4276L188.801 28.9227C188.847 28.8767 188.878 28.8615 188.893 28.8768C188.985 28.9384 189.061 29.5046 189.122 30.576C189.184 31.6478 189.314 32.3604 189.513 32.7127C189.712 33.065 190.042 33.241 190.501 33.241C190.961 33.241 191.289 33.1034 191.489 32.828C191.734 32.5523 191.833 32.1381 191.787 31.5867L191.466 27.452C191.436 26.6556 191.359 26.0582 191.237 25.66C191.114 25.2618 190.876 24.9636 190.524 24.7645C189.804 24.3971 188.686 25.0708 187.17 26.786L185.745 28.4168L185.447 26.0965C185.324 25.1474 185.217 24.4967 185.125 24.1444C185.033 23.8076 184.865 23.5316 184.62 23.3172C184.375 23.1029 184.161 22.995 183.977 22.9949ZM502.313 27.3446C502.458 27.389 502.612 27.4369 502.758 27.4852C503.056 27.5837 503.327 27.6811 503.639 27.8045C504.042 27.9617 504.457 28.1445 504.917 28.3963C505.437 28.6978 506.282 29.1319 507.296 30.3358C507.841 30.9895 508.398 31.9469 508.692 33.0692C508.77 33.0827 508.848 33.0959 508.926 33.1092C508.875 32.9059 508.813 32.7087 508.738 32.5203C508.4 31.5303 507.89 30.7438 507.404 30.1668C506.966 29.6582 506.718 29.4459 506.401 29.1805C505.083 28.1712 504.639 28.098 504.077 27.8465C503.944 27.7944 503.815 27.7471 503.688 27.703C503.567 27.6613 503.495 27.639 503.402 27.6092C503.223 27.5529 503.049 27.502 502.876 27.4549C502.703 27.4078 502.531 27.3639 502.36 27.3231C502.214 27.289 502.093 27.2625 501.959 27.2342C502.08 27.2707 502.197 27.3076 502.313 27.3446ZM501.373 33.0711C501.428 33.0327 501.538 32.9998 501.636 32.9715C501.593 32.9185 501.55 32.8663 501.507 32.8162C501.382 32.7856 501.225 32.7443 501.045 32.7C501.149 32.8124 501.261 32.935 501.373 33.0711ZM498.94 25.0506C499.613 25.2523 500.548 25.4546 501.648 25.7205C501.947 25.7924 502.243 25.8664 502.538 25.9461C502.84 26.0269 503.285 26.1522 503.672 26.2811C504.005 26.3912 504.656 26.6161 505.318 26.9422C505.494 27.0293 505.638 27.1038 505.868 27.2332C506.143 27.3884 506.437 27.5699 506.752 27.7957C507.067 28.0217 507.404 28.2921 507.757 28.6307C507.945 28.8136 508.076 28.943 508.33 29.2352C508.6 29.5473 508.872 29.9072 509.129 30.3201C509.594 31.0107 509.969 31.929 510.194 32.9266C510.287 32.9248 510.393 32.9291 510.51 32.9354C510.452 32.665 510.379 32.4027 510.289 32.1532C509.649 30.0816 508.251 28.6691 507.779 28.2479C507.121 27.6473 506.534 27.2633 506.02 26.9666C505.281 26.5457 504.736 26.3222 504.195 26.1199C503.81 25.9766 503.448 25.8613 503.093 25.7586C500.576 25.074 499.278 24.9941 498.94 25.0506ZM498.423 32.5301C498.487 32.5652 498.555 32.6041 498.626 32.6473C498.786 32.6941 498.955 32.7427 499.13 32.7908C499.056 32.7347 498.984 32.6838 498.916 32.6375C498.681 32.5743 498.447 32.5061 498.241 32.4383C498.291 32.4636 498.352 32.4914 498.423 32.5301ZM499.428 30.7674C499.835 30.9979 500.378 31.3397 501.04 31.9559C501.198 32.1067 501.368 32.2788 501.545 32.4735C501.638 32.4949 501.729 32.5162 501.82 32.5369C501.492 32.1492 501.192 31.8555 500.974 31.6678C500.561 31.3009 500.196 31.0418 499.887 30.8436C499.619 30.767 499.369 30.6914 499.15 30.6199C499.235 30.6629 499.328 30.7115 499.428 30.7674ZM499.021 31.1278C499.353 31.3068 499.801 31.5705 500.377 32.0574C500.436 32.1048 500.511 32.1687 500.598 32.2489C500.763 32.2888 500.93 32.3302 501.098 32.3699C500.686 31.9501 500.348 31.6873 500.201 31.5789C500.089 31.4939 499.979 31.4171 499.876 31.3465C499.484 31.2251 499.048 31.0878 498.706 30.9715C498.796 31.013 498.899 31.0648 499.021 31.1278ZM200.477 22.1678C199.558 21.9381 198.585 21.9157 197.559 22.0994C197.084 22.176 196.617 22.3063 196.158 22.4901C195.698 22.6432 195.269 22.8418 194.871 23.0867C194.473 23.3318 194.182 23.5546 193.998 23.7537C193.815 23.9528 193.684 24.1137 193.608 24.2362C193.531 24.3586 193.462 24.4962 193.401 24.6492C193.339 24.8024 193.294 24.9561 193.263 25.1092C193.232 25.2623 193.202 25.4918 193.171 25.7977C193.141 26.0886 193.132 26.3492 193.148 26.5789C193.178 26.8087 193.232 26.9929 193.309 27.1307C193.401 27.2531 193.523 27.4061 193.676 27.5897C193.829 27.7735 193.968 27.9271 194.09 28.0496C194.213 28.172 194.335 28.2791 194.457 28.3709C194.58 28.4628 194.703 28.5392 194.826 28.6004C194.933 28.6617 195.078 28.739 195.262 28.8309C195.446 28.9227 195.568 28.9992 195.629 29.0604C195.675 29.137 195.636 29.2592 195.514 29.4276C195.391 29.5959 195.162 29.6804 194.826 29.6805C194.489 29.6958 194.159 29.8413 193.837 30.117C193.516 30.3927 193.355 30.6532 193.355 30.8983C193.355 31.1433 193.509 31.4192 193.815 31.7254C194.121 32.0315 194.358 32.215 194.527 32.2762C194.695 32.3374 195.055 32.3149 195.606 32.2078C196.157 32.1159 196.732 31.8015 197.329 31.2655L200.155 28.9686L200.224 30.1395C200.27 31.0278 200.5 31.6333 200.913 31.9549C201.342 32.2763 201.832 32.2305 202.383 31.8172L202.544 31.6561C202.59 31.6101 202.636 31.5183 202.682 31.3807C202.728 31.2429 202.758 31.0972 202.774 30.9442C202.789 30.791 202.812 30.5458 202.843 30.2088C202.874 29.8719 202.881 29.5197 202.866 29.1522C202.866 28.7846 202.874 28.003 202.889 26.8084C202.904 25.6142 202.896 24.7874 202.866 24.328C202.835 23.8685 202.728 23.5235 202.544 23.2938C202.085 22.7731 201.396 22.3975 200.477 22.1678ZM498.092 31.0067C498.208 31.0827 498.547 31.2198 498.76 31.3192C498.901 31.3853 498.358 31.5743 498.497 31.6522C498.508 31.7096 499.201 31.9025 500.082 32.1229C499.793 31.8862 499.568 31.7412 499.344 31.5955C498.999 31.379 498.736 31.2541 498.619 31.202C498.334 31.074 498.176 31.0272 498.092 31.0067ZM141.095 22.9949C140.268 22.9643 139.593 23.0874 139.073 23.3631C138.552 23.6387 138.139 23.8913 137.832 24.1209C137.541 24.3506 137.304 24.6112 137.12 24.9022C136.952 25.1932 136.798 25.5993 136.66 26.1199C136.523 26.6404 136.477 27.1916 136.523 27.7733C136.569 28.3858 136.73 28.9375 137.005 29.4276C137.281 29.9177 137.626 30.3471 138.039 30.7147C138.453 31.0821 138.92 31.3347 139.441 31.4725C139.961 31.6103 140.498 31.6022 141.049 31.4491C141.6 31.2959 142.151 30.9975 142.702 30.5535L143.484 29.8641L143.713 30.5076C143.973 31.1966 144.295 31.6252 144.678 31.7938C145.046 31.9776 145.46 31.886 145.919 31.5184L146.448 31.1043L145.942 28.6463C145.651 26.9925 145.552 26.0122 145.644 25.7059C145.736 25.3996 145.567 25.0473 145.138 24.6492C144.74 24.251 144.173 23.8836 143.438 23.5467C142.703 23.2098 141.922 23.0256 141.095 22.9949ZM176.902 25.9129C177.392 25.867 177.836 26.0583 178.235 26.4871C178.633 26.916 178.816 27.6437 178.785 28.6698C178.755 29.6957 178.495 30.4388 178.005 30.8983C177.699 31.1586 177.07 31.3266 176.12 31.4032L174.697 31.5184L174.398 28.5321C174.382 28.2104 174.406 27.9113 174.467 27.6356C174.528 27.3602 174.62 27.1614 174.743 27.0389C174.865 26.9164 175.133 26.7015 175.546 26.3953C175.96 26.0891 176.412 25.9283 176.902 25.9129ZM127.72 27.2684C128.915 27.2378 129.757 27.3294 130.247 27.5438C130.737 27.7582 131.181 28.0188 131.579 28.325C131.978 28.6313 132.177 28.8766 132.177 29.0604C132.177 29.183 131.748 29.4437 130.891 29.8416C130.033 30.2398 129.099 30.6073 128.088 30.9442C127.077 31.2811 126.411 31.4572 126.089 31.4725C125.982 31.4572 125.898 31.0969 125.836 30.3924C125.775 29.688 125.768 29.0599 125.814 28.5086L125.951 27.3367L127.72 27.2684ZM498.254 30.5389C498.361 30.6149 498.721 30.7473 499.097 30.8807C498.938 30.7995 498.821 30.7464 498.752 30.7166C498.506 30.6112 498.346 30.5623 498.254 30.5389ZM498.401 30.1141C498.481 30.1574 498.639 30.2146 498.851 30.284C498.815 30.2684 498.781 30.2533 498.748 30.2401C498.59 30.1755 498.476 30.137 498.401 30.1141ZM496.583 27.8934C493.902 27.7446 500.374 28.679 502.814 29.1737C500.616 28.4476 497.365 27.9633 496.583 27.8934ZM140.865 25.4764C141.079 25.4458 141.416 25.515 141.875 25.6834C142.335 25.8519 142.573 25.974 142.588 26.0506C142.588 26.1272 142.366 26.5713 141.922 27.3826C141.401 28.2709 140.926 28.792 140.497 28.9451C140.053 29.0983 139.678 28.8764 139.371 28.2791C138.835 27.3143 139.004 26.5408 139.877 25.9588C140.321 25.668 140.65 25.5072 140.865 25.4764ZM496.99 26.703C497.066 26.6167 497.076 26.4964 496.407 26.8211C496.129 27.0012 495.799 27.1016 495.14 27.702C495.615 27.4926 496.022 27.3003 496.358 27.119C496.661 26.9561 496.901 26.804 496.99 26.703ZM104.937 25.452C105.694 25.9108 106.531 26.4947 107.455 27.2908C107.686 27.3495 107.917 27.41 108.147 27.4696C106.693 26.3734 105.68 25.8125 104.937 25.452ZM198.386 24.6033C199.06 24.5268 199.642 24.5573 200.132 24.6951C200.377 24.8024 200.492 25.0477 200.477 25.4305C200.492 25.5835 200.469 25.7211 200.408 25.8436C200.346 25.9661 200.247 26.074 200.109 26.1658C199.971 26.2578 199.664 26.4259 199.19 26.6707C198.715 26.9157 198.317 27.0389 197.995 27.0389C197.674 27.0389 197.191 26.8852 196.548 26.5789C195.905 26.2879 195.583 26.0732 195.583 25.9354C195.584 25.6752 195.882 25.4072 196.479 25.1317C197.076 24.856 197.712 24.6799 198.386 24.6033ZM165.735 25.7293C166.347 25.6222 166.76 25.6754 166.975 25.8895C167.159 26.1039 167.251 26.3186 167.251 26.533C167.251 26.7475 167.167 26.8858 166.998 26.9471C166.83 26.9777 166.485 26.993 165.964 26.993C165.444 26.993 165.045 26.9777 164.77 26.9471C164.035 26.8552 163.859 26.6557 164.242 26.3494C164.624 26.0432 165.122 25.8365 165.735 25.7293ZM497.974 26.1073C497.64 25.9847 490.871 25.3184 491.302 25.5662C491.739 25.6671 494.361 25.9293 496.38 26.1541C498.421 26.3768 500.107 26.5785 497.974 26.1073ZM480.582 25.9754C479.168 25.8236 475.009 25.4457 474.302 25.6639C475.829 25.6961 479.954 26.1845 480.582 25.9754ZM477.427 25.035C475.225 24.5612 474.682 25.5243 477.223 25.3768C477.322 25.3713 477.507 25.0598 477.427 25.035ZM475.903 22.8866C472.142 24.0296 486.169 23.6086 487.831 24.9705C477.527 24.0277 485.709 25.227 488.851 25.3592C490.118 25.4142 490.592 25.2961 488.886 24.786C488.493 24.6628 487.973 24.5173 487.296 24.3465C487.905 24.4449 488.435 24.5299 488.898 24.6043C495.295 25.6458 490.281 24.4128 491.563 24.3455C493.075 24.2556 498.21 25.1896 497.995 24.7821C497.993 24.7816 497.989 24.7815 497.987 24.7811C494.861 24.3269 491.939 24.0379 488.95 23.7655C488.836 23.7552 488.723 23.7454 488.609 23.7352C488.738 23.7883 488.849 23.8367 488.943 23.8817C489.617 24.1845 489.482 24.3069 488.916 24.3055C487.771 24.3048 484.637 23.747 483.264 23.1473C482.388 23.2607 481.539 23.3803 480.659 23.5028C479.252 22.2444 478.675 24.0357 475.903 22.8866ZM128.18 21.6629C129.191 21.6476 130.079 21.724 130.845 21.8924C131.611 22.0762 131.985 22.2299 131.97 22.3524C131.953 22.4755 131.195 22.8961 129.696 23.6151C128.195 24.3349 127.26 24.7409 126.893 24.8328C126.526 24.9246 126.312 24.9551 126.25 24.9246C126.189 24.894 126.189 24.7871 126.25 24.6033C126.312 24.4195 126.395 23.8605 126.502 22.9266L126.641 21.6629H128.18ZM465.11 24.0203C463.688 23.5414 462.023 24.4796 464.355 24.6043C465.043 24.6394 465.259 24.0752 465.11 24.0203ZM448.97 23.3817C444.751 22.7492 447.427 23.907 449.796 23.7908C449.898 23.7797 449.075 23.3974 448.97 23.3817ZM473.826 23.2157C470.8 22.6702 472.177 23.9085 474.466 23.743C474.597 23.7331 473.968 23.2414 473.826 23.2157ZM475.252 20.784C476.035 20.6489 483.254 21.2196 489.065 21.9041C492.358 22.28 495.307 22.6994 496.291 22.8475C493.832 22.9813 492.058 22.4584 489.052 22.1151C488.857 22.0926 488.655 22.0717 488.448 22.0516C487.57 21.968 487.789 22.2114 487.695 22.202C486.156 22.0588 487.324 21.9199 486.368 21.8221C485.775 21.7117 473.441 21.0518 475.252 20.784ZM406.061 21.2401C403.108 21.5261 412.2 21.8784 409.571 21.3787C409.441 21.3552 406.207 21.2273 406.061 21.2401ZM445.681 21.0789C444.31 21.067 440.544 20.6781 440.327 20.9559C441.695 20.9637 445.468 21.3504 445.681 21.0789ZM453.559 19.8543C455.827 20.1407 472.321 21.0862 473.088 21.0867C473.307 21.0732 473.474 20.7785 473.368 20.7586C472.537 20.5791 455.876 19.8023 453.559 19.8543ZM41.5404 20.3953C41.1123 20.4879 40.7181 20.5821 40.3841 20.6746C40.5793 20.7677 40.7825 20.87 40.9954 20.9803C41.4261 20.9096 41.8704 20.8583 42.3187 20.8211C42.0468 20.6656 41.7875 20.5247 41.5404 20.3953ZM473.722 20.1785C475.544 19.6522 483.87 20.7863 478.161 20.6258C477.603 20.6102 475.323 20.1519 473.722 20.1785ZM33.1038 20.0389C32.7521 20.0309 32.88 20.0746 33.0345 20.1043C33.3717 20.1671 34.0327 20.2195 34.6497 20.243C34.5957 20.2326 34.5431 20.2222 34.4925 20.2127C33.42 20.0269 33.3231 20.055 33.1038 20.0389ZM444.51 19.16C438.873 19.0701 449.684 19.9722 448.274 19.4842C448.174 19.4537 445.093 19.1693 444.51 19.16ZM33.2454 17.8338C32.9757 17.8563 33.0497 17.9415 33.0286 18.0506C33.0372 18.2309 32.9415 18.3417 33.0814 18.4276C33.1672 18.4733 33.3226 18.5096 33.7972 18.5936C34.1667 18.6588 34.709 18.7365 35.8148 19.0106C36.0946 19.0812 36.4146 19.1674 36.7923 19.2801C36.9264 19.3236 37.0248 19.3528 37.1351 19.3856C37.9795 19.3725 38.671 19.3517 39.2259 19.326C37.2571 18.5075 37.1866 18.6248 36.5579 18.4119C36.4953 18.3951 36.4339 18.3807 36.3743 18.3651C34.5556 18.1518 33.1308 17.9366 33.2952 17.8563C33.2765 17.8492 33.2639 17.8407 33.2571 17.8338C33.2532 17.834 33.2492 17.8336 33.2454 17.8338ZM445.113 18.5047C444.822 18.4689 438.978 18.0566 438.864 18.286C439.722 18.4101 448.258 18.881 445.113 18.5047ZM442.521 17.6776C441.825 17.6812 440.742 17.9615 440.815 17.9871C444.41 18.9158 455.261 17.9965 448.159 17.8856C448.017 17.8844 449.396 18.3854 446.635 18.1951C446.406 18.1796 445.989 17.6634 442.521 17.6776ZM459.265 17.7069C459.024 17.2423 465.716 17.9039 467.484 17.9559C465.945 18.1796 461.718 17.7968 459.265 17.7069ZM418.737 16.7908C419.081 17.0595 426.197 17.513 426.541 17.4891C429.937 17.2346 419.279 16.7079 418.737 16.7908ZM415.024 14.9744C413.202 14.6083 418.767 14.5991 420.419 14.9998C421.219 15.4997 415.253 15.0178 415.024 14.9744ZM39.8128 14.6688C42.24 13.6841 36.255 14.0985 35.1888 14.7498C34.6763 15.0591 38.7421 15.0947 39.8128 14.6688ZM327.518 8.57307C326.806 8.43171 327.27 6.59805 330.176 7.60139C330.558 7.73119 328.722 8.05005 329.032 8.19319C329.232 8.27903 335.598 9.13666 335.892 9.118C336.211 9.09809 335.869 8.47417 336.193 8.43733C336.562 8.3989 340.445 9.27726 342.501 9.46272C346.352 9.81267 346.791 9.36376 347.105 9.39046C348.028 9.46739 349.552 9.93925 351.421 10.0916C355.399 10.4172 360.271 10.72 365.131 11.0477C371.717 11.4936 378.375 11.9921 382.708 12.7703C376.704 12.1027 370.971 12.0501 365.114 11.8172C364.426 11.7897 363.74 11.7603 363.057 11.7264C365.014 10.8976 353.351 11.7771 360.171 11.1473C357.057 11.2456 329.911 9.07033 327.526 8.57405C327.523 8.57382 327.52 8.57333 327.518 8.57307ZM66.7249 4.86214C68.5939 4.82162 70.7231 5.39405 69.7523 5.69514C69.519 5.76699 65.7073 5.69974 63.8529 6.00178C58.3824 6.89398 59.8807 7.47146 59.5628 7.53303C59.2111 7.60147 55.6822 7.55799 53.8109 7.86116C49.0713 8.6345 47.0174 9.40908 40.3353 9.93343C44.0427 8.78854 41.7911 8.05702 46.053 7.69026C45.7329 7.88893 45.3901 8.09183 45.0609 8.2928C50.9932 6.96542 57.9249 6.65385 64.7855 5.7596C66.532 5.53471 64.4056 4.91258 66.7249 4.86214ZM75.6595 8.55452C75.3473 8.53299 71.7326 9.04728 71.9144 9.37483C73.2523 9.41762 77.7504 8.68341 75.6595 8.55452ZM317.862 8.62581C316.376 8.35848 309.957 7.82658 312.433 8.42268C312.819 8.51315 317.732 8.96211 317.862 8.62581ZM298.754 5.5721C294.492 5.91893 312.25 7.87295 307.621 6.63167C307.296 6.5358 299.148 5.53707 298.754 5.5721ZM290.159 6.14534C288.128 6.40644 294.51 7.3741 292.775 6.55843C292.683 6.52308 290.283 6.13165 290.159 6.14534ZM191.674 5.96956C188.719 5.29196 188.965 6.68841 191.101 6.61214C191.859 6.58431 191.767 5.99187 191.674 5.96956ZM172.784 6.15999C171.272 6.26856 167.323 6.09738 166.622 6.50862C168.506 6.42109 173.29 6.97065 172.784 6.15999ZM109.879 6.19124C109.802 5.71956 105.702 6.00388 106.265 6.29866C106.444 6.39563 109.957 6.56915 109.879 6.19124ZM192.589 5.74495C190.874 6.04538 193.902 6.97329 195.974 5.91975C194.901 6.03455 192.758 5.71554 192.589 5.74495ZM202.333 4.54768C201.106 4.52598 200.222 5.58999 200.361 5.63655C201.721 6.05446 203.574 4.90781 202.333 4.54768ZM237.424 3.93538C237.589 3.29593 231.176 3.71015 233.724 4.2137C234.364 4.33682 237.361 4.14559 237.424 3.93538ZM124.351 2.50569C124.579 2.48048 127.785 2.64699 127.89 2.68636C130.03 3.4956 119.449 3.04778 124.351 2.50569ZM264.632 2.42268C265.256 2.13736 268.728 2.59279 270.069 2.59553C269.838 2.98859 266.122 2.49038 264.631 2.48518C264.604 2.48505 264.578 2.485 264.552 2.48518C264.566 2.4611 264.594 2.44063 264.632 2.42268ZM177.157 1.56526C186.343 1.46866 185.214 2.13534 177.178 2.28889C174.508 2.33242 171.037 2.30557 166.893 2.1512C166.852 1.61034 166.807 1.78276 168.283 1.74104C171.944 1.63695 174.888 1.58219 177.157 1.56526ZM197.889 1.42854C197.07 1.97858 194.419 1.89755 192.634 1.89827C192.936 1.52433 196.603 1.56124 197.889 1.42854ZM126.36 1.76155C125.789 0.918431 133.012 1.26859 133.562 1.45784C135.794 2.20901 126.961 1.57268 126.36 1.76155ZM210.134 1.25764C210.646 2.05392 204.935 1.6205 203.007 1.78303C202.495 0.981539 208.15 1.4221 210.134 1.25764ZM220.269 0.102371C220.415 0.0740776 223.733 0.0592068 223.888 0.0857692C226.633 0.622824 217.25 0.674106 220.269 0.102371ZM237.558 0.362136C238.859 -0.241498 242.592 0.083372 244.999 0.119949C243.92 0.614199 239.591 0.368628 237.558 0.362136Z" fill="white"/>
</svg>
