<svg width="562" height="91" viewBox="0 0 562 91" fill="none" xmlns="http://www.w3.org/2000/svg">
<path d="M343.801 1.1014C349.029 2.48563 348.875 1.21064 350.297 1.33969C350.788 1.38734 354.447 2.5475 358.442 2.58383C355.573 2.68423 352.704 2.79431 349.846 2.91195C352.651 3.15704 358.122 3.05214 360.445 3.33285C361.573 3.4688 360.629 4.33021 363.091 4.37679C363.613 4.38294 365.729 2.27583 359.257 3.06625C358.755 2.27991 361.816 2.86589 363.247 2.69125C363.462 2.66227 364.341 1.40055 366.149 2.25961C366.588 2.48047 361.715 6.04384 374.106 3.77816C374.506 3.70625 373.133 3.1824 373.526 3.10043C373.803 3.0446 376.938 3.362 377.297 3.31234C377.658 3.25633 376.142 2.68002 376.572 2.5975C378.778 2.17329 381.56 4.32591 377.079 3.97543C378.572 4.28955 380.07 4.60672 381.563 4.92758C380.007 3.32742 383.944 4.60819 386.038 4.67465C399.495 5.14966 390.544 3.64825 392.879 3.2723C396.672 2.70275 393.656 5.08799 399.28 4.71176C399.742 4.68573 394.716 3.45472 402.111 4.21761C403.278 4.33969 404.64 4.50592 406.436 4.75277C404.966 4.64672 403.568 4.55457 402.094 4.46761C401.541 4.43522 400.985 4.40464 400.426 4.37386C400.696 4.77538 401.301 4.99815 402.052 5.11019C404.295 5.43035 407.751 4.89631 408.15 4.92367C413.637 5.3121 409.808 5.34663 418.176 5.68441C418.911 5.71956 420.501 6.30837 422.147 6.39242C428.93 6.7217 413.423 4.60547 413.141 4.10824C412.872 3.63968 429.614 6.28758 430.125 6.71566C432.445 7.76157 422.514 5.54508 424.307 6.65609C424.588 6.82664 431.014 7.88911 436.954 9.24008C442.885 10.584 447.615 11.5626 449.368 12.0203C452.526 12.8998 454.193 14.4874 454.869 13.8709C454.99 13.7317 455.074 13.4865 455.125 13.1043C455.839 15.3473 457.056 14.0546 457.54 14.1327C463.947 15.0935 464.139 15.0879 470.122 15.4256C471.459 15.4972 472.576 16.2188 473.05 16.1512C473.332 16.1096 472.847 15.395 474.225 15.2987C476.101 15.1806 487.642 16.7296 488.516 17.1522C489.359 17.5806 483.595 16.9562 484.599 17.6346C488.771 17.9971 492.814 18.1321 497.074 18.4998C498.842 18.6544 497.915 19.0062 498.677 19.0692C499 19.095 505.165 19.1767 504.917 19.0077C504.262 18.5906 485.44 17.4886 490.43 17.1073C491.387 17.0346 494.719 18.2414 494.236 17.0291C501.663 17.6865 509.164 18.3431 516.85 19.1239C520.703 19.5185 524.586 19.9374 528.743 20.4793C530.752 20.7471 533.007 21.0571 535.424 21.4774C536.734 21.705 538.066 21.9511 539.793 22.3524C540.718 22.5704 541.783 22.8285 543.252 23.2957C544.135 23.5782 545.123 23.9217 546.359 24.4598C547.64 25.0605 550.244 26.0921 553.696 29.1795C556.816 31.8461 562.428 39.2201 561.703 48.9998C560.967 58.2738 556.04 63.4242 553.419 65.783C549.905 68.7899 547.654 69.5981 546.444 70.1678C545.307 70.6507 544.395 70.9614 543.574 71.2196C542.813 71.4546 542.34 71.5789 541.779 71.7225C539.621 72.2578 538.276 72.4636 536.976 72.6688C538.229 72.3742 539.549 72.0895 541.649 71.5018C542.193 71.3464 542.688 71.1994 543.39 70.9686C544.197 70.7012 545.092 70.3833 546.207 69.8993C547.277 69.3937 549.631 68.4945 552.927 65.7078C555.384 63.5286 560.351 58.6486 561.269 49.4422C562.206 39.7221 556.546 32.1177 553.415 29.4871C549.755 26.2281 546.919 25.2206 545.864 24.7362C544.593 24.2103 543.528 23.8678 542.686 23.619C541.345 23.2209 540.004 22.9233 539.22 22.7577C537.336 22.3667 535.974 22.1471 534.613 21.9295C531.887 21.5053 529.665 21.2021 527.306 20.8983C522.757 20.3139 518.416 19.8275 514.232 19.5116C512.767 19.3978 508.018 18.9134 508.571 19.5438C517.732 20.5113 526.914 20.4891 539.679 23.3358C540.169 23.4603 538.243 23.5403 540.136 24.0584C540.757 24.2317 541.473 24.405 542.744 24.785C543.501 25.0165 544.387 25.3016 545.55 25.7791C546.565 26.2483 549.145 27.1296 552.705 30.2694C554.664 32.0747 557.334 34.9756 559.065 39.9061C560.881 44.7895 560.569 51.3723 558.778 55.6678C557.032 60.1178 554.641 62.7113 552.846 64.4032C552.731 64.5094 552.618 64.613 552.506 64.7127C552.391 64.8155 552.287 64.9065 552.232 64.9539C552.1 65.0683 551.969 65.1788 551.841 65.285C551.585 65.4973 551.337 65.694 551.097 65.8778C550.616 66.2457 550.167 66.563 549.746 66.8426C546.186 69.0749 545.228 69.2063 543.994 69.7303C542.727 70.1936 542.163 70.3648 541.44 70.5858C541.097 70.6888 540.769 70.7836 540.453 70.8709C540.151 70.9545 539.931 71.0145 539.683 71.0799C537.656 71.6047 536.551 71.8088 536.005 71.825C535.885 71.819 536.951 71.4741 537.845 71.0828C538.868 70.668 539.772 70.1914 538.901 70.159C534.798 69.8417 534.592 72.2196 531.915 72.535C529.654 72.8516 517.13 72.7894 514.213 73.6903C511.041 74.6922 523.308 73.4349 522.496 74.1073C514.122 75.4346 505.802 75.2818 498.225 75.8787C498.092 75.8895 499.303 76.2821 497.614 76.4618C494.708 76.771 493.861 76.164 492.44 76.159C490.895 76.1508 485.589 76.6577 484.922 76.4813C484.844 76.456 485.782 75.7236 485.947 75.6912C488.237 75.2297 489.116 76.0197 489.342 76.0125C490.16 75.982 490.877 75.6026 491.615 75.5672C492.837 75.5094 493.512 75.766 495.125 75.6795C496.241 75.621 495.113 75.1139 496.175 75.0662C496.559 75.0486 500.952 76.0966 501.215 74.701C501.238 74.5462 496.745 74.6714 490.963 74.9666C488.076 75.1162 484.868 75.3109 481.863 75.5565C480.392 75.6753 478.94 75.8115 477.719 75.951C477.153 76.0126 476.575 76.0894 476.229 76.1317C475.886 76.1653 475.632 76.2347 476.331 75.9725C472.669 77.0651 468.831 78.4076 467.845 78.7987C471.066 77.9384 474.03 77.0841 476.478 76.5213C471.579 77.6621 463.326 81.4053 462.358 80.0311C448.738 83.8457 435.31 85.2312 422.497 85.8592C411.438 86.4287 399.501 86.2754 388.577 85.2918C384.45 84.8504 386.691 84.2124 380.052 83.8973C381.734 84.296 383.459 84.7028 385.177 85.1092C381.641 84.6049 366.964 83.0677 364.542 83.1248C364.249 83.128 363.781 83.7896 360.117 83.6248C356.852 83.4842 356.281 82.9508 354.563 82.7664C353.074 82.6142 351.429 82.6727 350.991 82.6258C350.653 82.5889 350.521 82.2773 349.696 82.1912C347.139 81.9268 349.235 82.8562 346.673 81.785C347.299 81.7701 347.917 81.7558 348.526 81.742C347.574 81.6607 346.485 81.5484 345.572 81.4325C343.641 81.1824 342.617 80.9077 345.565 80.8475C345.622 80.8464 345.681 80.8446 345.742 80.8436C346.543 80.8308 345.86 81.1003 346.455 81.119C367.095 81.9083 354.208 80.8459 345.565 80.8211C344.643 80.8186 343.773 80.8258 343 80.8455C340.922 80.3481 329.256 80.3309 328.859 80.2479C328.316 80.1224 330.31 79.8357 327.68 79.5096C327.133 79.4319 311.482 79.4249 317.104 78.9911C318.267 78.8968 325.774 79.1112 327.58 79.1287C323.312 78.2157 313.352 79.2971 312.227 79.2411C307.692 79.0677 320.915 78.6341 310.701 78.4403C302.839 78.3008 310.233 78.8928 307.217 79.0868C305.523 79.1866 296.599 78.5366 296.861 79.2528C293.804 79.2889 295.581 78.9361 295.204 78.9041C294.832 78.8785 288.817 79.0123 286.857 78.8397C286.621 78.8183 287.355 78.4755 287.11 78.4432C286.629 78.3899 280.829 78.3865 280.587 78.41C280.439 78.4276 281.833 78.7488 281.265 78.8133C280.603 78.8883 275 78.7222 274.696 78.7977C274.268 78.9172 281.175 78.9584 280.032 79.2713C276.844 79.1307 271.656 79.239 269.554 79.4344C270.068 79.3762 273.159 79.4406 274.235 79.4911C273.738 79.9593 267.101 79.765 269.362 79.4627C267.923 79.6199 268.91 79.7502 268.101 79.911C267.885 79.9516 265.839 79.8978 265.443 79.9627C265.399 79.9771 267.511 80.2166 267.09 80.2957C266.326 80.4416 260.104 80.1766 259.589 80.1121C258.153 79.9401 263.226 79.9836 263.647 79.8045C263.696 79.7757 259.389 79.267 259.316 79.2332C259.065 78.8857 263.861 79.2818 263.31 78.95C262.119 78.8498 260.934 78.7496 259.744 78.6493C264.318 78.4749 272.785 78.8227 274.956 78.4715C268.18 78.473 261.077 78.2644 261.077 77.4637C261.075 77.1271 263.991 76.9767 263.881 76.8856C263.444 76.5669 259.392 76.8368 259.239 76.8143C259.116 76.7935 259.058 76.7752 259.057 76.7577C259.059 76.5833 264.839 76.541 265.127 76.4559C265.609 76.3097 263.028 75.6666 263.027 75.533C263.136 75.5086 267.224 75.3885 265.834 75.1405C264.42 74.8931 260.821 74.87 260.695 74.8436C260.007 74.7034 266.288 74.5951 266.487 74.5047C266.585 74.4608 263.202 74.1949 263.098 74.12C263.018 74.0451 265.58 73.8779 266.585 73.6287C267.335 73.4437 265.137 73.3181 265.522 73.2879C265.804 73.2701 271.738 73.2253 272.034 73.1873C272.467 73.1342 271.071 72.9263 271.272 72.869C271.558 72.7862 273.474 72.8442 273.226 72.7645C273.032 72.7003 265.586 72.0412 265.624 71.8475C265.704 71.5132 273.591 72.1529 266.237 70.9422C266.177 70.9357 264.402 71.0642 264.353 71.0565C263.691 70.9251 265.473 70.6932 265.506 70.575C263.336 70.6221 261.152 70.6678 258.951 70.7069C253.623 70.8013 248.281 70.919 242.931 71.0438C243.611 71.0503 244.152 71.0724 244.471 71.118C242.211 71.3288 237.243 71.2705 235.188 71.4237C234.95 71.4426 236.274 72.2046 233.174 71.7547C232.001 71.577 235.041 71.3063 238.304 71.1541C235.859 71.2131 233.412 71.2688 230.965 71.3289C230.21 71.4688 229.667 71.6859 229.283 72.0301C235.784 72.3798 243.625 71.3768 245.598 71.3289C248.616 71.2368 245.495 71.5479 245.869 71.6053C246.007 71.6226 248.599 71.5358 248.634 71.5536C250.507 72.3675 237.055 71.889 232.828 72.162C233.965 72.2701 235.103 72.3758 236.24 72.4793C234.702 72.5324 233.164 72.5859 231.626 72.6395C238.959 72.6935 231.887 72.7304 230.079 73.5692C229.673 73.7584 234.479 73.2851 228.999 73.9686C233.052 73.9297 231.764 74.1301 235.425 73.7791C235.338 74.0792 227.097 74.7561 223.845 75.0565C235.352 74.9277 228.769 74.0726 238.719 74.2616C240.55 73.8228 235.817 74.0789 236.197 74.0028C237.579 73.733 240.839 73.94 244.746 73.0604C245.382 72.919 242.67 72.6296 246.671 72.5223C247.113 72.512 249.656 72.7426 249.635 72.7664C249.302 73.0204 246.778 73.0151 246.676 73.1219C246.589 73.222 249.393 73.0678 249.404 73.0946C249.492 73.3955 247.062 73.2933 247.414 73.3768C248.186 73.5689 258.312 73.821 245.105 74.1502C256.065 73.3758 246.504 73.7465 242.234 74.0516C241.145 74.1292 240.873 74.3314 239.322 74.4627C237.328 74.6327 234.987 74.6374 233.955 74.7166C232.844 74.8062 239.172 74.9966 230.032 75.2577C234.694 75.52 242.892 74.6623 247.462 74.7782C256.68 74.9728 241.061 75.8222 239.433 75.9784C239.002 76.0172 240.459 76.2039 240.172 76.2342C239.698 76.2837 230.827 76.6109 229.955 76.8817C229.088 77.1523 233.203 76.7041 233.485 76.9207C233.663 77.0626 222.977 77.9294 228.773 77.7215C232.771 77.566 240.114 76.5562 241.369 77.1366C235.502 77.5182 229.63 77.9114 223.752 78.2996C226.977 78.3874 230.199 78.4595 233.419 78.5194C226.83 79.0085 221.118 79.0417 214.851 79.8016C229.947 79.7726 209.974 80.818 209.749 80.9364C209.678 81.0135 215.635 81.3761 216.592 81.4373C211.347 82.0728 195.312 83.233 204.71 83.5741C203.005 83.4751 198.887 84.2711 198.941 84.3094C199.481 84.7044 208.464 83.8106 207.004 84.2821C205.314 84.8363 202.92 84.4193 200.303 84.6405C186.855 85.7509 190.579 87.8562 176.994 88.2948C177.264 88.3653 177.536 88.4349 177.806 88.5047C169.612 88.8983 161.378 89.1822 153.103 89.3055C146.461 89.4049 139.833 89.417 133.187 89.3358C127.313 90.1984 111.698 90.4946 104.054 90.0614C102.51 89.9954 95.0197 89.171 94.4555 89.0457C93.4204 88.8314 99.2133 89.059 96.6274 88.6258C96.0643 88.5604 83.38 87.6037 84.2348 88.1717C85.6507 88.3257 90.1298 88.3287 90.8578 88.4911C94.0245 89.223 79.738 88.3615 68.3803 87.4344C61.5847 86.9044 55.6447 86.3562 54.8871 86.4276C55.7412 86.6882 56.5905 86.945 57.4418 87.2C54.9642 86.8981 52.4744 86.5815 49.9623 86.2411C50.9989 86.1826 52.0496 86.124 53.0776 86.0604C50.2149 85.6887 46.2874 85.4014 43.5551 84.9227C43.1112 84.8441 44.3471 84.5173 43.2895 84.3709C42.2417 84.2241 42.3218 84.8821 40.7602 84.7567C39.0001 84.637 30.8925 83.0257 27.2172 82.1209C25.5857 81.7467 23.8564 81.3356 21.5336 80.5594C20.3129 80.1371 19.0281 79.6844 17.0737 78.7196C15.1143 77.3705 12.646 77.6109 6.61566 69.5477C4.11416 65.9107 2.02078 59.4119 2.87152 53.3944C2.94355 52.7346 3.04911 52.0882 3.17913 51.4578C0.98321 47.2628 -1.0374 39.7286 0.592219 33.0282C2.03982 26.2653 5.46542 21.8453 8.08538 19.202C8.40858 18.8764 8.78871 18.5169 9.0346 18.2918C9.24246 18.1002 9.44836 17.9174 9.64984 17.742C10.0529 17.3913 10.4432 17.0708 10.8198 16.7762C11.5733 16.1871 12.2723 15.6977 12.9213 15.2752C13.5706 14.8531 14.1704 14.4975 14.7289 14.1864C15.008 14.031 15.2768 13.8867 15.5366 13.7518C15.7836 13.6235 15.9079 13.5583 16.0873 13.4676C17.4325 12.7891 18.5348 12.336 19.516 11.9696C20.4238 11.6327 20.9396 11.4621 21.5766 11.2723C22.0941 11.1195 22.5712 10.9982 23.0297 10.8953C24.8776 10.4991 26.4402 10.4492 28.5512 10.0399C39.6357 8.04579 47.8042 7.45014 56.8442 6.82894C51.7368 9.13473 60.9538 7.32531 61.3403 7.39926C63.4592 7.76108 53.9933 8.61148 57.7494 8.65414C62.9964 8.20004 68.2071 7.80115 73.3852 7.43148C69.1188 7.45105 78.9493 5.46494 80.7797 6.0057C79.9633 4.29213 104.257 6.30933 107.864 5.59945C108.615 5.44191 103.632 4.79691 115.182 4.67465C116.439 4.66287 115.978 5.21626 116.632 5.13754C117.003 5.09225 119.166 3.44092 121.564 4.02035C121.677 4.04633 121.791 4.07769 121.905 4.11312C122.197 4.20411 121.842 4.39371 121.579 4.58578C121.358 4.75416 121.204 4.92434 121.59 5.03109C122.247 5.20673 124.419 5.19736 130.204 4.80941C124.858 3.20916 148.729 3.34296 153.013 3.80062C152.148 3.57552 151.28 3.35173 150.412 3.12875C154.706 3.70376 155.476 3.10143 156.441 3.12191C160.329 3.20789 165.645 3.77463 169.236 3.70101C173.436 3.616 173.462 2.51173 178.335 2.92172C177.181 2.68205 176.025 2.44232 174.868 2.20394C178.241 2.24681 181.604 2.29342 184.956 2.33969C177.176 3.83552 186.632 2.40537 187.251 2.36996C188.242 2.31268 186.816 2.91886 188.472 2.83773C188.642 2.82376 188.403 2.259 190.949 2.18441C196.267 2.02909 195.42 2.74702 197.648 2.72738C197.85 2.72177 197.145 2.21551 200.98 2.06918C213.14 1.58657 200.929 2.46682 200.45 2.53695C199.833 2.6331 204.024 4.75842 193.636 4.04769C197.127 4.27407 197.472 5.2187 197.866 5.24105C198.218 5.26021 204.242 5.08965 204.576 5.05258C207.53 4.70754 204.933 4.07896 205.506 3.95785C205.98 3.86271 213.213 4.64011 214.88 2.65609C218.332 4.41148 212.922 4.33291 207.114 4.65804C206.269 5.03654 212.637 5.33459 212.971 5.32699C216.441 5.28411 217.622 4.99567 217.968 4.61117C218.218 4.33455 218.036 4.00652 217.959 3.67562C217.928 3.53975 217.915 3.40286 217.956 3.26937C218.004 3.11198 218.13 2.95835 218.392 2.81429C219.327 2.30323 222.658 3.25813 219.577 1.97933C226.983 1.70326 222.504 2.55616 222.981 2.66293C223.708 2.81766 226.299 2.3825 226.629 2.42562C227.109 2.49085 225.453 2.98775 227.342 3.11019C227.657 3.12727 230.68 2.26542 226.757 1.97152C231.995 1.9691 231.556 1.29607 233.363 2.62094C236.933 -0.057272 236.024 4.08463 237.458 4.19418C241.271 4.47759 240.126 2.47411 240.323 2.36801C241.684 1.69793 252.293 2.09898 254.938 1.73226C253.929 3.22725 246.506 1.98486 244.875 2.31429C239.415 3.41144 252.631 2.83173 248.691 4.78402C250.352 4.23175 252.017 3.67852 253.685 3.12582C256.8 4.22598 252.427 4.86092 260.736 4.20394C262.069 3.14423 254.86 4.52365 256.29 3.67953C257.131 3.18292 261.955 2.95112 262.048 2.70004C262.13 2.39785 257.78 2.86985 258.456 2.39047C259.912 1.34601 275.94 1.90122 263.776 2.74594C266.725 2.65588 268.472 4.11202 270.81 4.04281C271.16 4.03244 271.523 3.98811 271.906 3.89926C272.617 3.7337 271.551 3.27945 270.781 2.785C270.121 2.36184 269.679 1.90739 270.753 1.57601C271.781 1.26038 274.196 1.052 279.164 1.11703C279.521 2.04331 272.694 1.51731 272.52 1.59554C272.275 1.70563 273.551 3.79062 273.766 3.89047C274.504 4.19725 291.07 2.80256 294.622 3.87972C293.696 3.07752 299.507 3.21289 304.013 3.33773C306.247 3.3992 308.154 3.44185 308.657 3.31918C309.052 3.21882 307.574 2.46427 307.997 2.38754C310.641 1.93286 317.802 3.31105 321.134 3.37386C324.86 3.44411 324.392 2.80048 324.6 2.80258C326.242 2.85392 324.929 3.27555 325.933 3.28402C327.445 3.29138 337.883 3.5068 338.418 3.42953C338.57 3.40256 336.871 2.6469 339.152 2.54183C339.549 2.52621 339.286 3.37883 346.057 3.12386C354.22 2.829 340.404 1.94416 343.801 1.1014ZM483.756 76.202C484.463 76.2178 484.336 78.0924 481.451 77.6405C481.072 77.5827 482.708 76.9318 482.401 76.8475C482.094 76.7875 476.396 77.1598 476.647 77.202C476.567 77.2394 476.623 77.4207 476.666 77.5916C475.525 77.8014 474.031 78.1341 472.971 78.4754C469.028 79.7511 468.538 80.4001 468.219 80.5037C467.18 80.8319 465.278 81.0672 463.055 81.6942C451.652 85.1654 434.48 87.4859 425.987 86.9481C433.611 86.8503 440.933 85.7145 448.79 84.1893C446.68 85.6476 460.305 81.0785 452.353 83.8924C454.37 83.5875 469.203 79.3002 476.595 76.7352C475.851 77.0074 476.083 76.9361 476.338 76.912C476.646 76.8687 477.017 76.8204 477.501 76.7567C478.353 76.6507 479.361 76.5384 480.23 76.4549C481.969 76.2884 483.331 76.1966 483.748 76.203C483.751 76.2027 483.754 76.2022 483.756 76.202ZM219.209 86.412C216.929 86.3159 224.573 85.6872 221.957 86.1825C221.839 86.2035 219.305 86.4155 219.209 86.412ZM383.909 85.8543C383.069 85.3211 389.366 86.0604 389.653 86.1063C391.611 86.5439 385.591 86.3346 383.909 85.8543ZM33.2895 83.7547C33.7271 83.8262 41.9778 85.0678 41.266 85.2557C39.5702 85.6472 31.8841 83.789 33.2895 83.7547ZM205.9 84.8631C205.631 84.8498 209.546 83.8412 210.656 84.2762C211.508 84.6089 206.604 84.8847 205.9 84.8631ZM377.674 83.1014C374.165 83.2109 385.121 84.1941 385.754 84.1385C385.381 83.8562 377.987 83.0852 377.674 83.1014ZM215.084 82.7264C218.516 82.207 229.192 82.8967 217.756 83.5252C217.759 83.525 217.762 83.5245 217.765 83.5243C214.787 83.6834 216.617 83.2917 216.484 83.2938C210.124 83.3905 211.818 83.8411 210.827 83.9852C208.697 84.2919 209.026 83.5513 205.431 84.1014C211.373 83.243 205.962 83.8087 205.788 83.5604C205.102 82.5619 213.716 83.5054 216.67 83.0555C217.082 82.9973 214.03 82.8948 215.084 82.7264ZM336.069 82.5828C337.603 82.2981 341.955 82.5433 344.448 82.578C344.721 83.03 337.855 82.5572 336.069 82.5828ZM363.181 82.1981C359.525 81.1873 348.527 82.1747 355.723 82.2528C355.877 82.2538 354.447 81.753 357.279 81.9442C357.521 81.9627 357.921 82.4693 361.438 82.4871C362.119 82.4901 363.271 82.2236 363.181 82.1981ZM25.0746 80.867C22.5508 80.1968 18.5806 78.7007 21.0766 79.9344C22.4808 80.661 27.9403 82.1954 29.2201 82.4061C30.0297 82.2471 27.7286 81.6297 25.0746 80.867ZM365.152 81.9315C364.318 81.7726 355.633 81.2443 358.814 81.6405C359.123 81.6683 365.039 82.15 365.152 81.9315ZM223.244 80.8358C225.611 80.8569 220.136 81.3085 218.533 81.326C218.443 81.1824 223.042 80.8342 223.244 80.8358ZM359.434 80.9881C365.171 81.1168 354.169 80.1492 355.607 80.6551C355.7 80.6835 358.851 80.9724 359.434 80.9881ZM325.099 80.4276C325.655 80.409 328.013 80.7368 329.623 80.6327C327.799 81.23 319.29 80.6211 325.099 80.4276ZM279.587 80.0321C280.036 80.0148 290.731 80.0825 288.706 80.4452C287.331 80.6968 276.805 80.1826 279.587 80.0321ZM291.748 80.0711C292.332 80.2426 290.949 80.6887 289.679 80.4237C289.134 80.3102 290.137 80.0486 291.748 80.0711ZM345.555 80.0487C339.728 79.803 330.777 79.6365 330.218 79.6952C329.994 79.7191 329.845 80.0223 329.952 80.037C330.569 80.1024 339.67 80.2159 345.559 80.2909C347.857 80.3167 349.539 80.3368 350.236 80.3241C349.547 80.2441 347.858 80.1407 345.555 80.0487ZM315.376 79.5418C316.923 79.554 315.773 79.7899 316.727 79.8084C317.337 79.8168 329.837 79.7136 328.043 80.1063C326.777 80.3654 309.628 79.82 306.859 79.7928C309.314 79.3196 311.318 79.7311 314.631 79.7567C315.524 79.7623 315.282 79.5415 315.376 79.5418ZM399.588 80.0272C402.813 79.7574 392.895 79.3374 395.756 79.8592C395.895 79.8914 399.421 80.0466 399.588 80.0272ZM279.769 79.7459C276.516 79.3493 291.101 79.6968 291.936 79.7674C290.981 79.9402 280.215 79.8064 279.769 79.7459ZM284.889 79.0936C288.346 79.2719 295.955 78.9706 292.831 79.5614C291.261 79.8544 290.221 79.4578 290.019 79.45C288.063 79.3729 284.009 79.3744 284.889 79.0936ZM363.719 79.2371C362.307 79.2036 358.45 78.7892 358.256 79.0633C359.648 79.0756 363.496 79.5083 363.719 79.2371ZM314.997 76.7938C330.547 76.9725 304.69 75.6465 315.594 77.3709C306.63 76.7219 312.668 77.5635 311.293 77.7694C309.823 77.9847 304.753 77.7121 305.021 78.1112C305.023 78.1112 305.026 78.1112 305.029 78.1112C308.127 78.1053 311.223 78.0986 314.316 78.0946C311.262 77.1869 317.593 77.4793 319.754 78.2469C320.63 78.0702 321.505 77.8925 322.38 77.7127C323.864 78.8787 324.386 77.048 327.262 78.0418C331.026 76.6716 316.768 77.9322 314.997 76.7938ZM304.152 77.9901C301.549 77.6376 296.219 77.9775 297.599 78.1034C298.209 78.1584 303.695 78.2488 304.152 77.9901ZM291.531 77.3944C288.482 77.6857 274.557 77.3741 273.832 77.412C273.275 77.4458 277.508 78.0144 270.876 77.6287C270.874 77.6287 270.871 77.6288 270.869 77.6287C275.728 78.4922 282.261 77.6558 282.98 77.6707C283.693 77.6989 282.587 78.0469 282.747 78.0584C283.125 78.0853 290.724 78.1304 291.096 78.1053C291.357 78.0859 289.968 77.5518 291.531 77.3944ZM476.679 77.6483C476.707 77.7688 476.719 77.8756 476.66 77.91C476.624 77.931 476.48 77.9383 476.393 77.911C476.33 77.8786 476.251 77.858 476.679 77.6483ZM241.888 77.8758C242.735 77.6137 252.27 76.957 252.038 77.2118C251.834 77.4311 243.387 77.7844 241.888 77.8758ZM284.779 77.7977C282.872 77.5685 288.204 77.5833 289.495 77.6717C292.364 77.8749 285.023 77.8274 284.779 77.7977ZM329.369 77.6053C332.499 78.004 330.997 76.8306 328.691 77.1112C328.559 77.128 329.224 77.5864 329.369 77.6053ZM476.679 77.6483C476.675 77.6298 476.671 77.6106 476.666 77.5916C476.739 77.5784 476.809 77.5638 476.878 77.5516C476.802 77.5868 476.736 77.6203 476.679 77.6483ZM258.99 76.1327C259.256 76.1468 258.606 76.8315 256.748 76.8426C250.926 76.8771 255.147 76.2072 242.984 77.534C248.09 76.7892 243.262 77.192 244.254 76.953C245.053 76.7648 248.057 76.721 246.306 76.5291C248.608 76.7142 258.558 76.101 259.002 76.1317C258.998 76.1319 258.994 76.1324 258.99 76.1327ZM292.379 75.9608C290.433 76.3819 282.098 76.3786 277.279 76.4246C281.519 76.6076 288.401 76.9237 292.581 77.0487C293.774 77.0849 294.925 76.9008 295.942 76.9237C297.569 76.9622 296.137 77.2306 296.245 77.2411C296.247 77.2411 296.251 77.241 296.253 77.2411C298.388 77.4005 301.112 76.793 296.563 76.7215C298.157 76.631 299.752 76.5381 301.345 76.4432C295.381 76.1064 295.843 76.9427 294.131 76.9032C291.74 76.8478 291.906 76.175 292.379 75.9608ZM354.047 76.3543C353.945 76.3662 354.789 76.742 354.896 76.7586C359.214 77.388 356.444 76.2273 354.047 76.3543ZM282.626 76.7801C280.198 76.7661 276.442 76.5978 275.124 76.8661C277.555 76.8882 281.311 77.0647 282.626 76.7801ZM311.441 76.5282C310.54 76.4143 300.979 76.5464 304.842 76.7977C305.151 76.8178 311.882 76.7065 311.441 76.5282ZM339.039 75.828C338.327 75.8155 338.122 76.3867 338.279 76.4364C339.765 76.8667 341.44 75.8793 339.039 75.828ZM325.586 75.9832C327.852 76.3313 328.37 75.3403 325.775 75.6297C325.674 75.641 325.504 75.9633 325.586 75.9832ZM294.054 74.7215C292.551 74.5175 287.437 75.089 286.388 75.2186C294.069 74.9778 291.189 75.5636 292.566 75.7518C295.487 76.1556 294.419 74.7728 294.054 74.7215ZM328.76 75.1844C327.182 75.2251 322.904 74.9845 322.295 75.2391C323.746 75.2913 328.042 75.4341 328.76 75.1844ZM254.709 74.6405C254.827 74.7673 251.235 74.9614 250.928 74.9549C248.908 74.9008 253.376 74.6151 254.709 74.6405ZM305.945 74.8299C308.632 74.6511 301.74 74.4164 300.436 74.825C301.776 74.7952 305.181 74.8799 305.945 74.8299ZM513.147 74.5067C517.448 73.5053 499.02 74.3123 503.936 74.825C504.272 74.8645 512.742 74.5991 513.147 74.5067ZM241.385 74.4637C243.407 74.5278 238.938 74.8145 237.602 74.785C237.474 74.6433 241.07 74.4548 241.385 74.4637ZM290.982 74.4129C293.189 74.9625 295.11 73.7147 291.748 73.9998C291.588 74.0136 290.89 74.3856 290.982 74.4129ZM498.781 73.8143C498.362 73.7848 493.338 74.1401 493.274 74.495C494.802 74.5081 501.377 74.0073 498.781 73.8143ZM250.452 74.3377C247.831 74.2228 254.409 73.7688 255.121 74.0496C255.234 74.1008 250.951 74.3572 250.452 74.3377ZM521.961 72.6141C524.036 72.0396 517.237 72.0769 519.168 72.6131C519.255 72.6371 521.856 72.6462 521.961 72.6141ZM45.5121 68.4051C46.0347 68.7314 46.4547 68.9583 46.8071 69.1424C46.899 68.9995 46.9951 68.8487 47.0942 68.6893C47.1273 68.6484 47.1592 68.6062 47.1918 68.5643C46.7425 68.5096 46.1909 68.4571 45.5121 68.4051ZM526.03 67.9881C527.143 68.5745 527.801 68.7367 528.134 68.9237C528.191 68.9461 528.248 68.9656 528.301 68.9862C528.35 68.9808 528.4 68.9749 528.448 68.9696C528.871 68.917 529.301 68.8769 529.41 68.7987C529.516 68.721 529.501 68.6254 528.815 68.4578C528.43 68.3648 528.068 68.2891 527.736 68.2254C527.822 68.2647 527.88 68.3025 527.929 68.3719C528.11 68.51 527.955 68.5054 527.415 68.3055C527.285 68.2349 527.118 68.1706 526.901 68.0838C526.553 68.0337 526.259 68.0026 526.03 67.9881ZM408.293 49.7352C407.941 49.7505 407.689 49.8116 407.536 49.9188C407.382 50.0413 407.245 50.256 407.122 50.5623C407 50.8686 407 51.175 407.122 51.4813C407.245 51.7876 407.567 52.2468 408.087 52.8592C408.899 53.8853 409.236 55.9607 409.098 59.0848C409.022 60.3252 408.837 61.3899 408.546 62.2782C408.271 63.1663 407.812 64.0856 407.168 65.035C406.525 65.9846 406.165 66.6593 406.088 67.0575C406.012 67.4555 406.127 67.7998 406.433 68.0907C406.739 68.3663 407.091 68.4508 407.49 68.3436C407.888 68.2364 408.279 67.9148 408.662 67.3787C409.06 66.8427 409.527 66.054 410.063 65.0125C410.599 63.9711 410.974 63.0898 411.188 62.37C411.54 61.206 411.679 59.4603 411.602 57.1327C411.525 54.805 411.273 53.2274 410.844 52.4002C410.599 51.9255 410.162 51.3585 409.535 50.7C408.907 50.0415 408.492 49.7199 408.293 49.7352ZM524.847 67.2987C525.237 67.5458 525.588 67.7502 525.905 67.9207C526.123 67.9251 526.333 67.9265 526.529 67.9266C526.216 67.7908 525.825 67.6079 525.337 67.325C525.179 67.3161 525.014 67.3072 524.847 67.2987ZM526.005 67.3631C526.433 67.6269 526.759 67.8013 527.012 67.9217C528.011 67.8967 528.42 67.7813 527.407 67.4998C527.388 67.4686 526.819 67.4165 526.005 67.3631ZM368.184 49.7811C367.847 49.6281 367.518 49.6281 367.197 49.7811C366.753 49.9802 366.162 51.2441 365.427 53.5721C364.692 55.8997 364.233 57.8216 364.049 59.3377C363.865 60.854 363.82 61.9419 363.912 62.6004C364.003 63.2589 364.233 63.9787 364.6 64.7596C365.55 66.6741 366.5 67.2867 367.45 66.5975C367.694 66.4138 367.824 66.1151 367.839 65.702C367.855 65.2885 367.748 64.9506 367.518 64.6903C366.707 63.7561 366.346 62.4011 366.438 60.6248C366.53 58.8482 367.097 56.4506 368.138 53.4334C368.689 51.8408 368.919 50.8758 368.828 50.5389C368.736 50.1868 368.521 49.9342 368.184 49.7811ZM348.066 49.7352C346.351 49.7046 345.079 49.7504 344.252 49.8729C343.425 49.9954 342.813 50.2559 342.414 50.6541C342.016 51.0524 341.756 51.7342 341.633 52.6991C341.572 53.0971 341.565 53.3955 341.611 53.5946C341.657 53.7784 341.802 53.9931 342.047 54.2381C342.323 54.483 342.614 54.6053 342.92 54.6053C343.227 54.6052 343.518 54.4372 343.793 54.1004C344.069 53.7636 344.206 53.4265 344.206 53.0897C344.222 52.7374 344.283 52.5299 344.39 52.4686C344.497 52.392 344.743 52.3543 345.125 52.3543C345.523 52.3543 345.998 52.339 346.549 52.3084C347.101 52.2778 347.515 52.2625 347.79 52.2625C348.066 52.2472 348.395 52.2697 348.778 52.3309C348.793 52.4994 348.586 53.0743 348.158 54.0545C347.729 55.0339 347.499 55.6002 347.468 55.7537C347.438 55.9069 347.331 56.0219 347.147 56.0985C346.963 56.1597 346.504 56.2442 345.769 56.3514C345.034 56.4586 344.482 56.6194 344.115 56.8338C343.747 57.0329 343.563 57.3474 343.563 57.7762C343.563 58.2048 343.671 58.5114 343.885 58.6952C344.1 58.8787 344.459 59.0011 344.964 59.0623L345.953 59.1776L345.01 61.7498C344.505 63.0823 344.252 63.9789 344.252 64.4383C344.252 64.8976 344.467 65.2347 344.896 65.4491C345.34 65.6939 345.723 65.6787 346.044 65.4032C346.366 65.1275 346.696 64.5525 347.033 63.6795C347.079 63.5555 347.362 62.8051 347.882 61.4286C348.403 60.0351 348.74 59.2157 348.893 58.9705C349.061 58.7255 349.276 58.5871 349.537 58.5565C349.568 58.5412 349.675 58.5186 349.858 58.4881C350.042 58.4575 350.578 58.4036 351.466 58.327C352.354 58.2504 352.913 58.1659 353.143 58.0741C353.388 57.9822 353.588 57.8366 353.741 57.6375C353.97 57.3007 354.008 56.9483 353.855 56.5809C353.702 56.2137 353.488 55.9844 353.212 55.8924C352.937 55.7852 352.385 55.7313 351.558 55.7313H350.248L350.823 54.4676C351.405 53.1811 351.742 52.3385 351.833 51.9403C351.925 51.5421 351.871 51.1441 351.672 50.7459C351.473 50.3478 351.251 50.0872 351.006 49.9647C350.761 49.8269 349.781 49.7505 348.066 49.7352ZM398.814 49.7352C397.099 49.7046 395.827 49.7504 395 49.8729C394.173 49.9954 393.561 50.256 393.163 50.6541C392.764 51.0523 392.504 51.7342 392.381 52.6991C392.32 53.097 392.312 53.3955 392.358 53.5946C392.404 53.7783 392.549 53.9931 392.794 54.2381C393.07 54.4831 393.361 54.6053 393.667 54.6053C393.974 54.6053 394.265 54.4372 394.54 54.1004C394.816 53.7636 394.954 53.4265 394.955 53.0897C394.97 52.7374 395.031 52.5299 395.138 52.4686C395.245 52.3922 395.491 52.3543 395.873 52.3543C396.272 52.3543 396.746 52.3391 397.297 52.3084C397.848 52.2778 398.262 52.2626 398.538 52.2625C398.813 52.2472 399.143 52.2696 399.526 52.3309C399.541 52.4994 399.335 53.0743 398.906 54.0545C398.477 55.0338 398.247 55.6001 398.216 55.7537C398.186 55.9068 398.079 56.0219 397.895 56.0985C397.711 56.1597 397.251 56.2442 396.516 56.3514C395.781 56.4586 395.23 56.6195 394.863 56.8338C394.495 57.0329 394.311 57.3474 394.311 57.7762C394.311 58.2048 394.418 58.5114 394.632 58.6952C394.847 58.8789 395.207 59.0011 395.712 59.0623L396.7 59.1776L395.758 61.7498C395.253 63.0823 395 63.9789 395 64.4383C395.001 64.8976 395.214 65.2347 395.643 65.4491C396.087 65.6941 396.471 65.6788 396.792 65.4032C397.114 65.1274 397.443 64.5524 397.78 63.6795C397.826 63.5561 398.11 62.8059 398.63 61.4286C399.151 60.0349 399.488 59.2156 399.641 58.9705C399.809 58.7256 400.023 58.5872 400.284 58.5565C400.314 58.5412 400.422 58.5188 400.606 58.4881C400.79 58.4575 401.326 58.4035 402.213 58.327C403.102 58.2504 403.661 58.166 403.891 58.0741C404.136 57.9822 404.335 57.8365 404.488 57.6375C404.717 57.3006 404.756 56.9484 404.603 56.5809C404.45 56.2134 404.235 55.9843 403.959 55.8924C403.684 55.7853 403.133 55.7313 402.306 55.7313H400.997L401.571 54.4676C402.153 53.1812 402.49 52.3385 402.581 51.9403C402.673 51.5422 402.619 51.144 402.42 50.7459C402.221 50.3478 401.999 50.0872 401.754 49.9647C401.509 49.8269 400.529 49.7505 398.814 49.7352ZM388.322 51.3202C387.418 49.9111 386.07 49.4593 384.278 49.9647C383.727 50.1178 383.206 50.4091 382.716 50.8377C382.241 51.2666 381.866 51.7265 381.59 52.2166C381.315 52.7066 381.176 53.1892 381.176 53.6639C381.176 54.1385 381.345 54.4827 381.682 54.6971C382.448 55.2178 383.13 54.8962 383.727 53.7323C383.987 53.1811 384.24 52.8135 384.485 52.6297C384.73 52.446 385.075 52.3615 385.519 52.3768C386.147 52.377 386.361 52.8136 386.162 53.6864C386.054 54.0846 385.909 54.3756 385.725 54.5594C385.541 54.7431 385.228 54.9193 384.784 55.0877C383.712 55.4246 383.175 55.9072 383.175 56.535C383.175 57.2241 383.719 57.6994 384.806 57.9598C385.511 58.1129 386.184 58.3735 386.828 58.7411C387.471 59.1086 387.916 59.4608 388.161 59.7977L388.62 60.4178L388.137 61.0155C387.693 61.6277 386.935 61.8652 385.863 61.7274C384.791 61.5895 383.903 61.1447 383.199 60.3944C382.678 59.843 382.203 59.552 381.774 59.5213C381.345 59.4907 381.008 59.7361 380.763 60.2567C380.61 60.5474 380.549 60.7695 380.58 60.9227C380.61 61.0758 380.756 61.3598 381.016 61.7733C381.782 62.9065 382.992 63.672 384.646 64.0702C385.871 64.3764 386.836 64.469 387.54 64.3465C388.245 64.224 388.934 63.8556 389.608 63.243C390.726 62.1711 391.147 60.9922 390.872 59.7059C390.596 58.4194 389.669 57.3162 388.091 56.3973C387.984 56.3361 387.931 56.2595 387.931 56.1678C387.931 56.0759 388.038 55.8765 388.252 55.5702C388.467 55.2638 388.597 54.705 388.643 53.8934C388.689 53.082 388.696 52.523 388.665 52.2166C388.635 51.9104 388.521 51.6111 388.322 51.3202ZM484.747 51.3202C483.843 49.9113 482.495 49.4595 480.704 49.9647C480.152 50.1178 479.631 50.409 479.141 50.8377C478.666 51.2666 478.291 51.7265 478.015 52.2166C477.74 52.7066 477.602 53.1892 477.602 53.6639C477.602 54.1384 477.77 54.4827 478.107 54.6971C478.873 55.2178 479.554 54.8962 480.152 53.7323C480.412 53.1811 480.665 52.8135 480.91 52.6297C481.155 52.4459 481.5 52.3615 481.944 52.3768C482.572 52.3768 482.786 52.8136 482.587 53.6864C482.48 54.0844 482.334 54.3756 482.151 54.5594C481.967 54.7432 481.653 54.9193 481.208 55.0877C480.136 55.4246 479.6 55.9072 479.6 56.535C479.6 57.2242 480.144 57.6994 481.232 57.9598C481.936 58.113 482.61 58.3735 483.253 58.7411C483.896 59.1086 484.34 59.4608 484.585 59.7977L485.045 60.4178L484.563 61.0155C484.119 61.6279 483.36 61.8651 482.289 61.7274C481.216 61.5895 480.328 61.1448 479.623 60.3944C479.103 59.8431 478.627 59.552 478.199 59.5213C477.77 59.4909 477.433 59.7362 477.188 60.2567C477.035 60.5474 476.974 60.7696 477.004 60.9227C477.035 61.0758 477.18 61.3598 477.441 61.7733C478.207 62.9066 479.417 63.672 481.071 64.0702C482.296 64.3764 483.261 64.469 483.965 64.3465C484.67 64.224 485.359 63.8556 486.033 63.243C487.151 62.171 487.572 60.9923 487.296 59.7059C487.021 58.4195 486.094 57.3162 484.517 56.3973C484.41 56.3361 484.356 56.2596 484.356 56.1678C484.356 56.0759 484.463 55.8764 484.677 55.5702C484.892 55.2639 485.022 54.7051 485.068 53.8934C485.114 53.082 485.122 52.523 485.091 52.2166C485.061 51.9103 484.946 51.6111 484.747 51.3202ZM438.651 50.3787C438.283 50.3787 437.41 50.9914 436.032 52.2166C434.807 53.2578 434.048 53.9847 433.757 54.3983C433.466 54.8117 433.458 55.2332 433.734 55.662C434.009 56.0906 434.316 56.3054 434.653 56.3055C434.99 56.3055 435.465 56.0755 436.078 55.6161C436.69 55.1567 437.027 54.9266 437.088 54.9266C437.15 54.9266 437.141 55.0884 437.065 55.41C436.988 55.7332 436.951 57.602 436.951 61.0155L434.997 61.2215C434.125 61.3134 433.566 61.406 433.321 61.4979C433.076 61.5898 432.876 61.7577 432.723 62.0028C432.57 62.2784 432.494 62.4779 432.494 62.6004C432.494 62.7229 432.594 62.9217 432.792 63.1971L433.206 63.8182C433.496 63.8029 434.071 63.7795 434.929 63.7489C435.787 63.7182 436.491 63.6877 437.042 63.6571C437.594 63.6264 438.198 63.6183 438.857 63.6336C439.515 63.6489 440.098 63.711 440.603 63.8182C441.108 63.9254 441.469 63.9712 441.683 63.9559C441.897 63.9406 442.104 63.8408 442.303 63.6571C442.809 63.1976 442.908 62.7376 442.602 62.2782C442.296 61.8188 441.698 61.4899 440.81 61.2909C439.922 61.0918 439.47 60.9839 439.455 60.9686C439.394 60.9189 439.447 59.4411 439.616 56.535C439.769 53.6252 439.891 52.0323 439.983 51.7567C440.075 51.4811 439.968 51.1827 439.662 50.8612C439.355 50.5396 439.018 50.3788 438.651 50.3787ZM469.24 49.6893C468.29 49.3983 467.371 49.4899 466.483 49.9647C465.962 50.2404 465.349 50.8378 464.645 51.7567C463.94 52.6756 463.588 53.3117 463.588 53.6639C463.588 54.016 463.719 54.2992 463.979 54.5135C464.239 54.7278 464.522 54.8347 464.829 54.8348C465.135 54.8348 465.395 54.7512 465.61 54.5828C465.84 54.4144 466.146 54.0693 466.529 53.5487C467.08 52.8596 467.532 52.4464 467.884 52.3084C468.236 52.1553 468.581 52.2163 468.918 52.492C469.255 52.7676 469.531 53.1119 469.746 53.5252C469.96 53.9387 470.067 54.299 470.067 54.6053C470.067 54.9116 469.026 56.137 466.943 58.2811C464.86 60.41 463.818 61.6281 463.818 61.9344C463.818 62.2252 463.964 62.4932 464.254 62.7381C464.545 62.9832 464.936 63.1358 465.426 63.1971C465.916 63.2584 467.157 63.3276 469.148 63.4041C471.139 63.4807 472.486 63.5957 473.191 63.7489C473.895 63.902 474.355 63.9712 474.57 63.9559C474.784 63.9405 475.014 63.8255 475.259 63.6112C475.504 63.3968 475.626 63.1128 475.626 62.7606C475.626 62.4086 475.489 62.11 475.213 61.8651C474.938 61.62 474.24 61.39 473.122 61.1756C472.02 60.9612 470.925 60.8543 469.837 60.8543H467.93C470.181 58.603 471.545 57.1558 472.02 56.5125C473 55.0729 472.862 53.4181 471.606 51.5496C470.978 50.6003 470.189 49.9803 469.24 49.6893ZM515.647 50.7918C514.606 49.965 513.296 49.7969 511.719 50.287C511.061 50.5014 510.409 50.9146 509.766 51.5272C509.123 52.1398 508.625 52.837 508.273 53.618C507.553 55.1035 507.377 56.8492 507.745 58.8553C508.112 60.8616 508.886 62.2935 510.065 63.1512C510.509 63.4881 511.098 63.6723 511.833 63.703C512.569 63.7336 513.205 63.6186 513.741 63.3582C515.226 62.6078 516.306 61.4822 516.98 59.9813C517.654 58.4804 517.86 56.7798 517.6 54.8807C517.34 52.9818 516.688 51.6188 515.647 50.7918ZM376.6 50.7225C375.758 50.2173 374.923 50.0411 374.096 50.1942C373.269 50.3473 372.557 50.6465 371.959 51.0907C371.362 51.5348 370.895 52.0478 370.558 52.6297C370.344 53.0279 370.237 53.6022 370.237 54.3524C370.237 55.1028 370.344 55.7389 370.558 56.2596C370.772 56.7803 371.133 57.2708 371.638 57.7303C372.143 58.1897 372.634 58.4575 373.109 58.534C373.339 58.6105 373.806 58.5872 374.51 58.4647C375.214 58.3422 375.628 58.2892 375.75 58.3045C375.811 58.3669 375.75 59.0102 375.567 60.2342C375.352 61.459 375.322 62.3164 375.475 62.8065C375.628 63.2966 376.034 63.5418 376.693 63.5418C377.075 63.557 377.359 63.4115 377.542 63.1053C377.726 62.7989 377.879 62.2319 378.001 61.4051C378.093 60.5781 378.323 59.2914 378.691 57.5457C379.058 55.8004 379.227 54.6366 379.197 54.0545C379.166 53.4725 378.936 53.1042 378.507 52.951C378.186 52.8591 378.025 52.6372 378.025 52.285C378.025 51.9328 377.94 51.665 377.772 51.4813C377.603 51.2975 377.213 51.0441 376.6 50.7225ZM450.823 50.034C449.888 49.8196 448.946 49.9265 447.997 50.3553C446.726 50.922 445.723 52.0478 444.988 53.7323C444.253 55.4168 443.999 57.1859 444.229 59.0389C444.321 59.7281 444.589 60.4405 445.034 61.1756C445.478 61.9106 445.967 62.4237 446.503 62.7147C447.346 63.2048 448.41 63.3737 449.697 63.2205C450.983 63.0674 452.048 62.6461 452.89 61.9569C454.1 60.9614 454.567 59.7666 454.291 58.3729C454.016 56.9793 453.112 55.9452 451.581 55.2713C451.136 55.0723 450.761 54.9501 450.455 54.9041C450.148 54.8583 449.643 54.8816 448.939 54.9735C448.234 55.0654 447.805 55.1417 447.652 55.203C447.499 55.2641 447.392 55.2866 447.331 55.2713C447.086 55.2559 447.177 54.8964 447.606 54.1922C448.035 53.4878 448.487 53.0125 448.961 52.7674C449.436 52.5224 449.812 52.438 450.087 52.5145C450.363 52.5911 450.624 52.8444 450.869 53.2733C451.114 53.702 451.435 53.924 451.833 53.9393C452.216 53.924 452.546 53.809 452.822 53.5946C453.097 53.3802 453.235 53.1042 453.235 52.7674C453.235 52.4305 453.089 52.0019 452.798 51.4813C452.415 50.7309 451.757 50.2485 450.823 50.034ZM430.414 49.9647C430.092 49.6431 428.613 49.6736 425.979 50.0565C425.244 50.179 424.685 50.2716 424.302 50.3328C423.919 50.3941 423.544 50.501 423.176 50.6541C422.809 50.8072 422.548 50.9447 422.395 51.0672C422.242 51.1898 422.104 51.4199 421.982 51.7567C421.859 52.0936 421.783 52.4233 421.752 52.745C421.722 53.0666 421.676 53.6409 421.615 54.4676C421.553 55.2945 421.538 55.8228 421.569 56.0526C421.599 56.2822 421.722 56.5042 421.936 56.7186C422.15 56.933 422.411 57.0561 422.717 57.0868C423.024 57.1174 423.697 57.1245 424.739 57.1092C425.78 57.0786 426.592 57.1559 427.174 57.3397C427.771 57.5235 428.177 57.8452 428.391 58.3045C428.514 58.5342 428.537 58.7256 428.46 58.8787C428.368 59.032 428.077 59.3231 427.587 59.7518C427.097 60.1805 426.661 60.4412 426.278 60.533C425.895 60.6555 425.343 60.6393 424.623 60.4862C423.904 60.3331 423.375 60.3331 423.039 60.4862C422.702 60.6393 422.51 60.9306 422.464 61.3592C422.403 61.7881 422.503 62.1412 422.763 62.4168C423.024 62.6924 423.621 62.9216 424.555 63.1053C425.489 63.2891 426.263 63.2891 426.875 63.1053C427.503 62.9062 428.323 62.4012 429.333 61.5897C430.344 60.778 430.911 60.1114 431.034 59.5907C431.263 58.6872 431.133 57.8219 430.643 56.995C430.153 56.168 429.364 55.5095 428.277 55.0194C427.695 54.7131 427.235 54.5289 426.898 54.4676C426.561 54.4064 426.109 54.3982 425.542 54.4442L424.21 54.5135C424.21 53.5796 424.272 53.0666 424.394 52.9745C424.562 52.9132 425.49 52.7677 427.174 52.5379C428.859 52.3082 429.785 52.1393 429.954 52.0321C430.244 51.9096 430.436 51.7874 430.528 51.6649C430.62 51.5424 430.665 51.2745 430.665 50.8612C430.665 50.4324 430.582 50.1332 430.414 49.9647ZM505.48 49.9647C505.158 49.6433 503.68 49.6737 501.046 50.0565C500.311 50.179 499.752 50.2716 499.37 50.3328C498.987 50.3941 498.611 50.501 498.244 50.6541C497.876 50.8073 497.615 50.9447 497.462 51.0672C497.309 51.1897 497.172 51.4198 497.049 51.7567C496.927 52.0936 496.849 52.4233 496.819 52.745C496.788 53.0667 496.742 53.6409 496.681 54.4676C496.62 55.2944 496.605 55.8227 496.635 56.0526C496.666 56.2823 496.789 56.5042 497.003 56.7186C497.218 56.933 497.478 57.0561 497.785 57.0868C498.091 57.1173 498.765 57.1245 499.806 57.1092C500.847 57.0786 501.659 57.156 502.241 57.3397C502.838 57.5235 503.244 57.8451 503.458 58.3045C503.581 58.5342 503.604 58.7256 503.528 58.8787C503.436 59.0319 503.145 59.323 502.655 59.7518C502.165 60.1806 501.728 60.4411 501.345 60.533C500.962 60.6556 500.411 60.6393 499.691 60.4862C498.971 60.3331 498.443 60.3331 498.106 60.4862C497.769 60.6393 497.578 60.9306 497.532 61.3592C497.47 61.7881 497.57 62.1412 497.831 62.4168C498.091 62.6923 498.689 62.9216 499.622 63.1053C500.556 63.289 501.329 63.289 501.942 63.1053C502.57 62.9062 503.39 62.4014 504.401 61.5897C505.412 60.778 505.977 60.1114 506.1 59.5907C506.33 58.6872 506.2 57.8219 505.71 56.995C505.22 56.1681 504.431 55.5094 503.344 55.0194C502.762 54.7131 502.302 54.5289 501.965 54.4676C501.628 54.4064 501.176 54.3982 500.61 54.4442L499.278 54.5135C499.278 53.5793 499.339 53.0663 499.461 52.9745C499.63 52.9132 500.557 52.7676 502.241 52.5379C503.925 52.3082 504.852 52.1393 505.021 52.0321C505.312 51.9096 505.503 51.7874 505.595 51.6649C505.687 51.5424 505.733 51.2744 505.733 50.8612C505.733 50.4323 505.648 50.1332 505.48 49.9647ZM334.372 51.7108C334.219 51.7261 334.082 51.7495 333.959 51.7801C333.837 51.826 333.745 51.8945 333.684 51.9862C333.623 52.0781 333.561 52.1554 333.499 52.2166C333.469 52.278 333.438 52.3926 333.408 52.5604C333.377 52.7286 333.362 52.8591 333.362 52.951C333.331 53.0429 333.309 53.2118 333.293 53.4569V55.5018H332.167C331.279 55.4865 330.666 55.7236 330.33 56.2137C329.993 56.7038 330.092 57.2096 330.628 57.7303C330.935 58.0364 331.478 58.1893 332.259 58.1893H333.477L333.569 59.66C333.63 60.6396 333.798 61.2293 334.074 61.4286C334.594 61.8114 335.124 61.8114 335.66 61.4286C335.843 61.2907 335.958 61.1146 336.004 60.9002C336.05 60.6859 336.057 60.2877 336.027 59.7059L335.981 58.3045L337.658 58.3504C338.561 58.3964 339.213 58.3272 339.611 58.1434C340.009 57.9596 340.208 57.6227 340.208 57.1327C340.208 56.6426 340.039 56.3057 339.703 56.1219C339.366 55.9381 338.707 55.8079 337.727 55.7313L335.866 55.6161L335.751 53.87C335.69 52.9206 335.582 52.323 335.429 52.078C335.276 51.8332 334.923 51.7108 334.372 51.7108ZM38.8266 60.9422C38.7703 60.9705 38.7143 60.9978 38.6606 61.0243C38.5535 61.0771 38.4511 61.1266 38.3539 61.1727C38.3243 61.1868 38.2948 61.2002 38.266 61.2137C38.2791 61.2335 38.2921 61.2536 38.3051 61.2733C38.4216 61.2458 38.5557 61.2273 38.7133 61.2245C38.9557 61.2221 39.1699 61.2226 39.3569 61.2254C39.5091 61.1511 39.6694 61.0655 39.8412 60.9715C39.5788 60.9218 39.3195 60.871 39.0629 60.8211C38.9804 60.8635 38.8897 60.9107 38.8266 60.9422ZM512.455 52.7909C513.144 52.4847 513.733 52.5915 514.223 53.1121C514.851 53.8013 515.164 54.9423 515.164 56.535C515.164 58.1278 514.614 59.407 513.511 60.3719C512.899 60.908 512.369 61.1379 511.925 61.0614C511.481 60.9846 511.083 60.6091 510.731 59.9354C510.394 59.2156 510.211 58.3271 510.18 57.2703C510.149 56.2137 510.302 55.3638 510.639 54.7205C511.16 53.7403 511.765 53.0972 512.455 52.7909ZM449.582 57.5457C450.195 57.5458 450.654 57.6536 450.96 57.868C451.481 58.2968 451.757 58.7101 451.788 59.1082C451.818 59.5063 451.566 59.8586 451.03 60.1649C450.494 60.4712 449.903 60.6248 449.26 60.6248C448.617 60.6248 448.204 60.5781 448.02 60.4862C447.836 60.3943 447.614 60.2109 447.354 59.9354C446.833 59.3075 446.664 58.7253 446.848 58.1893C446.894 58.1893 447.208 58.0824 447.79 57.868C448.372 57.6536 448.97 57.5457 449.582 57.5457ZM459.872 56.7186C458.922 56.6573 458.11 56.6726 457.436 56.7645C456.762 56.887 456.31 57.0407 456.081 57.2245C455.851 57.4083 455.736 57.7147 455.736 58.1434C455.736 58.5721 455.966 58.8704 456.425 59.0389C456.915 59.2074 457.773 59.2918 458.998 59.2918C460.224 59.2918 461.066 59.2074 461.526 59.0389C461.985 58.8704 462.214 58.5487 462.214 58.0741C462.214 57.5996 462.061 57.2705 461.755 57.0868C461.449 56.903 460.821 56.7799 459.872 56.7186ZM492.896 56.7186C491.946 56.6573 491.134 56.6726 490.46 56.7645C489.786 56.887 489.335 57.0407 489.105 57.2245C488.875 57.4082 488.76 57.7146 488.76 58.1434C488.76 58.5722 488.99 58.8704 489.45 59.0389C489.94 59.2074 490.798 59.2918 492.023 59.2918C493.248 59.2918 494.09 59.2073 494.549 59.0389C495.009 58.8704 495.239 58.5488 495.239 58.0741C495.239 57.5997 495.086 57.2705 494.78 57.0868C494.473 56.903 493.845 56.7799 492.896 56.7186ZM374.602 52.7674C374.786 52.7675 375.023 52.8286 375.314 52.951C375.605 53.0735 375.888 53.1967 376.164 53.3192C376.439 53.4417 376.593 53.5333 376.623 53.5946C376.654 53.6558 376.654 53.7323 376.623 53.8241C376.562 53.916 376.471 54.0391 376.348 54.1922C376.226 54.3453 376.034 54.5521 375.774 54.8123C375.054 55.5322 374.433 55.9077 373.913 55.9383C373.392 55.9689 373.032 55.6471 372.832 54.9735C372.695 54.5446 372.718 54.1457 372.902 53.7782C373.086 53.4108 373.369 53.15 373.751 52.9969C374.134 52.8438 374.418 52.7674 374.602 52.7674ZM408.687 26.6512C408.044 26.6206 407.584 26.6358 407.308 26.6971C407.032 26.7584 406.741 26.8968 406.435 27.1112C405.302 27.8769 404.506 29.1403 404.046 30.9012C403.878 31.5598 403.786 32.035 403.771 32.326C403.756 32.617 403.809 32.9926 403.931 33.452C404.299 34.7996 405.111 35.8409 406.367 36.576C407.102 37.0354 407.814 37.2502 408.503 37.2196C409.192 37.1889 409.936 36.9283 410.732 36.4383C410.931 36.2852 411.138 36.1315 411.352 35.9784C411.566 35.8253 411.75 35.6796 411.903 35.5418C412.056 35.404 412.149 35.2971 412.179 35.2205C412.317 34.8989 412.317 34.5692 412.179 34.2323C412.041 33.8954 411.803 33.651 411.466 33.4979C411.206 33.406 410.984 33.3826 410.8 33.4286C410.616 33.4746 410.218 33.6893 409.606 34.0721C408.994 34.4547 408.58 34.646 408.366 34.6463C408.151 34.6463 407.768 34.4163 407.216 33.9569C406.91 33.6506 406.703 33.4053 406.596 33.2215C406.489 33.0377 406.435 32.7771 406.435 32.4403C406.45 31.6135 406.711 30.8325 407.216 30.0975C407.722 29.3624 408.197 29.0784 408.641 29.2469C408.886 29.3235 409.223 29.5922 409.652 30.0516C410.08 30.5107 410.409 30.7632 410.639 30.8094C410.869 30.8553 411.16 30.7483 411.512 30.4881C411.834 30.289 411.995 29.9898 411.995 29.5916C411.994 29.1935 411.818 28.7343 411.466 28.2137C411.114 27.6932 410.724 27.3103 410.295 27.0653C409.867 26.8202 409.33 26.6819 408.687 26.6512ZM441.644 26.6512C441.001 26.6206 440.541 26.6358 440.265 26.6971C439.989 26.7584 439.698 26.8968 439.392 27.1112C438.259 27.8769 437.463 29.1402 437.003 30.9012C436.835 31.5598 436.742 32.035 436.727 32.326C436.712 32.617 436.766 32.9926 436.888 33.452C437.256 34.7995 438.068 35.8409 439.324 36.576C440.059 37.0352 440.77 37.2501 441.459 37.2196C442.148 37.1889 442.892 36.9283 443.688 36.4383C443.887 36.2852 444.095 36.1315 444.309 35.9784C444.523 35.8253 444.707 35.6796 444.86 35.5418C445.013 35.4042 445.104 35.2971 445.135 35.2205C445.273 34.8989 445.273 34.5692 445.135 34.2323C444.997 33.8956 444.76 33.651 444.423 33.4979C444.163 33.406 443.941 33.3826 443.757 33.4286C443.573 33.4745 443.175 33.6893 442.563 34.0721C441.95 34.455 441.536 34.6463 441.322 34.6463C441.107 34.6461 440.724 34.4161 440.173 33.9569C439.867 33.6506 439.66 33.4053 439.553 33.2215C439.446 33.0377 439.392 32.7771 439.392 32.4403C439.407 31.6134 439.668 30.8325 440.173 30.0975C440.679 29.3624 441.154 29.0784 441.598 29.2469C441.843 29.3236 442.18 29.5923 442.609 30.0516C443.037 30.5107 443.366 30.7633 443.596 30.8094C443.826 30.8553 444.117 30.7484 444.469 30.4881C444.791 30.289 444.952 29.9898 444.952 29.5916C444.951 29.1935 444.775 28.7343 444.423 28.2137C444.071 27.693 443.68 27.3103 443.251 27.0653C442.823 26.8203 442.287 26.6819 441.644 26.6512ZM419.89 25.9159C418.389 25.8546 417.255 25.8546 416.49 25.9159C415.724 26.0077 415.219 26.0698 414.974 26.1004C414.729 26.1311 414.53 26.184 414.376 26.2606C414.223 26.3371 414.055 26.4829 413.872 26.6971C413.688 26.9115 413.619 27.1874 413.664 27.5243C413.726 27.8458 413.909 28.1217 414.215 28.3514C414.445 28.5658 415.027 28.6197 415.961 28.5125L417.317 28.3748L417.5 29.6375C417.608 30.4646 417.623 31.5677 417.546 32.9461C417.47 34.3245 417.447 35.1672 417.478 35.4735C417.509 35.7796 417.624 36.0323 417.823 36.2313C418.405 36.8132 418.994 36.8051 419.591 36.2078C419.836 35.9628 419.982 35.5037 420.028 34.8299C420.074 34.1561 420.074 32.6935 420.028 30.4422L419.982 28.3514L420.648 28.4891C421.919 28.7341 422.831 28.727 423.382 28.4666C423.934 28.2063 424.125 27.7005 423.956 26.95C423.849 26.5825 423.52 26.3372 422.968 26.2147C422.417 26.0769 421.391 25.9771 419.89 25.9159ZM373.348 22.1942C372.935 22.2248 372.574 22.3857 372.268 22.6766C371.609 23.3811 370.645 25.679 369.373 29.5692C368.776 31.4223 368.331 32.7393 368.04 33.5203C367.734 34.3014 367.612 34.853 367.673 35.1746C367.735 35.4962 367.995 35.764 368.455 35.9784C368.914 36.1928 369.32 36.1083 369.672 35.7254C370.024 35.3424 370.407 34.5615 370.821 33.3827L371.533 31.4071L376.38 31.2694L377.483 33.245C377.958 34.0719 378.303 34.6083 378.517 34.8534C378.747 35.0828 379.03 35.2277 379.367 35.2889C379.704 35.3502 380.018 35.2433 380.309 34.9676C380.6 34.6921 380.707 34.3629 380.63 33.9803C380.6 33.8578 380.385 33.4058 379.987 32.6248C379.589 31.8592 379.099 30.9399 378.517 29.868C377.935 28.7959 377.36 27.7386 376.793 26.6971C376.196 25.6558 375.668 24.7447 375.208 23.9637C374.749 23.183 374.466 22.7311 374.359 22.6082C374.099 22.302 373.761 22.1637 373.348 22.1942ZM37.9682 35.9832C37.7946 35.9428 37.8376 35.9809 37.9701 36.0467C38.0201 36.0412 38.0703 36.0366 38.1205 36.0311C38.0567 36.01 38.0087 35.9957 37.9682 35.9832ZM447.77 25.5028C447.586 25.5028 447.387 25.5791 447.172 25.7323C446.958 25.8854 446.836 26.0085 446.805 26.1004C446.774 26.1925 446.729 26.3993 446.667 26.7205C446.606 27.0422 446.591 27.4788 446.622 28.0301C446.637 28.5816 446.652 29.8224 446.667 31.7518C446.698 33.681 446.805 34.7682 446.989 35.0135C447.172 35.2279 447.548 35.3195 448.115 35.2889C448.681 35.2582 449.133 35.1208 449.47 34.8758C449.807 34.6308 450.236 34.1868 450.756 33.5438C451.277 32.9005 451.599 32.5016 451.721 32.3485C451.859 32.1955 451.981 32.0578 452.088 31.9354L452.594 31.4295C452.64 31.3839 452.671 31.3687 452.686 31.3836C452.778 31.4449 452.854 32.0118 452.915 33.0838C452.977 34.1559 453.107 34.8683 453.306 35.2205C453.505 35.5728 453.835 35.7489 454.294 35.7489C454.753 35.7488 455.083 35.6111 455.282 35.3358C455.527 35.0601 455.626 34.6459 455.581 34.0946L455.259 29.9598C455.229 29.1636 455.152 28.566 455.03 28.1678C454.907 27.7696 454.669 27.4704 454.317 27.2713C453.597 26.9043 452.479 27.5788 450.963 29.2938L449.539 30.9246L449.24 28.6043C449.117 27.6548 449.01 27.0035 448.918 26.6512C448.826 26.3144 448.658 26.0384 448.414 25.8241C448.169 25.6097 447.954 25.5028 447.77 25.5028ZM383.134 25.5028C382.828 25.5028 382.598 25.5945 382.445 25.7782C382.292 25.9466 382.192 26.1766 382.146 26.4676C382.1 26.7432 382.069 27.172 382.054 27.7537C382.039 28.3357 382.031 29.1865 382.031 30.3045C382.031 31.4224 382.046 32.2419 382.077 32.7625C382.092 33.2832 382.146 33.7352 382.238 34.118C382.345 34.5008 382.468 34.7228 382.606 34.784C382.744 34.8452 383.012 34.8758 383.41 34.8758C383.808 34.8758 384.106 34.7302 384.305 34.4393C384.504 34.1483 384.604 33.6506 384.604 32.9461V31.7284L386.442 31.8661C387.621 31.9426 388.279 32.02 388.417 32.0965C388.555 32.1731 388.579 32.4408 388.487 32.9002C388.395 33.3597 388.471 33.7658 388.716 34.118C388.961 34.4701 389.283 34.6463 389.681 34.6463C390.095 34.6463 390.394 34.5466 390.578 34.3475C390.761 34.1331 390.884 33.7574 390.945 33.2215C391.006 32.6855 391.045 31.8355 391.06 30.6717V28.9715C391.06 28.6348 391.037 28.3363 390.991 28.076C390.945 27.8003 390.891 27.6161 390.83 27.5243C390.768 27.4324 390.661 27.31 390.508 27.1571C390.003 26.6363 389.512 26.5438 389.038 26.8807C388.563 27.2176 388.372 27.7847 388.463 28.5809L388.579 29.5233L386.741 29.3856C385.531 29.2784 384.903 29.2092 384.857 29.1786C384.811 29.1173 384.735 28.7038 384.627 27.9383C384.52 27.1726 384.412 26.6362 384.305 26.3299C384.198 26.0236 384.052 25.8089 383.869 25.6864C383.685 25.564 383.44 25.5028 383.134 25.5028ZM464.27 24.6756C463.351 24.4459 462.378 24.4235 461.352 24.6073C460.877 24.6838 460.41 24.8132 459.951 24.9969C459.491 25.15 459.063 25.3496 458.664 25.5946C458.266 25.8395 457.975 26.0615 457.791 26.2606C457.608 26.4595 457.477 26.6205 457.401 26.743C457.324 26.8655 457.255 27.0039 457.194 27.1571C457.133 27.3101 457.087 27.4631 457.056 27.6161C457.025 27.7692 456.995 27.9992 456.964 28.3055C456.934 28.5965 456.926 28.857 456.941 29.0868C456.971 29.3163 457.026 29.4998 457.102 29.6375C457.194 29.76 457.316 29.9138 457.469 30.0975C457.622 30.2812 457.761 30.434 457.883 30.5565C458.006 30.679 458.128 30.7869 458.25 30.8787C458.373 30.9706 458.496 31.047 458.619 31.1082C458.726 31.1695 458.871 31.2459 459.055 31.3377C459.239 31.4295 459.361 31.506 459.422 31.5672C459.468 31.6438 459.43 31.7669 459.307 31.9354C459.185 32.1036 458.955 32.1883 458.619 32.1883C458.282 32.2036 457.952 32.3492 457.63 32.6248C457.309 32.9003 457.148 33.1603 457.148 33.4051C457.148 33.6502 457.302 33.926 457.608 34.2323C457.914 34.5385 458.151 34.7228 458.32 34.784C458.488 34.8452 458.848 34.8218 459.399 34.7147C459.95 34.6228 460.525 34.3093 461.122 33.7733L463.948 31.4754L464.017 32.6473C464.063 33.5356 464.293 34.1411 464.706 34.4627C465.135 34.784 465.625 34.7375 466.176 34.3241L466.337 34.1639C466.383 34.118 466.429 34.0254 466.475 33.8875C466.521 33.75 466.552 33.6048 466.567 33.452C466.582 33.2989 466.606 33.0534 466.636 32.7166C466.667 32.3798 466.674 32.0274 466.659 31.66C466.659 31.2924 466.667 30.5109 466.682 29.3162C466.697 28.1217 466.689 27.2943 466.659 26.8348C466.628 26.3756 466.521 26.0313 466.337 25.8016C465.878 25.2809 465.189 24.9054 464.27 24.6756ZM397.036 25.5028C396.209 25.4721 395.535 25.5944 395.014 25.87C394.493 26.1456 394.079 26.399 393.773 26.6287C393.482 26.8584 393.245 27.1192 393.061 27.41C392.893 27.7009 392.74 28.1065 392.602 28.6268C392.464 29.1475 392.418 29.6991 392.464 30.2811C392.51 30.8937 392.671 31.4453 392.947 31.9354C393.222 32.4253 393.567 32.8541 393.98 33.2215C394.393 33.5891 394.861 33.8425 395.381 33.9803C395.902 34.1182 396.438 34.11 396.99 33.9569C397.541 33.8037 398.093 33.5055 398.644 33.0614L399.425 32.3719L399.655 33.0155C399.915 33.7044 400.237 34.1332 400.62 34.3016C400.987 34.4852 401.401 34.3935 401.86 34.0262L402.388 33.6121L401.883 31.1541C401.592 29.5002 401.493 28.5201 401.584 28.2137C401.676 27.9074 401.507 27.5553 401.079 27.1571C400.68 26.759 400.114 26.3914 399.379 26.0545C398.644 25.7176 397.863 25.5334 397.036 25.5028ZM429.993 25.5028C429.166 25.4721 428.492 25.5944 427.971 25.87C427.45 26.1456 427.036 26.399 426.73 26.6287C426.439 26.8584 426.202 27.1191 426.018 27.41C425.85 27.7009 425.697 28.1065 425.559 28.6268C425.421 29.1475 425.374 29.6991 425.42 30.2811C425.466 30.8937 425.627 31.4453 425.903 31.9354C426.178 32.4254 426.523 32.854 426.937 33.2215C427.35 33.5891 427.818 33.8425 428.338 33.9803C428.859 34.1181 429.395 34.11 429.947 33.9569C430.498 33.8037 431.05 33.5055 431.601 33.0614L432.381 32.3719L432.612 33.0155C432.872 33.7044 433.194 34.1332 433.577 34.3016C433.944 34.4852 434.358 34.3936 434.817 34.0262L435.345 33.6121L434.84 31.1541C434.549 29.5001 434.45 28.5201 434.541 28.2137C434.633 27.9074 434.464 27.5553 434.036 27.1571C433.637 26.7589 433.071 26.3915 432.335 26.0545C431.6 25.7176 430.82 25.5334 429.993 25.5028ZM396.806 27.9842C397.021 27.9537 397.357 28.0218 397.817 28.1903C398.276 28.3587 398.513 28.4819 398.529 28.5584C398.528 28.6357 398.306 29.0797 397.863 29.8905C397.342 30.7788 396.867 31.2998 396.438 31.453C395.994 31.6058 395.619 31.3838 395.313 30.787C394.777 29.8222 394.945 29.0486 395.818 28.4666C396.262 28.1756 396.592 28.0148 396.806 27.9842ZM429.763 27.9842C429.978 27.9537 430.315 28.0219 430.774 28.1903C431.233 28.3587 431.47 28.4819 431.486 28.5584C431.485 28.6357 431.263 29.0798 430.82 29.8905C430.299 30.7788 429.824 31.2998 429.395 31.453C428.951 31.606 428.575 31.3841 428.269 30.787C427.733 29.8221 427.902 29.0486 428.775 28.4666C429.219 28.1756 429.549 28.0148 429.763 27.9842ZM526.787 29.4168C525.344 29.3482 525.142 30.0774 524.789 30.1424C524.68 30.1711 523.299 30.2732 522.071 30.3944C521.915 30.532 521.732 30.6943 521.544 30.87C522.034 30.8908 522.67 30.9107 523.477 30.9237C523.971 30.9409 528.949 29.5042 526.787 29.4168ZM520.949 30.5213C520.931 30.5384 520.912 30.5541 520.894 30.5711C520.813 30.6485 520.733 30.7322 520.648 30.8162C520.73 30.8239 520.823 30.8297 520.927 30.8368C521.056 30.7103 521.181 30.5902 521.3 30.4784C521.176 30.4928 521.058 30.5067 520.949 30.5213ZM462.179 27.1112C462.853 27.0346 463.435 27.0651 463.925 27.203C464.17 27.3102 464.285 27.5555 464.27 27.9383C464.285 28.0913 464.262 28.229 464.201 28.3514C464.139 28.4739 464.04 28.5808 463.902 28.6727C463.764 28.7646 463.458 28.9335 462.983 29.1786C462.508 29.4235 462.11 29.5457 461.789 29.5457C461.467 29.5457 460.984 29.393 460.341 29.0868C459.698 28.7958 459.376 28.581 459.376 28.4432C459.376 28.1829 459.675 27.9151 460.272 27.6395C460.869 27.3638 461.505 27.1877 462.179 27.1112ZM374.175 27.2713C374.68 28.173 374.932 28.6556 374.933 28.7186C374.933 28.7492 374.52 28.7807 373.693 28.8114C372.881 28.842 372.475 28.7799 372.475 28.6268C372.475 28.4733 372.628 27.9834 372.934 27.1571L373.416 25.8934L374.175 27.2713ZM525.22 27.5662C525.012 27.6259 524.769 27.6852 524.505 27.742C524.344 27.8435 524.175 27.9519 523.999 28.0692C524.249 28.0095 524.478 27.9504 524.677 27.8905C524.867 27.7733 525.048 27.6661 525.22 27.5662ZM45.391 27.1151C45.2197 27.2246 44.9747 27.3835 44.6743 27.5916C45.0215 27.5097 45.3268 27.4311 45.5649 27.3573C45.5096 27.2739 45.4547 27.1913 45.3998 27.1102C45.3971 27.1119 45.3938 27.1134 45.391 27.1151ZM49.4282 25.8963C49.284 25.9212 49.0973 25.9643 48.9135 26.0184C48.9725 26.1215 49.0301 26.2288 49.0903 26.3377C49.1657 26.3197 49.2397 26.3026 49.308 26.284C49.4262 26.2523 49.5195 26.2247 49.5922 26.201C49.5371 26.0975 49.4831 25.9951 49.4282 25.8963ZM47.0883 26.1395C47.1132 26.1789 47.1366 26.2196 47.1616 26.2596C47.2747 26.2005 47.3985 26.1387 47.5307 26.076C47.5043 26.0354 47.4773 25.9964 47.4516 25.9578C47.3399 26.0117 47.2193 26.072 47.0883 26.1395ZM529.084 25.6483C529.006 25.6712 528.842 25.6971 528.43 25.8368C528.889 25.7304 529.318 25.6075 529.084 25.6483ZM40.2631 24.8983C40.4722 25.0883 40.6902 25.2942 40.9145 25.5203C42.0074 25.6446 42.6844 25.6272 42.2836 25.3289C42.0886 25.2091 41.2461 25.0535 40.2631 24.8983ZM48.5834 25.4608C48.6073 25.5 48.6305 25.5406 48.6547 25.5809C48.7276 25.5507 48.8006 25.5193 48.8744 25.4891C48.9565 25.4541 49.0444 25.4166 49.1284 25.3807C49.109 25.3484 49.0891 25.3158 49.0698 25.284C48.9515 25.3232 48.7972 25.3765 48.5834 25.4608ZM35.5375 23.4071C35.5593 23.5371 35.2686 23.6882 35.0268 23.827C34.7715 23.9623 34.6082 24.0991 34.6547 24.1541C34.4142 24.3155 37.2602 24.9637 39.5698 25.3328C39.2833 25.08 39.0141 24.86 38.7807 24.6776C37.5793 24.5052 36.5309 24.3617 36.5112 24.3211C36.3654 24.2501 36.6812 24.1352 36.7387 23.9793C36.8088 23.8242 36.5267 23.6203 35.5375 23.4071ZM533.736 20.7948C534.186 20.4869 538.365 21.2539 543.493 22.7586C542.886 22.7567 540.043 21.9983 538.25 21.6385C536.326 21.2265 534.626 20.896 533.736 20.7948ZM35.7368 21.783C35.6309 21.8235 35.5957 21.8997 35.6235 21.995C35.7286 22.0265 35.8605 22.0679 36.0219 22.1297C36.1401 22.1755 36.2751 22.2322 36.4301 22.3016C36.6301 22.3936 36.8656 22.508 37.141 22.6571C37.1717 22.6737 37.2022 22.6923 37.2338 22.7098C36.9933 22.3708 36.1934 21.6245 35.7368 21.783ZM39.895 18.9295C40.511 19.0324 40.7476 19.2792 40.7075 19.4784C40.8406 19.5724 40.9848 19.673 41.1381 19.786C41.2609 19.8765 41.3916 19.9736 41.5287 20.0789C41.6006 20.1341 41.6569 20.1788 41.7504 20.2518C41.853 20.3318 41.9592 20.4161 42.0688 20.5047C42.2122 20.6222 42.36 20.7495 42.517 20.8827C42.7885 20.9387 43.0292 20.9841 43.227 21.0145C42.2814 20.1921 41.5828 19.7536 41.2514 19.495C40.8776 19.247 40.5565 19.0469 40.2836 18.8807C39.9266 18.7496 39.5747 18.6187 39.2368 18.495C39.4062 18.6054 39.622 18.7488 39.895 18.9295ZM504.482 19.8895C504.699 19.269 498.153 19.1551 500.702 19.867C501.334 20.0436 504.401 20.0948 504.482 19.8895ZM40.8354 17.6649C40.9922 17.7667 41.1699 17.8837 41.3705 18.0194C41.5041 18.1098 41.6484 18.2094 41.8041 18.3192C42.0964 18.3615 42.3784 18.4016 42.6459 18.4354C41.8848 17.8751 41.659 17.862 41.3891 17.6463C41.367 17.634 41.3442 17.6231 41.3227 17.6112C41.1492 17.6313 40.9841 17.6487 40.8354 17.6649ZM468.997 17.0223C467.743 16.8522 466.745 17.8001 466.876 17.8631C468.179 18.4445 470.196 17.5277 468.997 17.0223ZM459.231 16.9705C457.574 17.0338 460.314 18.3728 462.485 17.5916C461.405 17.568 459.394 16.9656 459.231 16.9705ZM458.354 17.0702C455.695 15.9846 455.761 17.4005 457.713 17.6258C458.438 17.7054 458.435 17.1071 458.354 17.0702ZM504.897 16.3377C506.24 15.8384 510.061 16.4503 512.513 16.6649C511.378 17.0789 506.951 16.506 504.897 16.3377ZM487.519 14.5594C487.672 14.5476 490.996 14.8502 491.149 14.8895C493.853 15.6874 484.432 14.8369 487.519 14.5594ZM469.992 14.3553C469.557 13.5018 475.218 14.601 477.213 14.6502C477.632 15.5005 471.964 14.4295 469.992 14.3553ZM441.082 13.8455C439.646 13.616 435.517 12.4614 434.615 12.6844C436.787 13.0855 441.436 14.7663 441.082 13.8455ZM459.8 13.1668C460.117 12.84 463.667 13.3569 464.938 13.3807C464.064 13.8253 461.493 13.4088 459.8 13.1668ZM435.905 8.50863C435.978 7.97186 435.911 8.12983 437.52 8.46176C449.438 11.0043 452.25 11.5483 451.764 11.783C450.741 11.8815 446.443 11.4169 435.905 8.50863ZM39.9662 8.98129C39.766 8.9645 35.0277 9.48898 34.7973 9.55746C32.3131 10.1417 34.8741 9.92683 37.3159 9.65804C39.7202 9.39052 42.0823 9.03958 39.9662 8.98129ZM53.7807 7.44418C52.7185 7.55028 48.0188 7.73557 47.975 7.96176C47.8973 8.31201 53.2702 8.08229 53.7807 7.44418ZM259.659 4.45101C256.662 4.64221 253.57 7.00131 257.282 6.54769C257.676 6.49836 260.009 4.75722 259.659 4.45101ZM301.225 6.14437C303.8 5.60517 297.826 4.95451 296.715 5.38558C296.168 5.59713 300.088 6.37879 301.225 6.14437ZM371.574 5.81429C371.506 5.33891 367.265 5.40794 367.821 5.73129C368.005 5.83781 371.62 6.19501 371.574 5.81429ZM337.726 5.46761C337.411 5.41041 333.772 5.45937 333.902 5.80551C335.244 6.02645 339.76 5.85331 337.726 5.46761ZM272.469 5.05062C269.619 5.67877 275.761 6.0097 275.185 5.27523C275.099 5.23539 272.586 5.02418 272.469 5.05062ZM285.576 4.81527C283.048 3.9499 278.767 4.11286 279.847 5.26547C284.578 5.11071 279.24 4.21594 285.576 4.81527ZM247.849 4.10433C249.65 3.23698 240.297 3.68045 239.534 4.6434C240.765 4.74349 247.617 4.20424 247.849 4.10433ZM387.03 2.93246C387.262 2.91935 390.705 3.29014 390.808 3.33773C393.052 4.27601 381.748 3.17334 387.03 2.93246ZM291.752 1.1766C292.651 1.03029 293.487 -0.579997 298.217 0.223474C298.221 0.223478 298.226 0.223475 298.23 0.223474C299.61 0.45957 298.041 0.849452 298.293 0.988123C298.391 1.04456 302.691 1.84126 299.117 1.96566C293.67 2.16844 298.596 0.775792 295.694 0.765466C295.334 0.761487 289.853 1.66319 290.178 1.85336C290.224 1.87296 291.858 1.67871 292.131 1.7557C293.165 2.04556 292.667 2.54835 292.813 2.57113C293.281 2.61944 301.976 1.75524 303.243 2.51351C303.641 2.73029 289.393 3.31933 288.852 3.22445C288.502 3.14873 288.632 1.76285 288.268 1.62972C288.078 1.56089 282.378 2.15321 281.643 2.04086C281.428 2.00741 281.263 1.97007 281.142 1.93929C282.008 2.35247 276.866 2.41085 277.011 1.9266C277.095 1.73376 280.639 1.78011 280.769 1.81234C280.825 1.82549 280.874 1.84462 280.919 1.85726C280.166 1.3343 292.215 1.21277 289.61 0.468591C293.106 0.0138887 289.124 1.61157 291.752 1.1766ZM389.226 2.31527C388.651 1.42969 396.444 2.26678 397.039 2.50863C399.409 3.41731 389.842 2.14772 389.226 2.31527ZM304.015 1.30844C305.888 0.78088 304.988 0.042257 308.519 0.337732C308.166 0.480856 307.813 0.624202 307.46 0.767419C313.443 0.44806 320.371 1.19678 327.309 1.26449C329.069 1.28301 327.047 0.374625 329.355 0.642419C331.204 0.857476 333.25 1.70424 332.243 1.87484C331.996 1.91704 328.23 1.33853 326.348 1.37484C320.794 1.48282 322.191 2.25816 321.869 2.27621C321.51 2.2945 318.017 1.73089 316.114 1.74105C311.685 1.76601 309.479 2.15744 304.015 1.70199C303.559 1.66523 303.081 1.62269 302.58 1.57504C303.189 1.49826 303.652 1.40696 304.015 1.30844Z" fill="white"/>
</svg>
