<svg width="268" height="83" viewBox="0 0 268 83" fill="none" xmlns="http://www.w3.org/2000/svg">
<path d="M147.78 1.64059C147.621 1.35258 161.381 1.48535 161.843 1.61715C163.852 2.22365 155.632 1.86311 157.209 2.6152C157.683 2.82938 170.357 2.56392 177.185 2.52438C178.897 2.5161 180.221 2.5262 180.994 2.5732C185.412 2.85259 187.496 4.7097 187.425 2.56539C188.765 4.64586 189.816 3.1836 190.375 3.18551C197.274 3.20804 197.279 3.2176 203.263 2.83004C204.588 2.74439 205.75 3.33469 206.217 3.21285C206.488 3.13973 205.936 2.48593 207.272 2.23531C209.095 1.8868 220.6 2.23137 221.502 2.58785C222.374 2.92983 216.636 2.87585 217.697 3.45309C221.831 3.39476 225.83 3.15122 230.055 3.15328C231.796 3.1575 230.92 3.58744 231.676 3.5859C232.02 3.57863 238.03 3.16925 237.785 3.0234C237.148 2.60965 218.507 3.18148 223.383 2.36129C224.329 2.19661 227.71 3.10022 227.131 1.93649C239.631 1.91417 252.201 2.25232 264.629 2.88668C268.832 3.09882 273.027 3.3457 277.216 3.62789C273.184 3.76619 268.942 3.65424 264.627 3.47555C258.707 3.23019 252.676 2.8509 246.849 2.83492C245.466 2.82539 240.803 2.69245 241.392 3.28121C248.588 3.41646 257.199 3.39131 264.625 3.80758C266.05 3.8853 267.397 3.97875 268.699 4.08883C268.962 4.11123 267.991 4.58235 268.976 4.70113C270.807 4.91412 276.771 4.37579 277.774 4.64449C277.946 4.70024 274.532 5.19755 275.56 5.66988C278.197 6.87641 278.9 4.52055 281.18 4.6777C282.95 4.78262 294.685 6.68836 297.617 6.22164C300.759 5.69653 288.989 5.13919 289.87 4.58981C297.882 4.51473 305.887 5.86971 313.288 6.47164C313.417 6.4811 312.314 5.90461 313.968 5.99215C316.845 6.14664 317.557 6.88349 318.942 7.12008C320.437 7.3737 325.722 7.7828 326.408 8.08785C326.495 8.12737 325.394 8.67667 325.231 8.68063C322.919 8.73489 322.149 7.81083 321.94 7.77926C321.154 7.67255 320.36 7.92533 319.642 7.83883C318.459 7.69586 317.823 7.332 316.255 7.15914C315.173 7.03916 316.186 7.72003 315.143 7.59762C314.76 7.55098 310.688 5.83024 310.222 7.16988C310.217 7.57695 343.633 11.2409 346.845 11.1132C344.286 10.76 341.723 10.3946 339.156 10.0224C344.744 10.7702 351.058 10.4194 351.482 11.8916C356.019 12.2727 360.553 12.6246 365.086 12.9433C381.849 14.1124 398.929 14.9105 416.048 15.75C419.932 16.0309 417.803 16.7569 424.204 16.791C422.547 16.463 420.895 16.1323 419.241 15.7978C422.514 16.1263 437.079 17.1203 439.444 17.081C439.751 17.0747 440.178 16.3957 443.826 16.5283C447.066 16.6481 447.587 17.1873 449.321 17.3759C450.765 17.5332 452.418 17.4918 452.848 17.5439C453.179 17.5848 453.31 17.897 454.104 17.9941C456.62 18.2976 454.591 17.3335 457.087 18.4511C456.478 18.4537 455.867 18.4571 455.252 18.4609C458.301 18.7717 462.462 19.4436 457.965 19.4111C457.199 19.4069 457.86 19.152 457.287 19.1211C434.791 18.0476 452.735 19.481 460.643 19.4755C462.659 19.9954 474.058 20.4698 474.459 20.6025C474.985 20.7555 473.02 20.9397 475.575 21.4004C476.09 21.433 491.524 22.5978 485.925 22.6054C484.788 22.5873 477.419 21.8796 475.654 21.7851C478.918 22.6732 485.684 22.603 489.015 22.7089C489.959 22.7345 490.582 22.7579 490.815 22.79C493.161 23.1295 490.518 23.0166 488.993 23.0546C488.257 23.0784 487.916 23.1399 488.978 23.3134C489.624 23.4137 490.613 23.5418 492.241 23.7412C500.181 24.7962 492.761 23.327 495.846 23.5029C496.799 23.5957 499.164 23.929 502.696 24.8476C503.115 24.9646 503.797 25.1631 504.396 25.3896C505.317 25.8185 505.861 25.6889 508.304 27.708C508.907 28.1104 510.678 30.2881 511.284 33.0097C513.178 33.2488 516.005 33.9227 514.415 33.8564C515.82 33.9527 514.899 33.6521 515.701 33.6357C515.916 33.6324 517.885 34.0548 518.296 34.0693C518.343 34.0622 516.321 33.4377 516.747 33.4375C517.474 33.4013 523.662 34.9165 524.381 35.2246C525.894 35.7565 520.407 34.4226 520.046 34.5742C519.945 34.5629 524.311 36.0388 524.469 36.1533C524.557 36.492 519.686 35.0119 520.211 35.4804C521.383 35.8224 522.563 36.1763 523.84 36.5976C520.1 35.8103 514.776 34.703 511.465 34.1757C511.47 34.2292 511.472 34.2832 511.475 34.3369C516.976 35.3888 522.255 36.6802 522.159 37.416C522.061 37.7287 519.138 37.2687 519.237 37.3886C519.573 37.7614 523.709 38.3975 523.931 38.5136C524.057 38.5683 524.111 38.603 524.107 38.6201C523.961 38.6973 518.193 37.5049 517.94 37.5722C517.44 37.6222 519.836 38.7495 519.802 38.8838C519.691 38.8746 515.717 38.2325 517.012 38.7343C518.098 39.1396 520.702 39.7337 521.626 39.9658C522.385 39.9972 523.149 40.0417 523.895 40.1064C524.767 40.1812 526.564 40.8444 525.021 41.0468C522.349 41.4061 517.134 40.8642 517.222 41.2871C517.342 41.751 524.262 41.4064 526.115 41.4091C532.358 41.4166 531.381 41.7354 530.526 41.9619C530.774 42.0024 530.954 42.0314 531.013 42.0449C532.031 42.2907 531.259 42.226 530.142 42.0683C530.024 42.1037 529.957 42.1319 529.992 42.1523C530.224 42.2774 531.022 42.3147 531.928 42.3134C530.922 41.9665 532.132 42.0125 534.09 42.2588C534.734 42.2318 535.205 42.2061 535.253 42.205C535.51 42.2293 535.349 42.2945 535.017 42.3828C537.844 42.7814 541.583 43.4826 542.893 44.0644C543.257 44.206 542.811 43.9398 542.498 43.7588C542.148 43.5606 541.81 43.388 541.989 43.4345C542.061 43.4544 542.354 43.5428 542.788 43.706C543.049 43.807 543.318 43.9111 543.744 44.123C544.217 44.4311 544.664 44.3805 546.036 45.9697C546.412 46.4857 546.795 47.0384 547.062 48.1875C547.345 49.2884 547.069 50.8776 546.674 51.625C546.291 52.464 545.723 53.0904 545.362 53.4199C545.045 53.7117 544.749 53.9256 544.477 54.1005C543.502 54.6997 542.99 54.8359 542.519 55.0078C541.557 55.3229 540.881 55.4715 540.112 55.6357C537.738 56.1281 535.63 56.4234 535.205 56.5947C534.368 56.9499 538.448 56.107 538.812 56.25C538.92 56.4938 528.363 58.1733 534.105 57.5283C535.739 57.3343 537.962 56.9338 540.249 56.3847C541.191 56.1509 541.933 55.9905 543.292 55.4668C543.702 55.2977 544.054 55.1526 544.68 54.7783C545.029 54.5644 545.418 54.2963 545.846 53.8964C546.373 53.4031 547.155 52.5133 547.58 51.1494C548.151 49.5902 547.691 47.3904 547.215 46.5957C546.731 45.6131 546.084 44.9786 545.809 44.7246C545.461 44.405 545.156 44.184 544.883 44.0029C544.669 43.8623 544.479 43.7503 544.299 43.6513C542.98 42.9652 542.409 42.8326 541.904 42.6181C541.381 42.4165 541.081 42.2754 540.886 42.1289C541.518 42.2822 542.13 42.4328 542.972 42.7265C543.156 42.7905 543.413 42.8884 543.659 42.9921C543.783 43.0449 543.911 43.1005 544.044 43.163C544.206 43.2398 544.375 43.3246 544.553 43.4228C544.738 43.5255 544.899 43.6192 545.142 43.7802C545.405 43.9568 545.694 44.1708 546.014 44.4619C546.51 45.0293 548.196 46.1701 548.185 49.6855C547.885 52.9883 546.011 54.1585 545.597 54.5586C545.255 54.8264 544.945 55.0231 544.662 55.1855C544.436 55.3151 544.259 55.4046 544.074 55.4941C543.273 55.8652 542.935 55.9666 542.43 56.1308C542.051 56.2519 541.654 56.3614 541.301 56.4511C540.981 56.5338 540.65 56.6123 540.305 56.6875C536.34 57.5361 532.795 57.9726 529.194 58.4336C532.374 58.3358 535.501 58.2167 538.946 57.8447C532.074 59.1388 526.672 59.3116 520.6 60.3291C535.293 59.6821 515.877 61.5535 515.711 61.6338C515.638 61.7171 521.404 61.8804 522.359 61.8974C517.256 62.7563 501.885 64.3327 510.936 64.4179C509.277 64.3686 505.365 65.2735 505.409 65.3115C505.92 65.6954 514.561 64.5495 513.171 65.0605C511.542 65.6652 509.242 65.3132 506.724 65.6054C493.862 67.0819 497.478 69.0587 484.594 69.9296C484.853 69.991 485.112 70.0515 485.37 70.1123C480.119 70.5631 474.872 70.9946 469.636 71.413C460.915 72.1096 452.159 72.7628 443.405 73.3545C437.944 74.6315 423.326 76.2944 416.123 76.6709C414.669 76.7561 407.548 76.7318 407.01 76.6738C406.013 76.5719 411.484 76.1746 409.007 76.0224C408.484 76.0045 396.425 76.4792 397.291 76.9541C398.641 76.9423 402.871 76.4378 403.565 76.5195C407.822 77.068 379.926 78.1735 371.575 78.54C370.355 78.6042 369.555 78.6632 369.32 78.7197C370.066 78.8563 370.816 78.9917 371.57 79.125C371.655 79.1402 371.741 79.1557 371.826 79.1709H368.121C366.974 79.1684 365.83 79.1637 364.687 79.1562C365.648 78.9653 366.609 78.7731 367.576 78.581C364.844 78.5707 361.167 78.7941 358.639 78.7002C358.227 78.684 359.306 78.1888 358.33 78.1904C357.349 78.1914 357.523 78.8317 356.097 78.9326C354.494 79.0508 347.196 78.7197 344.678 78.7509C335.237 78.8987 325.771 79.2943 316.488 79.0078C326.118 78.5034 316.446 77.9803 313.76 78.1943C313.17 78.2459 313.188 79.5287 303.649 79.2168C297.602 79.0248 303.243 77.1191 293.136 78.0986C300.836 79.3913 293.22 79.3184 287.175 79.4277C286.134 79.4418 277.739 79.3477 274.053 79.4902C273.288 79.5185 272.273 79.8087 271.213 80.0468C270.533 80.2003 269.836 80.3313 269.18 80.3554C268.029 80.3975 267.158 80.0283 265.444 80.0957C257.454 80.4078 249.554 80.7349 241.458 80.9316C246.164 78.8399 237.738 80.2685 237.347 80.1972C235.409 79.7554 244.145 79.2576 240.685 79.0722C235.858 79.3217 231.013 79.5838 226.149 79.8476C230.146 79.9145 220.891 81.7025 219.158 81.1416C219.977 82.8492 196.758 80.5406 193.158 81.1796C192.413 81.3201 197.3 82.0664 185.991 81.9707C184.764 81.9559 185.225 81.4122 184.582 81.4765C184.198 81.5145 181.865 83.2645 179.368 82.372C178.452 82.0345 184.304 80.862 171.468 81.4648C175.39 82.7576 162.8 82.7519 154.718 82.2627C152.245 82.1223 150.261 81.9587 149.264 81.8339C150.094 82.0883 150.975 82.3434 151.796 82.5937C147.599 81.8775 146.813 82.4449 145.867 82.3896C142.03 82.1604 136.763 81.3559 133.097 81.2158C128.814 81.0438 128.736 82.1568 123.684 81.3564C124.862 81.6914 126.082 82.0241 127.232 82.3437C123.751 82.0557 120.216 81.7136 116.623 81.2939C125.072 80.6142 114.869 81.0745 114.163 80.997C113.08 80.93 114.695 80.5066 112.891 80.3769C112.706 80.3655 112.905 80.9714 110.118 80.6894C104.276 80.051 105.31 79.4369 102.903 79.082C102.695 79.0495 103.319 79.6857 99.263 79.1308C87.2898 77.4468 99.1974 78.7305 99.8939 78.7666C100.609 78.7628 96.363 76.0029 107.447 78.4433C103.675 77.6613 103.499 76.6491 103.072 76.5625C102.651 76.4916 96.4372 75.5605 96.2025 75.5459C93.3576 75.3753 95.6849 76.4422 95.1224 76.4619C94.9564 76.4674 93.9705 76.2025 92.7864 75.9668C91.7965 75.7778 90.7238 75.5755 89.2435 75.247C87.7379 74.872 86.0571 74.6301 82.2318 73.0527C81.9283 72.8965 81.6135 72.7507 81.2796 72.5996C80.4414 72.6215 80.1222 72.4937 79.2474 71.7685C75.8954 74.4268 76.776 70.2916 75.4075 70.1767C71.8175 69.8827 72.8768 71.8922 72.6966 71.9961C71.4297 72.6604 61.2785 72.2567 58.7269 72.623C59.6973 71.1286 66.8128 72.3723 68.3685 72.0449C73.5728 70.9514 60.9541 71.5224 64.7152 69.5722C63.1216 70.1241 61.5333 70.6771 59.928 71.2295C56.9319 70.1279 61.1426 69.4962 53.1341 70.1474C51.847 71.2068 58.8007 69.8322 57.4202 70.6757C56.6091 71.1725 51.9688 71.3996 51.8655 71.6504C51.8053 71.9527 55.9856 71.4853 55.3421 71.9638C53.9817 73.0148 38.3071 72.4136 50.1927 71.6025C47.313 71.687 45.6321 70.2254 43.3089 70.2812C42.9605 70.2895 42.6014 70.3309 42.2279 70.417C41.5376 70.5769 42.5622 71.0394 43.3294 71.538C43.9857 71.965 44.4299 72.4205 43.3499 72.7461C42.3009 73.0477 40.0876 73.2776 34.5989 73.0888C34.3774 72.1755 41.4562 72.8032 41.5989 72.7148C41.8491 72.6067 40.5648 70.5148 40.3558 70.4101C40.1499 70.3144 38.6774 70.3571 36.4691 70.4111C35.3619 70.4365 34.0734 70.468 32.4544 70.4599C32.0357 70.4572 31.6131 70.452 31.181 70.4423C30.6724 70.4295 30.11 70.4088 29.5257 70.3769C29.0524 70.3528 28.0213 70.2833 26.9486 70.1513C26.538 70.0998 25.3927 69.9616 23.8636 69.6181C23.468 69.5288 23.0288 69.4219 22.5247 69.2832C22.2725 69.2137 22.0033 69.1356 21.7142 69.0468C21.5698 69.0025 21.42 68.9556 21.265 68.9052C21.1872 68.88 21.1074 68.8541 21.0267 68.8271C20.9257 68.7935 20.6907 68.7128 20.5111 68.6484C18.9715 68.0655 16.9452 67.3576 13.6956 65.0986C10.7015 62.8931 5.02355 58.2859 2.74153 48.5234C0.0574804 35.9185 6.58599 26.8307 9.51594 23.8105C9.93091 23.3639 10.3285 22.9648 10.7073 22.6035C10.8208 22.4955 10.8493 22.4701 10.9017 22.4209C10.9503 22.3754 10.9983 22.3294 11.0462 22.2851C11.142 22.1968 11.2371 22.1111 11.3304 22.0273C11.7043 21.6917 12.0593 21.3903 12.3958 21.1171C13.0686 20.5714 13.6697 20.1324 14.2142 19.7578C16.3541 18.299 17.8481 17.6327 18.4154 17.3545C19.8888 16.662 21.035 16.2513 21.6068 16.0459C23.0356 15.5442 23.8565 15.3138 24.6907 15.0791C26.2255 14.6569 27.3588 14.405 28.4056 14.1933C30.4088 13.7964 31.8743 13.6309 32.7532 13.6875C31.2014 12.6854 45.367 11.1315 46.68 10.6074C47.056 10.4427 45.4645 9.94492 45.8714 9.79879C48.4442 8.89507 55.7147 9.14112 58.9993 8.72652C62.6749 8.25568 62.1247 7.68987 62.3294 7.66109C63.9555 7.47991 62.7218 8.0837 63.7113 7.95113C65.1899 7.72805 75.558 6.56962 76.1087 6.44527C76.2612 6.40057 74.4486 5.86084 76.7396 5.47359C77.159 5.41716 76.8919 6.26202 83.8646 5.24996C92.4468 4.09007 77.8266 4.69355 81.305 3.49215C86.8789 4.28057 86.6308 3.05698 88.2376 3.03805C88.397 3.03797 88.8588 3.10443 89.5267 3.19625C91.1397 3.42453 93.9921 3.81857 96.8519 3.67184C94.4896 3.89833 92.1115 4.14426 89.6116 4.43746C89.04 4.50428 88.4612 4.57491 87.8753 4.6484C88.3955 4.64339 88.9888 4.62356 89.6224 4.59762C92.7998 4.46362 96.955 4.17908 98.9046 4.30074C100.024 4.37244 99.149 5.28338 101.576 5.1943C102.068 5.17648 104.11 2.94204 97.6986 4.10445C97.1551 3.34856 100.249 3.7537 101.636 3.50387C101.834 3.46511 102.671 2.15307 104.453 2.91793C104.865 3.11875 100.433 6.91635 112.202 4.03121C112.578 3.9394 111.252 3.48621 111.619 3.38473C111.867 3.31535 114.894 3.47318 115.217 3.40524C115.554 3.33101 114.097 2.83288 114.496 2.72848C116.558 2.19319 119.327 4.19782 115.043 4.07809C116.483 4.31572 117.903 4.55572 119.339 4.79684C117.785 3.28127 121.566 4.35455 123.522 4.30172C136.059 3.97724 127.647 3.00771 129.793 2.49313C133.247 1.6769 130.64 4.26672 135.754 3.4941C136.222 3.42378 130.036 2.30783 142.106 2.95992C140.33 2.99697 138.548 3.03419 136.767 3.0732C137.816 4.53469 143.186 2.99095 143.605 2.97164C148.321 2.78851 145.149 3.29998 152.125 2.57906C152.75 2.51471 154.114 2.87664 155.439 2.70309C160.947 1.99016 148.153 2.23137 147.78 1.64059ZM249.492 80.2373C249.568 79.8851 244.744 79.8291 244.263 80.4502C245.221 80.3864 249.438 80.4549 249.492 80.2373ZM260.809 79.7304C264.752 79.1482 252.88 79.3232 256.51 79.7959C256.695 79.8171 260.616 79.7573 260.809 79.7304ZM349.543 79.1308C349.822 79.0828 357.179 79.0421 356.617 79.3525C355.08 79.9488 348.334 79.3866 349.543 79.1308ZM310.593 78.4423C310.586 78.2802 307.279 78.271 307.13 78.2949C305.977 78.4772 310.581 78.9489 310.593 78.4423ZM346.15 78.5879C347.34 77.9635 338.57 77.8825 340.865 78.3818C341.373 78.4945 345.045 78.5985 346.15 78.5879ZM84.5863 72.4843C83.723 72.4825 83.0553 72.5062 82.5238 72.5341C82.6916 72.6088 82.8505 72.6808 83.0023 72.75C88.9905 75.0784 90.5578 74.9497 92.889 75.3974C93.1791 75.4329 93.4757 75.4689 93.7777 75.5048C94.0461 75.4301 93.6269 75.2374 92.9554 75.0166C91.63 74.6593 89.8582 74.2908 86.8157 73.2978C86.1289 73.0589 85.4113 72.8118 84.5863 72.4843ZM35.7659 9.38766C37.2173 9.35907 35.6902 10.0397 35.971 10.1289C36.102 10.1599 40.5126 10.1663 36.9759 10.9375C31.5049 12.1669 36.2698 9.85396 33.2611 10.416C32.9985 10.4413 27.1065 12.5871 27.345 12.7588C27.3689 12.7639 27.891 12.5983 28.4222 12.4443C28.9177 12.2978 29.4603 12.1527 29.6253 12.1572C30.8791 12.1901 30.3848 12.8079 30.5589 12.7949C31.2403 12.668 39.828 10.1875 41.1585 10.7402C41.6558 10.8406 27.5956 14.0354 25.9202 14.5088C25.4128 14.5594 25.2671 13.1659 24.7113 13.1728C24.6596 13.1701 23.9286 13.3813 22.7884 13.7714C22.0992 14.0082 21.3385 14.2619 19.8978 14.8418C19.0038 15.2121 18.1999 15.5295 16.4525 16.4423C15.2838 17.0743 13.8338 17.8613 11.6693 19.5546C11.1271 19.9842 10.539 20.4801 9.89778 21.0742C9.14486 21.7619 7.41611 23.4726 5.93195 25.5673C2.93284 29.5008 -1.20944 38.7153 1.12141 48.8769C3.89569 60.3544 10.5968 64.946 13.7562 67.1367C17.188 69.3314 19.5524 70.0499 20.6605 70.4375C22.1213 70.9092 23.1325 71.1367 23.971 71.3115C24.8039 71.4812 25.4513 71.5818 26.013 71.6601C26.4819 71.7235 26.7262 71.7484 27.0384 71.7812C28.1945 71.8985 29.0844 71.9398 29.5482 71.958C30.6325 72.0015 31.3339 72.0168 31.5394 72.0556C31.8269 72.103 32.0457 72.15 32.2064 72.1875C31.6225 71.9549 33.1396 71.9046 34.4202 71.9316C35.7817 71.9626 37.0508 72.0878 36.9925 72.33C36.9372 72.425 35.9502 72.4474 34.9642 72.4306C33.8667 72.4141 32.8513 72.3536 32.7015 72.333C32.6272 72.3171 32.5624 72.2962 32.5023 72.2812C32.7115 72.399 32.1239 72.4765 31.0853 72.5097C30.4317 72.5186 29.7582 72.5251 28.5843 72.4638C27.8892 72.4212 27.1512 72.3706 26.0101 72.2226C25.1491 72.1005 24.1309 71.9517 22.4945 71.5449C22.0822 71.4408 21.626 71.3176 21.1087 71.1611C20.845 71.0811 20.5907 71.0008 20.2669 70.8925C19.6212 70.6747 18.8861 70.4051 18.0169 70.0341C16.2799 69.2597 13.9814 68.2437 10.678 65.5605C7.54845 62.9508 2.56608 57.819 0.581369 48.9951C-2.95665 28.4871 10.8142 19.995 10.7064 19.6298C12.8502 17.8601 14.3462 16.9932 15.5521 16.3086C16.9219 15.5605 17.2152 15.4405 17.8353 15.1445C18.3843 14.8894 18.8643 14.682 19.3011 14.5009C20.2586 14.1092 20.6582 13.964 21.1771 13.7714C21.6644 13.5923 22.1163 13.4343 22.514 13.2988C23.8437 12.8393 24.8338 12.5288 25.4925 12.2959C26.9058 11.8125 27.2702 11.5747 26.3333 11.5722C30.5617 10.146 26.0797 12.7873 29.0736 11.6826C30.0772 11.3246 30.7642 9.50684 35.7523 9.39059C35.7567 9.38976 35.7615 9.38848 35.7659 9.38766ZM89.4925 71.9443C89.44 71.9322 89.3942 71.9383 89.3958 71.999C89.5984 72.0036 89.4874 71.9283 89.4925 71.9443ZM73.4505 69.7226C72.2902 69.6183 65.7502 70.1512 65.5238 70.2519C63.8054 71.118 72.7375 70.6813 73.4505 69.7226ZM54.1722 69.9023C57.0639 69.7136 60.0415 67.3547 56.4613 67.8076C56.0869 67.8567 53.833 69.5961 54.1722 69.9023ZM17.8089 19.1132C16.7686 19.6321 15.4793 20.2862 13.5267 21.7548C13.0374 22.1279 12.5046 22.5609 11.9212 23.0839C11.7443 23.2384 11.0429 23.8873 10.431 24.541C9.79831 25.2124 9.11905 26.0007 8.40949 26.9589C5.69185 30.4198 1.68138 38.7622 3.82551 48.2861C5.86385 57.1957 11.0428 61.743 13.9271 63.9365C17.0268 66.1918 19.022 66.9419 20.5355 67.5468C20.7235 67.6181 20.9049 67.6843 21.0784 67.7461C21.1647 67.7767 21.2538 67.8081 21.3314 67.8349C21.3692 67.8483 21.4075 67.862 21.4447 67.875C21.5931 67.9269 21.7366 67.9753 21.8753 68.0214C22.1533 68.1139 22.4134 68.1966 22.6575 68.2705C23.1455 68.418 23.5735 68.5346 23.9603 68.6338C25.4419 69.015 26.6363 69.1991 27.0277 69.2812C28.0962 69.4804 29.1265 69.6023 29.6058 69.667C30.1912 69.739 30.765 69.7866 31.2396 69.8115C31.6569 69.8341 32.0499 69.8392 32.4085 69.8271C33.8462 69.7763 34.4609 69.4667 33.9398 68.9199C31.2197 68.9074 31.1211 69.1212 31.0716 69.2929C31.0339 69.3741 30.962 69.4362 30.3392 69.4111C30.182 69.4045 29.9886 69.3933 29.7464 69.372C29.4804 69.3486 29.2949 69.3269 28.7435 69.2666C28.2409 69.2083 27.6453 69.1357 26.7396 68.9873C26.2467 68.9047 25.2708 68.7565 23.9027 68.4209C23.5487 68.3335 23.1534 68.2297 22.6966 68.0966C22.468 68.03 22.2232 67.9557 21.9593 67.8711C21.8276 67.8288 21.6902 67.7833 21.5482 67.7353C21.5127 67.7233 21.4761 67.7116 21.4398 67.6992C21.4082 67.6883 21.36 67.6714 21.2679 67.6396C21.1036 67.5829 20.9318 67.5217 20.7532 67.456C19.3148 66.896 17.423 66.2192 14.3714 64.0849C11.567 61.9893 6.16457 57.692 3.94563 48.2597C0.745079 29.5503 13.8175 22.022 13.2503 22.0576C15.2567 20.4718 16.6632 19.7126 17.8089 19.1132ZM41.682 69.2607C44.4954 68.6558 38.4263 68.2741 38.9359 69.0097C39.0741 69.0517 41.5357 69.2883 41.682 69.2607ZM525.132 66.7588C522.873 66.7698 530.422 65.7786 527.845 66.4004C527.712 66.4304 525.217 66.7606 525.132 66.7588ZM43.845 62.833C43.623 62.8706 43.4061 62.9036 43.1966 62.9384C42.1466 63.6291 41.3971 64.0027 40.9329 64.2421C39.9177 64.7484 39.3491 64.9597 39.0755 65.0732C38.5718 65.2748 38.5818 65.2864 38.6546 65.2968C38.8524 65.2968 39.3187 65.2423 39.513 65.2177C39.48 65.352 39.0316 65.6006 38.8314 65.7646C38.7532 65.8374 38.6966 65.9123 39.1927 65.7724C39.3728 65.722 39.9696 65.5338 41.0081 65.0478C41.3648 64.875 42.7162 64.2554 44.5013 62.9814C44.6526 62.8729 44.8093 62.7573 44.972 62.6347C44.5885 62.7021 44.2112 62.77 43.845 62.833ZM512.117 65.6728C511.855 65.6694 515.617 64.5439 516.694 64.9423C517.533 65.2489 512.812 65.6752 512.117 65.6728ZM520.938 63.2431C524.244 62.6161 534.807 62.7715 523.579 63.9365L522.707 64.0078C521.106 64.1044 522.446 63.7496 522.33 63.7568C516.123 64.089 517.825 64.466 516.851 64.6464C514.812 65.0192 515.097 64.2715 511.644 64.9257C517.345 63.8938 512.156 64.6182 511.966 64.375C511.286 63.3988 519.622 64.0866 522.502 63.5107C522.903 63.4375 519.919 63.4506 520.938 63.2431ZM43.055 61.3593C40.8642 61.771 38.443 62.4152 38.2855 62.6543C38.2152 62.7141 38.4429 63.5463 38.4827 63.8838C38.5613 63.8474 38.6657 63.7984 38.807 63.7363C39.0006 63.6501 39.2345 63.5497 39.5941 63.3789C39.5359 63.372 39.4916 63.3628 39.4632 63.3476C39.2925 63.2422 39.6929 62.927 41.6312 62.2949C42.0313 62.056 42.4974 61.7565 43.055 61.3593ZM139.348 44.2275C138.996 44.2428 138.742 44.3039 138.589 44.4111C138.436 44.5336 138.299 44.7484 138.176 45.0546C138.054 45.3609 138.054 45.6673 138.176 45.9736C138.299 46.2799 138.62 46.7399 139.141 47.3525C139.952 48.3787 140.29 50.454 140.152 53.5781C140.075 54.8186 139.891 55.8832 139.6 56.7714C139.324 57.6596 138.865 58.5788 138.222 59.5283C137.579 60.4778 137.218 61.1516 137.142 61.5498C137.065 61.9478 137.181 62.2921 137.487 62.583C137.793 62.8586 138.145 62.943 138.543 62.8359C138.941 62.7287 139.332 62.4071 139.715 61.8711C140.113 61.335 140.581 60.5462 141.117 59.5048C141.653 58.4635 142.028 57.583 142.243 56.8632C142.595 55.6993 142.732 53.9529 142.656 51.625C142.579 49.2971 142.327 47.7196 141.898 46.8925C141.653 46.4178 141.216 45.8509 140.588 45.1923C139.961 44.5343 139.547 44.2127 139.348 44.2275ZM45.8079 61C45.2927 61.4339 44.9691 61.6129 44.4925 62.0293C44.2303 62.2252 43.979 62.4036 43.7425 62.5683C44.3561 62.468 44.9641 62.3515 45.5032 62.2236C45.6824 62.0806 45.8684 61.9286 46.0609 61.7656C46.3008 61.5623 46.5504 61.3401 46.8118 61.0996C46.6587 61.0673 46.4745 61.0382 46.2581 61.0127C46.1352 60.9976 45.9832 60.9959 45.8079 61ZM528.828 60.9941C531.176 60.887 525.8 61.633 524.245 61.707C524.136 61.5731 528.648 61.0088 528.828 60.9941ZM104.039 44.2734C103.702 44.1202 103.373 44.1202 103.051 44.2734C102.607 44.4727 102.018 45.7366 101.283 48.0644C100.547 50.3923 100.087 52.3148 99.9036 53.831C99.7199 55.3469 99.6741 56.4342 99.7659 57.0927C99.8578 57.7512 100.088 58.4709 100.455 59.2519C101.405 61.1664 102.354 61.779 103.304 61.0898C103.549 60.906 103.679 60.6077 103.695 60.1943C103.71 59.7809 103.603 59.4439 103.373 59.1836C102.562 58.2493 102.201 56.8937 102.293 55.1171C102.385 53.3406 102.952 50.9438 103.993 47.9267C104.545 46.3346 104.774 45.3695 104.683 45.0322C104.591 44.6799 104.376 44.4266 104.039 44.2734ZM83.9212 44.2275C82.2062 44.1969 80.9348 44.2427 80.1077 44.3652C79.2809 44.4877 78.6681 44.7484 78.2698 45.1464C77.8716 45.5447 77.6111 46.2265 77.4886 47.1914C77.4274 47.5893 77.4193 47.8878 77.4652 48.0869C77.5111 48.2706 77.6567 48.4854 77.9017 48.7304C78.1773 48.9754 78.4685 49.0976 78.7747 49.0976C79.081 49.0976 79.3721 48.9296 79.6478 48.5927C79.9234 48.2558 80.0608 47.9189 80.0609 47.582C80.0762 47.2297 80.1382 47.0231 80.2454 46.9619C80.3526 46.8854 80.5973 46.8467 80.9798 46.8466C81.378 46.8466 81.8533 46.8314 82.4046 46.8007C82.9557 46.7701 83.3692 46.7549 83.6448 46.7548C83.9205 46.7395 84.2502 46.7629 84.6331 46.8242C84.648 46.9932 84.4415 47.5675 84.013 48.5468C83.5842 49.527 83.3542 50.0939 83.3236 50.247C83.2929 50.4 83.1859 50.5152 83.0023 50.5918C82.8185 50.653 82.3585 50.7365 81.6234 50.8437C80.8883 50.9509 80.3366 51.1117 79.9691 51.3261C79.6016 51.5252 79.4183 51.8397 79.4183 52.2685C79.4183 52.6973 79.5252 53.0037 79.7396 53.1875C79.954 53.3713 80.3142 53.4934 80.8196 53.5546L81.807 53.6699L80.8655 56.2431C80.3602 57.5754 80.1078 58.4712 80.1077 58.9306C80.1077 59.39 80.3216 59.7269 80.7503 59.9414C81.1944 60.1864 81.5772 60.171 81.8988 59.8955C82.2204 59.6198 82.5501 59.0457 82.887 58.1728C82.933 58.0503 83.2159 57.2993 83.7366 55.9209C84.2573 54.5272 84.5952 53.7079 84.7484 53.4629C84.9167 53.2181 85.1308 53.0804 85.3909 53.0498C85.4216 53.0345 85.5294 53.0111 85.7132 52.9804C85.8974 52.9498 86.4332 52.8958 87.3206 52.8193C88.2089 52.7427 88.7686 52.6592 88.9984 52.5673C89.2432 52.4755 89.442 52.3297 89.595 52.1308C89.8247 51.794 89.8633 51.4416 89.7103 51.0742C89.5571 50.7066 89.3424 50.4766 89.0667 50.3847C88.791 50.2775 88.2394 50.2236 87.4124 50.2236H86.1029L86.678 48.9599C87.2598 47.674 87.5968 46.8318 87.6888 46.4336C87.7807 46.0354 87.7268 45.6364 87.5277 45.2382C87.3287 44.8404 87.1065 44.5805 86.8616 44.458C86.6166 44.3201 85.6363 44.2428 83.9212 44.2275ZM158.756 44.8711C158.389 44.8711 157.515 45.4837 156.137 46.7089C154.912 47.7504 154.154 48.4781 153.863 48.8916C153.572 49.305 153.565 49.7265 153.84 50.1552C154.116 50.5838 154.422 50.7978 154.759 50.7978C155.096 50.7976 155.571 50.5685 156.183 50.1093C156.795 49.6504 157.132 49.4205 157.194 49.4199C157.255 49.4199 157.248 49.5807 157.171 49.9023C157.095 50.2241 157.056 52.0927 157.056 55.5078L155.103 55.7148C154.23 55.8067 153.671 55.8983 153.426 55.9902C153.181 56.082 152.982 56.2504 152.829 56.4951C152.676 56.7707 152.599 56.9702 152.599 57.0927C152.599 57.2153 152.699 57.4147 152.898 57.6904L153.312 58.3105C153.603 58.2952 154.177 58.2718 155.035 58.2412C155.892 58.2105 156.596 58.18 157.148 58.1494C157.699 58.1187 158.305 58.1116 158.963 58.1269C159.622 58.1422 160.204 58.2033 160.709 58.3105C161.214 58.4176 161.574 58.4635 161.788 58.4482C162.003 58.4329 162.209 58.3331 162.409 58.1494C162.914 57.6899 163.014 57.2309 162.707 56.7714C162.401 56.312 161.804 55.9823 160.915 55.7832C160.027 55.5841 159.575 55.4772 159.56 55.4619C159.499 55.4146 159.553 53.9366 159.721 51.0283C159.874 48.1183 159.996 46.5247 160.088 46.249C160.18 45.9734 160.073 45.675 159.767 45.3535C159.461 45.0319 159.124 44.8711 158.756 44.8711ZM231.378 44.8711C231.011 44.8711 230.137 45.4838 228.759 46.7089C227.534 47.7504 226.776 48.478 226.485 48.8916C226.194 49.3051 226.186 49.7264 226.461 50.1552C226.737 50.5839 227.043 50.7977 227.38 50.7978C227.717 50.7978 228.192 50.5688 228.805 50.1093C229.418 49.6499 229.754 49.4199 229.816 49.4199C229.877 49.4201 229.869 49.5809 229.792 49.9023C229.716 50.2245 229.678 52.0931 229.678 55.5078L227.725 55.7148C226.852 55.8067 226.293 55.8983 226.048 55.9902C225.803 56.0821 225.604 56.2502 225.451 56.4951C225.297 56.7707 225.221 56.9702 225.221 57.0927C225.221 57.2153 225.321 57.4147 225.52 57.6904L225.933 58.3105C226.224 58.2952 226.799 58.2718 227.657 58.2412C228.514 58.2105 229.219 58.18 229.77 58.1494C230.321 58.1188 230.926 58.1116 231.584 58.1269C232.243 58.1422 232.825 58.2033 233.33 58.3105C233.836 58.4177 234.196 58.4635 234.41 58.4482C234.625 58.4328 234.832 58.3331 235.031 58.1494C235.536 57.69 235.635 57.2308 235.329 56.7714C235.023 56.312 234.426 55.9823 233.537 55.7832C232.651 55.5846 232.2 55.4776 232.182 55.4619C232.121 55.4159 232.175 53.938 232.343 51.0283C232.496 48.1183 232.618 46.5247 232.71 46.249C232.802 45.9735 232.695 45.6749 232.389 45.3535C232.083 45.032 231.746 44.8712 231.378 44.8711ZM243.022 44.8711C242.654 44.8711 241.781 45.4837 240.403 46.7089C239.177 47.7504 238.419 48.478 238.128 48.8916C237.837 49.305 237.829 49.7264 238.105 50.1552C238.38 50.5839 238.687 50.7976 239.024 50.7978C239.361 50.7978 239.836 50.5687 240.449 50.1093C241.061 49.6499 241.398 49.4199 241.459 49.4199C241.521 49.4199 241.512 49.5807 241.436 49.9023C241.359 50.2246 241.322 52.0933 241.322 55.5078L239.368 55.7148C238.496 55.8067 237.937 55.8983 237.692 55.9902C237.447 56.0821 237.247 56.2501 237.094 56.4951C236.941 56.7707 236.865 56.9702 236.865 57.0927C236.865 57.2153 236.964 57.4147 237.163 57.6904L237.576 58.3105C237.867 58.2952 238.442 58.2718 239.3 58.2412C240.158 58.2105 240.862 58.18 241.413 58.1494C241.965 58.1188 242.569 58.1116 243.228 58.1269C243.886 58.1422 244.469 58.2033 244.974 58.3105C245.479 58.4177 245.84 58.4635 246.054 58.4482C246.268 58.4329 246.475 58.3331 246.674 58.1494C247.179 57.69 247.279 57.2308 246.973 56.7714C246.667 56.312 246.069 55.9823 245.181 55.7832C244.294 55.5843 243.842 55.4774 243.826 55.4619C243.764 55.4159 243.818 53.938 243.987 51.0283C244.14 48.1183 244.262 46.5247 244.354 46.249C244.446 45.9734 244.339 45.6749 244.033 45.3535C243.726 45.0319 243.389 44.8711 243.022 44.8711ZM112.455 45.2158C111.613 44.7104 110.778 44.5344 109.951 44.6875C109.125 44.8406 108.412 45.1389 107.815 45.583C107.218 46.027 106.75 46.5402 106.413 47.122C106.199 47.5202 106.092 48.0952 106.092 48.8457C106.092 49.5959 106.199 50.2313 106.413 50.7519C106.628 51.2726 106.988 51.7632 107.493 52.2226C107.999 52.6819 108.489 52.9497 108.963 53.0263C109.193 53.1029 109.66 53.0805 110.365 52.958C111.069 52.8354 111.483 52.7815 111.606 52.7968C111.667 52.8595 111.605 53.5029 111.421 54.7265C111.207 55.9518 111.176 56.8097 111.329 57.2998C111.483 57.7898 111.889 58.0351 112.547 58.0351C112.93 58.0504 113.213 57.9046 113.397 57.5986C113.581 57.2923 113.734 56.7253 113.857 55.8984C113.949 55.0714 114.179 53.7849 114.546 52.039C114.914 50.2931 115.082 49.1289 115.051 48.5468C115.02 47.9648 114.79 47.5975 114.362 47.4443C114.04 47.3524 113.879 47.1301 113.879 46.7783C113.879 46.4261 113.796 46.1574 113.627 45.9736C113.459 45.7898 113.068 45.5374 112.455 45.2158ZM122.798 45.2158C121.956 44.7104 121.12 44.5343 120.293 44.6875C119.467 44.8406 118.755 45.139 118.158 45.583C117.56 46.027 117.093 46.5402 116.756 47.122C116.542 47.5202 116.434 48.0952 116.434 48.8457C116.434 49.596 116.542 50.2313 116.756 50.7519C116.971 51.2726 117.33 51.7632 117.835 52.2226C118.341 52.6821 118.831 52.9498 119.306 53.0263C119.536 53.1029 120.003 53.0805 120.707 52.958C121.411 52.8355 121.825 52.7816 121.948 52.7968C122.009 52.8581 121.948 53.5013 121.764 54.7265C121.55 55.9518 121.519 56.8097 121.672 57.2998C121.825 57.7897 122.231 58.0351 122.89 58.0351C123.273 58.0504 123.556 57.9046 123.74 57.5986C123.923 57.2923 124.077 56.7254 124.2 55.8984C124.291 55.0714 124.52 53.7848 124.888 52.039C125.256 50.2932 125.424 49.1289 125.394 48.5468C125.363 47.9648 125.133 47.5975 124.704 47.4443C124.383 47.3524 124.222 47.1302 124.222 46.7783C124.222 46.426 124.138 46.1574 123.969 45.9736C123.8 45.7899 123.41 45.5372 122.798 45.2158ZM133.14 45.2158C132.298 44.7104 131.463 44.5343 130.636 44.6875C129.809 44.8406 129.097 45.1389 128.499 45.583C127.902 46.0271 127.435 46.5401 127.098 47.122C126.884 47.5202 126.777 48.0952 126.777 48.8457C126.777 49.5958 126.884 50.2313 127.098 50.7519C127.312 51.2726 127.673 51.7632 128.178 52.2226C128.683 52.682 129.174 52.9498 129.649 53.0263C129.879 53.1028 130.346 53.0804 131.05 52.958C131.754 52.8355 132.168 52.7815 132.29 52.7968C132.352 52.8584 132.29 53.5017 132.107 54.7265C131.892 55.9518 131.862 56.8097 132.015 57.2998C132.168 57.7896 132.574 58.035 133.232 58.0351C133.615 58.0504 133.899 57.9048 134.082 57.5986C134.266 57.2923 134.419 56.7253 134.541 55.8984C134.633 55.0714 134.863 53.7848 135.231 52.039C135.598 50.2932 135.767 49.1289 135.737 48.5468C135.706 47.9649 135.476 47.5975 135.047 47.4443C134.726 47.3524 134.565 47.1303 134.565 46.7783C134.565 46.426 134.48 46.1574 134.312 45.9736C134.143 45.7898 133.752 45.5373 133.14 45.2158ZM202.051 44.458C201.347 44.1517 200.367 44.1588 199.111 44.4804C197.855 44.8326 196.844 45.4374 196.078 46.2949C195.313 47.1526 195.006 48.0033 195.16 48.8457C195.175 49.0294 195.236 49.2209 195.343 49.4199C195.558 49.8334 196.101 50.4462 196.974 51.2578L196.515 51.8779C196.163 52.322 195.994 53.0344 196.009 54.0146C196.024 54.9945 196.216 55.7449 196.583 56.2656C197.349 57.3683 198.276 57.9352 199.364 57.9658C200.451 57.9963 201.622 57.5139 202.878 56.5185C204.134 55.4924 204.793 54.5042 204.854 53.5546C204.915 52.6052 204.379 51.7166 203.245 50.8896L202.419 50.2929L203.062 49.6728C203.491 49.2594 203.751 48.8226 203.843 48.3632C203.935 47.9038 203.859 47.291 203.614 46.5254C203.277 45.4533 202.756 44.7643 202.051 44.458ZM213.179 44.458C212.475 44.1517 211.494 44.1589 210.239 44.4804C208.983 44.8326 207.972 45.4375 207.206 46.2949C206.441 47.1526 206.134 48.0033 206.287 48.8457C206.303 49.0294 206.364 49.2209 206.471 49.4199C206.686 49.8334 207.229 50.4462 208.102 51.2578L207.643 51.8779C207.291 52.322 207.122 53.0344 207.137 54.0146C207.152 54.9946 207.344 55.7449 207.711 56.2656C208.477 57.3683 209.404 57.9352 210.492 57.9658C211.579 57.9963 212.75 57.5139 214.006 56.5185C215.262 55.4924 215.921 54.5042 215.982 53.5546C216.043 52.6052 215.507 51.7166 214.373 50.8896L213.546 50.2929L214.19 49.6728C214.619 49.2594 214.879 48.8226 214.971 48.3632C215.063 47.9038 214.986 47.291 214.742 46.5254C214.405 45.4534 213.883 44.7643 213.179 44.458ZM173.111 44.458C172.789 44.1364 171.311 44.1669 168.677 44.5498C167.942 44.6723 167.382 44.7639 166.999 44.8252C166.617 44.8864 166.242 44.9934 165.874 45.1464C165.507 45.2996 165.246 45.438 165.093 45.5605C164.94 45.683 164.802 45.9122 164.679 46.249C164.557 46.5859 164.48 46.9156 164.45 47.2373C164.419 47.5589 164.373 48.1331 164.312 48.9599C164.251 49.787 164.235 50.3161 164.266 50.5459C164.297 50.7754 164.419 50.9976 164.633 51.2119C164.848 51.4262 165.108 51.5484 165.414 51.5791C165.721 51.6097 166.395 51.6178 167.436 51.6025C168.477 51.5719 169.289 51.6482 169.871 51.832C170.469 52.0158 170.875 52.3374 171.089 52.7968C171.212 53.0265 171.234 53.2179 171.158 53.3711C171.066 53.5242 170.774 53.8154 170.285 54.2441C169.795 54.6727 169.359 54.9334 168.976 55.0254C168.593 55.1479 168.041 55.1326 167.322 54.9795C166.602 54.8263 166.074 54.8264 165.737 54.9795C165.4 55.1326 165.207 55.4237 165.161 55.8525C165.1 56.2812 165.2 56.6335 165.46 56.9091C165.721 57.1848 166.318 57.4148 167.252 57.5986C168.186 57.7824 168.96 57.7823 169.573 57.5986C170.2 57.3995 171.02 56.8936 172.031 56.082C173.041 55.2703 173.608 54.6037 173.731 54.083C173.96 53.1795 173.83 52.3142 173.34 51.4873C172.85 50.6603 172.061 50.0018 170.974 49.5117C170.392 49.2055 169.933 49.0212 169.596 48.9599C169.259 48.8987 168.807 48.8915 168.241 48.9375L166.908 49.0058C166.908 48.0718 166.97 47.5586 167.092 47.4668C167.262 47.4054 168.188 47.2597 169.871 47.0302C171.555 46.8007 172.481 46.6326 172.651 46.5254C172.942 46.4028 173.134 46.2797 173.226 46.1572C173.318 46.0345 173.364 45.7665 173.364 45.3535C173.364 44.9249 173.279 44.6265 173.111 44.458ZM176.524 44.0214C176.34 44.0214 176.071 44.1355 175.719 44.3652L175.191 44.7099L175.375 50.3847L175.559 52.6357C175.59 52.8501 175.651 53.0954 175.743 53.3711C175.834 53.6465 175.911 53.838 175.972 53.9453C176.033 54.0525 176.141 54.1675 176.294 54.29C176.447 54.4124 176.6 54.4889 176.753 54.5195C176.891 54.5501 177.091 54.5807 177.351 54.6113C177.611 54.6419 177.848 54.6572 178.063 54.6572L181.049 54.4277V55.6689C181.064 56.3273 181.164 56.8099 181.348 57.1162C181.532 57.4376 181.838 57.5986 182.267 57.5986C182.696 57.5986 183.017 57.4602 183.232 57.1845C183.446 56.909 183.568 56.5799 183.599 56.1972L183.692 54.497C183.722 54.3286 183.944 54.2441 184.358 54.2441C185.123 54.2134 185.613 53.8611 185.827 53.1875C185.935 52.8659 185.812 52.5137 185.46 52.1308C185.108 51.7479 184.733 51.5566 184.334 51.5566C184.151 51.5565 184.013 51.4945 183.921 51.372C183.829 51.2641 183.745 50.3837 183.668 48.7304C183.592 47.0767 183.461 46.0201 183.278 45.5605C183.094 45.101 182.772 44.8711 182.313 44.8711C181.854 44.8711 181.54 44.9629 181.371 45.1464C181.218 45.3302 181.119 45.6599 181.073 46.1347C181.027 46.6096 181.019 47.6437 181.049 49.2363C181.095 50.8289 181.011 51.686 180.796 51.8086C180.581 51.931 179.647 52.0003 177.993 52.0156L177.879 48.3632C177.803 46.7245 177.733 45.6977 177.672 45.2841C177.611 44.8708 177.45 44.5571 177.19 44.3427C176.929 44.1284 176.708 44.0215 176.524 44.0214ZM70.2279 46.2031C70.0747 46.2184 69.9363 46.2418 69.8138 46.2724C69.6914 46.3184 69.5996 46.3876 69.5384 46.4795C69.4772 46.5712 69.416 46.6477 69.3548 46.7089C69.3242 46.7702 69.2936 46.8852 69.263 47.0537C69.2324 47.2221 69.2171 47.3524 69.2171 47.4443C69.1865 47.5362 69.1631 47.7044 69.1478 47.9492V49.9941H68.0218C67.1337 49.9789 66.5208 50.216 66.1839 50.706C65.847 51.1961 65.9468 51.7019 66.4827 52.2226C66.789 52.5289 67.3335 52.6816 68.1146 52.6816H69.3314L69.4232 54.1523C69.4844 55.1323 69.6534 55.7217 69.929 55.9209C70.4498 56.3037 70.9779 56.3037 71.514 55.9209C71.6978 55.783 71.8128 55.607 71.8587 55.3925C71.9046 55.1781 71.9128 54.78 71.8821 54.1982L71.8363 52.7968L73.513 52.8427C74.4164 52.8887 75.0669 52.8194 75.4652 52.6357C75.8634 52.4519 76.0628 52.1151 76.0628 51.625C76.0628 51.1351 75.8946 50.798 75.5579 50.6142C75.221 50.4304 74.5616 50.3002 73.5814 50.2236L71.721 50.1093L71.6058 48.3632C71.5445 47.4139 71.4376 46.8164 71.2845 46.5713C71.1314 46.3262 70.7791 46.2031 70.2279 46.2031ZM200.167 52.2685C200.443 52.2838 200.819 52.4365 201.293 52.7275C201.768 53.0337 202.051 53.2485 202.143 53.3711C202.235 53.4936 202.204 53.6472 202.051 53.831C201.898 54.0148 201.538 54.3134 200.972 54.7265C199.915 55.477 199.164 55.5075 198.72 54.8183C198.49 54.4815 198.421 54.1139 198.513 53.7158C198.605 53.3176 198.835 52.9726 199.202 52.6816C199.57 52.3907 199.892 52.2533 200.167 52.2685ZM211.295 52.2685C211.571 52.2839 211.946 52.4365 212.421 52.7275C212.896 53.0337 213.179 53.2485 213.271 53.3711C213.363 53.4936 213.332 53.6472 213.179 53.831C213.026 54.0148 212.665 54.3132 212.099 54.7265C211.042 55.4769 210.292 55.5075 209.848 54.8183C209.618 54.4814 209.549 54.1139 209.641 53.7158C209.733 53.3176 209.963 52.9726 210.33 52.6816C210.698 52.3907 211.02 52.2532 211.295 52.2685ZM538.887 45.4453C538.721 45.4778 538.507 45.5119 538.252 45.5449C537.367 45.6577 536.268 45.7102 536.096 45.75C535.284 45.9335 537.619 45.8994 537.525 46.0429C537.525 46.0786 537.16 46.1877 536.821 46.3037C537.144 46.3809 537.476 46.4601 537.816 46.5439C538.002 46.5095 538.209 46.4674 538.414 46.4218C538.663 46.368 538.899 46.3126 539.132 46.2558C539.39 46.194 539.634 46.1269 539.739 46.0996C539.772 46.0996 539.811 46.0586 539.5 46.2568C539.395 46.3453 539.282 46.3926 539.092 46.5752C538.905 46.627 538.708 46.6781 538.519 46.7246C538.635 46.7552 538.751 46.7859 538.868 46.8183C538.797 46.9043 538.718 47.0083 538.628 47.1318C538.716 47.1256 538.801 47.1161 538.882 47.1093C538.953 47.0216 539.02 46.9446 539.083 46.8789C539.267 46.9313 539.452 46.9879 539.639 47.0459C539.775 47.0343 539.864 47.0282 539.889 47.038C539.915 47.0494 539.899 47.0751 539.848 47.1123C540.355 47.2753 540.871 47.4599 541.392 47.6796C541.606 47.7761 541.818 47.879 542.048 48.0234C542.263 48.1872 542.572 48.2887 542.841 48.9199C542.989 49.2743 542.855 49.7991 542.691 49.999C542.501 50.2602 542.373 50.3357 542.234 50.4336C542.084 50.5307 541.97 50.5842 541.863 50.6338C541.754 50.6833 541.629 50.7337 541.518 50.7734C540.665 51.0627 540.018 51.1661 539.313 51.2998C539.131 51.3324 538.951 51.3631 538.777 51.3935C538.771 51.3857 538.764 51.3781 538.758 51.3701C538.942 51.3388 539.125 51.3071 539.307 51.2724C539.633 51.2098 539.925 51.1461 540.201 51.0781C540.541 50.9942 540.77 50.93 541.108 50.8183C541.269 50.7636 541.395 50.7168 541.555 50.6494C541.733 50.5731 541.865 50.5094 542.039 50.4033C542.234 50.27 542.401 50.1925 542.62 49.8252C542.707 49.6765 542.782 49.3763 542.727 49.1357C542.672 48.8845 542.582 48.7591 542.48 48.6298C542.112 48.2309 541.821 48.1417 541.536 48.0088C541.262 47.8943 540.995 47.8073 540.731 47.7285C540.511 47.664 540.297 47.6075 540.087 47.5556C540.073 47.5676 540.057 47.5799 540.041 47.5937C539.983 47.6554 539.87 47.7571 539.748 47.917C539.781 47.9268 539.814 47.9363 539.846 47.9463C539.813 47.9571 539.778 47.9678 539.743 47.9795C539.726 47.9847 539.71 47.9901 539.694 47.9951C539.677 48.0197 539.66 48.0453 539.643 48.0722C539.808 48.1203 539.965 48.1698 540.116 48.2177C540.153 48.1625 540.19 48.1109 540.227 48.0664C540.382 48.1174 540.538 48.1702 540.693 48.2255C541.078 48.3732 541.511 48.5393 541.868 48.8173C542.013 48.9175 542.282 49.2494 542.112 49.5322C542.047 49.6541 541.945 49.7399 541.866 49.7978C541.779 49.8615 541.667 49.9227 541.593 49.9589C540.886 50.2869 540.18 50.4227 539.732 50.5498C539.55 50.5966 540.397 50.9214 539.278 51.1074C539.126 51.1304 538.9 51.1509 538.62 51.1621C538.557 51.0569 538.494 50.9384 538.434 50.8037C538.651 50.7449 538.905 50.6782 539.186 50.6074C539.892 50.4187 540.714 50.2456 541.539 49.8379C541.725 49.7323 541.976 49.5908 542.01 49.3535C542.019 49.2253 541.957 49.1322 541.866 49.038C541.857 49.0295 541.846 49.0226 541.836 49.0136C542.359 49.5134 541.683 49.998 539.159 50.4629C538.903 50.5098 538.634 50.5535 538.351 50.5996C538.378 50.6715 538.405 50.7395 538.434 50.8037C538.377 50.8192 538.321 50.833 538.269 50.8476C538.238 50.78 538.208 50.7068 538.179 50.6289C537.444 50.7459 536.62 50.8594 535.715 50.9707C534.993 51.1782 534.481 51.4319 534.141 51.8154C535.586 51.7786 537.103 51.6445 538.586 51.4004C538.592 51.4088 538.599 51.4165 538.605 51.4248C538.218 51.492 537.861 51.5537 537.566 51.6103C537.939 51.603 538.328 51.5876 538.709 51.5703C538.787 51.6741 538.858 51.7556 538.921 51.8222C538.103 51.9712 537.251 52.1021 536.456 52.2138C537.698 52.0952 538.538 51.9898 539.032 51.9296C539.081 51.9737 539.124 52.009 539.163 52.038C538.175 52.3074 535.897 52.7829 535.041 53.2841C534.676 53.5097 539.296 52.6049 534.03 53.7695C537.665 53.4096 536.912 53.6672 539.63 53.0273C539.874 52.9674 540.131 52.9 540.396 52.8232C540.388 52.8785 540.143 52.9935 539.653 53.1455C537.542 53.8678 531.681 54.8157 529.1 55.1914C538.253 54.4847 535.559 54.0576 539.703 53.4257C540.231 53.3256 540.79 53.2282 541.57 53.0244C542.034 52.8826 542.421 52.8279 543.299 52.3359C543.428 52.2584 543.564 52.1677 543.706 52.0576C543.855 51.939 543.975 51.8506 544.224 51.5761C544.444 51.327 544.675 50.9973 544.849 50.5683C545.034 50.139 545.154 49.4256 545.061 48.8427C544.863 47.6451 544.318 47.1248 544.02 46.8017C543.739 46.5179 543.415 46.2929 543.241 46.1796C542.811 45.9755 542.596 45.9339 542.529 45.9365C542.452 45.9382 542.483 45.9812 542.591 46.0576C542.722 46.1471 542.943 46.271 543.262 46.499C543.463 46.6444 543.687 46.814 543.967 47.1191C544.299 47.527 544.851 48.0972 544.835 49.4726C544.722 50.8334 544.053 51.4072 543.712 51.7334C543.403 52.0063 543.053 52.2045 542.872 52.2968C542.482 52.4975 542.132 52.6183 541.922 52.6884C541.429 52.8482 541.205 52.8929 541.303 52.8515C541.456 52.7791 541.769 52.667 542.041 52.5517C542.164 52.4995 542.38 52.4111 542.583 52.3105C542.687 52.2595 542.794 52.2022 542.907 52.1377C543.051 52.0552 543.224 51.9478 543.401 51.8125C543.622 51.588 544.563 51.0881 544.684 49.3808C544.609 47.6357 543.729 47.1648 543.467 46.8906C542.717 46.3254 542.337 46.225 541.855 46.0322C540.963 45.7245 540.076 45.5176 539.151 45.3838C539.078 45.4035 538.99 45.4247 538.887 45.4453ZM533.505 42.7461C533.166 42.8315 532.915 42.9087 532.906 42.9638C532.893 43.2524 537.176 43.3652 536.232 43.5273C535.831 43.6127 535.164 43.6542 534.427 43.6757C534.886 43.7612 535.386 43.8561 535.93 43.9599C536.079 43.9407 536.254 43.9244 536.46 43.9111C538.363 43.7463 537.15 44.1097 536.366 44.3232C536.498 44.3471 536.631 44.3715 536.763 44.3955C537.154 44.3607 537.613 44.3178 538.019 44.2754C538.71 44.2033 539.048 44.1639 539.07 44.2236C539.076 44.2333 539.081 44.2553 538.954 44.3173C538.818 44.3816 538.544 44.4827 538.08 44.6084C538.06 44.6142 538.038 44.62 538.017 44.6259C538.409 44.6986 538.783 44.7677 539.125 44.8339C540.265 45.0916 540.448 44.8459 542.409 45.5078C542.551 45.5626 542.682 45.6164 542.84 45.6894C543.016 45.7717 543.197 45.8644 543.389 45.9795C543.562 46.0818 543.878 46.292 544.164 46.5615C544.427 46.818 545.015 47.3736 545.292 48.4668C545.443 49.0629 545.425 49.7911 545.236 50.3945C545.071 50.93 544.834 51.3175 544.59 51.6308C544.469 51.7855 544.347 51.9185 544.228 52.0341C544.138 52.1214 544.06 52.1903 543.979 52.2578C543.818 52.3911 543.665 52.5003 543.52 52.5937C543.192 52.7988 543.06 52.8577 542.86 52.9541C542.683 53.0374 542.46 53.1272 542.343 53.1709C541.164 53.5924 540.483 53.6939 539.781 53.8427C539.489 53.9009 539.224 53.9534 539.009 54C538.543 54.0996 539.348 54.0433 539.816 54.0341C540.224 54.0159 540.461 54.0325 539.847 54.2002C539.298 54.3525 537.894 54.6475 535.143 54.9697C536.461 54.9285 538.081 54.759 539.886 54.413C540.206 54.3512 540.513 54.2856 540.807 54.2158C541.133 54.1388 541.484 54.047 541.827 53.9414C542.258 53.805 542.585 53.7066 543.213 53.4062C543.456 53.2836 543.919 53.0516 544.425 52.6113C544.898 52.2138 546.307 50.7644 545.867 48.4765C545.399 46.6395 544.548 46.1883 544.21 45.8632C543.741 45.5055 543.523 45.4026 543.238 45.2509C542.735 44.9981 542.339 44.8557 542 44.7382C541.282 44.4947 540.702 44.3467 540.098 44.1972C537.788 43.6478 535.804 43.3066 534.252 42.9218C533.98 42.8596 533.732 42.8008 533.505 42.7461ZM191.397 51.2119C190.447 51.1506 189.635 51.1659 188.961 51.2578C188.288 51.3803 187.836 51.533 187.606 51.7168C187.376 51.9005 187.261 52.207 187.261 52.6357C187.261 53.0645 187.491 53.3637 187.951 53.5322C188.441 53.7006 189.299 53.7851 190.524 53.7851C191.748 53.7851 192.591 53.7006 193.05 53.5322C193.51 53.3638 193.739 53.042 193.74 52.5673C193.74 52.0927 193.587 51.7629 193.281 51.5791C192.974 51.3953 192.346 51.2731 191.397 51.2119ZM221.504 51.2119C220.555 51.1506 219.743 51.1659 219.069 51.2578C218.395 51.3803 217.943 51.533 217.713 51.7168C217.484 51.9005 217.369 52.207 217.368 52.6357C217.368 53.0645 217.598 53.3637 218.058 53.5322C218.548 53.7006 219.406 53.7851 220.631 53.7851C221.856 53.7851 222.698 53.7005 223.158 53.5322C223.617 53.3638 223.847 53.042 223.847 52.5673C223.847 52.0926 223.694 51.7629 223.388 51.5791C223.082 51.3953 222.454 51.2731 221.504 51.2119ZM540.092 44.6806C539.097 44.3624 539.691 44.4265 540.806 44.6972C541.4 44.8542 542.038 45.0151 542.937 45.4365C543.454 45.7682 543.917 45.6874 545.052 47.2627C545.182 47.4776 545.305 47.7263 545.404 48.0048C545.509 48.296 545.603 48.6999 545.623 49.082C545.683 49.8581 545.429 50.6676 545.214 51.0713C544.98 51.5345 544.712 51.8573 544.478 52.0976C544.245 52.3305 544.139 52.4075 543.993 52.5195C543.934 52.5384 544.051 52.4483 544.334 52.1591C544.535 51.9507 544.815 51.6516 545.095 51.1152C545.349 50.6742 545.688 49.535 545.438 48.5341C545.21 47.5629 544.78 47.0358 544.403 46.6347C544.11 46.3373 543.823 46.1278 543.562 45.9619C543.146 45.7028 542.751 45.5304 542.449 45.4101C541.192 44.931 540.285 44.7512 540.092 44.6806ZM539.33 51.9892C539.532 52.1491 539.569 52.1594 539.591 52.1767C539.615 52.1921 539.468 52.128 539.303 52.0732C539.446 52.158 539.572 52.2452 539.551 52.2627C539.533 52.2648 539.501 52.2682 539.341 52.167C539.292 52.1258 539.234 52.0898 539.163 52.038C539.224 52.0214 539.28 52.0042 539.33 51.9892ZM539.42 51.8847C539.754 51.8475 539.712 51.8781 539.435 51.9599C539.404 51.9701 539.368 51.9781 539.33 51.9892C539.328 51.9871 539.323 51.9856 539.321 51.9834C539.29 51.9571 539.263 51.932 539.234 51.9062C539.308 51.8976 539.37 51.8894 539.42 51.8847ZM539.234 51.9062C539.174 51.9131 539.107 51.9204 539.032 51.9296C538.997 51.8989 538.961 51.8638 538.921 51.8222C538.983 51.8109 539.045 51.7986 539.107 51.7871C539.156 51.8377 539.196 51.8737 539.234 51.9062ZM540.981 51.3632C540.455 51.5147 539.949 51.6257 539.393 51.7343C539.298 51.7528 539.202 51.7692 539.107 51.7871C539.054 51.7327 538.988 51.6629 538.903 51.5625L538.902 51.5605C539.056 51.553 539.208 51.5465 539.357 51.538C539.922 51.496 540.438 51.451 540.981 51.3632ZM538.902 51.5605C538.838 51.5636 538.773 51.5674 538.709 51.5703C538.676 51.5259 538.641 51.4775 538.605 51.4248C538.662 51.4149 538.719 51.4036 538.777 51.3935C538.82 51.453 538.861 51.5098 538.902 51.5605ZM538.758 51.3701C538.701 51.3799 538.644 51.3909 538.586 51.4004C538.539 51.3307 538.49 51.2523 538.437 51.167C538.5 51.1657 538.562 51.1644 538.62 51.1621C538.666 51.2379 538.713 51.3066 538.758 51.3701ZM538.394 51.1015C538.408 51.1243 538.423 51.1453 538.437 51.167C538.258 51.1706 538.06 51.1713 537.849 51.164C537.364 51.1468 537.603 51.034 538.269 50.8476C538.312 50.9432 538.353 51.0298 538.394 51.1015ZM110.456 47.2607C110.64 47.2607 110.878 47.3218 111.169 47.4443C111.46 47.5668 111.743 47.689 112.019 47.8115C112.294 47.9337 112.447 48.0256 112.478 48.0869C112.508 48.1481 112.508 48.2255 112.478 48.3173C112.417 48.4092 112.325 48.5316 112.202 48.6845C112.08 48.8377 111.889 49.0444 111.628 49.3046C110.909 50.0243 110.289 50.3998 109.768 50.4306C109.247 50.4613 108.887 50.1396 108.688 49.4658C108.55 49.0371 108.573 48.6389 108.756 48.2714C108.94 47.9039 109.224 47.6434 109.607 47.4902C109.989 47.3371 110.273 47.2608 110.456 47.2607ZM120.799 47.2607C120.983 47.2607 121.22 47.3218 121.511 47.4443C121.802 47.5668 122.086 47.689 122.362 47.8115C122.637 47.9337 122.79 48.0256 122.821 48.0869C122.851 48.1481 122.851 48.2255 122.821 48.3173C122.759 48.4092 122.668 48.5316 122.545 48.6845C122.423 48.8376 122.231 49.0444 121.971 49.3046C121.251 50.0245 120.63 50.4 120.11 50.4306C119.589 50.4611 119.23 50.1394 119.031 49.4658C118.893 49.0371 118.915 48.6389 119.099 48.2714C119.283 47.9039 119.567 47.6434 119.95 47.4902C120.332 47.3371 120.615 47.2607 120.799 47.2607ZM131.142 47.2607C131.326 47.2608 131.563 47.3218 131.854 47.4443C132.145 47.5668 132.428 47.689 132.703 47.8115C132.979 47.9338 133.132 48.0256 133.163 48.0869C133.194 48.1481 133.194 48.2255 133.163 48.3173C133.102 48.4092 133.01 48.5316 132.888 48.6845C132.765 48.8377 132.573 49.0443 132.313 49.3046C131.593 50.0244 130.973 50.4 130.452 50.4306C129.932 50.4613 129.571 50.1397 129.372 49.4658C129.235 49.037 129.258 48.6389 129.442 48.2714C129.625 47.904 129.909 47.6434 130.291 47.4902C130.674 47.337 130.958 47.2607 131.142 47.2607ZM198.812 47.3291C199.869 46.793 200.604 46.7319 201.018 47.1455C201.247 47.3751 201.316 47.5971 201.224 47.8115C201.132 48.0259 200.856 48.3017 200.397 48.6386C199.937 48.9755 199.631 49.1598 199.478 49.1904C199.325 49.2208 199.018 49.1364 198.559 48.9375C198.1 48.7385 197.825 48.6 197.733 48.5234C197.641 48.4468 197.709 48.2788 197.939 48.0185C198.153 47.7582 198.444 47.5282 198.812 47.3291ZM209.94 47.3291C210.996 46.7931 211.731 46.7321 212.145 47.1455C212.375 47.3752 212.444 47.5971 212.352 47.8115C212.26 48.0259 211.984 48.3017 211.525 48.6386C211.065 48.9755 210.759 49.1598 210.606 49.1904C210.453 49.2209 210.146 49.1365 209.687 48.9375C209.227 48.7384 208.952 48.6 208.86 48.5234C208.768 48.4467 208.837 48.2785 209.067 48.0185C209.281 47.7582 209.572 47.5282 209.94 47.3291ZM540.476 47.7607C540.52 47.7556 540.527 47.7599 540.454 47.8252C540.42 47.8571 540.372 47.9023 540.318 47.9609C540.29 47.9899 540.26 48.0266 540.227 48.0664C540.1 48.0246 539.973 47.9852 539.846 47.9463C540.153 47.8454 540.385 47.7787 540.476 47.7607ZM538.662 47.6162C538.76 47.6406 538.858 47.6662 538.957 47.6923C539.104 47.6735 539.288 47.6454 539.507 47.6025C539.642 47.5752 539.774 47.545 539.906 47.5117C539.697 47.4625 539.491 47.417 539.287 47.374C539.06 47.4627 538.831 47.5487 538.662 47.6162ZM538.512 47.291C538.463 47.3686 538.416 47.4531 538.368 47.5429C538.432 47.5581 538.496 47.5749 538.56 47.5908C538.625 47.4723 538.693 47.3661 538.761 47.2705C538.692 47.2573 538.623 47.2441 538.555 47.2314C538.541 47.2508 538.526 47.2706 538.512 47.291ZM537.409 47.0332C537.106 47.1672 537.544 47.1819 538.145 47.1582L537.942 47.122C537.758 47.0901 537.579 47.0613 537.409 47.0332ZM539.739 46.374C539.63 46.4379 539.462 46.5037 539.086 46.8759C539.085 46.8769 539.084 46.8779 539.083 46.8789C539.011 46.8584 538.94 46.8381 538.868 46.8183C538.954 46.7165 539.027 46.6377 539.092 46.5752C539.108 46.5707 539.125 46.5679 539.141 46.5634C539.372 46.5007 539.579 46.4345 539.739 46.374ZM539.794 46.3545C539.777 46.3615 539.757 46.3668 539.739 46.374C539.74 46.3733 539.741 46.3727 539.742 46.372C539.902 46.2943 539.855 46.3308 539.794 46.3545ZM532.615 45.8642C532.069 46.0033 531.753 46.1117 531.849 46.1777C532.363 46.1273 532.881 46.0733 533.397 46.0185C533.072 45.9561 532.782 45.8983 532.615 45.8642ZM536.461 45.1855C535.847 45.1855 538.171 45.998 534.855 45.3564C534.375 45.4593 533.911 45.5614 533.496 45.6543C533.852 45.704 534.277 45.7736 534.754 45.8652C535.97 45.7219 537.149 45.5633 538.221 45.372C538.334 45.3524 538.447 45.3286 538.556 45.3066C537.886 45.2334 537.193 45.1966 536.461 45.1855ZM532.965 44.8379C532.641 44.9252 532.192 45.0164 532.386 45.0185C532.825 45.0212 533.192 45.0125 533.5 45.0009C533.325 44.9477 533.143 44.8933 532.965 44.8379ZM530.559 43.6757C527.876 44.0125 530.301 44.3339 532.059 44.5468C531.878 44.4868 531.769 44.4483 531.778 44.4453C532.141 44.2619 534.52 44.784 534.643 44.705C534.75 44.6225 532.075 44.1989 532.062 44.1718C532.035 43.8562 534.316 44.4552 533.999 44.3017C533.806 44.2048 532.912 43.9486 532.008 43.6875C531.24 43.6785 530.658 43.6674 530.559 43.6757ZM532.902 43.6963C533.564 43.8177 534.396 43.9688 535.274 44.1259C535.386 44.0662 535.565 44.0133 535.853 43.9716C535.064 43.8601 534.397 43.7668 533.839 43.6904C533.526 43.6948 533.209 43.6969 532.902 43.6963ZM523.999 39.2392C523.801 39.1662 524.446 38.6517 526.076 39.0273C531.418 40.2303 527.051 39.7997 539.272 41.2705C533.97 40.746 538.897 41.5207 537.843 41.5127C536.99 41.4925 534.09 40.8937 535.74 41.458C533.48 40.7585 524.16 39.4201 523.99 39.2373C523.993 39.2379 523.996 39.2386 523.999 39.2392ZM530.442 39.6171C530.648 39.4392 538.699 40.7633 540.527 41.2548C539.314 41.0868 530.137 39.808 530.442 39.6171ZM516.271 39.2402C516.208 39.2541 517.464 39.618 518.416 39.9072C519.172 39.9068 519.982 39.9125 520.81 39.9365C519.168 39.6764 516.39 39.1835 516.271 39.2402ZM173.019 23.1328C172.56 22.9339 172.116 22.9653 171.687 23.2255C171.442 23.3788 171.312 23.7462 171.296 24.3281C171.266 24.91 171.357 25.8977 171.572 27.291C171.786 28.6847 171.932 30.2855 172.008 32.0927C172.085 33.8996 172.169 35.0712 172.261 35.6074C172.353 36.1587 172.483 36.5343 172.652 36.7334C172.82 36.9477 173.103 37.0546 173.501 37.0546C173.9 37.0546 174.199 36.9091 174.398 36.6181C174.612 36.3271 174.712 35.8597 174.697 35.2168L174.651 34.0224L176.212 33.9541C176.886 33.9387 177.453 33.8848 177.912 33.7929C178.372 33.701 178.793 33.5402 179.176 33.3105C179.559 33.0655 179.889 32.7744 180.164 32.4375C180.44 32.1006 180.684 31.6791 180.899 31.1738C181.266 30.3469 181.45 29.4205 181.451 28.3945C181.451 27.3684 181.251 26.4871 180.853 25.7519C180.102 24.2818 178.908 23.4552 177.269 23.2714C176.718 23.2102 176.304 23.2102 176.029 23.2714C175.753 23.3327 175.347 23.516 174.811 23.8222C174.275 24.1282 173.962 24.2819 173.869 24.2822C173.778 24.2822 173.732 24.1896 173.732 24.0058C173.732 23.6078 173.493 23.3165 173.019 23.1328ZM511.484 35.1201C511.825 35.2004 512.213 35.2936 512.651 35.4004C512.653 35.4008 512.656 35.4009 512.659 35.4013C512.279 35.2602 511.886 35.1295 511.488 35.0068C511.487 35.0445 511.485 35.0823 511.484 35.1201ZM503.808 35.0019C503.86 35.0119 503.912 35.0223 503.964 35.0322C503.943 34.9777 503.921 34.9243 503.9 34.873C503.848 34.8602 503.796 34.8468 503.744 34.8339C503.766 34.888 503.786 34.9445 503.808 35.0019ZM508.902 34.3408C508.916 34.5402 508.919 34.7397 508.915 34.9375C508.981 34.95 509.044 34.9623 509.104 34.9736C509.107 34.8806 509.106 34.7873 509.106 34.6943C509.103 34.6892 509.105 34.6856 509.107 34.6816C509.107 34.5819 509.104 34.482 509.1 34.3828C509.034 34.3681 508.968 34.355 508.902 34.3408ZM510.423 34.8798C510.506 34.8979 510.594 34.9158 510.687 34.9365C510.688 34.8832 510.689 34.8297 510.689 34.7763C510.6 34.752 510.51 34.7295 510.421 34.706C510.423 34.7638 510.422 34.8221 510.423 34.8798ZM503.112 34.8662C503.175 34.8787 503.24 34.8909 503.303 34.9033C503.273 34.8345 503.24 34.7672 503.208 34.7002C503.143 34.6837 503.078 34.667 503.012 34.6504C503.046 34.721 503.079 34.793 503.112 34.8662ZM502.471 34.7392C502.581 34.7613 502.691 34.7848 502.801 34.8066C502.762 34.7257 502.727 34.6442 502.687 34.5664C502.568 34.5359 502.45 34.5054 502.331 34.4746C502.379 34.5607 502.425 34.6492 502.471 34.7392ZM501.378 34.2177C501.784 34.3665 502.022 34.5162 502.124 34.6689C502.14 34.6721 502.156 34.6754 502.172 34.6787C502.12 34.5801 502.067 34.4843 502.013 34.3916C501.8 34.3353 501.589 34.2754 501.378 34.2177ZM503.656 34.6201C503.705 34.6312 503.756 34.6422 503.806 34.6533C503.771 34.5765 503.738 34.5034 503.704 34.4345C503.658 34.4257 503.611 34.4186 503.565 34.4101C503.595 34.4765 503.625 34.5469 503.656 34.6201ZM502.913 34.4531C502.979 34.468 503.046 34.4829 503.113 34.498C503.081 34.4353 503.049 34.3735 503.017 34.3125C502.952 34.3017 502.887 34.291 502.825 34.2812C502.855 34.3373 502.884 34.3952 502.913 34.4531ZM502.23 34.2978C502.345 34.3243 502.463 34.3505 502.583 34.3779C502.557 34.3297 502.532 34.2813 502.505 34.2343C502.388 34.2185 502.276 34.2058 502.171 34.1953C502.191 34.2287 502.21 34.2637 502.23 34.2978ZM166.424 23.0869C165.781 23.0256 165.091 23.1335 164.356 23.4091C163.621 23.6848 162.916 24.1134 162.243 24.6953C161.569 25.2773 161.048 25.9204 160.68 26.625C160.312 27.3295 160.068 28.0805 159.946 28.8769C159.823 29.6732 159.915 30.454 160.221 31.2197C160.527 31.9853 161.163 32.7051 162.127 33.3789C163.077 34.0374 164.004 34.3671 164.908 34.3671C165.367 34.3518 165.956 34.2062 166.676 33.9306C167.396 33.6549 167.833 33.3944 167.986 33.1494C168.139 32.9043 168.185 32.6285 168.123 32.3222C168.062 32.0162 167.924 31.7715 167.71 31.5879C167.465 31.4041 167.266 31.2962 167.113 31.2656C166.959 31.2351 166.607 31.2961 166.056 31.4492C165.505 31.6023 165.053 31.6715 164.701 31.6562C164.348 31.6409 163.996 31.5187 163.644 31.289C163.292 31.0593 162.993 30.7754 162.748 30.4384C162.503 30.1015 162.373 29.8104 162.358 29.5654C162.359 29.4125 163.355 29.3593 165.344 29.4052C166.401 29.4818 167.228 29.489 167.826 29.4277C168.422 29.3665 168.828 29.2594 169.042 29.1064C169.257 28.9533 169.464 28.6083 169.663 28.0722C169.862 27.5516 169.946 26.9926 169.915 26.3955C169.885 25.7982 169.702 25.2619 169.365 24.7871C169.028 24.3123 168.613 23.9296 168.123 23.6386C167.633 23.3325 167.067 23.1482 166.424 23.0869ZM501.914 34.2255C501.903 34.2078 501.892 34.1894 501.881 34.1718C501.799 34.1675 501.723 34.1659 501.655 34.167C501.739 34.1862 501.826 34.2053 501.914 34.2255ZM510.384 34.1318C510.481 34.1497 510.577 34.1685 510.674 34.1865C510.672 34.1421 510.668 34.0979 510.664 34.0537C510.564 34.0393 510.466 34.0274 510.371 34.0146C510.376 34.0537 510.38 34.0927 510.384 34.1318ZM127.835 19.0673C125.876 19.0367 124.812 19.0593 124.642 19.1357C124.366 19.2276 124.152 19.5034 123.998 19.9629C123.845 20.4223 123.799 20.9047 123.861 21.4101C123.922 21.9155 123.822 23.2406 123.562 25.3847C123.286 27.5286 123.202 29.2438 123.309 30.5302C123.416 31.8167 123.746 32.7978 124.297 33.4716C124.68 33.9308 125.178 34.153 125.79 34.1377C126.403 34.1223 127.613 33.8231 129.42 33.2412C131.227 32.6592 132.59 32.0312 133.509 31.3574C134.428 30.6835 134.88 29.91 134.865 29.0371C134.88 28.5317 134.673 27.9647 134.244 27.3369C133.816 26.7092 133.364 26.2733 132.889 26.0283C132.414 25.7833 132.177 25.599 132.177 25.4765C132.177 25.354 132.468 25.1321 133.05 24.8105C134.091 24.2285 134.742 23.5313 135.002 22.7197C135.263 21.908 135.064 21.2261 134.406 20.6748C133.211 19.664 131.021 19.1287 127.835 19.0673ZM500.075 33.8652C500.131 33.8771 500.187 33.8884 500.241 33.9004C500.179 33.8822 500.118 33.8647 500.058 33.8466C500.063 33.8528 500.069 33.859 500.075 33.8652ZM509.063 33.8925C509.062 33.8887 509.061 33.8847 509.061 33.8808C509.027 33.8793 508.994 33.8758 508.962 33.875C508.996 33.8808 509.029 33.8866 509.063 33.8925ZM511.38 33.498C512.526 33.6646 513.537 33.7926 514.226 33.8515C513.893 33.8293 512.528 33.5638 511.348 33.3213C511.359 33.3798 511.37 33.439 511.38 33.498ZM498.16 33.2148C498.304 33.2976 498.473 33.405 498.667 33.5488C498.704 33.5767 498.738 33.6043 498.772 33.6308C499.146 33.6894 499.484 33.7482 499.789 33.8076C499.771 33.7879 499.753 33.767 499.735 33.748C499.156 33.5702 498.621 33.3911 498.16 33.2148ZM503.139 33.4521C502.894 33.0978 502.894 33.1299 503.115 33.5205C503.152 33.5934 503.199 33.6801 503.253 33.7812C503.289 33.7891 503.326 33.7968 503.362 33.8046C503.272 33.6584 503.195 33.5441 503.139 33.4521ZM154.515 23.9375C153.336 23.9068 152.5 23.9068 152.01 23.9375C151.52 23.9528 151.168 23.9752 150.953 24.0058C150.739 24.0365 150.54 24.1138 150.357 24.2363C150.173 24.3588 150.05 24.4962 149.989 24.6494C149.927 24.7872 149.897 25.0019 149.897 25.2929C149.897 25.5688 149.935 26.2732 150.012 27.4062C150.089 28.5396 150.05 29.3822 149.897 29.9336C149.744 30.4847 149.407 30.8442 148.886 31.0127C148.518 31.1505 148.243 31.3581 148.059 31.6338C147.875 31.9091 147.806 32.1845 147.852 32.4599C147.898 32.7356 148.051 32.9737 148.312 33.1728C148.572 33.3718 148.894 33.4716 149.277 33.4716C149.66 33.4716 150.02 33.3872 150.357 33.2187C150.694 33.0503 151.015 32.813 151.322 32.5068C151.628 32.2005 151.887 31.8321 152.102 31.4033C152.286 30.9745 152.424 30.5612 152.516 30.163C152.608 29.7649 152.662 29.1907 152.677 28.4404V26.5566H155.916V28.3027C155.916 29.4512 155.832 30.4621 155.663 31.3349C155.372 32.9123 155.74 33.7011 156.766 33.7011C157.149 33.7011 157.44 33.6094 157.639 33.4257C157.838 33.242 157.984 32.9122 158.076 32.4375C158.167 31.9627 158.274 31.0516 158.397 29.7041C158.519 28.3563 158.535 27.245 158.443 26.372C158.366 25.4842 158.137 24.8639 157.754 24.5117C157.509 24.2667 157.203 24.113 156.835 24.0517C156.468 23.9905 155.694 23.9528 154.515 23.9375ZM502.419 33.5976C502.49 33.6135 502.56 33.6306 502.631 33.6464C502.568 33.5468 502.505 33.45 502.441 33.3564C502.369 33.3482 502.301 33.3396 502.237 33.332C502.297 33.4177 502.359 33.5061 502.419 33.5976ZM508.795 33.5332C508.88 33.5482 508.955 33.5621 509.019 33.5722C509.015 33.5494 509.011 33.5266 509.007 33.5039C508.941 33.4864 508.864 33.4674 508.778 33.4463C508.783 33.4749 508.79 33.5043 508.795 33.5332ZM501.648 33.4209C501.779 33.4514 501.913 33.4822 502.046 33.5127C501.992 33.4357 501.938 33.3604 501.884 33.288C501.713 33.2649 501.592 33.2459 501.532 33.2275C501.515 33.223 501.501 33.2163 501.487 33.2119C501.54 33.279 501.594 33.3488 501.648 33.4209ZM510.275 33.33C510.381 33.3467 510.486 33.3638 510.59 33.3798C510.579 33.3043 510.564 33.2297 510.55 33.1552C510.435 33.1306 510.326 33.1062 510.225 33.0839C510.242 33.1657 510.26 33.2475 510.275 33.33ZM498.316 31.9511C498.501 32.0489 498.817 32.1866 499.281 32.5302C499.69 32.6472 500.02 32.7373 500.043 32.748C500.684 32.9941 500.289 32.959 499.639 32.8164C499.699 32.8674 499.763 32.9199 499.827 32.9775C500.285 33.0954 500.776 33.2147 501.284 33.3349C501.085 33.088 500.889 32.8733 500.706 32.6884C500.671 32.6542 500.637 32.6208 500.604 32.5888C499.85 32.3988 498.908 32.1514 498.284 31.9375C498.294 31.9422 498.305 31.9461 498.316 31.9511ZM183.977 22.9951C183.793 22.9951 183.594 23.0724 183.379 23.2255C183.165 23.3787 183.042 23.5009 183.011 23.5927C182.98 23.6847 182.935 23.8915 182.873 24.2129C182.812 24.5345 182.797 24.9711 182.827 25.5224C182.843 26.0738 182.858 27.3144 182.873 29.2441C182.904 31.1739 183.012 32.2617 183.196 32.5068C183.38 32.7209 183.755 32.8127 184.321 32.7822C184.887 32.7516 185.339 32.6132 185.676 32.3681C186.013 32.1231 186.442 31.6793 186.963 31.0361C187.484 30.393 187.805 29.995 187.928 29.8418C188.066 29.6886 188.188 29.5502 188.295 29.4277L188.801 28.9228C188.847 28.8769 188.878 28.8616 188.893 28.8769C188.985 28.9392 189.061 29.5056 189.122 30.5761C189.184 31.6481 189.314 32.3605 189.513 32.7129C189.712 33.0651 190.042 33.2412 190.501 33.2412C190.96 33.2411 191.29 33.1036 191.489 32.8281C191.734 32.5525 191.833 32.139 191.787 31.5879L191.466 27.4521C191.436 26.6557 191.358 26.0583 191.236 25.6601C191.113 25.2621 190.876 24.9637 190.524 24.7646C189.804 24.397 188.686 25.0708 187.169 26.7861L185.745 28.417L185.447 26.0966C185.324 25.1476 185.217 24.4968 185.125 24.1445C185.033 23.8076 184.864 23.5318 184.619 23.3173C184.375 23.1031 184.161 22.9953 183.977 22.9951ZM502.313 27.3447C502.458 27.3891 502.611 27.438 502.757 27.4863C503.055 27.5848 503.326 27.6813 503.638 27.8046C504.041 27.9619 504.457 28.1446 504.917 28.3964C505.437 28.6979 506.282 29.1322 507.296 30.3359C507.841 30.9897 508.397 31.9471 508.691 33.0693C508.769 33.0829 508.848 33.096 508.926 33.1093C508.875 32.9061 508.813 32.7088 508.738 32.5205C508.4 31.5303 507.889 30.7439 507.403 30.167C506.965 29.6585 506.718 29.446 506.401 29.1806C505.083 28.1712 504.639 28.0982 504.077 27.8466C503.944 27.7944 503.814 27.7473 503.687 27.7031C503.566 27.6614 503.495 27.6391 503.402 27.6093C503.223 27.553 503.049 27.5021 502.876 27.455C502.703 27.408 502.531 27.364 502.36 27.3232C502.214 27.2892 502.093 27.2626 501.959 27.2343C502.08 27.2708 502.197 27.3078 502.313 27.3447ZM501.373 33.0713C501.428 33.0329 501.538 32.9999 501.636 32.9716C501.592 32.9185 501.549 32.8666 501.506 32.8164C501.381 32.7858 501.224 32.7444 501.044 32.7002C501.148 32.8125 501.261 32.9351 501.373 33.0713ZM498.94 25.0507C499.613 25.2524 500.547 25.4548 501.647 25.7207C501.946 25.7926 502.242 25.8666 502.537 25.9463C502.839 26.027 503.285 26.1522 503.672 26.2812C504.005 26.3914 504.655 26.6161 505.318 26.9423C505.494 27.0294 505.638 27.1039 505.868 27.2334C506.142 27.3884 506.436 27.5702 506.751 27.7959C507.066 28.0218 507.403 28.2924 507.756 28.6308C507.944 28.8137 508.076 28.9431 508.33 29.2353C508.6 29.5474 508.872 29.9074 509.129 30.3203C509.594 31.0109 509.969 31.9291 510.194 32.9267C510.287 32.9249 510.393 32.9292 510.51 32.9355C510.452 32.6651 510.378 32.4029 510.288 32.1533C509.648 30.0818 508.251 28.6693 507.779 28.248C507.121 27.6474 506.534 27.2635 506.02 26.9668C505.281 26.5458 504.736 26.3223 504.195 26.1201C503.81 25.9767 503.448 25.8614 503.093 25.7588C500.576 25.0741 499.279 24.9942 498.94 25.0507ZM498.423 32.5302C498.487 32.5654 498.555 32.6051 498.626 32.6484C498.786 32.6951 498.954 32.7429 499.129 32.791C499.055 32.7349 498.984 32.6838 498.916 32.6377C498.681 32.5744 498.447 32.5063 498.241 32.4384C498.291 32.4637 498.352 32.4915 498.423 32.5302ZM499.427 30.7675C499.834 30.9981 500.378 31.3397 501.04 31.956C501.198 32.1068 501.368 32.279 501.545 32.4736C501.638 32.495 501.729 32.5163 501.82 32.5371C501.492 32.1494 501.192 31.8556 500.974 31.6679C500.561 31.3011 500.196 31.0419 499.887 30.8437C499.619 30.7672 499.369 30.6925 499.15 30.6211C499.235 30.6639 499.327 30.7118 499.427 30.7675ZM499.021 31.1279C499.353 31.307 499.801 31.5706 500.377 32.0576C500.436 32.1049 500.511 32.1689 500.598 32.249C500.763 32.2889 500.93 32.3303 501.098 32.3701C500.686 31.9499 500.347 31.6873 500.201 31.5791C500.088 31.4942 499.979 31.4171 499.876 31.3466C499.484 31.2251 499.047 31.0879 498.705 30.9716C498.795 31.0132 498.899 31.0648 499.021 31.1279ZM200.476 22.1679C199.557 21.9383 198.585 21.9159 197.559 22.0996C197.084 22.1761 196.617 22.3064 196.158 22.4902C195.698 22.6434 195.269 22.8418 194.87 23.0869C194.472 23.3319 194.181 23.5548 193.997 23.7539C193.814 23.9528 193.683 24.1138 193.607 24.2363C193.53 24.3587 193.462 24.4965 193.401 24.6494C193.339 24.8025 193.294 24.9562 193.263 25.1093C193.232 25.2624 193.202 25.4919 193.171 25.7978C193.141 26.0887 193.132 26.3494 193.148 26.5791C193.178 26.8088 193.232 26.993 193.309 27.1308C193.401 27.2533 193.523 27.4063 193.676 27.5898C193.829 27.7736 193.968 27.9272 194.09 28.0498C194.213 28.1721 194.335 28.2793 194.457 28.3711C194.58 28.4629 194.702 28.5393 194.825 28.6005C194.932 28.6618 195.077 28.7391 195.261 28.831C195.445 28.9229 195.568 28.9992 195.629 29.0605C195.675 29.1371 195.636 29.2595 195.514 29.4277C195.391 29.5962 195.161 29.6806 194.825 29.6806C194.488 29.696 194.159 29.8416 193.837 30.1171C193.516 30.3928 193.355 30.6534 193.355 30.8984C193.355 31.1434 193.508 31.4193 193.814 31.7255C194.12 32.0315 194.357 32.2149 194.526 32.2763C194.694 32.3376 195.055 32.3151 195.606 32.208C196.157 32.1161 196.731 31.8015 197.328 31.2656L200.155 28.9687L200.224 30.1396C200.27 31.0278 200.499 31.6334 200.912 31.955C201.341 32.2767 201.832 32.2308 202.383 31.8173L202.544 31.6562C202.59 31.6102 202.636 31.5184 202.682 31.3808C202.728 31.243 202.758 31.0974 202.774 30.9443C202.789 30.7911 202.811 30.5459 202.842 30.2089C202.873 29.872 202.881 29.5198 202.866 29.1523C202.866 28.7847 202.873 28.0032 202.888 26.8086C202.903 25.6144 202.896 24.7876 202.866 24.3281C202.835 23.8687 202.728 23.5236 202.544 23.2939C202.085 22.7732 201.395 22.3977 200.476 22.1679ZM498.092 31.0068C498.208 31.0828 498.547 31.2199 498.76 31.3193C498.9 31.3855 498.358 31.5745 498.497 31.6523C498.508 31.7097 499.2 31.9026 500.082 32.123C499.793 31.8863 499.568 31.7413 499.344 31.5957C498.999 31.3791 498.736 31.2542 498.619 31.2021C498.334 31.0741 498.176 31.0273 498.092 31.0068ZM141.094 22.9951C140.267 22.9645 139.593 23.0876 139.073 23.3632C138.552 23.6388 138.139 23.8914 137.832 24.1211C137.541 24.3508 137.304 24.6114 137.12 24.9023C136.952 25.1933 136.798 25.5993 136.66 26.1201C136.523 26.6406 136.477 27.1917 136.523 27.7734C136.569 28.386 136.73 28.9376 137.005 29.4277C137.281 29.9178 137.626 30.3472 138.039 30.7148C138.453 31.0822 138.92 31.3348 139.441 31.4726C139.961 31.6103 140.497 31.6023 141.048 31.4492C141.6 31.296 142.151 30.9978 142.702 30.5537L143.484 29.8642L143.713 30.5078C143.974 31.1968 144.295 31.6254 144.678 31.7939C145.046 31.9777 145.459 31.8859 145.918 31.5185L146.448 31.1054L145.942 28.6464C145.651 26.9926 145.551 26.0123 145.643 25.706C145.735 25.3998 145.567 25.0475 145.138 24.6494C144.74 24.2512 144.173 23.8838 143.438 23.5468C142.703 23.2099 141.921 23.0257 141.094 22.9951ZM176.902 25.913C177.392 25.8671 177.836 26.0586 178.234 26.4873C178.632 26.9161 178.816 27.6437 178.785 28.6699C178.755 29.696 178.494 30.4389 178.004 30.8984C177.698 31.1587 177.07 31.3267 176.12 31.4033L174.697 31.5185L174.398 28.5322C174.382 28.2106 174.405 27.9114 174.466 27.6357C174.527 27.3601 174.62 27.1615 174.743 27.039C174.865 26.9165 175.133 26.7018 175.546 26.3955C175.96 26.0892 176.412 25.9284 176.902 25.913ZM127.72 27.2685C128.915 27.2379 129.757 27.3295 130.247 27.5439C130.737 27.7583 131.181 28.0189 131.579 28.3252C131.978 28.6315 132.177 28.8767 132.177 29.0605C132.177 29.1831 131.747 29.4437 130.89 29.8418C130.032 30.2399 129.098 30.6074 128.087 30.9443C127.077 31.2811 126.411 31.4572 126.089 31.4726C125.982 31.4573 125.898 31.0971 125.836 30.3925C125.775 29.6881 125.767 29.06 125.813 28.5088L125.951 27.3369L127.72 27.2685ZM498.253 30.539C498.36 30.6151 498.72 30.7472 499.097 30.8808C498.938 30.7996 498.821 30.7465 498.752 30.7168C498.505 30.6112 498.345 30.5624 498.253 30.539ZM498.401 30.1142C498.481 30.1575 498.639 30.2148 498.851 30.2841C498.814 30.2684 498.78 30.2535 498.747 30.2402C498.589 30.1757 498.476 30.1371 498.401 30.1142ZM496.583 27.8935C493.901 27.7446 500.374 28.6792 502.814 29.1738C500.616 28.4477 497.365 27.9635 496.583 27.8935ZM140.865 25.4765C141.079 25.4459 141.416 25.5151 141.875 25.6836C142.334 25.8519 142.572 25.9742 142.587 26.0507C142.587 26.1273 142.365 26.572 141.921 27.3838C141.401 28.2715 140.926 28.792 140.497 28.9453C140.053 29.0984 139.678 28.8765 139.371 28.2793C138.835 27.3144 139.004 26.5409 139.877 25.9589C140.321 25.6681 140.65 25.5072 140.865 25.4765ZM496.99 26.7031C497.066 26.6169 497.075 26.4969 496.407 26.8213C496.129 27.0014 495.799 27.1019 495.14 27.7021C495.615 27.4927 496.022 27.3004 496.358 27.1191C496.661 26.9563 496.901 26.8041 496.99 26.7031ZM104.937 25.4521C105.694 25.9109 106.531 26.4957 107.455 27.292C107.686 27.3506 107.916 27.4102 108.146 27.4697C106.692 26.3738 105.68 25.8127 104.937 25.4521ZM198.386 24.6035C199.06 24.527 199.642 24.5575 200.132 24.6953C200.377 24.8026 200.491 25.0479 200.476 25.4306C200.491 25.5836 200.469 25.7213 200.408 25.8437C200.346 25.9662 200.247 26.0741 200.109 26.166C199.971 26.2579 199.664 26.4259 199.19 26.6709C198.715 26.9158 198.317 27.039 197.995 27.039C197.674 27.039 197.191 26.8853 196.548 26.5791C195.905 26.2881 195.583 26.0733 195.583 25.9355C195.584 25.6753 195.882 25.4073 196.479 25.1318C197.076 24.8561 197.712 24.6801 198.386 24.6035ZM165.735 25.7295C166.347 25.6223 166.76 25.6754 166.975 25.8896C167.159 26.104 167.25 26.3188 167.25 26.5332C167.25 26.7475 167.167 26.8859 166.998 26.9472C166.83 26.9779 166.485 26.9931 165.964 26.9931C165.444 26.9931 165.046 26.9778 164.77 26.9472C164.035 26.8553 163.859 26.6559 164.242 26.3496C164.624 26.0433 165.122 25.8367 165.735 25.7295ZM497.974 26.1074C497.64 25.9849 490.871 25.3186 491.302 25.5664C491.74 25.6673 494.361 25.9295 496.38 26.1543C498.421 26.3769 500.107 26.5786 497.974 26.1074ZM480.582 25.9755C479.168 25.8238 475.009 25.446 474.302 25.664C475.83 25.6963 479.954 26.1848 480.582 25.9755ZM477.427 25.0351C475.225 24.5612 474.682 25.5244 477.223 25.3769C477.322 25.3708 477.506 25.06 477.427 25.0351ZM475.903 22.8867C472.141 24.0298 486.169 23.6085 487.831 24.9707C477.527 24.0279 485.707 25.227 488.85 25.3593C490.117 25.4144 490.592 25.2963 488.886 24.7861C488.493 24.6629 487.973 24.5175 487.295 24.3466C487.904 24.4451 488.435 24.53 488.898 24.6045C495.294 25.6457 490.282 24.4131 491.562 24.3457C493.073 24.2556 498.21 25.19 497.994 24.7822C497.992 24.7818 497.988 24.7816 497.986 24.7812C494.86 24.3271 491.938 24.038 488.95 23.7656C488.836 23.7553 488.722 23.7455 488.608 23.7353C488.737 23.7885 488.849 23.8368 488.943 23.8818C489.616 24.1845 489.482 24.307 488.916 24.3056C487.771 24.3049 484.637 23.7471 483.264 23.1474C482.388 23.2608 481.539 23.3804 480.659 23.5029C479.251 22.2443 478.675 24.0358 475.903 22.8867ZM128.179 21.663C129.19 21.6477 130.078 21.7241 130.844 21.8925C131.61 22.0763 131.985 22.23 131.97 22.3525C131.953 22.4755 131.195 22.8961 129.696 23.6152C128.195 24.335 127.26 24.7411 126.893 24.833C126.525 24.9249 126.311 24.9554 126.249 24.9248C126.188 24.8939 126.188 24.7868 126.249 24.6035C126.311 24.4197 126.395 23.8608 126.502 22.9267L126.64 21.663H128.179ZM465.109 24.0205C463.687 23.5417 462.024 24.4797 464.355 24.6045C465.043 24.6394 465.259 24.0745 465.109 24.0205ZM448.97 23.3818C444.75 22.7493 447.427 23.9072 449.796 23.791C449.897 23.7797 449.075 23.3977 448.97 23.3818ZM473.826 23.2158C470.8 22.6704 472.176 23.9084 474.465 23.7431C474.597 23.7337 473.969 23.2421 473.826 23.2158ZM475.251 20.7841C476.033 20.6487 483.253 21.2196 489.065 21.9043C492.358 22.2801 495.305 22.6995 496.29 22.8476C493.831 22.9814 492.058 22.4585 489.052 22.1152C488.857 22.0927 488.655 22.0718 488.448 22.0517C487.57 21.9681 487.789 22.2116 487.695 22.2021C486.156 22.059 487.324 21.9201 486.367 21.8222C485.775 21.7118 473.442 21.0519 475.251 20.7841ZM406.061 21.2402C403.108 21.5263 412.199 21.8785 409.571 21.3789C409.441 21.3554 406.211 21.2277 406.061 21.2402ZM445.681 21.0791C444.311 21.0672 440.545 20.6784 440.327 20.956C441.695 20.9639 445.468 21.3506 445.681 21.0791ZM453.558 19.8545C455.825 20.1408 472.317 21.0861 473.087 21.0869C473.306 21.0737 473.473 20.7783 473.367 20.7588C472.53 20.5791 455.873 19.8024 453.558 19.8545ZM41.5404 20.3955C41.1121 20.488 40.7173 20.5822 40.3831 20.6748C40.5783 20.7678 40.7814 20.8701 40.9945 20.9804C41.4253 20.9097 41.8702 20.8585 42.3187 20.8213C42.0468 20.6658 41.7875 20.5248 41.5404 20.3955ZM473.722 20.1787C475.544 19.6523 483.87 20.7864 478.161 20.6259C477.604 20.6105 475.323 20.152 473.722 20.1787ZM33.1038 20.039C32.7521 20.031 32.8792 20.0748 33.0335 20.1045C33.3706 20.1673 34.0317 20.2197 34.6488 20.2431C34.5947 20.2327 34.5421 20.2223 34.4915 20.2129C33.4194 20.0271 33.3231 20.0552 33.1038 20.039ZM444.51 19.1601C438.873 19.0702 449.682 19.973 448.274 19.4853C448.177 19.4551 445.094 19.1695 444.51 19.1601ZM33.2454 17.8339C32.9757 17.8564 33.0488 17.9416 33.0277 18.0507C33.0363 18.2311 32.9415 18.3418 33.0814 18.4277C33.1672 18.4734 33.3221 18.5098 33.7962 18.5937C34.1657 18.659 34.7078 18.7366 35.8138 19.0107C36.0937 19.0814 36.4145 19.1675 36.7923 19.2802C36.9262 19.3237 37.0248 19.353 37.1351 19.3857C37.9792 19.3727 38.6702 19.3518 39.2249 19.3261C37.2563 18.5077 37.1866 18.6249 36.5579 18.4121C36.4953 18.3953 36.4339 18.3808 36.3743 18.3652C34.557 18.1521 33.1324 17.9368 33.2943 17.8564C33.2756 17.8493 33.2639 17.8408 33.2571 17.8339C33.2533 17.8342 33.2491 17.8337 33.2454 17.8339ZM445.113 18.5048C444.825 18.4693 438.978 18.0567 438.864 18.2861C439.723 18.4102 448.258 18.8812 445.113 18.5048ZM442.521 17.6777C441.824 17.6812 440.74 17.9621 440.815 17.9873C444.41 18.9159 455.261 17.9966 448.159 17.8857C448.019 17.8853 449.393 18.3855 446.634 18.1953C446.404 18.1794 445.988 17.6635 442.521 17.6777ZM459.265 17.707C459.023 17.2422 465.716 17.9041 467.484 17.956C465.945 18.1797 461.718 17.7969 459.265 17.707ZM418.737 16.791C419.083 17.0597 426.201 17.5134 426.541 17.4892C429.936 17.2348 419.282 16.7082 418.737 16.791ZM415.024 14.9746C413.201 14.6084 418.767 14.5991 420.419 15C421.219 15.4998 415.253 15.0179 415.024 14.9746ZM39.8128 14.6689C42.2391 13.6845 36.2557 14.0987 35.1888 14.75C34.6763 15.0592 38.7421 15.0948 39.8128 14.6689ZM327.517 8.5732C326.806 8.43126 327.271 6.5982 330.176 7.60152C330.558 7.73133 328.721 8.05018 329.031 8.19332C329.219 8.27775 335.59 9.13678 335.891 9.1191C336.21 9.09946 335.868 8.47395 336.193 8.43746C336.562 8.39904 340.444 9.27731 342.5 9.46285C346.35 9.81272 346.79 9.36424 347.104 9.39059C348.027 9.46744 349.552 9.93937 351.421 10.0918C355.4 10.4174 360.271 10.7201 365.131 11.0478C371.718 11.4938 378.375 11.9922 382.708 12.7705C376.704 12.1029 370.971 12.0503 365.114 11.8173C364.426 11.7898 363.74 11.7605 363.056 11.7265C365.014 10.8975 353.35 11.7773 360.171 11.1474C357.058 11.2458 329.909 9.07036 327.525 8.57418C327.522 8.57393 327.519 8.57343 327.517 8.5732ZM66.7239 4.86227C68.5928 4.82171 70.7225 5.39414 69.7523 5.69527C69.519 5.76713 65.7062 5.6998 63.8519 6.00191C58.3817 6.89408 59.8807 7.47159 59.5628 7.53316C59.2129 7.60168 55.6829 7.55809 53.8109 7.86129C49.0713 8.63463 47.0173 9.40921 40.3353 9.93356C44.0426 8.78867 41.7907 8.05714 46.053 7.69039C45.7329 7.8891 45.3902 8.09192 45.0609 8.29293C50.9932 6.96555 57.9249 6.65398 64.7855 5.75973C66.5313 5.53482 64.4056 4.91279 66.7239 4.86227ZM75.6595 8.55465C75.3489 8.53284 71.7325 9.04733 71.9144 9.37496C73.2526 9.41766 77.7501 8.68354 75.6595 8.55465ZM317.861 8.62594C316.374 8.35858 309.957 7.82666 312.433 8.42281C312.819 8.51327 317.73 8.96188 317.861 8.62594ZM298.753 5.57223C294.492 5.91914 312.25 7.87318 307.62 6.6318C307.289 6.53524 299.142 5.53663 298.753 5.57223ZM290.159 6.14547C288.128 6.40664 294.51 7.37423 292.774 6.55856C292.674 6.52198 290.277 6.13105 290.159 6.14547ZM191.673 5.96969C188.719 5.29233 188.964 6.68845 191.1 6.61227C191.859 6.58465 191.766 5.99103 191.673 5.96969ZM172.784 6.16012C171.272 6.2687 167.323 6.0975 166.622 6.50875C168.505 6.42123 173.29 6.97062 172.784 6.16012ZM109.879 6.19137C109.802 5.71974 105.702 6.00405 106.264 6.29879C106.439 6.39573 109.957 6.56949 109.879 6.19137ZM192.589 5.74508C190.874 6.0455 193.902 6.97365 195.974 5.91988C194.902 6.03473 192.759 5.71597 192.589 5.74508ZM202.333 4.54879C201.105 4.52699 200.22 5.59138 200.361 5.63668C201.721 6.05456 203.574 4.90901 202.333 4.54879ZM237.423 3.93551C237.589 3.29588 231.176 3.71025 233.724 4.21383C234.364 4.33684 237.36 4.14569 237.423 3.93551ZM124.351 2.50582C124.579 2.48061 127.785 2.64712 127.89 2.68649C130.029 3.49561 119.448 3.0479 124.351 2.50582ZM264.631 2.42281C265.254 2.13721 268.728 2.59298 270.069 2.59566C269.838 2.9888 266.122 2.49055 264.631 2.48531C264.604 2.48518 264.577 2.48513 264.552 2.48531C264.566 2.46135 264.593 2.44069 264.631 2.42281ZM177.157 1.56539C186.342 1.46881 185.214 2.13546 177.178 2.28902C174.508 2.33254 171.037 2.30569 166.893 2.15133C166.852 1.61049 166.807 1.78289 168.283 1.74117C171.943 1.63709 174.888 1.58231 177.157 1.56539ZM197.889 1.42867C197.07 1.97885 194.419 1.89768 192.634 1.8984C192.936 1.52443 196.604 1.5614 197.889 1.42867ZM126.359 1.76168C125.79 0.918992 133.012 1.26874 133.562 1.45797C135.793 2.20915 126.957 1.57247 126.359 1.76168ZM210.133 1.25777C210.645 2.05403 204.935 1.62068 203.007 1.78316C202.495 0.981695 208.149 1.42219 210.133 1.25777ZM220.269 0.102501C220.415 0.0742316 223.728 0.0594099 223.887 0.0858992C226.634 0.623033 217.249 0.674312 220.269 0.102501ZM237.557 0.362266C238.858 -0.241707 242.592 0.0835145 244.999 0.120079C243.92 0.614524 239.59 0.368723 237.557 0.362266Z" fill="white"/>
</svg>
