<svg width="261" height="91" viewBox="0 0 261 91" fill="none" xmlns="http://www.w3.org/2000/svg">
<path d="M42.3801 1.10135C47.6086 2.48572 47.4547 1.21129 48.8772 1.34061C49.369 1.38851 53.0267 2.54836 57.0207 2.58475C54.152 2.68515 51.2823 2.79427 48.425 2.9119C51.2302 3.15698 56.7009 3.05311 59.0237 3.33377C60.1522 3.46968 59.2083 4.33106 61.6702 4.37772C62.1916 4.38406 64.3084 2.27659 57.8362 3.06717C57.3343 2.28085 60.3952 2.86678 61.8254 2.69217C62.0398 2.66455 62.9195 1.40127 64.7278 2.26053C65.1673 2.48139 60.2946 6.04471 72.6848 3.77909C73.0862 3.70738 71.7121 3.18334 72.1047 3.10135C72.3794 3.04512 75.5148 3.36263 75.8762 3.31327C76.2367 3.25727 74.7227 2.68125 75.1506 2.59842C77.357 2.17423 80.1389 4.32666 75.6584 3.97635C77.1522 4.29047 78.6499 4.60765 80.1428 4.9285C78.5867 3.32814 82.5235 4.60918 84.6174 4.67557C98.0746 5.15056 89.1236 3.64814 91.4592 3.27225C95.2514 2.70295 92.2358 5.08798 97.8596 4.7117C98.3179 4.68491 93.2977 3.45491 100.69 4.21756C101.857 4.33964 103.219 4.50684 105.015 4.7537C103.545 4.64766 102.146 4.55549 100.673 4.46854C100.12 4.43616 99.5642 4.40555 99.0061 4.37479C99.2759 4.77601 99.8808 4.99909 100.631 5.11112C102.874 5.43127 106.33 4.89725 106.729 4.92459C112.216 5.31306 108.388 5.34655 116.756 5.68436C117.491 5.71954 119.08 6.30939 120.727 6.39334C127.512 6.7227 111.993 4.60465 111.72 4.10819C111.46 3.64148 128.192 6.28844 128.704 6.71659C131.025 7.76273 121.093 5.546 122.886 6.65702C123.164 6.82715 129.591 7.8897 135.532 9.241C141.464 10.5849 146.194 11.5635 147.947 12.0213C151.105 12.9006 152.772 14.4878 153.448 13.8719C153.569 13.7326 153.653 13.4867 153.704 13.1043C154.418 15.3474 155.635 14.0561 156.119 14.1336C162.526 15.0944 162.719 15.0889 168.701 15.4265C170.039 15.4982 171.156 16.2201 171.63 16.1521C171.911 16.1102 171.427 15.3959 172.804 15.2996C174.679 15.1813 186.22 16.7305 187.095 17.1531C187.939 17.5818 182.174 16.9568 183.179 17.6355C187.35 17.998 191.393 18.133 195.653 18.5008C197.421 18.6554 196.494 19.0071 197.257 19.0701C197.584 19.096 203.745 19.1775 203.497 19.0086C202.85 18.5917 184.018 17.4897 189.009 17.1082C189.965 17.0353 193.298 18.2424 192.815 17.0301C200.242 17.6874 207.744 18.344 215.43 19.1248C219.283 19.5194 223.166 19.9383 227.323 20.4803C229.332 20.748 231.586 21.058 234.003 21.4783C235.313 21.7059 236.646 21.951 238.373 22.3523C239.298 22.5704 240.363 22.8294 241.832 23.2967C242.715 23.5791 243.703 23.9226 244.939 24.4607C246.22 25.0615 248.823 26.0926 252.275 29.1795C255.395 31.8459 261.008 39.2207 260.282 49.0008C259.547 58.2745 254.62 63.4251 251.999 65.784C248.485 68.7912 246.232 69.599 245.023 70.1687C243.886 70.6517 242.974 70.9623 242.153 71.2205C241.392 71.4555 240.92 71.5799 240.359 71.7234C238.2 72.2588 236.855 72.4645 235.555 72.6697C236.808 72.3751 238.128 72.0903 240.228 71.5027C240.772 71.3473 241.267 71.2004 241.97 70.9695C242.777 70.7021 243.672 70.3843 244.787 69.9002C245.857 69.3946 248.21 68.4947 251.507 65.7078C253.964 63.5284 258.93 58.6489 259.848 49.4431C260.784 39.7234 255.126 32.119 251.995 29.4881C248.335 26.229 245.499 25.2206 244.444 24.7361C243.173 24.2101 242.107 23.8678 241.265 23.6189C239.924 23.2208 238.583 22.9242 237.799 22.7586C235.915 22.3676 234.554 22.148 233.193 21.9305C230.467 21.5063 228.245 21.203 225.886 20.8992C221.337 20.3148 216.995 19.8275 212.811 19.5115C211.345 19.3977 206.597 18.9144 207.15 19.5447C216.311 20.5123 225.493 20.49 238.259 23.3367C238.748 23.4612 236.823 23.5412 238.716 24.0594C239.336 24.2326 240.053 24.4059 241.323 24.7859C242.081 25.0174 242.967 25.3025 244.13 25.7801C245.145 26.2493 247.724 27.1307 251.283 30.2703C253.243 32.0756 255.913 34.9764 257.644 39.907C259.46 44.7905 259.148 51.3733 257.357 55.6687C255.61 60.1188 253.22 62.7122 251.425 64.4041C251.311 64.5102 251.198 64.614 251.086 64.7137C250.971 64.8162 250.867 64.9064 250.812 64.9539C250.68 65.0683 250.549 65.1787 250.421 65.2849C250.165 65.4975 249.916 65.6947 249.676 65.8787C249.195 66.2464 248.747 66.563 248.325 66.8426C244.765 69.0751 243.807 69.2072 242.573 69.7312C241.306 70.1945 240.742 70.3656 240.019 70.5867C239.676 70.6897 239.348 70.7835 239.031 70.8709C238.73 70.9544 238.511 71.0154 238.263 71.0808C236.236 71.6056 235.13 71.8098 234.584 71.826C234.467 71.8191 235.532 71.4746 236.425 71.0838C237.448 70.6689 238.351 70.1922 237.48 70.1599C233.377 69.8428 233.171 72.2195 230.494 72.5349C228.232 72.8515 215.709 72.7903 212.792 73.6912C209.62 74.6931 221.89 73.4353 221.074 74.1082C212.7 75.4355 204.381 75.2827 196.804 75.8797C196.671 75.8904 197.882 76.283 196.193 76.4627C193.287 76.7719 192.44 76.1639 191.019 76.159C189.473 76.1508 184.167 76.6579 183.501 76.4812C183.425 76.4542 184.36 75.7255 184.526 75.6922C186.817 75.2305 187.696 76.0208 187.922 76.0135C188.74 75.9828 189.457 75.6035 190.195 75.5681C191.416 75.5104 192.091 75.7668 193.704 75.6805C194.82 75.6219 193.693 75.1149 194.754 75.0672C195.136 75.0492 199.531 76.0978 199.794 74.7019C199.821 74.5468 195.326 74.6722 189.542 74.9676C186.655 75.1171 183.448 75.3118 180.443 75.5574C178.972 75.6762 177.52 75.8124 176.299 75.9519C175.732 76.0135 175.154 76.0903 174.808 76.1326C174.465 76.1662 174.212 76.2356 174.91 75.9734C171.249 77.0659 167.412 78.4074 166.425 78.7986C169.645 77.9384 172.609 77.085 175.057 76.5222C170.158 77.6631 161.904 81.4064 160.937 80.032C147.317 83.8466 133.889 85.2321 121.076 85.8601C110.018 86.4297 98.0801 86.2763 87.1555 85.2928C83.0289 84.8513 85.2705 84.2133 78.6311 83.8982C80.313 84.297 82.0384 84.7037 83.7571 85.1101C80.2214 84.6058 65.5419 83.0685 63.1213 83.1258C62.8278 83.1291 62.3607 83.7904 58.6965 83.6258C55.4314 83.4851 54.8604 82.9516 53.1418 82.7674C51.6525 82.6152 50.008 82.6737 49.5696 82.6267C49.2323 82.5896 49.1002 82.2773 48.2756 82.1912C45.7187 81.9267 47.8144 82.8569 45.2532 81.7859C45.8792 81.771 46.4969 81.7567 47.1057 81.743C46.1536 81.6616 45.065 81.5493 44.1516 81.4334C42.2211 81.1834 41.1959 80.9087 44.1438 80.8484C44.201 80.8473 44.2605 80.8455 44.3206 80.8445C45.1219 80.8317 44.4393 81.1012 45.0344 81.1199C65.6749 81.9092 52.787 80.8469 44.1438 80.8221C43.2216 80.8195 42.3518 80.8267 41.5793 80.8465C39.4996 80.3489 27.8281 80.3319 27.4377 80.2488C26.8951 80.1234 28.889 79.8357 26.259 79.5096C25.709 79.4319 10.0623 79.4258 15.6829 78.992C16.8457 78.8977 24.353 79.1121 26.1584 79.1297C21.8916 78.2168 11.9327 79.2979 10.8069 79.242C6.27036 79.0687 19.4954 78.635 9.27954 78.4412C1.41771 78.3018 8.81266 78.8938 5.79614 79.0877C4.10166 79.1874 -4.82212 78.5374 -4.55933 79.2537C-7.6158 79.2898 -5.8402 78.9372 -6.21656 78.9051C-6.58596 78.8794 -12.602 79.0133 -14.5632 78.8406C-14.8001 78.8196 -14.0652 78.4755 -14.3103 78.4431C-14.7886 78.3898 -20.5987 78.3874 -20.8337 78.4109C-20.9822 78.4286 -19.587 78.7496 -20.155 78.8142C-20.8148 78.8894 -26.4202 78.7231 -26.7244 78.7986C-27.1573 78.9182 -20.2461 78.9592 -21.3884 79.2722C-24.5767 79.1316 -29.7653 79.2399 -31.8669 79.4353C-31.3537 79.377 -28.2612 79.4415 -27.1853 79.492C-27.6815 79.9603 -34.3203 79.7659 -32.0593 79.4637C-33.4974 79.6208 -32.5106 79.7511 -33.3191 79.9119C-33.5338 79.9526 -35.5799 79.8987 -35.9773 79.9637C-36.0275 79.9774 -33.9097 80.2174 -34.3298 80.2967C-35.094 80.4426 -41.3192 80.1775 -41.8318 80.1131C-43.2674 79.9411 -38.1961 79.9844 -37.7742 79.8055C-37.7153 79.7777 -42.0231 79.2688 -42.1043 79.2342C-42.3592 78.8859 -37.5588 79.283 -38.1111 78.951C-39.3018 78.8508 -40.4872 78.7505 -41.6775 78.6502C-37.1028 78.4758 -28.6345 78.8237 -26.4636 78.4724C-33.2398 78.4739 -40.3432 78.2653 -40.3435 77.4646C-40.3459 77.1279 -37.4299 76.9777 -37.5398 76.8865C-37.978 76.568 -42.0296 76.8377 -42.1824 76.8152C-42.3046 76.7945 -42.3613 76.776 -42.363 76.7586C-42.3612 76.5844 -36.5874 76.5419 -36.2937 76.4568C-35.812 76.3106 -38.3909 75.6679 -38.3943 75.534C-38.2948 75.5098 -34.1941 75.3898 -35.5867 75.1414C-37.0006 74.894 -40.5992 74.871 -40.7253 74.8445C-41.417 74.7042 -35.1211 74.5952 -34.9334 74.5047C-34.8408 74.4604 -38.2232 74.1956 -38.323 74.1209C-38.4034 74.046 -35.8413 73.8788 -34.8357 73.6297C-34.0858 73.4446 -36.2829 73.3191 -35.8992 73.2889C-35.6181 73.271 -29.6802 73.2263 -29.3865 73.1883C-28.9539 73.1351 -30.3493 72.9272 -30.1482 72.8699C-29.8606 72.7873 -27.9462 72.8441 -28.1941 72.7644C-28.3827 72.7007 -35.8339 72.0423 -35.7966 71.8484C-35.7203 71.5137 -27.8281 72.154 -35.1834 70.9431C-35.2335 70.9358 -37.011 71.0635 -37.0671 71.0564C-37.7287 70.9252 -35.9512 70.6942 -35.9148 70.576C-38.0846 70.623 -40.2689 70.6688 -42.4705 70.7078C-47.806 70.8024 -53.1552 70.9197 -58.5125 71.0447C-57.8222 71.0509 -57.2723 71.0728 -56.95 71.1189C-59.2099 71.3297 -64.1782 71.2704 -66.2332 71.4236C-66.4696 71.4433 -65.1486 72.2051 -68.2459 71.7556C-69.4213 71.5776 -66.3696 71.3061 -63.1003 71.1541C-65.5507 71.2131 -68.0024 71.2696 -70.4548 71.3299C-71.2102 71.4697 -71.7531 71.6868 -72.1375 72.031C-65.6358 72.3807 -57.7945 71.3777 -55.822 71.3299C-52.8041 71.2378 -55.926 71.5488 -55.5525 71.6062C-55.4191 71.6237 -52.8308 71.5371 -52.7869 71.5545C-50.9134 72.3685 -64.3661 71.8899 -68.5935 72.1629C-67.4562 72.271 -66.3183 72.3758 -65.1814 72.4793C-66.7188 72.5323 -68.2571 72.5858 -69.7947 72.6394C-62.4613 72.6935 -69.5339 72.7313 -71.3425 73.5701C-71.746 73.759 -66.9433 73.2861 -72.4216 73.9695C-68.3687 73.9307 -69.6562 74.131 -65.9949 73.7801C-66.0818 74.0801 -74.3239 74.757 -77.5759 75.0574C-66.0694 74.9286 -72.6512 74.0726 -62.7019 74.2615C-60.8709 73.8228 -65.6034 74.0788 -65.2244 74.0027C-63.8416 73.7329 -60.5813 73.9401 -56.6746 73.0603C-56.0391 72.9189 -58.7501 72.6305 -54.7498 72.5232C-54.3088 72.513 -51.775 72.7427 -51.7849 72.7674C-52.118 73.0213 -54.6413 73.0161 -54.7439 73.1228C-54.8341 73.223 -52.0394 73.0686 -52.0164 73.0945C-51.9267 73.3957 -54.3593 73.2942 -54.0066 73.3777C-53.2383 73.5698 -43.1066 73.8209 -56.3152 74.1502C-45.3549 73.3757 -54.9176 73.7474 -59.1873 74.0525C-60.2757 74.1302 -60.5474 74.3324 -62.0984 74.4637C-64.0928 74.6336 -66.4337 74.6383 -67.4666 74.7176C-68.5766 74.8071 -62.2493 74.9976 -71.3884 75.2586C-66.7259 75.5209 -58.529 74.6633 -53.9587 74.7791C-44.7413 74.9737 -60.3574 75.822 -61.9871 75.9783C-62.4193 76.0171 -60.96 76.205 -61.2488 76.2351C-61.7231 76.2846 -70.596 76.6118 -71.4666 76.8826C-72.3323 77.1532 -68.218 76.705 -67.9363 76.9217C-67.7508 77.0631 -78.4459 77.9295 -72.6472 77.7215C-68.6496 77.5659 -61.3081 76.5575 -60.0525 77.1375C-65.9194 77.5191 -71.7907 77.9114 -77.6687 78.2996C-74.4443 78.3874 -71.2208 78.4604 -68.0007 78.5203C-74.5897 79.0094 -80.3019 79.0417 -86.5691 79.8015C-71.4804 79.7725 -91.4283 80.8181 -91.6707 80.9373C-91.7425 81.0144 -85.7872 81.377 -84.8289 81.4383C-90.0747 82.0737 -106.109 83.234 -96.7107 83.575C-98.416 83.4761 -102.534 84.272 -102.48 84.3103C-101.942 84.7057 -92.9561 83.8104 -94.4168 84.282C-96.1075 84.8362 -98.5007 84.4202 -101.118 84.6414C-114.566 85.7518 -110.842 87.8572 -124.427 88.2957C-124.156 88.3662 -123.885 88.4358 -123.615 88.5056C-131.809 88.8993 -140.042 89.1831 -148.317 89.3064C-154.959 89.4059 -161.587 89.4179 -168.233 89.3367C-174.107 90.1993 -189.721 90.4955 -197.366 90.0623C-198.91 89.9964 -206.401 89.1719 -206.966 89.0467C-207.999 88.8324 -202.208 89.0598 -204.793 88.6267C-205.354 88.5615 -218.04 87.6036 -217.185 88.1717C-215.769 88.3256 -211.289 88.3296 -210.562 88.492C-207.396 89.2239 -221.682 88.3624 -233.04 87.4353C-239.834 86.9054 -245.774 86.3573 -246.533 86.4285C-245.679 86.689 -244.83 86.946 -243.979 87.201C-246.457 86.8991 -248.947 86.5824 -251.459 86.242C-250.422 86.1835 -249.371 86.125 -248.343 86.0613C-251.205 85.6896 -255.133 85.4023 -257.865 84.9236C-258.31 84.8451 -257.074 84.5182 -258.132 84.3719C-259.179 84.2252 -259.099 84.8831 -260.661 84.7576C-262.421 84.6378 -270.528 83.0266 -274.203 82.1219C-275.835 81.7476 -277.564 81.3366 -279.887 80.5603C-281.108 80.138 -282.393 79.6854 -284.347 78.7205C-286.307 77.3715 -288.774 77.6118 -294.804 69.5486C-297.306 65.9117 -299.4 59.413 -298.55 53.3953C-298.478 52.7354 -298.371 52.0883 -298.241 51.4578C-300.437 47.2627 -302.458 39.7294 -300.829 33.0291C-299.381 26.2662 -295.956 21.8462 -293.336 19.2029C-293.012 18.8771 -292.631 18.5178 -292.386 18.2928C-292.178 18.1011 -291.973 17.9173 -291.771 17.742C-291.368 17.3913 -290.978 17.0717 -290.601 16.7771C-289.848 16.1881 -289.149 15.6986 -288.5 15.2762C-287.851 14.8541 -287.251 14.4984 -286.692 14.1873C-286.413 14.0319 -286.143 13.8876 -285.884 13.7527C-285.637 13.6246 -285.513 13.5591 -285.334 13.4685C-283.989 12.79 -282.885 12.3369 -281.904 11.9705C-280.996 11.6337 -280.481 11.463 -279.844 11.2732C-279.326 11.1205 -278.849 10.9992 -278.39 10.8963C-276.543 10.5001 -274.981 10.4501 -272.87 10.0408C-261.785 8.04671 -253.617 7.45106 -244.577 6.82987C-249.685 9.13595 -240.463 7.32549 -240.08 7.40018C-237.962 7.76203 -247.427 8.61238 -243.672 8.65506C-238.425 8.20095 -233.213 7.80209 -228.035 7.43241C-232.302 7.45204 -222.47 5.46549 -220.64 6.00662C-221.46 4.29244 -197.165 6.30932 -193.557 5.5994C-192.805 5.44195 -197.789 4.79784 -186.238 4.67557C-184.982 4.66392 -185.443 5.217 -184.789 5.13846C-184.418 5.0937 -182.255 3.442 -179.857 4.02127C-179.744 4.04725 -179.63 4.07863 -179.516 4.11405C-179.224 4.205 -179.578 4.39461 -179.842 4.5867C-180.062 4.75516 -180.217 4.92524 -179.83 5.03202C-179.172 5.20755 -177.001 5.1982 -171.218 4.81034C-176.562 3.21019 -152.693 3.34391 -148.408 3.80155C-149.273 3.57644 -150.141 3.35266 -151.01 3.12967C-146.715 3.70474 -145.945 3.10239 -144.98 3.12284C-141.092 3.20879 -135.775 3.77556 -132.184 3.70194C-127.984 3.61685 -127.959 2.51163 -123.085 2.92166C-124.239 2.68201 -125.395 2.44324 -126.552 2.20487C-123.18 2.24774 -119.817 2.29435 -116.465 2.34061C-124.243 3.83605 -114.793 2.40681 -114.17 2.37088C-113.179 2.31356 -114.605 2.91979 -112.949 2.83866C-112.778 2.82558 -113.02 2.25993 -110.471 2.18534C-105.153 2.03004 -106 2.74787 -103.773 2.7283C-103.571 2.72281 -104.276 2.21646 -100.441 2.0701C-88.2807 1.58749 -100.491 2.46771 -100.97 2.53787C-101.59 2.63299 -97.3937 4.75849 -107.784 4.04764C-104.294 4.274 -103.949 5.21817 -103.555 5.241C-103.205 5.26023 -97.174 5.0905 -96.8445 5.0535C-93.8892 4.70837 -96.4889 4.07964 -95.9138 3.95877C-95.4403 3.86367 -88.2075 4.64099 -86.5398 2.65702C-83.0881 4.41233 -88.4995 4.33284 -94.3074 4.65799C-95.1516 5.03644 -88.7859 5.33544 -88.45 5.32791C-84.9802 5.28505 -83.7997 4.99653 -83.4529 4.61209C-83.2032 4.33551 -83.3842 4.00743 -83.4607 3.67655C-83.492 3.54066 -83.5056 3.40381 -83.4646 3.2703C-83.4159 3.11293 -83.2907 2.95925 -83.0291 2.81522C-82.0947 2.30385 -78.762 3.25808 -81.8435 1.97928C-74.437 1.70322 -78.9177 2.55729 -78.4392 2.66385C-77.7123 2.81832 -75.1239 2.38376 -74.7918 2.42655C-74.3119 2.49173 -75.9679 2.98863 -74.0789 3.11112C-73.7641 3.12823 -70.7409 2.26638 -74.6628 1.97245C-69.4248 1.96999 -69.8642 1.29668 -68.0574 2.62186C-64.488 -0.0558617 -65.3971 4.0849 -63.9626 4.1951C-60.1495 4.47861 -61.2945 2.47412 -61.0974 2.36893C-59.7357 1.69905 -49.1285 2.09978 -46.4832 1.73319C-47.4925 3.22759 -54.9134 1.98509 -56.5447 2.31424C-62.0058 3.41146 -48.7897 2.83277 -52.7293 4.78495C-51.0682 4.23274 -49.4036 3.67938 -47.7361 3.12674C-44.6207 4.22688 -48.9935 4.86179 -40.6853 4.20487C-39.3516 3.14494 -46.5621 4.52501 -45.1296 3.68045C-44.2887 3.18381 -39.4645 2.95206 -39.3718 2.70096C-39.2903 2.39875 -43.6409 2.87097 -42.9646 2.39139C-41.507 1.34706 -25.4809 1.90219 -37.6443 2.74686C-34.6949 2.65695 -32.9493 4.11197 -30.6111 4.04276C-30.2609 4.03241 -29.8982 3.98806 -29.5154 3.8992C-28.8043 3.73365 -29.8705 3.28037 -30.6404 2.78592C-31.2997 2.36277 -31.7417 1.90829 -30.6668 1.57694C-29.6387 1.26134 -27.225 1.05293 -22.2576 1.11795C-21.9001 2.0439 -28.721 1.51869 -28.9001 1.59647C-29.1461 1.70544 -27.8705 3.79043 -27.655 3.89139C-26.919 4.19834 -10.3523 2.80363 -6.79859 3.88065C-7.72414 3.07861 -1.91392 3.21382 2.59204 3.33866C4.8256 3.40013 6.73233 3.44272 7.23559 3.3201C7.63189 3.21998 6.15271 2.46492 6.57641 2.38846C9.22091 1.93389 16.3805 3.31197 19.7131 3.37479C23.4407 3.44511 22.9718 2.801 23.1799 2.8035C24.8213 2.85489 23.5089 3.2764 24.512 3.28495C26.0235 3.29229 36.4694 3.50697 36.9983 3.42948C37.1484 3.40213 35.4514 2.64689 37.7307 2.54178C38.128 2.52615 37.8651 3.3798 44.637 3.12479C52.7992 2.82992 38.9842 1.94408 42.3801 1.10135ZM182.335 76.2029C183.043 76.2179 182.916 78.0933 180.031 77.6414C179.65 77.5841 181.288 76.9326 180.98 76.8484C180.67 76.7886 174.978 77.1606 175.226 77.2029C175.146 77.2404 175.202 77.4216 175.245 77.5926C174.104 77.8023 172.611 78.1351 171.551 78.4764C167.609 79.7517 167.118 80.3998 166.799 80.5037C165.76 80.8319 163.857 81.068 161.634 81.6951C150.231 85.1661 133.06 87.4867 124.567 86.949C132.191 86.8512 139.513 85.7154 147.369 84.1902C145.261 85.6478 158.884 81.0794 150.932 83.8933C152.949 83.5886 167.782 79.3013 175.174 76.7361C174.431 77.0082 174.662 76.9371 174.917 76.9129C175.225 76.8697 175.596 76.8203 176.08 76.7566C176.932 76.6506 177.94 76.5393 178.809 76.4558C180.548 76.2893 181.909 76.1975 182.327 76.2039C182.33 76.2037 182.333 76.2031 182.335 76.2029ZM-82.2117 86.4129C-84.4913 86.3167 -76.8473 85.6872 -79.4626 86.1824C-79.5741 86.2029 -82.1193 86.4167 -82.2117 86.4129ZM82.4875 85.8553C81.6484 85.3219 87.9504 86.0618 88.2327 86.1072C90.1896 86.5447 84.1701 86.3356 82.4875 85.8553ZM-268.132 83.7556C-267.698 83.8265 -259.443 85.0686 -260.154 85.2566C-261.849 85.6485 -269.537 83.79 -268.132 83.7556ZM-95.5203 84.864C-95.7908 84.8511 -91.8758 83.8421 -90.7654 84.2771C-89.9125 84.6098 -94.8142 84.8855 -95.5203 84.864ZM76.2532 83.1023C72.7453 83.2119 83.697 84.1947 84.3332 84.1394C83.9596 83.857 76.5624 83.0856 76.2532 83.1023ZM-86.3357 82.7273C-82.904 82.208 -72.2296 82.8977 -83.6648 83.5262C-83.6621 83.526 -83.6587 83.5254 -83.656 83.5252C-86.6365 83.6845 -84.7996 83.2918 -84.9373 83.2947C-91.2976 83.3914 -89.6025 83.8421 -90.5945 83.9861C-92.724 84.2928 -92.3945 83.5523 -95.989 84.1023C-90.0472 83.2439 -95.4597 83.8098 -95.6335 83.5613C-96.3185 82.5629 -87.7035 83.5064 -84.7498 83.0564C-84.3392 82.9982 -87.3904 82.8957 -86.3357 82.7273ZM34.6477 82.5838C36.1822 82.299 40.5349 82.5442 43.0276 82.5789C43.2967 83.0303 36.4333 82.5581 34.6477 82.5838ZM61.761 82.199C58.1052 81.1881 47.1069 82.1756 54.302 82.2537C54.4563 82.2547 53.0259 81.754 55.8577 81.9451C56.0995 81.9635 56.4997 82.4692 60.0178 82.4871C60.6985 82.49 61.8483 82.225 61.761 82.199ZM-276.346 80.868C-278.87 80.1977 -282.84 78.7015 -280.344 79.9353C-278.939 80.662 -273.479 82.1965 -272.2 82.407C-271.391 82.248 -273.692 81.6307 -276.346 80.868ZM63.7307 81.9324C62.8947 81.7735 54.2127 81.2453 57.3928 81.6414C57.6989 81.669 63.6128 82.1502 63.7307 81.9324ZM-78.1775 80.8367C-75.8091 80.8578 -81.2836 81.3094 -82.8875 81.3269C-82.9773 81.1833 -78.3788 80.8351 -78.1775 80.8367ZM58.0129 80.989C63.7507 81.1178 52.7475 80.1501 54.1858 80.656C54.2714 80.6838 57.4288 80.9733 58.0129 80.989ZM23.678 80.4285C24.2344 80.41 26.5926 80.7378 28.2034 80.6336C26.3801 81.2311 17.8696 80.622 23.678 80.4285ZM-21.8337 80.033C-21.385 80.0157 -10.6895 80.0834 -12.7146 80.4461C-14.0908 80.6976 -24.6149 80.1836 -21.8337 80.033ZM-9.67261 80.0711C-9.08839 80.2425 -10.4716 80.6897 -11.7419 80.4246C-12.2861 80.3111 -11.2834 80.0486 -9.67261 80.0711ZM44.135 80.0496C38.3095 79.804 29.36 79.6375 28.7981 79.6961C28.5742 79.7199 28.4244 80.0236 28.5315 80.0379C29.152 80.1033 38.2504 80.2168 44.1379 80.2918C46.4366 80.3177 48.1189 80.3377 48.8157 80.325C48.127 80.245 46.4385 80.1417 44.135 80.0496ZM13.9553 79.5428C15.5027 79.5549 14.3523 79.7908 15.3059 79.8094C15.913 79.8178 28.4164 79.7135 26.6223 80.1062C25.3538 80.3652 8.20603 79.8209 5.43774 79.7937C7.89318 79.3204 9.89714 79.732 13.2102 79.7576C14.1029 79.7633 13.8605 79.5424 13.9553 79.5428ZM98.1682 80.0281C101.392 79.7584 91.4749 79.3384 94.3352 79.8601C94.4726 79.8923 98.0076 80.0479 98.1682 80.0281ZM-21.6521 79.7469C-24.9041 79.3503 -10.3219 79.6977 -9.48511 79.7683C-10.4414 79.941 -21.209 79.8073 -21.6521 79.7469ZM-16.532 79.0945C-13.0752 79.2728 -5.46497 78.9715 -8.5896 79.5623C-10.1598 79.8557 -11.2013 79.4583 -11.4021 79.451C-13.3576 79.3738 -17.4119 79.3754 -16.532 79.0945ZM62.2981 79.2381C60.8863 79.2045 57.0288 78.7893 56.8352 79.0633C58.2267 79.0756 62.0734 79.509 62.2981 79.2381ZM13.5764 76.7947C29.1265 76.9734 3.26966 75.6465 14.1731 77.3709C5.20941 76.7219 11.2474 77.5634 9.87329 77.7693C8.40344 77.9848 3.33112 77.7128 3.60083 78.1121C3.6034 78.1121 3.60607 78.1121 3.60864 78.1121C6.70668 78.1062 9.80193 78.0995 12.8948 78.0955C9.84065 77.1877 16.1732 77.4802 18.3342 78.2478C19.2102 78.0712 20.0844 77.8934 20.9592 77.7137C22.4425 78.8799 22.9647 77.049 25.8411 78.0428C29.606 76.6724 15.3497 77.9328 13.5764 76.7947ZM2.73071 77.991C0.127134 77.6386 -5.20321 77.9785 -3.82105 78.1043C-3.21035 78.1594 2.2731 78.2497 2.73071 77.991ZM-9.88941 77.3953C-12.9367 77.6866 -26.8607 77.3751 -27.5876 77.4129C-28.1468 77.4465 -23.9115 78.0154 -30.5447 77.6297C-30.5472 77.6296 -30.55 77.6297 -30.5525 77.6297C-25.6935 78.4932 -19.1603 77.6568 -18.4412 77.6717C-17.7273 77.6997 -18.8345 78.0479 -18.6736 78.0594C-18.3012 78.0862 -10.6901 78.1314 -10.324 78.1062C-10.063 78.0867 -11.4523 77.5526 -9.88941 77.3953ZM175.259 77.6492C175.287 77.77 175.299 77.8768 175.239 77.9109C175.203 77.9319 175.058 77.9384 174.972 77.9109C174.909 77.8786 174.831 77.8587 175.259 77.6492ZM-59.533 77.8758C-58.6861 77.6136 -49.1485 76.9577 -49.3835 77.2127C-49.592 77.432 -58.0347 77.7843 -59.533 77.8758ZM-16.6414 77.7986C-18.5488 77.5694 -13.2174 77.5842 -11.9265 77.6726C-9.05682 77.8758 -16.3917 77.8283 -16.6414 77.7986ZM27.9475 77.6062C31.0779 78.0049 29.577 76.8316 27.2707 77.1121C27.1373 77.1282 27.8023 77.5865 27.9475 77.6062ZM175.259 77.6492C175.255 77.6306 175.25 77.6116 175.245 77.5926C175.318 77.5793 175.388 77.5648 175.457 77.5525C175.381 77.5876 175.316 77.6213 175.259 77.6492ZM-42.4314 76.1326C-42.1648 76.1465 -42.815 76.8324 -44.6726 76.8435C-50.4942 76.878 -46.2742 76.2071 -58.4373 77.534C-53.3312 76.7892 -58.1596 77.1929 -57.1668 76.9539C-56.3688 76.7656 -53.3636 76.722 -55.115 76.5301C-52.8138 76.7151 -42.8673 76.1013 -42.4187 76.1316C-42.4228 76.1318 -42.4273 76.1324 -42.4314 76.1326ZM-9.04077 75.9617C-10.9866 76.3829 -19.3218 76.3795 -24.1414 76.4256C-19.9008 76.6086 -13.0185 76.9246 -8.8396 77.0496C-7.6464 77.0858 -6.49597 76.9018 -5.47925 76.9246C-3.85301 76.963 -5.28121 77.231 -5.17652 77.242C-5.17383 77.242 -5.17044 77.242 -5.16773 77.242C-3.03287 77.4015 -0.308601 76.7939 -4.85718 76.7224C-3.26277 76.632 -1.6682 76.5381 -0.074954 76.4431C-6.039 76.1063 -5.57808 76.9437 -7.2898 76.9041C-9.68147 76.8487 -9.51463 76.1758 -9.04077 75.9617ZM52.6262 76.3553C52.5245 76.3674 53.3714 76.744 53.4758 76.7596C57.7942 77.3889 55.023 76.2281 52.6262 76.3553ZM-18.7937 76.781C-21.2226 76.767 -24.9796 76.5987 -26.2966 76.867C-23.8657 76.8891 -20.1095 77.0657 -18.7937 76.781ZM10.0198 76.5291C9.11673 76.4153 -0.440857 76.5474 3.42212 76.7986C3.73541 76.8186 10.461 76.7073 10.0198 76.5291ZM37.6184 75.8279C36.9058 75.8157 36.7015 76.3885 36.8586 76.4373C38.3447 76.8675 40.0186 75.8792 37.6184 75.8279ZM24.1653 75.9842C26.4317 76.3325 26.9493 75.341 24.3538 75.6306C24.2528 75.6419 24.0828 75.9642 24.1653 75.9842ZM-7.36695 74.7224C-8.87051 74.5186 -13.985 75.089 -15.033 75.2185C-7.35151 74.9777 -10.2308 75.5645 -8.85425 75.7527C-5.93392 76.1563 -7.00208 74.7737 -7.36695 74.7224ZM27.3391 75.1844C25.7602 75.225 21.4811 74.9851 20.8743 75.24C22.3246 75.2922 26.6209 75.434 27.3391 75.1844ZM-46.7117 74.6404C-46.5899 74.7672 -50.1819 74.9621 -50.4919 74.9558C-52.512 74.9018 -48.0458 74.6151 -46.7117 74.6404ZM4.52368 74.8299C7.21211 74.651 0.318025 74.4172 -0.98511 74.826C0.354229 74.7961 3.7593 74.8798 4.52368 74.8299ZM211.727 74.5076C216.028 73.5062 197.598 74.3132 202.516 74.826C202.854 74.8654 211.328 74.5999 211.727 74.5076ZM-60.0349 74.4646C-58.0135 74.5287 -62.4839 74.8155 -63.8191 74.7859C-63.9448 74.6441 -60.3469 74.4555 -60.0349 74.4646ZM-10.4392 74.4139C-8.23183 74.9635 -6.3114 73.7147 -9.67261 73.9998C-9.83362 74.014 -10.529 74.3857 -10.4392 74.4139ZM197.361 73.8152C196.944 73.7855 191.917 74.1409 191.854 74.4959C193.382 74.509 199.956 74.0083 197.361 73.8152ZM-50.9695 74.3377C-53.5894 74.2227 -47.0125 73.7697 -46.3005 74.0506C-46.1789 74.1014 -50.4703 74.3572 -50.9695 74.3377ZM220.54 72.614C222.615 72.0396 215.816 72.0778 217.747 72.614C217.829 72.6381 220.434 72.6461 220.54 72.614ZM-255.909 68.4051C-255.386 68.7314 -254.966 68.9592 -254.614 69.1433C-254.522 69.0004 -254.426 68.8496 -254.327 68.6902C-254.294 68.6493 -254.261 68.6072 -254.228 68.5652C-254.678 68.5105 -255.23 68.4571 -255.909 68.4051ZM224.609 67.989C225.723 68.5755 226.38 68.7376 226.714 68.9246C226.771 68.9469 226.827 68.9666 226.88 68.9871C226.929 68.9817 226.979 68.9758 227.027 68.9705C227.45 68.918 227.879 68.8768 227.989 68.7986C228.095 68.7209 228.08 68.6263 227.395 68.4588C227.01 68.3657 226.648 68.29 226.316 68.2264C226.402 68.2655 226.459 68.3036 226.508 68.3728C226.689 68.5109 226.534 68.5064 225.994 68.3064C225.864 68.2358 225.697 68.1715 225.48 68.0847C225.132 68.0346 224.838 68.0035 224.609 67.989ZM106.873 49.7361C106.521 49.7514 106.268 49.8125 106.114 49.9197C105.961 50.0423 105.824 50.2572 105.701 50.5633C105.579 50.8695 105.579 51.176 105.701 51.4822C105.824 51.7885 106.146 52.2478 106.666 52.8601C107.478 53.8863 107.815 55.9615 107.677 59.0857C107.6 60.3261 107.417 61.3909 107.126 62.2791C106.851 63.1674 106.391 64.0864 105.747 65.0359C105.104 65.9853 104.744 66.6592 104.667 67.0574C104.591 67.4555 104.706 67.8006 105.012 68.0916C105.318 68.3672 105.671 68.4515 106.069 68.3445C106.467 68.2373 106.858 67.9155 107.24 67.3797C107.639 66.8437 108.106 66.0548 108.642 65.0135C109.178 63.972 109.553 63.0907 109.768 62.3709C110.12 61.2069 110.257 59.4612 110.181 57.1336C110.104 54.8059 109.852 53.2283 109.423 52.4012C109.178 51.9264 108.741 51.3595 108.114 50.701C107.486 50.0426 107.072 49.721 106.873 49.7361ZM223.426 67.2996C223.815 67.5467 224.167 67.7502 224.484 67.9207C224.702 67.9251 224.912 67.9274 225.108 67.9275C224.795 67.7917 224.404 67.6088 223.916 67.326C223.757 67.317 223.593 67.3081 223.426 67.2996ZM224.584 67.364C225.011 67.6279 225.338 67.8022 225.591 67.9226C226.59 67.8977 226.999 67.7821 225.987 67.5008C225.968 67.4696 225.399 67.4174 224.584 67.364ZM66.7639 49.782C66.427 49.6289 66.0973 49.6289 65.7756 49.782C65.3315 49.9814 64.742 51.2447 64.0071 53.5721C63.2719 55.9 62.812 57.8224 62.6282 59.3387C62.4444 60.8549 62.3986 61.9428 62.4905 62.6014C62.5824 63.2598 62.8124 63.9796 63.1799 64.7605C64.1295 66.6749 65.079 67.2876 66.0286 66.5984C66.2736 66.4146 66.4039 66.1155 66.4192 65.7019C66.4344 65.2886 66.3275 64.9515 66.0979 64.6912C65.2862 63.7569 64.9259 62.4014 65.0178 60.6248C65.1098 58.8482 65.6766 56.4513 66.718 53.4344C67.2693 51.8417 67.4984 50.8767 67.4065 50.5398C67.3146 50.1878 67.1006 49.9352 66.7639 49.782ZM46.6457 49.7361C44.9304 49.7055 43.6583 49.7513 42.8313 49.8738C42.0045 49.9964 41.3915 50.2569 40.9934 50.6551C40.5955 51.0533 40.3356 51.7347 40.2131 52.699C40.1519 53.0972 40.1437 53.3964 40.1897 53.5955C40.2357 53.7793 40.3812 53.994 40.6262 54.239C40.9018 54.484 41.193 54.6062 41.4993 54.6062C41.8056 54.6062 42.0966 54.4373 42.3723 54.1004C42.6478 53.7635 42.7854 53.4265 42.7854 53.0896C42.8007 52.7376 42.8628 52.5308 42.97 52.4695C43.0773 52.3931 43.3221 52.3553 43.7043 52.3553C44.1025 52.3553 44.5778 52.34 45.1291 52.3094C45.6803 52.2787 46.0937 52.2625 46.3694 52.2625C46.6451 52.2472 46.9748 52.2706 47.3577 52.3318C47.373 52.5003 47.1662 53.0746 46.7375 54.0545C46.3089 55.0342 46.0789 55.6012 46.0481 55.7547C46.0175 55.9077 45.9103 56.0228 45.7268 56.0994C45.543 56.1607 45.083 56.2451 44.3479 56.3523C43.6128 56.4595 43.0612 56.6203 42.6936 56.8347C42.3263 57.0338 42.1429 57.3476 42.1428 57.7762C42.1428 58.2048 42.2498 58.5113 42.4641 58.6951C42.6785 58.8789 43.0388 59.002 43.5442 59.0633L44.5315 59.1775L43.5901 61.7508C43.0847 63.0832 42.8313 63.9798 42.8313 64.4392C42.8314 64.8985 43.0462 65.2356 43.4749 65.45C43.9188 65.6949 44.3018 65.6794 44.6233 65.4041C44.9449 65.1284 45.2746 64.5534 45.6116 63.6805C45.6578 63.5573 45.9408 62.8069 46.4612 61.4295C46.9816 60.0366 47.3186 59.217 47.4719 58.9715C47.6404 58.7265 47.8552 58.5881 48.1155 58.5574C48.1461 58.5421 48.2533 58.5196 48.4368 58.489C48.6205 58.4584 49.157 58.4045 50.0452 58.3279C50.9335 58.2513 51.4932 58.1669 51.7229 58.075C51.9677 57.9831 52.1665 57.8374 52.3196 57.6385C52.5493 57.3015 52.588 56.9494 52.4348 56.5818C52.2817 56.2143 52.0669 55.9843 51.7913 55.8924C51.5155 55.7852 50.9638 55.7322 50.137 55.7322H48.8274L49.4026 54.4685C49.9846 53.1821 50.3214 52.3394 50.4133 51.9412C50.5051 51.5431 50.4512 51.1449 50.2522 50.7469C50.0532 50.3488 49.8311 50.0882 49.5862 49.9656C49.3412 49.8278 48.3608 49.7514 46.6457 49.7361ZM97.3928 49.7361C95.6776 49.7055 94.4064 49.7513 93.5793 49.8738C92.7524 49.9963 92.1396 50.2569 91.7415 50.6551C91.3434 51.0532 91.0827 51.7345 90.9602 52.699C90.8989 53.0972 90.8918 53.3964 90.9377 53.5955C90.9837 53.7792 91.1293 53.9941 91.3743 54.239C91.6498 54.4839 91.9411 54.6062 92.2473 54.6062C92.5535 54.6061 92.8448 54.4372 93.1204 54.1004C93.3958 53.7636 93.5334 53.4264 93.5334 53.0896C93.5488 52.7377 93.6099 52.5308 93.717 52.4695C93.8242 52.3929 94.0695 52.3553 94.4524 52.3553C94.8506 52.3553 95.3258 52.34 95.8772 52.3094C96.4284 52.2787 96.8418 52.2625 97.1174 52.2625C97.393 52.2472 97.7221 52.2706 98.1047 52.3318C98.12 52.5003 97.9134 53.0744 97.4846 54.0545C97.0561 55.034 96.827 55.6011 96.7961 55.7547C96.7655 55.9078 96.6577 56.0228 96.4739 56.0994C96.29 56.1606 95.8307 56.2452 95.0959 56.3523C94.3608 56.4595 93.8092 56.6203 93.4416 56.8347C93.0742 57.0338 92.89 57.3475 92.8899 57.7762C92.8899 58.205 92.9977 58.5113 93.2122 58.6951C93.4265 58.8788 93.786 59.002 94.2913 59.0633L95.2795 59.1775L94.3372 61.7508C93.8317 63.0832 93.5793 63.9798 93.5793 64.4392C93.5795 64.8985 93.7942 65.2356 94.2229 65.45C94.6668 65.6948 95.0498 65.6795 95.3713 65.4041C95.693 65.1284 96.0227 64.5534 96.3596 63.6805C96.406 63.5569 96.689 62.8065 97.2092 61.4295C97.7298 60.0363 98.0667 59.2168 98.22 58.9715C98.3884 58.7264 98.6032 58.588 98.8635 58.5574C98.8945 58.5421 99.0017 58.5196 99.1848 58.489C99.3686 58.4584 99.9049 58.4045 100.793 58.3279C101.681 58.2513 102.24 58.1669 102.47 58.075C102.715 57.9831 102.914 57.8376 103.068 57.6385C103.297 57.3016 103.335 56.9493 103.182 56.5818C103.029 56.2144 102.815 55.9843 102.539 55.8924C102.264 55.7852 101.712 55.7322 100.885 55.7322H99.5754L100.15 54.4685C100.732 53.182 101.069 52.3394 101.16 51.9412C101.252 51.5431 101.199 51.1449 101 50.7469C100.801 50.3487 100.578 50.0881 100.333 49.9656C100.088 49.8279 99.1075 49.7514 97.3928 49.7361ZM86.9006 51.3211C85.9971 49.9121 84.6494 49.4603 82.8577 49.9656C82.3063 50.1188 81.7853 50.4098 81.2952 50.8387C80.8205 51.2674 80.4449 51.7266 80.1692 52.2166C79.8936 52.7065 79.7562 53.1892 79.7561 53.6639C79.7561 54.1385 79.9243 54.4836 80.261 54.698C81.0268 55.2188 81.7086 54.8972 82.3059 53.7332C82.5662 53.1821 82.8188 52.8145 83.0637 52.6306C83.3088 52.4469 83.6538 52.3624 84.0979 52.3777C84.7258 52.3777 84.9405 52.8143 84.7415 53.6873C84.6343 54.0854 84.4887 54.3765 84.3049 54.5603C84.1211 54.7441 83.8067 54.9202 83.3625 55.0887C82.2906 55.4256 81.7552 55.9081 81.7551 56.5359C81.7551 57.2251 82.2986 57.7004 83.386 57.9607C84.0903 58.1139 84.7643 58.3735 85.4075 58.741C86.0507 59.1086 86.4945 59.4617 86.7395 59.7986L87.1995 60.4187L86.717 61.0154C86.2729 61.628 85.5146 61.8661 84.4426 61.7283C83.3705 61.5905 82.4821 61.1458 81.7776 60.3953C81.2571 59.8442 80.7824 59.5531 80.3538 59.5222C79.9249 59.4916 79.5871 59.7369 79.342 60.2576C79.189 60.5483 79.128 60.7705 79.1584 60.9236C79.1891 61.0768 79.3346 61.3607 79.595 61.7742C80.3607 62.9075 81.5709 63.6729 83.2249 64.0711C84.45 64.3774 85.4149 64.469 86.1194 64.3465C86.8239 64.2239 87.5129 63.8565 88.1868 63.2439C89.3048 62.1718 89.7261 60.9923 89.4504 59.7058C89.1746 58.4196 88.2483 57.317 86.6711 56.3982C86.5641 56.337 86.5101 56.2605 86.51 56.1687C86.51 56.0769 86.617 55.8773 86.8313 55.5711C87.0457 55.2648 87.176 54.7059 87.2219 53.8943C87.2679 53.0826 87.276 52.5229 87.2454 52.2166C87.2147 51.9104 87.0996 51.6119 86.9006 51.3211ZM183.325 51.3211C182.422 49.9121 181.074 49.4602 179.282 49.9656C178.731 50.1188 178.21 50.4098 177.72 50.8387C177.245 51.2673 176.871 51.7267 176.595 52.2166C176.319 52.7065 176.181 53.1892 176.181 53.6639C176.181 54.1386 176.35 54.4836 176.687 54.698C177.452 55.2186 178.133 54.897 178.731 53.7332C178.991 53.1818 179.244 52.8144 179.489 52.6306C179.734 52.447 180.079 52.3625 180.523 52.3777C181.151 52.3777 181.365 52.8143 181.166 53.6873C181.059 54.0855 180.914 54.3765 180.73 54.5603C180.546 54.744 180.232 54.9202 179.788 55.0887C178.716 55.4256 178.18 55.908 178.18 56.5359C178.18 57.2251 178.723 57.7004 179.811 57.9607C180.515 58.1139 181.189 58.3735 181.832 58.741C182.476 59.1086 182.92 59.4617 183.165 59.7986L183.624 60.4187L183.142 61.0154C182.698 61.628 181.94 61.8661 180.867 61.7283C179.795 61.5904 178.907 61.1457 178.202 60.3953C177.682 59.8442 177.207 59.5529 176.779 59.5222C176.35 59.4916 176.013 59.737 175.768 60.2576C175.615 60.5485 175.554 60.7705 175.584 60.9236C175.615 61.0768 175.759 61.3607 176.02 61.7742C176.785 62.9075 177.996 63.6728 179.65 64.0711C180.875 64.3773 181.84 64.4689 182.544 64.3465C183.249 64.2239 183.939 63.8566 184.613 63.2439C185.73 62.1719 186.152 60.9922 185.876 59.7058C185.6 58.4195 184.673 57.3171 183.096 56.3982C182.989 56.337 182.935 56.2605 182.935 56.1687C182.935 56.0768 183.043 55.8774 183.257 55.5711C183.471 55.2648 183.602 54.7058 183.648 53.8943C183.694 53.0826 183.701 52.5229 183.67 52.2166C183.639 51.9104 183.524 51.6119 183.325 51.3211ZM137.23 50.3787C136.862 50.3788 135.989 50.9915 134.611 52.2166C133.385 53.258 132.627 53.9857 132.336 54.3992C132.045 54.8127 132.038 55.234 132.314 55.6629C132.589 56.0917 132.896 56.3064 133.233 56.3064C133.57 56.3063 134.044 56.0763 134.656 55.617C135.268 55.1585 135.605 54.9285 135.667 54.9275C135.728 54.9275 135.721 55.0886 135.645 55.4099C135.568 55.7316 135.53 57.6003 135.53 61.0154L133.577 61.2224C132.704 61.3143 132.145 61.4059 131.9 61.4978C131.655 61.5897 131.456 61.7587 131.303 62.0037C131.15 62.2794 131.073 62.4788 131.073 62.6014C131.073 62.7239 131.173 62.9228 131.371 63.198L131.785 63.8181C132.076 63.8028 132.651 63.7804 133.508 63.7498C134.366 63.7192 135.07 63.6886 135.621 63.658C136.173 63.6274 136.778 63.6192 137.437 63.6346C138.095 63.6499 138.677 63.7109 139.183 63.8181C139.688 63.9253 140.048 63.9721 140.262 63.9568C140.476 63.9415 140.684 63.8418 140.883 63.658C141.388 63.1986 141.487 62.7385 141.181 62.2791C140.875 61.8198 140.277 61.4908 139.389 61.2918C138.501 61.0927 138.049 60.9848 138.033 60.9695C137.973 60.9171 138.026 59.4392 138.195 56.5359C138.348 53.626 138.471 52.0333 138.563 51.7576C138.655 51.4819 138.547 51.1827 138.24 50.8611C137.934 50.5397 137.597 50.3787 137.23 50.3787ZM167.82 49.6902C166.87 49.3993 165.951 49.491 165.063 49.9656C164.542 50.2413 163.929 50.8387 163.225 51.7576C162.521 52.6761 162.168 53.3115 162.167 53.6639C162.167 54.016 162.298 54.3 162.558 54.5144C162.818 54.7289 163.102 54.8357 163.408 54.8357C163.715 54.8357 163.975 54.7512 164.19 54.5828C164.419 54.4142 164.726 54.07 165.109 53.5496C165.66 52.8604 166.112 52.4472 166.464 52.3094C166.816 52.1563 167.16 52.2173 167.497 52.493C167.834 52.7686 168.11 53.1128 168.324 53.5262C168.539 53.9397 168.646 54.2999 168.646 54.6062C168.646 54.9126 167.605 56.1379 165.522 58.282C163.44 60.41 162.399 61.6275 162.398 61.9344C162.398 62.2254 162.543 62.494 162.834 62.739C163.125 62.9839 163.515 63.1368 164.005 63.198C164.495 63.2593 165.736 63.3285 167.727 63.4051C169.718 63.4816 171.066 63.5966 171.771 63.7498C172.475 63.9028 172.934 63.972 173.149 63.9568C173.363 63.9415 173.593 63.8264 173.838 63.6121C174.083 63.3977 174.205 63.1138 174.205 62.7615C174.205 62.4094 174.068 62.111 173.792 61.866C173.517 61.621 172.819 61.391 171.701 61.1765C170.599 60.9622 169.504 60.8553 168.416 60.8553H166.51C168.761 58.6043 170.124 57.1569 170.599 56.5135C171.579 55.0738 171.442 53.4191 170.186 51.5506C169.558 50.6012 168.769 49.9813 167.82 49.6902ZM214.227 50.7928C213.185 49.9657 211.876 49.7968 210.298 50.2869C209.64 50.5013 208.989 50.9155 208.346 51.5281C207.703 52.1407 207.204 52.8369 206.852 53.618C206.132 55.1035 205.956 56.8499 206.323 58.8562C206.691 60.8624 207.465 62.2944 208.644 63.1521C209.088 63.4891 209.678 63.6733 210.413 63.7039C211.148 63.7345 211.784 63.6194 212.32 63.3592C213.805 62.6088 214.885 61.483 215.559 59.9822C216.233 58.4813 216.439 56.7808 216.179 54.8816C215.919 52.9827 215.268 51.6198 214.227 50.7928ZM75.1799 50.7234C74.3377 50.2181 73.5029 50.0421 72.676 50.1951C71.849 50.3483 71.1366 50.6474 70.5393 51.0916C69.942 51.5357 69.4749 52.0487 69.1379 52.6306C68.9236 53.0288 68.8167 53.603 68.8166 54.3533C68.8166 55.1038 68.9235 55.7398 69.1379 56.2605C69.3524 56.7812 69.7127 57.2709 70.218 57.7303C70.7234 58.1897 71.213 58.4584 71.6877 58.5349C71.9175 58.6115 72.3846 58.5881 73.0891 58.4656C73.7927 58.3432 74.2062 58.2894 74.3293 58.3045C74.3906 58.3657 74.3295 59.0099 74.1457 60.2351C73.9315 61.4599 73.9009 62.3173 74.054 62.8074C74.2071 63.2975 74.6132 63.5428 75.2717 63.5428C75.6546 63.5581 75.9376 63.4125 76.1213 63.1062C76.3051 62.7999 76.4588 62.2331 76.5813 61.406C76.6732 60.579 76.9032 59.2924 77.2707 57.5467C77.6383 55.8008 77.8063 54.6364 77.7756 54.0545C77.7449 53.4727 77.5149 53.1051 77.0862 52.9519C76.7648 52.86 76.6038 52.638 76.6038 52.2859C76.6038 51.9339 76.52 51.666 76.3518 51.4822C76.1833 51.2984 75.7926 51.045 75.1799 50.7234ZM149.402 50.0349C148.467 49.8206 147.526 49.9275 146.576 50.3562C145.305 50.9229 144.302 52.0485 143.567 53.7332C142.832 55.4178 142.579 57.1867 142.809 59.0398C142.901 59.729 143.168 60.4414 143.613 61.1765C144.057 61.9117 144.547 62.4246 145.083 62.7156C145.926 63.2056 146.99 63.3746 148.277 63.2215C149.563 63.0683 150.628 62.6469 151.47 61.9578C152.68 60.9623 153.147 59.7674 152.871 58.3738C152.596 56.9802 151.692 55.9461 150.16 55.2722C149.716 55.0732 149.341 54.951 149.034 54.9051C148.728 54.8591 148.222 54.8815 147.518 54.9734C146.813 55.0653 146.385 55.1426 146.232 55.2039C146.079 55.265 145.972 55.2874 145.91 55.2722C145.665 55.2569 145.757 54.8975 146.186 54.1931C146.615 53.4886 147.066 53.0134 147.541 52.7683C148.016 52.5234 148.392 52.4388 148.667 52.5154C148.943 52.5921 149.203 52.8456 149.448 53.2742C149.692 53.7028 150.014 53.9248 150.412 53.9402C150.795 53.9249 151.125 53.8099 151.401 53.5955C151.676 53.3811 151.814 53.1053 151.814 52.7683C151.814 52.4314 151.668 52.0029 151.377 51.4822C150.994 50.7317 150.336 50.2494 149.402 50.0349ZM128.992 49.9656C128.671 49.644 127.193 49.6746 124.559 50.0574C123.824 50.1799 123.264 50.2715 122.881 50.3328C122.498 50.3941 122.124 50.502 121.756 50.6551C121.389 50.8082 121.128 50.9457 120.975 51.0681C120.822 51.1907 120.683 51.4207 120.561 51.7576C120.438 52.0943 120.362 52.4235 120.331 52.7449C120.301 53.0665 120.255 53.6415 120.194 54.4685C120.132 55.2954 120.117 55.8238 120.148 56.0535C120.178 56.2831 120.301 56.5052 120.515 56.7195C120.729 56.9339 120.99 57.057 121.296 57.0877C121.602 57.1183 122.276 57.1254 123.318 57.1101C124.359 57.0795 125.171 57.1559 125.753 57.3396C126.35 57.5234 126.756 57.8452 126.971 58.3045C127.093 58.5342 127.116 58.7265 127.039 58.8797C126.947 59.033 126.656 59.3243 126.166 59.7527C125.677 60.1811 125.24 60.441 124.858 60.533C124.475 60.6555 123.923 60.6402 123.203 60.4871C122.484 60.334 121.955 60.3341 121.618 60.4871C121.282 60.6402 121.089 60.9314 121.043 61.3601C120.982 61.7888 121.082 62.1412 121.342 62.4168C121.602 62.6924 122.2 62.9225 123.134 63.1062C124.068 63.29 124.842 63.29 125.454 63.1062C126.082 62.9071 126.902 62.4014 127.912 61.5896C128.923 60.778 129.49 60.1123 129.613 59.5916C129.842 58.688 129.712 57.8229 129.222 56.9959C128.732 56.1688 127.943 55.5094 126.856 55.0193C126.274 54.7132 125.815 54.5298 125.478 54.4685C125.141 54.4073 124.689 54.3992 124.122 54.4451L122.789 54.5144C122.789 53.5802 122.851 53.0673 122.974 52.9754C123.143 52.9141 124.07 52.7684 125.753 52.5389C127.438 52.3091 128.365 52.1402 128.533 52.033C128.824 51.9105 129.016 51.7883 129.108 51.6658C129.2 51.5433 129.245 51.2746 129.245 50.8611C129.245 50.4325 129.161 50.134 128.992 49.9656ZM204.06 49.9656C203.738 49.644 202.26 49.6745 199.625 50.0574C198.89 50.1799 198.331 50.2715 197.948 50.3328C197.566 50.3941 197.19 50.5019 196.823 50.6551C196.455 50.808 196.195 50.9457 196.042 51.0681C195.889 51.1907 195.751 51.4207 195.628 51.7576C195.506 52.0943 195.429 52.4235 195.399 52.7449C195.368 53.0665 195.322 53.6415 195.261 54.4685C195.2 55.2955 195.184 55.8238 195.215 56.0535C195.246 56.2832 195.368 56.5052 195.582 56.7195C195.797 56.9339 196.057 57.057 196.364 57.0877C196.67 57.1183 197.344 57.1255 198.385 57.1101C199.426 57.0795 200.239 57.1558 200.821 57.3396C201.418 57.5234 201.824 57.8451 202.038 58.3045C202.161 58.5342 202.183 58.7265 202.107 58.8797C202.015 59.0329 201.723 59.3242 201.234 59.7527C200.744 60.1814 200.307 60.4411 199.924 60.533C199.541 60.6554 198.99 60.6401 198.271 60.4871C197.551 60.3339 197.022 60.3339 196.685 60.4871C196.348 60.6402 196.157 60.9315 196.111 61.3601C196.049 61.7889 196.149 62.1411 196.409 62.4168C196.67 62.6925 197.267 62.9224 198.201 63.1062C199.136 63.29 199.909 63.29 200.522 63.1062C201.15 62.9071 201.969 62.4013 202.98 61.5896C203.99 60.778 204.557 60.1123 204.68 59.5916C204.91 58.6881 204.779 57.8228 204.289 56.9959C203.799 56.1688 203.01 55.5094 201.923 55.0193C201.341 54.713 200.881 54.5298 200.544 54.4685C200.207 54.4074 199.756 54.3992 199.19 54.4451L197.857 54.5144C197.857 53.5809 197.918 53.0679 198.04 52.9754C198.209 52.9141 199.136 52.7686 200.821 52.5389C202.505 52.3092 203.431 52.1402 203.6 52.033C203.891 51.9106 204.082 51.7882 204.174 51.6658C204.266 51.5433 204.313 51.2746 204.313 50.8611C204.313 50.4326 204.228 50.134 204.06 49.9656ZM32.9524 51.7117C32.7992 51.727 32.6609 51.7494 32.5383 51.7801C32.4159 51.826 32.3242 51.8953 32.2629 51.9871C32.2018 52.0788 32.1405 52.1554 32.0793 52.2166C32.0487 52.2778 32.0182 52.393 31.9875 52.5613C31.9569 52.7297 31.9417 52.8601 31.9416 52.9519C31.911 53.0438 31.8876 53.2127 31.8723 53.4578V55.5017H30.7463C29.8582 55.4865 29.2453 55.7246 28.9084 56.2146C28.5719 56.7045 28.6716 57.2098 29.2073 57.7303C29.5135 58.0365 30.0573 58.1902 30.8381 58.1902H32.0559L32.1477 59.6599C32.209 60.6401 32.3779 61.2304 32.6536 61.4295C33.1742 61.8122 33.7026 61.8122 34.2385 61.4295C34.4222 61.2917 34.5373 61.1155 34.5832 60.9012C34.6292 60.6867 34.6373 60.2878 34.6067 59.7058L34.5598 58.3045L36.2375 58.3514C37.1408 58.3973 37.7915 58.328 38.1897 58.1443C38.5878 57.9606 38.7873 57.6235 38.7874 57.1336C38.7874 56.6435 38.6184 56.3066 38.2815 56.1228C37.9445 55.9391 37.2859 55.8088 36.3059 55.7322L34.4456 55.617L34.3303 53.8709C34.2691 52.9214 34.1622 52.3239 34.009 52.0789C33.8559 51.834 33.5035 51.7117 32.9524 51.7117ZM-262.594 60.9431C-262.651 60.9714 -262.706 60.9988 -262.76 61.0252C-262.867 61.0781 -262.97 61.1275 -263.067 61.1736C-263.097 61.1877 -263.126 61.2012 -263.155 61.2146C-263.142 61.2344 -263.129 61.2545 -263.116 61.2742C-263 61.2467 -262.865 61.2283 -262.708 61.2254C-262.466 61.223 -262.251 61.2235 -262.064 61.2264C-261.912 61.1519 -261.751 61.0666 -261.579 60.9724C-261.842 60.9227 -262.101 60.872 -262.358 60.8221C-262.441 60.8644 -262.532 60.9116 -262.594 60.9431ZM211.033 52.7918C211.723 52.4855 212.312 52.5924 212.802 53.1131C213.43 53.8023 213.744 54.9431 213.744 56.5359C213.744 58.1287 213.193 59.408 212.09 60.3728C211.478 60.9087 210.949 61.1379 210.505 61.0613C210.061 60.9847 209.663 60.61 209.311 59.9363C208.974 59.2165 208.79 58.328 208.759 57.2713C208.728 56.2146 208.882 55.3647 209.219 54.7215C209.74 53.7413 210.344 53.0981 211.033 52.7918ZM148.161 57.5467C148.774 57.5467 149.233 57.6538 149.539 57.868C150.06 58.2968 150.336 58.711 150.366 59.1092C150.397 59.5073 150.145 59.8595 149.609 60.1658C149.073 60.472 148.483 60.6247 147.84 60.6248C147.197 60.6248 146.783 60.579 146.599 60.4871C146.415 60.3952 146.193 60.2118 145.933 59.9363C145.412 59.3084 145.244 58.7263 145.428 58.1902C145.476 58.1895 145.789 58.0817 146.369 57.868C146.951 57.6536 147.549 57.5467 148.161 57.5467ZM158.45 56.7195C157.501 56.6583 156.69 56.6736 156.016 56.7654C155.342 56.8879 154.89 57.0416 154.66 57.2254C154.431 57.4092 154.316 57.7155 154.316 58.1443C154.316 58.573 154.546 58.8714 155.005 59.0398C155.495 59.2082 156.353 59.2927 157.577 59.2928C158.803 59.2928 159.645 59.2083 160.105 59.0398C160.564 58.8714 160.794 58.5498 160.794 58.075C160.794 57.6003 160.64 57.2714 160.334 57.0877C160.028 56.9039 159.4 56.7808 158.45 56.7195ZM191.475 56.7195C190.525 56.6583 189.713 56.6735 189.039 56.7654C188.366 56.8879 187.914 57.0416 187.684 57.2254C187.454 57.4092 187.34 57.7157 187.34 58.1443C187.34 58.5729 187.569 58.8714 188.029 59.0398C188.519 59.2083 189.377 59.2928 190.602 59.2928C191.827 59.2928 192.67 59.2083 193.129 59.0398C193.588 58.8713 193.819 58.5497 193.819 58.075C193.819 57.6004 193.665 57.2715 193.359 57.0877C193.052 56.9039 192.424 56.7808 191.475 56.7195ZM73.1809 52.7683C73.3646 52.7683 73.602 52.8295 73.8928 52.9519C74.1838 53.0745 74.4677 53.1976 74.7434 53.3201C75.0188 53.4425 75.1717 53.5342 75.2024 53.5955C75.233 53.6567 75.233 53.7331 75.2024 53.825C75.1411 53.9169 75.0495 54.04 74.927 54.1931C74.8045 54.3463 74.613 54.5531 74.3528 54.8133C73.633 55.533 73.0122 55.9076 72.4915 55.9383C71.971 55.9687 71.6114 55.6471 71.4124 54.9734C71.2746 54.5447 71.297 54.1466 71.4807 53.7791C71.6645 53.4115 71.9484 53.151 72.3313 52.9978C72.7139 52.8448 72.9972 52.7684 73.1809 52.7683ZM107.266 26.6521C106.623 26.6215 106.164 26.6368 105.888 26.698C105.612 26.7593 105.321 26.8977 105.015 27.1121C103.882 27.8779 103.085 29.1409 102.625 30.9021C102.457 31.5607 102.365 32.0359 102.35 32.3269C102.335 32.6178 102.389 32.9928 102.511 33.4519C102.879 34.7997 103.69 35.8418 104.946 36.5769C105.681 37.0364 106.393 37.2501 107.082 37.2195C107.771 37.1889 108.514 36.9293 109.311 36.4392C109.51 36.2861 109.717 36.1324 109.931 35.9793C110.145 35.8261 110.33 35.6806 110.483 35.5428C110.636 35.4051 110.727 35.298 110.758 35.2215C110.896 34.8998 110.896 34.5701 110.758 34.2332C110.62 33.8963 110.383 33.651 110.046 33.4978C109.786 33.406 109.564 33.3836 109.38 33.4295C109.196 33.4754 108.797 33.6901 108.185 34.073C107.572 34.4557 107.159 34.6472 106.945 34.6472C106.73 34.6472 106.347 34.4171 105.796 33.9578C105.49 33.6516 105.283 33.4062 105.176 33.2224C105.069 33.0387 105.015 32.7781 105.015 32.4412C105.03 31.6143 105.291 30.8335 105.796 30.0984C106.301 29.3635 106.776 29.0796 107.22 29.2478C107.465 29.3244 107.802 29.5931 108.231 30.0525C108.66 30.512 108.989 30.7644 109.219 30.8103C109.449 30.8562 109.74 30.7493 110.092 30.489C110.414 30.2899 110.574 29.9908 110.574 29.5926C110.574 29.1945 110.398 28.7352 110.046 28.2146C109.694 27.6939 109.303 27.3103 108.874 27.0652C108.445 26.8202 107.909 26.6828 107.266 26.6521ZM140.223 26.6521C139.58 26.6215 139.121 26.6368 138.845 26.698C138.569 26.7593 138.278 26.8977 137.972 27.1121C136.839 27.8779 136.042 29.1409 135.582 30.9021C135.414 31.5607 135.322 32.0359 135.307 32.3269C135.292 32.6178 135.345 32.9929 135.467 33.4519C135.835 34.7997 136.647 35.8418 137.903 36.5769C138.638 37.0364 139.35 37.2501 140.039 37.2195C140.728 37.1889 141.471 36.9293 142.268 36.4392C142.467 36.2861 142.674 36.1324 142.888 35.9793C143.102 35.8261 143.287 35.6806 143.44 35.5428C143.593 35.4051 143.684 35.298 143.715 35.2215C143.853 34.8998 143.853 34.5701 143.715 34.2332C143.577 33.8964 143.34 33.651 143.003 33.4978C142.743 33.4059 142.52 33.3835 142.336 33.4295C142.152 33.4756 141.754 33.6904 141.142 34.073C140.53 34.4557 140.116 34.6471 139.902 34.6472C139.687 34.6472 139.304 34.4171 138.753 33.9578C138.447 33.6515 138.239 33.4062 138.132 33.2224C138.025 33.0387 137.972 32.778 137.972 32.4412C137.987 31.6142 138.248 30.8335 138.753 30.0984C139.259 29.3634 139.733 29.0795 140.177 29.2478C140.422 29.3244 140.759 29.5931 141.188 30.0525C141.617 30.5119 141.946 30.7644 142.176 30.8103C142.406 30.8561 142.697 30.7493 143.049 30.489C143.371 30.2899 143.531 29.9907 143.531 29.5926C143.531 29.1945 143.355 28.7351 143.003 28.2146C142.651 27.6939 142.26 27.3103 141.831 27.0652C141.402 26.8202 140.866 26.6828 140.223 26.6521ZM118.469 25.9168C116.968 25.8555 115.835 25.8555 115.07 25.9168C114.304 26.0087 113.798 26.0697 113.553 26.1004C113.308 26.131 113.109 26.1851 112.956 26.2615C112.803 26.3381 112.634 26.4836 112.45 26.698C112.267 26.9124 112.197 27.1882 112.243 27.5252C112.297 27.8065 112.445 28.0524 112.686 28.2635L112.842 28.3904C113.099 28.5727 113.665 28.614 114.541 28.5135L115.897 28.3748L116.08 29.6385C116.188 30.4655 116.203 31.5687 116.126 32.9471C116.05 34.3253 116.026 35.1681 116.057 35.4744C116.088 35.7805 116.203 36.0332 116.402 36.2322C116.984 36.8142 117.574 36.8061 118.171 36.2088C118.416 35.9637 118.562 35.5043 118.608 34.8308C118.654 34.157 118.654 32.6943 118.608 30.4431L118.562 28.3523L119.228 28.49C120.499 28.735 121.41 28.7269 121.961 28.4666C122.513 28.2062 122.704 27.7014 122.535 26.951C122.428 26.5834 122.099 26.3381 121.548 26.2156C120.997 26.0778 119.97 25.978 118.469 25.9168ZM71.927 22.1951C71.5135 22.2257 71.1532 22.3865 70.8469 22.6775C70.1884 23.3821 69.2235 25.6801 67.9524 29.5701C67.3551 31.4231 66.9113 32.7402 66.6204 33.5213C66.3141 34.3023 66.1919 34.8539 66.2532 35.1756C66.3146 35.497 66.5743 35.765 67.0334 35.9793C67.4929 36.1937 67.899 36.1092 68.2512 35.7264C68.6034 35.3435 68.9862 34.5626 69.3997 33.3836L70.1125 31.408L74.9592 31.2693L76.0627 33.2459C76.5372 34.0724 76.8816 34.6082 77.0959 34.8533C77.3257 35.083 77.6096 35.2286 77.9465 35.2898C78.2833 35.3509 78.5971 35.2441 78.8879 34.9685C79.1789 34.6929 79.2858 34.3631 79.2092 33.9803C79.1782 33.857 78.9643 33.4049 78.5666 32.6248C78.1685 31.8591 77.6779 30.9399 77.0959 29.868C76.514 28.796 75.9399 27.7393 75.3733 26.698C74.7761 25.6568 74.2477 24.7456 73.7883 23.9646C73.329 23.1837 73.045 22.7318 72.9377 22.6092C72.6774 22.3029 72.3405 22.1645 71.927 22.1951ZM-263.453 35.9842C-263.626 35.9439 -263.583 35.982 -263.451 36.0476C-263.401 36.0421 -263.351 36.0376 -263.301 36.032C-263.364 36.011 -263.412 35.9966 -263.453 35.9842ZM146.349 25.5037C146.165 25.5038 145.966 25.5802 145.752 25.7332C145.538 25.8862 145.415 26.0085 145.384 26.1004C145.353 26.1923 145.308 26.3998 145.246 26.7215C145.185 27.0431 145.17 27.4799 145.2 28.031C145.216 28.5826 145.231 29.8235 145.246 31.7527C145.277 33.6816 145.384 34.769 145.568 35.0144C145.751 35.2288 146.127 35.3204 146.694 35.2898C147.26 35.2592 147.712 35.1217 148.049 34.8767C148.386 34.6317 148.815 34.187 149.336 33.5437C149.857 32.9008 150.179 32.5025 150.301 32.3494C150.439 32.1964 150.561 32.0587 150.668 31.9363L151.173 31.4305C151.219 31.3845 151.251 31.3692 151.266 31.3846C151.358 31.4466 151.434 32.0136 151.495 33.0847C151.557 34.1568 151.687 34.8692 151.886 35.2215C152.085 35.5735 152.414 35.7497 152.873 35.7498C153.333 35.7498 153.662 35.6114 153.862 35.3357C154.106 35.06 154.206 34.6467 154.16 34.0955L153.838 29.9607C153.808 29.1645 153.731 28.5669 153.609 28.1687C153.486 27.7705 153.249 27.4714 152.897 27.2722C152.177 26.9047 151.058 27.5785 149.542 29.2937L148.118 30.9256L147.82 28.6053C147.697 27.6558 147.59 27.0044 147.498 26.6521C147.406 26.3152 147.237 26.0394 146.992 25.825C146.747 25.6106 146.533 25.5037 146.349 25.5037ZM81.7131 25.5037C81.4069 25.5037 81.1768 25.5953 81.0237 25.7791C80.8706 25.9475 80.7718 26.1776 80.7258 26.4685C80.6799 26.7442 80.6484 27.1728 80.6331 27.7547C80.6177 28.3366 80.6106 29.1867 80.6106 30.3045C80.6106 31.4225 80.6259 32.2427 80.6565 32.7635C80.6718 33.284 80.7258 33.7361 80.8176 34.1189C80.9248 34.5015 81.047 34.7237 81.1848 34.7849C81.3226 34.8462 81.5906 34.8767 81.9885 34.8767C82.3867 34.8767 82.6859 34.7312 82.885 34.4402C83.0841 34.1492 83.1838 33.6515 83.1838 32.9471V31.7293L85.0217 31.867C86.2008 31.9435 86.8595 32.0199 86.9973 32.0965C87.1351 32.1731 87.1576 32.4417 87.0657 32.9012C86.9739 33.3605 87.0511 33.7667 87.2961 34.1189C87.5411 34.4709 87.863 34.6472 88.261 34.6472C88.6742 34.6472 88.9728 34.5474 89.1565 34.3484C89.3403 34.134 89.4624 33.7585 89.5237 33.2224C89.5849 32.6864 89.6236 31.8365 89.6389 30.6726V28.9724C89.6389 28.6357 89.6164 28.3372 89.5706 28.0769C89.5246 27.8014 89.4707 27.6171 89.4094 27.5252C89.3482 27.4333 89.2403 27.3111 89.0872 27.158C88.5818 26.6374 88.0921 26.5448 87.6174 26.8816C87.1427 27.2186 86.9513 27.7855 87.0432 28.5818L87.1575 29.5242L85.3196 29.3855C84.11 29.2783 83.4817 29.2101 83.4358 29.1795C83.3898 29.1181 83.3135 28.7039 83.2063 27.9383C83.0991 27.173 82.9922 26.6372 82.885 26.3308C82.7778 26.0246 82.6322 25.8098 82.4485 25.6873C82.2647 25.5648 82.0194 25.5037 81.7131 25.5037ZM162.849 24.6765C161.93 24.4469 160.958 24.4235 159.932 24.6072C159.457 24.6838 158.99 24.8142 158.531 24.9978C158.071 25.151 157.642 25.3504 157.243 25.5955C156.845 25.8405 156.554 26.0624 156.37 26.2615C156.187 26.4606 156.056 26.6214 155.98 26.7439C155.903 26.8664 155.835 27.0048 155.774 27.158C155.712 27.3111 155.666 27.4639 155.635 27.617C155.604 27.7701 155.574 28.0001 155.543 28.3064C155.513 28.5973 155.505 28.858 155.521 29.0877C155.551 29.317 155.604 29.5007 155.681 29.6385C155.773 29.761 155.896 29.9146 156.049 30.0984C156.202 30.282 156.34 30.435 156.462 30.5574C156.585 30.6799 156.708 30.7878 156.83 30.8797C156.953 30.9714 157.075 31.048 157.198 31.1092C157.305 31.1704 157.45 31.2468 157.634 31.3387C157.817 31.4304 157.94 31.5069 158.001 31.5681C158.047 31.6447 158.009 31.7678 157.887 31.9363C157.764 32.1047 157.534 32.1883 157.198 32.1883C156.861 32.2036 156.532 32.3494 156.21 32.6248C155.889 32.9004 155.728 33.1611 155.728 33.406C155.728 33.6511 155.881 33.9269 156.187 34.2332C156.493 34.5394 156.73 34.7236 156.899 34.7849C157.067 34.8462 157.427 34.8228 157.979 34.7156C158.53 34.6237 159.104 34.31 159.701 33.7742L162.528 31.4764L162.596 32.6482C162.642 33.5363 162.872 34.141 163.285 34.4627C163.714 34.7843 164.205 34.7385 164.756 34.325L164.916 34.1648C164.962 34.1189 165.009 34.0263 165.055 33.8885C165.101 33.7507 165.131 33.6049 165.147 33.4519C165.162 33.2988 165.184 33.054 165.215 32.7176C165.246 32.3806 165.254 32.0275 165.239 31.6599C165.239 31.2922 165.246 30.5113 165.261 29.3172C165.276 28.1226 165.269 27.2952 165.239 26.8357C165.208 26.3764 165.1 26.0322 164.916 25.8025C164.457 25.2818 163.768 24.9063 162.849 24.6765ZM95.6145 25.5037C94.7876 25.4731 94.1137 25.5952 93.593 25.8709C93.0723 26.1465 92.6591 26.4 92.3528 26.6297C92.062 26.8593 91.8246 27.1192 91.6409 27.4099C91.4724 27.7009 91.3187 28.107 91.1809 28.6277C91.0431 29.1484 90.9973 29.7 91.0432 30.282C91.0892 30.8946 91.25 31.4462 91.5256 31.9363C91.8013 32.4263 92.1463 32.8549 92.5598 33.2224C92.9733 33.5899 93.4405 33.8424 93.9612 33.9803C94.4817 34.118 95.0174 34.1108 95.5686 33.9578C96.12 33.8046 96.6715 33.5055 97.2229 33.0613L98.0041 32.3728L98.2336 33.0154C98.494 33.7045 98.8157 34.134 99.1985 34.3025C99.5661 34.4863 99.9802 34.3937 100.44 34.0262L100.968 33.6131L100.462 31.1551C100.171 29.5016 100.072 28.5213 100.163 28.2146C100.255 27.9084 100.087 27.5561 99.6584 27.158C99.2602 26.7598 98.6934 26.3914 97.9582 26.0545C97.2231 25.7176 96.4415 25.5343 95.6145 25.5037ZM128.572 25.5037C127.745 25.4731 127.071 25.5952 126.55 25.8709C126.029 26.1466 125.616 26.3999 125.31 26.6297C125.019 26.8594 124.781 27.119 124.597 27.4099C124.428 27.7009 124.276 28.1071 124.138 28.6277C124 29.1484 123.954 29.7 124 30.282C124.046 30.8946 124.207 31.4462 124.483 31.9363C124.758 32.4262 125.103 32.855 125.516 33.2224C125.929 33.5899 126.397 33.8424 126.917 33.9803C127.438 34.1181 127.974 34.1109 128.526 33.9578C129.077 33.8046 129.629 33.5055 130.18 33.0613L130.961 32.3728L131.191 33.0154C131.451 33.7046 131.773 34.1341 132.156 34.3025C132.523 34.4863 132.936 34.3937 133.396 34.0262L133.924 33.6131L133.419 31.1551C133.128 29.5015 133.029 28.5213 133.12 28.2146C133.212 27.9084 133.044 27.556 132.615 27.158C132.217 26.7598 131.65 26.3914 130.915 26.0545C130.18 25.7175 129.399 25.5343 128.572 25.5037ZM95.385 27.9842C95.5994 27.9535 95.9364 28.0228 96.3957 28.1912C96.8552 28.3597 97.0933 28.4828 97.1086 28.5594C97.1079 28.6371 96.885 29.0811 96.4416 29.8914C95.921 30.7796 95.4466 31.3007 95.0178 31.4539C94.5737 31.607 94.1982 31.3842 93.8918 30.7869C93.3561 29.8222 93.5248 29.0485 94.3977 28.4666C94.8415 28.1758 95.1707 28.0148 95.385 27.9842ZM128.342 27.9842C128.556 27.9536 128.893 28.0228 129.353 28.1912C129.812 28.3597 130.049 28.4828 130.065 28.5594C130.064 28.6371 129.842 29.0811 129.399 29.8914C128.878 30.7795 128.404 31.3006 127.975 31.4539C127.531 31.607 127.155 31.3842 126.849 30.7869C126.313 29.8222 126.481 29.0485 127.354 28.4666C127.798 28.1756 128.128 28.0148 128.342 27.9842ZM225.366 29.4178C223.924 29.349 223.722 30.0778 223.368 30.1433C223.261 30.172 221.879 30.2741 220.651 30.3953C220.495 30.5329 220.312 30.6952 220.124 30.8709C220.614 30.8918 221.249 30.9117 222.056 30.9246C222.55 30.942 227.528 29.5052 225.366 29.4178ZM219.529 30.5213C219.511 30.5385 219.491 30.5549 219.473 30.5721C219.392 30.6494 219.313 30.7331 219.228 30.8172C219.31 30.8248 219.403 30.8296 219.507 30.8367C219.636 30.7102 219.761 30.5901 219.88 30.4783C219.756 30.4927 219.638 30.5067 219.529 30.5213ZM160.758 27.1121C161.432 27.0355 162.014 27.0661 162.504 27.2039C162.749 27.3111 162.864 27.5556 162.849 27.9383C162.864 28.0914 162.842 28.2298 162.781 28.3523C162.719 28.4748 162.619 28.5818 162.482 28.6736C162.344 28.7655 162.037 28.9344 161.563 29.1795C161.088 29.4245 160.689 29.5467 160.367 29.5467C160.046 29.5465 159.563 29.3938 158.92 29.0877C158.277 28.7968 157.955 28.5819 157.955 28.4441C157.955 28.1838 158.255 27.9161 158.852 27.6404C159.449 27.3648 160.084 27.1887 160.758 27.1121ZM72.7541 27.2722C73.2589 28.1746 73.5113 28.6572 73.512 28.7195C73.512 28.7501 73.0987 28.7807 72.2717 28.8113C71.46 28.8419 71.054 28.7809 71.054 28.6277C71.0541 28.4744 71.2078 27.9846 71.5139 27.158L71.9963 25.8943L72.7541 27.2722ZM223.8 27.5662C223.592 27.6258 223.348 27.6851 223.084 27.742C222.923 27.8435 222.754 27.9527 222.578 28.0701C222.828 28.0104 223.057 27.9514 223.257 27.8914C223.447 27.7741 223.628 27.6661 223.8 27.5662ZM-256.03 27.116C-256.201 27.2255 -256.446 27.3845 -256.746 27.5926C-256.399 27.5106 -256.093 27.4311 -255.855 27.3572C-255.91 27.2739 -255.966 27.1922 -256.021 27.1111C-256.024 27.1128 -256.027 27.1143 -256.03 27.116ZM-251.992 25.8972C-252.136 25.9221 -252.324 25.9652 -252.508 26.0193C-252.449 26.1225 -252.391 26.2297 -252.331 26.3387C-252.255 26.3206 -252.18 26.3035 -252.112 26.2849C-251.994 26.2532 -251.901 26.2257 -251.828 26.2019C-251.883 26.0984 -251.937 25.9961 -251.992 25.8972ZM-254.333 26.1404C-254.308 26.1799 -254.284 26.2205 -254.259 26.2605C-254.146 26.2015 -254.022 26.1396 -253.89 26.0769C-253.917 26.0363 -253.944 25.9973 -253.969 25.9588C-254.081 26.0126 -254.202 26.0729 -254.333 26.1404ZM227.663 25.6492C227.585 25.6721 227.422 25.6972 227.01 25.8367C227.469 25.7303 227.897 25.6083 227.663 25.6492ZM-261.158 24.8992C-260.949 25.0893 -260.73 25.2941 -260.506 25.5203C-259.413 25.6445 -258.737 25.6281 -259.137 25.3299C-259.333 25.21 -260.175 25.0544 -261.158 24.8992ZM-252.837 25.4617C-252.813 25.5009 -252.79 25.5415 -252.765 25.5818C-252.693 25.5516 -252.619 25.5202 -252.546 25.49C-252.464 25.455 -252.377 25.4165 -252.293 25.3806C-252.312 25.3485 -252.332 25.3166 -252.351 25.2849C-252.469 25.3241 -252.623 25.3775 -252.837 25.4617ZM-265.883 23.408C-265.861 23.538 -266.152 23.6891 -266.394 23.8279C-266.649 23.9632 -266.812 24.1001 -266.765 24.1551C-267.007 24.3163 -264.161 24.9645 -261.851 25.3338C-262.138 25.0808 -262.407 24.86 -262.64 24.6775C-263.842 24.5051 -264.891 24.3626 -264.91 24.3221C-265.056 24.2511 -264.74 24.136 -264.682 23.9803C-264.612 23.8251 -264.894 23.6212 -265.883 23.408ZM232.316 20.7957C232.767 20.4882 236.945 21.2551 242.072 22.7596C241.464 22.7573 238.622 21.9991 236.83 21.6394C234.906 21.2274 233.206 20.8969 232.316 20.7957ZM-265.684 21.784C-265.79 21.8244 -265.824 21.8999 -265.797 21.9949C-265.692 22.0264 -265.56 22.0689 -265.399 22.1306C-265.281 22.1764 -265.145 22.2331 -264.99 22.3025C-264.79 22.3945 -264.554 22.509 -264.279 22.658C-264.248 22.6746 -264.218 22.6933 -264.186 22.7107C-264.427 22.3718 -265.228 21.6251 -265.684 21.784ZM-261.526 18.9295C-260.91 19.0323 -260.672 19.2801 -260.713 19.4793C-260.58 19.5733 -260.435 19.6739 -260.282 19.7869C-260.159 19.8774 -260.029 19.9746 -259.892 20.0799C-259.82 20.1351 -259.763 20.1796 -259.67 20.2527C-259.567 20.3327 -259.461 20.4171 -259.351 20.5056C-259.208 20.6231 -259.06 20.7504 -258.903 20.8836C-258.632 20.9395 -258.392 20.9851 -258.194 21.0154C-259.14 20.1932 -259.837 19.7545 -260.169 19.4959C-260.543 19.2477 -260.864 19.0479 -261.137 18.8816C-261.494 18.7505 -261.846 18.6196 -262.184 18.4959C-262.015 18.6063 -261.799 18.7488 -261.526 18.9295ZM203.061 19.8904C203.279 19.2697 196.733 19.1551 199.281 19.867C199.912 20.0436 202.98 20.0957 203.061 19.8904ZM-260.585 17.6658C-260.428 17.7676 -260.25 17.8846 -260.05 18.0203C-259.916 18.1107 -259.773 18.2104 -259.617 18.3201C-259.325 18.3625 -259.042 18.4025 -258.774 18.4363C-259.535 17.876 -259.761 17.8627 -260.031 17.6472C-260.053 17.6349 -260.076 17.623 -260.097 17.6111C-260.271 17.6313 -260.436 17.6496 -260.585 17.6658ZM167.575 17.0222C166.321 16.8522 165.324 17.8006 165.456 17.8631C166.759 18.4445 168.776 17.5276 167.575 17.0222ZM157.81 16.9715C156.153 17.0349 158.894 18.3737 161.065 17.5926C159.984 17.569 157.972 16.9663 157.81 16.9715ZM156.933 17.0701C154.275 15.9847 154.34 17.4013 156.292 17.6267C157.018 17.7064 157.015 17.105 156.933 17.0701ZM203.476 16.3387C204.818 15.8391 208.639 16.4512 211.092 16.6658C209.956 17.0795 205.53 16.5069 203.476 16.3387ZM186.098 14.5594C186.248 14.5473 189.573 14.8509 189.728 14.8904C192.432 15.6883 183.011 14.8368 186.098 14.5594ZM168.572 14.3562C168.135 13.502 173.798 14.6011 175.793 14.6502C176.213 15.5006 170.544 14.4305 168.572 14.3562ZM139.661 13.8465C138.225 13.6169 134.096 12.4622 133.194 12.6853C135.366 13.0863 140.015 14.7673 139.661 13.8465ZM158.379 13.1678C158.696 12.8409 162.245 13.3577 163.517 13.3816C162.642 13.8259 160.071 13.4097 158.379 13.1678ZM134.484 8.50955C134.557 7.97255 134.49 8.13073 136.099 8.46268C148.017 11.0052 150.83 11.5492 150.344 11.784C149.321 11.8826 145.023 11.4183 134.484 8.50955ZM-261.455 8.98221C-261.657 8.96569 -266.387 9.48938 -266.623 9.55838C-269.107 10.1426 -266.547 9.92774 -264.105 9.65897C-261.701 9.39143 -259.338 9.04049 -261.455 8.98221ZM-247.639 7.44412C-248.702 7.55026 -253.405 7.73638 -253.446 7.96268C-253.524 8.31299 -248.149 8.08246 -247.639 7.44412ZM-41.7615 4.45194C-44.7587 4.64301 -47.8514 7.00152 -44.1384 6.54764C-43.7438 6.49781 -41.4114 4.75841 -41.7615 4.45194ZM-0.196048 6.1453C2.37939 5.60604 -3.59604 4.95523 -4.70581 5.38651C-5.25213 5.59814 -1.33281 6.37956 -0.196048 6.1453ZM70.1526 5.81522C70.0846 5.33979 65.8435 5.40878 66.4006 5.73221C66.5891 5.83895 70.1978 6.19554 70.1526 5.81522ZM36.3049 5.46756C35.988 5.41044 32.3511 5.46039 32.4807 5.80643C33.8229 6.02744 38.3399 5.85331 36.3049 5.46756ZM-28.9519 5.05155C-31.8012 5.67957 -25.661 6.01013 -26.2351 5.27616C-26.3212 5.23627 -28.8393 5.02462 -28.9519 5.05155ZM-15.8445 4.8162C-18.3717 3.95069 -22.6529 4.11372 -21.573 5.26639C-16.8429 5.11159 -22.1807 4.21681 -15.8445 4.8162ZM-53.571 4.10526C-51.7709 3.23808 -61.1233 3.68057 -61.8875 4.64334C-60.657 4.74358 -53.7991 4.20494 -53.571 4.10526ZM85.6096 2.93338C85.8455 2.9208 89.2804 3.29078 89.387 3.33866C91.6314 4.27703 80.3274 3.17426 85.6096 2.93338ZM-9.6687 1.17752C-8.77038 1.03161 -7.9338 -0.580268 -3.20288 0.223422C-3.19878 0.223426 -3.19428 0.223425 -3.19019 0.223422C-1.81016 0.459533 -3.37958 0.850402 -3.12671 0.989047C-3.01725 1.04751 1.26514 1.84235 -2.30347 1.96659C-7.75092 2.16946 -2.82474 0.77666 -5.7273 0.76639C-6.08966 0.76283 -11.5674 1.66413 -11.2429 1.85428C-11.2026 1.8747 -9.56508 1.67976 -9.2898 1.75662C-8.25655 2.04636 -8.75302 2.54887 -8.60816 2.57205C-8.14251 2.62066 0.55274 1.75557 1.82153 2.51346C2.22517 2.73017 -12.0293 3.32034 -12.5691 3.22537C-12.919 3.14892 -12.7886 1.76286 -13.1521 1.62967C-13.3388 1.56042 -19.0407 2.15389 -19.7771 2.04178C-19.9924 2.00833 -20.1572 1.97003 -20.2781 1.93924C-19.4121 2.35242 -24.5542 2.41177 -24.4089 1.92752C-24.3248 1.73483 -20.7877 1.78104 -20.6521 1.81327C-20.5962 1.82641 -20.5471 1.84554 -20.5017 1.85819C-21.2551 1.33521 -9.20543 1.21375 -11.8113 0.469515C-8.31465 0.014642 -12.2969 1.61248 -9.6687 1.17752ZM87.8049 2.3162C87.2304 1.43058 95.0262 2.2679 95.6184 2.50955C97.9889 3.41821 88.4188 2.14826 87.8049 2.3162ZM2.59497 1.30936C4.4681 0.781801 3.56737 0.0431647 7.09887 0.338656C6.74574 0.481819 6.39172 0.625087 6.0393 0.768344C12.0222 0.448961 18.9501 1.19771 25.8879 1.26541C27.6489 1.28409 25.6263 0.375419 27.9348 0.643344C29.7842 0.858465 31.8291 1.70524 30.8215 1.87577C30.5728 1.9175 26.8098 1.33857 24.928 1.37479C19.3718 1.48279 20.7713 2.25958 20.4475 2.27713C20.0884 2.2953 16.5966 1.73189 14.6936 1.74198C10.2648 1.76692 8.05915 2.15832 2.59497 1.70291C2.13856 1.66614 1.66027 1.62364 1.15844 1.57596C1.76874 1.49915 2.23199 1.40794 2.59497 1.30936Z" fill="white"/>
</svg>
