<svg xmlns="http://www.w3.org/2000/svg" width="330" height="95" fill="none" viewBox="0 0 330 95"><path fill="#fff" fill-rule="evenodd" d="M172.955 19.514c19.568-.791 39.466-2.595 58.796-1.628 19.338.968 33.671 4 46.09 6.878 12.084 2.8 23.665 6 24.84 9.56 1.156 3.502-18.165 6.34-18.433 9.847-.303 3.973 24.441 7.663 16.813 11.384-7.144 3.485-32.385 4.56-51.796 5.681-17.214.994-35.612-.016-53.52.4-16.393.38-31.329 1.918-47.852 1.954-18.386.041-38.52.16-53.733-1.729-15.21-1.888-17.616-5.797-28.61-8.491-12.446-3.05-38.583-4.706-40.701-8.492-2.121-3.79 25.115-6.154 30.444-9.836 5.731-3.96-14.382-9.242 1.378-12.154 16.15-2.984 45.354-.014 68.032-.672 16.797-.487 31.646-2.03 48.252-2.702" clip-rule="evenodd"/><path fill="#fff" d="M221.223 35.04c.364-.004 1.814.284 2.438.346-.71.386-3.743-.341-2.438-.347m74.722-29.744q-1.035.02-2.045.056c1.76.464 4.271.912 6.07 1.551.292.104-.631.345.071.553.7.211.767-.44 1.859-.201 1.167.236 6.904 2.45 10.801 4.833 1.362.812 2.898 1.759 4.998 3.616 1.994 1.91 5.061 4.573 7.462 11.199 2.425 6.347.873 15.147-1.45 19.107a25.7 25.7 0 0 1-3.239 4.888 27 27 0 0 1-2.602 2.703c-2.998 2.64-4.578 3.431-5.962 4.267-2.661 1.498-4.24 2.175-5.726 2.845a108 108 0 0 1-6.734 2.697c4.794-2.538-.711-.86-1.376-.265-.083.07-.055.419-.273.861-.092.214-.284.475-.195.576.065.037.186.056.776-.224.325-.163.735-.37 1.561-.935.797-.605 1.984-1.264 4.353-4.097 2.081-2.468 4.83-7.557 5.162-13.231.263-3.675-.363-6.8-1.087-9.032a22 22 0 0 0-2.095-4.614c-1.401-2.257-2.047-2.782-2.711-3.466-1.269-1.188-1.792-1.375-2.625-1.922-1.565-1.078-4.173-2.25-2.939-2.298.741-.833-.982-1.675 2.695-.566.414.142 4.996 1.502 9.402 3.258 1.546.79 3.618.18 9.652 4.93 1.936 1.922 5.108 3.92 8.369 12.504 1.559 4.174 2.195 11.614.184 17.473-2.143 6.465-5.171 9.747-7.754 12.278-3.712 3.383-5.745 4.284-7.597 5.287-7.171 3.393-9.75 3.612-13.03 4.484-3.071.701-5.76 1.163-8.368 1.537 3.095-2.445-2.705-.373-2.919-.45-1.38-.305 4.575-1.398 2.171-1.34a279 279 0 0 1-9.576 1.528c2.57-.082-3.249 2.045-4.35 1.522.525 1.717-13.828-.066-15.822.656-.425.161 2.465.774-4.163.972-.711.02-.473-.536-.845-.454-.223.05-1.477 1.863-2.955 1.054-.469-.258 1.949-1.363-2.252-.914-.699.07-1.562.172-2.608.307 3.336 1.546-11.347 1.665-13.819 1.206q.778.33 1.562.657c-2.576-.55-3.021.055-3.596.04-2.311-.068-5.431-.615-7.517-.531-2.439.097-2.461 1.202-5.26.803q.991.355 1.991.709-2.919-.053-5.773-.114c4.438-1.511-.959-.062-1.301-.026-.56.06.249-.55-.687-.467-.096.014.036.579-1.398.658-2.985.164-2.502-.555-3.744-.532-.111.005.276.51-1.847.663-6.686.5.02-.397.293-.468.349-.096-2.002-2.216 3.797-1.521-1.953-.221-2.139-1.166-2.359-1.187-.199-.018-3.541.16-3.718.197-1.626.35-.193.975-.51 1.097-.263.095-4.224-.671-5.094 1.315-1.879-1.75 1.024-1.678 4.21-2.012.46-.38-3.027-.669-3.203-.66-4.437.121-1.95 1.542-2.896 2.52-.201.21-.619.174-.929.147-.397-.035-.618-.057.01.453q.126.103.301.237l-.295.02c-3.53.225-1.285-.596-1.535-.699-.392-.153-1.774.288-1.952.245-.26-.064.62-.565-.401-.683-.17-.016-1.779.853.343 1.138-2.822.015-2.571.688-3.593-.631-1.859 2.689-1.503-1.454-2.295-1.557-2.113-.268-1.408 1.732-1.513 1.837-.711.673-6.652.326-8.157.711.519-1.5 4.749-.3 5.635-.637 3.005-1.123-4.357-.477-2.233-2.448q-1.366.842-2.749 1.685c-1.819-1.08.659-1.742-4.068-1.032-.717 1.068 3.35-.358 2.564.496-.454.5-3.211.764-3.256 1.015-.035.303 2.443-.197 2.074.287-.763 1.05-10.097.61-3.072-.32-1.701.11-2.776-1.332-4.137-1.246-.204.013-.415.06-.636.151-.41.17.232.616.7 1.105.402.418.678.868.062 1.207-.592.323-1.991.55-4.943.52-.238-.923 3.814-.447 3.906-.526.14-.11-.685-2.185-.814-2.283-.412-.301-10.224 1.208-12.423.146.599.828-3.217.684-6.004.574-1.145-.048-2.096-.071-2.36.044-.226.1.62.85.378.929-1.502.462-5.607-.895-7.529-.949-2.149-.06-1.879.584-1.999.582-.949-.047-.19-.474-.77-.48-.868-.002-6.936-.191-7.251-.114-.09.027.902.78-.432.889-.234.016-.066-.836-4.043-.57-4.807.306 3.315 1.171 1.311 2.019-3.064-1.377-2.989-.102-3.827-.23-.29-.046-2.437-1.203-4.816-1.24q2.568-.15 5.099-.332c-1.649-.242-4.897-.136-6.278-.418-.674-.136-.09-.996-1.557-1.044-.316-.008-1.62 2.1 2.26 1.311.287.787-1.532.2-2.39.374-.13.027-.688 1.29-1.753.428-.268-.223 2.785-3.769-4.769-1.536-.246.07.569.598.329.678-.163.057-2.074-.273-2.292-.225-.222.055.681.637.416.717-1.359.415-2.994-1.75-.257-1.378-.895-.32-1.805-.645-2.708-.974.889 1.608-1.477.306-2.778.223-8.402-.599-2.891.982-4.383 1.335-2.465.519-.36-1.814-4.014-1.525-.277.019 2.397 1.124-.9.615-.896-.14-2.15-.383-4.02-.845 1.387.21 2.716.382 4.058.535l.096.011a1 1 0 0 0-.077-.167c-.815-1.301-4.924-.544-5.27-.61-3.933-.627-1.085-.436-7.297-1.275-.557-.085-1.656-.772-2.893-.983-5.107-.843 6.347 2.408 6.45 2.841.214.575-12.25-3.339-12.347-3.799-1.503-1.204 5.404 1.757 4.309.53-.124-.153-5.036-1.874-8.234-3.32-3.209-1.411-4.298-1.834-4.875-2.21-.68-.49-1.03-1.438-1.341-1.637-.168-.118-.328.065-.52.877.058-2.181-.703-.9-.933-.976-2.958-.953-3.138-.984-6.312-1.443-.716-.101-1.247-.847-1.519-.792-.16.034.024.755-.75.814-1.013.081-7.463-1.841-7.967-2.309-.443-.456 2.857.379 2.344-.333-2.38-.509-4.758-.804-7.327-1.38-1.071-.242-.456-.545-.922-.647-.162-.03-4.107-.487-3.988-.314.563.547 11.825 2.493 8.753 2.643-.57.035-2.437-1.312-2.292-.088-3.082-.693-6.242-1.41-9.924-2.39-1.874-.508-3.821-1.044-6.45-1.949-1.32-.467-2.852-1.008-5.064-2.058-1.195-.58-2.516-1.237-4.484-2.564-1.904-1.443-4.997-3.18-8.65-9.382-2.985-4.827-4.47-14.104-1.81-20.908 2.234-6.127 5.37-9.02 7.126-10.676 3.856-3.308 5.553-3.841 7.188-4.669 2.943-1.298 4.532-1.676 6.11-2.102 2.966-.743 5.176-1.088 7.314-1.42-1.962.618-4.088 1.104-6.996 1.896-1.539.448-3.093.83-5.957 2.072-1.612.798-3.271 1.328-6.983 4.428A25 25 0 0 0 5.964 29a25.1 25.1 0 0 0-3.85 6.83c-2.778 6.634-1.405 16.067 1.6 20.877 5.577 8.766 8.58 9.008 10.778 10.625 2.023 1.132 3.432 1.716 4.667 2.215a50 50 0 0 0 5.516 1.834c1.237.353 4.537 1.27 4.237.592-1.788-.476-3.75-.957-6.417-1.786-1.367-.438-2.826-.901-5.082-1.888-1.182-.537-2.41-1.089-4.468-2.392-1.796-1.328-5.007-2.855-8.905-9.383a24.8 24.8 0 0 1-3.118-11.2C.698 40.876 2.147 36.09 3.478 33.56c3.152-5.898 5.624-7.397 7.45-8.928 3.352-2.437 5.073-3.006 6.424-3.593 2.727-1.067 4.332-1.404 5.765-1.704.23-.045-.456.652.409.517 1.681-.295 5.531-1.844 6.191-1.732.128.023-1.958 1.075-1.183 1.363 1.976.735 1.875-1.667 3.289-1.866 1.199-.18 8.125-.058 9.292-.972 1.453-.984-4.594.254-4.348-.42 2.155-.633 4.254-.926 5.989-1.13a45 45 0 0 1 2.074-.205c.224-.011.364-.009.316.057-.06.075-.297.183-1.102.638-.054.03.1-.197.085-.334-.007-.069-.047-.122-.177-.109-.124.013-.362.091-.943.444q-.375.229-.796.528c-2.346 1.548-6.293 5.86-7.611 11.33-1.421 5.539-.307 10.188.879 13.124.69 1.778 1.847 3.643 2.642 4.601.787.97 1.247 1.338 1.401 1.437.328.187-.367-.558-.445-.798-.004-.05.854-.113.888-.099.412.24.245.333.01.38-.237.048-.545.052-.595.01-.411-.37-.916-1.284-2.055-3.166-.92-1.608-2.049-3.714-2.582-7.345-.597-3.494.195-9.366 3.088-13.549 1.71-2.45 1.85-2.128 1.966-2.105.06.04.115.08.354-.105.23-.174.696-.623 1.283-1.163.201-.188.831-.838 1.538-1.452 2.354-1.95 2.153-2.29 2.523-1.365.009.047.064.092-.047.218-.06.067-.16.15-.446.336-.264.184-.758.46-1.761 1.2-.986.771-2.298 1.685-4.233 4.32-1.942 2.482-4.114 8.091-3.555 12.947.475 4.848 2.148 7.342 3.015 8.675.955 1.357 1.475 1.78 1.753 2.02.531.4.182-.066-.64-.882-.881-.973-2.115-1.77-4.94-5.609-1.219-1.961-3.95-5.36-4.209-12.822-.254-7.777 4.848-14.364 7.34-16.298 5.543-4.411 7.303-4.224 9.237-5.005 3.414-.987 4.933-1.116 6.096-1.35.314-.056.554-.103.71-.141q-.363.022-.727.046c-2.409.275-4.464.189-9.455 2.081 5.013-1.88 7.171-2.047 9.382-2.473 2.488-.388 4.256-.44 4.575.377 15.98-.781 28.644 1.183 41.661 2.54 2.291.352 1.017 1.042 4.777 1.186a470 470 0 0 1-2.89-1.08c1.943.4 10.385 1.605 11.721 1.557.175-.005.428-.676 2.502-.537 1.836.12 2.125.653 3.103.831.826.148 1.731.087 1.976.133.187.037.265.348.712.433 1.409.26.248-.666 1.665.402l-1.016.045c.998.151 2.217.407 2.534.606.105.063.119.12.005.169-.133.058-.445.102-1.006.12-.429.013-.066-.257-.387-.275-12.233-.8-3.165.433 1.397.287q.25-.008.482-.02c1.166.494 7.692.464 7.92.544.309.123-.798.419.688.732.302.078 9.137-.004 5.98.461-.654.102-4.896-.072-5.909-.081 2.434.893 8.014-.246 8.657-.198 2.578.145-4.894.66.903.79 4.469.089.243-.455 1.946-.668.953-.11 6.071.477 5.888-.236 1.744-.058.745.306.963.335.212.023 3.645-.153 4.779.005.137.02-.269.369-.126.399.277.05 3.609.01 3.744-.015.084-.018-.732-.33-.409-.398.376-.08 3.605.049 3.778-.029.244-.122-3.734-.116-3.09-.436 1.839.117 4.822-.026 6.028-.235-.295.062-2.081.017-2.702-.026.265-.471 4.105-.32 2.811-.003.824-.166.249-.29.71-.457.122-.042 1.308 0 1.534-.068.029-.014-1.205-.24-.964-.323.434-.151 4.046.077 4.345.139.836.163-2.102.15-2.337.331-.034.028 2.481.511 2.521.545.159.346-2.629-.022-2.298.307l2.069.28c-2.637.2-7.529-.093-8.763.273 3.899-.049 8.008.118 8.032.919.012.337-1.667.504-1.596.594.262.316 2.585.022 2.674.044q.107.03.106.057c.004.174-3.32.249-3.483.336-.271.15 1.237.777 1.24.91-.05.024-2.408.17-1.599.41.821.238 2.887.239 2.96.265.402.136-3.209.281-3.311.373-.055.044 1.898.29 1.957.364.052.074-1.414.256-1.981.512-.422.19.841.302.622.334-.157.02-3.56.1-3.724.14-.246.057.562.255.449.314-.16.084-1.261.04-1.114.118.112.062 4.402.674 4.382.868-.032.335-4.562-.257-.317.908.029.007 1.041-.132 1.071-.125.637.213-2.6.742 1.376.489-7.378.793-.896.55-1.964 1.17-.41.24-3.265.524-3.277.56.293.266 1.193-.019 1.509.099.174.062-2.365.551-1.779.707.302.076 3.012-.166 3.123-.153 1.08.102-.224.394.018.505.16.074 1.793-.047 1.836-.034.07.024-2.128.545-2.583.712-.346.126.977.16.734.221-1.46.377-4.627.036-1.56.647.186.037 1.328-.093 1.361-.085.717.181-1.382.404-1.745.652-.624.425 2.376-.088-.115.425 1.891.035 2.936-.09 5.131-.37-6.08.777-8.163 2.011-1.428 1.196-2.145.227-1.88.719-2.519.805-.395.054-3.533-.085-2.043.917.186.123 2.061-.31 1.486.065-4.524.529-.086.204-.079.241-.014.678-11.102 1.711-13.029 2.076-2.215.425-4.157 1.35-4.643 1.426-1.598.241-.293-.281-.658-.346-.367-.067-4.889 1.232-5.124 1.233-.897-.014-.022-.543-.115-.55-1.108-.084-7.273 1.07-9.032 1.183.07.273 3.568-.166 1.407.56-2.521.852-2.729-.355-2.798-.401-2.755.337-5.52.649-8.305.929-9.263.902-18.247 1.247-27.069 1.585.11.79 7.718-.111 7.9-.021.98.559-11.831 1.093-13.326.858 1.167.129 2.344.256 3.52.38-2.05 1.01-6.454-.013-9.319.536-.926.182.839.466.803.492-1.053.423-2.694.222-1.449-.343-2.536.608-2.15.059-4.072.122-.098.005.713.35-.794.604-.727.114-4.434.367-4.927.765-.2.167 1.665 1.58 1.9.223 4.05.367 1.298-.696 2.886-.768.252-.005-.349.755 3.706.178-.803 1.35-5.407.666-6.177.886-1.618.453 5.034.658 6.326-.424-.604 1.057.48.107 2.003.066 1.678-.047.936.293 1.844.245 2.496-.129 1.473-.773 3.526-.25-1.966-1.85 3.551-.42 5.188-.02-2.672.237-5.321.474-7.94.721l.443.285-2.062.076.336-.319c-3.55.86-4.369.185-4.654.191-3.662.146-7.79.46-11.243.82-.501.06-.196.691-3.833.606-1.133-.021-.106-.72-1.381-.457-1.464 1.736-1.503.543-1.954.613-1.292.221-1.95.753-2.062.78-.848.216-1.912.463-2.736.722-.531.166-.845.328-.695.373.002.004-.003.113.026.204.045.087-.028.203.16.123.053-.025.08-.133.628-.518.231-.18.772-.497 1.587-1.072.958-.734 2.486-1.518 5.02-4.851 2.853-3.056 4.748-12.283 2.918-16.596-1.453-4.442-2.861-5.545-3.411-6.292-.62-.69-.766-.788-.694-.781.08.02.389.196.86.45-.384-.385-.62-.646-.629-.709 0-.042.202.037.947.861a79 79 0 0 1-.7-.79c-.166-.194-.191-.252-.015-.156.35.213 1.43.878 3.303 2.489 1.708 1.526 5.225 4.796 7.222 10.754.927 2.722 1.124 5.455 1.204 5.924.048.589.277-1.09-.365-4.381-2.02-8.518-6.422-11.483-7.922-12.884-1.799-1.446-2.421-1.83-2.132-2.446.401.45 1.102.787 3.909 3.665 1.28 1.818 4.216 3.172 6.517 12.707 1.084 4.828-.236 12.209-3.012 16.44-1.334 2.203-2.586 3.643-3.923 4.969a26 26 0 0 1-3.244 2.706c-5.75 3.766-7.51 3.902-9.712 4.834a99 99 0 0 1-5.012 1.661c-2.728.828-4.537 1.295-4.952 1.308-.183.002.79-.727.538-.718-.221.02-3.789 1.084-4.246 1.026-.295-.028 1.177-.706 1.023-.833-.178-.074-4.404.849-4.462 1.465.897-.488 3.853-1.069 2.428-.192-.183.11-1.258.02-1.465.156-2.01 1.269 4.402-.64 5.638-.964-2.165.959-4.883 1.64-7.354 2.277-1.227.318-2.387.627-3.285.936-.864.291-1.581.656-1.118.692.166-.166.264-.323.096-.368-.157-.05-.352-.093-.41-.186-.065-.09-.025-.213-.026-.312.008-.102-.091-.16-.162-.21-.142-.098.751-.48 1.524-.873.348-.168.676-.324.792-.337.124-.018.06.096-.1.272-.327.356-.797.787-1.085 1.065-.285.277-.37.415-.34.421.166.003.38-.065.796-.291.404-.228.968-.555 2.09-1.412.28-.218.553-.438.924-.756a22.5 22.5 0 0 0 2.933-3.018 23 23 0 0 0 2.123-3.107c1.368-2.35 2.996-6.496 2.99-11.17a22.44 22.44 0 0 0-2.966-11.286 21.2 21.2 0 0 0-3.321-4.34 20 20 0 0 0-2.23-1.931c-1.274-.937-1.787-1.196-2.292-1.533-.852-.55-.958-.82-.777-1.29-.6-.214-.725-.186-.867-.187-.117.012-.166.042-.201.057-.05.034-.097.005.436-.053a1.6 1.6 0 0 1-.21-.448c.725-1.094 5.35 2.545 4.938 2.718-1.159.487-3.336-.78-3.46-.779-.138-.003-.505.479-1.092.68-.289.101-.626.132-.907.02-.13-.054-.26-.148-.295-.265-.03-.115-.01-.272.327-.364.126.444-.145.571-.365.645-.206.08-.163.176.086.308.221.125.585.266.678.395.108.131-.063.258-.614.4.795.086 10.468 2.245 12.087 1.76.19-.061-.428-1.559 1.99-.574 1.154.471-1.747.18-1.242.56 1.17.909 11.637 1.483 22.711 3.613 5.29 1.085 9.771 2.703 11.282 3.254.323.12.032.505.345.62 1.07.395 4.165.864 4.957 1.337-.926-.779-.285-.792.593-.621.87.17 1.898.448 2.333.597 1.303.448 1.06 1.225 1.668 1.524 1.219.58 3.136.511 5.112.522 2.036.032 4.038.158 5.335 1.157-.021-1.843 4.805 1.188 7.219 1.277 1.861.081 4.631-1.09 2.141-1.904 3.211.173 6.663-.13 9.762-.228.513-.016-.205.535.673.489.08-.008.198-.551.952-.606 6.238-.468 3.198.685 4.363 1.026.654.19 1.141.284 1.498.314-3.676.121-7.858.312-8.969.315.913 1.218 8.054-.196 10.165.11.073.012-.186.678-.111.682h.004c.784.051 5.84-.226 4.802-1.014-.279-.21-2.609-.192-5.348-.11.743-.152.194-.895.325-.927 1.584-.374 5.488.327 6.886.413.319.019.296-.46.348-.461 1.268.098.749 1.47 2.052.048 2.303 1.685-4.311.29-3.841 1.39.256.637 8.5.473 12.73-.207 1.32-.231 2.195-.532 2.181-.874.049.143.24.32.629.516.863.443 4.725.198 5.394-.078.112-.053.026-1.36.166-1.377.338-.036 5.159.8 6.951-.069a426 426 0 0 1-2.946-.416c5.875-.28 4.974-.64 2.974-.93-.098 0-.196-.044-.29-.045-1.54-.215-3.476-.412-3.509-.514-.078-.235 3.53-.568 6.026-.526 1.607.029 2.729.225 1.984.742-.116.079-1.09.067-1.942.09-1.094.029-1.993.115-.673.538.103.032.364.032.701.015 1.021-.053 2.759-.267 2.884-.202.633.331-1.266.867-2.821 1.42-1.162.412-2.138.834-1.779 1.203.549-.332 1.162-.503 1.809-.6 1.177-.175 2.466-.105 3.656-.313.84-.145 1.013-.812 1.116-.83 1.556-.256.716.479 1.239.433.276-.027 3.311-1.658 2.836.39 10.335-2.021 2.714-1.638-3.525-1.182 1.923-.84 5.868-.697 7.652-.956.638-.094.221-.748 1.3-.935 2.016-.37 11.499-.113 15.326.106l.831.041c-.371.054-.641.129-.825.212-.445.202-.376.454.014.596.222.081.549.127.945.107 1.374-.066.2-1.027.466-1.135.302-.125 6.706.326 7.738.222-4.772.325-3.677 1.054.356 1.157q-.872.304-1.746.615c2.378-.288 7.276.893 8.605.593.21-.05-.54-.672-.422-.699 1.182-.238 5.13.47 5.31.269.158-.169-1.518-.717-.892-.952.131-.05 1.744.808 3.327.646.588-.059.24-.64.388-.67 1.231-.243.501.702 2.737.604 1.634-.074 2.854-.98 5.075-.616-7.332-1.38-1.137-.72 1.884-1.013.483-.047.081-1.083 2.951-.523-6.132 1.733 1.767 1.026 3.329 1.056.087.007.124.684.901.703.066 0-.033-.457.685-.486 6.765-.295 2.444.196 3.741.649.558.194 3.778-.474 4.629-.509.198-.005.129.467.893.432.663-.03 1.286-.176 1.847-.324.655-.157 1.249-.315 1.759-.35.119-.006.157.73 2.035.433.522-.083 1.1-.36.34-.55-1.09-.267-2.587-.17-4.162-.017-1.833.188-3.833.44-5.307.052-2.281-.6 4.576-.74 5.264-.79l.054-.003c.027 0 .001.011-.052.032-.202.088-.852.337.022.392q.105.006.235.007c1.389.015 3.834-1.328 5.884-1.105.155.017 1.841 1.044 1.767 1.108-.062.047-2.545.35-2.164.651.044.034 1.627-.018 1.849.206.268.275 1.101 3.008 1.443 3.066.875.142.278-.467.838-.441 1.206.055 5.384.726 5.457-.226l-2.052-.101c3.782-.221 2.141-.571 2.667-.766.564-.21.453.625 1.727.66.285.01 5.548-.362 5.416-.706-2.859.664-1.859-.397-1.992-.41-.512-.048-1.126.548-1.816.562-4.848.077-.019-.997-1.177-1.19-.398-.066-1.153.45-1.322.43-.549-.063-.597-.707-.957-.643-.841.147.205 1.027.14 1.076-.722.596-3.747-.022-1.949-1.073-1.134-.325-1.197.888-2.11.431-1.819-.908.837-.738 1.54-.918 2.519-.647 3.309-.203 6.867-.478 1.28-.099 2.746-.732 3.334-.785.367-.027 4.01 1.827 3.851-1.306 1.359.25 3.613 2.198 4.954 2.022 1.191-.157.697-1.228.805-1.277.175-.077 1.599-.079 2.063-.267.537-.22.208-.615 1.061-.846 2.075-.576 2.135.521 2.361.576 2.528.598 1.23-.864 1.728-1.037.167-.064 1.436-.122 2.552-.199.542-.033 1.052-.077 1.217-.058.168.029-.024.092-.99.572-1.226.707-4.093 1.859-7.57 6.647 2.541-3.46 4.151-4.343 5.386-5.191 1.15-.705 1.765-.933 2.336-1.144a3.7 3.7 0 0 1 .632-.12c-.102.165-.257.312-.466.462-.941.697-2.792 1.137-6.151 5.039-.808 1-1.512 2.055-2.169 3.324a19 19 0 0 0-1.558 4.12c-.62 2.554-.483 4.245-.251 4.383-.766 1.38-.486 8.012 1.828 11.828 2.155 3.9 4.067 5.222 5.131 6.012 1.008.675 1.521.803 1.797.845.271.032.334-.038.342-.03-.007.005-.137.309-.21.272-.153-.12-3.049-1.635-3.954-1.817-1.916-.4-.549.66.974 1.73.753.533 1.479 1.055 1.863 1.404.401.355.378.49.348.505.043-.006-.088-.09-.592-.284-.49-.19-1.293-.459-2.073-.672-1.593-.436-2.876-.603-1.209.59.497.363 1.633-.079 1.885-.003 1.624.494.149.668.246.792.197.215 1.27-.083 1.309.055.014.026-.111.16-.158.342a.66.66 0 0 0-.004.289c.01.09.076.194-.054.169.002.175.024.248-.23.15-.243-.095-.731-.338-1.346-.634-1.215-.585-2.916-1.388-3.347-1.485-.154-.034.099.475-.209.553-.376.04-.952-.149-4.214-2.348l.103.48c-1.473-.65-3.042-1.313-5.631-2.774-1.382-.823-2.865-1.619-5.582-3.937-1.258-1.118-3.146-2.87-5.121-5.868-2.17-3.289-4.875-9.154-4.296-16.646 1.437-11.76 6.605-15.404 8.761-17.74 2.457-2.201 4.062-3.113 5.311-3.853-.343.346-2.08 1.69-2.856 2.508-1.018 1.05.396-.165 3.573-2.029 1.682-.947 1.628-1.075 1.443-1.193-.217-.093-.785 0-.653-.077 1.437-.92 6.932-2.96 10.5-3.82 1.869-.492 3.702-.957 4.496-1.122.184-.033.292-.043.229.025-.071.076-.274.194-.938.626-.65.483-1.737.972-4.227 3.617-1.227 1.389-3.095 3.634-4.55 7.64-1.626 4.24-1.798 10.456-.15 15.043 1.92 5.287 4.055 7.063 5.145 8.21 1.172 1.097 1.824 1.493 2.252 1.765.838.498.939.464 1.015.486.114.021-.093-.037-.556-.169-.445-.125-1.015-.27-1.087-.3-.718-.374-4.857-2.37-5.86-2.634-.579-.165-.166.513-.669.305-.472-.195.145-.48.008-.55-.635-.342-3.982-1.34-7.33-2.344-2.536-.763-4.871-1.505-5.817-1.991.817.334 3.702.95 5.968 1.338 1.523.258 2.696.396 2.671.245-.016-.055-1.64-.953-2.038-.897-.09-.105-.24-.173-.431-.218-.881-.201-2.592.073-3.45-.403-.119-.064.521-.579-1.417-1.306-.672-.25-2.536-.284-4.175-1.375-2.6-.6-15.737-4.836-16.772-4.288-.035.025 1.82.686.513.66-1.73-.03-.06-.888-2.024-1.423-.295-.096-5.841-1.09-6.033-1.038-1.734.322 3.07 1.531 2.991 1.608-.189.15-4.2-.536-4.362-.604-.159-.074 3.211-.314-.771-.727q.67.276 1.33.559c-1.866-.154-2.002-.767-2.45-.884-1.403-.355-2.972.247-5.186-1.173-.591-.373.43-.537.356-.59-.218-.152-.463-.172-.73-.155-.582.041-1.261.263-1.988-.358-.084-.061 2.474-.188-1.959-.759q.456.164.91.33c-.623.068-5.147-.37-5.769-.462-1.795-.29-.224-.625-2.037-.741 1.167.777-4.363.342-4.06-.179-.762.631-5.531-.277-7.805-.423-1.426-.1-4.346.013-4.807-.047-.56-.072-.409-.5-1.423-.649-.289-.04-3.282.113-5.969-.438-.521-.108-1.643-.845-.691-.983 1.631-.245 4.754.45 4.693.024-.066-.462-4.227-.335-5.362-.431-5.233-.431-2.244-.785-2.385-.933-.365-.347-3.225-.398-3.347-.43-.502-.14 1.513-.36 1.532-.563.023-.267-2.761-.771-2.139-.85.892-.117 3.445.306 3.604.291 2.073-.237-.82-.887-1.626-1.182-.244-.092.701-.243.501-.27-3.051-.407-.592.852-2.613.757-1.805-.085.491-.463.421-.488-.09-.024-2.244-.05-2.589-.187-.167-.059 5.381-.843 5.126-1.203q-2.663.142-5.336.272c-.163-.436 2.421-.137 2.683-.184.529-.098-.972-.309-.916-.45.03-.087 1.759-.438.174-.543-.545-.034-1.667.29-3.662.012 6.859-.526 2.077-.694 1.867-.836-.206-.147 3.055-.61-.925-.43-.217-.841.072-.27 1.196-.456 1.375-.233-1.841-.404 3.233-.369-.31-.403-4.377-.213-4.595-.238-.188-.02.707-.252.381-.305-3.856-.6-1.217-.363-2.347-.796-.1-.039-3.713-.038-.973-.242 4.989-.39 7.108.086 7.88-1.215-3.723-.31-8.153.742-9.277.801-1.718.11.051-.219-.164-.274-.075-.017-1.555.085-1.575.067-1.098-.802 6.587-.404 8.989-.704q-.98-.151-1.959-.296l2.625-.188c-4.185-.009-.152-.09.846-.94.224-.19-2.499.312.599-.404-2.31.063-1.583-.145-3.657.228.037-.3 4.71-1.027 6.556-1.346-6.563.199-2.772 1.013-8.452.885-1.028.45 1.664.165 1.447.244-.778.278-2.643.091-4.835.994-.357.145 1.2.417-1.076.549-.253.012-1.716-.205-1.697-.228.18-.255 1.617-.264 1.672-.372.05-.1-1.546.071-1.552.044-.064-.3 1.327-.213 1.122-.294-.445-.188-6.218-.38 1.285-.786-6.208.838-.781.41 1.64.08.617-.085.764-.288 1.642-.428 1.13-.183 2.464-.202 3.049-.287.63-.097-2.987-.248 2.216-.565-2.671-.233-7.307.675-9.911.586-5.247-.141 3.6-1.08 4.523-1.248.245-.04-.593-.218-.43-.25.265-.052 5.31-.435 5.797-.71.484-.277-1.847.198-2.015-.017-.116-.14 5.959-1.073 2.656-.83-2.277.18-6.419 1.235-7.154.662 3.323-.416 6.654-.846 10-1.27q-2.77-.101-5.528-.16c3.737-.53 7.001-.598 10.569-1.394-8.654.119 2.757-1.045 2.891-1.163.038-.078-3.399-.406-3.95-.461 2.975-.668 12.219-1.908 6.772-2.2.988.089 3.354-.726 3.322-.764-.324-.395-5.502.546-4.67.067.96-.563 2.358-.158 3.871-.392 7.796-1.168 5.576-3.264 13.606-3.729l-.482-.21A219 219 0 0 1 245.916.68c3.597-.809 13.143-.877 17.733-.306.934.092 5.371 1.045 5.688 1.179.598.23-2.873-.1-1.369.374.338.075 7.835 1.254 7.394.677-.82-.176-3.519-.264-3.929-.436-1.656-.71 5.275.148 11.382 1.132 4.69.729 9.428 1.676 10.002 1.631-.495-.283-.982-.56-1.472-.836 1.499.37 3.026.764 4.6 1.201m-69.493 29.2c-.776.326-2.696-.242-3.849-.255-1.59-.017-4.306 1.268-3.138-.19q3.527.184 6.987.445m32.779 7.616c-1.431-.694-.08-1.458 1.058-.656.127.09.877 1.604-1.058.656m-15.536-4.424c.068-.001 1.358.306 1.404.334 1.116.666-2.788-.27-1.404-.334m31.059 30.207c-2.292-1.29-3.265-1.657-2.486-.807.636.74 2.255 1.915 3.507 2.27.169.057-.735-1.295-1.021-1.463m-3.953-2.63c-1.014-1.093-2.384-2.122-4.886-5.171-2.093-2.495-6.329-9.294-5.703-17.758.452-6.17 2.562-9.86 3.722-11.95 1.325-2.214 1.889-2.92 2.112-3.369.186-.364-.126-.222-1.166.969-.877 1.397-3.62 3.17-5.449 12.244a24 24 0 0 0-.22 2.03c-.288 2.735.314 8.14 2.001 11.782a25.6 25.6 0 0 0 2.755 4.88 25 25 0 0 0 2.506 2.953c2.965 2.876 4.428 3.435 4.328 3.39m-16.782-25.038c.222-.29 1.73.276 2.37.536-.071.301-1.719-.407-2.37-.536m34.421 11.647c.03-.07.163-.095.159-.18.001-.083-.153-.23-.455-.402-.583-.342-1.662-.723-1.849-.588.323.053 1.289.554 1.788.906.255.176.383.304.393.339.015.037-.067-.014-.036-.075m-2.45-35.057c.204.002 1.999-.557 1.818-.802-.897-.156-2.564.737-1.818.802m.163 56.333c-.084-.086.263.002.544-.015.292-.007.569-.078.566-.283-.037-.253-.152-.377-1.686-1.695a22.816 22.816 0 0 1-1.678-1.634c-.799-.902-1.608-1.708-3.027-4.123-1.24-2.229-2.971-5.843-3.06-11.435-.226-5.313 2.441-11.527 4.346-14.022 1.233-1.698 1.005-1.5-.023-.292-.527.66-1.192 1.515-2.067 3.082a24 24 0 0 0-2.445 6.623c-1.306 5.394.202 11.924 1.269 14.236 1.129 2.732 1.876 3.716 1.432 3.088-1.791-2.811-3.486-7.073-3.636-11.998-.149-4.934 1.094-8.789 2.451-11.612-2.426 4.558-3.335 12.019-1.718 17.454 1.37 5.04 3.655 7.96 4.887 9.468 2.852 3.238 3.881 3.614 4.63 4.186.766.496 1.013.604 1.238.71.205.09.269.093.311.078.166-.084.197-.17.175-.238-.031-.073-.117-.128-.372-.262-.247-.132-.623-.322-1.128-.633a12 12 0 0 1-1.009-.683m-.26-39.517c-.235.352-2.176.318-2.635.207-.08-.02.16-.905-.719-.787-.713.097.455.922-.956.861-1.449-.062.402-.804.265-.841-.16-.049-2.344.468-2.331-.056.024-.386 2.42-.248 2.974-.366.719-.148-.225-.731.986-.667.766.036.48 1.178.646 1.224.161.038 2.606-.793 1.765.422zm-2.179 3.012c-1.224 1.26-2.701 2.698-4.575 6.425 1.626-3.232 3.133-4.939 4.575-6.425m-52.822-1.833.011.005c.218.097.178.16-.009.19-.459.078-1.835-.045-2.466-.34-.005-.238 2.343.087 2.464.145m59.529-1.975c.567-.34.66-.441.739-.548.064-.098.053-.163.009-.21-.123-.074-.253-.183-1.421.286-.996.547-2.314.76-6.034 4.28 2.437-2.282 3.466-2.548 4.265-2.888.734-.251 1.384-.427 2.087-.74q.179-.074.355-.18m-16.864 12.49c.082.096.12.217.089.387-.213-.265-.213-.37-.089-.388m5.186 2.035c1.879.08-1.687-1.114-1.772-.736-.02.142 1.702.732 1.772.736m.277 22.77c-.11-.083 1.025-.09 1.36-.268.171-.087.162-.202-.282-.378-.464-.192-1.245-.356-3.322-1.02 3.725 2.076-.319.329-.415.437-.012.262 1.803 1.184 3.246 1.792 1.493.64 2.786 1.111 3.214 1.401 1.051-.465-2.804-1.266-3.794-1.96zm-20.173-35.934c.473-.552 2.075-.414 3.143-.407-.466.55-2.064.415-3.143.407M61.19 43.68c.808-.332 2.042-.805 4.15-2.547 2.05-1.666 5.76-5.946 6.672-12.092.875-5.995-.887-10.02-1.737-11.837-1.02-2.038-1.651-2.75-2.087-3.313-.872-1.038-1.034-1.068-1.165-1.135-.112-.033-.121.054-.163.115a.45.45 0 0 1-.162.156c-.059.048-.13.07.003.281.176.32.436.358 1.976 2.753.708 1.312 2.194 3.409 2.687 8.467.679 5.161-2.371 12.116-4.96 14.567a22 22 0 0 1-1.955 1.94 24 24 0 0 1-2.213 1.7c-1.021.707-1.443.996-1.046.945M44.625 24.974c.518.971-1.686.886-2.957.363-.297-.12-1.231-1.148.05-1.184-.232 1.079 1.72 1.725 2.907.82m246.927 7.953c.191.234.211.244-.062.233-.247-.018-.716-.086-1.07-.089.163-.271.568-.391.85-.405.296-.016.385.1.282.261M50.507 59.695c-.871.176-1.272 1.04-1.116 1.062.698.097 2.198-.935 1.117-1.062m238.836 13.776c.037-.202.2-.185-1.191-1.049-.691-.472-1.941-1.195-3.925-3.23-1.851-1.706-4.216-5.953-4.688-6.898a23.6 23.6 0 0 0 2.544 4.868 22 22 0 0 0 2.752 3.28c1.551 1.5 2.612 2.16 3.211 2.53 1.183.686 1.201.563 1.297.499m-28.454-39.033c.472.182-1.893.588-2.634.412.038-.409 2.326-.531 2.634-.412M38.501 63.248c-.602.108-1.787.483-1.8.817-.089.426 1.586-.276 1.8-.817M146.803 33.74c.095.06-2.6 1.07-3.831 1.124-2.334.093 3.739-1.161 3.831-1.124M60.127 56.2c4.643-1.23-.57.285-.015.796 1.302-.544 3.817-1.342 7.578-4.013 1.95-1.406 3.375-2.96 3.659-3.383.177-.354-1.2 1.167-3.964 2.94q-.38.24-.788.475c-2.425 1.46-5.292 2.773-6.47 3.184m-3.26.933c-.291.347-2.185 1.73-.377 1.088.882-.314 2.104-1.606.377-1.088m72.797-20.647c-2.06-.145 7.318-1.175 7.571-1.17.143.016.237.037.291.06.335-.178 2.082-.462 2.304-.178-.527.055-1.957.3-2.127.29a1 1 0 0 1-.164-.02c-.594.385-7.469 1.065-7.875 1.018m-15.859 1.124c2.376-.849 2.796.26 2.59.313-2.595.679-.898-.306-.979-.339-.179-.051-2.02.48-1.603.026zm12.651-.901a56 56 0 0 1 2.156-.228c1.634.157-3.966.759-2.156.228m148.754-1.212c-1.308-.128-.087-.845.777-.64.073.02.366.752-.777.64M55.451 57.762c-.779.205-9.612 2.178-8.79 2.877.335-.146 2.858-.717 5.31-1.407 2.42-.671 4.864-1.545 3.48-1.47m6.053-29.65c-1.571-.21.292-.933 1.094-.466.293.173-.693.518-1.094.465m226.739 43.84c-1.277-.025-.466-1.466.283-.522.029.037-.236.521-.283.521M49.711 26.253c5.025-.06 3.33 2.758-2.782 1.113l.64-.33c-6.963-1.174-.51-.256 1.325-.238.686.006.189-.54.813-.549zm20.852 3.394q.4.231.696.423c1.505.978 1.083 1.136-.224.914-2.541-.457-7.255-1.665-9.04-1.715 2.928-.501 6.87.266 1.79-1.427 3.761.451 5.11.919 5.258 1.145.175.238-.666.318-.505.385.369.147 1.754.12 2.025.275m-14.434-2.107c-.296.028-2.37-.63-3.132-.637 1.14-.612 5.102.43 3.132.637m41.457 11.354c.185-.407.619-.718 2.267-.653-.516.223-1.575.447-2.267.653m127.447-6.443c-1.054-.148-3.171-.495-2.526-.064.074.036 2.519.27 2.526.064M35.483 63.16c.083-.07.116.017 1.628-.804.888-.605 2.256-1.031 5.284-4.567 1.657-2.127 3.753-5.219 4.518-10.666.7-5.387-.82-10.158-2.521-13.182a21.1 21.1 0 0 0-3.001-4.168 22 22 0 0 0-1.918-1.845c-1.066-.893-1.47-1.16-1.77-1.408-.276-.222-.345-.314-.19-.28.177.055.492.15 1.496.803.61.65 2.12.659 5.862 6.63 2.312 3.638 4.03 11.864 1.497 18.218a21.6 21.6 0 0 1-3.541 6.31 20 20 0 0 1-2.74 2.788c-2.86 2.258-3.52 2.224-4.05 2.466-.438.13-.555.086-.617.023-.047-.072-.113-.14.063-.318M75.56 25.818c.401 1.162 1.217 3.3 1.377 6.969.219 3.556-.952 8.43-2.764 11.527-3.77 6.263-6.464 7.26-7.004 7.914a.5.5 0 0 0-.089.085c-.032.067.023.067.153.008.683-.591 4.07-1.679 7.975-9.304C77 39.359 77.548 34.1 77.031 31.02c-.468-3.249-1.225-4.705-1.47-5.204m144.105 5.735c-.139-.052-3.431-.265-3.068-.072.694.36 3.553.237 3.068.072m50.899 5.468c-.274.031-.684-.583-.78-.587-.22.002-5.313.398-3.412-.47.336-.138 7.638-.067 8.548-.037.43.84-2.706.15-3.453.261-.132.021-.165.743-.901.83zm-164.323 1.001c.239-.37 6.611-.983 6.541-.566a656 656 0 0 1-6.541.566m-3.204.116c-1.336-.19 1.809-.437 2.741-.377.003.244-2.549.405-2.741.377M51.08 56.824c-.67.312 1.642.39 1.194.657-.304.179-1.9.352-2.331.697-.12.107 1.56.33 2.042.16.656-.228-.109-.549.614-.762 2.487-.758 4.72-.976 8.535-2.583.337-.145-2.519.68.523-.622.17-.078.558-.188 1.377-.515.776-.322 1.93-.77 3.857-2.03 2.031-1.648 7.369-4.36 9.554-14.767.972-7.934-2.04-12.815-3.523-15.102-1.639-2.367-2.854-3.456-3.764-4.325-1.828-1.662-2.808-2.389-3.381-2.914-.272-.24-.42-.393-.324-.312.106.12.431.31 1.466 1.78.493.752 1.27 1.895 2.038 4.184.76 2.186 1.367 6.263.242 10.223-1.108 4.081-3.376 6.747-4.778 8.054a14.161 14.161 0 0 1-1.957 1.555c-.52.343-1.066.643-1.369.78.05-.087.679-.386 2.106-1.574.902-.8 1.861-1.594 3.349-3.823 1.338-1.971 2.742-5.582 2.794-8.94-.063-7.072-2.492-9.226-2.984-10.195-.74-.996-.93-1.12-.989-1.2-.521-.56-.477-.472-.078-.149.413.352 1.16.931 2.433 2.104 1.237 1.467 3.305 2.104 6.357 9.36 1.523 3.483 1.758 11.205-.934 15.996-2.576 4.921-5.142 6.684-7.049 8.12-4.777 3.116-6.328 3.279-8.184 4.05a83 83 0 0 1-4.162 1.356c-1.353.402-.616.554-1.187.735-.44.136-.073-.654-1.487.002M225.599 32.26c-.492-.52-2.271-.418-3.41-.554.398.447 2.311.326 3.41.554M75.757 39.242c-.556.066-2.298.044-2.425.232-.19.242 2.31.162 2.425-.232m166.008-1.682c-.051.022-1.391-.017-1.442-.043-1.208-.626 2.795-.503 1.442.043m-33.938-.809c-1.138.082-2.293.32-2.679-.336.733.106 2.815-.116 2.679.336m-48.91 1.573c.246.855-2.89.416-3.466.355.2-.387 3.282-.967 3.466-.355m-61.52-1.147c2.033-.057 1.628-.865 2.914-.546.211.054.846 1.735-1.381 1.2-.4-.1 1.187-.578-1.533-.654m-51.464-9.94c-.57.456-2.063.142-3.044-.01.279-.348 2.292-.031 3.044.01m167.763 3.494c-.922-.492-5.186-.431-4.121-.098.154.043 3.529.038 4.121.098m76.591 4.612c-1.149.72 1.554.543 1.721-.048-.082.028-.436.026-.839.025-.416.003-.842-.001-.882.023m-120.265 2.904c-.085.031-1.967.07-2.051.044-1.575-.58 3.75-.694 2.051-.043m49.39-.208c-.685.494-5.243-.032-6.282-.569 1.018-.734 7.152-.049 6.282.57m-130.315-.253c1.428-.084 2.781-.039 4.097.048-.288.299-3.954.164-4.097-.048m74.097.87c-.098 0-.196-.044-.29-.045q.147.022.29.045m-102.91 1.852a.9.9 0 0 0-.34.091c-.318.181-.129.541-.098.546a.7.7 0 0 0 .196-.017c.507-.113 1.055-.698.242-.62m164.029-9.067c-.388-.452-2.32-.324-3.435-.519.324.344 2.546.468 3.435.52m-147.1 1.364c1.422 1.05-3.548.146-6.518-.431-.825-.174-1.52-.354-1.849-.524-.019-.155.825-.181 2.002-.1 2.404.138 6.188.914 6.364 1.055m215.32 3.267c.066.24-.059.277-.729.508-.593.24-1.352.58-2.186 1.065-.852.504-1.301.775-.638.174.746-.65 1.865-1.355 2.604-1.69.728-.323.888-.233.949-.057M65.137 30.885c-.716.047-2.144-.686-1.553-.919.751-.303 1.742.902 1.553.92M41.995 58.786c-.28-.008-3.236 1.298-1.87 1.435.938.096.946-.62 1.156-.678.192-.053 5.63-.6.714-.757m63.057-19.391c-1.179.156-2.537-.17-3.718-.235.509-.302 3.245-.24 3.718.235m182.078-2.587c.152.092 1.976-.003 3.059-.168 1.079-.165 1.609-.365-.04-.466-.099-.005-3.849.09-3.019.635m-189.733.369a10 10 0 0 1-.894-.019c.34 0 .636.011.894.019M74.99 38.309c.426-.327-1.75-.232-2.386-.014-.189.376 2.314.056 2.386.014m26.202 1.404c-.699.183-1.9-.154-2.717-.198.17-.355 2.455-.197 2.717.198m52.027.808c-1.442-.19-3.187-.055-3.21.415a.55.55 0 0 0-.215-.227c-.101-.064-1.215.1-1.953.052a2.5 2.5 0 0 1-.375-.045c-1.01-.215-.635-.368.374-.457 2.987-.264 12.443-.092 3.806 1.166.523-.3 1.051-.601 1.573-.904m72.248-1.24c.857.582 3.249-.067 2.63-.301-.426-.16-3.484-.285-2.63.3m-34.674.024c.277.092 2.806-.368 2.867-.667-1.482-.29-4.143.23-2.867.667m41.209.767c.529.093 1.196-.796 1.134-.836-.535-.336-2.022.32-1.134.836M93.248 35.733c-.81-.144-3.41.39-3.981.82-.103-.074-.382-.164-.893-.267h.005c-.828-.216-20.967.801-7.464.8.428.003-.153-.345 1.586-.368.116-.001.169.302.526.298.81-.012 5.226-.028 6.127-.302.007.054.063.104.185.147 1.083.376 4.536-1.022 3.91-1.128m92.566 3.822c.507.145 2.097-.07 2.248-.469-.804-.167-3.432.13-2.248.47m101.741-1.32c.874.213 2.71-.559 2.077-.774-.332-.13-3.053.535-2.077.774m-85.596.806c-5.936-.46-1.413.037-2.315.613q1.16-.31 2.315-.613m-82.119-3.72c-.937-.003.152-.738 1.197-.47.329.083-.676.469-1.197.47m41.029-5.608c-.78-.318 2.916-.61 1.499-.107-.066.02-1.443.116-1.499.107m-28.371 3.877c-.606.439-1.008.537-2.774.652 2.602-.412.171-.45 2.774-.652m17.528 7.42c-.009-.028-.017-.048-.016-.074q.016.038.016.074m87.02-1.051c.676.571 2.532.532 1.967-.037-.053-.052-1.7-.379-1.967.037m-147.78-3.406c.092.066.043.113-.112.16-.005-.05.036-.102.113-.16m137.586 3.707c.073-.423-2.874-.66-2.997-.613-1.708.7 1.789.613 2.997.613m63.493 27.856c-.115-.01.205 1.205.612.988.346-.16-.121-.94-.612-.988m-151.926-35.43c.963-.128 2.316-.313 2.582-.082-.645.05-2.591.285-2.582.082m20.988-3.07c-1.091.433-3.627.822-5.257 1.022-.053-.368 4.225-.784 5.257-1.023M95.823 35.84c-.078-.018-2.46-.093-2.144.256.46.51 2.813-.088 2.144-.256m194.798 33.01c-.331-.305-.375-.498-.129-.488.23-.002.688.124.93.134.574.068.43-.131.067.123-.198.122.031.416-.007.539-.02.06-.124.065-.332-.018a2.5 2.5 0 0 1-.529-.29m-47.788-28.162c1.292-.322-1.953-.84-2.4-.285.608.044 1.94.4 2.4.285m-47.798.02q.116.039.226.073c4.429 1.43 1.885-1.465 1.063-1.195-.081.027-.722.534-1.071.858-.156.145-.254.252-.218.264m7.825-12.218c-.616.089 1.716.589 2.002.33.178-.166-1.607-.39-2.002-.33m-74.058 13.155.543-.017a2 2 0 0 1-.543.017m126.5.82c-3.249-2.134-2.833-.42-3.103-.42-.593-.003-1.992-.564-3.114-.424q1.91-.45 3.787-.888c-.467-.06-2.611-.21-4.808-.31-2.264-.13-4.615-.252-4.698-.053-.221.529 2.292.323 2.364.364.108.063.569 1.505.805 1.553.112.023.76.026 1.638.021 2.383-.027 6.293-.069 7.129.157m-50.508-2.049c-.742-.184-.956-.78-1.301-.64-.118.048-.134.615-.536.76zm55.958-.133c.915.63-3.031.505-3.162.434-.699-.427 2.419-.95 3.162-.434m-32.438.504c.144.045 3.096.312 3.069-.067-.771-.299-4.734-.466-3.069.067m-25.854-.214c-1.116-.071-3.252-.637-2.997.218h.005q1.501-.114 2.992-.218m89.621-.62c-1.061.99-2.806 2.696-3.939 4.359-1.057 1.57-1.26 1.92-.801.856.368-.957 2.039-3.258 2.974-4.193 1.21-1.234 1.966-1.825 2.535-2.251l.084-.078c.337.173.288.336.13.517-.234.192-.696.503-.983.79m.101 26.874c-.038-.148-.921-.567-2.104-.932-1.147-.355-2.379-.61-2.076-.152.282.345 3.14.915 3.119.972.108.122-.751.488.333.84.049-.24.795-.615.728-.728m-6.825-11.808c.529 4.953 2.338 7.105 3.24 8.379.932 1.183 1.639 1.8 1.981 2.132.777.717.962.955.996 1.172.028.204-.094.345-.388.318-.145-.013-.36-.086-.695-.294-.358-.237-.7-.453-1.502-1.286-1.091-1.082-3.132-4.163-3.691-7.711-.535-3.61.023-5.465.059-2.71m6.561-15.024c.512.093 1.828.073 1.843-.498-.344.008-1.575.205-2.846.327-.089.34.562.097 1.007.17zM170.945 26.067c-1.55-.038 1.996-.512 2.15-.473.452.117-1.455.486-2.15.473m19.318-5.66c-.44-.08-.742-.381-1.691-.178q1.465.285 2.929.589c.72-.568-.756-.324-1.238-.411m-3.783-1.749c.135-.02-.651-.774 1.135-.344 1.208.304-5.234.989-6.418.706 1.281-.224 4.117-.196 5.283-.362m-11.451-2.505c-.076-.05 2.36-.331 2.644-.314 1.495.1-2.23.591-2.644.314m7.799-.494c-1.155-.052 1.38-.367 2.143-.346.081.141-1.965.353-2.143.346m-28.331.36c-1.289-.532-2.322.728-.418.42.091-.015.473-.394.418-.42m22.883-.794c1.151.042-1.379.354-2.137.336-.076-.126 1.962-.34 2.137-.336m-23.853-.53c-1.689-.383-1.011.99-.8 1.038.868.194 3.765-.414 4.358-.55-4.381.295-2.762-.31-3.558-.489m-7.585 1.013c-1.523.197 2.415.385 3.139-.033-.763.04-2.706-.022-3.139.033m-9.302-.308c-.82-.044-3.261-.164-3.653.089.887-.048 3.323.169 3.653-.09m-1.89-.726c-1.293-.336-1.55.657-.093.354.057-.012.14-.335.093-.354m-7.171-.396c-.844-.425-1.761.569-.41.612.4.01.5-.564.41-.612m23.768-1.045c-1.227-.144-2.75.482-.151.522q-1.359.152-2.713.311c3.416.295 3.113-.538 4.093-.51 1.369.038 1.307.711 1.047.928 1.09-.434 5.86-.49 8.626-.57-2.443-.153-6.401-.42-8.795-.515-.683-.027-1.332.165-1.913.15-.933-.027-.125-.307-.189-.316zm-33.045.762c-2.419-.613-.892.536.482.402.059-.012-.421-.387-.482-.402m55.713-.625c3.298-.067.925.629 7.785-.768-2.874.774-.144.342-.7.587-.447.193-2.153.255-1.15.436-1.317-.17-6.939.497-7.189.468h.007c-.152-.013.196-.702 1.247-.723m-37.524-.44c-.881-1.158-1.106.674-2.765-.305-2.073 1.39 5.922.056 6.982 1.18-8.816-.087 5.892 1.085-.364-.572 5.11.593 1.648-.21 2.418-.424.822-.225 3.718.014 3.546-.383h-.004q-2.643.04-5.27.075c1.773.888-1.83.635-3.083-.12q-.73.271-1.46.549m9.983.806c-.177-.018-3.997.137-3.738.312.515.109 5.948-.087 3.738-.312m16.993-.277c-1.398-.006-3.562-.155-4.301.138 1.393-.003 3.555.139 4.301-.138m-70.329-2.122c-1.775.235 3.653.745 2.094.2-.076-.027-2.007-.211-2.094-.2m39.418 1.735c-1.775-.384-.893.782.4.49.075-.016-.318-.472-.4-.49m44.116-.096c.107-.22 4.887-.622 5.738-.723-.473.268-5.864.98-5.738.723m-10.791-.308c-2.832-.83-6.549.052-6.959.042-.411-.023.209-.38.115-.39-.217-.024-4.579-.014-4.786.014-.149.021.673.545-.214.713 1.724-.313 9.731-.1 10.148-.142.32-.037-2.14-.578 1.691-.237zm-7.997-.072c1.104.215-1.952.239-2.695.16-1.654-.183 2.552-.188 2.695-.16m-7.348-.214c-.352-.05-3.481-.103-3.727.158 1.498.335 4.522-.042 3.727-.158m-34.128-.676c-.785-.007-2.958-.41-3.083-.135.794.018 2.955.408 3.083.135m76.518-2.525c-1.357-.006 1.761-.491 2.681-.518.056.143-2.566.519-2.681.518m-60.784 1.465c-.312-.058-4.551-.12-7.78-.181-1.631-.031-3.033-.063-3.482-.046.445.098 1.854.23 3.49.333 3.193.195 7.355.29 7.634.236.125-.024.199-.329.138-.342m21.046.247c.883-.304 1.5.085 1.615.09 1.123.063 3.448.032 2.957.319-1.994-.153-6.33.203-4.572-.409m-37.447-1.107c-3.215-.092 2.96.81 2.144.316-.048-.028-1.812-.305-2.144-.316m17.469.781c.689-.261 10.386.186 11.972.191-1.371.49-2.527.091-4.402.086-.505 0-.357.22-.411.22-.876-.004-.235-.247-.776-.26-.348-.002-7.381.166-6.383-.237m20.48.114c.534-.18 6.723-.124 6.981-.066 1.885.372-6.507.13-6.981.066m-21.385-.632c.995-.605 5.805-.04 2.545.183-.31.02-1.647-.295-2.545-.183m-16.219-.918c-.152-.03-3.506-.462-3.571-.238.488.14 5.37.614 3.571.238m1.728-.628c-.081 0 .7.496-.858.317-.13-.016-.373-.525-2.34-.517-.4.001-1.028.277-.982.302 2.07.967 8.197-.043 4.18-.102m35.968 1.873c-.343-.167.427-.623 1.168-.367.317.11-.244.378-1.168.367m-48.4-2.424c1.995-.199-4.237-.902-4.569-.833.199.277 4.372.854 4.569.833m90.588-1.49h-.005c1.708-.177.665.226.745.222 3.655-.134 2.667-.573 3.233-.723 1.219-.318 1.051.423 3.112-.146-3.407.89-.297.295-.189.543.426.994-4.576.098-6.255.566-.235.061 1.524.144.924.319-1.955.538-8.102-.085-1.565-.782M155.506 9.98c.772-.261 6.849.177 5.256.347-.262.02-6.401.03-5.256-.347m-5.563 78.301c-1.56.55 2.072 1.176 2.73.738.327-.214-2.047-.976-2.73-.738m24.598 1.427c1.71-.21 3.367-2.585 1.272-2.108-.223.051-1.485 1.805-1.272 2.108M57.817 76.302c1.108 1.062 1.318-.33.389-.55-.333-.076-.427.516-.39.55m71.018 12.759c.184.057 2.301-.001 2.225-.347-.777-.218-3.409-.035-2.225.347m-71.48-12.668c.844-.053-.313-1.381-1.573-.646.563.04 1.485.65 1.573.647M128.64 8.127c-.784.269-2.934.091-4.345.04l-.299-.008c-.03-.088.084-.142.294-.17.909-.12 3.549.162 4.35.138m38.458 81.071c1.644-.648-1.962-.934-1.6-.204.048.039 1.537.232 1.6.204m-129.827-71.5c-1.03.56 2.6.543 1.488.01-.05-.02-1.425-.04-1.488-.01m-1.497 16.589c-.243-2.137.377-7.124 2.484-10.545 1.046-1.798 1.996-2.91 2.999-3.923a17 17 0 0 1 2.22-1.875c1.443-.988 1.778-1.054 1.991-1.126.099-.022.137-.006.146.036.007.043-.018.11-.163.252-.089.093-.315.152-1.762 1.144-1.273.956-3.856 2.772-6.03 7.293-2.084 4.391-1.767 8.653-1.885 8.744M200.031 5.67c-.504-.328 2.319-.632 2.729-.614.159.01-2.074 1.042-2.729.614M64.441 78.79c.583.155 2.645 1.302 3.314 1.146-1.335-.5-3.27-2.022-3.314-1.147m94.922 10.734c1.534.849 4.065.656 3.388-.488-2.796.187.397 1.045-3.388.488M52.248 76.191c.653.196 1.303-.725 1.24-.788-.618-.601-1.843.257-1.24.788m56.579 12.533c.025.476 2.582.415 2.253.09-.104-.106-2.272-.471-2.253-.09M98.669 5.235c-1.07-.4 2.232-.305 3.188.124.461.515-3.05-.076-3.188-.124M31.717 71.943c-.207.612 3.949 1.111 2.42.256-.373-.208-2.33-.45-2.42-.256m9.772-56.1c-.975.503.857.524 2.244.384 1.474-.163 1.896-.31 1.317-.653-.04-.026-.616-.022-1.535.055-.877.069-1.947.171-2.026.213m-2.79 29.07c.2.245-.068.662-.553.73-.53.007-1.12-.074-2.717-2.314-.225-.318.373.13.887.45.508.316.958.548.847.357-.047-.074-.386-.436-1.18-1.35-.745-.928-2.053-2.215-3.938-5.675-.921-1.76-2.048-4.357-2.535-7.793-.543-3.562-.049-7.746 1.133-10.872 1.174-3.155 2.48-4.945 3.488-6.259.928-1.165 1.45-1.663 1.613-1.847 1.32-1.368-.7-.248.651-1.603.95-1.041 4.887-3.606 7.417-4.39 2.506-.892 4.463-1.195 5.524-1.427 2.132-.446 2.84-.613 3.492-.83.566-.2.707-.348.846-.365.791-.1 2.107.103 3.593-.006 7.434-.588 16.918-.36 21.684.96-4.265-.703-8.438-.543-13.016-.456 1.336-.997-6.897.81-2.072-.375-1.031.137-5.307.172-10.9.968-1.916.304-3.824.587-6.842 1.558-1.634.58-3.338 1.109-6.365 3.064a23 23 0 0 0-5.382 4.971c-2.174 2.703-4.219 7.027-4.608 11.496-.535 9.398 2.83 13.105 3.965 15.18 1.452 2.118 2.326 3.002 3 3.756 1.294 1.383 1.757 1.817 1.962 2.068zm142.551 45.07c-.968.876 4.233.387 4.608-.577-.677-.096-4.479.476-4.608.577M155.741 93.2c-.539.15-1.013 1.77-3.912.99h-.007c-.849-.23.109-.627-.048-.765-.06-.054-2.69-.834-.515-.975 3.311-.23.332 1.188 2.1 1.183.224.003 3.52-.93 3.319-1.118-.021-.022-1.009.184-1.177.109-.629-.284-.338-.79-.427-.811-.274-.045-5.546.863-6.333.107-.23-.21 8.395-.872 8.703-.784.212.073.166 1.46.388 1.59.121.069 3.515-.561 3.954-.455.129.032.228.068.301.098-.526-.407 2.525-.501 2.45-.016-.042.194-2.146.172-2.224.14-.034-.012-.063-.03-.091-.043.479.519-6.75.719-5.17 1.445-2.106.477.267-1.146-1.311-.695m-10.059.912.602-.433c-3.407.337-7.387-.39-11.405-.44-1.021-.014.153.889-1.187.627-1.073-.21-2.262-1.053-1.676-1.226.144-.042 2.33.527 3.419.486 3.214-.123 2.398-.896 2.587-.914.207-.02 2.218.535 3.31.52 2.462-.037 3.721-.412 6.625-.035q.559.064 1.194.16c-.577.122-.939.278-1.192.441-.702.504-.47 1.07-2.277.814M18.386 19.249c.063-.245 1.41-.728 2.557-1.015 1.194-.31 2.332-.504 2.876-.66 0 .412-3.41.852-5.433 1.675m292.359-8.065c-.783-.01 1.068.934 4.008 3.079 2.801 1.742 7.562 7.667 4.703 3.81-.566-.786-3.014-3.215-4.777-4.437a30.5 30.5 0 0 0-3.934-2.452M297.739 63.59c.377-.078-.151.363-.283.464-.162.119.009-.014-.089-.247-.029-.076-.178-.025-.112-.041.034 0 .431-.161.484-.176M99.229 91.524c-.151.011-2.289-.39-2.36-.44-1.341-.954 5.669.243 2.36.44M308.331 81.36c2.885-1.379-.418-.189-2.638.45-2.29.683-4.061 1.212-2.277 1.045.09-.01 1.096-.26 2.256-.606 1.143-.335 2.519-.823 2.659-.89m-14.834 3.881c.677-.135 3.868-.52 3.91-.759-.037-.337-3.654.115-3.91.76m-242.121-6.43c.14.859-2.818-.37-3.957-.483-.134-.855 2.924.37 3.957.482m13.496 5.05c-3.267-1.333-3.784-1.559-4.525-1.932-.63-.325-.863-.548-.712-.639.15-.088.663-.049 1.456.23.855.3 1.767.77 4.773 2.342-.18.51-.12.352-.992 0m-10.93-3.986c.523-.424 1.808.028 2.572.267-.187.327-1.877-.214-2.572-.267M301.644 6.733c.652-.105 2.251.392 3.691 1.029 1.428.625 2.709 1.406 2.08 1.276-.5-.241-6.401-2.223-5.771-2.305M97.813 92.12c.323.893-4.594-.033-4.985-.29-1.456-.936 4.597.458 4.985.29m-66.88-16.693c-.978.4-3.473-.495-5.408-1.022 1.014-.246 4.083.724 5.409 1.022m10.55 2.645c-.085.008-2.026-.427-2.115-.473-1.509-.9 3.973.32 2.115.473m151.973-74.24c.063-.021 1.519-.25 1.57-.246 1.314.082-3.054.757-1.57.246"/></svg>