<svg xmlns="http://www.w3.org/2000/svg" width="104" height="53" fill="none" viewBox="0 0 104 53"><path fill="#fff" d="M.388 44.379a.86.86 0 0 0-.246 1.193l4.267 6.474a.862.862 0 1 0 1.439-.948l-3.793-5.755 5.755-3.792a.861.861 0 1 0-.948-1.439zm.572.74.194-.84-.01-.003-.011-.002zm.588.136.195-.84zm1.52.447-.274.817zm.622.18-.204.837zm.313.076.204-.837zm.94.216-.172.844zm.313.064.172-.844zm.314.064-.172.844zm.64.086.06-.86zm.657.045.058-.86zm.67-.044-.163-.846zm.344-.067.164.846zm.343-.066-.164-.846zm.62.21.608-.61zm.552.553-.609.61zm.627.133-.327-.797zm.7-.287.326.797zm.66-.022.313-.803zm.618.242-.313.802zm.604.332-.501.7zm.59.422.501-.7zm.64.09.284.813zm.69-.243-.285-.813zm.648.013-.348.788zm.303.134-.349.788zm.302.133.348-.788zm.616.255-.31.803zm.313.12.31-.803zm.313.122.31-.804zm.645.096-.063-.86zm.662-.049.064.86zm.656-.029-.012-.861zm.65-.009.012.861zm.63.145.378-.774zm.61.298-.378.774zm.631.186.097-.856zm.65.074-.096.856zm.654.014.06.86zm.328-.023-.06-.86zm.329-.023.06.86zm.66-.124-.25-.824zm.332-.1.25.823zm.331-.102.251.825zm.652-.052.13-.851zm.64.098-.13.852zm1.277.31-.226.831zm.644.046.107.855zm.651-.08-.106-.856zm.64.058-.26.821zm.628.198.26-.822zm.636.195-.244.826zm.323.095-.245.826zm.322.095.244-.826zm.652-.026.298.808zm.329-.122-.299-.808zm.33-.121-.3-.809zm.646-.055.178-.843zm.636.134-.178.843zm.64.162-.243.826zm.647.19.244-.826zm.649.084-.03-.86zm.651-.023.03.86zm.647-.167-.375-.776zm.643-.31-.375-.776zm.644-.132-.063.859zm.322.023.063-.859zm.322.024-.062.859zm.645-.058.211.835zm.322-.082.212.835zm.323-.081-.211-.835zm.646-.001-.208.836zm.647.16.208-.836zm.642.003-.205-.837zm.317-.077.205.837zm.318-.078-.205-.837zm.652.065-.337.793zm.669.284.336-.793zm.65.034.277.816zm.63-.214.278.815zm.636-.133-.068-.859zm.64-.051.069.859zm.649-.012-.036.86zm.329.014.036-.861zm.328.014-.035.86zm.638-.122.345.79zm.308-.135-.346-.79zm.308-.135.346.79zm.645-.042.23-.83zm.674.186.23-.831zm.645-.048-.356-.784zm.309-.14-.357-.784zm.308-.14.356.785zm.621-.217-.207-.837zm.626-.155.207.836zm.613-.217.365.78zm.3-.14-.363-.781zm.301-.14.364.78zm.649-.052.213-.834zm.348.09.214-.835zm.349.089-.214.834zm.644-.062-.392-.767zm.591-.302.392.768zm.6-.266.307.804zm.303-.116.307.805zm.303-.116.307.805zm.663-.017.228-.83zm.722.198-.228.83zm.65-.062.419.752zm.578-.323-.42-.752zm.62-.19-.072-.858zm.332-.028.074.858zm.332-.028.073.858zm.602-.242.533.677zm.27-.212.534.677zm.272-.213-.533-.678zm.573-.319-.282-.814zm.303-.105.283.814zm.304-.106.282.814zm.647-.113.02.862zm.344-.008.02.862zm.344-.007-.02-.862zm.616-.2.498.703zm.271-.193.498.703zm.271-.192-.498-.703zm.547-.368.464.726zm.55-.351.465.726zm.645-.148.065-.86zm.37.028.064-.86zm.369.028-.065.859zm.611-.214.608.61zm.486-.483-.608-.611zm.488-.471-.588-.63zm.49-.459.59.63zm.626-.207-.05.86zm.38.022-.05.86zm.38.022.051-.86zm.603-.242-.659-.554zm.445-.528.659.555zm.554-.343-.2-.838zm.332-.079-.2-.838zm.332-.08.2.839zm.61-.247-.445-.737zm.279-.168.445.737zm.824-.525-.498-.703zm.532-.376.497.703zm.448-.492-.739-.444zm.364-.605-.738-.444zm.418-.525-.59-.628zm.472-.444.59.628zm.558-.335-.286-.813zm.321-.113-.286-.813zm.322-.113.285.813zm.576-.314-.535-.676zm.509-.403.534.675zm.425-.498-.747-.43zm.34-.591-.746-.43zm.421-.499-.541-.67zm.501-.405.542.67zm.456-.455-.67-.543zm.41-.505.669.542zm.437-.472.59.627zm.233-.22-.59-.627zm.233-.22-.59-.627zm.523-.389-.435-.743zm.58-.339.435.744zm.525-.393-.593-.625zm.471-.446.593.625zm.438-.476.673.538zm.403-.505-.672-.538zm.48-.444-.488-.71zm.28-.192-.49-.71zm.278-.192.488.71zm.421-.492-.777-.37zm.144-.3.777.371zm.143-.3-.778-.37zm.33-.564-.703-.498zm.374-.528.703.498zm.349-.55.75.425zm.322-.57-.75-.424zm.433-.487-.512-.692zm.544-.402.513.692zm.312-.566.856.095zm.04-.364-.856-.095zm.04-.364.857.094zm.21-.64-.735-.45zm.168-.275.735.45zm.17-.276-.735-.45zm.448-.477.504.699zm.28-.202.504.698zm.28-.202-.503-.7zm.525-.435.594.624zm.245-.233.593.625zm.244-.232-.593-.624zm.337-.554-.828-.239zm.186-.645-.828-.238zm.206-.628.807.3zm.226-.61-.808-.3zm.366-.538.583.634zm.253-.233-.582-.635zm.254-.232.582.634zm.385-.53-.787-.35zm.133-.297-.788-.35zm.132-.298.787.35zm.114-.666.86-.043zm-.019-.369-.86.043zm-.018-.369-.86.043zm.197-.624-.658-.556zm.431-.51.658.556zm.31-.568-.826-.248zm.093-.313.826.248zm.094-.312-.825-.248zm.248-.595-.757-.413zm.154-.282.756.412zM98.93 11l-.756-.413zm.716-1.804.614.605zm.245-.248.613.604zm.244-.248-.614-.605zm.364-.546-.8-.321zm.239-.596.8.32zm.426-.874-.76-.405zm.408-.888-.82-.265zm.101-.31.819.264zm.1-.312-.819-.265zm.09-.656.861-.028zm-.023-.69-.861.028zm.065-.66-.837-.202zm.152-.628-.837-.203zm.188-.62.809.295zm.111-.306-.809-.295zm.112-.305.809.296zm.238-.34.233.829zm.126-.036.09-.857-.164-.017-.159.044zm.218.023-.089.856.665.07.232-.628zm.843.204a.862.862 0 1 0-1.616-.597l.808.299zM.862 45.098l-.174.844.098.02.174-.844.173-.844-.098-.02zm.098.02-.195.84.589.136.194-.84.195-.838-.589-.137zm.588.137-.194.839c.384.09.652.162.82.218l.273-.817.273-.817a11 11 0 0 0-.977-.262zm.9.24-.274.817.31.104.273-.818.273-.817-.31-.103zm.31.103-.274.818.31.103.273-.817.273-.817-.31-.104zm.31.104-.274.817q.345.115.692.2l.204-.837.204-.837a7 7 0 0 1-.554-.16zm.622.18-.204.837.314.076.203-.837.204-.837-.313-.076zm.313.076-.203.837.313.076.204-.837.204-.837-.314-.076zm.314.076-.204.837q.33.081.658.147l.172-.844.172-.844q-.297-.06-.594-.133zm.626.14-.172.844.314.064.171-.844.172-.844-.313-.064zm.313.064-.171.844.313.064.172-.844.171-.845-.313-.063zm.314.064-.172.844q.37.075.754.101l.059-.86.059-.859a4 4 0 0 1-.529-.07zm.64.086-.058.86.328.022.059-.86.059-.86-.328-.022zm.329.022-.06.86.329.022.059-.86.058-.859-.327-.022zm.328.023-.06.86q.448.029.895-.059l-.164-.845-.164-.846q-.24.045-.449.03zm.67-.044.165.845.343-.066-.164-.846-.164-.846-.343.067zm.344-.067.164.846.343-.067-.164-.845-.164-.846-.343.066zm.343-.066.164.845a.257.257 0 0 1-.114-.01c-.045-.015-.057-.033-.04-.016l.61-.61.608-.608c-.358-.359-.846-.553-1.392-.447zm.62.21-.61.609.276.276.61-.609.609-.609-.277-.276zm.276.276-.61.61.277.276.61-.61.608-.608-.276-.277zm.276.277-.609.61c.184.183.425.34.725.404.303.064.59.018.837-.084l-.326-.797-.327-.797a.3.3 0 0 1 .174-.007c.092.02.136.062.135.062zm.627.133.326.797.35-.143-.326-.797-.327-.797-.35.143zm.35-.143.326.797.35-.143-.326-.798-.327-.797-.35.144zm.35-.144.326.797c.036-.014.049-.013.043-.013a.1.1 0 0 1-.023-.004l.313-.802.314-.803a1.72 1.72 0 0 0-1.3.028zm.66-.022-.314.802.31.121.313-.802.313-.803-.31-.12zm.309.12-.314.803.31.121.313-.802.314-.803-.31-.12zm.31.122-.314.802q.2.077.416.23l.501-.7.502-.7a3.6 3.6 0 0 0-.792-.435zm.603.332-.501.7.294.21.502-.7.501-.7-.294-.21zm.295.21-.502.7.295.212.501-.7.502-.7-.295-.212zm.294.212-.501.7c.427.306.934.375 1.426.203l-.285-.814-.284-.813c-.003.001.025-.008.071-.002q.033.005.055.015l.02.01zm.64.09.285.813.346-.122-.285-.813-.285-.813-.345.121zm.346-.122.285.813.345-.12-.285-.814-.285-.813-.345.121zm.345-.12.285.812.03-.008h.003l-.018-.004.348-.788.348-.788a1.71 1.71 0 0 0-1.28-.038zm.648.012-.348.788.302.133.348-.787.349-.788-.303-.134zm.303.134-.349.788.303.133.348-.788.348-.788-.302-.133zm.302.133-.348.788q.321.143.653.27l.31-.803.31-.804a13 13 0 0 1-.577-.239zm.616.255-.31.803.313.121.31-.803.31-.804-.313-.121zm.313.12-.31.804.313.121.31-.803.31-.804-.313-.121zm.313.122-.31.803a2.3 2.3 0 0 0 1.018.152l-.063-.859-.063-.86a.6.6 0 0 1-.271-.04zm.645.096.063.86.331-.025-.063-.86-.063-.858-.331.024zm.331-.024.063.859.332-.024-.064-.86-.063-.859-.331.024zm.331-.025.064.86q.306-.023.605-.027l-.012-.862-.013-.861q-.351.005-.707.031zm.656-.029.013.862.325-.005-.013-.861-.012-.862-.325.005zm.325-.004.013.861.324-.005-.012-.861-.012-.861-.325.004zm.325-.005.012.861a.5.5 0 0 1 .24.058l.378-.774.378-.774a2.2 2.2 0 0 0-1.02-.232zm.63.145-.378.774.305.149.378-.774.379-.774-.305-.15zm.305.149-.378.774.305.149.379-.774.378-.774-.305-.15zm.306.149-.378.774q.433.213.911.268l.097-.856.097-.856a1 1 0 0 1-.349-.104zm.63.186-.097.856.325.037.097-.856.098-.856-.326-.037zm.325.037-.097.856.326.037.097-.856.097-.856-.325-.037zm.326.037-.098.856q.405.045.811.017l-.06-.86-.06-.859a2.7 2.7 0 0 1-.496-.01zm.653.014.06.86.328-.024-.06-.86-.06-.858-.328.022zm.328-.023.06.86.329-.024-.06-.86-.06-.859-.329.023zm.329-.023.06.86q.43-.031.85-.16l-.25-.824-.25-.824a2 2 0 0 1-.47.088zm.66-.124.25.824.332-.1-.25-.825-.251-.824-.332.1zm.332-.1.25.823.332-.1-.25-.825-.251-.824-.332.101zm.331-.102.251.825a.6.6 0 0 1 .271-.025l.13-.852.13-.851a2.3 2.3 0 0 0-1.032.08zm.652-.052-.13.852.32.049.13-.852.13-.851-.32-.05zm.32.05-.13.851.32.049.13-.852.13-.851-.32-.05zm.32.048-.13.852q.27.041.543.115l.227-.83.226-.832a7 7 0 0 0-.735-.156zm.64.136-.227.831.319.087.226-.83.227-.832-.319-.087zm.318.087-.226.831.319.087.226-.831.227-.831-.319-.087zm.32.087-.227.831q.482.131.977.07L28 49.22l-.106-.855a.8.8 0 0 1-.311-.022zm.643.046.107.855.325-.04-.106-.855-.107-.855-.325.04zm.326-.04.106.855.326-.04-.107-.856-.106-.855-.326.04zm.325-.04.107.854a.6.6 0 0 1 .273.025l.26-.821.26-.822a2.35 2.35 0 0 0-1.006-.092zm.64.058-.26.821.315.1.259-.822.26-.822-.315-.099zm.314.099-.26.822.315.099.259-.822.26-.822-.315-.099zm.314.1-.26.82q.322.102.652.2l.244-.826.245-.827q-.315-.093-.622-.19zm.636.194-.244.826.322.095.245-.826.244-.826-.322-.096zm.323.095-.245.826.323.095.244-.826.244-.826-.322-.095zm.322.095-.244.826c.401.12.809.099 1.194-.044l-.298-.808-.299-.808c-.053.02-.08.017-.108.008zm.652-.026.298.808.33-.122-.299-.808-.299-.808-.329.122zm.329-.122.299.808.329-.121-.299-.808-.298-.809-.33.122zm.33-.121.298.808c.08-.03.13-.029.17-.02l.178-.843.178-.843a2 2 0 0 0-1.123.09zm.646-.055-.177.843.317.067.178-.843.178-.843-.318-.067zm.318.067-.178.843.318.067.178-.843.178-.843-.318-.067zm.318.067-.178.843q.284.06.575.145l.244-.826.243-.826a9 9 0 0 0-.706-.18zm.64.162-.243.826.324.096.243-.827.244-.826-.324-.095zm.324.095-.243.827.323.095.243-.826.244-.827-.323-.095zm.323.096-.243.826q.453.135.923.118l-.031-.86-.03-.862a1.2 1.2 0 0 1-.375-.049zm.649.083.03.861.326-.012-.03-.86-.031-.861-.326.011zm.326-.012.03.861.326-.011-.03-.861-.032-.861-.325.011zm.325-.011.03.86a2.5 2.5 0 0 0 .992-.251l-.375-.776-.375-.776a.75.75 0 0 1-.303.082zm.647-.167.375.776.321-.156-.374-.775-.375-.776-.322.155zm.322-.155.374.775.322-.155-.375-.776-.375-.775-.321.155zm.321-.156.375.776a.4.4 0 0 1 .206-.048l.063-.86.063-.859a2.1 2.1 0 0 0-1.082.216zm.644-.131-.063.859.322.023.063-.859.063-.859-.322-.024zm.322.023-.063.86.323.023.062-.86.063-.858-.322-.024zm.322.024-.062.859q.466.033.918-.082l-.21-.835-.212-.835q-.191.047-.37.034zm.645-.058.211.835.323-.082-.212-.835-.21-.835-.323.082zm.322-.082.212.835.322-.081-.211-.835-.211-.835-.323.081zm.323-.081.211.835a.45.45 0 0 1 .227 0l.208-.836.208-.837a2.2 2.2 0 0 0-1.065.003zm.646-.001-.208.836.324.08.208-.836.207-.836-.323-.08zm.324.08-.208.836.324.08.207-.836.208-.836-.324-.08zm.323.08-.207.837c.348.086.703.089 1.053.003l-.204-.837-.205-.837a.46.46 0 0 1-.229-.002zm.642.003.204.837.318-.077-.205-.837-.204-.837-.318.077zm.317-.077.205.837.317-.078-.204-.837-.205-.837-.317.078zm.318-.078.204.837c.011-.003.04-.01.111.02l.337-.792.337-.793a1.88 1.88 0 0 0-1.194-.109zm.652.065-.337.793.334.142.337-.793.337-.793-.334-.142zm.334.142-.337.793.335.142.337-.793.336-.793-.334-.142zm.335.142-.337.793c.399.17.834.203 1.264.057l-.278-.816-.277-.815h-.001.004c.003 0-.009 0-.039-.012zm.65.034.277.816.316-.107-.278-.816-.277-.816-.316.108zm.315-.107.278.816.315-.108-.278-.815-.277-.816-.316.108zm.316-.107.277.815q.218-.074.426-.09l-.068-.858-.068-.859q-.432.035-.845.176zm.635-.133.069.859.32-.026-.069-.859-.068-.858-.32.025zm.32-.026.069.86.32-.026-.069-.86-.068-.858-.32.026zm.32-.025.069.859q.267-.022.544-.01l.036-.86.036-.862a6 6 0 0 0-.753.014zm.649-.012-.036.86.329.014.036-.86.036-.861-.33-.014zm.329.014-.036.86.329.014.035-.86.036-.861-.328-.014zm.328.014-.035.86c.353.015.696-.051 1.018-.193l-.345-.789-.346-.789a.56.56 0 0 1-.256.05zm.638-.122.345.79.309-.136-.346-.789-.346-.79-.308.136zm.308-.135.346.79.308-.136-.346-.789-.345-.79-.309.136zm.308-.135.346.79a.1.1 0 0 1 .026-.008c.004 0 .017-.001.044.006l.23-.83.228-.83a1.8 1.8 0 0 0-1.22.083zm.645-.042-.229.83.337.093.23-.83.228-.83-.337-.094zm.337.093-.229.83.337.093.23-.83.228-.831-.337-.093zm.337.093-.229.83c.413.114.835.086 1.23-.093l-.356-.785-.356-.784q-.02.009-.022.007a.1.1 0 0 1-.038-.006zm.645-.048.357.785.308-.14-.356-.785-.357-.784-.308.14zm.309-.14.356.785.308-.14-.356-.785-.357-.784-.308.14zm.308-.14.356.785q.24-.11.472-.166l-.207-.836-.207-.837q-.394.098-.77.27zm.621-.217.207.836.313-.077-.207-.837-.207-.836-.313.077zm.313-.078.207.837.313-.078-.207-.836-.207-.836-.313.077zm.313-.077.207.836q.396-.097.77-.273l-.364-.78-.364-.781q-.225.105-.456.162zm.613-.217.365.78.3-.14-.364-.78-.364-.781-.3.14zm.3-.14.365.78.3-.14-.364-.78-.364-.781-.3.14zm.301-.14.364.78.016-.005a.2.2 0 0 1 .056.008l.213-.835.213-.834a1.8 1.8 0 0 0-1.226.105zm.649-.052-.214.835.349.09.213-.835.214-.835-.349-.09zm.348.09-.213.834.348.09.214-.835.213-.835-.348-.089zm.349.089-.214.834c.417.107.85.075 1.25-.129l-.392-.767-.392-.767h-.002.003c.002 0-.01.002-.04-.006zm.644-.062.391.767.296-.15-.391-.768-.392-.767-.296.15zm.296-.15.391.767.296-.151-.392-.768-.391-.767-.296.15zm.295-.152.392.768q.255-.13.515-.23l-.308-.804-.307-.805q-.348.133-.683.304zm.6-.266.307.804.303-.115-.307-.805-.308-.805-.303.116zm.303-.116.307.805.303-.116-.307-.805-.308-.805-.303.116zm.303-.116.307.805c.006-.002.037-.016.129.009l.227-.83.228-.832c-.389-.106-.8-.109-1.199.043zm.663-.017-.227.831.36.099.228-.831.228-.83-.36-.1zm.361.099-.228.83.36.1.229-.831.227-.83-.36-.1zm.36.099-.227.83c.427.118.881.092 1.297-.14l-.42-.752-.419-.753a.1.1 0 0 1 .03-.009q.007 0 0 0l-.032-.007zm.65-.062.42.752.29-.161-.42-.753-.42-.752-.289.161zm.29-.162.42.753.288-.162-.419-.752-.42-.752-.289.16zm.289-.161.42.752a.7.7 0 0 1 .274-.083l-.073-.859-.074-.858a2.4 2.4 0 0 0-.966.296zm.62-.19.074.859.332-.029-.074-.858-.073-.858-.331.028zm.332-.028.074.858.331-.028-.073-.858-.074-.859-.331.029zm.332-.028.073.858a1.97 1.97 0 0 0 1.062-.423l-.533-.677-.533-.677a.25.25 0 0 1-.143.06zm.602-.242.533.677.27-.212-.532-.677-.533-.678-.27.213zm.27-.212.534.677.27-.213-.532-.677-.533-.678-.27.213zm.272-.213.532.677a1.1 1.1 0 0 1 .324-.182l-.283-.814-.282-.814a2.8 2.8 0 0 0-.824.455zm.573-.319.283.814.303-.105-.282-.814-.283-.814-.303.105zm.303-.105.283.814.303-.106-.282-.814-.283-.813-.303.105zm.304-.106.282.814q.166-.06.384-.066l-.019-.86-.02-.862a3 3 0 0 0-.91.16zm.647-.113.02.862.344-.008-.02-.862-.02-.86-.344.007zm.344-.008.02.862.344-.008-.02-.861-.02-.862-.343.008zm.344-.007.02.86a1.94 1.94 0 0 0 1.094-.357l-.498-.703-.498-.703a.22.22 0 0 1-.137.041zm.616-.2.498.703.271-.193-.498-.703-.498-.703-.271.193zm.271-.193.498.703.271-.192-.498-.703-.498-.703-.27.193zm.271-.192.498.703q.254-.18.513-.345l-.464-.726-.464-.726q-.293.187-.58.391zm.547-.368.464.726.275-.175-.463-.727-.464-.726-.276.176zm.275-.176.464.727.276-.176-.464-.726-.464-.727-.275.176zm.276-.175.463.726c.007-.004.03-.022.116-.015l.065-.86.065-.858c-.406-.031-.811.05-1.173.28zm.644-.148-.065.859.37.028.064-.86.066-.858-.37-.028zm.37.028-.066.859.37.028.065-.86.065-.858-.37-.029zm.369.028-.065.859c.472.035.93-.11 1.284-.462l-.608-.611-.607-.61.016-.014.033-.015c.025-.009.033-.005.012-.007zm.611-.214.608.61.243-.241-.608-.61-.607-.611-.243.241zm.243-.242.608.61.243-.24-.608-.611-.608-.611-.242.242zm.243-.241.608.61q.233-.231.469-.452l-.589-.63-.588-.629q-.255.24-.508.49zm.488-.471.589.629.245-.23-.588-.629-.589-.629-.245.23zm.246-.23.588.63.245-.23-.588-.629-.588-.63-.246.23zm.245-.229.588.63-.016.01-.022.011-.006.002h.031l.05-.86.05-.86a1.67 1.67 0 0 0-1.263.438zm.626-.207-.05.86.38.022.05-.86.05-.86-.38-.022zm.38.022-.05.86.38.022.05-.86.05-.86-.38-.022zm.38.022-.05.86c.492.03.968-.14 1.311-.547l-.659-.554-.659-.555a.224.224 0 0 1 .077-.052c.036-.015.052-.01.03-.012zm.602-.242.66.555.222-.264-.66-.555-.659-.554-.222.264zm.223-.264.659.555.222-.264-.66-.555-.658-.554-.222.264zm.222-.264.659.555a.16.16 0 0 1 .095-.06l-.2-.838-.2-.838a1.88 1.88 0 0 0-1.013.627zm.554-.343.2.838.332-.079-.2-.838-.2-.838-.332.08zm.332-.079.2.838.331-.08-.2-.837-.2-.838-.331.079zm.332-.08.2.839q.456-.109.856-.348l-.446-.738-.445-.737a1.3 1.3 0 0 1-.365.147zm.61-.247.445.738.28-.169-.446-.737-.445-.737-.28.168zm.279-.168.445.737.28-.168-.446-.738-.446-.737-.278.169zm.279-.169.445.738q.306-.184.597-.39l-.497-.704-.498-.703q-.24.17-.493.322zm.545-.356.497.703.266-.188-.497-.703-.498-.704-.266.189zm.266-.188.497.703.266-.188-.497-.703-.498-.704-.266.188zm.266-.188.497.703c.283-.2.511-.455.69-.75l-.74-.444-.737-.445a.74.74 0 0 1-.208.232zm.448-.492.738.445.182-.303-.738-.444-.738-.444-.183.302zm.182-.302.738.444.182-.303-.738-.444-.738-.444-.182.303zm.182-.303.738.444q.128-.209.27-.341l-.59-.628-.59-.628q-.33.312-.566.709zm.418-.525.59.627.236-.221-.59-.628-.59-.628-.236.222zm.236-.222.59.628.236-.222-.59-.628-.59-.628-.236.222zm.236-.222.59.628a.7.7 0 0 1 .254-.15l-.286-.813-.286-.813a2.4 2.4 0 0 0-.862.52zm.558-.335.286.813.321-.113-.286-.813-.286-.813-.321.113zm.321-.113.286.813.322-.113-.286-.813-.286-.813-.322.113zm.322-.113.285.813q.451-.158.825-.452l-.534-.675-.535-.676a1.1 1.1 0 0 1-.327.177zm.576-.314.534.675.255-.201-.535-.676-.534-.675-.255.2zm.254-.202.535.676.254-.201-.534-.676-.535-.676-.254.202zm.255-.201.534.675a2.6 2.6 0 0 0 .637-.743l-.746-.43-.747-.43a.9.9 0 0 1-.213.252zm.425-.498.746.43.17-.296-.746-.43-.747-.429-.17.296zm.17-.295.747.43.17-.297-.747-.43-.746-.429-.17.296zm.17-.296.747.43a.9.9 0 0 1 .216-.259l-.542-.67-.541-.67a2.6 2.6 0 0 0-.627.74zm.421-.499.542.67.25-.202-.541-.67-.542-.67-.25.202zm.25-.202.542.67.25-.203-.54-.67-.542-.67-.25.203zm.251-.203.542.67q.322-.26.583-.583l-.67-.542-.669-.543a2.2 2.2 0 0 1-.327.328zm.456-.455.669.542.205-.252-.67-.543-.669-.542-.205.252zm.205-.253.669.543.205-.253-.67-.542-.669-.543-.205.253zm.204-.252.67.542q.168-.209.359-.387l-.59-.627-.591-.628a6 6 0 0 0-.517.557zm.438-.472.59.627.234-.22-.59-.627-.591-.627-.233.22zm.233-.22.59.627.234-.22-.59-.626-.591-.628-.233.22zm.233-.22.59.628q.16-.15.368-.273l-.435-.744-.435-.743a3.8 3.8 0 0 0-.678.505zm.523-.389.435.744.29-.17-.435-.743-.435-.744-.29.17zm.29-.169.435.744.29-.17-.435-.744-.435-.743-.29.17zm.29-.17.435.744q.372-.217.683-.511l-.593-.626-.593-.625q-.16.153-.367.275zm.525-.393.593.626.236-.224-.593-.625-.593-.625-.236.223zm.236-.223.593.625.235-.223-.593-.625-.593-.625-.235.223zm.235-.223.593.625q.279-.264.518-.563l-.673-.538-.673-.538q-.165.206-.358.389zm.438-.476.673.538.201-.253-.672-.538-.673-.538-.202.253zm.201-.253.673.538.202-.252-.673-.538-.672-.538-.202.252zm.202-.252.673.538q.119-.15.296-.273l-.488-.71-.489-.709a3 3 0 0 0-.665.616zm.48-.444.49.71.278-.193-.489-.71-.488-.709-.279.192zm.28-.192.488.71.278-.192-.488-.71-.489-.71-.278.192zm.278-.192.488.71c.308-.212.55-.492.71-.83l-.777-.372-.777-.37a.4.4 0 0 1-.133.153zm.421-.492.778.371.143-.3-.778-.37-.777-.372-.143.3zm.144-.3.777.371.143-.3-.777-.37-.778-.372-.143.3zm.143-.3.777.371q.112-.234.256-.437l-.703-.498-.703-.498a4.7 4.7 0 0 0-.405.691zm.33-.564.703.498.187-.264-.703-.498-.703-.498-.187.264zm.187-.264.703.498.187-.264-.703-.498-.703-.498-.187.264zm.187-.264.703.498q.213-.3.396-.623l-.75-.425-.75-.424a6 6 0 0 1-.302.476zm.349-.55.75.425.161-.286-.75-.424-.75-.424-.161.285zm.161-.285.75.424.161-.285-.75-.424-.75-.424-.16.285zm.161-.285.75.424a.7.7 0 0 1 .196-.218l-.513-.693-.512-.692a2.4 2.4 0 0 0-.67.755zm.433-.487.513.693.272-.202-.513-.692-.513-.692-.271.201zm.272-.2.513.691.272-.201-.513-.692-.513-.692-.272.2zm.272-.202.513.692c.39-.29.604-.704.655-1.163l-.856-.095-.857-.095q-.001.019-.002.017l.006-.014a.1.1 0 0 1 .028-.034zm.312-.566.856.095.04-.364-.856-.095-.856-.095-.04.364zm.04-.364.856.095.04-.365-.856-.095-.856-.094-.04.364zm.04-.364.857.094a.7.7 0 0 1 .087-.284l-.734-.45-.735-.45a2.4 2.4 0 0 0-.33.995zm.21-.64.734.45.169-.275-.735-.45-.734-.45-.169.274zm.168-.275.735.45.168-.275-.734-.45-.734-.45-.17.274zm.17-.276.733.45a.8.8 0 0 1 .22-.228l-.505-.699-.504-.699a2.5 2.5 0 0 0-.68.726zm.448-.477.504.699.28-.203-.504-.698-.504-.699-.28.202zm.28-.202.504.698.28-.202-.503-.698-.504-.7-.28.203zm.28-.202.505.698q.326-.235.614-.509l-.594-.624-.593-.625a4 4 0 0 1-.435.36zm.525-.435.594.624.244-.232-.593-.625-.594-.624-.244.233zm.245-.233.593.625.245-.233-.594-.624-.593-.624-.245.232zm.244-.232.594.625c.273-.26.467-.578.571-.941l-.828-.238-.828-.239a.36.36 0 0 1-.102.169zm.337-.554.828.238.093-.323-.828-.238-.828-.238-.093.322zm.093-.323.828.238.093-.322-.828-.238-.828-.238-.093.322zm.093-.322.828.238a8 8 0 0 1 .185-.567l-.808-.299-.807-.299a10 10 0 0 0-.226.689zm.206-.628.807.3.114-.306-.808-.299-.808-.3-.113.306zm.113-.305.808.3.112-.306-.807-.3-.808-.299-.113.306zm.113-.305.808.299a.5.5 0 0 1 .14-.203l-.582-.634-.582-.635a2.2 2.2 0 0 0-.592.874zm.366-.538.583.634.253-.232-.583-.635-.582-.635-.254.233zm.253-.233.583.635.253-.233-.582-.634-.583-.635-.253.232zm.254-.232.582.634c.251-.23.452-.502.59-.814l-.787-.35-.787-.35a.7.7 0 0 1-.18.245zm.385-.53.787.35.133-.297-.787-.35-.788-.35-.132.297zm.133-.297.787.35.132-.297-.787-.35-.787-.35-.133.296zm.132-.298.787.35c.15-.337.205-.696.187-1.059l-.86.043-.86.043a.6.6 0 0 1-.041.273zm.114-.666.86-.043-.018-.369-.86.043-.861.043.018.37zm-.019-.369.86-.043-.018-.369-.86.043-.86.043.018.369zm-.018-.369.86-.043v-.034l.001-.004-.003.009-.003.004-.658-.556-.658-.556c-.3.355-.421.784-.4 1.223zm.197-.624.658.556.216-.255-.658-.556-.658-.556-.216.255zm.216-.255.658.556.215-.255-.658-.556-.658-.556-.215.255zm.215-.255.658.556c.218-.259.38-.552.477-.877l-.825-.247-.826-.248a.7.7 0 0 1-.142.26zm.31-.568.825.247.094-.312-.826-.248-.825-.247-.094.312zm.093-.313.826.248.093-.313-.825-.248-.825-.247-.094.313zm.094-.312.825.247q.07-.228.179-.43l-.756-.412-.757-.413a4 4 0 0 0-.316.76zm.248-.595.756.412.154-.282-.756-.412-.757-.413-.154.282zm.154-.282.756.412.154-.282L98.93 11l-.756-.413-.154.282zM98.93 11l.757.412q.207-.38.313-.804l-.836-.209-.836-.208a1.7 1.7 0 0 1-.154.396zm.234-.6.836.208.079-.319-.836-.208-.836-.208-.08.318zm.079-.319.836.208.079-.318-.836-.208-.836-.209-.079.319zm.08-.318.835.208a.36.36 0 0 1 .102-.17l-.614-.605-.614-.605a2.1 2.1 0 0 0-.546.963zm.323-.567.614.605.244-.249-.613-.604-.614-.605-.245.248zm.245-.248.613.604.245-.248-.614-.604-.614-.605-.244.248zm.244-.248.614.604c.236-.24.424-.516.55-.83l-.8-.32-.8-.321a.8.8 0 0 1-.178.262zm.364-.546.8.32.119-.297-.799-.321-.8-.321-.12.298zm.12-.298.799.32.12-.297-.8-.321-.8-.32-.119.297zm.119-.298.8.32q.102-.254.234-.501l-.761-.405-.76-.405a7 7 0 0 0-.312.67zm.273-.586.761.405.153-.288-.761-.405-.76-.405-.153.288zm.153-.288.761.405.153-.289-.76-.404-.761-.405-.153.288zm.154-.288.76.404a4.5 4.5 0 0 0 .313-.738l-.819-.266-.82-.265q-.076.24-.195.46zm.254-.6.819.266.101-.312-.819-.265-.82-.265-.101.311zm.101-.31.819.264.101-.31-.82-.266-.819-.265-.101.311zm.1-.312.82.265q.147-.461.131-.95l-.861.029-.861.028q.005.202-.048.363zm.09-.656.861-.028-.012-.345-.861.028-.861.028.012.345zm-.012-.345.861-.028-.011-.345-.861.028-.861.028.011.345zm-.011-.345.861-.028q-.006-.236.041-.429l-.837-.202-.837-.203q-.105.436-.089.89zm.065-.66.837.203.076-.314-.837-.203-.837-.202-.076.314zm.076-.314.837.203.076-.315-.837-.202-.837-.203-.076.315zm.076-.314.837.202q.066-.267.16-.527l-.809-.295-.809-.296a6 6 0 0 0-.216.713zm.188-.62.809.295.111-.305-.809-.296-.809-.295-.111.305zm.111-.306.809.296.112-.305-.809-.296-.809-.296-.112.306zm.112-.305.809.296c.024-.067.032-.07.012-.04a.5.5 0 0 1-.092.098.7.7 0 0 1-.258.135l-.233-.83-.233-.83c-.318.09-.505.31-.596.44-.1.142-.168.298-.218.435zm.238-.34.233.829.126-.036-.233-.83-.233-.829-.126.036zm.126-.036-.089.857.218.022.089-.856.09-.857-.218-.023zm.218.023.808.298.035-.094-.808-.298-.808-.299-.035.094z"/></svg>