<svg xmlns="http://www.w3.org/2000/svg" width="94" height="46" fill="none" viewBox="0 0 94 46"><path fill="#fff" d="M.751 2.118a.862.862 0 0 0 .221 1.71l-.11-.855zm.21.842.11.854.177-.022.153-.092zm.556-.33-.44-.741zm.878-.368L2.3 1.406zm.323-.037.096.857zm.322-.036-.097-.856zm.663.084.287-.812zm.683.241-.287.813zm.642-.084.484.712zm.602-.41.485.713zm.626-.222.045.86zm.324-.017-.045-.86zm.324-.017L6.86.904zm.653.013.076-.858zm.655.058-.076.859zm.644-.076L8.58.942zm.315-.106L8.896.836zm.315-.107.275.817zm.645-.06-.117.853zm.659.09.117-.854zm.649-.005L11.306.72zm.64-.1.132.852zm.647.005.14-.85zm.329.054-.14.85zm.329.054-.14.85zm.961-.185-.304-.806zm.962-.146.234-.829zm.328.093-.234.829zm.328.093.235-.83zm.652.085-.02-.86zm.646-.014.02.862zm.642-.13.312.803zm.32-.124L17.91.453zm.319-.124L18.23.33zm.643-.087.095-.856zm.324.036-.095.856zm.324.036-.095.856zm.647.04-.012.862zm.324.005.013-.861zm.324.005-.013.861zm.647-.085-.231-.83zm.646-.18.231.83zm.646.022L23.35.11zm.323.112.282-.814zm.323.112.282-.814zm.646.13.046-.861zm.646.034-.046.86zm.647.009-.024-.862zm.323-.01.025.862zm.324-.008.024.86zm.646-.001-.023.861zm.321.009.023-.862zm.322.008.023-.861zm.645.026.047-.86zm.323.018-.047.86zm.323.018.048-.86zm.64.143.318-.8zm.318.126-.318.8zm.317.125.317-.8zm.648-.026-.36-.783zm.33-.152-.359-.783zm.332-.152.36.783zm.646-.017-.34.792zm.63.27.34-.792zm.646.054.205.837zm.662-.161-.204-.837zm.647-.007.197-.839zm.316.074.197-.839zm.317.074-.197.839zm.653-.018-.228-.831zm.673-.185.228.83zm.65.014-.277.816zm.628.214L38.21.94zm.633.155.13-.851zm.319.049-.13.851zm.318.049-.13.851zm.651.025-.06-.86zm.332-.023-.06-.86zm.333-.023.06.86zm.644.076.261-.82zm.312.1-.26.82zm.921.382-.453.732zm.592.366.453-.733zm.92.366-.243.827zm.311.092.243-.827zm.643.075.042.86zm.33-.016-.042-.86zm.33-.016.043.86zm.668-.042-.064-.859zm.336-.025.064.86zm.337-.025-.064-.859zm.629.15.441-.74zm.584.349-.44.74zm.61.231-.153.848zM49 4.11l.153-.847zm.317.058-.153.847zm.66.03-.068-.86zm.686-.055.068.859zm.63.151-.456.732zm.286.179-.455.731zm.287.178.455-.731zm.61.22-.107.854zm1.258.302-.462.727zm.567.36-.462.727zm.588.282-.272.817zm.61.203-.272.818zm.654.088-.033-.86zm.35-.013-.034-.861zm.349-.014.033.861zm.64.135.39-.768zm.291.148-.39.768zm.292.148-.39.768zm.78.66.623-.595zm.244.256-.623.595zm.572.31-.143.85zm.328.056.143-.85zm.933.28.448-.736zm.553.337-.448.735zm.632.177-.022.861zm.71.018.02-.862zm.622.198-.499.703zm.536.38.498-.702zm.5.442-.634.584zm.462.502.633-.585zm.597.263.03-.86zm.365.013.03-.861zm.365.013-.03.86zm.65.167-.41.758zm.571.31.41-.757zm.482.454-.721.472zm.195.3.721-.472zm.196.299-.72.471zm.421.54.63-.59zm.225.24-.629.589zm.226.24.629-.588zm.483.431-.512.694zm.514.38.512-.694zm.563.318-.334.794zm.61.257.334-.794zm.582.298.45-.734zm.276.17-.45.733zm.276.169-.45.734zm.58.315.373-.777zm.604.29-.373.777zm.532.377-.61.607zm.459.462.61-.608zm.436.484-.666.545zm.415.507.667-.546zm.452.467-.566.65zm.245.214.566-.65zm.245.213.566-.649zm.431.483.709-.49zm.372.538-.708.49zm.43.487-.575.642zm.243.218.575-.642zm.243.217.575-.641zm.446.472-.675.536zm.403.508.675-.535zm.453.473.564-.652zm.252.217.564-.651zm.252.218-.564.651zm.314.571.848-.149zm.062.354-.849.149zm.345.947-.635.583zm.22.24-.634.583zm.22.24.636-.582zm.36.535.78-.369zm.55 1.176.785-.354zm.264.588.786-.353zm.234.603-.82.268zm.621 1.132.468-.723zm.638.412-.468.724zm.473.495-.76.407zm.309.576.76-.407zm.06.675.838.203zm-.187.775-.837-.203zm.036.678.787-.35zm.527 1.167-.78.366zm.275.588.78-.366zm.45 1.207-.814.28zm.225.937.846-.16zm.06.316-.847.16zm.073.645-.861.034zm.012.329.861-.034zm.013.328.861-.034zm.066.641.85-.144zm.106.625-.85.144zm.245.608.722-.47zm.193.295.722-.47zm.193.296-.722.47zm.112.631.838.2zm-.16.673-.839-.2zm.027.646-.814.283zm.108.31.813-.284zm.108.31-.814.283zm.13.634-.86.059zm.022.324-.86.06zm.022.325.86-.059zm.058.387.746-.43zm.036.062-.746.43.142.248.263.113zm.058.025.853-.118-.066-.48-.446-.193zm-.507.785c.38.288.92.213 1.207-.166l4.684-6.179a.861.861 0 1 0-1.373-1.04l-4.164 5.492-5.492-4.164a.862.862 0 0 0-1.04 1.373zM.862 2.973l.11.854.1-.013L.96 2.96l-.11-.854-.1.012zM.96 2.96l.44.74.557-.33-.44-.74-.441-.741-.557.33zm.556-.33.44.74q.244-.143.39-.203c.103-.043.147-.05.145-.05l-.097-.855-.096-.856c-.406.046-.83.25-1.222.483zm.878-.368.097.856.322-.036-.096-.857-.097-.856-.322.037zm.323-.037.096.857.322-.037-.096-.856-.097-.856-.322.036zm.322-.036.096.856a.6.6 0 0 1 .28.04l.287-.812.287-.812a2.3 2.3 0 0 0-1.047-.128zm.663.084-.287.813.341.12.287-.812.287-.812-.341-.121zm.341.12-.287.813.342.12.287-.812.287-.812-.342-.12zm.342.121-.287.813c.487.172.988.105 1.413-.184l-.484-.713-.484-.712c-.004.002.018-.013.06-.019.043-.005.07.004.069.003zm.642-.084.484.712.302-.204-.485-.713-.484-.712-.301.205zm.301-.205.485.713.301-.205-.485-.713-.484-.712-.301.205zm.301-.205.485.713a.36.36 0 0 1 .186-.074l-.045-.86-.045-.86c-.392.02-.75.155-1.065.369zm.626-.222.045.86.324-.016-.045-.86-.045-.86-.324.016zm.324-.017.045.86.325-.016-.046-.86-.045-.86-.324.016zm.324-.017.046.86q.262-.012.53.01l.077-.857.076-.858A5.5 5.5 0 0 0 6.86.904zm.653.013-.077.858.328.03.077-.859.076-.858-.328-.03zm.328.03-.077.857.328.03.076-.859.077-.858-.328-.029zm.327.028-.076.859c.338.03.673-.01.995-.119l-.275-.816L8.58.942a.7.7 0 0 1-.292.035zm.644-.076.275.816.315-.106-.275-.816-.275-.817-.315.106zm.315-.106.275.816.315-.106-.275-.817L9.211.73l-.315.106zm.315-.107.275.817a.54.54 0 0 1 .253-.024l.117-.854.117-.853A2.26 2.26 0 0 0 9.211.73zm.645-.06-.117.853.329.045.117-.853.117-.854-.329-.045zm.33.045-.118.853.33.045.117-.853.117-.854-.33-.045zm.329.045-.118.853q.45.063.9-.007l-.133-.85-.133-.852q-.191.03-.4.002zm.649-.005.132.851.32-.05-.133-.85-.132-.852-.32.05zm.32-.05.132.852.32-.05-.133-.852-.133-.85-.32.05zm.32-.05.132.852q.18-.03.375.003l.14-.85.14-.85a2.9 2.9 0 0 0-.92-.006zm.647.005-.14.85.329.054.14-.85.14-.85-.328-.054zm.329.054-.14.85.328.054.14-.85.14-.85-.328-.054zm.329.054-.14.85c.37.062.739.023 1.089-.11l-.304-.805-.305-.806a.37.37 0 0 1-.2.021zm.645-.065.304.806.317-.12-.305-.806-.304-.806-.317.12zm.316-.12.305.806.316-.12-.304-.805-.305-.806-.316.12zm.317-.12.304.807a.15.15 0 0 1 .106-.004l.235-.829.234-.829a1.87 1.87 0 0 0-1.184.05zm.645-.026-.235.83.329.092.234-.829.234-.829-.328-.093zm.328.093-.234.829.328.093.234-.83.235-.828-.329-.093zm.328.093-.234.829q.447.127.905.118l-.02-.862-.018-.86a1.4 1.4 0 0 1-.398-.054zm.652.085.019.862.323-.007-.019-.862-.019-.86-.323.006zm.323-.007.019.862.323-.007-.019-.862-.019-.861-.323.007zm.323-.007.02.862c.32-.007.633-.073.934-.189l-.312-.803-.31-.804c-.126.049-.241.07-.35.073zm.642-.13.312.803.319-.124-.311-.803-.312-.803-.319.123zm.32-.124.31.803.32-.123-.311-.804L18.23.33l-.319.124zm.319-.124.31.804a.5.5 0 0 1 .238-.035l.095-.856.095-.856c-.36-.04-.714.01-1.05.14zm.643-.087-.095.856.324.036.095-.856.095-.857L19.28.19zm.324.036-.095.856.324.036.095-.856.095-.857-.324-.036zm.324.036-.095.856q.364.04.73.046l.012-.862.013-.861a6 6 0 0 1-.565-.036zm.647.04-.012.862.323.004.013-.861.013-.861-.324-.005zm.324.005-.012.861.323.005.013-.861.013-.862-.324-.004zm.324.005-.013.861q.454.007.891-.117l-.231-.83-.231-.83a1.4 1.4 0 0 1-.403.054zm.647-.085.231.83.323-.09-.231-.83-.231-.83-.323.09zm.323-.09.231.83.323-.09-.23-.83-.232-.83-.323.09zm.323-.09.231.83a.2.2 0 0 1 .133.006l.282-.814.282-.814A1.92 1.92 0 0 0 22.19.072zm.646.022-.282.814.323.111.282-.813.282-.814L23.35.11zm.323.112-.282.813.322.112.283-.813.282-.814-.323-.112zm.323.112-.283.813q.431.151.882.176l.047-.86.046-.86a1.5 1.5 0 0 1-.41-.083zm.646.13-.047.86.323.017.047-.86.047-.86-.323-.018zm.323.017-.047.86.323.017.047-.86.047-.86-.323-.018zm.323.017-.046.86q.359.02.717.01l-.024-.861-.024-.862a7 7 0 0 1-.576-.007zm.647.009.024.86.324-.008-.024-.861L25.95.45l-.323.01zm.323-.01.025.862.323-.01-.024-.86-.024-.862-.324.01zm.324-.008.024.86q.3-.007.599 0l.023-.861.022-.861q-.345-.009-.692 0zm.646-.001-.023.861.322.009.022-.861.023-.862-.322-.008zm.321.009-.022.86.321.01.023-.862.023-.861-.322-.009zm.322.008-.023.861q.31.008.621.026l.047-.86.047-.86a24 24 0 0 0-.669-.028zm.645.026-.047.86.323.018.047-.86.048-.86-.323-.018zm.323.018-.047.86.323.018.047-.86.048-.86-.323-.018zm.323.018-.047.86q.176.009.37.084l.318-.8.317-.802a2.9 2.9 0 0 0-.91-.202zm.64.143-.317.801.317.126.318-.801.317-.801-.317-.126zm.318.126-.318.8.317.126.318-.8.317-.801-.317-.126zm.317.125-.318.801c.446.177.907.148 1.325-.044l-.36-.783-.359-.783-.016.006.013-.001.023.001.009.003zm.648-.026.36.783.33-.152-.36-.783-.359-.783-.331.152zm.33-.152.36.783.331-.152-.36-.783-.359-.783-.33.152zm.332-.152.36.783q.013-.006.01-.004l-.02.002q-.016 0-.03-.003-.014-.002-.013-.003l.339-.792.34-.792a1.63 1.63 0 0 0-1.346.026zm.646-.017-.34.792.316.135.34-.792.338-.792-.315-.135zm.315.135-.34.792.316.135.34-.792.339-.792-.316-.135zm.315.135-.339.792c.38.163.786.198 1.19.1l-.205-.838-.204-.837a.14.14 0 0 1-.102-.009zm.646.054.205.837.33-.08-.204-.837-.204-.837-.331.08zm.331-.08.205.836.33-.08-.204-.837-.204-.837-.331.08zm.331-.081.204.837a.5.5 0 0 1 .247-.005l.196-.84.197-.838a2.2 2.2 0 0 0-1.048.009zm.647-.007-.196.839.316.074.197-.839.196-.839-.316-.074zm.316.074-.196.839.316.074.197-.839.196-.839-.316-.074zm.317.074-.197.839c.361.085.725.07 1.078-.027l-.228-.83-.228-.831a.45.45 0 0 1-.229.01zm.653-.018.228.83.337-.092-.229-.83L36.09.79l-.336.092zm.336-.093.229.831.336-.092-.228-.831-.228-.83-.337.092zm.337-.092.228.83a.23.23 0 0 1 .145 0l.278-.816.277-.815a1.95 1.95 0 0 0-1.156-.03zm.65.014-.277.816.314.106.277-.815.278-.816-.314-.106zm.314.107-.277.815.314.107.277-.815.278-.816-.314-.107zm.314.107-.277.815q.384.13.78.192l.13-.852.13-.851a3 3 0 0 1-.485-.12zm.633.155-.13.852.318.048.13-.851.13-.852-.318-.048zm.319.049-.13.851.318.05.13-.852.13-.852-.318-.049zm.318.049-.13.851q.416.063.84.034l-.059-.86-.06-.86q-.24.018-.46-.017zm.651.025.06.86.332-.023-.06-.86-.06-.86-.331.024zm.332-.023.06.86.332-.023-.06-.86-.059-.86-.332.024zm.333-.023.06.86a.9.9 0 0 1 .323.037l.261-.82.261-.822a2.6 2.6 0 0 0-.965-.114zm.644.076-.261.821.312.1.261-.821.262-.821-.313-.1zm.312.1-.26.82.311.1.262-.82.26-.822-.311-.1zm.313.1-.262.82q.206.065.417.194l.453-.732.453-.733a3.6 3.6 0 0 0-.8-.37zm.608.282-.453.732.296.183.453-.732.453-.733-.296-.183zm.296.183-.453.732.296.184.453-.733.453-.733-.296-.183zm.296.183-.453.733q.387.241.818.368l.243-.826.243-.827a1.6 1.6 0 0 1-.398-.18zm.608.275-.243.826.312.092.243-.827.243-.826-.312-.092zm.312.091-.243.827.311.091.243-.826.243-.827-.311-.091zm.311.092-.243.826q.455.133.928.11l-.042-.86-.043-.861a1.1 1.1 0 0 1-.357-.042zm.643.075.042.86.33-.016-.042-.86-.042-.86-.33.016zm.33-.016.042.86.331-.016-.042-.86-.042-.86-.331.015zm.33-.016.043.86q.342-.016.689-.043l-.064-.859-.064-.859q-.325.024-.645.04zm.668-.042.064.86.336-.026-.064-.859-.064-.859-.336.025zm.336-.025.064.86.337-.026-.064-.859-.064-.859-.337.025zm.337-.025.064.86a.2.2 0 0 1 .123.03l.442-.74.441-.74a1.9 1.9 0 0 0-1.134-.269zm.629.15-.442.74.293.174.441-.74.441-.74-.292-.174zm.292.174-.441.74.292.175.441-.74.442-.74-.293-.175zm.292.175-.44.74q.418.251.897.34l.153-.849.152-.847a1 1 0 0 1-.32-.124zm.61.231-.153.848.316.057.153-.848.153-.847-.317-.057zM49 4.11l-.153.848.317.057.153-.847.153-.848-.317-.057zm.317.058-.153.847q.434.077.88.041l-.068-.859-.067-.858q-.24.018-.44-.02zm.66.03.067.858.344-.027-.068-.859-.068-.859-.343.028zm.343-.028.068.86.343-.028-.068-.859-.068-.859-.343.027zm.343-.027.068.859a.15.15 0 0 1 .106.024l.456-.732.455-.73a1.87 1.87 0 0 0-1.153-.28zm.63.151-.456.732.287.178.455-.731.456-.732-.287-.178zm.286.179-.455.731.286.178.456-.73.455-.732-.286-.179zm.287.178-.456.731q.441.276.96.343l.107-.855.107-.854a.6.6 0 0 1-.263-.096zm.61.22-.107.854.325.04.107-.854.108-.855-.325-.04zm.325.04-.107.855.325.04.107-.854.107-.855-.324-.04zm.325.04-.108.856a.6.6 0 0 1 .254.093l.462-.727.462-.727a2.3 2.3 0 0 0-.963-.349zm.608.222-.462.727.283.18.463-.727.462-.727-.284-.18zm.284.18-.463.727.284.18.462-.727.462-.727-.283-.18zm.283.18-.462.727q.368.236.778.372l.272-.817.273-.817a1.8 1.8 0 0 1-.399-.192zm.588.282-.272.817.305.102.272-.817.273-.818-.305-.101zm.305.102-.272.817.305.102.272-.818.273-.817-.305-.102zm.305.101-.272.818q.466.152.96.131l-.034-.86-.033-.862a1 1 0 0 1-.349-.044zm.654.088.033.861.35-.013-.033-.861-.034-.861-.349.013zm.35-.013.033.86.349-.013-.033-.86-.034-.861-.349.013zm.349-.014.033.861a.4.4 0 0 1 .217.042l.39-.768.39-.768a2.14 2.14 0 0 0-1.064-.227zm.64.135-.39.768.29.148.391-.768.39-.768-.29-.148zm.291.148-.39.768.291.148.39-.768.391-.767-.291-.149zm.292.148-.39.768c.1.052.201.126.303.232l.622-.596.623-.595a2.9 2.9 0 0 0-.768-.576zm.535.404-.622.596.244.255.623-.595.623-.595-.245-.256zm.245.256-.623.595.244.256.623-.595.623-.595-.244-.256zm.244.256-.623.595a1.87 1.87 0 0 0 1.052.565l.143-.85.143-.849c-.023-.004-.049-.01-.092-.056zm.572.31-.143.85.328.056.143-.85.143-.85-.328-.055zm.328.056-.143.85.328.055.143-.85.143-.85-.328-.054zm.328.055-.143.85a.8.8 0 0 1 .3.11l.448-.736.448-.735a2.6 2.6 0 0 0-.91-.338zm.605.224-.448.736.276.169.449-.736.448-.736-.277-.168zm.277.169-.449.736.277.168.448-.735.449-.736-.277-.169zm.276.169-.448.735c.326.198.686.294 1.058.303l.022-.861.021-.861a.4.4 0 0 1-.204-.052zm.632.177-.022.861.355.009.021-.861.022-.861-.355-.01zm.354.009-.02.861.354.009.021-.861.021-.862-.354-.008zm.355.009-.021.86a.24.24 0 0 1 .145.041l.499-.703.498-.702a1.96 1.96 0 0 0-1.1-.358zm.623.198-.499.703.268.19.499-.702.498-.703-.268-.19zm.268.19-.499.703.268.19.499-.702.498-.703-.268-.19zm.268.19-.499.703q.192.136.365.323l.633-.584.633-.584a4 4 0 0 0-.634-.56zm.5.442-.634.584.232.25.633-.583.633-.585-.231-.25zm.23.25-.632.585.23.25.634-.584.633-.584-.231-.25zm.232.252-.633.584c.322.349.744.524 1.2.54l.03-.86.03-.862-.021-.002.007.003q.009.003.016.009l.004.003zm.597.263-.03.861.364.013.03-.861.03-.861-.364-.013zm.365.013-.03.86.364.014.03-.861.03-.861-.364-.013zm.365.013-.03.86c.126.005.21.033.27.065l.41-.758.41-.757a2.3 2.3 0 0 0-1.03-.271zm.65.167-.41.758.285.155.41-.758.411-.757-.285-.155zm.286.155-.41.758.285.154.41-.757.41-.757-.285-.155zm.285.155-.41.757c.052.029.11.077.17.169l.722-.472.72-.472a2.2 2.2 0 0 0-.791-.74zm.482.454-.721.472.195.3.721-.473.721-.471-.196-.3zm.195.3-.72.471.195.3.721-.472.721-.472-.196-.3zm.196.299-.72.471q.233.358.512.657l.63-.588.628-.59a3 3 0 0 1-.329-.422zm.421.54-.629.588.225.24.63-.588.628-.589-.225-.24zm.225.24-.629.589.226.24.629-.588.629-.589-.226-.24zm.226.24-.63.59q.279.296.601.535l.511-.694.512-.693a2.7 2.7 0 0 1-.365-.326zm.483.431-.512.694.258.19.51-.694.512-.693-.257-.19zm.257.19-.511.693.257.19.511-.693.512-.694-.258-.19zm.257.19-.51.693q.342.253.74.42l.333-.795.334-.794a2 2 0 0 1-.385-.217zm.563.318-.334.794.305.129.334-.795.334-.794-.305-.128zm.305.128-.334.795.306.128.334-.794.333-.794-.305-.129zm.306.129-.334.794q.245.103.464.238l.451-.734.45-.734a5 5 0 0 0-.698-.358zm.581.298-.45.734.275.17.451-.735.451-.734-.276-.17zm.276.17-.45.733.276.17.45-.734.451-.734-.276-.17zm.276.169-.45.734q.315.193.656.357l.373-.776.374-.777a6 6 0 0 1-.502-.272zm.58.315-.374.776.302.146.374-.777.373-.776-.302-.146zm.302.145-.374.777.303.145.373-.776.374-.777-.303-.145zm.302.146-.373.776q.172.084.294.207l.611-.607.611-.607a2.8 2.8 0 0 0-.77-.546zm.532.376-.61.607.228.231.611-.607.612-.607-.23-.231zm.23.23-.612.608.23.231.61-.607.612-.608-.23-.23zm.229.232-.611.607q.2.201.38.422l.667-.545.667-.545a8 8 0 0 0-.492-.547zm.436.484-.666.545.207.254.667-.546.667-.545-.208-.253zm.208.253-.667.546.207.253.667-.545.667-.546-.207-.253zm.207.254-.667.545q.253.31.553.571l.566-.65.566-.648a3 3 0 0 1-.351-.363zm.452.467-.566.65.245.213.566-.65.566-.649-.245-.213zm.245.214-.566.649.245.214.566-.65.566-.649-.245-.214zm.245.213-.566.65q.164.142.289.323l.708-.49.709-.49a3.5 3.5 0 0 0-.574-.642zm.431.483-.708.49.186.27.708-.491.709-.49-.186-.27zm.186.269-.708.49.186.27.708-.491.709-.49-.186-.27zm.186.269-.708.49q.243.352.563.639l.575-.642.574-.642q-.167-.15-.295-.335zm.43.487-.575.642.244.217.574-.641.575-.642-.244-.218zm.243.218-.574.641.243.218.575-.642.574-.641-.243-.218zm.243.217-.574.642q.188.17.345.366l.675-.536.674-.535a4.7 4.7 0 0 0-.545-.578zm.446.472-.675.536.202.254.674-.536.675-.535-.202-.254zm.201.254-.674.536.201.254.675-.535.675-.536-.202-.254zm.202.255-.675.535q.254.32.565.588l.563-.651.564-.652a2.7 2.7 0 0 1-.342-.356zm.453.472-.563.65.251.219.564-.652.564-.651-.252-.218zm.252.217-.564.652.252.217.564-.65.564-.652-.252-.218zm.252.218-.564.651a.1.1 0 0 1 .013.016c.002.004.01.02.016.053l.849-.149.848-.149a1.8 1.8 0 0 0-.598-1.073zm.314.571-.849.15.062.353.849-.15.848-.149-.062-.353zm.062.354-.849.149.062.353.849-.149.848-.15-.062-.352zm.062.353-.849.15c.067.38.228.733.497 1.027l.635-.583.634-.583a.3.3 0 0 1-.069-.16zm.283.594-.635.583.22.24.635-.583.635-.583-.22-.24zm.22.24-.634.583.22.24.635-.583.635-.582-.221-.24zm.22.24-.634.583q.134.144.216.32l.778-.369.78-.368a3 3 0 0 0-.504-.748zm.36.535-.778.368.139.294.778-.369.78-.368-.14-.294zm.14.294-.78.368.14.294.778-.369.78-.368-.14-.294zm.138.293-.778.369q.135.286.264.573l.786-.353.785-.354q-.135-.3-.278-.603zm.272.589-.786.353.132.294.786-.353.786-.354-.133-.294zm.132.294-.786.353.133.294.785-.353.786-.353-.132-.295zm.132.294-.785.353q.113.252.2.518l.819-.268.819-.268a7 7 0 0 0-.267-.688zm.234.603-.82.268.102.308.819-.268.818-.267-.1-.309zm.1.308-.818.268.1.309.82-.268.818-.268-.1-.308zm.102.31-.82.267c.14.424.423.745.771.97l.468-.723.468-.723a.3.3 0 0 1-.068-.058v-.002zm.42.514-.469.723.32.207.467-.724.468-.723-.319-.206zm.318.206-.468.724.32.206.467-.724.468-.723-.319-.206zm.32.206-.469.724c.11.071.158.133.182.178l.76-.407.759-.407a2.2 2.2 0 0 0-.765-.81zm.472.495-.76.407.155.288.76-.407.759-.407-.154-.288zm.155.288-.76.407.154.288.76-.407.76-.407-.155-.288zm.154.288-.76.407-.005-.013v-.004c0 .004.001.03-.012.083l.838.202.837.203c.1-.417.085-.867-.139-1.285zm.06.675-.837-.202-.093.387.837.202.837.203.094-.387zm-.093.387-.837-.202-.094.387.837.203.838.202.093-.387zm-.094.388-.837-.203c-.096.396-.095.824.086 1.231l.787-.35.787-.35c.003.005 0 .004 0-.01-.001-.017 0-.054.015-.116zm.036.678-.787.35.13.291.787-.35.787-.35-.13-.291zm.13.291-.787.35.13.291.786-.35.787-.35-.13-.291zm.13.291-.788.35q.133.3.275.601l.78-.366.78-.366q-.135-.285-.26-.569zm.267.585-.78.366.137.294.78-.366.78-.366-.137-.294zm.137.294-.78.366.138.294.78-.366.78-.366-.138-.294zm.138.294-.78.365q.118.252.207.512l.815-.279.815-.28a7 7 0 0 0-.277-.684zm.242.598-.815.28.105.304.815-.28.814-.279-.104-.304zm.105.305-.815.279.104.304.815-.279.815-.28-.105-.304zm.104.304-.815.28q.084.245.133.501l.846-.16.847-.16a5 5 0 0 0-.196-.74zm.164.62-.846.161.06.316.846-.16.846-.16-.06-.316zm.06.317-.847.16.06.316.847-.16.846-.16-.06-.316zm.06.316-.847.16q.048.253.059.519l.86-.034.861-.034q-.015-.39-.087-.771zm.073.645-.861.034.013.328.86-.033.861-.034-.013-.329zm.012.329-.86.033.012.33.861-.035.861-.034-.013-.328zm.013.328-.86.034q.014.382.077.751l.85-.144.849-.144a4 4 0 0 1-.055-.53zm.066.641-.85.144.054.313.849-.144.85-.144-.053-.313zm.053.313-.85.144.053.312.85-.144.85-.144-.054-.312zm.053.312-.85.144c.058.337.188.65.374.934l.721-.47.722-.47a.7.7 0 0 1-.118-.282zm.245.608-.721.47.192.296.722-.47.722-.471-.193-.296zm.193.295-.722.47.193.296.722-.47.721-.47-.192-.296zm.193.296-.722.47.003.005a.1.1 0 0 1-.007-.041v-.003l.838.2.838.2a1.64 1.64 0 0 0-.229-1.302zm.112.631-.838-.2-.08.336.838.2.837.201.08-.336zm-.08.337-.838-.2-.08.335.837.2.838.201.08-.336zm-.08.336-.839-.2c-.09.375-.077.759.052 1.13l.814-.284.813-.284a.27.27 0 0 1-.003-.162zm.027.646-.814.283.108.31.814-.283.813-.284-.108-.31zm.108.31-.814.283.108.31.813-.284.814-.283-.108-.31zm.108.31-.814.283q.07.2.084.41l.86-.06.86-.058q-.031-.44-.177-.86zm.13.634-.86.059.022.324.86-.059.86-.059-.023-.324zm.022.324-.86.06.023.324.86-.059.859-.059-.023-.325zm.022.325-.86.059q.013.179.034.328.01.074.032.164c.012.045.04.152.106.266l.746-.43.746-.43a.8.8 0 0 1 .072.17l.003.01v.004-.002a1 1 0 0 1-.01-.078l-.01-.12zm.058.387-.746.43.036.062.746-.43.746-.43-.036-.063zm.036.062-.341.79.057.026.342-.791.341-.791-.058-.025zm.058.025-.854.117.014.1.853-.118.854-.118-.014-.099z"/></svg>