<svg xmlns="http://www.w3.org/2000/svg" width="106" height="55" fill="none" viewBox="0 0 106 55"><path fill="#fff" d="M3.425 54.13c.205.43.72.612 1.149.407l6.996-3.34a.862.862 0 0 0-.742-1.556l-6.22 2.97-2.969-6.22a.862.862 0 0 0-1.555.743zm.81-.465-.718-.475-.058.088-.035.1zm.648-.98.719.475zm.4-1.086-.859.062zm-.046-.65.859-.061zm-.047-.648-.86.062zm.093-.816.82.266zm.186-.574-.82-.265zm.186-.574.82.266zm.278-.755.796.33zm.232-.558-.796-.33zm.231-.559.796.33zm.409-.698.68.53zm.381-.488-.679-.53zm.382-.489.679.53zm.394-.7.807.301zm.21-.562-.807-.302zm.21-.563.807.302zm.35-.717.734.451zm.315-.513-.734-.45zm.316-.513.734.45zm.46-.662.678.53zm.373-.479-.679-.53zm.374-.48.68.531zm.441-.665.754.416zm.287-.52-.754-.417zm.287-.52.754.415zm.222-.796.86.058zm.045-.673-.86-.058zm.046-.673.86.059zm.345-.724.568.647zm.472-.415-.568-.647zm.472-.414.569.647zm.62-.55.574.644zm.46-.408-.573-.644zm.46-.41.572.644zm.372-.716.852.128zm.1-.666-.853-.128zm.1-.666.851.128zm.427-.673.461.727zm.542-.344-.462-.727zm.541-.344.462.728zm.62-.532.655.56zm.386-.453-.656-.56zm.387-.454.656.558zm.5-.62.685.522zm.364-.477-.685-.523zm.363-.477.685.522zm.527-.597.603.616zm.427-.417-.603-.616zm.427-.418.602.615zm.436-.686.807.3zm.228-.611-.807-.301zm.228-.611.807.3zm.525-.602.398.764zm.56-.291-.397-.764zm.56-.291.398.764zm.703-.424.494.706zm.493-.345-.495-.706zm.492-.345.495.705zm.535-.602.753.419zm.31-.556-.753-.419zm.31-.557.752.418zm.57-.557.39.769zm.549-.277-.39-.769zm.547-.278.39.768zm.655-.463.597.62zm.434-.418-.597-.621zm.435-.418.597.621zm.58-.559.598.62zm.436-.42-.598-.62zm.437-.422.598.62zm.675-.428.308.805zm.576-.22-.309-.805zm.576-.222.309.805zm.66-.46.646.57zm.412-.469-.646-.569zm.413-.468.646.57zm.613-.528.463.726zm.507-.323-.463-.727zm.507-.323.463.726zm.716-.366.318.8zm.567-.226-.318-.8zm.568-.226.318.8zm.734-.33.387.77zm.534-.268-.387-.77zm.533-.268.387.77zm.754-.28.213.835zm.596-.152-.213-.835zm.597-.152.213.835zm.708-.376.57.645zm.465-.412-.57-.645zm.465-.411.571.645zm.674-.45.374.777zm.547-.262-.374-.777zm.546-.263.373.777zm.72-.36.396.766zm.535-.276-.397-.765zm.534-.277.396.765zm.739-.319.284.813zm.573-.2-.284-.814zm.574-.201.285.813zm.758-.27.293.81zm.564-.203-.293-.81zm.563-.203.293.81zm.806-.111-.049.86zm.645.036.05-.86zm.645.037-.049.86zm.798-.13.335.793zm.551-.233-.335-.794zm.551-.233.335.794zm.764-.227.153.848zm.595-.107-.152-.848zm.595-.107.153.848zm.757-.281.434.744zm.541-.315-.434-.745zm.54-.315.434.744zm.788-.123.172-.844zm.641.13-.172.845zm.641.131.172-.844zm.8-.09.37.78zm.56-.264-.368-.779zm.56-.265.37.779zm.78-.168.018-.861zm.608.013-.019.862zm.608.013.018-.861zm.802-.046.119.853zm.596-.083-.118-.853zm.596-.082.118.853zm.796-.05-.012.862zm.598.009.012-.862zm.599.008-.012.861zm.79-.13.282.814zm.589-.204-.282-.814zm.588-.203.282.814zm.795-.048.183-.842zm.604.131-.184.842zm.603.132.184-.841zm.8.042.1.856zm.595-.07-.099-.855zm.596-.068.1.855zm.793-.218.342.791zm.594-.257-.342-.79zm.594-.257.342.791zm.795-.028.29-.811zm.598.214-.29.811zm.599.214.29-.811zm.803.011.267.819zm.606-.198-.267-.819zm.606-.197.267.819zm.802-.138.014.861zm.598-.01-.013-.861zm.598-.01.014.862zm.8-.016.022.861zm.602-.015-.022-.862zm.602-.016.022.861zm.798.17L85.2.247zm.594.27-.356.784zm.595.27.356-.784zm.793.155.055.86zm.595-.039-.056-.86zm.595-.038.055.86zm.796-.002.053-.86zm.6.037-.052.86zm.6.036.052-.86zm.8.083.124-.852zm.6.088-.126.853zm.6.088.124-.852zm.795.069.021-.862zm.595.014-.02.861zm.595.014.021-.86zm.786.127.249-.824zm.583.176-.249.825zm.584.177.249-.825zm.808.039.157.847zm.63-.117-.158-.847zm.628-.117.158.847zm.785.142.444-.738zm.548.33-.444.738zm.548.33.444-.739zm.778.177.088.857zm.621-.064-.088-.857zm.62-.063.088.857zm.789.015.129-.852zm.562.086-.13.851zm.563.086.13-.852zm.363.125.846.16zm-.02.101.655.56.149-.175.043-.225zm-.13.153-.655-.56-.991 1.159 1.504.25zm-.043.866a.861.861 0 1 0 .283-1.7l-.142.85zM4.202 53.76l.813.288.033-.095-.812-.287-.812-.287-.034.094zm.034-.094.719.475.647-.98-.719-.475-.719-.475-.647.98zm.647-.98.719.475c.318-.482.583-1.044.54-1.623l-.858.062-.86.062c0-.012.005.025-.033.128-.038.101-.107.24-.227.421zm.4-1.086.86-.062-.047-.65-.86.063-.859.062.047.649zm-.046-.65.859-.061-.047-.65-.86.063-.858.062.046.649zm-.047-.648.86-.062a1.3 1.3 0 0 1 .052-.488l-.82-.266-.819-.265c-.12.369-.16.752-.132 1.143zm.093-.816.82.266.185-.574-.82-.266-.819-.265-.186.574zm.186-.574.82.266.185-.574-.82-.266-.819-.265-.186.574zm.186-.574.82.266q.113-.35.254-.69l-.796-.33-.796-.33q-.167.403-.302.819zm.278-.755.796.33.232-.558-.796-.33-.796-.33-.232.558zm.232-.558.796.33.231-.559-.796-.33-.795-.33-.232.559zm.231-.559.796.33q.11-.262.292-.498l-.679-.53-.68-.53a3.9 3.9 0 0 0-.524.898zm.409-.698.68.53.38-.488-.679-.53-.679-.53-.381.488zm.381-.488.68.53.38-.489-.678-.53-.68-.53-.38.489zm.382-.489.679.53a3.5 3.5 0 0 0 .522-.929l-.807-.301-.807-.302a1.8 1.8 0 0 1-.267.472zm.394-.7.807.301.21-.562-.807-.301-.807-.302-.21.562zm.21-.562.807.301.21-.562-.807-.302-.807-.301-.21.562zm.21-.563.807.302a3.3 3.3 0 0 1 .277-.568l-.734-.45-.734-.452q-.254.414-.423.867zm.35-.717.734.451.315-.513-.734-.45-.734-.452-.315.514zm.315-.513.734.451.316-.513-.734-.451-.734-.451-.316.513zm.316-.513.734.45q.185-.3.404-.582l-.679-.53-.679-.53a8 8 0 0 0-.514.74zm.46-.662.678.53.374-.479-.679-.53-.679-.53-.374.479zm.373-.479.68.53.373-.479-.679-.53-.679-.53-.374.479zm.374-.48.68.531q.29-.372.515-.78l-.754-.416-.754-.416q-.158.285-.366.552zm.441-.665.754.416.287-.52-.754-.417-.754-.416-.287.52zm.287-.52.754.416.287-.52-.754-.417-.754-.416-.287.52zm.287-.52.754.415c.197-.355.3-.745.327-1.153l-.86-.058-.859-.058c-.012.19-.057.33-.116.437zm.222-.796.86.058.045-.673-.86-.058-.86-.058-.045.673zm.045-.673.86.058.046-.672-.86-.059-.86-.058-.045.673zm.046-.673.86.059c.006-.09.028-.114.053-.136l-.568-.647-.568-.648a1.88 1.88 0 0 0-.637 1.314zm.345-.724.568.647.473-.415-.569-.647-.568-.647-.472.414zm.472-.415.569.647.471-.414-.568-.647-.568-.648-.472.415zm.472-.414.569.647q.316-.279.625-.553l-.573-.643-.573-.644-.616.545zm.62-.55.574.644.459-.409-.573-.643-.573-.644-.46.41zm.46-.408.573.643.459-.409-.573-.643-.573-.644-.459.41zm.46-.41.572.644c.37-.329.58-.757.652-1.232l-.852-.128-.852-.127c-.018.117-.055.166-.094.2zm.372-.716.852.128.1-.666-.853-.128-.852-.128-.1.667zm.1-.666.851.128.1-.666-.852-.128-.852-.128-.1.666zm.1-.666.851.128a.2.2 0 0 1 .016-.056l.002-.003.02-.015-.462-.727-.462-.728a1.78 1.78 0 0 0-.818 1.273zm.427-.673.461.727.542-.343-.461-.728-.462-.727-.542.343zm.542-.344.461.727.542-.343-.462-.728-.461-.727-.542.344zm.541-.344.462.728q.463-.294.813-.7l-.656-.56-.655-.558a1.9 1.9 0 0 1-.425.363zm.62-.532.655.56.387-.455-.656-.558-.656-.56-.386.455zm.386-.453.656.558.387-.454-.656-.558-.656-.559-.387.454zm.387-.454.656.558q.273-.32.53-.656l-.686-.523-.685-.522q-.229.3-.47.584zm.5-.62.685.522.364-.477-.685-.523-.685-.522-.364.477zm.364-.477.685.522.363-.477-.685-.522-.685-.523-.363.477zm.363-.477.685.522q.205-.268.445-.503l-.603-.616-.603-.615q-.33.322-.609.69zm.527-.597.603.616.426-.418-.602-.615-.603-.616-.427.418zm.427-.417.602.615.427-.418-.602-.615-.603-.616-.427.418zm.427-.418.602.615c.289-.282.5-.62.641-1l-.807-.301-.807-.301a1 1 0 0 1-.232.371zm.436-.686.807.3.228-.61-.807-.301-.807-.301-.228.61zm.228-.611.807.3.228-.61-.807-.302-.807-.3-.228.61zm.228-.611.807.3c.03-.078.063-.11.116-.137l-.398-.765-.397-.764c-.445.23-.762.6-.935 1.065zm.525-.602.398.764.56-.29-.397-.765-.398-.764-.56.29zm.56-.291.398.764.56-.29-.397-.765-.397-.765-.56.292zm.56-.291.398.764q.42-.218.799-.482l-.494-.706-.494-.706q-.28.196-.605.365zm.703-.424.494.706.493-.346-.494-.705-.495-.706-.492.345zm.493-.345.494.706.493-.346-.495-.705-.494-.706-.493.345zm.492-.345.495.705c.332-.232.596-.533.793-.888l-.753-.419-.753-.418a.9.9 0 0 1-.276.314zm.535-.602.753.419.31-.557-.753-.419-.753-.418-.31.557zm.31-.556.753.418.31-.557-.754-.418-.753-.419-.31.557zm.31-.557.752.418a.47.47 0 0 1 .208-.206l-.39-.769-.389-.768a2.2 2.2 0 0 0-.935.906zm.57-.557.39.769.548-.278-.39-.768-.389-.769-.548.278zm.549-.277.39.768.547-.278-.39-.768-.39-.768-.547.277zm.547-.278.39.768q.478-.241.862-.61l-.597-.621-.597-.622q-.194.189-.447.317zm.655-.463.597.62.434-.417-.597-.621-.597-.621-.434.418zm.434-.418.598.62.434-.417-.597-.62-.598-.622-.434.418zm.435-.418.597.621.581-.56-.598-.62-.598-.62-.58.558zm.58-.559.598.62.436-.42-.598-.62-.598-.62-.436.42zm.436-.42.598.62.437-.421-.598-.62-.598-.62-.437.42zm.437-.422.598.62c.11-.105.235-.186.385-.243l-.308-.805-.309-.804a2.85 2.85 0 0 0-.964.612zm.675-.428.308.805.576-.221-.308-.805-.309-.804-.576.221zm.576-.22.308.804.576-.221-.308-.805-.309-.804-.576.221zm.576-.222.309.805a2.5 2.5 0 0 0 .997-.695l-.647-.57-.646-.569a.8.8 0 0 1-.322.225zm.66-.46.646.57.413-.47-.647-.569-.646-.569-.413.469zm.412-.469.647.57.412-.469-.646-.57-.647-.569-.412.47zm.413-.468.646.57q.2-.225.43-.372l-.463-.726-.463-.727a3.7 3.7 0 0 0-.797.685zm.613-.528.463.726.507-.323-.463-.726-.463-.727-.507.323zm.507-.323.463.726.507-.323-.463-.726-.463-.727-.507.323zm.507-.323.463.726a3.4 3.4 0 0 1 .571-.292l-.318-.8-.319-.8q-.453.18-.86.44zm.716-.366.318.8.568-.226-.319-.8-.318-.8-.568.226zm.567-.226.319.8.567-.225-.318-.8-.319-.801-.567.226zm.568-.226.318.8q.413-.163.803-.36l-.387-.77-.387-.769a8 8 0 0 1-.666.299zm.734-.33.387.77.534-.268-.387-.77-.387-.77-.534.27zm.534-.268.387.77.533-.268-.387-.77-.387-.77-.533.269zm.533-.268.387.77q.27-.135.58-.215l-.213-.835-.213-.835a4.6 4.6 0 0 0-.928.346zm.754-.28.213.835.596-.152-.213-.835-.213-.835-.596.152zm.596-.152.213.835.597-.152-.213-.835-.213-.835-.597.152zm.597-.152.213.835q.6-.155 1.066-.566l-.571-.645-.571-.645a.8.8 0 0 1-.35.186zm.708-.376.57.645.466-.411-.571-.646-.57-.645-.466.412zm.465-.412.57.646.466-.412-.57-.645-.572-.645-.465.411zm.465-.411.571.645q.223-.197.477-.318l-.374-.777-.373-.776a3.8 3.8 0 0 0-.872.58zm.674-.45.374.777.546-.263-.373-.776-.374-.777-.546.263zm.547-.262.373.776.546-.262-.373-.777-.374-.776-.546.262zm.546-.263.373.777q.375-.18.743-.371l-.396-.765-.396-.765q-.345.178-.698.348zm.72-.36.396.766.535-.277-.396-.765-.397-.765-.534.277zm.535-.276.396.765.534-.277-.396-.765-.396-.765-.535.277zm.534-.277.396.765a5 5 0 0 1 .627-.27l-.284-.814-.285-.813a6.6 6.6 0 0 0-.85.367zm.739-.319.284.813.574-.2-.285-.813-.284-.814-.574.201zm.573-.2.285.813.574-.201-.285-.813-.284-.813-.574.2zm.574-.201.285.813q.386-.134.766-.272l-.293-.81-.292-.811q-.372.134-.75.267zm.758-.27.293.81.563-.203-.292-.81-.293-.81-.563.203zm.564-.203.292.81.564-.203-.293-.81-.292-.81-.564.203zm.563-.203.293.81c.133-.048.284-.072.464-.061l.05-.86.048-.86a2.9 2.9 0 0 0-1.147.16zm.806-.111-.049.86.645.037.05-.86.048-.86-.645-.037zm.645.036-.049.86.645.037.05-.86.048-.86-.645-.037zm.645.037-.049.86c.408.024.806-.038 1.182-.197l-.335-.793-.335-.794a.9.9 0 0 1-.414.064zm.798-.13.335.793.551-.232-.335-.794-.335-.794-.551.233zm.551-.233.335.794.551-.233-.335-.794-.335-.793-.551.232zm.551-.233.335.794q.279-.118.582-.173l-.153-.848-.152-.847a4.5 4.5 0 0 0-.947.28zm.764-.227.153.848.595-.107-.153-.848-.152-.848-.595.108zm.595-.107.153.848.595-.107-.153-.848-.153-.848-.594.107zm.595-.107.153.848a3.2 3.2 0 0 0 1.038-.385l-.434-.744-.433-.745a1.5 1.5 0 0 1-.477.178zm.757-.281.434.744.54-.315-.433-.744-.434-.745-.54.315zm.541-.315.434.744.54-.315-.433-.744-.434-.744-.54.314zm.54-.315.434.744c.049-.028.094-.04.182-.023l.172-.844.172-.844a1.95 1.95 0 0 0-1.393.223zm.788-.123-.172.844.641.13.172-.843.172-.844-.64-.131zm.641.13-.172.845.641.13.172-.844.172-.844-.64-.13zm.641.131-.172.845c.457.093.914.047 1.341-.155l-.368-.78-.368-.778a.4.4 0 0 1-.26.024zm.8-.09.37.78.56-.265-.37-.779-.368-.779-.56.265zm.56-.264.37.779.56-.265-.37-.779-.368-.779-.56.265zm.56-.265.37.779a.85.85 0 0 1 .391-.085l.018-.862.019-.861a2.6 2.6 0 0 0-1.166.25zm.78-.168-.019.862.608.013.019-.862.018-.861-.608-.013zm.608.013-.019.862.608.013.019-.862.018-.861-.608-.013zm.608.013-.019.862q.474.01.94-.055l-.119-.853-.118-.853q-.328.045-.666.038zm.802-.046.119.853.595-.082-.118-.854-.118-.853-.596.083zm.596-.083.118.854.596-.083-.118-.853-.118-.853-.596.082zm.596-.082.118.853q.333-.045.666-.041l.012-.861.012-.862a6 6 0 0 0-.926.058zm.796-.05-.012.862.599.008.011-.861.012-.862-.598-.008zm.598.009-.011.861.598.008.012-.861.011-.862-.598-.008zm.599.008-.012.861q.555.007 1.084-.177l-.281-.814-.282-.815q-.256.089-.498.083zm.79-.13.282.814.588-.204-.281-.814-.282-.814-.588.204zm.589-.204.281.814.589-.203-.282-.814-.282-.815-.588.204zm.588-.203.282.814a.6.6 0 0 1 .329-.02l.184-.842.183-.842a2.3 2.3 0 0 0-1.26.075zm.795-.048-.184.841.604.132.184-.842.183-.841-.604-.132zm.604.131-.184.842.604.132.183-.842.184-.841-.604-.132zm.603.132-.183.842q.538.118 1.082.056l-.1-.856-.099-.856q-.25.03-.516-.027zm.8.042.1.856.595-.07-.1-.855-.099-.856-.596.07zm.595-.07.1.857.595-.07-.1-.855-.099-.856-.595.07zm.596-.068.1.855c.354-.04.7-.137 1.035-.282l-.342-.79-.342-.791a2 2 0 0 1-.55.152zm.793-.218.342.791.594-.257-.342-.79-.342-.791-.594.257zm.594-.257.342.791.594-.257-.342-.79-.343-.791-.593.257zm.594-.257.342.791c.067-.03.106-.028.162-.008l.29-.811.29-.811a1.9 1.9 0 0 0-1.427.049zm.795-.028-.29.811.598.214.29-.811.29-.811-.598-.214zm.598.214-.29.811.599.214.29-.811.29-.811-.599-.214zm.599.214-.29.811c.446.16.91.166 1.36.019l-.267-.819-.267-.82A.35.35 0 0 1 78.32.64zm.803.011.267.819.606-.198-.267-.819-.267-.819-.606.198zm.606-.198.267.82.606-.198-.267-.82-.267-.818-.606.197zm.606-.197.267.819q.289-.093.549-.096L80.847.93l-.013-.862q-.537.01-1.056.18zm.802-.138.014.861.598-.01-.014-.86-.013-.862-.598.01zm.598-.01.014.862.598-.01-.014-.861-.014-.861-.597.009zm.598-.01.014.862q.403-.006.808-.017l-.022-.86-.022-.862q-.398.01-.791.017zm.8-.016.022.861.602-.015-.022-.861-.022-.862-.602.016zm.602-.015.022.86.602-.015-.022-.86L84.025 0l-.602.015zm.602-.016.022.861a.94.94 0 0 1 .42.093l.356-.784.356-.785a2.66 2.66 0 0 0-1.176-.246zm.798.17-.357.784.595.27.356-.784.357-.784-.595-.27zm.594.27-.356.784.594.27.357-.784.356-.784-.594-.27zm.595.27-.357.784a2.5 2.5 0 0 0 1.205.23l-.055-.86-.056-.86a.8.8 0 0 1-.38-.078zm.793.155.055.86.595-.04-.055-.859-.056-.86-.595.039zm.595-.039.055.86.595-.039-.055-.86-.056-.86-.595.04zm.595-.038.055.86q.342-.023.689-.002l.052-.86.053-.86a7 7 0 0 0-.905.002zm.796-.002-.052.86.6.037.052-.86.052-.86-.6-.037zm.6.037-.052.86.6.036.052-.86.052-.86-.6-.036zm.6.036-.053.86q.363.022.728.076l.124-.853.125-.852a10 10 0 0 0-.872-.09zm.8.083-.125.853.6.088.124-.853.125-.852-.6-.088zm.6.088-.126.853.6.088.125-.853.125-.852-.6-.088zm.6.088-.126.853q.45.066.9.077l.021-.861.021-.862a6 6 0 0 1-.692-.06zm.795.069-.02.86.594.015.021-.861.021-.861-.595-.015zm.595.014-.02.861.594.015.021-.862.021-.86-.595-.015zm.595.014-.02.862q.276.006.557.09l.249-.825.249-.824q-.498-.151-1.014-.164zm.786.127-.25.825.584.176.25-.824.248-.825-.583-.176zm.583.176-.249.825.584.176.249-.824.249-.825-.584-.176zm.584.177-.25.824c.398.12.807.138 1.215.062l-.157-.847-.157-.847a.8.8 0 0 1-.403-.017zm.808.039.157.847.63-.117-.158-.847-.157-.847-.63.117zm.63-.117.157.847.629-.117-.158-.847-.157-.847-.63.117zm.628-.117.158.847a.23.23 0 0 1 .183.033l.444-.738.444-.738a1.95 1.95 0 0 0-1.386-.25zm.785.142-.444.738.548.33.444-.738.444-.739-.548-.33zm.548.33-.444.738.547.33.445-.739.444-.738-.548-.33zm.548.33-.444.737c.398.24.844.345 1.31.297l-.088-.857-.087-.857a.37.37 0 0 1-.247-.059zm.778.177.088.857.62-.064-.087-.857-.088-.857-.62.064zm.621-.064.087.857.621-.063-.088-.857-.088-.857-.62.063zm.62-.063.088.857q.314-.031.571.01l.13-.852.129-.852a4 4 0 0 0-1.006-.02zm.789.015-.13.852.562.085.13-.851.13-.852-.563-.086zm.562.086-.13.851.563.086.13-.851.13-.852-.563-.086zm.563.086-.13.851c.114.018.143.028.128.023l-.053-.022a.812.812 0 0 1-.344-.336.84.84 0 0 1-.085-.551l.847.16.846.16c.091-.484-.221-.785-.337-.875a1.1 1.1 0 0 0-.313-.165 2.5 2.5 0 0 0-.429-.097zm.363.125-.847-.16-.019.101.846.16.847.16.019-.101zm-.02.101-.654-.56-.131.153.655.56.655.56.13-.153zm-.13.153-.142.85.099.016.141-.85.142-.85-.099-.016z"/></svg>