<svg xmlns="http://www.w3.org/2000/svg" width="70" height="58" fill="none" viewBox="0 0 70 58"><path fill="#fff" d="M2.817.963A.862.862 0 0 0 1.107.76l.855.102zM1.95.961l.827.243.02-.07.009-.072zm-.168.57L.956 1.29zM1.386 3.05.55 2.846zm-.04 3.256.739.444zm-.375.625-.738-.444zm.218 1.29-.796.33zm.57 3.836-.836.207zm-.072.657-.789-.346zm-.3.684-.789-.346zm.045.639-.719.474zm.391.593.72-.474zm.43 1.887.793-.337zm.254.598-.793.337zm.108 1.297-.861-.016zm.059.65-.844.173zm.13.632.844-.174zm.06.658.86.015zm-.012.685-.862-.015zm.078.66-.833.22zm.168.634.833-.221zm.302.581-.664.548zm.436.528.664-.548zm.26.6.855-.108zm.085.674-.855.108zm.18.632.782-.36zm.136.296.782-.36zm.137.296-.783.361zm1.194 1.58-.406.76zm.337.18.406-.76zm.338.18.406-.759zm.299.582-.858-.082zm-.077.801.857.082zm.255.596.476-.718zm.294.194-.476.718zm.294.195.476-.718zm.35.552-.85.137zm.116.715.85-.137zm.33.557-.51.695zm.546.401.51-.695zm.594.358.38-.774zm.32.157-.38.773zm.321.158.38-.773zm.462.455.779-.368zm.282.597-.778.369zm.266.625.805-.307zm.125.327-.805.307zm.124.327.805-.307zm.463.447-.289.812zm.337.12.289-.812zm.338.12.289-.812zm.529.387-.701.5zm.381.534.701-.5zm.403.515-.655.56zm.211.248-.655.56zm.212.248-.655.56zm.515.387-.36.783zm.608.28.36-.784zm.541.36.588-.63zm.238.22-.588.631zm.237.221-.588.63zm.515.383.433-.745zm.278.161-.432.745zm.278.162-.432.745zm.574.303.373-.776zm.592.284-.373.777zm.505.403-.672.539zm.418.52.672-.538zm.53.356.244-.826zm.32.095-.244.826zm.32.094.245-.826zm.576.296-.534.676zm.254.201.534-.676zm.255.201-.535.676zm.536.353.408-.76zm.564.303-.408.759zm.597.25-.255.822zm.63.195.256-.823zm.587.263-.447.736zm1.1.65-.412.757zm.568.309.411-.757zm.536.396-.597.622zm.504.485.597-.622zm.565.324.22-.832zm.624.166-.221.833zm.597.255.446-.736zm.57.346-.446.737zm.591.287-.3.807zm.306.114-.301.807zm.305.114.302-.807zm.661.053-.145-.85zm.71-.122.146.85zm.677-.004.15-.849zm.644.113-.149.848zm.626.163-.286.813zm.609.214.285-.813zm.629.12.033-.861zm.325.013-.034.86zm.324.012.034-.86zm.635.111-.262.821zm.618.197-.261.821zm.599.301-.495.706zm.577.406-.495.705zm.624.15-.135-.852zm.334-.054.135.851zm.335-.052.134.85zm.662-.057.01.862zm.328-.003-.009-.862zm.328-.004.01.862zm.618.269-.59.628zm.29.272.59-.628zm.29.272-.59.628zm.605.307.094-.857zm.317.035.094-.857zm.316.034.094-.856zm.647-.004-.1-.855zm.33-.039-.1-.855zm.33-.039.102.856zm.65.054-.24.827zm.32.092.24-.827zm.32.093-.24.827zm.657-.052.339.792zm.337-.144.34.791zm.337-.145-.339-.792zm.646-.013.338-.792zm.617.264-.339.792zm.629.204.188-.841zm.64.143-.188.84zm.648.116-.115.854zm.328.044.115-.854zm.328.044.115-.853zm.65-.059.263.821zm.647-.206-.262-.82zm.639.04.356-.785zm.632.287-.356.784zm.642.087-.145-.85zm.654-.112.146.849zm.657-.118.157.847zm.66-.122-.157-.847zm.647-.106.12.853zm.316-.045-.12-.853zm.316-.044-.12-.853zm.636-.047-.007-.862zm.638-.005.006.861zm.645.053.146-.848zm.65.113-.146.849zm.653-.006-.162-.847zm.653-.125.162.846zm.655.124-.425.75zm.328.186-.425.749zm.328.186.425-.75zm.639.023-.4-.764zm.311-.163.4.763zm.312-.163.399.764zm.643-.042-.294.81zm.332.12.293-.81zm.331.12-.293.81zm.65-.035.378.775zm.636-.31-.378-.774zm.529-.24.324.798zm.422-.172-.324-.798zm.218-.004-.859.07zm.006.08.766.396.113-.219-.02-.246zm-.086.169-.766-.395-.692 1.34 1.506-.085zm.742.568a.86.86 0 0 0-.069-1.217l-5.784-5.163a.862.862 0 0 0-1.147 1.285l5.141 4.59-4.59 5.141a.862.862 0 1 0 1.286 1.148zM1.962.862 1.106.76l-.011.1.855.1.856.102.011-.099zM1.95.96 1.124.718l-.168.57.826.244.827.242.168-.57zm-.168.57L.956 1.29q-.171.579-.255.927l.838.202.837.202q.068-.284.233-.846zm-.243.887L.7 2.216l-.076.315.837.202.838.202.076-.315zm-.077.315-.837-.202-.076.315.837.203.838.202.076-.316zm-.076.316L.55 2.846q-.101.42-.098.851l.861-.006.862-.005a1.8 1.8 0 0 1 .05-.435zm-.074.642-.861.006.002.328.861-.006.862-.006-.002-.327zm.002.328-.861.006.002.327.862-.006.861-.005-.002-.328zm.003.327-.862.006q.003.396.068.79l.85-.138.85-.14a3.4 3.4 0 0 1-.045-.523zm.056.658-.85.139.054.33.85-.14.85-.139-.054-.33zm.054.33-.85.139.054.33.85-.14.85-.14-.054-.329zm.054.33-.85.138v.011a.2.2 0 0 1-.022.048l.738.444.738.444c.22-.366.318-.785.246-1.225zm-.134.641-.738-.444-.188.312.738.445.738.444.188-.313zm-.188.313L.42 6.173l-.188.313.738.444.738.444.188-.312zM.97 6.93l-.738-.444c-.261.433-.31.933-.11 1.412l.795-.33.796-.33a.2.2 0 0 1 .008.079c-.003.043-.017.064-.013.057zm-.053.638-.796.33.136.326.795-.33.796-.33-.135-.326zm.135.326-.795.33.135.326.796-.33.795-.33-.135-.326zm.136.326-.796.33c.05.12.068.224.067.314l.861.006.862.006a2.5 2.5 0 0 0-.199-.986zm.132.65L.46 8.864l-.002.324.861.006.862.006.002-.324zm-.002.324-.861-.006-.003.324.862.006.861.006.003-.324zm-.002.324-.862-.006q-.003.397.062.788l.85-.141.85-.14a3 3 0 0 1-.039-.495zm.05.64-.85.142.053.317.85-.141.85-.14-.053-.318zm.053.318-.85.14.052.318.85-.14.85-.142-.053-.317zm.052.317-.85.14q.058.352.145.7l.836-.208.836-.207a7 7 0 0 1-.117-.566zm.13.632-.835.208.078.315.836-.207.836-.208-.078-.315zm.079.316-.836.207.078.315.836-.207.836-.208-.078-.315zm.078.315-.836.207.001.02a.3.3 0 0 1-.026.084l.79.346.788.346c.165-.375.224-.789.12-1.21zm-.072.657-.789-.346-.15.342.79.346.788.346.15-.342zm-.15.342-.789-.346-.15.342.789.346.789.346.15-.342zm-.15.342-.789-.346a1.49 1.49 0 0 0 .115 1.459l.72-.474.719-.475c.007.011.027.049.03.106.004.054-.01.084-.006.076zm.045.639-.719.474.196.297.719-.475.72-.474-.196-.297zm.196.296-.72.474.196.297.72-.474.719-.474-.196-.297zm.195.297-.719.474a.45.45 0 0 1 .083.216l.859-.07.858-.072a2.2 2.2 0 0 0-.361-1.022zm.223.62-.859.07.027.323.858-.07.859-.072-.027-.323zm.026.322-.858.071.026.323.86-.07.858-.072-.027-.323zm.027.323-.859.071q.04.463.22.888l.793-.337.793-.337a1.1 1.1 0 0 1-.088-.356zm.154.622-.793.337.127.3.793-.338.793-.337-.127-.299zm.127.3-.793.336.127.3.793-.338.793-.337-.127-.3zm.127.298-.793.337a.7.7 0 0 1 .053.278l.86.017.862.016a2.4 2.4 0 0 0-.19-.985zm.12.632-.86-.017-.007.333.862.016.86.017.007-.333zm-.005.332-.862-.016-.006.333.861.016.861.017.007-.333zm-.007.333-.861-.016q-.009.426.076.839l.844-.174.844-.174a2 2 0 0 1-.041-.458zm.059.65-.844.173.065.316.844-.174.844-.173-.065-.317zm.065.315-.844.174.065.316.844-.173.844-.174-.065-.316zm.065.317-.844.173q.046.218.042.47l.861.015.862.015q.008-.432-.077-.847zm.06.658-.862-.015-.006.343.862.015.86.014.007-.342zm-.006.343-.862-.015-.006.342.862.015.861.015.006-.343zm-.006.342-.862-.015q-.008.458.107.896l.833-.221.833-.222a1.5 1.5 0 0 1-.05-.423zm.078.66-.833.22.085.318.832-.221.833-.221-.084-.318zm.084.317-.832.22.084.318.832-.221.833-.221-.084-.317zm.084.317-.832.221c.09.337.25.64.47.908l.664-.548.665-.548a.7.7 0 0 1-.134-.254zm.302.581-.664.548.217.264.665-.548.665-.548-.218-.264zm.218.264-.665.548.218.264.665-.548.664-.548-.217-.264zm.218.264-.665.548c.042.052.062.1.07.161l.855-.108.855-.108a2 2 0 0 0-.45-1.04zm.26.6-.855.109.043.337.855-.109.854-.108-.042-.337zm.043.337-.855.109.042.336.855-.108.855-.108-.043-.337zm.042.337-.855.108q.06.463.252.885l.782-.36.783-.362a1.3 1.3 0 0 1-.107-.38zm.18.632-.783.361.137.296.782-.36.782-.362-.136-.296zm.136.296-.782.361.136.296.783-.36.782-.362-.137-.296zm.137.296-.783.361q.164.354.378.682l.721-.471.722-.47a4 4 0 0 1-.256-.463zm.316.572-.721.47.18.277.721-.471.722-.47-.18-.277zm.18.276-.721.47.18.277.722-.471.721-.47-.18-.277zm.18.276-.721.47c.211.324.5.569.833.746l.406-.76.406-.76a.5.5 0 0 1-.202-.167zm.518.456-.406.76.337.18.406-.76.406-.76-.337-.18zm.337.18-.406.76.338.18.406-.76.406-.759-.338-.18zm.338.18-.406.76a.3.3 0 0 1-.117-.13c-.041-.08-.035-.138-.036-.13l.858.082.857.082a1.47 1.47 0 0 0-.147-.822 1.4 1.4 0 0 0-.603-.601zm.299.582-.858-.082-.038.4.857.082.858.083.038-.401zm-.039.4-.857-.082-.039.401.858.082.857.082.039-.4zm-.038.401-.858-.082c-.023.243-.001.51.11.77.115.268.302.476.527.626l.476-.718.476-.718a.336.336 0 0 1 .105.132c.027.062.02.096.021.072zm.255.596-.476.718.294.194.476-.718.476-.718-.294-.194zm.294.194-.476.718.293.195.477-.718.476-.718-.294-.195zm.294.195-.477.718q.006.003-.002-.002a.1.1 0 0 1-.022-.035l.001.008.85-.137.851-.137a1.64 1.64 0 0 0-.725-1.133zm.35.552-.85.137.058.357.85-.137.85-.136-.057-.358zm.058.357-.85.137.057.357.85-.136.851-.137-.057-.357zm.058.358-.851.136c.072.445.294.839.672 1.116l.51-.695.509-.694.003.003.009.012.003.006-.005-.021zm.33.557-.51.695.274.2.51-.694.509-.695-.273-.2zm.273.2-.51.695.274.2.51-.694.509-.695-.273-.2zm.273.201-.51.695a5 5 0 0 0 .724.436l.38-.773.38-.774a3 3 0 0 1-.464-.279zm.594.358-.38.773.32.157.38-.773.38-.773-.32-.158zm.32.157-.38.773.321.158.38-.773.38-.773-.32-.158zm.321.158-.38.773c.055.027.06.043.063.051l.779-.369.779-.368a1.82 1.82 0 0 0-.86-.86zm.462.455-.779.37.142.297.778-.368.779-.369-.141-.298zm.141.299-.778.368.14.299.78-.37.778-.368-.141-.298zm.141.298-.778.369a8 8 0 0 1 .239.563l.805-.307.805-.307a10 10 0 0 0-.292-.687zm.266.625-.805.307.125.327.805-.307.805-.307-.125-.327zm.125.327-.805.307.124.327.805-.307.805-.307-.124-.327zm.124.327-.805.307c.175.46.523.79.98.952l.287-.812.289-.812c-.01-.004.005 0 .026.02q.015.015.022.028.008.013.006.01zm.463.447-.289.812.338.12.288-.812.289-.812-.338-.12zm.337.12-.288.812.338.12.288-.812.289-.812-.338-.12zm.338.12-.288.812c.075.026.1.054.116.075l.7-.5.702-.5a1.93 1.93 0 0 0-.941-.699zm.529.387-.701.5.19.268.701-.5.702-.501-.191-.267zm.19.267-.7.5.19.268.701-.5.701-.501-.19-.267zm.191.267-.701.5q.213.299.449.575l.655-.56.654-.56a7 7 0 0 1-.356-.455zm.403.515-.655.56.211.248.655-.56.655-.56-.212-.248zm.211.248-.655.56.212.247.655-.56.655-.56-.212-.247zm.212.248-.655.56c.225.262.498.466.81.61l.36-.783.36-.783a.6.6 0 0 1-.22-.164zm.515.387-.36.783.305.14.36-.783.36-.783-.305-.14zm.304.14-.36.782.305.14.36-.783.36-.783-.305-.14zm.304.14-.36.782q.182.084.314.208l.587-.63.588-.63a2.9 2.9 0 0 0-.769-.514zm.541.36-.587.63.237.221.588-.63.587-.63-.237-.222zm.238.22-.588.631.237.22.588-.63.587-.63-.237-.22zm.237.221-.588.63q.308.288.67.498l.433-.745.433-.745a2 2 0 0 1-.361-.268zm.515.383-.432.745.278.161.432-.745.433-.745-.278-.161zm.278.161-.432.745.278.162.432-.745.433-.745-.278-.162zm.278.162-.432.745q.308.18.634.335l.372-.777.373-.776a7 7 0 0 1-.514-.272zm.574.303-.372.777.295.142.373-.777.373-.777-.296-.141zm.296.142-.373.777.296.142.373-.777.372-.777-.295-.142zm.296.142-.373.777c.079.038.146.09.206.165l.672-.54.672-.539a2.3 2.3 0 0 0-.805-.64zm.505.403-.672.539.209.26.672-.539.672-.54-.21-.26zm.209.26-.672.54.21.26.671-.54.672-.538-.21-.261zm.21.26-.673.54c.25.31.576.53.958.642l.244-.826.244-.826a.2.2 0 0 1-.102-.068zm.529.356-.244.826.32.095.244-.826.244-.827-.32-.094zm.32.095-.244.826.32.094.245-.826.244-.826-.32-.095zm.32.094-.243.826a.8.8 0 0 1 .285.146l.534-.676.534-.676a2.6 2.6 0 0 0-.865-.446zm.576.296-.534.676.254.201.534-.676.534-.676-.254-.2zm.254.201-.534.676.255.201.534-.676.534-.676-.255-.2zm.255.201-.535.676q.314.247.663.436l.408-.76.408-.758a3 3 0 0 1-.41-.27zm.536.353-.408.759.282.151.408-.759.408-.758-.282-.152zm.282.151-.408.76.282.15.408-.758.408-.759-.282-.151zm.282.152-.408.759q.357.192.75.313l.255-.823.256-.822a2.5 2.5 0 0 1-.445-.186zm.597.25-.255.822.314.098.256-.823.256-.823-.315-.098zm.315.097-.256.823.316.098.255-.823.256-.823-.315-.098zm.315.098-.255.823q.217.068.395.176l.447-.736.447-.736a3.5 3.5 0 0 0-.778-.35zm.587.263-.447.736.271.165.448-.736.447-.736-.272-.165zm.272.165-.448.736.272.166.448-.737.447-.736-.272-.165zm.272.165-.448.737q.29.175.592.34l.412-.757.411-.757q-.265-.144-.52-.299zm.556.32-.412.757.284.154.412-.757.411-.757-.284-.154zm.284.154-.412.757.284.155.412-.757.411-.757-.284-.154zm.284.155-.412.757q.175.093.351.26l.597-.62.597-.622a3.4 3.4 0 0 0-.722-.532zm.536.396-.597.622.253.242.596-.622.597-.621-.252-.242zm.252.242-.596.622.252.242.596-.621.597-.622-.252-.242zm.252.243-.596.621c.264.254.58.44.94.536l.22-.833.221-.832a.4.4 0 0 1-.188-.114zm.565.324-.221.833.312.083.22-.833.222-.833-.312-.082zm.312.083-.221.833.312.083.22-.833.221-.833-.311-.083zm.312.083-.221.833q.189.049.372.16l.446-.738.446-.736a3.1 3.1 0 0 0-.823-.352zm.597.255-.446.737.285.173.446-.737.447-.737-.286-.172zm.285.173-.446.737.285.173.447-.737.446-.737-.285-.173zm.286.173-.447.737q.354.214.736.357l.301-.807.302-.807a2.6 2.6 0 0 1-.446-.217zm.59.287-.3.807.305.114.301-.807.301-.808-.305-.113zm.306.114-.301.807.305.114.301-.807.302-.807-.306-.115zm.305.114-.3.807c.36.134.736.158 1.106.095l-.145-.85-.145-.848a.4.4 0 0 1-.214-.011zm.661.053.145.849.356-.06-.146-.85-.145-.85-.355.062zm.355-.06.146.848.355-.06-.145-.85-.146-.849-.355.06zm.356-.062.145.85c.15-.026.275-.024.383-.005l.148-.849.15-.849a2.8 2.8 0 0 0-.972.004zm.676-.004-.148.849.322.056.148-.849.149-.848-.322-.057zm.322.056-.148.849.321.056.149-.848.149-.849-.322-.056zm.322.057-.149.848q.252.044.49.128l.285-.813.286-.813a5 5 0 0 0-.763-.199zm.626.163-.286.813.305.107.285-.813.286-.813-.304-.107zm.304.107-.285.813.304.107.286-.813.285-.813-.304-.107zm.305.107-.286.813q.428.15.881.168l.034-.861.033-.861a1.3 1.3 0 0 1-.377-.072zm.629.12-.034.86.325.013.033-.86.034-.861-.325-.013zm.325.013-.034.86.325.013.033-.86.034-.862-.325-.012zm.324.012-.033.861q.208.008.406.071l.261-.82.262-.822q-.42-.134-.862-.15zm.635.111-.262.821.31.099.261-.821.261-.82-.31-.1zm.309.099-.261.82.309.1.261-.822.262-.82-.31-.099zm.31.099-.262.82q.174.054.365.186l.495-.706.494-.705a3 3 0 0 0-.831-.416zm.598.3-.495.706.289.202.494-.705.495-.705-.289-.203zm.288.203-.494.705.288.203.495-.705.495-.706-.289-.202zm.29.203-.495.705c.367.257.798.367 1.252.295l-.135-.85-.134-.852q-.006 0 0 0l.013.003q.006.001.007.002 0 0-.014-.009zm.623.15.134.85.334-.053-.134-.85-.134-.851-.335.052zm.334-.054.135.851.334-.053-.134-.85-.135-.851-.334.053zm.335-.052.134.85q.274-.043.538-.045l-.01-.862-.009-.861a5.4 5.4 0 0 0-.788.067zm.662-.057.01.862.328-.004-.01-.861-.009-.862-.328.004zm.328-.003.01.861.328-.003-.01-.862-.009-.861-.328.003zm.328-.004.01.862a.1.1 0 0 1-.035-.006c-.002-.002.016.006.053.04l.59-.627.59-.628c-.319-.3-.73-.508-1.217-.502zm.618.269-.59.628.29.272.59-.628.59-.628-.29-.272zm.29.272-.59.628.29.272.59-.628.59-.628-.29-.272zm.29.272-.59.628c.294.277.663.487 1.101.535l.094-.856.094-.857c.004 0 0 .002-.014-.006a.4.4 0 0 1-.096-.072zm.605.307-.094.856.317.035.094-.857.094-.856-.317-.035zm.317.035-.094.856.316.035.094-.857.094-.856-.316-.035zm.316.034-.094.857q.419.045.842-.005l-.1-.856-.102-.855q-.237.027-.452.003zm.647-.004.101.856.33-.04-.1-.855-.102-.855-.33.039zm.33-.039.101.856.33-.04-.1-.855-.101-.855-.33.038zm.33-.039.102.856a.8.8 0 0 1 .309.025l.24-.827.24-.828a2.5 2.5 0 0 0-.991-.081zm.65.054-.24.827.32.093.24-.828.24-.827-.32-.093zm.32.092-.24.828.32.092.24-.827.24-.828-.32-.092zm.32.093-.24.827c.424.123.848.079 1.236-.087l-.34-.792-.338-.792a.2.2 0 0 1-.062.018l-.017-.002zm.657-.052.339.792.337-.145-.339-.791-.34-.792-.336.144zm.337-.144.34.791.336-.144-.339-.792-.339-.792-.337.145zm.337-.145.34.792.019-.007-.012.001a.1.1 0 0 1-.04-.006l.339-.792.338-.793a1.65 1.65 0 0 0-1.323.013zm.646-.013-.339.793.309.132.338-.793.339-.792-.309-.132zm.308.132-.338.792.308.132.339-.792.338-.792-.308-.132zm.309.132-.339.792q.38.163.78.252l.188-.84.188-.841a2.7 2.7 0 0 1-.479-.155zm.629.204-.189.84.32.072.189-.84.188-.841-.32-.072zm.32.071-.189.841.32.072.189-.841.188-.84-.32-.072zm.32.072-.188.84q.356.08.72.13l.116-.854.115-.854a7 7 0 0 1-.575-.103zm.648.116-.115.854.328.044.115-.854.115-.854-.328-.044zm.328.044-.115.854.328.044.115-.854.115-.853-.328-.045zm.328.044-.115.854a2.3 2.3 0 0 0 1.028-.092l-.262-.82-.262-.821a.6.6 0 0 1-.274.026zm.65-.059.263.821.323-.103-.262-.82-.262-.821-.323.103zm.324-.103.262.82.323-.102-.262-.821-.262-.82-.323.103zm.323-.103.262.82.008-.002h.001-.004q-.004 0 0 0l.016.007.356-.785.356-.785a1.72 1.72 0 0 0-1.257-.076zm.639.04-.356.785.316.143.356-.785.356-.784-.316-.144zm.316.143-.356.785.316.143.356-.784.356-.785-.316-.143zm.316.144-.356.784c.36.163.748.22 1.144.152l-.146-.85-.145-.848a.22.22 0 0 1-.141-.023zm.642.087.146.849.327-.056-.146-.85-.146-.848-.326.056zm.327-.056.146.849.327-.056-.146-.85-.146-.848-.327.056zm.327-.056.146.849q.332-.057.668-.12l-.157-.847-.157-.847q-.325.06-.646.116zm.657-.118.157.847.33-.06-.157-.848-.157-.847-.33.061zm.33-.06.157.846.33-.06-.157-.848-.157-.847-.33.061zm.33-.062.157.847q.313-.058.61-.1l-.12-.853-.12-.853q-.336.048-.684.112zm.647-.106.12.853.317-.045-.121-.853-.12-.853-.317.045zm.316-.045.12.853.317-.044-.12-.853-.121-.853-.317.044zm.316-.044.12.853a4 4 0 0 1 .522-.039l-.006-.861-.007-.862q-.375.003-.75.056zm.636-.047.006.861.32-.002-.007-.862-.007-.861-.319.002zm.319-.003.006.862.32-.003-.007-.861-.007-.862-.319.003zm.319-.002.006.861q.24-.002.492.042l.147-.85.146-.848a4.5 4.5 0 0 0-.798-.067zm.645.053-.147.85.325.056.147-.85.146-.848-.325-.056zm.325.057-.147.849.326.056.146-.85.147-.848-.326-.056zm.325.056-.146.849q.48.083.96-.01l-.161-.845-.162-.847a1 1 0 0 1-.344.004zm.653-.006.16.846.328-.062-.162-.847-.16-.846-.328.062zm.326-.063.162.847.327-.063-.162-.846-.161-.846-.327.062zm.327-.062.162.846h.005c.005.001.025.006.063.027l.425-.75.425-.749a1.8 1.8 0 0 0-1.241-.22zm.655.124-.425.75.328.185.425-.75.425-.749-.328-.186zm.328.186-.425.749.328.186.425-.75.425-.749-.328-.186zm.328.186-.425.749c.45.256.974.292 1.463.037l-.4-.763-.398-.764a.24.24 0 0 1 .114-.022c.055.002.08.019.07.013zm.639.023.399.763.311-.163-.399-.763-.399-.764-.311.163zm.311-.163.4.763.31-.162-.398-.764-.4-.763-.31.162zm.312-.163.399.764q.007-.004-.002 0a.1.1 0 0 1-.048.003q-.007-.002 0 0l.294-.81.294-.81a1.63 1.63 0 0 0-1.336.09zm.643-.042-.294.81.332.12.294-.81.293-.81-.331-.12zm.332.12-.294.81.332.12.293-.81.294-.81-.332-.12zm.331.12-.293.81c.44.16.9.135 1.32-.07l-.377-.775-.378-.774-.005.003a.1.1 0 0 1 .032-.002q.005 0-.005-.002zm.65-.035.378.775.318-.155-.378-.775-.378-.774-.318.155zm.318-.155.378.775.318-.156-.378-.774-.378-.774-.318.155zm.318-.155.378.774q.303-.147.475-.216l-.324-.799-.324-.798a10 10 0 0 0-.583.265zm.529-.24.324.798.21-.086-.323-.798-.324-.798-.211.085zm.211-.086.324.798.211-.085-.324-.799-.324-.798-.21.086zm.211-.086.324.799c.056-.023-.015.016-.146.018a.8.8 0 0 1-.462-.14.82.82 0 0 1-.357-.612l.859-.07.858-.069a.9.9 0 0 0-.388-.672.93.93 0 0 0-.546-.16 1.3 1.3 0 0 0-.466.108zm.218-.004-.859.07.007.08.858-.07.859-.069-.007-.08zm.006.08-.765-.394-.087.168.766.395.765.395.087-.168zm-.086.169.048.86.1-.006-.049-.86-.048-.86-.1.006z"/></svg>